<svg width="125" height="150" viewBox="0 0 125 150" fill="none" xmlns="http://www.w3.org/2000/svg">
<path d="M21.1233 1.73956H115.06C119.589 1.73956 123.261 5.41118 123.261 9.94036V129.97C123.261 134.499 119.589 138.171 115.06 138.171H21.1233C16.5942 138.171 12.9225 134.499 12.9225 129.97V9.94035C12.9225 5.41118 16.5942 1.73956 21.1233 1.73956Z" fill="#FF715C" stroke="#FF715C" stroke-width="3.47913"/>
<rect x="1.73956" y="11.6801" width="110.338" height="136.431" rx="8.2008" fill="white" stroke="#002B51" stroke-width="3.47913"/>
<circle cx="83.7475" cy="120.775" r="17.8926" fill="#36EDAB"/>
<path d="M74.5526 113.817C75.4224 114.853 77.7087 116.302 79.8956 113.817" stroke="#002B51" stroke-width="1.24254" stroke-linecap="round"/>
<path d="M87.4752 113.817C88.345 114.853 90.6313 116.302 92.8182 113.817" stroke="#002B51" stroke-width="1.24254" stroke-linecap="round"/>
<path d="M81.0139 118.042C81.8837 119.077 84.17 120.527 86.3569 118.042" stroke="#002B51" stroke-width="1.24254" stroke-linecap="round"/>
<path d="M16.5259 134.319H56.4116" stroke="#002B51" stroke-width="3.23062" stroke-linecap="round"/>
<path d="M60.139 60.6362H100.025" stroke="#002B51" stroke-width="3.23062" stroke-linecap="round"/>
<path d="M60.139 75.7953H100.025" stroke="#002B51" stroke-width="3.23062" stroke-linecap="round"/>
<path d="M60.139 90.9545H100.025" stroke="#002B51" stroke-width="3.23062" stroke-linecap="round"/>
<path d="M16.6501 121.024H56.5358" stroke="#002B51" stroke-width="3.23062" stroke-linecap="round"/>
<path d="M60.139 45.4772H100.025" stroke="#002B51" stroke-width="3.23062" stroke-linecap="round"/>
<path d="M16.5259 107.356H56.4116" stroke="#002B51" stroke-width="3.23062" stroke-linecap="round"/>
<path d="M60.139 30.3182H100.025" stroke="#002B51" stroke-width="3.23062" stroke-linecap="round"/>
<rect x="16.4015" y="30.3182" width="35.7853" height="62.1272" fill="#FFC43D"/>
<rect x="24.7889" y="36.3925" width="3.16456" height="6.32911" rx="1.05485" fill="#002B51"/>
<rect x="39.557" y="36.3925" width="3.16456" height="6.32911" rx="1.05485" fill="#002B51"/>
<path d="M30.0632 44.3038L33.4915 46.6773L37.4472 44.3038" stroke="#002B51" stroke-width="1.58228" stroke-linecap="round"/>
</svg>
