<svg width="409" height="413" viewBox="0 0 409 413" fill="none" xmlns="http://www.w3.org/2000/svg">
<path d="M175.375 81.5444H379.222C389.05 81.5444 397.018 88.6201 397.018 97.3484V328.661C397.018 337.389 389.05 344.465 379.222 344.465H175.375C165.547 344.465 157.579 337.389 157.579 328.661V97.3484C157.579 88.6201 165.547 81.5444 175.375 81.5444Z" fill="#002B51"/>
<ellipse cx="92.0919" cy="262.869" rx="92.0919" ry="81.5962" fill="#FFC43D"/>
<path d="M354.664 101.49H150.818C140.989 101.49 133.021 108.517 133.021 117.185V346.903C133.021 355.571 140.989 362.598 150.818 362.598H354.664C364.493 362.598 372.46 355.571 372.46 346.903V117.185C372.46 108.517 364.493 101.49 354.664 101.49Z" fill="#74CADD"/>
<path d="M311.066 344.466C332.54 344.466 349.949 329.041 349.949 310.014C349.949 290.987 332.54 275.562 311.066 275.562C289.591 275.562 272.183 290.987 272.183 310.014C272.183 329.041 289.591 344.466 311.066 344.466Z" fill="#FF715C"/>
<path d="M163.719 335.399H251.718" stroke="#002B51" stroke-width="6.61142" stroke-linecap="round"/>
<path d="M259.904 193.966H345.856" stroke="#002B51" stroke-width="6.61142" stroke-linecap="round"/>
<path d="M259.904 222.978H345.856" stroke="#002B51" stroke-width="6.61142" stroke-linecap="round"/>
<path d="M259.904 253.803H345.856" stroke="#002B51" stroke-width="6.61142" stroke-linecap="round"/>
<path d="M165.765 310.014H251.718" stroke="#002B51" stroke-width="6.61142" stroke-linecap="round"/>
<path d="M259.904 164.954H345.856" stroke="#002B51" stroke-width="6.61142" stroke-linecap="round"/>
<path d="M163.719 284.628H251.718" stroke="#002B51" stroke-width="6.61142" stroke-linecap="round"/>
<path d="M259.904 135.942H345.856" stroke="#002B51" stroke-width="6.61142" stroke-linecap="round"/>
<path d="M237.485 135.942H167.719C165.51 135.942 163.719 137.733 163.719 139.942V251.617C163.719 253.826 165.51 255.617 167.719 255.617H237.485C239.694 255.617 241.485 253.826 241.485 251.617V139.942C241.485 137.733 239.694 135.942 237.485 135.942Z" fill="white"/>
<path d="M114 204.001C114 216.18 126.537 220.419 132.806 221.016V190.568C135.492 188.478 142.657 183.583 149.821 180.717C158.776 177.135 161.463 173.553 161.463 167.284C161.463 162.27 155.492 160.419 152.507 160.12C165.94 153.852 166.836 152.956 165.94 144.896C165.224 138.449 156.686 138.031 152.507 138.628C153.701 138.329 156.089 136.479 156.089 131.464C156.089 126.449 150.119 124.598 147.134 124.3C126.358 121.434 116.388 139.822 114 149.374V204.001Z" fill="#FFC43D"/>
<path d="M152.508 138.628C145.045 139.523 129.224 143.105 125.642 150.269" stroke="#002B51" stroke-width="6.13946" stroke-linecap="round"/>
<path d="M150.716 160.12C144.448 161.016 130.478 165.135 124.746 174.449" stroke="#002B51" stroke-width="6.13946" stroke-linecap="round"/>
<path d="M152.173 237.095C142.074 235.666 125.723 250.786 118.81 258.525L92.661 296.921C93.2622 305.85 81.5958 327.991 80.1531 337.278C78.3497 348.886 92.6612 365.677 113.4 365.677C124.314 365.677 135.943 362.105 140.451 359.426V300.493C141.353 300.195 145.861 297.635 156.682 289.778C170.207 279.955 171.587 280.482 169.306 273.705C167.502 268.347 159.687 268.943 154.878 270.133C160.289 268.347 166.601 268.347 169.306 260.311C171.47 253.882 160.589 250.489 154.878 249.596C160.649 249.596 162.693 246.024 162.994 244.238C163.595 242.452 162.272 238.523 152.173 237.095Z" fill="#FFC43D"/>
<path d="M130.883 244C123.046 248.106 98.149 261.42 97.4256 274.793C96.7022 288.166 93.5071 322.595 92 338.138" stroke="#002B51" stroke-width="6.13946" stroke-linecap="round"/>
<path d="M153.511 253C147.508 253.525 137.074 257.639 131 263.232" stroke="#002B51" stroke-width="6.13946" stroke-linecap="round"/>
<path d="M155.372 270C151.279 270.63 142.274 273.967 139 282.279" stroke="#002B51" stroke-width="6.13946" stroke-linecap="round"/>
<path d="M58 260.776C65.4627 263.164 81.6417 265.253 86.6566 254.507" stroke="#002B51" stroke-width="6.13946" stroke-linecap="round"/>
<path d="M80.3879 216L91.1342 225.851" stroke="#002B51" stroke-width="6.13946" stroke-linecap="round"/>
<path d="M58 227.642L68.7462 237.492" stroke="#002B51" stroke-width="6.13946" stroke-linecap="round"/>
<line x1="333" y1="72" x2="333" y2="81" stroke="#002B51" stroke-width="2" stroke-linecap="round"/>
<circle cx="341" cy="55" r="22" fill="#FFC43D"/>
<circle cx="336" cy="47" r="2" fill="#002B51"/>
<ellipse cx="324" cy="53.5" rx="6" ry="2.5" fill="#002B51"/>
<line x1="350" y1="72" x2="350" y2="81" stroke="#002B51" stroke-width="2" stroke-linecap="round"/>
<path d="M370.5 63.5C369.7 61.1 362.5 54.1667 359 51C356.5 55.6667 351.9 65.1 353.5 65.5C355.5 66 371.5 66.5 370.5 63.5Z" fill="#FFC43D"/>
<path d="M347 60.5C347.333 62.6667 352 66.4 360 66" stroke="#002B51" stroke-width="2" stroke-linecap="round"/>
<ellipse cx="233.5" cy="399.5" rx="175.5" ry="13.5" fill="#D9D9D9"/>
<path d="M237.013 5C226.213 5 218.847 11.6667 216.513 15C211.847 20.8333 205.813 31.8 219.013 29C232.213 26.2 236.513 11.8333 237.013 5Z" fill="#FFC43D"/>
<path d="M218 46L223 42" stroke="#002B51" stroke-width="2" stroke-linecap="round"/>
<path d="M212 37L218 46" stroke="#002B51" stroke-width="2" stroke-linecap="round"/>
<circle cx="205" cy="22" r="22" fill="#FFC43D"/>
<path d="M216.414 18.5516C215.92 19.924 213.613 20.3501 211.26 19.5033C208.907 18.6565 207.4 16.8574 207.894 15.485C208.388 14.1126 210.696 13.6865 213.049 14.5333C215.402 15.3801 216.908 17.1792 216.414 18.5516Z" fill="#002B51"/>
<circle cx="201" cy="14" r="2" fill="#002B51"/>
<circle cx="220" cy="13" r="2" fill="#002B51"/>
<path d="M199 38L205 47" stroke="#002B51" stroke-width="2" stroke-linecap="round"/>
<path d="M205 47L210 43" stroke="#002B51" stroke-width="2" stroke-linecap="round"/>
<path d="M169 4C179.8 4 187.167 10.6667 189.5 14C194.167 19.8333 200.2 30.8 187 28C173.8 25.2 169.5 10.8333 169 4Z" fill="#FFC43D"/>
<path d="M225.5 16.5C226.5 18.5 227 22 226.5 25" stroke="#002B51" stroke-linecap="round"/>
<path d="M184 27C186 28 186.5 28 189 28.5" stroke="#002B51" stroke-linecap="round"/>
</svg>
