<svg width="183" height="180" viewBox="0 0 183 180" fill="none" xmlns="http://www.w3.org/2000/svg">
<path d="M38.5 40L46.5 46.5" stroke="#002B51" stroke-width="2" stroke-linecap="round"/>
<path d="M29 73V156C29 156.552 29.4477 157 30 157H128" stroke="#002B51" stroke-width="8" stroke-linecap="round"/>
<path d="M29 156.5V68.5367C29 68.2015 29.1679 67.8886 29.4472 67.7033L78.9628 34.8563C79.2899 34.6394 79.7137 34.6338 80.0463 34.8421L132.531 67.7061C132.823 67.889 133 68.2092 133 68.5537V156.5C133 157.052 132.552 157.5 132 157.5H30C29.4477 157.5 29 157.052 29 156.5Z" fill="#FFC43D"/>
<rect x="54" y="91" width="55" height="34" rx="4" fill="#74CADD"/>
<path d="M120 3.39074V45.6218L129.664 37.859L131.209 36.62H170.571C172.436 36.62 173.962 35.0942 173.962 33.2293V3.39074C173.962 1.52583 172.436 0 170.571 0H123.391C121.526 0 120 1.52583 120 3.39074Z" fill="#FF715C"/>
<path d="M161.221 19.8454C159.737 19.8454 158.535 18.6426 158.535 17.1589C158.535 15.6752 159.737 14.4724 161.221 14.4724C162.705 14.4724 163.908 15.6752 163.908 17.1589C163.908 18.6426 162.705 19.8454 161.221 19.8454Z" fill="white"/>
<path d="M147.345 19.8454C145.861 19.8454 144.658 18.6426 144.658 17.1589C144.658 15.6752 145.861 14.4724 147.345 14.4724C148.828 14.4724 150.031 15.6752 150.031 17.1589C150.031 18.6426 148.828 19.8454 147.345 19.8454Z" fill="white"/>
<path d="M132.745 19.8454C131.261 19.8454 130.059 18.6426 130.059 17.1589C130.059 15.6752 131.261 14.4724 132.745 14.4724C134.229 14.4724 135.432 15.6752 135.432 17.1589C135.432 18.6426 134.229 19.8454 132.745 19.8454Z" fill="white"/>
<path d="M82 93L82 123" stroke="white" stroke-width="4" stroke-linecap="square"/>
<path d="M56 108L107 108" stroke="white" stroke-width="4" stroke-linecap="square"/>
<path d="M80 35L9 79" stroke="#FF715C" stroke-width="11" stroke-linecap="round"/>
<path d="M81 35L152 79" stroke="#FF715C" stroke-width="11" stroke-linecap="round"/>
<path d="M127.5 152.397V139.5C127.5 138.948 127.948 138.5 128.5 138.5H170.5C171.052 138.5 171.5 138.948 171.5 139.5V152.5C171.11 159.137 164.336 165.679 160.757 168.313C160.589 168.437 160.388 168.5 160.18 168.5H138.236C138.081 168.5 137.927 168.464 137.79 168.392C131.58 165.134 128.377 156.597 127.521 152.598C127.506 152.531 127.5 152.465 127.5 152.397Z" fill="white"/>
<path d="M171 138H128V155C131.6 168.6 144.5 170.333 150.5 169.5C165.7 169.9 170.5 159.333 171 154V138Z" fill="#FFC43D"/>
<path d="M53.5 94.5V123.5C53.5 124.052 53.9477 124.5 54.5 124.5H106.5" stroke="#002B51" stroke-width="2" stroke-linecap="round"/>
<rect y="10" width="41" height="31" rx="3" fill="#002B51"/>
<path d="M47.6821 10.9523V46.7036L39.5012 40.1318L38.1929 39.083H4.87048C3.29172 39.083 2 37.7913 2 36.2125V10.9523C2 9.3735 3.29172 8.08179 4.87048 8.08179H44.8116C46.3904 8.08179 47.6821 9.3735 47.6821 10.9523Z" fill="#74CADD"/>
<path d="M12.7855 24.8822C14.0416 24.8822 15.0598 23.864 15.0598 22.6079C15.0598 21.3519 14.0416 20.3336 12.7855 20.3336C11.5295 20.3336 10.5112 21.3519 10.5112 22.6079C10.5112 23.864 11.5295 24.8822 12.7855 24.8822Z" fill="white"/>
<path d="M24.5331 24.8822C25.7892 24.8822 26.8074 23.864 26.8074 22.6079C26.8074 21.3519 25.7892 20.3336 24.5331 20.3336C23.277 20.3336 22.2588 21.3519 22.2588 22.6079C22.2588 23.864 23.277 24.8822 24.5331 24.8822Z" fill="white"/>
<path d="M36.8925 24.8822C38.1485 24.8822 39.1668 23.864 39.1668 22.6079C39.1668 21.3519 38.1485 20.3336 36.8925 20.3336C35.6364 20.3336 34.6182 21.3519 34.6182 22.6079C34.6182 23.864 35.6364 24.8822 36.8925 24.8822Z" fill="white"/>
<path fill-rule="evenodd" clip-rule="evenodd" d="M141.656 120.938C142.744 120.938 143.625 121.819 143.625 122.906V130.781C143.625 131.869 142.744 132.75 141.656 132.75C140.569 132.75 139.688 131.869 139.688 130.781V122.906C139.688 121.819 140.569 120.938 141.656 120.938Z" fill="#002B51"/>
<path fill-rule="evenodd" clip-rule="evenodd" d="M149.531 120.938C150.619 120.938 151.5 121.819 151.5 122.906V130.781C151.5 131.869 150.619 132.75 149.531 132.75C148.444 132.75 147.562 131.869 147.562 130.781V122.906C147.562 121.819 148.444 120.938 149.531 120.938Z" fill="#002B51"/>
<path fill-rule="evenodd" clip-rule="evenodd" d="M157.406 120.938C158.494 120.938 159.375 121.819 159.375 122.906V130.781C159.375 131.869 158.494 132.75 157.406 132.75C156.319 132.75 155.438 131.869 155.438 130.781V122.906C155.438 121.819 156.319 120.938 157.406 120.938Z" fill="#002B51"/>
<path fill-rule="evenodd" clip-rule="evenodd" d="M125.906 170.156C125.906 169.069 126.788 168.188 127.875 168.188H171.188C172.275 168.188 173.156 169.069 173.156 170.156C173.156 171.244 172.275 172.125 171.188 172.125H127.875C126.788 172.125 125.906 171.244 125.906 170.156Z" fill="#002B51"/>
<path fill-rule="evenodd" clip-rule="evenodd" d="M125.906 138.656C125.906 137.569 126.788 136.688 127.875 136.688H171.188C172.275 136.688 173.156 137.569 173.156 138.656V150.468C173.156 150.468 173.156 150.468 173.156 150.468C173.157 154.991 171.86 159.419 169.419 163.226C166.977 167.033 163.495 170.059 159.384 171.946C158.396 172.399 157.227 171.966 156.774 170.977C156.32 169.989 156.754 168.82 157.742 168.367C161.167 166.795 164.07 164.273 166.104 161.101C168.138 157.928 169.22 154.238 169.219 150.469V140.625H129.844V150.469C129.843 154.238 130.924 157.928 132.958 161.101C134.993 164.273 137.895 166.795 141.321 168.367C142.309 168.82 142.742 169.989 142.289 170.977C141.836 171.966 140.667 172.399 139.679 171.946C135.568 170.059 132.085 167.033 129.644 163.226C127.203 159.419 125.905 154.991 125.906 150.469C125.906 150.469 125.906 150.469 125.906 150.469V138.656Z" fill="#002B51"/>
<path fill-rule="evenodd" clip-rule="evenodd" d="M169.219 138.656C169.219 137.569 170.1 136.688 171.188 136.688C173.798 136.688 176.302 137.725 178.148 139.571C179.994 141.417 181.031 143.921 181.031 146.531V148.5C181.031 151.111 179.994 153.615 178.148 155.461C176.302 157.307 173.798 158.344 171.187 158.344H170.351C169.263 158.344 168.382 157.462 168.382 156.375C168.382 155.288 169.263 154.406 170.351 154.406H171.187C172.754 154.406 174.256 153.784 175.364 152.676C176.471 151.569 177.094 150.066 177.094 148.5V146.531C177.094 144.965 176.471 143.463 175.364 142.355C174.256 141.247 172.754 140.625 171.187 140.625C170.1 140.625 169.219 139.744 169.219 138.656Z" fill="#002B51"/>
</svg>
