<svg width="400" height="515" viewBox="0 0 400 515" fill="none" xmlns="http://www.w3.org/2000/svg">
<path d="M28.304 50H30.824V41.288C30.824 39.68 30.608 37.424 30.464 35.816H30.56L31.976 39.896L35.048 48.32H36.776L39.848 39.896L41.288 35.816H41.384C41.24 37.424 41.024 39.68 41.024 41.288V50H43.592V32.336H40.376L37.184 41.288C36.8 42.44 36.464 43.64 36.032 44.84H35.936C35.528 43.64 35.168 42.44 34.736 41.288L31.52 32.336H28.304V50ZM53.2899 50.336C56.5539 50.336 59.5059 47.792 59.5059 43.424C59.5059 39.008 56.5539 36.464 53.2899 36.464C50.0019 36.464 47.0739 39.008 47.0739 43.424C47.0739 47.792 50.0019 50.336 53.2899 50.336ZM53.2899 48.056C51.2019 48.056 49.9299 46.208 49.9299 43.424C49.9299 40.616 51.2019 38.768 53.2899 38.768C55.3539 38.768 56.6739 40.616 56.6739 43.424C56.6739 46.208 55.3539 48.056 53.2899 48.056ZM68.0555 50.336C71.3195 50.336 74.2715 47.792 74.2715 43.424C74.2715 39.008 71.3195 36.464 68.0555 36.464C64.7675 36.464 61.8395 39.008 61.8395 43.424C61.8395 47.792 64.7675 50.336 68.0555 50.336ZM68.0555 48.056C65.9675 48.056 64.6955 46.208 64.6955 43.424C64.6955 40.616 65.9675 38.768 68.0555 38.768C70.1195 38.768 71.4395 40.616 71.4395 43.424C71.4395 46.208 70.1195 48.056 68.0555 48.056ZM82.0771 50.336C83.5651 50.336 84.9331 49.544 85.9411 48.536H86.0131L86.2291 50H88.5091V30.896H85.7251V35.768L85.8451 37.952C84.7891 37.04 83.8051 36.464 82.2931 36.464C79.3651 36.464 76.6531 39.128 76.6531 43.424C76.6531 47.792 78.7651 50.336 82.0771 50.336ZM82.7491 48.032C80.6851 48.032 79.5091 46.376 79.5091 43.376C79.5091 40.544 80.9971 38.768 82.8451 38.768C83.8291 38.768 84.7651 39.104 85.7251 39.992V46.424C84.7891 47.528 83.8291 48.032 82.7491 48.032ZM92.6343 50H95.4183V36.8H92.6343V50ZM94.0263 34.328C95.0343 34.328 95.7543 33.68 95.7543 32.672C95.7543 31.688 95.0343 31.04 94.0263 31.04C92.9943 31.04 92.3223 31.688 92.3223 32.672C92.3223 33.68 92.9943 34.328 94.0263 34.328ZM99.5484 50H102.332V40.64C103.484 39.488 104.324 38.864 105.548 38.864C107.084 38.864 107.756 39.752 107.756 42.056V50H110.54V41.696C110.54 38.36 109.292 36.464 106.484 36.464C104.684 36.464 103.316 37.448 102.116 38.648H102.044L101.804 36.8H99.5484V50ZM119.061 55.928C123.285 55.928 125.973 53.864 125.973 51.32C125.973 49.064 124.341 48.104 121.221 48.104H118.773C117.117 48.104 116.565 47.6 116.565 46.832C116.565 46.184 116.877 45.8 117.285 45.44C117.885 45.704 118.557 45.824 119.133 45.824C121.917 45.824 124.101 44.192 124.101 41.288C124.101 40.28 123.741 39.416 123.237 38.888H125.733V36.8H121.077C120.573 36.608 119.901 36.464 119.133 36.464C116.421 36.464 114.021 38.216 114.021 41.216C114.021 42.776 114.885 44.048 115.773 44.72V44.816C115.029 45.344 114.309 46.232 114.309 47.264C114.309 48.344 114.813 49.04 115.509 49.472V49.592C114.285 50.312 113.589 51.344 113.589 52.472C113.589 54.752 115.893 55.928 119.061 55.928ZM119.133 44.048C117.789 44.048 116.661 42.968 116.661 41.216C116.661 39.44 117.765 38.432 119.133 38.432C120.525 38.432 121.629 39.44 121.629 41.216C121.629 42.968 120.501 44.048 119.133 44.048ZM119.469 54.104C117.285 54.104 115.941 53.336 115.941 52.064C115.941 51.392 116.277 50.72 117.069 50.12C117.621 50.264 118.197 50.312 118.821 50.312H120.813C122.421 50.312 123.285 50.672 123.285 51.776C123.285 52.976 121.773 54.104 119.469 54.104ZM129.6 33.632V35.624H134.856V47.504H129.6V49.52H136.92V33.632H129.6ZM128.256 33.632V51.368H130.344V33.632H128.256ZM129.48 40.184V42.176H135.888V40.184H129.48ZM131.832 29.72C131.664 30.992 131.256 32.816 130.872 34.016L132.696 34.448C133.176 33.344 133.776 31.664 134.28 30.104L131.832 29.72ZM140.232 33.512V35.6H147.456V33.512H140.232ZM146.664 33.512V33.968C146.376 44.288 146.016 48.344 145.224 49.184C144.96 49.52 144.672 49.592 144.192 49.592C143.616 49.592 142.176 49.568 140.616 49.448C141.024 50.048 141.312 51.008 141.36 51.656C142.728 51.704 144.168 51.752 145.032 51.656C145.944 51.536 146.544 51.296 147.12 50.504C148.104 49.28 148.416 45.512 148.752 34.592C148.776 34.304 148.776 33.512 148.776 33.512H146.664ZM140.544 29.696C139.776 32.96 138.456 36.248 136.824 38.336C137.352 38.624 138.288 39.272 138.696 39.632C140.328 37.352 141.816 33.776 142.728 30.2L140.544 29.696ZM139.416 40.04C140.664 41.792 142.224 44.168 142.92 45.632L144.864 44.456C144.096 43.04 142.464 40.712 141.192 39.032L139.416 40.04ZM151.392 44.96V46.784H173.28V44.96H151.392ZM152.088 31.472V33.224H172.344V31.472H152.088ZM165.48 43.472V49.664C165.48 49.976 165.36 50.072 164.976 50.096C164.592 50.096 163.224 50.096 161.904 50.048C162.192 50.624 162.48 51.44 162.576 52.016C164.472 52.016 165.744 52.016 166.608 51.728C167.448 51.416 167.664 50.84 167.664 49.736V43.472H165.48ZM161.16 29.768V42.68H163.392V29.768H161.16ZM155.232 47.72C156.624 48.608 158.256 49.952 159.048 50.888L160.704 49.424C159.888 48.488 158.16 47.216 156.792 46.4L155.232 47.72ZM156.096 38.408H168.648V39.656H156.096V38.408ZM156.096 35.816H168.648V37.04H156.096V35.816ZM153.96 34.376V41.096H170.88V34.376H153.96ZM165.816 41.552C167.64 42.248 169.872 43.52 171.024 44.48L172.368 43.256C171.192 42.368 168.984 41.144 167.136 40.472L165.816 41.552ZM152.376 42.272L152.472 43.976C157.032 43.904 163.872 43.784 170.304 43.592L170.4 42.128C163.8 42.248 156.768 42.296 152.376 42.272ZM175.776 44.504V46.4H196.968V44.504H175.776ZM175.848 33.872V35.696H196.872V33.872H175.848ZM176.832 38.12V39.896H195.984V38.12H176.832ZM178.032 41.36V43.04H194.832V41.36H178.032ZM185.16 38.96V52.04H187.416V38.96H185.16ZM183.048 29.72V34.784H185.16V29.72H183.048ZM187.536 29.72V34.664H189.696V29.72H187.536ZM193.104 29.984C192.72 31.064 192 32.6 191.376 33.584L193.224 34.184C193.872 33.248 194.712 31.904 195.456 30.584L193.104 29.984ZM190.056 35.576C189.744 36.224 189.12 37.208 188.664 37.88L190.56 38.456C191.112 37.88 191.784 37.064 192.432 36.2L190.056 35.576ZM177.72 30.608C178.464 31.712 179.256 33.224 179.568 34.184L181.608 33.416C181.296 32.456 180.456 30.992 179.664 29.936L177.72 30.608ZM180.624 36.032C181.104 36.776 181.608 37.784 181.8 38.408L184.008 37.856C183.768 37.208 183.24 36.248 182.76 35.552L180.624 36.032ZM182.592 47.432C181.08 48.416 178.128 49.304 175.656 49.688C176.112 50.096 176.736 50.84 177.024 51.344C179.52 50.792 182.568 49.544 184.248 48.2L182.592 47.432ZM188.736 48.44C190.92 49.28 193.896 50.552 195.384 51.32L196.92 50C195.312 49.232 192.336 48.056 190.2 47.288L188.736 48.44ZM216.096 36.344C217.32 38.24 218.712 40.808 219.288 42.368L221.304 41.408C220.68 39.824 219.192 37.376 217.944 35.528L216.096 36.344ZM208.224 32.672V34.808H221.112V32.672H208.224ZM214.896 40.136V48.824C214.896 50.936 215.328 51.608 217.224 51.608C217.584 51.608 218.784 51.608 219.168 51.608C220.8 51.608 221.328 50.672 221.52 47.24C220.92 47.072 220.032 46.736 219.552 46.352C219.504 49.16 219.432 49.592 218.952 49.592C218.688 49.592 217.776 49.592 217.56 49.592C217.104 49.592 217.032 49.496 217.032 48.8V40.136H214.896ZM210.888 40.64C210.744 45.68 210.36 48.632 206.64 50.36C207.144 50.768 207.768 51.56 208.032 52.136C212.256 50.024 212.856 46.424 213.024 40.64H210.888ZM208.8 41.864C209.52 41.528 210.648 41.384 219.384 40.4C219.288 39.944 219.192 39.08 219.144 38.504L209.952 39.392L208.728 40.136L208.8 41.864ZM208.8 41.864C208.8 41.408 210.36 40.616 210.36 40.616V40.568C212.376 37.952 214.56 34.16 216.168 30.368L213.696 29.696C212.472 33.224 210.384 36.92 209.688 37.88C209.04 38.864 208.56 39.488 208.032 39.632C208.296 40.256 208.68 41.384 208.8 41.864ZM204.864 39.368C205.584 40.928 206.232 42.992 206.472 44.264L208.152 43.592C207.912 42.32 207.192 40.328 206.448 38.792L204.864 39.368ZM202.68 45.608C202.944 47.216 203.184 49.304 203.232 50.672L204.96 50.24C204.888 48.872 204.624 46.808 204.336 45.224L202.68 45.608ZM200.04 45.368C199.848 47.312 199.536 49.472 198.96 50.912C199.416 51.032 200.304 51.32 200.688 51.536C201.168 50.072 201.6 47.792 201.84 45.68L200.04 45.368ZM199.68 38.984C199.68 38.552 201.024 37.856 201.024 37.856V37.808C202.584 35.888 204.24 33.128 205.44 30.488L203.376 29.6C202.44 32.192 200.832 34.928 200.328 35.6C199.824 36.344 199.416 36.8 198.984 36.92C199.224 37.496 199.56 38.528 199.68 38.984ZM199.68 38.984C200.088 38.768 200.784 38.624 204.552 38.24C204.552 37.808 204.648 37.064 204.744 36.536L200.568 36.872L199.656 37.472L199.68 38.984ZM199.848 44.456C199.848 44.024 201.192 43.352 201.192 43.352V43.304C203.544 40.904 205.896 37.544 207.72 34.232L205.8 33.08C204.288 36.416 201.792 39.896 200.976 40.76C200.232 41.672 199.728 42.248 199.152 42.392C199.416 42.968 199.752 44.024 199.848 44.456ZM199.848 44.456C200.376 44.192 201.168 43.952 206.832 42.992C206.784 42.56 206.808 41.792 206.88 41.264L200.688 42.224L199.752 42.872L199.848 44.456ZM205.32 45.08C205.8 46.424 206.328 48.176 206.52 49.304L208.176 48.728C207.936 47.6 207.384 45.896 206.88 44.552L205.32 45.08ZM224.832 37.04V38.792H232.8V37.04H224.832ZM224.832 40.232V41.984H232.752V40.232H224.832ZM223.776 33.776V35.624H233.808V33.776H223.776ZM225.96 43.496V45.344H230.832V48.776H225.96V50.624H232.8V43.496H225.96ZM224.976 43.496V51.704H226.92V43.496H224.976ZM226.536 30.512C227.184 31.52 227.952 32.936 228.312 33.824L230.112 32.792C229.728 31.928 228.984 30.632 228.312 29.648L226.536 30.512ZM233.76 37.928V40.16H245.328V37.928H233.76ZM238.248 30.176V52.016H240.6V30.176H238.248ZM248.424 30.824V33.032H261.624V30.824H248.424ZM265.848 37.664V38.096C264.168 44.84 258.936 48.704 252.648 50.168C253.128 50.672 253.704 51.632 253.968 52.28C260.832 50.36 266.304 46.328 268.368 38.264L266.736 37.568L266.304 37.664H265.848ZM252.48 31.64V35.072C252.48 39.176 252.048 45.224 247.056 49.688C247.56 50.12 248.4 51.056 248.712 51.656C254.304 46.568 254.832 39.824 254.832 35.072V31.64H252.48ZM261.048 30.824C260.568 33.344 259.776 36.608 259.128 38.696H261.672C262.224 36.68 262.944 33.44 263.472 30.824H261.048ZM253.872 37.664L253.488 39.824H266.376V37.664H253.872ZM257.112 39.008L255.144 39.56C257.376 45.896 261.384 50.24 267.984 52.064C268.344 51.416 269.04 50.432 269.568 49.928C263.184 48.44 259.08 44.456 257.112 39.008ZM282.6 49.088V51.08H290.856V49.088H282.6ZM281.568 42.968V52.064H283.704V44.936H289.848V51.968H292.08V42.968H281.568ZM287.4 33.68C286.944 36.584 285.984 39.512 282.072 41.072C282.48 41.408 283.056 42.104 283.248 42.56C287.64 40.688 288.888 37.328 289.464 33.68H287.4ZM288.768 35.408L287.136 35.768C288.024 38.768 289.704 41.264 292.272 42.44C292.56 41.912 293.16 41.144 293.592 40.76C291.24 39.872 289.56 37.808 288.768 35.408ZM272.16 37.04V38.792H278.544V37.04H272.16ZM272.16 40.256V42.008H278.544V40.256H272.16ZM271.32 33.776V35.624H279.576V33.776H271.32ZM273.048 43.496V45.344H276.576V48.776H273.048V50.624H278.496V43.496H273.048ZM272.136 43.496V51.704H274.104V43.496H272.136ZM273.816 30.248C274.272 31.256 274.824 32.648 275.016 33.536L277.032 32.984C276.792 32.12 276.24 30.8 275.712 29.792L273.816 30.248ZM280.056 31.808V33.56H283.776V31.808H280.056ZM279.528 37.28V39.08H284.376V37.28H279.528ZM285.504 29.72C285 32.048 284.064 34.376 282.792 35.888C283.296 36.152 284.136 36.728 284.496 37.04C285.792 35.384 286.872 32.768 287.496 30.128L285.504 29.72ZM285.264 32.192V34.016H291.96V32.192H285.264ZM291.504 32.192V32.456C291.264 33.752 290.856 35.312 290.496 36.296L292.176 36.656C292.608 35.6 293.088 33.896 293.472 32.408L292.128 32.12L291.816 32.192H291.504ZM297 37.376V51.968H299.16V39.248H314.808V37.376H297ZM313.656 37.376V49.736C313.656 50.072 313.512 50.192 313.104 50.192C312.744 50.216 311.352 50.24 310.008 50.192C310.272 50.672 310.56 51.392 310.656 51.896C312.648 51.896 313.92 51.872 314.688 51.608C315.48 51.32 315.744 50.816 315.744 49.736V37.376H313.656ZM302.928 43.328V44.96H308.928V47.384H302.928V48.992H310.8V43.328H302.928ZM301.728 43.328V50.072H303.648V43.328H301.728ZM295.728 32.216V34.16H316.968V32.216H295.728ZM300.792 34.688C301.296 35.576 301.896 36.776 302.184 37.496L304.2 36.728C303.888 36.032 303.24 34.904 302.736 34.064L300.792 34.688ZM309.816 34.184C309.432 35.264 308.64 36.8 308.016 37.784L309.768 38.264C310.464 37.376 311.328 35.96 312.096 34.688L309.816 34.184ZM304.776 30.152C305.16 31.136 305.592 32.48 305.784 33.32L308.04 32.672C307.8 31.856 307.344 30.584 306.936 29.6L304.776 30.152ZM303.072 38.36C302.904 40.52 302.232 41.528 299.136 42.08C299.52 42.44 300.024 43.184 300.168 43.64C303.888 42.824 304.824 41.264 305.064 38.36H303.072ZM307.248 38.384V40.352C307.248 41.936 307.56 42.68 309.24 42.68C309.648 42.68 311.064 42.68 311.52 42.68C312.024 42.68 312.648 42.656 312.96 42.536C312.888 42.056 312.864 41.504 312.816 40.976C312.48 41.072 311.832 41.096 311.472 41.096C311.136 41.096 310.032 41.096 309.72 41.096C309.312 41.096 309.264 40.904 309.264 40.376V38.384H307.248ZM323.496 33.848V35.192H337.056V33.848H323.496ZM323.184 44V45.32H337.392V44H323.184ZM325.608 46.04C326.328 46.712 327.144 47.648 327.504 48.272L329.04 47.456C328.656 46.832 327.792 45.92 327.048 45.32L325.608 46.04ZM326.088 38.96H334.464V39.872H326.088V38.96ZM326.088 37.088H334.464V37.952H326.088V37.088ZM324.312 36.032V40.928H336.312V36.032H324.312ZM332.184 43.208V47.168C332.184 47.408 332.112 47.48 331.872 47.48C331.608 47.504 330.744 47.504 329.904 47.48C330.096 47.816 330.312 48.272 330.408 48.704C331.8 48.704 332.736 48.704 333.312 48.512C333.936 48.32 334.104 48.056 334.104 47.24V43.208H332.184ZM323.568 41.96L323.64 43.28C326.736 43.232 331.128 43.112 335.376 42.968L335.424 41.864C331.032 41.936 326.52 41.984 323.568 41.96ZM333.24 41.528C334.152 42.2 335.256 43.28 335.808 44L337.032 43.064C336.504 42.392 335.4 41.408 334.44 40.736L333.24 41.528ZM329.28 32.84V42.488L331.176 42.392V32.84H329.28ZM320.448 30.728V52.04H322.536V32.48H338.088V51.944H340.248V30.728H320.448ZM321.48 49.04V50.816H338.976V49.04H321.48ZM363.528 36.656C362.16 37.832 359.88 39.416 358.248 40.28L359.4 41.6C361.08 40.736 363.288 39.416 364.968 38.144L363.528 36.656ZM352.92 30.92C354 31.832 355.2 33.176 355.728 34.064L357.504 32.84C356.928 31.952 355.728 30.728 354.6 29.864L352.92 30.92ZM351.144 33.68V35.672H365.256V33.68H351.144ZM357.384 39.392C356.088 40.64 353.472 42.104 351.552 42.824C351.984 43.208 352.512 43.952 352.8 44.456C354.744 43.472 357.408 41.744 358.824 40.352L357.384 39.392ZM358.488 42.632C356.856 44.456 353.472 46.4 350.688 47.216C351.192 47.648 351.72 48.344 352.032 48.848C354.792 47.768 358.2 45.632 359.976 43.64L358.488 42.632ZM361.176 29.768C360.6 30.992 359.568 32.696 358.704 33.752L360.552 34.376C361.392 33.392 362.472 31.856 363.36 30.44L361.176 29.768ZM344.16 30.776V52.04H346.176V32.816H349.824V30.776H344.16ZM349.128 30.776V31.424C348.696 33.008 347.856 36.08 347.088 38.264C348.648 40.016 349.032 41.576 349.032 42.8C349.032 43.496 348.912 44.072 348.576 44.312C348.384 44.456 348.144 44.528 347.856 44.528C347.52 44.552 347.112 44.528 346.608 44.504C346.944 45.056 347.112 45.92 347.136 46.472C347.688 46.496 348.264 46.472 348.744 46.424C349.248 46.352 349.68 46.208 350.04 45.968C350.76 45.464 351.048 44.456 351.048 43.04C351.048 41.6 350.688 39.944 349.056 38C349.8 36.104 350.664 33.584 351.312 31.568L349.848 30.704L349.512 30.776H349.128ZM357.288 34.376C355.8 36.224 353.136 37.88 350.592 38.888C351.024 39.248 351.672 40.088 351.936 40.496C354.504 39.272 357.408 37.28 359.16 35.096L357.288 34.376ZM361.872 40.04L360.144 40.64C361.08 43.592 362.76 46.856 364.392 48.68C364.728 48.2 365.4 47.528 365.856 47.192C364.296 45.632 362.688 42.728 361.872 40.04ZM355.368 37.016C359.328 41.024 359.016 47.84 357.672 49.136C357.288 49.64 356.904 49.736 356.328 49.736C355.824 49.736 355.032 49.712 354.24 49.616C354.6 50.216 354.768 51.08 354.792 51.656C355.464 51.704 356.256 51.728 356.712 51.728C357.84 51.704 358.584 51.44 359.304 50.648C361.368 48.776 361.536 40.616 357 36.128L355.368 37.016Z" fill="#002B51"/>
<path d="M40.536 110H42.216V104.192C42.216 103.12 42.072 101.616 41.976 100.544H42.04L42.984 103.264L45.032 108.88H46.184L48.232 103.264L49.192 100.544H49.256C49.16 101.616 49.016 103.12 49.016 104.192V110H50.728V98.224H48.584L46.456 104.192C46.2 104.96 45.976 105.76 45.688 106.56H45.624C45.352 105.76 45.112 104.96 44.824 104.192L42.68 98.224H40.536V110ZM57.5132 110.224C59.6892 110.224 61.6573 108.528 61.6573 105.616C61.6573 102.672 59.6892 100.976 57.5132 100.976C55.3212 100.976 53.3692 102.672 53.3692 105.616C53.3692 108.528 55.3212 110.224 57.5132 110.224ZM57.5132 108.704C56.1212 108.704 55.2732 107.472 55.2732 105.616C55.2732 103.744 56.1212 102.512 57.5132 102.512C58.8892 102.512 59.7692 103.744 59.7692 105.616C59.7692 107.472 58.8892 108.704 57.5132 108.704ZM67.677 110.224C69.853 110.224 71.821 108.528 71.821 105.616C71.821 102.672 69.853 100.976 67.677 100.976C65.485 100.976 63.533 102.672 63.533 105.616C63.533 108.528 65.485 110.224 67.677 110.224ZM67.677 108.704C66.285 108.704 65.437 107.472 65.437 105.616C65.437 103.744 66.285 102.512 67.677 102.512C69.053 102.512 69.933 103.744 69.933 105.616C69.933 107.472 69.053 108.704 67.677 108.704ZM77.3447 110.224C78.3367 110.224 79.2487 109.696 79.9207 109.024H79.9687L80.1127 110H81.6327V97.264H79.7767V100.512L79.8567 101.968C79.1527 101.36 78.4967 100.976 77.4887 100.976C75.5367 100.976 73.7287 102.752 73.7287 105.616C73.7287 108.528 75.1367 110.224 77.3447 110.224ZM77.7927 108.688C76.4167 108.688 75.6327 107.584 75.6327 105.584C75.6327 103.696 76.6247 102.512 77.8567 102.512C78.5127 102.512 79.1367 102.736 79.7767 103.328V107.616C79.1527 108.352 78.5127 108.688 77.7927 108.688ZM84.7029 110H86.5589V101.2H84.7029V110ZM85.6309 99.552C86.3029 99.552 86.7829 99.12 86.7829 98.448C86.7829 97.792 86.3029 97.36 85.6309 97.36C84.9429 97.36 84.4949 97.792 84.4949 98.448C84.4949 99.12 84.9429 99.552 85.6309 99.552ZM89.6322 110H91.4882V103.76C92.2562 102.992 92.8162 102.576 93.6322 102.576C94.6562 102.576 95.1042 103.168 95.1042 104.704V110H96.9602V104.464C96.9602 102.24 96.1282 100.976 94.2562 100.976C93.0562 100.976 92.1442 101.632 91.3442 102.432H91.2962L91.1362 101.2H89.6322V110ZM102.961 113.952C105.777 113.952 107.569 112.576 107.569 110.88C107.569 109.376 106.481 108.736 104.401 108.736H102.769C101.665 108.736 101.297 108.4 101.297 107.888C101.297 107.456 101.505 107.2 101.777 106.96C102.177 107.136 102.625 107.216 103.009 107.216C104.865 107.216 106.321 106.128 106.321 104.192C106.321 103.52 106.081 102.944 105.745 102.592H107.409V101.2H104.305C103.969 101.072 103.521 100.976 103.009 100.976C101.201 100.976 99.6006 102.144 99.6006 104.144C99.6006 105.184 100.177 106.032 100.769 106.48V106.544C100.273 106.896 99.7926 107.488 99.7926 108.176C99.7926 108.896 100.129 109.36 100.593 109.648V109.728C99.7766 110.208 99.3126 110.896 99.3126 111.648C99.3126 113.168 100.849 113.952 102.961 113.952ZM103.009 106.032C102.113 106.032 101.361 105.312 101.361 104.144C101.361 102.96 102.097 102.288 103.009 102.288C103.937 102.288 104.673 102.96 104.673 104.144C104.673 105.312 103.921 106.032 103.009 106.032ZM103.233 112.736C101.777 112.736 100.881 112.224 100.881 111.376C100.881 110.928 101.105 110.48 101.633 110.08C102.001 110.176 102.385 110.208 102.801 110.208H104.129C105.201 110.208 105.777 110.448 105.777 111.184C105.777 111.984 104.769 112.736 103.233 112.736ZM110.307 99.088V100.416H113.811V108.336H110.307V109.68H115.187V99.088H110.307ZM109.411 99.088V110.912H110.803V99.088H109.411ZM110.227 103.456V104.784H114.499V103.456H110.227ZM111.795 96.48C111.683 97.328 111.411 98.544 111.155 99.344L112.371 99.632C112.691 98.896 113.091 97.776 113.427 96.736L111.795 96.48ZM117.395 99.008V100.4H122.211V99.008H117.395ZM121.683 99.008V99.312C121.491 106.192 121.251 108.896 120.723 109.456C120.547 109.68 120.355 109.728 120.035 109.728C119.651 109.728 118.691 109.712 117.651 109.632C117.923 110.032 118.115 110.672 118.147 111.104C119.059 111.136 120.019 111.168 120.595 111.104C121.203 111.024 121.603 110.864 121.987 110.336C122.643 109.52 122.851 107.008 123.075 99.728C123.091 99.536 123.091 99.008 123.091 99.008H121.683ZM117.603 96.464C117.091 98.64 116.211 100.832 115.123 102.224C115.475 102.416 116.099 102.848 116.371 103.088C117.459 101.568 118.451 99.184 119.059 96.8L117.603 96.464ZM116.851 103.36C117.683 104.528 118.723 106.112 119.187 107.088L120.483 106.304C119.971 105.36 118.883 103.808 118.035 102.688L116.851 103.36ZM129.155 101.024V108.736C129.155 110.528 129.699 111.056 131.587 111.056C131.971 111.056 134.163 111.056 134.579 111.056C136.451 111.056 136.899 110.128 137.091 107.088C136.675 106.976 136.019 106.704 135.651 106.432C135.539 109.088 135.395 109.632 134.483 109.632C133.987 109.632 132.147 109.632 131.747 109.632C130.899 109.632 130.739 109.504 130.739 108.736V101.024H129.155ZM126.451 102.096C126.243 104.112 125.731 106.576 125.091 108.24L126.627 108.88C127.235 107.104 127.683 104.368 127.923 102.384L126.451 102.096ZM136.451 102.208C137.331 104.096 138.179 106.64 138.467 108.272L139.987 107.664C139.651 106 138.787 103.552 137.859 101.648L136.451 102.208ZM129.827 97.936C131.331 98.976 133.267 100.544 134.147 101.536L135.251 100.368C134.307 99.376 132.339 97.904 130.851 96.928L129.827 97.936ZM148.147 105.696V106.8H154.131V105.696H148.147ZM146.691 97.68V98.8H155.619V97.68H146.691ZM147.187 99.664V100.72H155.155V99.664H147.187ZM146.291 101.632V102.752H156.115V101.632H146.291ZM148.147 107.792V108.896H154.163V107.792H148.147ZM153.747 103.552V109.808C153.747 110 153.667 110.064 153.459 110.064C153.251 110.08 152.483 110.08 151.731 110.048C151.907 110.416 152.099 110.976 152.163 111.344C153.283 111.344 154.035 111.328 154.531 111.12C155.043 110.912 155.171 110.528 155.171 109.824V103.552H153.747ZM150.387 96.496V102H151.891V96.496H150.387ZM143.619 96.48V111.312H145.027V96.48H143.619ZM141.971 99.616C141.859 100.912 141.555 102.688 141.171 103.776L142.387 104.208C142.771 102.976 143.059 101.104 143.155 99.792L141.971 99.616ZM144.899 99.168C145.283 99.968 145.731 101.056 145.907 101.696L146.963 101.152C146.771 100.544 146.307 99.504 145.907 98.72L144.899 99.168ZM147.267 103.552V106.48C147.267 107.728 147.171 109.328 146.275 110.496C146.579 110.688 147.155 111.232 147.363 111.52C148.467 110.144 148.691 108.048 148.691 106.512V103.552H147.267ZM148.083 103.552V104.64H154.531V103.552H148.083ZM168.931 100.896C169.747 102.16 170.675 103.872 171.059 104.912L172.403 104.272C171.987 103.216 170.995 101.584 170.163 100.352L168.931 100.896ZM163.683 98.448V99.872H172.275V98.448H163.683ZM168.131 103.424V109.216C168.131 110.624 168.419 111.072 169.683 111.072C169.923 111.072 170.723 111.072 170.979 111.072C172.067 111.072 172.419 110.448 172.547 108.16C172.147 108.048 171.555 107.824 171.235 107.568C171.203 109.44 171.155 109.728 170.835 109.728C170.659 109.728 170.051 109.728 169.907 109.728C169.603 109.728 169.555 109.664 169.555 109.2V103.424H168.131ZM165.459 103.76C165.363 107.12 165.107 109.088 162.627 110.24C162.963 110.512 163.379 111.04 163.555 111.424C166.371 110.016 166.771 107.616 166.883 103.76H165.459ZM164.067 104.576C164.547 104.352 165.299 104.256 171.123 103.6C171.059 103.296 170.995 102.72 170.963 102.336L164.835 102.928L164.019 103.424L164.067 104.576ZM164.067 104.576C164.067 104.272 165.107 103.744 165.107 103.744V103.712C166.451 101.968 167.907 99.44 168.979 96.912L167.331 96.464C166.515 98.816 165.123 101.28 164.659 101.92C164.227 102.576 163.907 102.992 163.555 103.088C163.731 103.504 163.987 104.256 164.067 104.576ZM161.443 102.912C161.923 103.952 162.355 105.328 162.515 106.176L163.635 105.728C163.475 104.88 162.995 103.552 162.499 102.528L161.443 102.912ZM159.987 107.072C160.163 108.144 160.323 109.536 160.355 110.448L161.507 110.16C161.459 109.248 161.283 107.872 161.091 106.816L159.987 107.072ZM158.227 106.912C158.099 108.208 157.891 109.648 157.507 110.608C157.811 110.688 158.403 110.88 158.659 111.024C158.979 110.048 159.267 108.528 159.427 107.12L158.227 106.912ZM157.987 102.656C157.987 102.368 158.883 101.904 158.883 101.904V101.872C159.923 100.592 161.027 98.752 161.827 96.992L160.451 96.4C159.827 98.128 158.755 99.952 158.419 100.4C158.083 100.896 157.811 101.2 157.523 101.28C157.683 101.664 157.907 102.352 157.987 102.656ZM157.987 102.656C158.259 102.512 158.723 102.416 161.235 102.16C161.235 101.872 161.299 101.376 161.363 101.024L158.579 101.248L157.971 101.648L157.987 102.656ZM158.099 106.304C158.099 106.016 158.995 105.568 158.995 105.568V105.536C160.563 103.936 162.131 101.696 163.347 99.488L162.067 98.72C161.059 100.944 159.395 103.264 158.851 103.84C158.355 104.448 158.019 104.832 157.635 104.928C157.811 105.312 158.035 106.016 158.099 106.304ZM158.099 106.304C158.451 106.128 158.979 105.968 162.755 105.328C162.723 105.04 162.739 104.528 162.787 104.176L158.659 104.816L158.035 105.248L158.099 106.304ZM161.747 106.72C162.067 107.616 162.419 108.784 162.547 109.536L163.651 109.152C163.491 108.4 163.123 107.264 162.787 106.368L161.747 106.72ZM175.075 101.36V102.528H180.387V101.36H175.075ZM175.075 103.488V104.656H180.355V103.488H175.075ZM174.371 99.184V100.416H181.059V99.184H174.371ZM175.827 105.664V106.896H179.075V109.184H175.827V110.416H180.387V105.664H175.827ZM175.171 105.664V111.136H176.467V105.664H175.171ZM176.211 97.008C176.643 97.68 177.155 98.624 177.395 99.216L178.595 98.528C178.339 97.952 177.843 97.088 177.395 96.432L176.211 97.008ZM181.027 101.952V103.44H188.739V101.952H181.027ZM184.019 96.784V111.344H185.587V96.784H184.019ZM190.659 103.456V104.8H204.819V103.456H190.659ZM197.795 106.336V107.648H203.779V106.336H197.795ZM197.107 104.112V110.112H198.643V104.112H197.107ZM194.259 106.688L193.011 107.12C194.291 110.4 196.467 111.072 200.195 111.072H204.659C204.739 110.624 204.979 109.952 205.203 109.616C204.227 109.648 200.995 109.648 200.259 109.648C197.267 109.632 195.187 109.184 194.259 106.688ZM193.267 105.248C192.867 107.504 191.859 109.264 190.195 110.32C190.531 110.544 191.123 111.104 191.347 111.376C193.107 110.112 194.259 108.112 194.771 105.456L193.267 105.248ZM193.715 100.336H201.619V101.424H193.715V100.336ZM193.715 98.224H201.619V99.296H193.715V98.224ZM192.259 97.104V102.528H203.155V97.104H192.259ZM212.675 97.248V98.608H221.251V97.248H212.675ZM213.043 105.536V106.896H220.771V105.536H213.043ZM212.227 109.584V110.976H221.427V109.584H212.227ZM216.115 106.176V110.432H217.635V106.176H216.115ZM214.163 99.008C213.795 99.776 213.107 100.96 212.467 101.936C213.299 103.056 214.035 104.272 214.387 105.104L215.619 104.608C215.283 103.904 214.579 102.816 213.891 101.92C214.419 101.12 215.027 100.16 215.459 99.328L214.163 99.008ZM216.899 99.024C216.531 99.792 215.843 100.96 215.171 101.92C216.035 103.024 216.803 104.224 217.155 105.056L218.371 104.528C218.035 103.84 217.315 102.784 216.611 101.904C217.139 101.12 217.747 100.16 218.195 99.344L216.899 99.024ZM219.651 99.008C219.267 99.776 218.547 100.976 217.859 101.936C218.771 103.04 219.619 104.272 220.003 105.104L221.219 104.544C220.835 103.856 220.067 102.8 219.331 101.92C219.859 101.12 220.483 100.176 220.963 99.344L219.651 99.008ZM210.499 102.928C210.899 104.032 211.315 105.456 211.443 106.32L212.643 105.92C212.483 105.072 212.035 103.664 211.619 102.608L210.499 102.928ZM209.011 107.104C209.203 108.16 209.363 109.568 209.395 110.48L210.579 110.24C210.531 109.328 210.339 107.952 210.147 106.896L209.011 107.104ZM207.283 106.912C207.155 108.256 206.931 109.728 206.547 110.704C206.867 110.816 207.475 111.008 207.763 111.152C208.099 110.128 208.387 108.576 208.547 107.12L207.283 106.912ZM206.995 102.656C206.995 102.368 207.843 101.936 207.843 101.936V101.904C208.899 100.64 210.003 98.784 210.803 97.024L209.459 96.464C208.851 98.192 207.779 100 207.427 100.464C207.107 100.96 206.835 101.28 206.531 101.344C206.691 101.712 206.915 102.368 206.995 102.656ZM206.995 102.656C207.283 102.512 207.763 102.4 210.291 102.144C210.307 101.84 210.355 101.312 210.435 100.944L207.619 101.168L206.947 101.584L206.995 102.656ZM207.107 106.304C207.107 106.032 207.987 105.584 207.987 105.584V105.552C209.523 103.984 211.075 101.776 212.259 99.632L210.995 98.88C209.987 101.04 208.355 103.312 207.843 103.888C207.347 104.48 206.995 104.864 206.627 104.944C206.803 105.328 207.027 106.016 207.107 106.304ZM207.107 106.304C207.443 106.128 207.987 106 211.539 105.488C211.523 105.184 211.555 104.656 211.603 104.288L207.715 104.784L207.043 105.216L207.107 106.304ZM210.611 106.768C210.915 107.6 211.235 108.704 211.347 109.408L212.467 109.024C212.323 108.32 211.971 107.264 211.667 106.432L210.611 106.768ZM224.835 104.24V105.728H235.843V104.24H224.835ZM224.835 108.928V110.416H235.811V108.928H224.835ZM224.099 99.584V111.36H225.603V101.104H235.091V111.312H236.675V99.584H224.099ZM229.523 96.512V109.712H231.075V96.512H229.523ZM246.547 101.712V103.104H251.843V101.712H246.547ZM246.307 109.216V110.576H251.827V109.216H246.307ZM245.699 104.688V111.392H247.171V106.032H251.027V111.36H252.563V104.688H245.699ZM249.731 97.024L248.547 97.424C249.555 99.744 251.299 102.048 253.123 103.28C253.379 102.88 253.875 102.32 254.227 102.032C252.419 101.024 250.643 98.992 249.731 97.024ZM248.675 96.496C247.875 98.752 246.227 100.96 244.147 102.336C244.483 102.576 244.995 103.12 245.219 103.44C247.459 101.872 249.139 99.536 250.115 96.912L248.675 96.496ZM240.579 97.968V99.36H242.787V105.728H240.579V107.136H244.179V97.968H240.579ZM239.811 97.968V108.608H241.187V97.968H239.811ZM261.139 102.016V103.312H269.731V98.864H260.019V100.176H268.387V102.016H261.139ZM260.275 102.016C260.115 103.44 259.811 105.264 259.539 106.448H260.899C261.123 105.312 261.411 103.488 261.603 102.016H260.275ZM260.483 105.152L260.163 106.448H269.251V105.152H260.483ZM268.883 105.152V105.344C268.819 107.632 268.771 108.432 268.595 108.656C268.499 108.768 268.387 108.8 268.211 108.8C268.019 108.8 267.619 108.8 267.171 108.736C267.347 109.072 267.459 109.6 267.491 110C268.067 110.032 268.611 110.016 268.915 109.968C269.283 109.92 269.523 109.808 269.747 109.536C270.035 109.168 270.131 108.128 270.195 105.664C270.211 105.472 270.211 105.152 270.211 105.152H268.883ZM265.555 96.688V111.344H266.899V96.688H265.555ZM262.691 96.688V104.16C262.691 106.656 262.323 109.008 259.443 110.432C259.731 110.656 260.179 111.152 260.387 111.424C263.539 109.856 264.035 107.2 264.035 104.16V96.688H262.691ZM259.043 96.56C258.179 98.928 256.739 101.28 255.203 102.784C255.475 103.136 255.891 103.952 256.035 104.32C257.779 102.512 259.427 99.728 260.467 97.008L259.043 96.56ZM257.443 100.816V111.328H258.883V99.392L258.867 99.376L257.443 100.816ZM272.275 100.976V102.528H286.419V100.976H272.275ZM280.259 101.6L278.739 101.952C279.939 106.304 282.035 109.648 285.587 111.312C285.843 110.88 286.339 110.224 286.723 109.888C283.379 108.512 281.267 105.376 280.259 101.6ZM278.499 96.512C278.451 100.56 278.659 107.104 271.971 110.048C272.403 110.368 272.867 110.912 273.107 111.312C280.051 108.064 280.083 101.008 280.147 96.512H278.499ZM288.435 107.056V108.304H302.851V107.056H288.435ZM291.475 104.288V105.392H298.803V104.288H291.475ZM295.059 106.48V109.808C295.059 110.016 294.995 110.064 294.739 110.08C294.483 110.08 293.555 110.08 292.659 110.048C292.851 110.416 293.075 110.928 293.155 111.328C294.403 111.328 295.235 111.328 295.811 111.136C296.387 110.928 296.547 110.576 296.547 109.856V106.48H295.059ZM298.435 104.288V104.544C297.715 105.168 296.275 106.016 295.059 106.48C295.251 106.656 295.603 107.024 295.763 107.264C297.219 106.704 298.835 105.856 299.987 104.992L299.107 104.208L298.787 104.288H298.435ZM288.755 102.24V105.328H290.195V103.376H301.075V105.328H302.579V102.24H288.755ZM300.275 97.072C300.195 98.912 300.035 101.328 299.827 102.832H301.283C301.459 101.376 301.619 98.96 301.715 97.072H300.275ZM297.843 97.072V98.064H300.867V97.072H297.843ZM292.867 96.608C292.035 96.88 290.643 97.28 289.699 97.44L290.243 98.288C291.203 98.144 292.563 97.888 293.523 97.504L292.867 96.608ZM290.467 98.8V99.776H293.411V98.8H290.467ZM290.531 100.512V101.504H293.475V100.512H290.531ZM297.939 98.8V99.776H300.723V98.8H297.939ZM297.843 100.512V101.504H300.611V100.512H297.843ZM296.339 96.624C295.731 97.44 294.627 98.192 293.539 98.704C293.779 98.864 294.179 99.216 294.355 99.408C295.443 98.832 296.643 97.904 297.363 96.912L296.339 96.624ZM293.843 97.408C294.883 97.904 296.147 98.688 296.755 99.264L297.507 98.576C296.851 98.016 295.587 97.248 294.563 96.784L293.843 97.408ZM296.371 99.328C295.731 100.192 294.547 100.992 293.411 101.504C293.651 101.68 294.035 102.08 294.211 102.272C295.363 101.664 296.627 100.688 297.395 99.632L296.371 99.328ZM293.779 100.112C294.867 100.672 296.179 101.536 296.803 102.16L297.571 101.456C296.915 100.832 295.571 100.016 294.515 99.504L293.779 100.112ZM289.699 97.44L290.035 102.784H291.443L291.139 97.824L289.699 97.44ZM311.267 97.344V98.768H319.075V97.344H311.267ZM310.835 103.088V104.528H319.395V103.088H310.835ZM316.195 97.936V111.36H317.635V97.936H316.195ZM312.515 97.984V103.504C312.515 105.776 312.291 108.672 310.515 110.576C310.867 110.768 311.411 111.184 311.667 111.44C313.651 109.36 313.939 106.176 313.939 103.52V97.984H312.515ZM304.723 97.328V98.704H310.451V97.328H304.723ZM306.419 102.24V103.6H308.899V108.032H306.419V109.376H310.211V102.24H306.419ZM306.723 97.984C306.307 100.544 305.587 102.976 304.403 104.544C304.627 104.976 304.931 105.888 305.011 106.272C306.563 104.32 307.523 101.328 308.099 98.288L306.723 97.984ZM305.763 102.24V110.608H307.027V102.24H305.763ZM322.083 104.944V106.352H331.347V104.944H322.083ZM330.467 104.944V109.024C330.467 110.592 330.883 111.056 332.291 111.056C332.579 111.056 333.683 111.056 333.987 111.056C335.267 111.056 335.683 110.4 335.827 107.856C335.411 107.744 334.707 107.488 334.387 107.216C334.339 109.264 334.259 109.552 333.827 109.552C333.587 109.552 332.739 109.552 332.547 109.552C332.115 109.552 332.051 109.488 332.051 109.024V104.944H330.467ZM321.475 98V101.056H322.995V99.36H333.651V100.928H335.235V98H321.475ZM326.515 103.072V105.04C326.515 106.704 325.859 108.848 320.931 110.144C321.283 110.48 321.747 111.04 321.987 111.424C327.331 109.984 328.099 107.296 328.099 105.072V103.072H326.515ZM325.699 99.072C325.475 101.008 324.867 102.016 321.619 102.56C321.923 102.848 322.291 103.408 322.435 103.792C326.131 103.024 326.995 101.616 327.283 99.072H325.699ZM327.139 96.72C327.395 97.408 327.683 98.32 327.811 98.864L329.443 98.528C329.315 97.984 328.979 97.104 328.707 96.464L327.139 96.72ZM329.315 99.056V101.76C329.315 103.104 329.667 103.632 331.187 103.632C331.507 103.632 333.171 103.632 333.571 103.632C334.099 103.632 334.659 103.616 334.947 103.536C334.899 103.184 334.851 102.64 334.819 102.256C334.531 102.32 333.907 102.352 333.523 102.352C333.155 102.352 331.619 102.352 331.283 102.352C330.883 102.352 330.819 102.192 330.819 101.776V99.056H329.315ZM343.731 96.512V109.68H345.395V96.512H343.731ZM349.363 104.512V111.328H351.027V104.512H349.363ZM338.915 97.92V103.568H350.387V97.904H348.723V102.096H340.499V97.92H338.915ZM338.147 104.512V110.448H350.147V108.928H339.827V104.512H338.147ZM41.176 128.088V129.416H44.68V137.336H41.176V138.68H46.056V128.088H41.176ZM40.28 128.088V139.912H41.672V128.088H40.28ZM41.096 132.456V133.784H45.368V132.456H41.096ZM42.664 125.48C42.552 126.328 42.28 127.544 42.024 128.344L43.24 128.632C43.56 127.896 43.96 126.776 44.296 125.736L42.664 125.48ZM48.264 128.008V129.4H53.08V128.008H48.264ZM52.552 128.008V128.312C52.36 135.192 52.12 137.896 51.592 138.456C51.416 138.68 51.224 138.728 50.904 138.728C50.52 138.728 49.56 138.712 48.52 138.632C48.792 139.032 48.984 139.672 49.016 140.104C49.928 140.136 50.888 140.168 51.464 140.104C52.072 140.024 52.472 139.864 52.856 139.336C53.512 138.52 53.72 136.008 53.944 128.728C53.96 128.536 53.96 128.008 53.96 128.008H52.552ZM48.472 125.464C47.96 127.64 47.08 129.832 45.992 131.224C46.344 131.416 46.968 131.848 47.24 132.088C48.328 130.568 49.32 128.184 49.928 125.8L48.472 125.464ZM47.72 132.36C48.552 133.528 49.592 135.112 50.056 136.088L51.352 135.304C50.84 134.36 49.752 132.808 48.904 131.688L47.72 132.36ZM64.872 130.856V132.264H70.712V130.856H64.872ZM56.232 127.144V128.392H63.368V127.144H56.232ZM56.072 133.496V134.792H63.4V133.496H56.072ZM55.992 130.76V132.024H63.624V130.76H55.992ZM67.592 131.464V140.28H69.064V131.464H67.592ZM57.192 128.712C57.448 129.352 57.672 130.216 57.752 130.76L59.016 130.408C58.936 129.88 58.696 129.048 58.408 128.424L57.192 128.712ZM61.176 128.408C60.968 129.144 60.6 130.248 60.296 130.936L61.528 131.208C61.848 130.568 62.216 129.592 62.552 128.68L61.176 128.408ZM69.24 125.72C68.088 126.232 66.072 126.728 64.296 127.032C64.472 127.352 64.68 127.864 64.76 128.184C66.648 127.912 68.84 127.448 70.44 126.84L69.24 125.72ZM58.616 125.752C58.936 126.44 59.32 127.368 59.464 127.944L61.048 127.512C60.888 126.936 60.472 126.04 60.12 125.384L58.616 125.752ZM64.296 127.032V132.664C64.296 134.776 64.184 137.496 62.904 139.384C63.224 139.544 63.816 140.024 64.072 140.296C65.496 138.216 65.704 134.984 65.704 132.664V127.032H64.296ZM61.224 135.896C61.688 136.664 62.248 137.736 62.504 138.408L63.56 137.768C63.304 137.128 62.744 136.12 62.232 135.352L61.224 135.896ZM57.368 135.48C57.032 136.52 56.488 137.624 55.896 138.376C56.184 138.536 56.696 138.888 56.92 139.08C57.512 138.264 58.168 136.968 58.552 135.832L57.368 135.48ZM59.192 131.448V140.264H60.664V131.448H59.192ZM73.816 128.088V129.416H77.32V137.336H73.816V138.68H78.696V128.088H73.816ZM72.92 128.088V139.912H74.312V128.088H72.92ZM73.736 132.456V133.784H78.008V132.456H73.736ZM75.304 125.48C75.192 126.328 74.92 127.544 74.664 128.344L75.88 128.632C76.2 127.896 76.6 126.776 76.936 125.736L75.304 125.48ZM80.904 128.008V129.4H85.72V128.008H80.904ZM85.192 128.008V128.312C85 135.192 84.76 137.896 84.232 138.456C84.056 138.68 83.864 138.728 83.544 138.728C83.16 138.728 82.2 138.712 81.16 138.632C81.432 139.032 81.624 139.672 81.656 140.104C82.568 140.136 83.528 140.168 84.104 140.104C84.712 140.024 85.112 139.864 85.496 139.336C86.152 138.52 86.36 136.008 86.584 128.728C86.6 128.536 86.6 128.008 86.6 128.008H85.192ZM81.112 125.464C80.6 127.64 79.72 129.832 78.632 131.224C78.984 131.416 79.608 131.848 79.88 132.088C80.968 130.568 81.96 128.184 82.568 125.8L81.112 125.464ZM80.36 132.36C81.192 133.528 82.232 135.112 82.696 136.088L83.992 135.304C83.48 134.36 82.392 132.808 81.544 131.688L80.36 132.36ZM99.8 129.896C100.616 131.16 101.544 132.872 101.928 133.912L103.272 133.272C102.856 132.216 101.864 130.584 101.032 129.352L99.8 129.896ZM94.552 127.448V128.872H103.144V127.448H94.552ZM99 132.424V138.216C99 139.624 99.288 140.072 100.552 140.072C100.792 140.072 101.592 140.072 101.848 140.072C102.936 140.072 103.288 139.448 103.416 137.16C103.016 137.048 102.424 136.824 102.104 136.568C102.072 138.44 102.024 138.728 101.704 138.728C101.528 138.728 100.92 138.728 100.776 138.728C100.472 138.728 100.424 138.664 100.424 138.2V132.424H99ZM96.328 132.76C96.232 136.12 95.976 138.088 93.496 139.24C93.832 139.512 94.248 140.04 94.424 140.424C97.24 139.016 97.64 136.616 97.752 132.76H96.328ZM94.936 133.576C95.416 133.352 96.168 133.256 101.992 132.6C101.928 132.296 101.864 131.72 101.832 131.336L95.704 131.928L94.888 132.424L94.936 133.576ZM94.936 133.576C94.936 133.272 95.976 132.744 95.976 132.744V132.712C97.32 130.968 98.776 128.44 99.848 125.912L98.2 125.464C97.384 127.816 95.992 130.28 95.528 130.92C95.096 131.576 94.776 131.992 94.424 132.088C94.6 132.504 94.856 133.256 94.936 133.576ZM92.312 131.912C92.792 132.952 93.224 134.328 93.384 135.176L94.504 134.728C94.344 133.88 93.864 132.552 93.368 131.528L92.312 131.912ZM90.856 136.072C91.032 137.144 91.192 138.536 91.224 139.448L92.376 139.16C92.328 138.248 92.152 136.872 91.96 135.816L90.856 136.072ZM89.096 135.912C88.968 137.208 88.76 138.648 88.376 139.608C88.68 139.688 89.272 139.88 89.528 140.024C89.848 139.048 90.136 137.528 90.296 136.12L89.096 135.912ZM88.856 131.656C88.856 131.368 89.752 130.904 89.752 130.904V130.872C90.792 129.592 91.896 127.752 92.696 125.992L91.32 125.4C90.696 127.128 89.624 128.952 89.288 129.4C88.952 129.896 88.68 130.2 88.392 130.28C88.552 130.664 88.776 131.352 88.856 131.656ZM88.856 131.656C89.128 131.512 89.592 131.416 92.104 131.16C92.104 130.872 92.168 130.376 92.232 130.024L89.448 130.248L88.84 130.648L88.856 131.656ZM88.968 135.304C88.968 135.016 89.864 134.568 89.864 134.568V134.536C91.432 132.936 93 130.696 94.216 128.488L92.936 127.72C91.928 129.944 90.264 132.264 89.72 132.84C89.224 133.448 88.888 133.832 88.504 133.928C88.68 134.312 88.904 135.016 88.968 135.304ZM88.968 135.304C89.32 135.128 89.848 134.968 93.624 134.328C93.592 134.04 93.608 133.528 93.656 133.176L89.528 133.816L88.904 134.248L88.968 135.304ZM92.616 135.72C92.936 136.616 93.288 137.784 93.416 138.536L94.52 138.152C94.36 137.4 93.992 136.264 93.656 135.368L92.616 135.72ZM105.944 130.36V131.528H111.256V130.36H105.944ZM105.944 132.488V133.656H111.224V132.488H105.944ZM105.24 128.184V129.416H111.928V128.184H105.24ZM106.696 134.664V135.896H109.944V138.184H106.696V139.416H111.256V134.664H106.696ZM106.04 134.664V140.136H107.336V134.664H106.04ZM107.08 126.008C107.512 126.68 108.024 127.624 108.264 128.216L109.464 127.528C109.208 126.952 108.712 126.088 108.264 125.432L107.08 126.008ZM111.896 130.952V132.44H119.608V130.952H111.896ZM114.888 125.784V140.344H116.456V125.784H114.888ZM124.872 135.784C124.072 136.872 122.744 138.008 121.512 138.728C121.896 138.952 122.52 139.448 122.824 139.72C124.024 138.904 125.448 137.592 126.392 136.344L124.872 135.784ZM130.664 136.408C131.928 137.352 133.48 138.712 134.216 139.576L135.544 138.68C134.728 137.8 133.144 136.504 131.88 135.608L130.664 136.408ZM127.944 134.344V138.6C127.944 138.792 127.88 138.84 127.608 138.856C127.336 138.872 126.424 138.872 125.512 138.84C125.752 139.24 126.008 139.88 126.088 140.328C127.256 140.328 128.12 140.312 128.712 140.072C129.32 139.832 129.48 139.432 129.48 138.632V134.344H127.944ZM131.976 125.464C129.608 126.52 125.528 127.448 121.864 128.04C122.024 128.376 122.248 128.936 122.296 129.32C126.024 128.728 130.248 127.848 133.096 126.648L131.976 125.464ZM122.712 135.768C122.712 135.496 123.736 135.16 123.736 135.16V135.112C126.696 133.96 129.816 132.376 132.664 130.312L131.528 129.304C128.952 131.32 125.56 133.08 124.472 133.56C123.496 134.024 122.824 134.28 122.264 134.344C122.424 134.744 122.648 135.464 122.712 135.768ZM122.712 135.768C123.384 135.512 124.376 135.416 133.688 134.712C133.672 134.408 133.672 133.816 133.72 133.416L123.64 134.104L122.664 134.632L122.712 135.768ZM123.496 132.344C123.496 132.072 124.456 131.688 124.456 131.688V131.656C126.12 130.952 127.864 129.912 129.432 128.712L128.104 127.864C126.776 129.064 124.968 130.136 124.392 130.424C123.848 130.712 123.448 130.872 123.064 130.936C123.224 131.32 123.432 132.056 123.496 132.344ZM123.496 132.344C123.96 132.184 124.664 132.104 130.104 131.768C130.12 131.48 130.2 130.92 130.28 130.552L124.296 130.84L123.48 131.288L123.496 132.344ZM131.064 132.12C132.2 133.272 133.576 134.872 134.232 135.848L135.528 135.064C134.84 134.104 133.48 132.616 132.312 131.496L131.064 132.12ZM148.76 129.896C149.576 131.16 150.504 132.872 150.888 133.912L152.232 133.272C151.816 132.216 150.824 130.584 149.992 129.352L148.76 129.896ZM143.512 127.448V128.872H152.104V127.448H143.512ZM147.96 132.424V138.216C147.96 139.624 148.248 140.072 149.512 140.072C149.752 140.072 150.552 140.072 150.808 140.072C151.896 140.072 152.248 139.448 152.376 137.16C151.976 137.048 151.384 136.824 151.064 136.568C151.032 138.44 150.984 138.728 150.664 138.728C150.488 138.728 149.88 138.728 149.736 138.728C149.432 138.728 149.384 138.664 149.384 138.2V132.424H147.96ZM145.288 132.76C145.192 136.12 144.936 138.088 142.456 139.24C142.792 139.512 143.208 140.04 143.384 140.424C146.2 139.016 146.6 136.616 146.712 132.76H145.288ZM143.896 133.576C144.376 133.352 145.128 133.256 150.952 132.6C150.888 132.296 150.824 131.72 150.792 131.336L144.664 131.928L143.848 132.424L143.896 133.576ZM143.896 133.576C143.896 133.272 144.936 132.744 144.936 132.744V132.712C146.28 130.968 147.736 128.44 148.808 125.912L147.16 125.464C146.344 127.816 144.952 130.28 144.488 130.92C144.056 131.576 143.736 131.992 143.384 132.088C143.56 132.504 143.816 133.256 143.896 133.576ZM141.272 131.912C141.752 132.952 142.184 134.328 142.344 135.176L143.464 134.728C143.304 133.88 142.824 132.552 142.328 131.528L141.272 131.912ZM139.816 136.072C139.992 137.144 140.152 138.536 140.184 139.448L141.336 139.16C141.288 138.248 141.112 136.872 140.92 135.816L139.816 136.072ZM138.056 135.912C137.928 137.208 137.72 138.648 137.336 139.608C137.64 139.688 138.232 139.88 138.488 140.024C138.808 139.048 139.096 137.528 139.256 136.12L138.056 135.912ZM137.816 131.656C137.816 131.368 138.712 130.904 138.712 130.904V130.872C139.752 129.592 140.856 127.752 141.656 125.992L140.28 125.4C139.656 127.128 138.584 128.952 138.248 129.4C137.912 129.896 137.64 130.2 137.352 130.28C137.512 130.664 137.736 131.352 137.816 131.656ZM137.816 131.656C138.088 131.512 138.552 131.416 141.064 131.16C141.064 130.872 141.128 130.376 141.192 130.024L138.408 130.248L137.8 130.648L137.816 131.656ZM137.928 135.304C137.928 135.016 138.824 134.568 138.824 134.568V134.536C140.392 132.936 141.96 130.696 143.176 128.488L141.896 127.72C140.888 129.944 139.224 132.264 138.68 132.84C138.184 133.448 137.848 133.832 137.464 133.928C137.64 134.312 137.864 135.016 137.928 135.304ZM137.928 135.304C138.28 135.128 138.808 134.968 142.584 134.328C142.552 134.04 142.568 133.528 142.616 133.176L138.488 133.816L137.864 134.248L137.928 135.304ZM141.576 135.72C141.896 136.616 142.248 137.784 142.376 138.536L143.48 138.152C143.32 137.4 142.952 136.264 142.616 135.368L141.576 135.72ZM159.912 136.184C161.72 135.608 162.84 134.216 162.84 132.456C162.84 131.24 162.312 130.456 161.32 130.456C160.584 130.456 159.944 130.92 159.944 131.736C159.944 132.552 160.568 133 161.288 133C161.624 133 161.944 132.904 162.184 132.648L161.304 131.336L161.528 132.776C161.528 133.864 160.808 134.664 159.48 135.144L159.912 136.184ZM175.576 131.224V138.84C175.576 139.048 175.528 139.112 175.304 139.112C175.096 139.112 174.44 139.128 173.768 139.096C173.96 139.432 174.168 139.944 174.232 140.296C175.224 140.296 175.944 140.28 176.408 140.088C176.872 139.88 177.016 139.528 177.016 138.84V131.224H175.576ZM171.912 131.224V132.504H176.36V131.224H171.912ZM178.344 133V138.264C178.344 139.784 178.792 140.232 180.488 140.232C180.856 140.232 182.712 140.232 183.096 140.232C184.504 140.232 184.92 139.64 185.112 137.544C184.696 137.464 184.088 137.224 183.768 136.984C183.688 138.616 183.576 138.888 182.968 138.888C182.536 138.888 180.984 138.888 180.68 138.888C179.976 138.888 179.848 138.808 179.848 138.248V133H178.344ZM174.808 127.128C175.528 128.296 176.392 129.88 176.744 130.856L178.056 130.296C177.656 129.336 176.776 127.8 176.04 126.664L174.808 127.128ZM179.256 127.608V128.92H184.008V127.608H179.256ZM179.272 134.776V136.136H184.168V134.776H179.272ZM171.016 130.44C171.016 130.152 171.896 129.704 171.896 129.704V129.688C172.904 128.792 174.056 127.368 174.92 125.976L173.384 125.496C172.744 126.776 171.72 128.056 171.4 128.408C171.08 128.76 170.808 128.984 170.536 129.048C170.696 129.432 170.936 130.136 171.016 130.44ZM171.016 130.44C171.448 130.264 172.104 130.168 177 129.72C176.904 129.416 176.776 128.904 176.728 128.52L171.72 128.888L170.968 129.336L171.016 130.44ZM171.192 131.224V135.016C171.192 136.392 171.112 138.12 170.216 139.368C170.504 139.56 171.064 140.104 171.272 140.392C172.392 138.936 172.584 136.696 172.584 135.032V131.224H171.192ZM172.344 137.144L172.824 138.424C173.88 137.8 175.096 137.032 176.28 136.264L175.992 135.336C174.632 136.024 173.272 136.728 172.344 137.144ZM172.584 133.928C173.352 134.456 174.36 135.192 174.856 135.656L175.672 134.84C175.144 134.408 174.136 133.704 173.368 133.224L172.584 133.928ZM178.344 125.528V130.36C178.344 131.928 178.808 132.504 180.44 132.504C180.792 132.504 182.744 132.504 183.208 132.504C183.8 132.504 184.424 132.472 184.712 132.392C184.664 132.04 184.6 131.48 184.584 131.08C184.248 131.16 183.592 131.192 183.176 131.192C182.712 131.192 180.904 131.192 180.472 131.192C179.96 131.192 179.848 130.984 179.848 130.408V125.528H178.344ZM188.76 125.512V140.344H190.088V125.512H188.76ZM186.52 130.856V132.264H191.96V130.856H186.52ZM187.832 133.064C187.576 134.408 186.92 136.056 186.264 136.936C186.488 137.352 186.792 138.024 186.92 138.472C187.8 137.352 188.472 135.144 188.808 133.4L187.832 133.064ZM190.856 133.096L190.056 133.656C190.424 134.296 191.224 136.056 191.512 136.84L192.504 135.736C192.264 135.304 191.176 133.496 190.856 133.096ZM186.552 126.808C186.872 127.896 187.208 129.32 187.336 130.248L188.472 129.944C188.328 129.032 187.976 127.64 187.624 126.552L186.552 126.808ZM191.224 126.568C191 127.592 190.552 129.064 190.184 129.976L191.144 130.328C191.544 129.496 192.056 128.12 192.488 126.984L191.224 126.568ZM192.472 126.744V127.864H201.112V126.744H192.472ZM192.872 128.696V129.752H200.808V128.696H192.872ZM192.264 130.664V131.784H201.288V130.664H192.264ZM195.976 125.496V131.272H197.432V125.496H195.976ZM199.016 132.616V138.888C199.016 139.064 198.968 139.128 198.76 139.128C198.552 139.128 197.896 139.128 197.224 139.112C197.4 139.448 197.576 139.976 197.64 140.328C198.648 140.344 199.352 140.328 199.832 140.12C200.296 139.928 200.44 139.56 200.44 138.888V132.616H199.016ZM193.896 134.744V135.784H199.672V134.744H193.896ZM193.896 136.792V137.816H199.672V136.792H193.896ZM193.128 132.616V135.528C193.128 136.792 193.032 138.376 192.072 139.544C192.36 139.72 192.92 140.248 193.128 140.52C194.28 139.176 194.504 137.096 194.504 135.56V132.616H193.128ZM193.944 132.616V133.768H199.464V132.616H193.944ZM203.928 126.584C204.792 126.936 205.896 127.512 206.44 127.928L207.256 126.776C206.68 126.376 205.576 125.848 204.712 125.544L203.928 126.584ZM202.744 129.304C203.592 129.624 204.712 130.184 205.256 130.584L206.04 129.432C205.464 129.048 204.344 128.552 203.512 128.264L202.744 129.304ZM203.16 134.168L204.216 135.32C205.208 134.248 206.264 133.016 207.176 131.896L206.36 130.888C205.304 132.104 204.024 133.4 203.16 134.168ZM202.984 136.008V137.384H217.464V136.008H202.984ZM209.368 134.936V140.36H210.92V134.936H209.368ZM209.112 125.416C208.408 127 207.192 128.568 205.912 129.576C206.264 129.784 206.856 130.264 207.112 130.536C208.376 129.4 209.704 127.624 210.536 125.848L209.112 125.416ZM208.36 133.336V134.552H217.064V133.336H208.36ZM208.568 129.352V130.328H216.248V129.352H208.568ZM208.568 131.32V132.296H216.264V131.32H208.568ZM211.944 127.736V134.04H213.384V127.736H211.944ZM211.48 125.944C211.784 126.552 212.12 127.384 212.264 127.88L213.8 127.432C213.624 126.936 213.256 126.136 212.936 125.56L211.48 125.944ZM209.352 127.192H208.712L207.864 128.04V135.208H209.352V128.344H216.824V127.192H209.352ZM221.56 131.48V132.952H230.504V131.48H221.56ZM229.992 131.48V131.752C229.816 136.376 229.608 138.184 229.192 138.616C229.032 138.792 228.84 138.824 228.536 138.824C228.152 138.824 227.224 138.808 226.248 138.728C226.52 139.16 226.712 139.8 226.744 140.248C227.72 140.296 228.696 140.312 229.24 140.248C229.816 140.184 230.216 140.056 230.568 139.592C231.128 138.952 231.352 137.08 231.56 132.168C231.576 131.96 231.576 131.48 231.576 131.48H229.992ZM224.712 131.896C224.424 134.84 223.896 137.688 219.656 139.08C220.008 139.416 220.456 140.04 220.632 140.44C225.24 138.76 226.008 135.448 226.344 131.896H224.712ZM223.032 126.04C222.28 128.504 220.824 130.648 218.952 131.96C219.32 132.216 219.96 132.776 220.232 133.08C222.104 131.576 223.72 129.192 224.616 126.424L223.032 126.04ZM225.704 125.768V127.176H229.272V125.768H225.704ZM227.832 125.768V126.584H228.184C229.064 129.112 230.792 131.624 233.048 133.048C233.288 132.632 233.8 131.992 234.12 131.672C231.992 130.52 230.296 128.216 229.512 125.768H227.832ZM243.224 130.952V132.376H250.216V130.952H243.224ZM248.04 125.672C246.728 126.296 244.504 126.888 242.504 127.272C242.696 127.592 242.92 128.152 243 128.504C245.112 128.152 247.576 127.592 249.336 126.856L248.04 125.672ZM246.504 131.4V140.344H248.008V131.4H246.504ZM235.704 128.872V130.312H241.752V128.872H235.704ZM237.992 125.496V140.344H239.448V125.496H237.992ZM237.944 129.816C237.496 132.008 236.392 134.648 235.256 136.072C235.512 136.44 235.864 137.048 236.008 137.464C237.24 135.832 238.344 132.712 238.872 130.136L237.944 129.816ZM239.288 130.84L238.552 131.544C239.08 132.296 240.28 134.232 240.712 135.16L241.64 133.96C241.288 133.448 239.704 131.32 239.288 130.84ZM242.504 127.272V132.12C242.504 134.376 242.36 137.416 240.904 139.56C241.256 139.688 241.896 140.088 242.152 140.312C243.688 138.056 243.944 134.568 243.944 132.12V127.272H242.504ZM258.28 125.512V138.68H259.944V125.512H258.28ZM263.912 133.512V140.328H265.576V133.512H263.912ZM253.464 126.92V132.568H264.936V126.904H263.272V131.096H255.048V126.92H253.464ZM252.696 133.512V139.448H264.696V137.928H254.376V133.512H252.696ZM274.856 125.512C274.344 126.968 273.448 128.392 272.392 129.304C272.712 129.512 273.272 129.992 273.512 130.248C274.616 129.192 275.64 127.56 276.248 125.848L274.856 125.512ZM274.824 129.976C274.392 131.032 273.64 132.104 272.808 132.808C273.128 133.016 273.688 133.448 273.928 133.704C274.792 132.888 275.672 131.608 276.2 130.36L274.824 129.976ZM274.872 126.92L274.344 128.216H281.56V126.92H274.872ZM279.32 130.52C280.072 131.496 280.888 132.856 281.24 133.72L282.52 133.048C282.152 132.184 281.336 130.904 280.536 129.944L279.32 130.52ZM281.16 126.92V127.112C280.888 127.944 280.456 128.984 280.104 129.624L281.4 129.896C281.784 129.192 282.28 128.088 282.68 127.112L281.624 126.872L281.384 126.92H281.16ZM271.752 125.448C270.872 127.176 269.432 128.904 267.96 129.992C268.248 130.28 268.728 130.904 268.904 131.192C270.456 129.912 272.072 127.912 273.096 125.896L271.752 125.448ZM270.28 128.648V134.76H271.736V127.24L271.704 127.224L270.28 128.648ZM271.608 135.528V138.152C271.608 139.64 272.136 140.056 274.2 140.056C274.632 140.056 277.288 140.056 277.72 140.056C279.416 140.056 279.88 139.544 280.072 137.416C279.656 137.336 279.016 137.112 278.68 136.856C278.6 138.456 278.456 138.664 277.624 138.664C277 138.664 274.776 138.664 274.312 138.664C273.304 138.664 273.128 138.6 273.128 138.12V135.528H271.608ZM274.088 134.904C274.92 135.736 275.864 136.92 276.248 137.704L277.512 136.952C277.08 136.168 276.104 135.032 275.24 134.248L274.088 134.904ZM279.608 135.768C280.328 136.936 281.032 138.488 281.256 139.48L282.696 138.904C282.44 137.896 281.688 136.392 280.952 135.24L279.608 135.768ZM269.72 135.544C269.368 136.648 268.76 138.088 268.136 139.032L269.56 139.704C270.12 138.712 270.68 137.208 271.08 136.104L269.72 135.544ZM277.176 128.728V134.696H278.632V128.728H277.176ZM285.976 128.088V129.416H289.48V137.336H285.976V138.68H290.856V128.088H285.976ZM285.08 128.088V139.912H286.472V128.088H285.08ZM285.896 132.456V133.784H290.168V132.456H285.896ZM287.464 125.48C287.352 126.328 287.08 127.544 286.824 128.344L288.04 128.632C288.36 127.896 288.76 126.776 289.096 125.736L287.464 125.48ZM293.064 128.008V129.4H297.88V128.008H293.064ZM297.352 128.008V128.312C297.16 135.192 296.92 137.896 296.392 138.456C296.216 138.68 296.024 138.728 295.704 138.728C295.32 138.728 294.36 138.712 293.32 138.632C293.592 139.032 293.784 139.672 293.816 140.104C294.728 140.136 295.688 140.168 296.264 140.104C296.872 140.024 297.272 139.864 297.656 139.336C298.312 138.52 298.52 136.008 298.744 128.728C298.76 128.536 298.76 128.008 298.76 128.008H297.352ZM293.272 125.464C292.76 127.64 291.88 129.832 290.792 131.224C291.144 131.416 291.768 131.848 292.04 132.088C293.128 130.568 294.12 128.184 294.728 125.8L293.272 125.464ZM292.52 132.36C293.352 133.528 294.392 135.112 294.856 136.088L296.152 135.304C295.64 134.36 294.552 132.808 293.704 131.688L292.52 132.36ZM307.496 134.696V135.8H313.48V134.696H307.496ZM306.04 126.68V127.8H314.968V126.68H306.04ZM306.536 128.664V129.72H314.504V128.664H306.536ZM305.64 130.632V131.752H315.464V130.632H305.64ZM307.496 136.792V137.896H313.512V136.792H307.496ZM313.096 132.552V138.808C313.096 139 313.016 139.064 312.808 139.064C312.6 139.08 311.832 139.08 311.08 139.048C311.256 139.416 311.448 139.976 311.512 140.344C312.632 140.344 313.384 140.328 313.88 140.12C314.392 139.912 314.52 139.528 314.52 138.824V132.552H313.096ZM309.736 125.496V131H311.24V125.496H309.736ZM302.968 125.48V140.312H304.376V125.48H302.968ZM301.32 128.616C301.208 129.912 300.904 131.688 300.52 132.776L301.736 133.208C302.12 131.976 302.408 130.104 302.504 128.792L301.32 128.616ZM304.248 128.168C304.632 128.968 305.08 130.056 305.256 130.696L306.312 130.152C306.12 129.544 305.656 128.504 305.256 127.72L304.248 128.168ZM306.616 132.552V135.48C306.616 136.728 306.52 138.328 305.624 139.496C305.928 139.688 306.504 140.232 306.712 140.52C307.816 139.144 308.04 137.048 308.04 135.512V132.552H306.616ZM307.432 132.552V133.64H313.88V132.552H307.432ZM323.576 127.32V128.648H329.336V127.32H323.576ZM325.128 135.832V137H330.472V135.832H325.128ZM325.064 138.424V139.688H330.424V138.424H325.064ZM322.84 130.424V131.784H331.944V130.424H322.84ZM325.928 125.512V131.256H327.432V125.512H325.928ZM324.552 133.192V140.296H326.008V134.456H329.56V140.232H331.08V133.192H324.552ZM330.36 126.312C328.92 129.928 326.216 132.52 322.584 133.992C322.824 134.328 323.176 135.016 323.288 135.352C327.176 133.624 330.088 130.744 331.736 126.68L330.36 126.312ZM320.872 131.944C321.24 133.048 321.592 134.52 321.704 135.4L322.856 135.032C322.744 134.184 322.36 132.76 321.976 131.656L320.872 131.944ZM319.432 136.088C319.608 137.208 319.752 138.68 319.784 139.672L320.984 139.432C320.936 138.456 320.76 137.016 320.584 135.88L319.432 136.088ZM317.672 135.912C317.544 137.256 317.32 138.728 316.936 139.704C317.256 139.8 317.848 139.992 318.136 140.136C318.472 139.128 318.76 137.576 318.92 136.12L317.672 135.912ZM317.352 131.64C317.352 131.368 318.232 130.92 318.232 130.92V130.888C319.256 129.592 320.344 127.752 321.112 125.976L319.752 125.432C319.144 127.16 318.12 128.968 317.784 129.432C317.464 129.928 317.192 130.248 316.888 130.312C317.064 130.68 317.288 131.352 317.352 131.64ZM317.352 131.64C317.64 131.512 318.12 131.4 320.632 131.128C320.632 130.84 320.696 130.296 320.776 129.928L317.992 130.152L317.32 130.568L317.352 131.64ZM317.48 135.288C317.48 135.016 318.376 134.568 318.376 134.568V134.536C319.896 132.968 321.48 130.76 322.664 128.616L321.384 127.832C320.376 130.008 318.728 132.28 318.216 132.856C317.72 133.448 317.368 133.832 316.984 133.928C317.16 134.296 317.4 135 317.48 135.288ZM317.48 135.288C317.816 135.128 318.36 134.984 321.944 134.472C321.928 134.168 321.96 133.64 322.024 133.256L318.088 133.752L317.416 134.184L317.48 135.288ZM321.112 135.768C321.464 136.76 321.832 138.072 321.976 138.92L323.096 138.536C322.936 137.688 322.536 136.424 322.184 135.432L321.112 135.768ZM341.384 126.44V135.16C341.384 136.904 341.88 137.336 343.496 137.336C343.864 137.336 345.784 137.336 346.168 137.336C347.576 137.336 347.992 136.696 348.168 134.696C347.752 134.6 347.16 134.36 346.84 134.12C346.76 135.64 346.648 135.96 346.056 135.96C345.64 135.96 344.008 135.96 343.688 135.96C342.968 135.96 342.856 135.832 342.856 135.16V126.44H341.384ZM341.992 126.44V127.8H345.88V130.888H341.992V132.248H347.352V126.44H341.992ZM333.912 127.208V128.552H340.392V127.208H333.912ZM333.48 130.328V131.688H340.792V130.328H333.48ZM337.512 133.784V135.096H340.648V133.784H337.512ZM336.456 125.528V131.048H337.88V125.528H336.456ZM336.792 131.224V138.472H338.184V131.224H336.792ZM335.336 134.536L334.232 134.888C335.304 139.112 337.288 139.944 341.576 139.944H347.752C347.848 139.496 348.12 138.792 348.36 138.456C347.16 138.504 342.536 138.504 341.56 138.488C337.992 138.488 336.2 137.896 335.336 134.536ZM334.184 132.808C334.136 135.608 333.96 138.232 333.096 139.848C333.432 139.992 334.104 140.328 334.36 140.52C335.256 138.712 335.496 135.96 335.592 132.904L334.184 132.808ZM43.224 154.512C42.36 156.896 40.92 159.28 39.384 160.8C39.656 161.168 40.088 162 40.232 162.368C41.976 160.544 43.64 157.712 44.68 154.96L43.224 154.512ZM41.608 158.784V169.344H43.128V157.296L43.112 157.28L41.608 158.784ZM44.04 159.104V160.608H54.2V159.104H44.04ZM49.624 159.792L48.312 160.096C49.128 164.192 50.632 167.552 53.336 169.328C53.576 168.912 54.104 168.304 54.472 168.016C51.88 166.544 50.344 163.408 49.624 159.792ZM50.616 155.568C51.304 156.464 52.088 157.68 52.44 158.432L53.672 157.68C53.304 156.928 52.472 155.776 51.784 154.912L50.616 155.568ZM48.072 154.528V158.4C48.072 161.36 47.656 165.312 43.784 168.368C44.2 168.624 44.744 169.04 45.032 169.36C49.064 166.16 49.608 161.856 49.608 158.4V154.528H48.072ZM58.12 160.512V161.904H61.976V160.512H58.12ZM61.384 160.512V160.752C61.336 164.048 61.272 165.216 61.048 165.488C60.936 165.632 60.776 165.664 60.552 165.664C60.28 165.664 59.656 165.664 59 165.6C59.224 165.984 59.384 166.576 59.416 167.008C60.184 167.04 60.904 167.04 61.32 166.992C61.768 166.928 62.056 166.8 62.344 166.464C62.696 166 62.776 164.608 62.856 161.104C62.856 160.912 62.856 160.512 62.856 160.512H61.384ZM66.024 155.392C66.984 155.92 68.184 156.72 68.76 157.28L69.72 156.256C69.112 155.712 67.88 154.96 66.936 154.464L66.024 155.392ZM68.152 159.632C66.984 163.424 64.776 166.352 61.608 168.032C61.928 168.336 62.488 168.96 62.712 169.28C65.944 167.328 68.312 164.176 69.672 160L68.152 159.632ZM58.216 157.072V158.56H70.584V157.072H58.216ZM57.224 157.072V161.664C57.224 163.744 57.096 166.528 55.816 168.48C56.168 168.656 56.84 169.2 57.096 169.504C58.552 167.376 58.808 164 58.808 161.68V157.072H57.224ZM63.816 154.512C63.864 162.016 65.256 169.232 68.6 169.232C69.944 169.232 70.472 168.48 70.728 165.632C70.328 165.488 69.768 165.136 69.432 164.8C69.336 166.88 69.144 167.696 68.728 167.696C66.856 167.696 65.32 161.52 65.384 154.512H63.816ZM75.144 159.504V160.88H84.12V159.504H75.144ZM79.032 157.104C78.904 161.168 78.68 164.16 75.096 165.696C75.416 165.968 75.848 166.528 76.024 166.912C79.96 165.104 80.36 161.664 80.504 157.104H79.032ZM78.888 162.256C80.44 163.584 82.248 165.504 83.096 166.72L84.184 165.792C83.304 164.592 81.512 162.8 79.912 161.488L78.888 162.256ZM72.872 155.104V169.344H74.296V156.48H84.968V169.344H86.44V155.104H72.872ZM73.768 167.312V168.592H85.72V167.312H73.768ZM94.632 165.184C96.44 164.608 97.56 163.216 97.56 161.456C97.56 160.24 97.032 159.456 96.04 159.456C95.304 159.456 94.664 159.92 94.664 160.736C94.664 161.552 95.288 162 96.008 162C96.344 162 96.664 161.904 96.904 161.648L96.024 160.336L96.248 161.776C96.248 162.864 95.528 163.664 94.2 164.144L94.632 165.184ZM116.12 158.896C116.936 160.16 117.864 161.872 118.248 162.912L119.592 162.272C119.176 161.216 118.184 159.584 117.352 158.352L116.12 158.896ZM110.872 156.448V157.872H119.464V156.448H110.872ZM115.32 161.424V167.216C115.32 168.624 115.608 169.072 116.872 169.072C117.112 169.072 117.912 169.072 118.168 169.072C119.256 169.072 119.608 168.448 119.736 166.16C119.336 166.048 118.744 165.824 118.424 165.568C118.392 167.44 118.344 167.728 118.024 167.728C117.848 167.728 117.24 167.728 117.096 167.728C116.792 167.728 116.744 167.664 116.744 167.2V161.424H115.32ZM112.648 161.76C112.552 165.12 112.296 167.088 109.816 168.24C110.152 168.512 110.568 169.04 110.744 169.424C113.56 168.016 113.96 165.616 114.072 161.76H112.648ZM111.256 162.576C111.736 162.352 112.488 162.256 118.312 161.6C118.248 161.296 118.184 160.72 118.152 160.336L112.024 160.928L111.208 161.424L111.256 162.576ZM111.256 162.576C111.256 162.272 112.296 161.744 112.296 161.744V161.712C113.64 159.968 115.096 157.44 116.168 154.912L114.52 154.464C113.704 156.816 112.312 159.28 111.848 159.92C111.416 160.576 111.096 160.992 110.744 161.088C110.92 161.504 111.176 162.256 111.256 162.576ZM108.632 160.912C109.112 161.952 109.544 163.328 109.704 164.176L110.824 163.728C110.664 162.88 110.184 161.552 109.688 160.528L108.632 160.912ZM107.176 165.072C107.352 166.144 107.512 167.536 107.544 168.448L108.696 168.16C108.648 167.248 108.472 165.872 108.28 164.816L107.176 165.072ZM105.416 164.912C105.288 166.208 105.08 167.648 104.696 168.608C105 168.688 105.592 168.88 105.848 169.024C106.168 168.048 106.456 166.528 106.616 165.12L105.416 164.912ZM105.176 160.656C105.176 160.368 106.072 159.904 106.072 159.904V159.872C107.112 158.592 108.216 156.752 109.016 154.992L107.64 154.4C107.016 156.128 105.944 157.952 105.608 158.4C105.272 158.896 105 159.2 104.712 159.28C104.872 159.664 105.096 160.352 105.176 160.656ZM105.176 160.656C105.448 160.512 105.912 160.416 108.424 160.16C108.424 159.872 108.488 159.376 108.552 159.024L105.768 159.248L105.16 159.648L105.176 160.656ZM105.288 164.304C105.288 164.016 106.184 163.568 106.184 163.568V163.536C107.752 161.936 109.32 159.696 110.536 157.488L109.256 156.72C108.248 158.944 106.584 161.264 106.04 161.84C105.544 162.448 105.208 162.832 104.824 162.928C105 163.312 105.224 164.016 105.288 164.304ZM105.288 164.304C105.64 164.128 106.168 163.968 109.944 163.328C109.912 163.04 109.928 162.528 109.976 162.176L105.848 162.816L105.224 163.248L105.288 164.304ZM108.936 164.72C109.256 165.616 109.608 166.784 109.736 167.536L110.84 167.152C110.68 166.4 110.312 165.264 109.976 164.368L108.936 164.72ZM122.264 159.36V160.528H127.576V159.36H122.264ZM122.264 161.488V162.656H127.544V161.488H122.264ZM121.56 157.184V158.416H128.248V157.184H121.56ZM123.016 163.664V164.896H126.264V167.184H123.016V168.416H127.576V163.664H123.016ZM122.36 163.664V169.136H123.656V163.664H122.36ZM123.4 155.008C123.832 155.68 124.344 156.624 124.584 157.216L125.784 156.528C125.528 155.952 125.032 155.088 124.584 154.432L123.4 155.008ZM128.216 159.952V161.44H135.928V159.952H128.216ZM131.208 154.784V169.344H132.776V154.784H131.208ZM142.408 159.952V166.928H143.736V161.136H151.064V159.952H142.408ZM143.592 155.024V160.4H144.936V156.16H148.968V160.4H150.344V155.024H143.592ZM145.56 162V163.008H147.928V164.448H145.56V165.456H149.064V162H145.56ZM150.216 159.952V165.536C150.216 165.696 150.152 165.744 149.976 165.76C149.816 165.76 149.256 165.76 148.68 165.744C148.84 166.08 149.016 166.592 149.064 166.944C149.976 166.944 150.616 166.944 151.048 166.736C151.48 166.528 151.592 166.176 151.592 165.552V159.952H150.216ZM144.872 162V166.032H145.992V162H144.872ZM146.216 157.328V160.576H147.336V158.336H149.608V157.328H146.216ZM138.12 155.168C138.792 155.968 139.64 157.088 140.024 157.76L141.224 156.96C140.808 156.304 139.976 155.28 139.272 154.496L138.12 155.168ZM137.624 158.208V159.44H141.048V158.208H137.624ZM140.648 165.376L139.64 165.808C140.84 168.64 142.888 169.088 146.632 169.088C148.44 169.088 150.472 169.056 152.056 168.96C152.136 168.544 152.312 167.856 152.536 167.552C150.824 167.712 148.344 167.792 146.648 167.792C143.576 167.776 141.576 167.504 140.648 165.376ZM140.376 162.16V162.4C139.992 165.248 138.92 167.28 137.336 168.368C137.624 168.576 138.136 169.088 138.328 169.392C140.008 168.144 141.24 165.824 141.72 162.384L141.064 162.128L140.824 162.16H140.376ZM137.896 163.584C138.024 163.456 138.456 163.36 138.856 163.36H140.968V162.16H138.52L137.896 162.48V163.584ZM137.896 163.584C137.896 163.232 138.968 162.72 138.968 162.72C139.864 161.68 141.272 159.664 142.024 158.56L141.064 158.128L140.648 158.304V158.352C140.12 159.216 138.648 161.328 138.168 161.808C137.88 162.128 137.624 162.24 137.368 162.304C137.512 162.592 137.8 163.264 137.896 163.584ZM153.8 164.16V165.568H168.68V164.16H153.8ZM154.424 155.424V156.832H168.072V155.424H154.424ZM156.696 161.168V162.48H165.848V161.168H156.696ZM165.288 158.176V167.6C165.288 167.872 165.192 167.952 164.888 167.952C164.616 167.968 163.576 167.984 162.6 167.936C162.824 168.32 163.048 168.976 163.144 169.376C164.504 169.376 165.432 169.36 166.008 169.12C166.6 168.88 166.792 168.448 166.792 167.616V158.176H165.288ZM155.672 158.176V169.376H157.16V159.552H165.896V158.176H155.672ZM160.408 155.856V164.672H161.928V155.856H160.408ZM176.184 155.248V156.608H184.76V155.248H176.184ZM176.552 163.536V164.896H184.28V163.536H176.552ZM175.736 167.584V168.976H184.936V167.584H175.736ZM179.624 164.176V168.432H181.144V164.176H179.624ZM177.672 157.008C177.304 157.776 176.616 158.96 175.976 159.936C176.808 161.056 177.544 162.272 177.896 163.104L179.128 162.608C178.792 161.904 178.088 160.816 177.4 159.92C177.928 159.12 178.536 158.16 178.968 157.328L177.672 157.008ZM180.408 157.024C180.04 157.792 179.352 158.96 178.68 159.92C179.544 161.024 180.312 162.224 180.664 163.056L181.88 162.528C181.544 161.84 180.824 160.784 180.12 159.904C180.648 159.12 181.256 158.16 181.704 157.344L180.408 157.024ZM183.16 157.008C182.776 157.776 182.056 158.976 181.368 159.936C182.28 161.04 183.128 162.272 183.512 163.104L184.728 162.544C184.344 161.856 183.576 160.8 182.84 159.92C183.368 159.12 183.992 158.176 184.472 157.344L183.16 157.008ZM174.008 160.928C174.408 162.032 174.824 163.456 174.952 164.32L176.152 163.92C175.992 163.072 175.544 161.664 175.128 160.608L174.008 160.928ZM172.52 165.104C172.712 166.16 172.872 167.568 172.904 168.48L174.088 168.24C174.04 167.328 173.848 165.952 173.656 164.896L172.52 165.104ZM170.792 164.912C170.664 166.256 170.44 167.728 170.056 168.704C170.376 168.816 170.984 169.008 171.272 169.152C171.608 168.128 171.896 166.576 172.056 165.12L170.792 164.912ZM170.504 160.656C170.504 160.368 171.352 159.936 171.352 159.936V159.904C172.408 158.64 173.512 156.784 174.312 155.024L172.968 154.464C172.36 156.192 171.288 158 170.936 158.464C170.616 158.96 170.344 159.28 170.04 159.344C170.2 159.712 170.424 160.368 170.504 160.656ZM170.504 160.656C170.792 160.512 171.272 160.4 173.8 160.144C173.816 159.84 173.864 159.312 173.944 158.944L171.128 159.168L170.456 159.584L170.504 160.656ZM170.616 164.304C170.616 164.032 171.496 163.584 171.496 163.584V163.552C173.032 161.984 174.584 159.776 175.768 157.632L174.504 156.88C173.496 159.04 171.864 161.312 171.352 161.888C170.856 162.48 170.504 162.864 170.136 162.944C170.312 163.328 170.536 164.016 170.616 164.304ZM170.616 164.304C170.952 164.128 171.496 164 175.048 163.488C175.032 163.184 175.064 162.656 175.112 162.288L171.224 162.784L170.552 163.216L170.616 164.304ZM174.12 164.768C174.424 165.6 174.744 166.704 174.856 167.408L175.976 167.024C175.832 166.32 175.48 165.264 175.176 164.432L174.12 164.768ZM188.344 162.24V163.728H199.352V162.24H188.344ZM188.344 166.928V168.416H199.32V166.928H188.344ZM187.608 157.584V169.36H189.112V159.104H198.6V169.312H200.184V157.584H187.608ZM193.032 154.512V167.712H194.584V154.512H193.032ZM213.464 155.712C214.36 156.528 215.416 157.664 215.864 158.432L217.096 157.568C216.6 156.816 215.512 155.712 214.6 154.928L213.464 155.712ZM203.048 159.152V160.592H217.368V159.152H203.048ZM202.776 163.776L203.176 165.296C205.224 164.864 208.024 164.256 210.632 163.664L210.52 162.304C207.72 162.864 204.68 163.456 202.776 163.776ZM206.296 156.272V167.488C206.296 167.76 206.2 167.84 205.928 167.84C205.64 167.856 204.696 167.872 203.72 167.824C203.944 168.256 204.2 168.944 204.264 169.36C205.592 169.36 206.488 169.312 207.048 169.072C207.624 168.832 207.816 168.4 207.816 167.504V156.272H206.296ZM209.448 154.656C207.864 155.216 205.304 155.744 203.064 156.064C203.24 156.416 203.432 156.976 203.512 157.328C205.816 157.04 208.536 156.576 210.488 155.936L209.448 154.656ZM211.032 154.624C211.096 162.064 212.44 169.408 215.656 169.408C216.968 169.408 217.48 168.656 217.736 165.936C217.32 165.776 216.792 165.424 216.472 165.072C216.376 167.072 216.184 167.872 215.8 167.872C214.056 167.872 212.552 161.584 212.616 154.624H211.032ZM215.384 161.232C213.944 163.92 211.336 166.256 208.52 167.584C208.904 167.92 209.336 168.416 209.56 168.784C212.488 167.248 215.112 164.752 216.712 161.808L215.384 161.232ZM224.44 157.776V158.896H227.48V157.776H224.44ZM229.4 157.776V158.896H232.472V157.776H229.4ZM232.008 155.392V167.488C232.008 167.792 231.896 167.888 231.592 167.888C231.272 167.904 230.152 167.92 229.08 167.872C229.288 168.256 229.528 168.928 229.592 169.328C231.096 169.328 232.072 169.312 232.664 169.056C233.256 168.832 233.448 168.4 233.448 167.504V155.392H232.008ZM223.56 155.392V169.312H224.968V155.392H223.56ZM224.52 155.392V156.576H226.808V160.192H224.52V161.36H227.976V155.392H224.52ZM232.728 155.392H228.824V161.36H232.728V160.192H230.04V156.576H232.728V155.392ZM222.072 154.56C221.336 156.976 220.104 159.392 218.76 160.944C219 161.344 219.384 162.176 219.512 162.544C221.112 160.656 222.568 157.744 223.48 154.96L222.072 154.56ZM220.792 158.688V169.344H222.232V157.328L222.2 157.296L220.792 158.688ZM237.016 157.088V158.416H240.52V166.336H237.016V167.68H241.896V157.088H237.016ZM236.12 157.088V168.912H237.512V157.088H236.12ZM236.936 161.456V162.784H241.208V161.456H236.936ZM238.504 154.48C238.392 155.328 238.12 156.544 237.864 157.344L239.08 157.632C239.4 156.896 239.8 155.776 240.136 154.736L238.504 154.48ZM244.104 157.008V158.4H248.92V157.008H244.104ZM248.392 157.008V157.312C248.2 164.192 247.96 166.896 247.432 167.456C247.256 167.68 247.064 167.728 246.744 167.728C246.36 167.728 245.4 167.712 244.36 167.632C244.632 168.032 244.824 168.672 244.856 169.104C245.768 169.136 246.728 169.168 247.304 169.104C247.912 169.024 248.312 168.864 248.696 168.336C249.352 167.52 249.56 165.008 249.784 157.728C249.8 157.536 249.8 157.008 249.8 157.008H248.392ZM244.312 154.464C243.8 156.64 242.92 158.832 241.832 160.224C242.184 160.416 242.808 160.848 243.08 161.088C244.168 159.568 245.16 157.184 245.768 154.8L244.312 154.464ZM243.56 161.36C244.392 162.528 245.432 164.112 245.896 165.088L247.192 164.304C246.68 163.36 245.592 161.808 244.744 160.688L243.56 161.36ZM251.864 164.64V165.856H266.456V164.64H251.864ZM252.328 155.648V156.816H265.832V155.648H252.328ZM261.256 163.648V167.776C261.256 167.984 261.176 168.048 260.92 168.064C260.664 168.064 259.752 168.064 258.872 168.032C259.064 168.416 259.256 168.96 259.32 169.344C260.584 169.344 261.432 169.344 262.008 169.152C262.568 168.944 262.712 168.56 262.712 167.824V163.648H261.256ZM258.376 154.512V163.12H259.864V154.512H258.376ZM254.424 166.48C255.352 167.072 256.44 167.968 256.968 168.592L258.072 167.616C257.528 166.992 256.376 166.144 255.464 165.6L254.424 166.48ZM255 160.272H263.368V161.104H255V160.272ZM255 158.544H263.368V159.36H255V158.544ZM253.576 157.584V162.064H264.856V157.584H253.576ZM261.48 162.368C262.696 162.832 264.184 163.68 264.952 164.32L265.848 163.504C265.064 162.912 263.592 162.096 262.36 161.648L261.48 162.368ZM252.52 162.848L252.584 163.984C255.624 163.936 260.184 163.856 264.472 163.728L264.536 162.752C260.136 162.832 255.448 162.864 252.52 162.848ZM268.44 164.336V165.6H282.568V164.336H268.44ZM268.488 157.248V158.464H282.504V157.248H268.488ZM269.144 160.08V161.264H281.912V160.08H269.144ZM269.944 162.24V163.36H281.144V162.24H269.944ZM274.696 160.64V169.36H276.2V160.64H274.696ZM273.288 154.48V157.856H274.696V154.48H273.288ZM276.28 154.48V157.776H277.72V154.48H276.28ZM279.992 154.656C279.736 155.376 279.256 156.4 278.84 157.056L280.072 157.456C280.504 156.832 281.064 155.936 281.56 155.056L279.992 154.656ZM277.96 158.384C277.752 158.816 277.336 159.472 277.032 159.92L278.296 160.304C278.664 159.92 279.112 159.376 279.544 158.8L277.96 158.384ZM269.736 155.072C270.232 155.808 270.76 156.816 270.968 157.456L272.328 156.944C272.12 156.304 271.56 155.328 271.032 154.624L269.736 155.072ZM271.672 158.688C271.992 159.184 272.328 159.856 272.456 160.272L273.928 159.904C273.768 159.472 273.416 158.832 273.096 158.368L271.672 158.688ZM272.984 166.288C271.976 166.944 270.008 167.536 268.36 167.792C268.664 168.064 269.08 168.56 269.272 168.896C270.936 168.528 272.968 167.696 274.088 166.8L272.984 166.288ZM277.08 166.96C278.536 167.52 280.52 168.368 281.512 168.88L282.536 168C281.464 167.488 279.48 166.704 278.056 166.192L277.08 166.96ZM291.976 167.392V168.72H297.48V167.392H291.976ZM291.288 163.312V169.376H292.712V164.624H296.808V169.312H298.296V163.312H291.288ZM295.176 157.12C294.872 159.056 294.232 161.008 291.624 162.048C291.896 162.272 292.28 162.736 292.408 163.04C295.336 161.792 296.168 159.552 296.552 157.12H295.176ZM296.088 158.272L295 158.512C295.592 160.512 296.712 162.176 298.424 162.96C298.616 162.608 299.016 162.096 299.304 161.84C297.736 161.248 296.616 159.872 296.088 158.272ZM285.016 159.36V160.528H289.272V159.36H285.016ZM285.016 161.504V162.672H289.272V161.504H285.016ZM284.456 157.184V158.416H289.96V157.184H284.456ZM285.608 163.664V164.896H287.96V167.184H285.608V168.416H289.24V163.664H285.608ZM285 163.664V169.136H286.312V163.664H285ZM286.12 154.832C286.424 155.504 286.792 156.432 286.92 157.024L288.264 156.656C288.104 156.08 287.736 155.2 287.384 154.528L286.12 154.832ZM290.28 155.872V157.04H292.76V155.872H290.28ZM289.928 159.52V160.72H293.16V159.52H289.928ZM293.912 154.48C293.576 156.032 292.952 157.584 292.104 158.592C292.44 158.768 293 159.152 293.24 159.36C294.104 158.256 294.824 156.512 295.24 154.752L293.912 154.48ZM293.752 156.128V157.344H298.216V156.128H293.752ZM297.912 156.128V156.304C297.752 157.168 297.48 158.208 297.24 158.864L298.36 159.104C298.648 158.4 298.968 157.264 299.224 156.272L298.328 156.08L298.12 156.128H297.912ZM301.896 159.584V169.312H303.336V160.832H313.768V159.584H301.896ZM313 159.584V167.824C313 168.048 312.904 168.128 312.632 168.128C312.392 168.144 311.464 168.16 310.568 168.128C310.744 168.448 310.936 168.928 311 169.264C312.328 169.264 313.176 169.248 313.688 169.072C314.216 168.88 314.392 168.544 314.392 167.824V159.584H313ZM305.848 163.552V164.64H309.848V166.256H305.848V167.328H311.096V163.552H305.848ZM305.048 163.552V168.048H306.328V163.552H305.048ZM301.048 156.144V157.44H315.208V156.144H301.048ZM304.424 157.792C304.76 158.384 305.16 159.184 305.352 159.664L306.696 159.152C306.488 158.688 306.056 157.936 305.72 157.376L304.424 157.792ZM310.44 157.456C310.184 158.176 309.656 159.2 309.24 159.856L310.408 160.176C310.872 159.584 311.448 158.64 311.96 157.792L310.44 157.456ZM307.08 154.768C307.336 155.424 307.624 156.32 307.752 156.88L309.256 156.448C309.096 155.904 308.792 155.056 308.52 154.4L307.08 154.768ZM305.944 160.24C305.832 161.68 305.384 162.352 303.32 162.72C303.576 162.96 303.912 163.456 304.008 163.76C306.488 163.216 307.112 162.176 307.272 160.24H305.944ZM308.728 160.256V161.568C308.728 162.624 308.936 163.12 310.056 163.12C310.328 163.12 311.272 163.12 311.576 163.12C311.912 163.12 312.328 163.104 312.536 163.024C312.488 162.704 312.472 162.336 312.44 161.984C312.216 162.048 311.784 162.064 311.544 162.064C311.32 162.064 310.584 162.064 310.376 162.064C310.104 162.064 310.072 161.936 310.072 161.584V160.256H308.728ZM319.88 157.232V158.128H328.92V157.232H319.88ZM319.672 164V164.88H329.144V164H319.672ZM321.288 165.36C321.768 165.808 322.312 166.432 322.552 166.848L323.576 166.304C323.32 165.888 322.744 165.28 322.248 164.88L321.288 165.36ZM321.608 160.64H327.192V161.248H321.608V160.64ZM321.608 159.392H327.192V159.968H321.608V159.392ZM320.424 158.688V161.952H328.424V158.688H320.424ZM325.672 163.472V166.112C325.672 166.272 325.624 166.32 325.464 166.32C325.288 166.336 324.712 166.336 324.152 166.32C324.28 166.544 324.424 166.848 324.488 167.136C325.416 167.136 326.04 167.136 326.424 167.008C326.84 166.88 326.952 166.704 326.952 166.16V163.472H325.672ZM319.928 162.64L319.976 163.52C322.04 163.488 324.968 163.408 327.8 163.312L327.832 162.576C324.904 162.624 321.896 162.656 319.928 162.64ZM326.376 162.352C326.984 162.8 327.72 163.52 328.088 164L328.904 163.376C328.552 162.928 327.816 162.272 327.176 161.824L326.376 162.352ZM323.736 156.56V162.992L325 162.928V156.56H323.736ZM317.848 155.152V169.36H319.24V156.32H329.608V169.296H331.048V155.152H317.848ZM318.536 167.36V168.544H330.2V167.36H318.536ZM346.888 159.104C345.976 159.888 344.456 160.944 343.368 161.52L344.136 162.4C345.256 161.824 346.728 160.944 347.848 160.096L346.888 159.104ZM339.816 155.28C340.536 155.888 341.336 156.784 341.688 157.376L342.872 156.56C342.488 155.968 341.688 155.152 340.936 154.576L339.816 155.28ZM338.632 157.12V158.448H348.04V157.12H338.632ZM342.792 160.928C341.928 161.76 340.184 162.736 338.904 163.216C339.192 163.472 339.544 163.968 339.736 164.304C341.032 163.648 342.808 162.496 343.752 161.568L342.792 160.928ZM343.528 163.088C342.44 164.304 340.184 165.6 338.328 166.144C338.664 166.432 339.016 166.896 339.224 167.232C341.064 166.512 343.336 165.088 344.52 163.76L343.528 163.088ZM345.32 154.512C344.936 155.328 344.248 156.464 343.672 157.168L344.904 157.584C345.464 156.928 346.184 155.904 346.776 154.96L345.32 154.512ZM333.976 155.184V169.36H335.32V156.544H337.752V155.184H333.976ZM337.288 155.184V155.616C337 156.672 336.44 158.72 335.928 160.176C336.968 161.344 337.224 162.384 337.224 163.2C337.224 163.664 337.144 164.048 336.92 164.208C336.792 164.304 336.632 164.352 336.44 164.352C336.216 164.368 335.944 164.352 335.608 164.336C335.832 164.704 335.944 165.28 335.96 165.648C336.328 165.664 336.712 165.648 337.032 165.616C337.368 165.568 337.656 165.472 337.896 165.312C338.376 164.976 338.568 164.304 338.568 163.36C338.568 162.4 338.328 161.296 337.24 160C337.736 158.736 338.312 157.056 338.744 155.712L337.768 155.136L337.544 155.184H337.288ZM342.728 157.584C341.736 158.816 339.96 159.92 338.264 160.592C338.552 160.832 338.984 161.392 339.16 161.664C340.872 160.848 342.808 159.52 343.976 158.064L342.728 157.584ZM345.784 161.36L344.632 161.76C345.256 163.728 346.376 165.904 347.464 167.12C347.688 166.8 348.136 166.352 348.44 166.128C347.4 165.088 346.328 163.152 345.784 161.36ZM341.448 159.344C344.088 162.016 343.88 166.56 342.984 167.424C342.728 167.76 342.472 167.824 342.088 167.824C341.752 167.824 341.224 167.808 340.696 167.744C340.936 168.144 341.048 168.72 341.064 169.104C341.512 169.136 342.04 169.152 342.344 169.152C343.096 169.136 343.592 168.96 344.072 168.432C345.448 167.184 345.56 161.744 342.536 158.752L341.448 159.344ZM42.264 191.992V193.304H53.144V191.992H42.264ZM40.152 186.184V187.56H50.68V186.184H40.152ZM44.76 189.096V190.408H52.056V189.096H44.76ZM52.536 191.992V192.216C52.296 195.288 52.008 196.52 51.656 196.872C51.496 197.016 51.336 197.032 51.064 197.032C50.744 197.048 50.024 197.032 49.256 196.952C49.496 197.336 49.672 197.928 49.688 198.344C50.52 198.376 51.304 198.376 51.72 198.344C52.232 198.296 52.568 198.168 52.904 197.816C53.416 197.288 53.704 195.928 53.992 192.6C54.024 192.408 54.04 191.992 54.04 191.992H52.536ZM49.048 194.04C49.48 194.712 49.944 195.64 50.12 196.216L51.224 195.784C51.048 195.208 50.568 194.312 50.088 193.656L49.048 194.04ZM42.056 184.056C42.648 184.728 43.304 185.656 43.576 186.264L45 185.656C44.68 185.048 43.992 184.152 43.4 183.528L42.056 184.056ZM44.264 194.44C44.536 195.496 44.696 196.84 44.648 197.704L45.96 197.528C45.96 196.648 45.8 195.32 45.496 194.296L44.264 194.44ZM46.648 194.312C47.016 195.208 47.384 196.392 47.48 197.16L48.728 196.84C48.6 196.072 48.216 194.92 47.816 194.04L46.648 194.312ZM42.168 194.008C41.88 195.256 41.288 196.616 40.44 197.448L41.608 198.28C42.568 197.288 43.096 195.784 43.448 194.424L42.168 194.008ZM46.936 183.48C45.784 187.592 43.384 191.672 39.368 193.832C39.624 194.168 40.008 194.76 40.184 195.128C44.552 192.648 47.048 188.392 48.488 183.864L46.936 183.48ZM50.36 186.184C50.184 187.224 49.912 188.536 49.672 189.384L51 189.592C51.256 188.696 51.544 187.336 51.768 186.184H50.36ZM51.496 189.096C51.336 190.136 51.064 191.432 50.808 192.312L52.152 192.472C52.408 191.592 52.68 190.232 52.904 189.096H51.496ZM62.696 183.512C62.184 184.968 61.288 186.392 60.232 187.304C60.552 187.512 61.112 187.992 61.352 188.248C62.456 187.192 63.48 185.56 64.088 183.848L62.696 183.512ZM62.664 187.976C62.232 189.032 61.48 190.104 60.648 190.808C60.968 191.016 61.528 191.448 61.768 191.704C62.632 190.888 63.512 189.608 64.04 188.36L62.664 187.976ZM62.712 184.92L62.184 186.216H69.4V184.92H62.712ZM67.16 188.52C67.912 189.496 68.728 190.856 69.08 191.72L70.36 191.048C69.992 190.184 69.176 188.904 68.376 187.944L67.16 188.52ZM69 184.92V185.112C68.728 185.944 68.296 186.984 67.944 187.624L69.24 187.896C69.624 187.192 70.12 186.088 70.52 185.112L69.464 184.872L69.224 184.92H69ZM59.592 183.448C58.712 185.176 57.272 186.904 55.8 187.992C56.088 188.28 56.568 188.904 56.744 189.192C58.296 187.912 59.912 185.912 60.936 183.896L59.592 183.448ZM58.12 186.648V192.76H59.576V185.24L59.544 185.224L58.12 186.648ZM59.448 193.528V196.152C59.448 197.64 59.976 198.056 62.04 198.056C62.472 198.056 65.128 198.056 65.56 198.056C67.256 198.056 67.72 197.544 67.912 195.416C67.496 195.336 66.856 195.112 66.52 194.856C66.44 196.456 66.296 196.664 65.464 196.664C64.84 196.664 62.616 196.664 62.152 196.664C61.144 196.664 60.968 196.6 60.968 196.12V193.528H59.448ZM61.928 192.904C62.76 193.736 63.704 194.92 64.088 195.704L65.352 194.952C64.92 194.168 63.944 193.032 63.08 192.248L61.928 192.904ZM67.448 193.768C68.168 194.936 68.872 196.488 69.096 197.48L70.536 196.904C70.28 195.896 69.528 194.392 68.792 193.24L67.448 193.768ZM57.56 193.544C57.208 194.648 56.6 196.088 55.976 197.032L57.4 197.704C57.96 196.712 58.52 195.208 58.92 194.104L57.56 193.544ZM65.016 186.728V192.696H66.472V186.728H65.016ZM74.68 189.48V190.952H83.624V189.48H74.68ZM83.112 189.48V189.752C82.936 194.376 82.728 196.184 82.312 196.616C82.152 196.792 81.96 196.824 81.656 196.824C81.272 196.824 80.344 196.808 79.368 196.728C79.64 197.16 79.832 197.8 79.864 198.248C80.84 198.296 81.816 198.312 82.36 198.248C82.936 198.184 83.336 198.056 83.688 197.592C84.248 196.952 84.472 195.08 84.68 190.168C84.696 189.96 84.696 189.48 84.696 189.48H83.112ZM77.832 189.896C77.544 192.84 77.016 195.688 72.776 197.08C73.128 197.416 73.576 198.04 73.752 198.44C78.36 196.76 79.128 193.448 79.464 189.896H77.832ZM76.152 184.04C75.4 186.504 73.944 188.648 72.072 189.96C72.44 190.216 73.08 190.776 73.352 191.08C75.224 189.576 76.84 187.192 77.736 184.424L76.152 184.04ZM78.824 183.768V185.176H82.392V183.768H78.824ZM80.952 183.768V184.584H81.304C82.184 187.112 83.912 189.624 86.168 191.048C86.408 190.632 86.92 189.992 87.24 189.672C85.112 188.52 83.416 186.216 82.632 183.768H80.952ZM96.344 188.952V190.376H103.336V188.952H96.344ZM101.16 183.672C99.848 184.296 97.624 184.888 95.624 185.272C95.816 185.592 96.04 186.152 96.12 186.504C98.232 186.152 100.696 185.592 102.456 184.856L101.16 183.672ZM99.624 189.4V198.344H101.128V189.4H99.624ZM88.824 186.872V188.312H94.872V186.872H88.824ZM91.112 183.496V198.344H92.568V183.496H91.112ZM91.064 187.816C90.616 190.008 89.512 192.648 88.376 194.072C88.632 194.44 88.984 195.048 89.128 195.464C90.36 193.832 91.464 190.712 91.992 188.136L91.064 187.816ZM92.408 188.84L91.672 189.544C92.2 190.296 93.4 192.232 93.832 193.16L94.76 191.96C94.408 191.448 92.824 189.32 92.408 188.84ZM95.624 185.272V190.12C95.624 192.376 95.48 195.416 94.024 197.56C94.376 197.688 95.016 198.088 95.272 198.312C96.808 196.056 97.064 192.568 97.064 190.12V185.272H95.624ZM106.52 187.592V188.728H111.064V187.592H106.52ZM106.52 190.264V191.368H111.064V190.264H106.52ZM106.52 193V194.152H111.064V193H106.52ZM113.384 191.08V192.376H119.448V191.08H113.384ZM107.336 184.952V186.12H109.928V184.952H107.336ZM112.28 184.312V185.576H118.408V184.312H112.28ZM112.168 194.104V195.432H119.736V194.104H112.168ZM115.384 189.528V198.296H116.824V189.528H115.384ZM108.392 188.168V193.448H109.432V188.168H108.392ZM117.96 184.312V184.504C117.864 186.936 117.752 187.832 117.56 188.056C117.448 188.2 117.32 188.216 117.112 188.216C116.888 188.216 116.376 188.2 115.784 188.152C115.976 188.488 116.104 189 116.136 189.384C116.792 189.416 117.448 189.416 117.784 189.368C118.184 189.336 118.472 189.208 118.696 188.92C119.048 188.52 119.192 187.464 119.288 184.84C119.304 184.664 119.32 184.312 119.32 184.312H117.96ZM113.272 189.656C113.032 190.984 112.568 192.312 111.896 193.192C112.216 193.336 112.792 193.624 113.048 193.8C113.688 192.856 114.232 191.384 114.552 189.912L113.272 189.656ZM107.144 183.48C106.68 185.432 105.816 187.32 104.696 188.536C105 188.728 105.576 189.192 105.8 189.432C106.952 188.072 107.928 185.976 108.52 183.784L107.144 183.48ZM105.944 187.592V191.832C105.944 193.64 105.848 196.024 104.76 197.704C105.048 197.832 105.608 198.184 105.832 198.376C106.984 196.6 107.176 193.832 107.176 191.832V187.592H105.944ZM110.648 187.592V196.792C110.648 197 110.568 197.064 110.36 197.064C110.152 197.08 109.464 197.08 108.728 197.048C108.904 197.4 109.128 197.976 109.176 198.328C110.232 198.328 110.888 198.312 111.336 198.088C111.768 197.864 111.912 197.464 111.912 196.808V187.592H110.648ZM114.408 184.728C114.2 186.504 113.736 187.992 111.784 188.808C112.088 189.032 112.44 189.512 112.6 189.832C114.904 188.808 115.528 187 115.768 184.728H114.408ZM109.56 184.952V185.192C109.352 185.976 108.92 187.144 108.536 187.864C108.808 187.992 109.24 188.248 109.496 188.44C109.976 187.672 110.584 186.456 110.936 185.448L110.056 184.888L109.864 184.952H109.56ZM125.352 190.856V192.12H131.912V190.856H125.352ZM124.744 196.456V197.784H132.504V196.456H124.744ZM123.912 193.224V198.36H125.352V194.52H131.832V198.296H133.336V193.224H123.912ZM128.344 187.272C126.968 189.144 124.184 190.76 121.144 191.736C121.448 192.008 121.912 192.616 122.104 192.968C125.272 191.832 128.04 190.12 129.704 187.848L128.344 187.272ZM128.952 187.944L128.04 188.776C129.512 190.056 132.536 191.848 135.16 192.744C135.4 192.36 135.88 191.736 136.232 191.416C133.544 190.664 130.376 189.128 128.952 187.944ZM123.464 184.728V186.056H128.52V184.728H123.464ZM129.816 184.728V186.056H135.848V184.728H129.816ZM123.608 183.4C123.096 184.76 122.168 186.12 121.16 186.984C121.464 187.288 121.976 187.976 122.168 188.28C123.304 187.208 124.424 185.512 125.096 183.832L123.608 183.4ZM130.008 183.4C129.64 184.6 128.952 185.752 128.104 186.52C128.456 186.776 129.048 187.336 129.304 187.624C130.216 186.712 131.048 185.256 131.528 183.8L130.008 183.4ZM124.184 186.904C124.728 187.448 125.4 188.2 125.688 188.696L126.792 187.768C126.472 187.288 125.8 186.568 125.24 186.072L124.184 186.904ZM131.064 186.824C131.64 187.352 132.312 188.104 132.616 188.6L133.704 187.672C133.368 187.192 132.664 186.488 132.088 185.992L131.064 186.824ZM144.968 188.504C143.624 188.504 142.52 189.592 142.52 190.936C142.52 192.296 143.624 193.384 144.968 193.384C146.312 193.384 147.4 192.296 147.4 190.936C147.4 189.592 146.312 188.504 144.968 188.504ZM144.968 192.568C144.072 192.568 143.336 191.848 143.336 190.936C143.336 190.056 144.072 189.32 144.968 189.32C145.864 189.32 146.584 190.056 146.584 190.936C146.584 191.848 145.864 192.568 144.968 192.568Z" fill="#575757"/>
<line x1="27" y1="65" x2="368" y2="65" stroke="#FF715C" stroke-width="2"/>
<path d="M273.908 214.583L233.95 253.331L217.603 306.608C161.298 287.235 171.591 220.032 210.338 202.475C241.336 188.429 265.634 204.695 273.908 214.583Z" fill="#FF715C"/>
<path d="M221.236 308.425L236.372 256.963H290.86C285.048 308.788 242.022 312.864 221.236 308.425Z" fill="#FFC43D"/>
<path d="M236.977 253.331L278.752 216.4C288.439 225.602 292.071 244.047 292.677 252.12L236.977 253.331Z" fill="#74CADD"/>
<rect x="222.013" y="274.984" width="139.993" height="102.095" rx="7.31116" fill="white" stroke="#002B51" stroke-width="0.769595"/>
<rect x="225.839" y="279.412" width="140.161" height="102.865" rx="7.69595" fill="#002B51"/>
<rect x="223.062" y="275.649" width="138.151" height="100.614" rx="6.54156" fill="white" stroke="#002B51" stroke-width="2.30879"/>
<line x1="236.438" y1="359.311" x2="346.626" y2="359.311" stroke="#D7D7D7" stroke-width="2.30879"/>
<rect x="255.812" y="315.664" width="15.7411" height="41.1691" rx="1.53919" fill="#FFC43D"/>
<rect x="277.607" y="293.868" width="15.7411" height="62.9645" rx="1.53919" fill="#74CADD"/>
<rect x="299.403" y="304.766" width="15.7411" height="52.0668" rx="1.53919" fill="#FF715C"/>
<path d="M90.7803 381.198C57.6457 386.653 42.8773 352.913 66.7375 333.719L94.0129 366.336L90.7803 381.198Z" fill="#74CADD"/>
<rect x="88.3558" y="367.864" width="27.0734" height="89.7059" fill="#74CADD"/>
<circle r="60.8141" transform="matrix(-1 0 0 1 119.268 327.658)" fill="#74CADD"/>
<path d="M136.037 303.615C136.037 302.276 137.123 301.19 138.462 301.19V301.19C139.801 301.19 140.886 302.276 140.886 303.615V309.676C140.886 311.015 139.801 312.101 138.462 312.101V312.101C137.123 312.101 136.037 311.015 136.037 309.676V303.615Z" fill="#002B51"/>
<path d="M104.115 303.615C104.115 302.499 105.02 301.594 106.135 301.594V301.594C107.251 301.594 108.156 302.499 108.156 303.615V310.08C108.156 311.196 107.251 312.101 106.135 312.101V312.101C105.02 312.101 104.115 311.196 104.115 310.08V303.615Z" fill="#002B51"/>
<path d="M101.286 298.362C103.365 295.342 108.144 292.927 112.197 298.362" stroke="#002B51" stroke-width="3.07838" stroke-linecap="round"/>
<path d="M131.996 290.356C134.94 288.777 141.773 289.022 144.927 293.513" stroke="#002B51" stroke-width="3.07838" stroke-linecap="round"/>
<path d="M88.3558 381.198C92.8007 381.198 98.8619 381.198 105.125 378.774" stroke="#002B51" stroke-width="3.07838"/>
<path d="M88.3527 350.892L86.7396 355.034" stroke="#002B51" stroke-width="3.07838"/>
<path d="M131.511 332.709C127.274 322.666 115.402 325 109.996 327.423C108.936 326.366 107.789 320.816 107.348 318.173C122.441 311.566 134.379 315.42 138.462 318.173V321.146C138.131 322.908 137.336 326.894 136.807 328.744C136.277 330.594 133.055 332.158 131.511 332.709Z" fill="#002B51"/>
<path d="M137.39 317.432C127.904 312.338 115.218 314.995 108.75 317.433C107.889 317.757 107.34 318.594 107.439 319.509C108.032 325.008 111.753 337.137 125.173 335.361C136.239 333.897 138.622 324.554 138.454 319.131C138.431 318.414 138.022 317.772 137.39 317.432Z" stroke="#002B51" stroke-width="2.30879"/>
<path d="M179.674 332.709L163.919 306.022C167.006 303.193 200.787 281.265 217.292 270.655C221.793 261.009 224.044 257.794 227.581 258.437C230.41 258.951 230.26 262.724 229.831 264.546H244.621C246.229 264.439 249.508 264.932 249.766 267.761C250.023 270.59 247.944 271.726 246.872 271.941C250.73 271.426 251.695 273.87 251.695 275.156C251.952 278.243 247.729 279.872 245.586 280.3C247.837 280.864 247.408 283.222 246.872 283.758C244.557 288.131 235.619 290.268 231.439 291.232L179.674 332.709Z" fill="#74CADD"/>
<path d="M247.194 271.54L236.262 272.505" stroke="#002B51" stroke-width="3.07838" stroke-linecap="round"/>
<path d="M245.264 280.221L238.512 281.186" stroke="#002B51" stroke-width="3.07838" stroke-linecap="round"/>
<path d="M84.7192 354.988C93.6178 355.398 123.059 352.529 134.623 354.988" stroke="#002B51" stroke-width="3.07838"/>
<path d="M102.24 373.053L145.999 343.297H200.261V474.282L204.928 476.616V494.119L202.011 497.912H75.9851L72.1926 494.119V474.282L75.1099 471.365V449.193H102.24V373.053Z" fill="#E4D6BC"/>
<path d="M142.79 349.423L141.04 471.073L136.664 472.823V494.119" stroke="#002B51" stroke-width="3.07838" stroke-linecap="round"/>
<path d="M76.8604 471.073H131.413" stroke="#002B51" stroke-width="3.07838" stroke-linecap="round"/>
<path d="M146.291 472.24H197.635" stroke="#002B51" stroke-width="3.07838" stroke-linecap="round"/>
<rect x="160.083" y="378.676" width="21.4266" height="73.3539" stroke="#002B51" stroke-width="3.07838"/>
<path d="M169.172 319.778C175.252 319.778 186.405 320.182 187.113 328.476C187.706 335.421 187.013 341.362 187.113 343.215" stroke="#002B51" stroke-width="3.07838"/>
<rect x="156.646" y="323.919" width="9.80601" height="13.3432" rx="4.90301" transform="rotate(-87.7672 156.646 323.919)" fill="#002B51"/>
</svg>
