<svg width="1000" height="391" viewBox="0 0 1000 391" fill="none" xmlns="http://www.w3.org/2000/svg">
<path d="M57.304 141H59.824V132.288C59.824 130.68 59.608 128.424 59.464 126.816H59.56L60.976 130.896L64.048 139.32H65.776L68.848 130.896L70.288 126.816H70.384C70.24 128.424 70.024 130.68 70.024 132.288V141H72.592V123.336H69.376L66.184 132.288C65.8 133.44 65.464 134.64 65.032 135.84H64.936C64.528 134.64 64.168 133.44 63.736 132.288L60.52 123.336H57.304V141ZM82.2899 141.336C85.5539 141.336 88.5059 138.792 88.5059 134.424C88.5059 130.008 85.5539 127.464 82.2899 127.464C79.0019 127.464 76.0739 130.008 76.0739 134.424C76.0739 138.792 79.0019 141.336 82.2899 141.336ZM82.2899 139.056C80.2019 139.056 78.9299 137.208 78.9299 134.424C78.9299 131.616 80.2019 129.768 82.2899 129.768C84.3539 129.768 85.6739 131.616 85.6739 134.424C85.6739 137.208 84.3539 139.056 82.2899 139.056ZM97.0555 141.336C100.32 141.336 103.272 138.792 103.272 134.424C103.272 130.008 100.32 127.464 97.0555 127.464C93.7675 127.464 90.8395 130.008 90.8395 134.424C90.8395 138.792 93.7675 141.336 97.0555 141.336ZM97.0555 139.056C94.9675 139.056 93.6955 137.208 93.6955 134.424C93.6955 131.616 94.9675 129.768 97.0555 129.768C99.1195 129.768 100.44 131.616 100.44 134.424C100.44 137.208 99.1195 139.056 97.0555 139.056ZM111.077 141.336C112.565 141.336 113.933 140.544 114.941 139.536H115.013L115.229 141H117.509V121.896H114.725V126.768L114.845 128.952C113.789 128.04 112.805 127.464 111.293 127.464C108.365 127.464 105.653 130.128 105.653 134.424C105.653 138.792 107.765 141.336 111.077 141.336ZM111.749 139.032C109.685 139.032 108.509 137.376 108.509 134.376C108.509 131.544 109.997 129.768 111.845 129.768C112.829 129.768 113.765 130.104 114.725 130.992V137.424C113.789 138.528 112.829 139.032 111.749 139.032ZM121.634 141H124.418V127.8H121.634V141ZM123.026 125.328C124.034 125.328 124.754 124.68 124.754 123.672C124.754 122.688 124.034 122.04 123.026 122.04C121.994 122.04 121.322 122.688 121.322 123.672C121.322 124.68 121.994 125.328 123.026 125.328ZM128.548 141H131.332V131.64C132.484 130.488 133.324 129.864 134.548 129.864C136.084 129.864 136.756 130.752 136.756 133.056V141H139.54V132.696C139.54 129.36 138.292 127.464 135.484 127.464C133.684 127.464 132.316 128.448 131.116 129.648H131.044L130.804 127.8H128.548V141ZM148.061 146.928C152.285 146.928 154.973 144.864 154.973 142.32C154.973 140.064 153.341 139.104 150.221 139.104H147.773C146.117 139.104 145.565 138.6 145.565 137.832C145.565 137.184 145.877 136.8 146.285 136.44C146.885 136.704 147.557 136.824 148.133 136.824C150.917 136.824 153.101 135.192 153.101 132.288C153.101 131.28 152.741 130.416 152.237 129.888H154.733V127.8H150.077C149.573 127.608 148.901 127.464 148.133 127.464C145.421 127.464 143.021 129.216 143.021 132.216C143.021 133.776 143.885 135.048 144.773 135.72V135.816C144.029 136.344 143.309 137.232 143.309 138.264C143.309 139.344 143.813 140.04 144.509 140.472V140.592C143.285 141.312 142.589 142.344 142.589 143.472C142.589 145.752 144.893 146.928 148.061 146.928ZM148.133 135.048C146.789 135.048 145.661 133.968 145.661 132.216C145.661 130.44 146.765 129.432 148.133 129.432C149.525 129.432 150.629 130.44 150.629 132.216C150.629 133.968 149.501 135.048 148.133 135.048ZM148.469 145.104C146.285 145.104 144.941 144.336 144.941 143.064C144.941 142.392 145.277 141.72 146.069 141.12C146.621 141.264 147.197 141.312 147.821 141.312H149.813C151.421 141.312 152.285 141.672 152.285 142.776C152.285 143.976 150.773 145.104 148.469 145.104ZM158.6 124.632V126.624H163.856V138.504H158.6V140.52H165.92V124.632H158.6ZM157.256 124.632V142.368H159.344V124.632H157.256ZM158.48 131.184V133.176H164.888V131.184H158.48ZM160.832 120.72C160.664 121.992 160.256 123.816 159.872 125.016L161.696 125.448C162.176 124.344 162.776 122.664 163.28 121.104L160.832 120.72ZM169.232 124.512V126.6H176.456V124.512H169.232ZM175.664 124.512V124.968C175.376 135.288 175.016 139.344 174.224 140.184C173.96 140.52 173.672 140.592 173.192 140.592C172.616 140.592 171.176 140.568 169.616 140.448C170.024 141.048 170.312 142.008 170.36 142.656C171.728 142.704 173.168 142.752 174.032 142.656C174.944 142.536 175.544 142.296 176.12 141.504C177.104 140.28 177.416 136.512 177.752 125.592C177.776 125.304 177.776 124.512 177.776 124.512H175.664ZM169.544 120.696C168.776 123.96 167.456 127.248 165.824 129.336C166.352 129.624 167.288 130.272 167.696 130.632C169.328 128.352 170.816 124.776 171.728 121.2L169.544 120.696ZM168.416 131.04C169.664 132.792 171.224 135.168 171.92 136.632L173.864 135.456C173.096 134.04 171.464 131.712 170.192 130.032L168.416 131.04ZM187.136 123.288V125.352H202.496V123.288H187.136ZM189.848 129.288H199.592V132.36H189.848V129.288ZM187.76 127.416V134.256H201.776V127.416H187.76ZM189.584 134.64L187.712 135.216C190.304 139.68 195.008 142.152 201.44 143.04C201.728 142.416 202.304 141.504 202.784 141C196.544 140.376 191.792 138.264 189.584 134.64ZM193.544 120.864V131.616C193.544 135.624 193.04 139.536 186.2 141.192C186.68 141.672 187.328 142.56 187.592 143.064C194.792 140.928 195.776 136.392 195.776 131.64V120.864H193.544ZM185.768 120.696C184.4 124.248 182.096 127.752 179.744 129.984C180.128 130.512 180.752 131.736 180.968 132.264C183.656 129.576 186.248 125.424 187.88 121.368L185.768 120.696ZM183.32 127.152V143.112H185.48V125.016L185.456 124.992L183.32 127.152ZM210.272 127.032V129.096H220.184V127.032H210.272ZM207.224 130.824V132.816H211.688V137.256H207.224V139.248H213.848V130.824H207.224ZM216.08 130.824V143.064H218.312V132.864H223.088V130.824H216.08ZM222.344 130.824V137.496C222.344 137.784 222.248 137.856 221.936 137.88C221.624 137.88 220.544 137.88 219.368 137.856C219.632 138.456 219.92 139.32 219.992 139.944C221.72 139.944 222.848 139.944 223.592 139.584C224.36 139.224 224.552 138.624 224.552 137.52V130.824H222.344ZM206.216 130.824V141.24H208.304V130.824H206.216ZM215.456 120.408C213.176 123.528 208.496 126.456 203.984 127.584C204.488 128.184 205.016 129.12 205.304 129.768C209.864 128.304 214.688 125.136 217.256 121.728L215.456 120.408ZM216.44 121.872L214.52 122.664C216.896 125.784 220.928 128.448 225.008 129.672C225.392 129 226.088 128.016 226.664 127.488C222.632 126.576 218.528 124.32 216.44 121.872Z" fill="#002B51"/>
<path d="M57.6053 191.886H59.2853V186.078C59.2853 185.006 59.1413 183.502 59.0453 182.43H59.1093L60.0533 185.15L62.1013 190.766H63.2533L65.3013 185.15L66.2613 182.43H66.3253C66.2293 183.502 66.0853 185.006 66.0853 186.078V191.886H67.7973V180.11H65.6533L63.5253 186.078C63.2693 186.846 63.0453 187.646 62.7573 188.446H62.6933C62.4213 187.646 62.1813 186.846 61.8933 186.078L59.7493 180.11H57.6053V191.886ZM74.5826 192.11C76.7586 192.11 78.7266 190.414 78.7266 187.502C78.7266 184.558 76.7586 182.862 74.5826 182.862C72.3906 182.862 70.4386 184.558 70.4386 187.502C70.4386 190.414 72.3906 192.11 74.5826 192.11ZM74.5826 190.59C73.1906 190.59 72.3426 189.358 72.3426 187.502C72.3426 185.63 73.1906 184.398 74.5826 184.398C75.9586 184.398 76.8386 185.63 76.8386 187.502C76.8386 189.358 75.9586 190.59 74.5826 190.59ZM84.7463 192.11C86.9223 192.11 88.8903 190.414 88.8903 187.502C88.8903 184.558 86.9223 182.862 84.7463 182.862C82.5543 182.862 80.6023 184.558 80.6023 187.502C80.6023 190.414 82.5543 192.11 84.7463 192.11ZM84.7463 190.59C83.3543 190.59 82.5063 189.358 82.5063 187.502C82.5063 185.63 83.3543 184.398 84.7463 184.398C86.1223 184.398 87.0023 185.63 87.0023 187.502C87.0023 189.358 86.1223 190.59 84.7463 190.59ZM94.4141 192.11C95.4061 192.11 96.3181 191.582 96.9901 190.91H97.0381L97.1821 191.886H98.7021V179.15H96.8461V182.398L96.9261 183.854C96.2221 183.246 95.5661 182.862 94.5581 182.862C92.6061 182.862 90.7981 184.638 90.7981 187.502C90.7981 190.414 92.2061 192.11 94.4141 192.11ZM94.8621 190.574C93.4861 190.574 92.7021 189.47 92.7021 187.47C92.7021 185.582 93.6941 184.398 94.9261 184.398C95.5821 184.398 96.2061 184.622 96.8461 185.214V189.502C96.2221 190.238 95.5821 190.574 94.8621 190.574ZM101.772 191.886H103.628V183.086H101.772V191.886ZM102.7 181.438C103.372 181.438 103.852 181.006 103.852 180.334C103.852 179.678 103.372 179.246 102.7 179.246C102.012 179.246 101.564 179.678 101.564 180.334C101.564 181.006 102.012 181.438 102.7 181.438ZM106.702 191.886H108.558V185.646C109.326 184.878 109.886 184.462 110.702 184.462C111.726 184.462 112.174 185.054 112.174 186.59V191.886H114.03V186.35C114.03 184.126 113.198 182.862 111.326 182.862C110.126 182.862 109.214 183.518 108.414 184.318H108.366L108.206 183.086H106.702V191.886ZM120.03 195.838C122.846 195.838 124.638 194.462 124.638 192.766C124.638 191.262 123.55 190.622 121.47 190.622H119.838C118.734 190.622 118.366 190.286 118.366 189.774C118.366 189.342 118.574 189.086 118.846 188.846C119.246 189.022 119.694 189.102 120.078 189.102C121.934 189.102 123.39 188.014 123.39 186.078C123.39 185.406 123.15 184.83 122.814 184.478H124.478V183.086H121.374C121.038 182.958 120.59 182.862 120.078 182.862C118.27 182.862 116.67 184.03 116.67 186.03C116.67 187.07 117.246 187.918 117.838 188.366V188.43C117.342 188.782 116.862 189.374 116.862 190.062C116.862 190.782 117.198 191.246 117.662 191.534V191.614C116.846 192.094 116.382 192.782 116.382 193.534C116.382 195.054 117.918 195.838 120.03 195.838ZM120.078 187.918C119.182 187.918 118.43 187.198 118.43 186.03C118.43 184.846 119.166 184.174 120.078 184.174C121.006 184.174 121.742 184.846 121.742 186.03C121.742 187.198 120.99 187.918 120.078 187.918ZM120.302 194.622C118.846 194.622 117.95 194.11 117.95 193.262C117.95 192.814 118.174 192.366 118.702 191.966C119.07 192.062 119.454 192.094 119.87 192.094H121.198C122.27 192.094 122.846 192.334 122.846 193.07C122.846 193.87 121.838 194.622 120.302 194.622ZM126.128 185.342V186.686H140.288V185.342H126.128ZM133.264 188.222V189.534H139.248V188.222H133.264ZM132.576 185.998V191.998H134.112V185.998H132.576ZM129.728 188.574L128.48 189.006C129.76 192.286 131.936 192.958 135.664 192.958H140.128C140.208 192.51 140.448 191.838 140.672 191.502C139.696 191.534 136.464 191.534 135.728 191.534C132.736 191.518 130.656 191.07 129.728 188.574ZM128.736 187.134C128.336 189.39 127.328 191.15 125.664 192.206C126 192.43 126.592 192.99 126.816 193.262C128.576 191.998 129.728 189.998 130.24 187.342L128.736 187.134ZM129.184 182.222H137.088V183.31H129.184V182.222ZM129.184 180.11H137.088V181.182H129.184V180.11ZM127.728 178.99V184.414H138.624V178.99H127.728ZM143.984 186.126V187.614H154.992V186.126H143.984ZM143.984 190.814V192.302H154.96V190.814H143.984ZM143.248 181.47V193.246H144.752V182.99H154.24V193.198H155.824V181.47H143.248ZM148.672 178.398V191.598H150.224V178.398H148.672ZM158.496 184.83V186.478H173.216V184.83H158.496ZM182.608 181.486V182.862H189.28V181.486H182.608ZM182.816 184.718V186.126H188.992V184.718H182.816ZM182.24 188.158V189.582H189.632V188.158H182.24ZM182.736 178.91C183.216 179.742 183.648 180.846 183.776 181.582L185.072 181.102C184.912 180.366 184.464 179.294 183.936 178.494L182.736 178.91ZM187.568 178.366C187.344 179.214 186.864 180.398 186.496 181.15L187.744 181.47C188.128 180.766 188.592 179.694 189.024 178.718L187.568 178.366ZM185.136 182.174V193.246H186.592V182.174H185.136ZM174.768 181.806V183.086H182.432V181.806H174.768ZM175.616 179.166V180.446H180.16V184.43H175.536V185.71H181.552V179.166H175.616ZM176.432 187.182V193.246H177.808V187.182H176.432ZM176.992 187.182V188.494H180.336V191.102H176.992V192.414H181.808V187.182H176.992ZM177.408 179.646C177.2 183.806 176.608 187.214 174.544 189.182C174.848 189.454 175.36 190.062 175.536 190.366C177.84 188.03 178.56 184.398 178.848 179.71L177.408 179.646ZM195.184 182.91V190.622C195.184 192.414 195.728 192.942 197.616 192.942C198 192.942 200.192 192.942 200.608 192.942C202.48 192.942 202.928 192.014 203.12 188.974C202.704 188.862 202.048 188.59 201.68 188.318C201.568 190.974 201.424 191.518 200.512 191.518C200.016 191.518 198.176 191.518 197.776 191.518C196.928 191.518 196.768 191.39 196.768 190.622V182.91H195.184ZM192.48 183.982C192.272 185.998 191.76 188.462 191.12 190.126L192.656 190.766C193.264 188.99 193.712 186.254 193.952 184.27L192.48 183.982ZM202.48 184.094C203.36 185.982 204.208 188.526 204.496 190.158L206.016 189.55C205.68 187.886 204.816 185.438 203.888 183.534L202.48 184.094ZM195.856 179.822C197.36 180.862 199.296 182.43 200.176 183.422L201.28 182.254C200.336 181.262 198.368 179.79 196.88 178.814L195.856 179.822ZM214.672 183.342H220.128V185.102H214.672V183.342ZM214.672 180.398H220.128V182.126H214.672V180.398ZM213.296 179.102V186.398H221.584V179.102H213.296ZM213.136 188.062V189.438H221.776V188.062H213.136ZM211.952 191.342V192.718H222.32V191.342H211.952ZM207.456 179.39V180.814H212.592V179.39H207.456ZM207.616 184.014V185.422H212.336V184.014H207.616ZM207.28 190.126L207.632 191.662C209.104 191.182 210.976 190.558 212.736 189.966L212.464 188.51C210.592 189.134 208.608 189.758 207.28 190.126ZM209.344 179.95V190.094L210.8 189.838V179.95H209.344ZM216.768 179.678V185.774H216.64V191.982H218.192V185.774H218.064V179.678H216.768ZM224.912 180.782V182.062H227.936V184.11H224.912V185.406H229.28V180.782H224.912ZM224.96 186.686V187.982H228.08V190.382H224.96V191.662H229.44V186.686H224.96ZM224.336 180.782V192.718H225.696V180.782H224.336ZM229.824 179.182V180.558H238.448V179.182H229.824ZM226.272 178.366C226.144 179.198 225.84 180.35 225.568 181.134L226.768 181.374C227.136 180.654 227.584 179.55 227.936 178.574L226.272 178.366ZM233.408 179.806V193.214H234.832V179.806H233.408ZM230.4 182.302V190.798H231.792V183.662H237.312V182.302H230.4ZM236.592 182.302V189.326C236.592 189.486 236.544 189.534 236.384 189.534C236.24 189.55 235.776 189.55 235.264 189.534C235.456 189.902 235.632 190.462 235.68 190.846C236.512 190.846 237.072 190.83 237.488 190.59C237.904 190.366 238 189.982 238 189.342V182.302H236.592ZM241.216 183.47V193.198H242.656V184.718H253.088V183.47H241.216ZM252.32 183.47V191.71C252.32 191.934 252.224 192.014 251.952 192.014C251.712 192.03 250.784 192.046 249.888 192.014C250.064 192.334 250.256 192.814 250.32 193.15C251.648 193.15 252.496 193.134 253.008 192.958C253.536 192.766 253.712 192.43 253.712 191.71V183.47H252.32ZM245.168 187.438V188.526H249.168V190.142H245.168V191.214H250.416V187.438H245.168ZM244.368 187.438V191.934H245.648V187.438H244.368ZM240.368 180.03V181.326H254.528V180.03H240.368ZM243.744 181.678C244.08 182.27 244.48 183.07 244.672 183.55L246.016 183.038C245.808 182.574 245.376 181.822 245.04 181.262L243.744 181.678ZM249.76 181.342C249.504 182.062 248.976 183.086 248.56 183.742L249.728 184.062C250.192 183.47 250.768 182.526 251.28 181.678L249.76 181.342ZM246.4 178.654C246.656 179.31 246.944 180.206 247.072 180.766L248.576 180.334C248.416 179.79 248.112 178.942 247.84 178.286L246.4 178.654ZM245.264 184.126C245.152 185.566 244.704 186.238 242.64 186.606C242.896 186.846 243.232 187.342 243.328 187.646C245.808 187.102 246.432 186.062 246.592 184.126H245.264ZM248.048 184.142V185.454C248.048 186.51 248.256 187.006 249.376 187.006C249.648 187.006 250.592 187.006 250.896 187.006C251.232 187.006 251.648 186.99 251.856 186.91C251.808 186.59 251.792 186.222 251.76 185.87C251.536 185.934 251.104 185.95 250.864 185.95C250.64 185.95 249.904 185.95 249.696 185.95C249.424 185.95 249.392 185.822 249.392 185.47V184.142H248.048ZM257.552 180.782V182.062H260.576V184.11H257.552V185.406H261.92V180.782H257.552ZM257.6 186.686V187.982H260.72V190.382H257.6V191.662H262.08V186.686H257.6ZM256.976 180.782V192.718H258.336V180.782H256.976ZM262.464 179.182V180.558H271.088V179.182H262.464ZM258.912 178.366C258.784 179.198 258.48 180.35 258.208 181.134L259.408 181.374C259.776 180.654 260.224 179.55 260.576 178.574L258.912 178.366ZM266.048 179.806V193.214H267.472V179.806H266.048ZM263.04 182.302V190.798H264.432V183.662H269.952V182.302H263.04ZM269.232 182.302V189.326C269.232 189.486 269.184 189.534 269.024 189.534C268.88 189.55 268.416 189.55 267.904 189.534C268.096 189.902 268.272 190.462 268.32 190.846C269.152 190.846 269.712 190.83 270.128 190.59C270.544 190.366 270.64 189.982 270.64 189.342V182.302H269.232ZM281.008 189.742V191.198H285.904V189.742H281.008ZM280.464 179.886V192.494H281.936V181.326H285.072V192.382H286.624V179.886H280.464ZM275.856 179.838V193.214H277.36V179.838H275.856ZM272.832 183.134V184.542H279.968V183.134H272.832ZM275.76 183.646C275.168 185.79 273.808 188.302 272.464 189.694C272.72 190.078 273.088 190.67 273.248 191.102C274.704 189.534 276.08 186.542 276.8 184.014L275.76 183.646ZM278.928 178.526C277.504 179.102 275.056 179.598 272.944 179.886C273.104 180.222 273.296 180.75 273.36 181.086C275.552 180.83 278.144 180.366 279.936 179.71L278.928 178.526ZM277.248 184.75L276.496 185.486C277.104 186.254 278.528 188.206 279.056 189.102L279.952 187.854C279.552 187.342 277.744 185.246 277.248 184.75ZM289.76 183.246V184.414H294.576V183.246H289.76ZM289.76 185.374V186.542H294.608V185.374H289.76ZM289.088 181.07V182.302H295.264V181.07H289.088ZM290.432 187.55V188.782H293.264V191.07H290.432V192.302H294.592V187.55H290.432ZM289.76 187.55V193.022H291.072V187.55H289.76ZM290.768 178.894C291.2 179.566 291.712 180.51 291.936 181.102L293.168 180.414C292.912 179.838 292.4 178.974 291.952 178.318L290.768 178.894ZM296.784 178.942V180.35H300.992V178.942H296.784ZM295.04 185.406V186.814H302.096V185.406H295.04ZM301.552 185.406V185.646C300.576 189.022 297.76 191.102 294.448 191.87C294.72 192.206 295.056 192.83 295.216 193.23C298.848 192.19 301.84 189.95 303.04 185.742L302.096 185.342L301.84 185.406H301.552ZM296.912 186.67L295.616 187.118C297.04 190.206 299.488 192.302 302.976 193.198C303.168 192.782 303.584 192.142 303.92 191.822C300.576 191.118 298.096 189.246 296.912 186.67ZM296.512 178.942V180.686C296.512 181.79 296.272 183.038 294.528 183.982C294.8 184.206 295.328 184.782 295.504 185.086C297.472 183.982 297.904 182.222 297.904 180.734V178.942H296.512ZM300.24 178.942V182.542C300.24 183.934 300.496 184.478 301.744 184.478C301.952 184.478 302.496 184.478 302.704 184.478C303.024 184.478 303.344 184.462 303.552 184.366C303.488 184.03 303.456 183.47 303.44 183.102C303.232 183.15 302.912 183.182 302.704 183.182C302.544 183.182 302.032 183.182 301.872 183.182C301.664 183.182 301.648 183.022 301.648 182.558V178.942H300.24ZM306.384 183.246V184.414H311.696V183.246H306.384ZM306.384 185.374V186.542H311.664V185.374H306.384ZM305.68 181.07V182.302H312.368V181.07H305.68ZM307.136 187.55V188.782H310.384V191.07H307.136V192.302H311.696V187.55H307.136ZM306.48 187.55V193.022H307.776V187.55H306.48ZM307.52 178.894C307.952 179.566 308.464 180.51 308.704 181.102L309.904 180.414C309.648 179.838 309.152 178.974 308.704 178.318L307.52 178.894ZM312.336 183.838V185.326H320.048V183.838H312.336ZM315.328 178.67V193.23H316.896V178.67H315.328ZM322.832 180.782V182.062H325.856V184.11H322.832V185.406H327.2V180.782H322.832ZM322.88 186.686V187.982H326V190.382H322.88V191.662H327.36V186.686H322.88ZM322.256 180.782V192.718H323.616V180.782H322.256ZM327.744 179.182V180.558H336.368V179.182H327.744ZM324.192 178.366C324.064 179.198 323.76 180.35 323.488 181.134L324.688 181.374C325.056 180.654 325.504 179.55 325.856 178.574L324.192 178.366ZM331.328 179.806V193.214H332.752V179.806H331.328ZM328.32 182.302V190.798H329.712V183.662H335.232V182.302H328.32ZM334.512 182.302V189.326C334.512 189.486 334.464 189.534 334.304 189.534C334.16 189.55 333.696 189.55 333.184 189.534C333.376 189.902 333.552 190.462 333.6 190.846C334.432 190.846 334.992 190.83 335.408 190.59C335.824 190.366 335.92 189.982 335.92 189.342V182.302H334.512ZM341.696 178.51V187.566H343.264V178.51H341.696ZM347.44 178.51V187.566H349.024V178.51H347.44ZM338.096 186.59V188.062H352.672V186.59H338.096ZM338.704 181.646V183.102H352.128V181.646H338.704ZM346.624 189.582C348.096 190.702 350.032 192.27 350.96 193.23L352.432 192.334C351.408 191.358 349.408 189.854 347.984 188.814L346.624 189.582ZM342.432 188.862C341.568 189.998 339.808 191.358 338.256 192.19C338.608 192.446 339.168 192.926 339.472 193.246C341.072 192.334 342.864 190.862 344.032 189.47L342.432 188.862ZM357.648 182.062V183.358H365.728V182.062H357.648ZM358.432 184.83V191.182H359.824V184.83H358.432ZM359.2 184.83V186.094H363.52V188.782H359.2V190.046H364.928V184.83H359.2ZM354.992 179.182V193.262H356.464V180.622H367.776V179.182H354.992ZM366.896 179.182V191.406C366.896 191.678 366.8 191.774 366.512 191.79C366.24 191.806 365.312 191.806 364.368 191.774C364.608 192.158 364.832 192.846 364.896 193.246C366.272 193.262 367.104 193.214 367.648 192.974C368.192 192.734 368.384 192.27 368.384 191.422V179.182H366.896ZM60.1173 214.486V215.702H67.9893V214.486H60.1173ZM59.8613 217.222V218.486H68.2933V217.222H59.8613ZM64.9493 214.87V221.942H66.2933V214.87H64.9493ZM61.7333 214.934V217.91C61.7333 218.758 61.3973 220.39 59.8933 221.302C60.2133 221.51 60.6773 221.926 60.8853 222.198C62.6293 221.014 63.0453 218.918 63.0453 217.91V214.934H61.7333ZM58.1813 210.246V211.27H62.4693V210.246H58.1813ZM65.5733 210.246V211.27H69.8933V210.246H65.5733ZM69.3013 208.038V220.374C69.3013 220.614 69.2213 220.71 68.9653 220.71C68.7093 220.726 67.8933 220.726 67.0773 220.694C67.2853 221.094 67.4933 221.798 67.5413 222.198C68.7733 222.214 69.5733 222.182 70.1013 221.926C70.6293 221.67 70.7893 221.222 70.7893 220.39V208.038H69.3013ZM58.3093 208.038V209.158H61.9893V212.438H58.3093V213.558H63.4133V208.038H58.3093ZM70.0533 208.038H64.6613V213.59H70.0533V212.47H66.1013V209.158H70.0533V208.038ZM57.4133 208.038V222.246H58.9013V208.038H57.4133ZM81.0453 212.182V213.35H84.3253V212.182H81.0453ZM79.8293 216.838V217.894H85.2533V216.838H79.8293ZM74.5333 208.006V209.222H78.9813V208.006H74.5333ZM78.5813 208.006V208.246C77.6533 210.358 75.1893 212.054 72.7893 212.79C73.0453 213.046 73.4133 213.574 73.6053 213.894C76.2453 212.966 78.8373 211.158 80.0213 208.422L79.0773 207.958L78.8373 208.006H78.5813ZM81.4773 207.43L80.2613 207.798C81.5573 210.646 83.9093 212.758 86.9973 213.734C87.2053 213.366 87.5893 212.838 87.9093 212.55C84.9333 211.766 82.5973 209.862 81.4773 207.43ZM84.3733 207.494C83.8293 208.118 82.8533 208.982 82.1653 209.494L83.0453 210.182C83.7653 209.686 84.7093 208.966 85.4773 208.262L84.3733 207.494ZM86.3573 209.094C85.7973 209.702 84.7893 210.566 84.0693 211.078L84.9813 211.766C85.7173 211.286 86.6933 210.566 87.4613 209.862L86.3573 209.094ZM75.2373 212.246V213.414H77.7653V216.022H79.1253V212.246H75.2373ZM74.7253 214.87C74.5813 216.054 74.3573 217.574 74.1333 218.566H75.4133C75.6053 217.606 75.8133 216.102 75.9733 214.87H74.7253ZM77.7653 217.43V217.622C77.6213 219.622 77.4453 220.47 77.1733 220.694C77.0453 220.822 76.8693 220.838 76.5813 220.838C76.2773 220.838 75.4293 220.822 74.5813 220.758C74.8213 221.11 74.9973 221.638 75.0133 222.038C75.8933 222.086 76.7253 222.086 77.1573 222.054C77.6693 222.022 78.0053 221.91 78.3253 221.59C78.7253 221.19 78.9173 220.198 79.0933 217.99C79.1253 217.798 79.1413 217.43 79.1413 217.43H77.7653ZM80.4853 212.182V213.382C80.4853 214.15 80.2933 215.014 79.0453 215.702C79.3173 215.878 79.8133 216.374 80.0053 216.646C81.4293 215.782 81.7653 214.518 81.7653 213.414V212.182H80.4853ZM84.9333 216.838V217.014C84.0693 219.286 81.7173 220.63 79.0133 221.142C79.2533 221.43 79.5413 221.926 79.6693 222.246C82.6933 221.526 85.2053 220.038 86.2773 217.094L85.4453 216.79L85.2053 216.838H84.9333ZM75.2853 214.87L75.0773 216.022H78.2453V214.87H75.2853ZM74.8213 217.43L74.5973 218.566H78.1493V217.43H74.8213ZM74.0693 210.182C74.7733 210.614 75.6373 211.254 76.0373 211.702L76.9493 210.79C76.5173 210.358 75.6373 209.766 74.9333 209.382L74.0693 210.182ZM83.6373 212.182V214.63C83.6373 215.75 83.8613 216.198 84.9973 216.198C85.2213 216.198 85.9733 216.198 86.1973 216.198C86.5173 216.198 86.8533 216.198 87.0613 216.118C87.0133 215.83 86.9813 215.382 86.9653 215.078C86.7733 215.126 86.3893 215.142 86.1653 215.142C85.9893 215.142 85.3333 215.142 85.1573 215.142C84.9333 215.142 84.9013 215.03 84.9013 214.646V212.182H83.6373ZM79.7173 218.678C81.6693 219.75 84.3093 221.334 85.6053 222.262L86.3733 221.27C85.0133 220.342 82.3413 218.838 80.4373 217.83L79.7173 218.678ZM90.8853 209.974V211.302H94.3893V219.222H90.8853V220.566H95.7653V209.974H90.8853ZM89.9893 209.974V221.798H91.3813V209.974H89.9893ZM90.8053 214.342V215.67H95.0773V214.342H90.8053ZM92.3733 207.366C92.2613 208.214 91.9893 209.43 91.7333 210.23L92.9493 210.518C93.2693 209.782 93.6693 208.662 94.0053 207.622L92.3733 207.366ZM97.9733 209.894V211.286H102.789V209.894H97.9733ZM102.261 209.894V210.198C102.069 217.078 101.829 219.782 101.301 220.342C101.125 220.566 100.933 220.614 100.613 220.614C100.229 220.614 99.2693 220.598 98.2293 220.518C98.5013 220.918 98.6933 221.558 98.7253 221.99C99.6373 222.022 100.597 222.054 101.173 221.99C101.781 221.91 102.181 221.75 102.565 221.222C103.221 220.406 103.429 217.894 103.653 210.614C103.669 210.422 103.669 209.894 103.669 209.894H102.261ZM98.1813 207.35C97.6693 209.526 96.7893 211.718 95.7013 213.11C96.0533 213.302 96.6773 213.734 96.9493 213.974C98.0373 212.454 99.0293 210.07 99.6373 207.686L98.1813 207.35ZM97.4293 214.246C98.2613 215.414 99.3013 216.998 99.7653 217.974L101.061 217.19C100.549 216.246 99.4613 214.694 98.6133 213.574L97.4293 214.246ZM112.261 216.614V217.542H118.501V216.614H112.261ZM110.933 208.71V209.622H119.829V208.71H110.933ZM111.381 210.646V211.526H119.397V210.646H111.381ZM110.517 212.646V213.558H120.325V212.646H110.517ZM112.261 218.758V219.654H118.533V218.758H112.261ZM118.181 214.502V220.854C118.181 221.046 118.117 221.11 117.893 221.126C117.685 221.142 116.917 221.142 116.101 221.11C116.245 221.398 116.405 221.846 116.453 222.15C117.589 222.15 118.309 222.134 118.757 221.958C119.205 221.798 119.317 221.478 119.317 220.87V214.502H118.181ZM114.757 207.446V212.934H115.941V207.446H114.757ZM107.925 207.43V222.134H109.061V207.43H107.925ZM106.293 210.534C106.181 211.814 105.877 213.574 105.493 214.662L106.485 214.998C106.869 213.798 107.157 211.958 107.237 210.678L106.293 210.534ZM109.141 210.118C109.525 210.902 109.957 211.958 110.133 212.582L110.981 212.134C110.805 211.526 110.373 210.518 109.973 209.75L109.141 210.118ZM111.589 214.502V217.43C111.589 218.694 111.493 220.326 110.613 221.526C110.853 221.67 111.317 222.102 111.461 222.342C112.517 220.966 112.709 218.95 112.709 217.462V214.502H111.589ZM112.229 214.502V215.398H118.821V214.502H112.229ZM128.213 209.382V210.438H134.117V209.382H128.213ZM129.813 217.814V218.774H135.189V217.814H129.813ZM129.781 220.454V221.462H135.157V220.454H129.781ZM127.365 212.454V213.558H136.677V212.454H127.365ZM130.821 207.462V213.11H131.957V207.462H130.821ZM129.301 215.126V222.118H130.421V216.15H134.565V222.054H135.733V215.126H129.301ZM135.221 208.31C133.509 211.894 130.565 214.678 126.981 216.31C127.237 216.55 127.621 217.03 127.781 217.27C131.381 215.446 134.437 212.518 136.309 208.662L135.221 208.31ZM122.437 217.974C122.437 217.75 123.221 217.398 123.221 217.398V217.382C124.741 215.814 126.309 213.638 127.589 211.462L126.629 210.886C125.525 213.046 123.829 215.302 123.301 215.878C122.789 216.47 122.437 216.87 122.085 216.934C122.213 217.222 122.389 217.75 122.437 217.974ZM122.437 217.974C122.741 217.798 123.269 217.638 126.965 216.902C126.949 216.646 126.949 216.214 126.981 215.91L122.965 216.63L122.389 217.03L122.437 217.974ZM122.325 214.134C122.325 213.894 123.029 213.526 123.029 213.526V213.494C124.101 212.038 125.221 209.958 126.005 207.974L124.917 207.494C124.309 209.414 123.189 211.51 122.837 212.054C122.501 212.598 122.229 212.982 121.957 213.046C122.085 213.334 122.277 213.894 122.325 214.134ZM122.325 214.134C122.581 214.006 123.013 213.91 125.685 213.558C125.685 213.334 125.717 212.918 125.765 212.614L122.853 212.918L122.293 213.286L122.325 214.134ZM122.053 220.038L122.293 221.19C123.749 220.806 125.685 220.326 127.557 219.846L127.445 218.822C125.445 219.286 123.397 219.766 122.053 220.038ZM144.517 209.126V210.134H150.165V212.358H144.517V213.382H151.333V209.126H144.517ZM147.093 207.398C146.949 208.022 146.645 208.918 146.405 209.526L147.493 209.766C147.797 209.222 148.149 208.406 148.469 207.622L147.093 207.398ZM143.941 209.126V219.494H145.093V209.126H143.941ZM144.597 214.87V215.894H150.805V218.486H144.597V219.494H151.957V214.87H144.597ZM138.997 208.086C139.701 208.87 140.597 209.99 141.029 210.646L141.957 209.99C141.509 209.35 140.629 208.326 139.893 207.542L138.997 208.086ZM138.421 211.142V212.15H141.925V211.142H138.421ZM141.269 218.486L140.469 218.854C141.669 221.494 143.765 221.942 147.509 221.942C149.269 221.942 151.285 221.894 152.789 221.814C152.853 221.478 153.013 220.918 153.189 220.662C151.557 220.79 149.205 220.87 147.525 220.87C144.341 220.87 142.261 220.582 141.269 218.486ZM141.557 215.142V215.35C141.093 218.294 139.845 220.31 138.117 221.382C138.373 221.558 138.757 221.958 138.917 222.214C140.725 221.014 142.085 218.758 142.645 215.334L142.053 215.11L141.845 215.142H141.557ZM138.661 216.342C138.789 216.214 139.205 216.118 139.621 216.118H141.893L141.909 215.142H139.237L138.661 215.43V216.342ZM138.661 216.342C138.661 216.038 139.573 215.59 139.573 215.59C140.501 214.566 142.005 212.534 142.789 211.446L141.989 211.062L141.621 211.222V211.27C141.077 212.118 139.509 214.278 138.997 214.774C138.725 215.078 138.453 215.19 138.213 215.254C138.341 215.51 138.581 216.07 138.661 216.342ZM156.197 209.19H158.373V212.022H156.197V209.19ZM155.237 208.15V213.062H159.381V208.15H155.237ZM156.997 212.518V219.958H157.973V212.518H156.997ZM155.173 214.566V220.438H156.101V214.566H155.173ZM154.549 220.182L154.773 221.286C156.197 220.886 158.085 220.374 159.877 219.862L159.765 218.838C157.829 219.35 155.861 219.894 154.549 220.182ZM157.509 215.398V216.454H159.493V215.398H157.509ZM164.309 207.51C164.037 209.782 163.493 211.83 162.437 213.142C162.661 213.318 163.045 213.654 163.205 213.846C164.357 212.374 164.981 210.15 165.317 207.638L164.309 207.51ZM164.261 217.062L163.445 217.302C164.149 221.222 165.557 221.958 167.589 221.958H169.157C169.205 221.67 169.349 221.174 169.493 220.902C169.109 220.918 167.941 220.918 167.669 220.918C166.117 220.918 164.821 220.342 164.261 217.062ZM166.229 216.374V217.414H168.981V216.374H166.229ZM167.221 207.51C166.997 209.75 166.485 211.638 165.317 212.854C165.541 213.014 165.925 213.366 166.053 213.558C167.317 212.198 167.941 210.118 168.213 207.606L167.221 207.51ZM166.789 210.486C167.509 211.462 168.389 212.79 168.789 213.622L169.541 212.886C169.109 212.102 168.213 210.822 167.461 209.846L166.789 210.486ZM164.565 209.782L164.037 210.326C164.341 210.742 165.077 211.846 165.333 212.358L165.941 211.366C165.749 211.11 164.821 210.038 164.565 209.782ZM161.717 211.094C161.269 212.662 160.325 214.63 159.253 215.926C159.429 216.102 159.717 216.486 159.845 216.694C161.029 215.27 162.069 213.174 162.709 211.382L161.717 211.094ZM161.589 207.478C161.173 208.678 160.293 210.182 159.381 211.158C159.589 211.334 159.909 211.686 160.069 211.894C161.061 210.822 162.021 209.19 162.629 207.798L161.589 207.478ZM163.477 214.966C163.445 216.934 163.301 219.958 162.021 221.574C162.245 221.702 162.597 222.022 162.773 222.182C164.181 220.486 164.421 217.222 164.501 215.014L163.477 214.966ZM165.669 213.622V221.158H166.709V213.622H165.669ZM160.837 213.814V222.15H161.845V213.03L161.685 212.982L160.837 213.814ZM182.389 209.766C182.229 210.598 181.861 211.846 181.573 212.614L182.293 212.854C182.613 212.134 182.981 210.982 183.301 210.022L182.389 209.766ZM179.125 209.99C179.493 210.71 179.845 211.67 179.957 212.31L180.741 212.022C180.613 211.398 180.261 210.438 179.877 209.734L179.125 209.99ZM177.077 208.214V222.198H178.165V209.286H184.581V208.214H177.077ZM184.197 208.214V220.822C184.197 221.046 184.133 221.11 183.925 221.126C183.717 221.126 183.061 221.142 182.373 221.11C182.533 221.398 182.677 221.894 182.709 222.166C183.701 222.182 184.357 222.15 184.757 221.974C185.157 221.782 185.285 221.478 185.285 220.822V208.214H184.197ZM178.565 212.438V213.382H183.845V212.438H178.565ZM178.741 215.078V216.038H183.637V215.078H178.741ZM180.277 213.67C180.549 214.134 180.837 214.79 180.965 215.206L181.845 214.838C181.717 214.438 181.397 213.814 181.125 213.35L180.277 213.67ZM174.917 213.862C175.333 214.87 175.797 216.198 175.957 216.998L176.869 216.63C176.661 215.878 176.213 214.566 175.765 213.574L174.917 213.862ZM173.333 217.862C173.525 218.95 173.701 220.374 173.717 221.302L174.629 221.094C174.581 220.15 174.389 218.758 174.181 217.686L173.333 217.862ZM171.653 217.75C171.509 219.046 171.269 220.486 170.901 221.462C171.141 221.526 171.589 221.686 171.797 221.798C172.117 220.806 172.421 219.302 172.581 217.91L171.653 217.75ZM171.285 213.446C171.285 213.206 171.973 212.854 171.973 212.854V212.838C173.013 211.558 174.069 209.686 174.869 207.91L173.861 207.462C173.221 209.206 172.133 211.046 171.797 211.526C171.477 212.006 171.189 212.342 170.933 212.406C171.061 212.694 171.237 213.222 171.285 213.446ZM171.285 213.446C171.525 213.318 171.941 213.238 174.437 212.95C174.453 212.726 174.485 212.326 174.533 212.038L171.797 212.278L171.269 212.614L171.285 213.446ZM171.381 217.046C171.381 216.822 172.085 216.486 172.085 216.486V216.454C173.557 214.854 175.077 212.598 176.261 210.39L175.317 209.83C174.309 212.022 172.693 214.326 172.197 214.918C171.717 215.526 171.365 215.942 171.045 216.006C171.173 216.294 171.349 216.822 171.381 217.046ZM171.381 217.046C171.685 216.886 172.197 216.758 176.133 216.15C176.117 215.926 176.117 215.526 176.149 215.254L171.893 215.846L171.349 216.214L171.381 217.046ZM175.077 217.542C175.413 218.518 175.813 219.814 175.973 220.678L176.821 220.374C176.645 219.542 176.245 218.262 175.877 217.27L175.077 217.542ZM179.333 215.542V217.606C179.333 218.662 179.573 219.046 180.629 219.046C180.869 219.046 182.373 219.046 182.709 219.046C183.093 219.046 183.525 219.046 183.733 218.982C183.701 218.742 183.669 218.358 183.653 218.086C183.397 218.15 182.949 218.15 182.677 218.15C182.389 218.15 180.997 218.15 180.709 218.15C180.389 218.15 180.325 218.022 180.325 217.622V215.542H179.333ZM187.557 210.47V211.574H193.781V210.47H187.557ZM187.365 219.382L187.653 220.582C189.333 220.15 191.589 219.59 193.701 219.03L193.589 217.926C191.317 218.486 188.933 219.062 187.365 219.382ZM188.197 212.502C188.549 214.31 188.885 216.662 188.965 218.23L189.973 218.038C189.877 216.454 189.541 214.134 189.141 212.31L188.197 212.502ZM191.893 212.118C191.685 214.102 191.253 216.998 190.837 218.678L191.717 218.902C192.165 217.222 192.693 214.438 193.029 212.326L191.893 212.118ZM189.429 207.862C189.861 208.614 190.325 209.638 190.501 210.294L191.589 209.926C191.397 209.27 190.917 208.278 190.453 207.542L189.429 207.862ZM197.397 210.774V211.91H201.989V210.774H197.397ZM194.645 220.262V221.398H200.693V220.262H194.645ZM196.693 207.446V215.606H197.909V207.446H196.693ZM194.085 215.11V222.15H195.253V216.23H200.085V222.086H201.301V215.11H194.085ZM213.535 217.878C215.215 217.302 216.303 215.99 216.303 214.262C216.303 213.142 215.823 212.406 214.927 212.406C214.287 212.406 213.711 212.806 213.711 213.558C213.711 214.31 214.255 214.71 214.911 214.71C215.215 214.71 215.535 214.63 215.759 214.342L214.895 213.126L215.199 214.47C215.199 215.686 214.479 216.502 213.167 217.03L213.535 217.878ZM225.935 214.758V222.182H227.119V215.83H235.279V222.118H236.495V214.758H225.935ZM226.591 217.606V218.598H235.695V217.606H226.591ZM226.591 220.454V221.526H235.695V220.454H226.591ZM225.343 207.494V211.302C225.343 212.822 226.015 213.35 227.951 213.35C228.511 213.35 233.567 213.35 234.527 213.35C235.599 213.35 236.735 213.318 237.151 213.238C237.103 212.966 237.023 212.502 236.975 212.15C236.447 212.246 235.199 212.294 234.415 212.294C233.455 212.294 228.767 212.294 227.855 212.294C226.815 212.294 226.559 212.022 226.559 211.334V207.494H225.343ZM226.159 209.254V210.31H236.335V209.254H226.159ZM240.479 209.926V211.094H254.495V209.926H240.479ZM245.439 214.998V216.118H253.871V214.998H245.439ZM244.815 220.662V221.798H254.495V220.662H244.815ZM249.055 211.91V221.27H250.255V211.91H249.055ZM245.743 207.446C244.847 210.742 242.975 214.294 240.095 216.326C240.287 216.598 240.591 217.11 240.719 217.43C243.903 215.142 245.855 211.414 246.975 207.75L245.743 207.446ZM242.575 214.038V222.118H243.775V214.038H242.575ZM259.519 207.51C258.751 209.99 257.487 212.438 256.079 214.038C256.287 214.342 256.607 214.998 256.719 215.27C258.303 213.398 259.727 210.598 260.639 207.83L259.519 207.51ZM258.239 211.462V222.166H259.423V210.342L259.375 210.31L258.239 211.462ZM263.039 209.27H268.831V212.566H263.039V209.27ZM261.887 208.198V213.638H270.031V208.198H261.887ZM265.871 216.102V217.238H270.319V216.102H265.871ZM265.359 213.094V220.598L266.543 221.11V213.094H265.359ZM262.943 217.11L262.015 217.462C263.151 221.094 265.327 221.814 268.303 221.814H270.863C270.927 221.494 271.103 220.95 271.263 220.678C270.687 220.678 268.815 220.694 268.383 220.678C265.919 220.678 263.839 220.166 262.943 217.11ZM262.207 215.222C261.935 217.894 261.295 220.118 259.839 221.494C260.111 221.654 260.607 222.006 260.799 222.198C262.287 220.662 263.039 218.31 263.359 215.334L262.207 215.222ZM279.535 210.102H279.423L278.431 211.158V219.062H279.535V211.11H286.863V210.102H279.535ZM278.959 212.726V213.686H286.431V212.726H278.959ZM278.991 215.35V216.31H286.431V215.35H278.991ZM278.959 218.038V219.062H287.231V218.038H278.959ZM282.335 210.518V218.55H283.407V210.518H282.335ZM279.695 207.558C278.975 209.654 277.807 211.75 276.527 213.126C276.735 213.35 277.071 213.846 277.199 214.07C278.591 212.534 279.887 210.182 280.719 207.846L279.695 207.558ZM281.903 207.974C282.367 208.79 282.879 209.878 283.071 210.534L284.127 210.198C283.919 209.526 283.391 208.47 282.895 207.686L281.903 207.974ZM273.455 208.006C274.159 208.79 275.055 209.91 275.487 210.582L276.415 209.926C275.967 209.27 275.087 208.246 274.351 207.478L273.455 208.006ZM272.879 211.142V212.15H276.383V211.142H272.879ZM275.727 218.486L274.927 218.854C276.127 221.494 278.223 221.942 281.967 221.942C283.727 221.942 285.743 221.894 287.247 221.814C287.311 221.478 287.471 220.918 287.647 220.662C286.015 220.79 283.663 220.87 281.983 220.87C278.799 220.87 276.719 220.582 275.727 218.486ZM275.951 215.142V215.35C275.503 218.278 274.271 220.31 272.575 221.382C272.799 221.558 273.199 221.958 273.359 222.214C275.151 221.014 276.479 218.758 277.039 215.334L276.431 215.11L276.223 215.142H275.951ZM273.103 216.342C273.215 216.214 273.631 216.118 274.047 216.118H276.335L276.351 215.142H273.679L273.103 215.43V216.342ZM273.103 216.342C273.103 216.038 273.999 215.59 273.999 215.59C274.943 214.566 276.431 212.534 277.215 211.446L276.415 211.062L276.047 211.222V211.27C275.503 212.118 273.935 214.278 273.423 214.774C273.151 215.094 272.895 215.19 272.655 215.254C272.783 215.51 273.023 216.07 273.103 216.342ZM295.935 207.478C295.391 208.998 294.447 210.454 293.359 211.414C293.631 211.574 294.079 211.958 294.255 212.166C295.375 211.094 296.415 209.462 297.039 207.75L295.935 207.478ZM295.903 211.878C295.471 212.998 294.735 214.102 293.887 214.854C294.143 215.03 294.607 215.366 294.783 215.558C295.631 214.726 296.495 213.446 297.023 212.182L295.903 211.878ZM295.743 208.966L295.327 210.006H302.687V208.966H295.743ZM300.351 212.294C301.119 213.302 301.967 214.678 302.319 215.574L303.343 215.03C302.975 214.15 302.127 212.822 301.311 211.846L300.351 212.294ZM302.335 208.966V209.126C302.047 209.942 301.583 210.95 301.215 211.574L302.255 211.798C302.639 211.142 303.151 210.054 303.551 209.126L302.735 208.918L302.527 208.966H302.335ZM292.831 207.414C291.935 209.19 290.479 210.966 288.991 212.086C289.231 212.31 289.631 212.79 289.791 213.03C291.311 211.75 292.895 209.766 293.919 207.766L292.831 207.414ZM291.343 210.454V216.598H292.495V209.334L292.479 209.318L291.343 210.454ZM292.639 217.446V220.23C292.639 221.542 293.135 221.878 295.039 221.878C295.439 221.878 298.463 221.878 298.879 221.878C300.463 221.878 300.863 221.382 301.023 219.35C300.687 219.286 300.191 219.11 299.919 218.902C299.823 220.534 299.679 220.758 298.799 220.758C298.127 220.758 295.599 220.758 295.087 220.758C294.031 220.758 293.839 220.678 293.839 220.214V217.446H292.639ZM295.071 216.742C295.935 217.59 296.927 218.79 297.343 219.574L298.335 218.982C297.887 218.182 296.879 217.03 295.983 216.214L295.071 216.742ZM300.719 217.67C301.455 218.806 302.175 220.358 302.415 221.334L303.567 220.87C303.295 219.878 302.543 218.39 301.791 217.254L300.719 217.67ZM290.831 217.526C290.463 218.598 289.855 220.054 289.199 220.998L290.335 221.526C290.927 220.55 291.503 219.03 291.903 217.974L290.831 217.526ZM298.287 210.614V216.55H299.439V210.614H298.287ZM306.863 210.022V211.094H310.607V219.398H306.863V220.486H311.727V210.022H306.863ZM306.143 210.022V221.766H307.263V210.022H306.143ZM306.783 214.47V215.542H311.199V214.47H306.783ZM308.591 207.414C308.463 208.246 308.159 209.462 307.887 210.23L308.847 210.47C309.167 209.75 309.567 208.646 309.887 207.654L308.591 207.414ZM313.999 209.974V211.094H318.911V209.974H313.999ZM318.495 209.974V210.23C318.271 217.286 318.015 219.942 317.487 220.518C317.311 220.726 317.119 220.774 316.799 220.774C316.431 220.774 315.471 220.758 314.431 220.678C314.655 220.998 314.799 221.494 314.831 221.846C315.727 221.894 316.671 221.926 317.215 221.862C317.775 221.814 318.143 221.67 318.495 221.206C319.135 220.422 319.359 217.942 319.615 210.598C319.615 210.422 319.615 209.974 319.615 209.974H318.495ZM314.335 207.382C313.823 209.606 312.943 211.814 311.855 213.222C312.143 213.382 312.639 213.718 312.847 213.91C313.951 212.39 314.895 210.038 315.487 207.654L314.335 207.382ZM313.599 214.134C314.479 215.302 315.551 216.886 316.031 217.862L317.055 217.222C316.543 216.278 315.439 214.726 314.527 213.59L313.599 214.134ZM325.807 211.926V219.846C325.807 221.446 326.303 221.878 328.047 221.878C328.399 221.878 330.879 221.878 331.279 221.878C333.071 221.878 333.455 220.982 333.615 217.942C333.295 217.846 332.767 217.638 332.479 217.414C332.351 220.182 332.207 220.742 331.215 220.742C330.655 220.742 328.575 220.742 328.143 220.742C327.231 220.742 327.039 220.598 327.039 219.862V211.926H325.807ZM323.247 213.11C323.007 215.014 322.479 217.526 321.791 219.174L322.991 219.686C323.647 217.958 324.143 215.238 324.399 213.35L323.247 213.11ZM333.263 213.126C334.159 215.03 335.039 217.558 335.343 219.206L336.543 218.742C336.191 217.078 335.295 214.614 334.367 212.71L333.263 213.126ZM326.559 208.806C328.079 209.878 329.967 211.462 330.847 212.454L331.711 211.558C330.783 210.55 328.863 209.046 327.375 208.022L326.559 208.806ZM345.007 212.262H350.959V214.326H345.007V212.262ZM345.007 209.238H350.959V211.27H345.007V209.238ZM343.919 208.198V215.366H352.111V208.198H343.919ZM343.711 217.238V218.342H352.335V217.238H343.711ZM342.479 220.55V221.638H352.863V220.55H342.479ZM338.127 208.534V209.67H343.119V208.534H338.127ZM338.303 213.158V214.294H342.895V213.158H338.303ZM337.967 219.286L338.255 220.518C339.679 220.038 341.503 219.43 343.247 218.838L343.039 217.686C341.183 218.31 339.263 218.934 337.967 219.286ZM340.127 208.982V219.126L341.279 218.902V208.982H340.127ZM347.455 208.694V214.854H347.375V221.046H348.591V214.854H348.511V208.694H347.455ZM357.119 207.478C356.495 209.846 355.487 212.166 354.255 213.702C354.447 214.006 354.767 214.646 354.863 214.934C356.255 213.126 357.471 210.422 358.223 207.766L357.119 207.478ZM356.047 211.59V222.134H357.119V210.55L357.103 210.534L356.047 211.59ZM364.303 207.51V220.406H365.327V207.51H364.303ZM361.567 210.918V211.862H369.103V210.918H361.567ZM361.615 217.478V218.454H368.735V217.478H361.615ZM362.031 215.286V216.23H368.223V215.286H362.031ZM358.239 208.614V209.67H360.943V208.614H358.239ZM358.751 215.702L357.871 216.038C359.343 221.11 362.383 221.958 366.127 221.958H368.719C368.783 221.654 368.959 221.158 369.119 220.902C368.479 220.918 366.655 220.918 366.175 220.918C362.927 220.902 359.983 220.214 358.751 215.702ZM362.271 208.79V209.67H367.007V213.158H362.271V214.07H367.951V208.79H362.271ZM358.927 213.302L358.591 214.278H360.863V213.302H358.927ZM360.607 213.302V213.526C360.271 217.622 359.167 220.102 357.295 221.398C357.519 221.558 357.935 221.942 358.111 222.166C360.031 220.742 361.247 217.99 361.663 213.446L361.023 213.286L360.831 213.302H360.607ZM358.319 214.678C358.319 214.422 359.151 214.086 359.151 214.086V214.07C360.047 212.758 361.007 210.854 361.823 208.918L361.103 208.438L360.687 208.63V208.71C360.127 210.454 359.087 212.294 358.799 212.79C358.495 213.286 358.095 213.702 357.839 213.766C357.983 214.006 358.223 214.438 358.319 214.678ZM59.4933 242.254V243.166H69.3013V242.254H59.4933ZM60.2613 240.142V241.022H68.6933V244.462H60.1173V245.342H69.8293V240.142H60.2613ZM64.3733 238.702V249.806C64.3733 250.062 64.2933 250.142 64.0053 250.158C63.7333 250.174 62.7413 250.19 61.7653 250.142C61.9413 250.446 62.1013 250.878 62.1653 251.182C63.4933 251.182 64.3573 251.166 64.8853 251.006C65.3973 250.83 65.5893 250.542 65.5893 249.806V238.702H64.3733ZM59.9253 246.126C60.7413 246.622 61.7653 247.374 62.2773 247.838L62.9813 247.102C62.4373 246.638 61.3973 245.934 60.5973 245.454L59.9253 246.126ZM69.4133 245.55C68.7093 246.19 67.4773 247.102 66.5813 247.614L67.3013 248.238C68.1973 247.758 69.3813 246.974 70.3093 246.254L69.4133 245.55ZM59.0613 249.214L59.5413 250.206C61.0293 249.566 62.9813 248.718 64.8053 247.902L64.5973 247.038C62.5813 247.87 60.4373 248.718 59.0613 249.214ZM58.5333 237.87V238.926H71.2373V237.87H58.5333ZM57.9573 237.87V242.606C57.9573 244.942 57.8453 248.222 56.5653 250.526C56.8373 250.638 57.3333 250.958 57.5413 251.166C58.8853 248.734 59.0933 245.102 59.0933 242.606V237.87H57.9573ZM63.5733 236.638C63.9573 237.23 64.4053 238.046 64.6133 238.558L65.8133 238.142C65.6053 237.646 65.1413 236.878 64.7413 236.302L63.5733 236.638ZM69.2693 242.174V243.23H71.4133V242.174H69.2693ZM64.8693 247.806C66.7733 248.542 69.2693 249.678 70.5493 250.43L71.0773 249.55C69.7813 248.83 67.2533 247.726 65.3973 247.038L64.8693 247.806ZM79.0773 246.878C80.7573 246.302 81.8453 244.99 81.8453 243.262C81.8453 242.142 81.3653 241.406 80.4693 241.406C79.8293 241.406 79.2533 241.806 79.2533 242.558C79.2533 243.31 79.7973 243.71 80.4533 243.71C80.7573 243.71 81.0773 243.63 81.3013 243.342L80.4373 242.126L80.7413 243.47C80.7413 244.686 80.0213 245.502 78.7093 246.03L79.0773 246.878ZM97.4933 239.566V240.702H103.989V239.566H97.4933ZM97.9413 236.446C97.4773 239.246 96.6293 241.854 95.2533 243.486C95.5093 243.71 95.9413 244.238 96.1173 244.494C97.6213 242.606 98.6133 239.758 99.1573 236.654L97.9413 236.446ZM101.685 240.142C100.933 245.134 99.2533 248.398 95.5253 250.206C95.7813 250.446 96.1493 250.942 96.2933 251.198C100.165 249.102 101.973 245.662 102.869 240.302L101.685 240.142ZM97.9413 240.574L96.9493 240.798C98.0213 245.422 99.9893 249.294 103.285 251.102C103.477 250.798 103.861 250.366 104.133 250.126C100.917 248.542 98.9173 244.83 97.9413 240.574ZM93.8773 236.686V251.182H95.0773V236.686H93.8773ZM90.1813 248.286C90.5173 248.03 91.0293 247.758 94.7253 246.446C94.6293 246.19 94.4853 245.726 94.4373 245.406L90.5973 246.654L90.0533 247.15L90.1813 248.286ZM90.1813 248.286C90.1813 247.854 91.4133 247.182 91.4133 247.182V238.238H90.2453V246.11C90.2453 246.734 89.9093 247.054 89.6853 247.198C89.8613 247.454 90.0853 247.998 90.1813 248.286ZM115.605 240.894V245.646H116.661V240.894H115.605ZM112.405 240.478V241.262H119.957V240.478H112.405ZM112.693 242.046V242.75H119.509V242.046H112.693ZM112.693 243.566V244.286H119.509V243.566H112.693ZM111.269 246.67V247.582H118.885V246.67H111.269ZM112.757 239.214C112.261 240.318 111.429 241.39 110.517 242.126C110.741 242.302 111.125 242.702 111.285 242.894C112.229 242.062 113.189 240.798 113.765 239.502L112.757 239.214ZM118.629 246.67V246.862C117.237 248.718 113.813 249.774 110.405 250.19C110.597 250.398 110.869 250.878 110.949 251.15C114.469 250.59 118.053 249.438 119.765 247.118L119.077 246.638L118.869 246.67H118.629ZM112.965 247.374L111.973 247.79C113.605 249.566 116.629 250.686 119.733 251.134C119.877 250.83 120.181 250.398 120.421 250.158C117.381 249.806 114.389 248.862 112.965 247.374ZM113.813 236.462V239.582H114.853V236.462H113.813ZM116.597 236.462V239.614H117.653V236.462H116.597ZM111.045 237.646V238.574H114.373V237.646H111.045ZM114.885 239.502C115.285 239.902 115.765 240.494 115.989 240.878L116.869 240.318C116.629 239.95 116.149 239.422 115.717 239.038L114.885 239.502ZM112.213 245.118V245.918H120.149V245.118H112.213ZM111.989 240.958V246.35H113.029V240.958H111.989ZM108.181 237.694V251.182H109.285V237.694H108.181ZM105.765 241.038V242.174H111.093V241.038H105.765ZM108.197 241.47C107.653 243.454 106.501 245.934 105.445 247.23C105.621 247.534 105.925 248.03 106.037 248.382C107.173 246.91 108.325 244.078 108.917 241.79L108.197 241.47ZM110.421 236.59C109.317 237.118 107.429 237.582 105.829 237.87C105.941 238.142 106.101 238.558 106.165 238.83C107.813 238.574 109.765 238.158 111.125 237.566L110.421 236.59ZM109.173 243.086L108.677 243.598C109.141 244.222 110.293 245.822 110.661 246.542L111.333 245.534C111.013 245.134 109.573 243.486 109.173 243.086ZM117.013 237.63V238.542H120.213V237.63H117.013ZM123.797 238.158V239.23H134.917V238.158H123.797ZM122.133 241.054V242.11H136.597V241.054H122.133ZM122.549 247.39V248.446H136.133V247.39H122.549ZM128.677 236.462V241.518H129.909V236.462H128.677ZM128.677 245.358V251.182H129.909V245.358H128.677ZM125.173 242.43C125.573 243.102 125.989 243.982 126.133 244.558L127.317 244.158C127.157 243.614 126.725 242.734 126.325 242.094L125.173 242.43ZM132.373 242.126C132.085 242.878 131.557 243.982 131.109 244.686L132.085 244.99C132.549 244.35 133.157 243.342 133.653 242.462L132.373 242.126ZM123.429 244.446V245.502H135.381V244.446H123.429ZM139.781 236.958C140.229 237.694 140.773 238.686 141.029 239.294L141.989 238.814C141.749 238.222 141.205 237.278 140.741 236.558L139.781 236.958ZM147.813 244.67V250.078H148.901V244.67H147.813ZM146.197 240.318H150.773V242.094H146.197V240.318ZM145.109 239.358V243.054H151.893V239.358H145.109ZM144.277 244.094V251.166H145.397V245.102H151.477V251.118H152.629V244.094H144.277ZM144.933 246.766V247.71H152.021V246.766H144.933ZM144.949 249.422V250.414H152.021V249.422H144.949ZM144.213 237.23V238.27H152.725V237.23H144.213ZM138.549 239.454V240.558H143.381V239.454H138.549ZM142.037 243.086L141.349 243.694C141.861 244.19 143.125 245.502 143.589 246.094L144.293 245.118C143.941 244.766 142.469 243.406 142.037 243.086ZM142.949 239.454V239.71C142.053 242.126 139.957 244.558 137.957 245.854C138.165 246.062 138.469 246.622 138.581 246.926C140.709 245.438 142.981 242.75 144.085 239.838L143.413 239.406L143.205 239.454H142.949ZM140.741 244.27V251.15H141.909V242.83L140.741 244.27ZM157.413 242.254V243.166H167.221V242.254H157.413ZM158.181 240.142V241.022H166.613V244.462H158.037V245.342H167.749V240.142H158.181ZM162.293 238.702V249.806C162.293 250.062 162.213 250.142 161.925 250.158C161.653 250.174 160.661 250.19 159.685 250.142C159.861 250.446 160.021 250.878 160.085 251.182C161.413 251.182 162.277 251.166 162.805 251.006C163.317 250.83 163.509 250.542 163.509 249.806V238.702H162.293ZM157.845 246.126C158.661 246.622 159.685 247.374 160.197 247.838L160.901 247.102C160.357 246.638 159.317 245.934 158.517 245.454L157.845 246.126ZM167.333 245.55C166.629 246.19 165.397 247.102 164.501 247.614L165.221 248.238C166.117 247.758 167.301 246.974 168.229 246.254L167.333 245.55ZM156.981 249.214L157.461 250.206C158.949 249.566 160.901 248.718 162.725 247.902L162.517 247.038C160.501 247.87 158.357 248.718 156.981 249.214ZM156.453 237.87V238.926H169.157V237.87H156.453ZM155.877 237.87V242.606C155.877 244.942 155.765 248.222 154.485 250.526C154.757 250.638 155.253 250.958 155.461 251.166C156.805 248.734 157.013 245.102 157.013 242.606V237.87H155.877ZM161.493 236.638C161.877 237.23 162.325 238.046 162.533 238.558L163.733 238.142C163.525 237.646 163.061 236.878 162.661 236.302L161.493 236.638ZM167.189 242.174V243.23H169.333V242.174H167.189ZM162.789 247.806C164.693 248.542 167.189 249.678 168.469 250.43L168.997 249.55C167.701 248.83 165.173 247.726 163.317 247.038L162.789 247.806ZM171.141 245.438V246.478H185.461V245.438H171.141ZM177.701 244.478V251.15H178.901V244.478H177.701ZM177.269 241.454H179.333V243.134H177.269V241.454ZM177.269 238.91H179.333V240.558H177.269V238.91ZM176.213 237.982V244.062H180.421V237.982H176.213ZM177.845 236.382C177.781 236.926 177.605 237.758 177.429 238.302L178.261 238.51C178.469 238.03 178.725 237.278 178.981 236.59L177.845 236.382ZM183.893 242.11C184.165 242.91 184.469 243.95 184.581 244.654L185.445 244.366C185.301 243.694 184.997 242.67 184.693 241.87L183.893 242.11ZM174.501 241.79C174.725 242.654 174.981 243.758 175.061 244.51L175.925 244.27C175.829 243.55 175.589 242.446 175.333 241.598L174.501 241.79ZM171.685 241.166C171.685 240.942 172.341 240.638 172.341 240.638V240.606C173.045 239.678 173.813 238.27 174.357 236.91L173.381 236.558C172.997 237.854 172.229 239.23 172.005 239.566C171.781 239.934 171.573 240.174 171.365 240.222C171.477 240.478 171.621 240.958 171.685 241.166ZM171.685 241.166C171.893 241.054 172.293 240.974 174.373 240.702C174.373 240.51 174.389 240.158 174.437 239.902L172.165 240.126L171.669 240.43L171.685 241.166ZM171.653 244.318C171.653 244.11 172.261 243.806 172.261 243.806V243.774C173.509 242.494 174.789 240.686 175.797 238.878L174.901 238.398C174.085 240.158 172.725 242.03 172.325 242.494C171.925 242.974 171.621 243.31 171.333 243.374C171.461 243.63 171.621 244.11 171.653 244.318ZM171.653 244.318C171.925 244.19 172.373 244.078 175.413 243.662C175.397 243.47 175.413 243.102 175.445 242.846L172.149 243.262L171.637 243.582L171.653 244.318ZM180.965 241.326C180.965 241.102 181.621 240.782 181.621 240.782V240.75C182.357 239.774 183.141 238.302 183.701 236.878L182.709 236.542C182.293 237.886 181.525 239.326 181.285 239.678C181.061 240.046 180.853 240.334 180.645 240.366C180.757 240.622 180.917 241.118 180.965 241.326ZM180.965 241.326C181.205 241.214 181.605 241.118 183.973 240.814C183.989 240.606 184.005 240.222 184.053 239.966L181.445 240.254L180.949 240.558L180.965 241.326ZM181.141 244.494C181.141 244.27 181.765 243.966 181.765 243.966V243.934C183.013 242.67 184.293 240.846 185.317 239.054L184.389 238.558C183.573 240.318 182.197 242.158 181.797 242.638C181.413 243.134 181.093 243.454 180.821 243.518C180.933 243.774 181.093 244.286 181.141 244.494ZM181.141 244.494C181.397 244.366 181.861 244.27 184.901 243.886C184.885 243.694 184.917 243.326 184.965 243.07L181.653 243.422L181.109 243.742L181.141 244.494ZM175.861 247.006C174.789 248.142 172.677 249.182 170.821 249.646C171.093 249.87 171.445 250.318 171.621 250.638C173.525 250.046 175.685 248.814 176.869 247.406L175.861 247.006ZM179.941 247.662C181.589 248.542 183.669 249.854 184.677 250.734L185.429 249.838C184.373 248.974 182.261 247.71 180.645 246.894L179.941 247.662ZM194.677 241.39C193.333 241.39 192.229 242.478 192.229 243.822C192.229 245.182 193.333 246.27 194.677 246.27C196.021 246.27 197.109 245.182 197.109 243.822C197.109 242.478 196.021 241.39 194.677 241.39ZM194.677 245.454C193.781 245.454 193.045 244.734 193.045 243.822C193.045 242.942 193.781 242.206 194.677 242.206C195.573 242.206 196.293 242.942 196.293 243.822C196.293 244.734 195.573 245.454 194.677 245.454Z" fill="#575757"/>
<line x1="56" y1="155.547" x2="225" y2="155.547" stroke="#FF715C" stroke-width="2"/>
<path d="M499.123 213.677C530.978 207.315 682.29 160.126 753.964 137.327L828.824 207.315L674.326 328.203C650.116 326.93 632.384 299.041 626.543 285.256C607.43 283.135 584.192 283.665 569.204 270.94C563.137 265.788 563.486 242.309 543.72 240.718C529.083 239.54 459.304 221.63 499.123 213.677Z" fill="#74CADD"/>
<rect x="638.922" y="105.19" width="187.954" height="182.111" rx="91.0556" fill="#FF715C"/>
<rect x="746.046" y="153.882" width="13.634" height="22.3987" rx="6.81699" fill="#002B51"/>
<rect x="788.895" y="156.804" width="12.6601" height="23.3725" rx="6.33007" fill="#002B51"/>
<path d="M798.943 196.859C773.86 194.582 755.036 189.921 742.023 186.682C731.613 206.117 747.812 219.417 761.763 221.153C788.813 224.518 794.606 207.116 798.943 196.859Z" fill="#002B51"/>
<path d="M753.18 213.365C757.843 208.653 769.677 202.306 779.71 214.613C775.851 217.866 761.284 220.683 753.18 213.365Z" fill="#FF715C"/>
<path d="M601.594 153.894L642.33 182.611L675.474 157.982L639.902 133.451L656.32 117.097C667.265 126.637 676.842 119.823 682.314 107.557C687.787 95.2919 683.683 85.7521 671.369 77.5751C661.519 71.0335 646.287 78.4837 639.902 83.0265L602.962 119.823C587.639 135.087 595.666 148.897 601.594 153.894Z" fill="#FF715C"/>
<path d="M680.348 102.742C680.61 103.528 681.46 103.953 682.246 103.691C683.031 103.429 683.456 102.58 683.194 101.794L680.348 102.742ZM674.283 94.8449C676.153 95.7796 678.996 98.6844 680.348 102.742L683.194 101.794C681.625 97.0869 678.3 93.4992 675.625 92.1616L674.283 94.8449Z" fill="#002B51"/>
<path d="M676.453 111.507C676.715 112.293 677.564 112.718 678.35 112.456C679.136 112.194 679.561 111.344 679.299 110.558L676.453 111.507ZM670.388 103.61C672.257 104.544 675.1 107.449 676.453 111.507L679.299 110.558C677.73 105.852 674.405 102.264 671.73 100.926L670.388 103.61Z" fill="#002B51"/>
<path d="M656.451 107.624C657.749 109.085 661.125 112.104 664.242 112.493" stroke="#002B51" stroke-width="3" stroke-linecap="round"/>
<path d="M659.86 111.033C657.425 111.033 654.99 113.954 655.477 115.902" stroke="#002B51" stroke-width="3" stroke-linecap="round"/>
<path d="M918.171 153.645L818.838 190.173L811.294 240.556L928.229 192.692C947.341 197.73 947.928 177.157 945.833 166.241C950.862 145.08 929.487 149.026 918.171 153.645Z" fill="#FF715C"/>
<path d="M931.078 158.265C930.105 160.05 926.209 163.231 918.418 161.673" stroke="#002B51" stroke-width="3" stroke-linecap="round"/>
<path d="M553.222 279.51C581.313 277.419 649.645 257.572 677.389 236.66L709.281 252.754C686.392 287.26 606.898 310.289 568.317 319.438C570.398 331.985 557.991 337.275 553.222 336.404V279.51Z" fill="#FF715C"/>
<path d="M713.422 314.569L729.49 265.876L762.114 279.51C762.114 322.38 742.15 336.404 724.887 346.86L696.866 356.444L671.567 363.851C666.189 373 659.429 373 653.36 373L659.859 329.176L713.422 314.569Z" fill="#FF715C"/>
<line x1="583.032" y1="146.887" x2="498.887" y2="173.968" stroke="#002B51" stroke-width="3" stroke-linecap="round"/>
<path d="M540.152 257.192L434 291.747" stroke="#002B51" stroke-width="3" stroke-linecap="round"/>
<path d="M544 288.266L493 307.266" stroke="#002B51" stroke-width="3" stroke-linecap="round"/>
<path d="M649.305 341.004L583.5 369.5" stroke="#002B51" stroke-width="3" stroke-linecap="round"/>
<path d="M938.085 125.667C926.996 126.9 916.559 126.293 911.45 125.691C910.751 125.608 910.169 126.24 910.326 126.926L917.856 159.869C917.944 160.253 918.249 160.552 918.638 160.618C926.051 161.872 930.769 158.637 932.369 156.668C932.458 156.558 932.516 156.429 932.547 156.291L939.186 126.889C939.339 126.213 938.774 125.59 938.085 125.667Z" fill="#D9D9D9"/>
<path d="M924.867 204.277L920.639 181.258C920.557 180.811 920.786 180.365 921.197 180.172L927.805 177.062C928.405 176.78 929.108 177.149 929.217 177.803L929.415 178.992C929.468 179.311 929.364 179.636 929.136 179.864L925.743 183.257C925.585 183.415 925.485 183.62 925.457 183.84L925.061 187.015C925.022 187.321 925.128 187.628 925.346 187.846L928.146 190.646C928.369 190.869 928.474 191.183 928.429 191.495L926.608 204.243C926.546 204.677 926.174 205 925.735 205C925.309 205 924.944 204.696 924.867 204.277Z" fill="#D9D9D9"/>
<path d="M867.5 112.5C876.3 124.5 899.5 126.167 910 125.5H938.122C938.365 125.5 938.608 125.405 938.79 125.242C963.889 102.861 949.43 84.7088 943.5 71.5001C932.5 47 914 50 924.5 63.0001C933.83 74.5521 939.844 79.5006 897.5 60.0001C859.5 42.5001 805 66.7693 841.5 78.0001C857.1 82.8002 871.667 92.0001 877 96.0001C861.5 85.5001 854.863 87.9795 846.5 89.5C835.5 91.5 821 91 829 98.0001C833.5 101.938 858.7 100.5 867.5 112.5Z" fill="#FFC43D"/>
<path d="M880 104.5C871.2 105.7 897.333 119 911.5 125.5C914.248 126.781 928.141 126.713 935.114 126.512C935.366 126.504 935.608 126.395 935.786 126.217C962.804 99.312 934.904 72.55 935.5 80C936.391 91.1342 934.505 97.1112 931.962 102.525C931.597 103.301 930.471 103.234 930.12 102.451C912.262 62.5557 875.632 79.0576 883.5 82.5C891.5 86 910 109 902.5 104.5C895 100 891 103 880 104.5Z" fill="#FF715C"/>
<path d="M921 162.5C925.382 162.987 927.67 166.542 928.157 172.873C928.157 174.983 927.816 177.669 924.748 179.203C921.827 180.663 918.613 179.787 917.444 176.281C916.146 179.852 908.582 187.48 902.35 181.637" stroke="#002B51" stroke-width="3" stroke-linecap="round"/>
<path d="M944.712 178.229C943.089 180.176 937.409 182.027 929.618 179.69" stroke="#002B51" stroke-width="3" stroke-linecap="round"/>
<path d="M926.158 183.098C925.022 185.208 924.016 189.818 929.08 191.376" stroke="#002B51" stroke-width="3" stroke-linecap="round"/>
<path d="M944.226 165.082C942.278 167.354 937.116 171.217 930.105 170.438" stroke="#002B51" stroke-width="3" stroke-linecap="round"/>
<line x1="810.938" y1="53.8796" x2="804.728" y2="50.9925" stroke="#FFC43D" stroke-width="3" stroke-linecap="round"/>
<line x1="836.651" y1="37.1854" x2="827.868" y2="29.2059" stroke="#FFC43D" stroke-width="3" stroke-linecap="round"/>
<line x1="920.181" y1="41.9086" x2="918.909" y2="36.819" stroke="#FFC43D" stroke-width="3" stroke-linecap="round"/>
<line x1="873.661" y1="46.6516" x2="869.659" y2="41.0938" stroke="#FF715C" stroke-width="3" stroke-linecap="round"/>
<line x1="894.108" y1="32.0397" x2="890.44" y2="20.8053" stroke="#FF715C" stroke-width="3" stroke-linecap="round"/>
<line x1="816.358" y1="85.3433" x2="809.343" y2="84.6418" stroke="#FF715C" stroke-width="3" stroke-linecap="round"/>
</svg>
