<svg width="750" height="391" viewBox="0 0 750 391" fill="none" xmlns="http://www.w3.org/2000/svg">
<path d="M22.304 153H24.824V144.288C24.824 142.68 24.608 140.424 24.464 138.816H24.56L25.976 142.896L29.048 151.32H30.776L33.848 142.896L35.288 138.816H35.384C35.24 140.424 35.024 142.68 35.024 144.288V153H37.592V135.336H34.376L31.184 144.288C30.8 145.44 30.464 146.64 30.032 147.84H29.936C29.528 146.64 29.168 145.44 28.736 144.288L25.52 135.336H22.304V153ZM47.2899 153.336C50.5539 153.336 53.5059 150.792 53.5059 146.424C53.5059 142.008 50.5539 139.464 47.2899 139.464C44.0019 139.464 41.0739 142.008 41.0739 146.424C41.0739 150.792 44.0019 153.336 47.2899 153.336ZM47.2899 151.056C45.2019 151.056 43.9299 149.208 43.9299 146.424C43.9299 143.616 45.2019 141.768 47.2899 141.768C49.3539 141.768 50.6739 143.616 50.6739 146.424C50.6739 149.208 49.3539 151.056 47.2899 151.056ZM62.0555 153.336C65.3195 153.336 68.2715 150.792 68.2715 146.424C68.2715 142.008 65.3195 139.464 62.0555 139.464C58.7675 139.464 55.8395 142.008 55.8395 146.424C55.8395 150.792 58.7675 153.336 62.0555 153.336ZM62.0555 151.056C59.9675 151.056 58.6955 149.208 58.6955 146.424C58.6955 143.616 59.9675 141.768 62.0555 141.768C64.1195 141.768 65.4395 143.616 65.4395 146.424C65.4395 149.208 64.1195 151.056 62.0555 151.056ZM76.0771 153.336C77.5651 153.336 78.9331 152.544 79.9411 151.536H80.0131L80.2291 153H82.5091V133.896H79.7251V138.768L79.8451 140.952C78.7891 140.04 77.8051 139.464 76.2931 139.464C73.3651 139.464 70.6531 142.128 70.6531 146.424C70.6531 150.792 72.7651 153.336 76.0771 153.336ZM76.7491 151.032C74.6851 151.032 73.5091 149.376 73.5091 146.376C73.5091 143.544 74.9971 141.768 76.8451 141.768C77.8291 141.768 78.7651 142.104 79.7251 142.992V149.424C78.7891 150.528 77.8291 151.032 76.7491 151.032ZM86.6343 153H89.4183V139.8H86.6343V153ZM88.0263 137.328C89.0343 137.328 89.7543 136.68 89.7543 135.672C89.7543 134.688 89.0343 134.04 88.0263 134.04C86.9943 134.04 86.3223 134.688 86.3223 135.672C86.3223 136.68 86.9943 137.328 88.0263 137.328ZM93.5484 153H96.3324V143.64C97.4844 142.488 98.3244 141.864 99.5484 141.864C101.084 141.864 101.756 142.752 101.756 145.056V153H104.54V144.696C104.54 141.36 103.292 139.464 100.484 139.464C98.6844 139.464 97.3164 140.448 96.1164 141.648H96.0444L95.8044 139.8H93.5484V153ZM113.061 158.928C117.285 158.928 119.973 156.864 119.973 154.32C119.973 152.064 118.341 151.104 115.221 151.104H112.773C111.117 151.104 110.565 150.6 110.565 149.832C110.565 149.184 110.877 148.8 111.285 148.44C111.885 148.704 112.557 148.824 113.133 148.824C115.917 148.824 118.101 147.192 118.101 144.288C118.101 143.28 117.741 142.416 117.237 141.888H119.733V139.8H115.077C114.573 139.608 113.901 139.464 113.133 139.464C110.421 139.464 108.021 141.216 108.021 144.216C108.021 145.776 108.885 147.048 109.773 147.72V147.816C109.029 148.344 108.309 149.232 108.309 150.264C108.309 151.344 108.813 152.04 109.509 152.472V152.592C108.285 153.312 107.589 154.344 107.589 155.472C107.589 157.752 109.893 158.928 113.061 158.928ZM113.133 147.048C111.789 147.048 110.661 145.968 110.661 144.216C110.661 142.44 111.765 141.432 113.133 141.432C114.525 141.432 115.629 142.44 115.629 144.216C115.629 145.968 114.501 147.048 113.133 147.048ZM113.469 157.104C111.285 157.104 109.941 156.336 109.941 155.064C109.941 154.392 110.277 153.72 111.069 153.12C111.621 153.264 112.197 153.312 112.821 153.312H114.813C116.421 153.312 117.285 153.672 117.285 154.776C117.285 155.976 115.773 157.104 113.469 157.104ZM123.6 136.632V138.624H128.856V150.504H123.6V152.52H130.92V136.632H123.6ZM122.256 136.632V154.368H124.344V136.632H122.256ZM123.48 143.184V145.176H129.888V143.184H123.48ZM125.832 132.72C125.664 133.992 125.256 135.816 124.872 137.016L126.696 137.448C127.176 136.344 127.776 134.664 128.28 133.104L125.832 132.72ZM134.232 136.512V138.6H141.456V136.512H134.232ZM140.664 136.512V136.968C140.376 147.288 140.016 151.344 139.224 152.184C138.96 152.52 138.672 152.592 138.192 152.592C137.616 152.592 136.176 152.568 134.616 152.448C135.024 153.048 135.312 154.008 135.36 154.656C136.728 154.704 138.168 154.752 139.032 154.656C139.944 154.536 140.544 154.296 141.12 153.504C142.104 152.28 142.416 148.512 142.752 137.592C142.776 137.304 142.776 136.512 142.776 136.512H140.664ZM134.544 132.696C133.776 135.96 132.456 139.248 130.824 141.336C131.352 141.624 132.288 142.272 132.696 142.632C134.328 140.352 135.816 136.776 136.728 133.2L134.544 132.696ZM133.416 143.04C134.664 144.792 136.224 147.168 136.92 148.632L138.864 147.456C138.096 146.04 136.464 143.712 135.192 142.032L133.416 143.04ZM152.136 135.288V137.352H167.496V135.288H152.136ZM154.848 141.288H164.592V144.36H154.848V141.288ZM152.76 139.416V146.256H166.776V139.416H152.76ZM154.584 146.64L152.712 147.216C155.304 151.68 160.008 154.152 166.44 155.04C166.728 154.416 167.304 153.504 167.784 153C161.544 152.376 156.792 150.264 154.584 146.64ZM158.544 132.864V143.616C158.544 147.624 158.04 151.536 151.2 153.192C151.68 153.672 152.328 154.56 152.592 155.064C159.792 152.928 160.776 148.392 160.776 143.64V132.864H158.544ZM150.768 132.696C149.4 136.248 147.096 139.752 144.744 141.984C145.128 142.512 145.752 143.736 145.968 144.264C148.656 141.576 151.248 137.424 152.88 133.368L150.768 132.696ZM148.32 139.152V155.112H150.48V137.016L150.456 136.992L148.32 139.152ZM175.272 139.032V141.096H185.184V139.032H175.272ZM172.224 142.824V144.816H176.688V149.256H172.224V151.248H178.848V142.824H172.224ZM181.08 142.824V155.064H183.312V144.864H188.088V142.824H181.08ZM187.344 142.824V149.496C187.344 149.784 187.248 149.856 186.936 149.88C186.624 149.88 185.544 149.88 184.368 149.856C184.632 150.456 184.92 151.32 184.992 151.944C186.72 151.944 187.848 151.944 188.592 151.584C189.36 151.224 189.552 150.624 189.552 149.52V142.824H187.344ZM171.216 142.824V153.24H173.304V142.824H171.216ZM180.456 132.408C178.176 135.528 173.496 138.456 168.984 139.584C169.488 140.184 170.016 141.12 170.304 141.768C174.864 140.304 179.688 137.136 182.256 133.728L180.456 132.408ZM181.44 133.872L179.52 134.664C181.896 137.784 185.928 140.448 190.008 141.672C190.392 141 191.088 140.016 191.664 139.488C187.632 138.576 183.528 136.32 181.44 133.872Z" fill="#002B51"/>
<path d="M22.6053 203.886H24.2853V198.078C24.2853 197.006 24.1413 195.502 24.0453 194.43H24.1093L25.0533 197.15L27.1013 202.766H28.2533L30.3013 197.15L31.2613 194.43H31.3253C31.2293 195.502 31.0853 197.006 31.0853 198.078V203.886H32.7973V192.11H30.6533L28.5253 198.078C28.2693 198.846 28.0453 199.646 27.7573 200.446H27.6933C27.4213 199.646 27.1813 198.846 26.8933 198.078L24.7493 192.11H22.6053V203.886ZM39.5826 204.11C41.7586 204.11 43.7266 202.414 43.7266 199.502C43.7266 196.558 41.7586 194.862 39.5826 194.862C37.3906 194.862 35.4386 196.558 35.4386 199.502C35.4386 202.414 37.3906 204.11 39.5826 204.11ZM39.5826 202.59C38.1906 202.59 37.3426 201.358 37.3426 199.502C37.3426 197.63 38.1906 196.398 39.5826 196.398C40.9586 196.398 41.8386 197.63 41.8386 199.502C41.8386 201.358 40.9586 202.59 39.5826 202.59ZM49.7463 204.11C51.9223 204.11 53.8903 202.414 53.8903 199.502C53.8903 196.558 51.9223 194.862 49.7463 194.862C47.5543 194.862 45.6023 196.558 45.6023 199.502C45.6023 202.414 47.5543 204.11 49.7463 204.11ZM49.7463 202.59C48.3543 202.59 47.5063 201.358 47.5063 199.502C47.5063 197.63 48.3543 196.398 49.7463 196.398C51.1223 196.398 52.0023 197.63 52.0023 199.502C52.0023 201.358 51.1223 202.59 49.7463 202.59ZM59.4141 204.11C60.4061 204.11 61.3181 203.582 61.9901 202.91H62.0381L62.1821 203.886H63.7021V191.15H61.8461V194.398L61.9261 195.854C61.2221 195.246 60.5661 194.862 59.5581 194.862C57.6061 194.862 55.7981 196.638 55.7981 199.502C55.7981 202.414 57.2061 204.11 59.4141 204.11ZM59.8621 202.574C58.4861 202.574 57.7021 201.47 57.7021 199.47C57.7021 197.582 58.6941 196.398 59.9261 196.398C60.5821 196.398 61.2061 196.622 61.8461 197.214V201.502C61.2221 202.238 60.5821 202.574 59.8621 202.574ZM66.7722 203.886H68.6282V195.086H66.7722V203.886ZM67.7002 193.438C68.3722 193.438 68.8522 193.006 68.8522 192.334C68.8522 191.678 68.3722 191.246 67.7002 191.246C67.0122 191.246 66.5642 191.678 66.5642 192.334C66.5642 193.006 67.0122 193.438 67.7002 193.438ZM71.7016 203.886H73.5576V197.646C74.3256 196.878 74.8856 196.462 75.7016 196.462C76.7256 196.462 77.1736 197.054 77.1736 198.59V203.886H79.0296V198.35C79.0296 196.126 78.1976 194.862 76.3256 194.862C75.1256 194.862 74.2136 195.518 73.4136 196.318H73.3656L73.2056 195.086H71.7016V203.886ZM85.03 207.838C87.846 207.838 89.638 206.462 89.638 204.766C89.638 203.262 88.55 202.622 86.47 202.622H84.838C83.734 202.622 83.366 202.286 83.366 201.774C83.366 201.342 83.574 201.086 83.846 200.846C84.246 201.022 84.694 201.102 85.078 201.102C86.934 201.102 88.39 200.014 88.39 198.078C88.39 197.406 88.15 196.83 87.814 196.478H89.478V195.086H86.374C86.038 194.958 85.59 194.862 85.078 194.862C83.27 194.862 81.67 196.03 81.67 198.03C81.67 199.07 82.246 199.918 82.838 200.366V200.43C82.342 200.782 81.862 201.374 81.862 202.062C81.862 202.782 82.198 203.246 82.662 203.534V203.614C81.846 204.094 81.382 204.782 81.382 205.534C81.382 207.054 82.918 207.838 85.03 207.838ZM85.078 199.918C84.182 199.918 83.43 199.198 83.43 198.03C83.43 196.846 84.166 196.174 85.078 196.174C86.006 196.174 86.742 196.846 86.742 198.03C86.742 199.198 85.99 199.918 85.078 199.918ZM85.302 206.622C83.846 206.622 82.95 206.11 82.95 205.262C82.95 204.814 83.174 204.366 83.702 203.966C84.07 204.062 84.454 204.094 84.87 204.094H86.198C87.27 204.094 87.846 204.334 87.846 205.07C87.846 205.87 86.838 206.622 85.302 206.622ZM91.128 197.342V198.686H105.288V197.342H91.128ZM98.264 200.222V201.534H104.248V200.222H98.264ZM97.576 197.998V203.998H99.112V197.998H97.576ZM94.728 200.574L93.48 201.006C94.76 204.286 96.936 204.958 100.664 204.958H105.128C105.208 204.51 105.448 203.838 105.672 203.502C104.696 203.534 101.464 203.534 100.728 203.534C97.736 203.518 95.656 203.07 94.728 200.574ZM93.736 199.134C93.336 201.39 92.328 203.15 90.664 204.206C91 204.43 91.592 204.99 91.816 205.262C93.576 203.998 94.728 201.998 95.24 199.342L93.736 199.134ZM94.184 194.222H102.088V195.31H94.184V194.222ZM94.184 192.11H102.088V193.182H94.184V192.11ZM92.728 190.99V196.414H103.624V190.99H92.728ZM108.984 198.126V199.614H119.992V198.126H108.984ZM108.984 202.814V204.302H119.96V202.814H108.984ZM108.248 193.47V205.246H109.752V194.99H119.24V205.198H120.824V193.47H108.248ZM113.672 190.398V203.598H115.224V190.398H113.672ZM123.496 196.83V198.478H138.216V196.83H123.496ZM147.608 193.486V194.862H154.28V193.486H147.608ZM147.816 196.718V198.126H153.992V196.718H147.816ZM147.24 200.158V201.582H154.632V200.158H147.24ZM147.736 190.91C148.216 191.742 148.648 192.846 148.776 193.582L150.072 193.102C149.912 192.366 149.464 191.294 148.936 190.494L147.736 190.91ZM152.568 190.366C152.344 191.214 151.864 192.398 151.496 193.15L152.744 193.47C153.128 192.766 153.592 191.694 154.024 190.718L152.568 190.366ZM150.136 194.174V205.246H151.592V194.174H150.136ZM139.768 193.806V195.086H147.432V193.806H139.768ZM140.616 191.166V192.446H145.16V196.43H140.536V197.71H146.552V191.166H140.616ZM141.432 199.182V205.246H142.808V199.182H141.432ZM141.992 199.182V200.494H145.336V203.102H141.992V204.414H146.808V199.182H141.992ZM142.408 191.646C142.2 195.806 141.608 199.214 139.544 201.182C139.848 201.454 140.36 202.062 140.536 202.366C142.84 200.03 143.56 196.398 143.848 191.71L142.408 191.646ZM160.184 194.91V202.622C160.184 204.414 160.728 204.942 162.616 204.942C163 204.942 165.192 204.942 165.608 204.942C167.48 204.942 167.928 204.014 168.12 200.974C167.704 200.862 167.048 200.59 166.68 200.318C166.568 202.974 166.424 203.518 165.512 203.518C165.016 203.518 163.176 203.518 162.776 203.518C161.928 203.518 161.768 203.39 161.768 202.622V194.91H160.184ZM157.48 195.982C157.272 197.998 156.76 200.462 156.12 202.126L157.656 202.766C158.264 200.99 158.712 198.254 158.952 196.27L157.48 195.982ZM167.48 196.094C168.36 197.982 169.208 200.526 169.496 202.158L171.016 201.55C170.68 199.886 169.816 197.438 168.888 195.534L167.48 196.094ZM160.856 191.822C162.36 192.862 164.296 194.43 165.176 195.422L166.28 194.254C165.336 193.262 163.368 191.79 161.88 190.814L160.856 191.822ZM179.672 195.342H185.128V197.102H179.672V195.342ZM179.672 192.398H185.128V194.126H179.672V192.398ZM178.296 191.102V198.398H186.584V191.102H178.296ZM178.136 200.062V201.438H186.776V200.062H178.136ZM176.952 203.342V204.718H187.32V203.342H176.952ZM172.456 191.39V192.814H177.592V191.39H172.456ZM172.616 196.014V197.422H177.336V196.014H172.616ZM172.28 202.126L172.632 203.662C174.104 203.182 175.976 202.558 177.736 201.966L177.464 200.51C175.592 201.134 173.608 201.758 172.28 202.126ZM174.344 191.95V202.094L175.8 201.838V191.95H174.344ZM181.768 191.678V197.774H181.64V203.982H183.192V197.774H183.064V191.678H181.768ZM189.912 192.782V194.062H192.936V196.11H189.912V197.406H194.28V192.782H189.912ZM189.96 198.686V199.982H193.08V202.382H189.96V203.662H194.44V198.686H189.96ZM189.336 192.782V204.718H190.696V192.782H189.336ZM194.824 191.182V192.558H203.448V191.182H194.824ZM191.272 190.366C191.144 191.198 190.84 192.35 190.568 193.134L191.768 193.374C192.136 192.654 192.584 191.55 192.936 190.574L191.272 190.366ZM198.408 191.806V205.214H199.832V191.806H198.408ZM195.4 194.302V202.798H196.792V195.662H202.312V194.302H195.4ZM201.592 194.302V201.326C201.592 201.486 201.544 201.534 201.384 201.534C201.24 201.55 200.776 201.55 200.264 201.534C200.456 201.902 200.632 202.462 200.68 202.846C201.512 202.846 202.072 202.83 202.488 202.59C202.904 202.366 203 201.982 203 201.342V194.302H201.592ZM206.216 195.47V205.198H207.656V196.718H218.088V195.47H206.216ZM217.32 195.47V203.71C217.32 203.934 217.224 204.014 216.952 204.014C216.712 204.03 215.784 204.046 214.888 204.014C215.064 204.334 215.256 204.814 215.32 205.15C216.648 205.15 217.496 205.134 218.008 204.958C218.536 204.766 218.712 204.43 218.712 203.71V195.47H217.32ZM210.168 199.438V200.526H214.168V202.142H210.168V203.214H215.416V199.438H210.168ZM209.368 199.438V203.934H210.648V199.438H209.368ZM205.368 192.03V193.326H219.528V192.03H205.368ZM208.744 193.678C209.08 194.27 209.48 195.07 209.672 195.55L211.016 195.038C210.808 194.574 210.376 193.822 210.04 193.262L208.744 193.678ZM214.76 193.342C214.504 194.062 213.976 195.086 213.56 195.742L214.728 196.062C215.192 195.47 215.768 194.526 216.28 193.678L214.76 193.342ZM211.4 190.654C211.656 191.31 211.944 192.206 212.072 192.766L213.576 192.334C213.416 191.79 213.112 190.942 212.84 190.286L211.4 190.654ZM210.264 196.126C210.152 197.566 209.704 198.238 207.64 198.606C207.896 198.846 208.232 199.342 208.328 199.646C210.808 199.102 211.432 198.062 211.592 196.126H210.264ZM213.048 196.142V197.454C213.048 198.51 213.256 199.006 214.376 199.006C214.648 199.006 215.592 199.006 215.896 199.006C216.232 199.006 216.648 198.99 216.856 198.91C216.808 198.59 216.792 198.222 216.76 197.87C216.536 197.934 216.104 197.95 215.864 197.95C215.64 197.95 214.904 197.95 214.696 197.95C214.424 197.95 214.392 197.822 214.392 197.47V196.142H213.048ZM222.552 192.782V194.062H225.576V196.11H222.552V197.406H226.92V192.782H222.552ZM222.6 198.686V199.982H225.72V202.382H222.6V203.662H227.08V198.686H222.6ZM221.976 192.782V204.718H223.336V192.782H221.976ZM227.464 191.182V192.558H236.088V191.182H227.464ZM223.912 190.366C223.784 191.198 223.48 192.35 223.208 193.134L224.408 193.374C224.776 192.654 225.224 191.55 225.576 190.574L223.912 190.366ZM231.048 191.806V205.214H232.472V191.806H231.048ZM228.04 194.302V202.798H229.432V195.662H234.952V194.302H228.04ZM234.232 194.302V201.326C234.232 201.486 234.184 201.534 234.024 201.534C233.88 201.55 233.416 201.55 232.904 201.534C233.096 201.902 233.272 202.462 233.32 202.846C234.152 202.846 234.712 202.83 235.128 202.59C235.544 202.366 235.64 201.982 235.64 201.342V194.302H234.232ZM246.008 201.742V203.198H250.904V201.742H246.008ZM245.464 191.886V204.494H246.936V193.326H250.072V204.382H251.624V191.886H245.464ZM240.856 191.838V205.214H242.36V191.838H240.856ZM237.832 195.134V196.542H244.968V195.134H237.832ZM240.76 195.646C240.168 197.79 238.808 200.302 237.464 201.694C237.72 202.078 238.088 202.67 238.248 203.102C239.704 201.534 241.08 198.542 241.8 196.014L240.76 195.646ZM243.928 190.526C242.504 191.102 240.056 191.598 237.944 191.886C238.104 192.222 238.296 192.75 238.36 193.086C240.552 192.83 243.144 192.366 244.936 191.71L243.928 190.526ZM242.248 196.75L241.496 197.486C242.104 198.254 243.528 200.206 244.056 201.102L244.952 199.854C244.552 199.342 242.744 197.246 242.248 196.75ZM254.76 195.246V196.414H259.576V195.246H254.76ZM254.76 197.374V198.542H259.608V197.374H254.76ZM254.088 193.07V194.302H260.264V193.07H254.088ZM255.432 199.55V200.782H258.264V203.07H255.432V204.302H259.592V199.55H255.432ZM254.76 199.55V205.022H256.072V199.55H254.76ZM255.768 190.894C256.2 191.566 256.712 192.51 256.936 193.102L258.168 192.414C257.912 191.838 257.4 190.974 256.952 190.318L255.768 190.894ZM261.784 190.942V192.35H265.992V190.942H261.784ZM260.04 197.406V198.814H267.096V197.406H260.04ZM266.552 197.406V197.646C265.576 201.022 262.76 203.102 259.448 203.87C259.72 204.206 260.056 204.83 260.216 205.23C263.848 204.19 266.84 201.95 268.04 197.742L267.096 197.342L266.84 197.406H266.552ZM261.912 198.67L260.616 199.118C262.04 202.206 264.488 204.302 267.976 205.198C268.168 204.782 268.584 204.142 268.92 203.822C265.576 203.118 263.096 201.246 261.912 198.67ZM261.512 190.942V192.686C261.512 193.79 261.272 195.038 259.528 195.982C259.8 196.206 260.328 196.782 260.504 197.086C262.472 195.982 262.904 194.222 262.904 192.734V190.942H261.512ZM265.24 190.942V194.542C265.24 195.934 265.496 196.478 266.744 196.478C266.952 196.478 267.496 196.478 267.704 196.478C268.024 196.478 268.344 196.462 268.552 196.366C268.488 196.03 268.456 195.47 268.44 195.102C268.232 195.15 267.912 195.182 267.704 195.182C267.544 195.182 267.032 195.182 266.872 195.182C266.664 195.182 266.648 195.022 266.648 194.558V190.942H265.24ZM271.384 195.246V196.414H276.696V195.246H271.384ZM271.384 197.374V198.542H276.664V197.374H271.384ZM270.68 193.07V194.302H277.368V193.07H270.68ZM272.136 199.55V200.782H275.384V203.07H272.136V204.302H276.696V199.55H272.136ZM271.48 199.55V205.022H272.776V199.55H271.48ZM272.52 190.894C272.952 191.566 273.464 192.51 273.704 193.102L274.904 192.414C274.648 191.838 274.152 190.974 273.704 190.318L272.52 190.894ZM277.336 195.838V197.326H285.048V195.838H277.336ZM280.328 190.67V205.23H281.896V190.67H280.328ZM287.832 192.782V194.062H290.856V196.11H287.832V197.406H292.2V192.782H287.832ZM287.88 198.686V199.982H291V202.382H287.88V203.662H292.36V198.686H287.88ZM287.256 192.782V204.718H288.616V192.782H287.256ZM292.744 191.182V192.558H301.368V191.182H292.744ZM289.192 190.366C289.064 191.198 288.76 192.35 288.488 193.134L289.688 193.374C290.056 192.654 290.504 191.55 290.856 190.574L289.192 190.366ZM296.328 191.806V205.214H297.752V191.806H296.328ZM293.32 194.302V202.798H294.712V195.662H300.232V194.302H293.32ZM299.512 194.302V201.326C299.512 201.486 299.464 201.534 299.304 201.534C299.16 201.55 298.696 201.55 298.184 201.534C298.376 201.902 298.552 202.462 298.6 202.846C299.432 202.846 299.992 202.83 300.408 202.59C300.824 202.366 300.92 201.982 300.92 201.342V194.302H299.512ZM306.696 190.51V199.566H308.264V190.51H306.696ZM312.44 190.51V199.566H314.024V190.51H312.44ZM303.096 198.59V200.062H317.672V198.59H303.096ZM303.704 193.646V195.102H317.128V193.646H303.704ZM311.624 201.582C313.096 202.702 315.032 204.27 315.96 205.23L317.432 204.334C316.408 203.358 314.408 201.854 312.984 200.814L311.624 201.582ZM307.432 200.862C306.568 201.998 304.808 203.358 303.256 204.19C303.608 204.446 304.168 204.926 304.472 205.246C306.072 204.334 307.864 202.862 309.032 201.47L307.432 200.862ZM322.648 194.062V195.358H330.728V194.062H322.648ZM323.432 196.83V203.182H324.824V196.83H323.432ZM324.2 196.83V198.094H328.52V200.782H324.2V202.046H329.928V196.83H324.2ZM319.992 191.182V205.262H321.464V192.622H332.776V191.182H319.992ZM331.896 191.182V203.406C331.896 203.678 331.8 203.774 331.512 203.79C331.24 203.806 330.312 203.806 329.368 203.774C329.608 204.158 329.832 204.846 329.896 205.246C331.272 205.262 332.104 205.214 332.648 204.974C333.192 204.734 333.384 204.27 333.384 203.422V191.182H331.896ZM25.1173 226.486V227.702H32.9893V226.486H25.1173ZM24.8613 229.222V230.486H33.2933V229.222H24.8613ZM29.9493 226.87V233.942H31.2933V226.87H29.9493ZM26.7333 226.934V229.91C26.7333 230.758 26.3973 232.39 24.8933 233.302C25.2133 233.51 25.6773 233.926 25.8853 234.198C27.6293 233.014 28.0453 230.918 28.0453 229.91V226.934H26.7333ZM23.1813 222.246V223.27H27.4693V222.246H23.1813ZM30.5733 222.246V223.27H34.8933V222.246H30.5733ZM34.3013 220.038V232.374C34.3013 232.614 34.2213 232.71 33.9653 232.71C33.7093 232.726 32.8933 232.726 32.0773 232.694C32.2853 233.094 32.4933 233.798 32.5413 234.198C33.7733 234.214 34.5733 234.182 35.1013 233.926C35.6293 233.67 35.7893 233.222 35.7893 232.39V220.038H34.3013ZM23.3093 220.038V221.158H26.9893V224.438H23.3093V225.558H28.4133V220.038H23.3093ZM35.0533 220.038H29.6613V225.59H35.0533V224.47H31.1013V221.158H35.0533V220.038ZM22.4133 220.038V234.246H23.9013V220.038H22.4133ZM46.0453 224.182V225.35H49.3253V224.182H46.0453ZM44.8293 228.838V229.894H50.2533V228.838H44.8293ZM39.5333 220.006V221.222H43.9813V220.006H39.5333ZM43.5813 220.006V220.246C42.6533 222.358 40.1893 224.054 37.7893 224.79C38.0453 225.046 38.4133 225.574 38.6053 225.894C41.2453 224.966 43.8373 223.158 45.0213 220.422L44.0773 219.958L43.8373 220.006H43.5813ZM46.4773 219.43L45.2613 219.798C46.5573 222.646 48.9093 224.758 51.9973 225.734C52.2053 225.366 52.5893 224.838 52.9093 224.55C49.9333 223.766 47.5973 221.862 46.4773 219.43ZM49.3733 219.494C48.8293 220.118 47.8533 220.982 47.1653 221.494L48.0453 222.182C48.7653 221.686 49.7093 220.966 50.4773 220.262L49.3733 219.494ZM51.3573 221.094C50.7973 221.702 49.7893 222.566 49.0693 223.078L49.9813 223.766C50.7173 223.286 51.6933 222.566 52.4613 221.862L51.3573 221.094ZM40.2373 224.246V225.414H42.7653V228.022H44.1253V224.246H40.2373ZM39.7253 226.87C39.5813 228.054 39.3573 229.574 39.1333 230.566H40.4133C40.6053 229.606 40.8133 228.102 40.9733 226.87H39.7253ZM42.7653 229.43V229.622C42.6213 231.622 42.4453 232.47 42.1733 232.694C42.0453 232.822 41.8693 232.838 41.5813 232.838C41.2773 232.838 40.4293 232.822 39.5813 232.758C39.8213 233.11 39.9973 233.638 40.0133 234.038C40.8933 234.086 41.7253 234.086 42.1573 234.054C42.6693 234.022 43.0053 233.91 43.3253 233.59C43.7253 233.19 43.9173 232.198 44.0933 229.99C44.1253 229.798 44.1413 229.43 44.1413 229.43H42.7653ZM45.4853 224.182V225.382C45.4853 226.15 45.2933 227.014 44.0453 227.702C44.3173 227.878 44.8133 228.374 45.0053 228.646C46.4293 227.782 46.7653 226.518 46.7653 225.414V224.182H45.4853ZM49.9333 228.838V229.014C49.0693 231.286 46.7173 232.63 44.0133 233.142C44.2533 233.43 44.5413 233.926 44.6693 234.246C47.6933 233.526 50.2053 232.038 51.2773 229.094L50.4453 228.79L50.2053 228.838H49.9333ZM40.2853 226.87L40.0773 228.022H43.2453V226.87H40.2853ZM39.8213 229.43L39.5973 230.566H43.1493V229.43H39.8213ZM39.0693 222.182C39.7733 222.614 40.6373 223.254 41.0373 223.702L41.9493 222.79C41.5173 222.358 40.6373 221.766 39.9333 221.382L39.0693 222.182ZM48.6373 224.182V226.63C48.6373 227.75 48.8613 228.198 49.9973 228.198C50.2213 228.198 50.9733 228.198 51.1973 228.198C51.5173 228.198 51.8533 228.198 52.0613 228.118C52.0133 227.83 51.9813 227.382 51.9653 227.078C51.7733 227.126 51.3893 227.142 51.1653 227.142C50.9893 227.142 50.3333 227.142 50.1573 227.142C49.9333 227.142 49.9013 227.03 49.9013 226.646V224.182H48.6373ZM44.7173 230.678C46.6693 231.75 49.3093 233.334 50.6053 234.262L51.3733 233.27C50.0133 232.342 47.3413 230.838 45.4373 229.83L44.7173 230.678ZM55.8853 221.974V223.302H59.3893V231.222H55.8853V232.566H60.7653V221.974H55.8853ZM54.9893 221.974V233.798H56.3813V221.974H54.9893ZM55.8053 226.342V227.67H60.0773V226.342H55.8053ZM57.3733 219.366C57.2613 220.214 56.9893 221.43 56.7333 222.23L57.9493 222.518C58.2693 221.782 58.6693 220.662 59.0053 219.622L57.3733 219.366ZM62.9733 221.894V223.286H67.7893V221.894H62.9733ZM67.2613 221.894V222.198C67.0693 229.078 66.8293 231.782 66.3013 232.342C66.1253 232.566 65.9333 232.614 65.6133 232.614C65.2293 232.614 64.2693 232.598 63.2293 232.518C63.5013 232.918 63.6933 233.558 63.7253 233.99C64.6373 234.022 65.5973 234.054 66.1733 233.99C66.7813 233.91 67.1813 233.75 67.5653 233.222C68.2213 232.406 68.4293 229.894 68.6533 222.614C68.6693 222.422 68.6693 221.894 68.6693 221.894H67.2613ZM63.1813 219.35C62.6693 221.526 61.7893 223.718 60.7013 225.11C61.0533 225.302 61.6773 225.734 61.9493 225.974C63.0373 224.454 64.0293 222.07 64.6373 219.686L63.1813 219.35ZM62.4293 226.246C63.2613 227.414 64.3013 228.998 64.7653 229.974L66.0613 229.19C65.5493 228.246 64.4613 226.694 63.6133 225.574L62.4293 226.246ZM77.2613 228.614V229.542H83.5013V228.614H77.2613ZM75.9333 220.71V221.622H84.8293V220.71H75.9333ZM76.3813 222.646V223.526H84.3973V222.646H76.3813ZM75.5173 224.646V225.558H85.3253V224.646H75.5173ZM77.2613 230.758V231.654H83.5333V230.758H77.2613ZM83.1813 226.502V232.854C83.1813 233.046 83.1173 233.11 82.8933 233.126C82.6853 233.142 81.9173 233.142 81.1013 233.11C81.2453 233.398 81.4053 233.846 81.4533 234.15C82.5893 234.15 83.3093 234.134 83.7573 233.958C84.2053 233.798 84.3173 233.478 84.3173 232.87V226.502H83.1813ZM79.7573 219.446V224.934H80.9413V219.446H79.7573ZM72.9253 219.43V234.134H74.0613V219.43H72.9253ZM71.2933 222.534C71.1813 223.814 70.8773 225.574 70.4933 226.662L71.4853 226.998C71.8693 225.798 72.1573 223.958 72.2373 222.678L71.2933 222.534ZM74.1413 222.118C74.5253 222.902 74.9573 223.958 75.1333 224.582L75.9813 224.134C75.8053 223.526 75.3733 222.518 74.9733 221.75L74.1413 222.118ZM76.5893 226.502V229.43C76.5893 230.694 76.4933 232.326 75.6133 233.526C75.8533 233.67 76.3173 234.102 76.4613 234.342C77.5173 232.966 77.7093 230.95 77.7093 229.462V226.502H76.5893ZM77.2293 226.502V227.398H83.8213V226.502H77.2293ZM93.2133 221.382V222.438H99.1173V221.382H93.2133ZM94.8133 229.814V230.774H100.189V229.814H94.8133ZM94.7813 232.454V233.462H100.157V232.454H94.7813ZM92.3653 224.454V225.558H101.677V224.454H92.3653ZM95.8213 219.462V225.11H96.9573V219.462H95.8213ZM94.3013 227.126V234.118H95.4213V228.15H99.5653V234.054H100.733V227.126H94.3013ZM100.221 220.31C98.5093 223.894 95.5653 226.678 91.9813 228.31C92.2373 228.55 92.6213 229.03 92.7813 229.27C96.3813 227.446 99.4373 224.518 101.309 220.662L100.221 220.31ZM87.4373 229.974C87.4373 229.75 88.2213 229.398 88.2213 229.398V229.382C89.7413 227.814 91.3093 225.638 92.5893 223.462L91.6293 222.886C90.5253 225.046 88.8293 227.302 88.3013 227.878C87.7893 228.47 87.4373 228.87 87.0853 228.934C87.2133 229.222 87.3893 229.75 87.4373 229.974ZM87.4373 229.974C87.7413 229.798 88.2693 229.638 91.9653 228.902C91.9493 228.646 91.9493 228.214 91.9813 227.91L87.9653 228.63L87.3893 229.03L87.4373 229.974ZM87.3253 226.134C87.3253 225.894 88.0293 225.526 88.0293 225.526V225.494C89.1013 224.038 90.2213 221.958 91.0053 219.974L89.9173 219.494C89.3093 221.414 88.1893 223.51 87.8373 224.054C87.5013 224.598 87.2293 224.982 86.9573 225.046C87.0853 225.334 87.2773 225.894 87.3253 226.134ZM87.3253 226.134C87.5813 226.006 88.0133 225.91 90.6853 225.558C90.6853 225.334 90.7173 224.918 90.7653 224.614L87.8533 224.918L87.2933 225.286L87.3253 226.134ZM87.0533 232.038L87.2933 233.19C88.7493 232.806 90.6853 232.326 92.5573 231.846L92.4453 230.822C90.4453 231.286 88.3973 231.766 87.0533 232.038ZM109.517 221.126V222.134H115.165V224.358H109.517V225.382H116.333V221.126H109.517ZM112.093 219.398C111.949 220.022 111.645 220.918 111.405 221.526L112.493 221.766C112.797 221.222 113.149 220.406 113.469 219.622L112.093 219.398ZM108.941 221.126V231.494H110.093V221.126H108.941ZM109.597 226.87V227.894H115.805V230.486H109.597V231.494H116.957V226.87H109.597ZM103.997 220.086C104.701 220.87 105.597 221.99 106.029 222.646L106.957 221.99C106.509 221.35 105.629 220.326 104.893 219.542L103.997 220.086ZM103.421 223.142V224.15H106.925V223.142H103.421ZM106.269 230.486L105.469 230.854C106.669 233.494 108.765 233.942 112.509 233.942C114.269 233.942 116.285 233.894 117.789 233.814C117.853 233.478 118.013 232.918 118.189 232.662C116.557 232.79 114.205 232.87 112.525 232.87C109.341 232.87 107.261 232.582 106.269 230.486ZM106.557 227.142V227.35C106.093 230.294 104.845 232.31 103.117 233.382C103.373 233.558 103.757 233.958 103.917 234.214C105.725 233.014 107.085 230.758 107.645 227.334L107.053 227.11L106.845 227.142H106.557ZM103.661 228.342C103.789 228.214 104.205 228.118 104.621 228.118H106.893L106.909 227.142H104.237L103.661 227.43V228.342ZM103.661 228.342C103.661 228.038 104.573 227.59 104.573 227.59C105.501 226.566 107.005 224.534 107.789 223.446L106.989 223.062L106.621 223.222V223.27C106.077 224.118 104.509 226.278 103.997 226.774C103.725 227.078 103.453 227.19 103.213 227.254C103.341 227.51 103.581 228.07 103.661 228.342ZM121.197 221.19H123.373V224.022H121.197V221.19ZM120.237 220.15V225.062H124.381V220.15H120.237ZM121.997 224.518V231.958H122.973V224.518H121.997ZM120.173 226.566V232.438H121.101V226.566H120.173ZM119.549 232.182L119.773 233.286C121.197 232.886 123.085 232.374 124.877 231.862L124.765 230.838C122.829 231.35 120.861 231.894 119.549 232.182ZM122.509 227.398V228.454H124.493V227.398H122.509ZM129.309 219.51C129.037 221.782 128.493 223.83 127.437 225.142C127.661 225.318 128.045 225.654 128.205 225.846C129.357 224.374 129.981 222.15 130.317 219.638L129.309 219.51ZM129.261 229.062L128.445 229.302C129.149 233.222 130.557 233.958 132.589 233.958H134.157C134.205 233.67 134.349 233.174 134.493 232.902C134.109 232.918 132.941 232.918 132.669 232.918C131.117 232.918 129.821 232.342 129.261 229.062ZM131.229 228.374V229.414H133.981V228.374H131.229ZM132.221 219.51C131.997 221.75 131.485 223.638 130.317 224.854C130.541 225.014 130.925 225.366 131.053 225.558C132.317 224.198 132.941 222.118 133.213 219.606L132.221 219.51ZM131.789 222.486C132.509 223.462 133.389 224.79 133.789 225.622L134.541 224.886C134.109 224.102 133.213 222.822 132.461 221.846L131.789 222.486ZM129.565 221.782L129.037 222.326C129.341 222.742 130.077 223.846 130.333 224.358L130.941 223.366C130.749 223.11 129.821 222.038 129.565 221.782ZM126.717 223.094C126.269 224.662 125.325 226.63 124.253 227.926C124.429 228.102 124.717 228.486 124.845 228.694C126.029 227.27 127.069 225.174 127.709 223.382L126.717 223.094ZM126.589 219.478C126.173 220.678 125.293 222.182 124.381 223.158C124.589 223.334 124.909 223.686 125.069 223.894C126.061 222.822 127.021 221.19 127.629 219.798L126.589 219.478ZM128.477 226.966C128.445 228.934 128.301 231.958 127.021 233.574C127.245 233.702 127.597 234.022 127.773 234.182C129.181 232.486 129.421 229.222 129.501 227.014L128.477 226.966ZM130.669 225.622V233.158H131.709V225.622H130.669ZM125.837 225.814V234.15H126.845V225.03L126.685 224.982L125.837 225.814ZM147.389 221.766C147.229 222.598 146.861 223.846 146.573 224.614L147.293 224.854C147.613 224.134 147.981 222.982 148.301 222.022L147.389 221.766ZM144.125 221.99C144.493 222.71 144.845 223.67 144.957 224.31L145.741 224.022C145.613 223.398 145.261 222.438 144.877 221.734L144.125 221.99ZM142.077 220.214V234.198H143.165V221.286H149.581V220.214H142.077ZM149.197 220.214V232.822C149.197 233.046 149.133 233.11 148.925 233.126C148.717 233.126 148.061 233.142 147.373 233.11C147.533 233.398 147.677 233.894 147.709 234.166C148.701 234.182 149.357 234.15 149.757 233.974C150.157 233.782 150.285 233.478 150.285 232.822V220.214H149.197ZM143.565 224.438V225.382H148.845V224.438H143.565ZM143.741 227.078V228.038H148.637V227.078H143.741ZM145.277 225.67C145.549 226.134 145.837 226.79 145.965 227.206L146.845 226.838C146.717 226.438 146.397 225.814 146.125 225.35L145.277 225.67ZM139.917 225.862C140.333 226.87 140.797 228.198 140.957 228.998L141.869 228.63C141.661 227.878 141.213 226.566 140.765 225.574L139.917 225.862ZM138.333 229.862C138.525 230.95 138.701 232.374 138.717 233.302L139.629 233.094C139.581 232.15 139.389 230.758 139.181 229.686L138.333 229.862ZM136.653 229.75C136.509 231.046 136.269 232.486 135.901 233.462C136.141 233.526 136.589 233.686 136.797 233.798C137.117 232.806 137.421 231.302 137.581 229.91L136.653 229.75ZM136.285 225.446C136.285 225.206 136.973 224.854 136.973 224.854V224.838C138.013 223.558 139.069 221.686 139.869 219.91L138.861 219.462C138.221 221.206 137.133 223.046 136.797 223.526C136.477 224.006 136.189 224.342 135.933 224.406C136.061 224.694 136.237 225.222 136.285 225.446ZM136.285 225.446C136.525 225.318 136.941 225.238 139.437 224.95C139.453 224.726 139.485 224.326 139.533 224.038L136.797 224.278L136.269 224.614L136.285 225.446ZM136.381 229.046C136.381 228.822 137.085 228.486 137.085 228.486V228.454C138.557 226.854 140.077 224.598 141.261 222.39L140.317 221.83C139.309 224.022 137.693 226.326 137.197 226.918C136.717 227.526 136.365 227.942 136.045 228.006C136.173 228.294 136.349 228.822 136.381 229.046ZM136.381 229.046C136.685 228.886 137.197 228.758 141.133 228.15C141.117 227.926 141.117 227.526 141.149 227.254L136.893 227.846L136.349 228.214L136.381 229.046ZM140.077 229.542C140.413 230.518 140.813 231.814 140.973 232.678L141.821 232.374C141.645 231.542 141.245 230.262 140.877 229.27L140.077 229.542ZM144.333 227.542V229.606C144.333 230.662 144.573 231.046 145.629 231.046C145.869 231.046 147.373 231.046 147.709 231.046C148.093 231.046 148.525 231.046 148.733 230.982C148.701 230.742 148.669 230.358 148.653 230.086C148.397 230.15 147.949 230.15 147.677 230.15C147.389 230.15 145.997 230.15 145.709 230.15C145.389 230.15 145.325 230.022 145.325 229.622V227.542H144.333ZM152.557 222.47V223.574H158.781V222.47H152.557ZM152.365 231.382L152.653 232.582C154.333 232.15 156.589 231.59 158.701 231.03L158.589 229.926C156.317 230.486 153.933 231.062 152.365 231.382ZM153.197 224.502C153.549 226.31 153.885 228.662 153.965 230.23L154.973 230.038C154.877 228.454 154.541 226.134 154.141 224.31L153.197 224.502ZM156.893 224.118C156.685 226.102 156.253 228.998 155.837 230.678L156.717 230.902C157.165 229.222 157.693 226.438 158.029 224.326L156.893 224.118ZM154.429 219.862C154.861 220.614 155.325 221.638 155.501 222.294L156.589 221.926C156.397 221.27 155.917 220.278 155.453 219.542L154.429 219.862ZM162.397 222.774V223.91H166.989V222.774H162.397ZM159.645 232.262V233.398H165.693V232.262H159.645ZM161.693 219.446V227.606H162.909V219.446H161.693ZM159.085 227.11V234.15H160.253V228.23H165.085V234.086H166.301V227.11H159.085ZM178.535 229.878C180.215 229.302 181.303 227.99 181.303 226.262C181.303 225.142 180.823 224.406 179.927 224.406C179.287 224.406 178.711 224.806 178.711 225.558C178.711 226.31 179.255 226.71 179.911 226.71C180.215 226.71 180.535 226.63 180.759 226.342L179.895 225.126L180.199 226.47C180.199 227.686 179.479 228.502 178.167 229.03L178.535 229.878ZM190.935 226.758V234.182H192.119V227.83H200.279V234.118H201.495V226.758H190.935ZM191.591 229.606V230.598H200.695V229.606H191.591ZM191.591 232.454V233.526H200.695V232.454H191.591ZM190.343 219.494V223.302C190.343 224.822 191.015 225.35 192.951 225.35C193.511 225.35 198.567 225.35 199.527 225.35C200.599 225.35 201.735 225.318 202.151 225.238C202.103 224.966 202.023 224.502 201.975 224.15C201.447 224.246 200.199 224.294 199.415 224.294C198.455 224.294 193.767 224.294 192.855 224.294C191.815 224.294 191.559 224.022 191.559 223.334V219.494H190.343ZM191.159 221.254V222.31H201.335V221.254H191.159ZM205.479 221.926V223.094H219.495V221.926H205.479ZM210.439 226.998V228.118H218.871V226.998H210.439ZM209.815 232.662V233.798H219.495V232.662H209.815ZM214.055 223.91V233.27H215.255V223.91H214.055ZM210.743 219.446C209.847 222.742 207.975 226.294 205.095 228.326C205.287 228.598 205.591 229.11 205.719 229.43C208.903 227.142 210.855 223.414 211.975 219.75L210.743 219.446ZM207.575 226.038V234.118H208.775V226.038H207.575ZM224.519 219.51C223.751 221.99 222.487 224.438 221.079 226.038C221.287 226.342 221.607 226.998 221.719 227.27C223.303 225.398 224.727 222.598 225.639 219.83L224.519 219.51ZM223.239 223.462V234.166H224.423V222.342L224.375 222.31L223.239 223.462ZM228.039 221.27H233.831V224.566H228.039V221.27ZM226.887 220.198V225.638H235.031V220.198H226.887ZM230.871 228.102V229.238H235.319V228.102H230.871ZM230.359 225.094V232.598L231.543 233.11V225.094H230.359ZM227.943 229.11L227.015 229.462C228.151 233.094 230.327 233.814 233.303 233.814H235.863C235.927 233.494 236.103 232.95 236.263 232.678C235.687 232.678 233.815 232.694 233.383 232.678C230.919 232.678 228.839 232.166 227.943 229.11ZM227.207 227.222C226.935 229.894 226.295 232.118 224.839 233.494C225.111 233.654 225.607 234.006 225.799 234.198C227.287 232.662 228.039 230.31 228.359 227.334L227.207 227.222ZM244.535 222.102H244.423L243.431 223.158V231.062H244.535V223.11H251.863V222.102H244.535ZM243.959 224.726V225.686H251.431V224.726H243.959ZM243.991 227.35V228.31H251.431V227.35H243.991ZM243.959 230.038V231.062H252.231V230.038H243.959ZM247.335 222.518V230.55H248.407V222.518H247.335ZM244.695 219.558C243.975 221.654 242.807 223.75 241.527 225.126C241.735 225.35 242.071 225.846 242.199 226.07C243.591 224.534 244.887 222.182 245.719 219.846L244.695 219.558ZM246.903 219.974C247.367 220.79 247.879 221.878 248.071 222.534L249.127 222.198C248.919 221.526 248.391 220.47 247.895 219.686L246.903 219.974ZM238.455 220.006C239.159 220.79 240.055 221.91 240.487 222.582L241.415 221.926C240.967 221.27 240.087 220.246 239.351 219.478L238.455 220.006ZM237.879 223.142V224.15H241.383V223.142H237.879ZM240.727 230.486L239.927 230.854C241.127 233.494 243.223 233.942 246.967 233.942C248.727 233.942 250.743 233.894 252.247 233.814C252.311 233.478 252.471 232.918 252.647 232.662C251.015 232.79 248.663 232.87 246.983 232.87C243.799 232.87 241.719 232.582 240.727 230.486ZM240.951 227.142V227.35C240.503 230.278 239.271 232.31 237.575 233.382C237.799 233.558 238.199 233.958 238.359 234.214C240.151 233.014 241.479 230.758 242.039 227.334L241.431 227.11L241.223 227.142H240.951ZM238.103 228.342C238.215 228.214 238.631 228.118 239.047 228.118H241.335L241.351 227.142H238.679L238.103 227.43V228.342ZM238.103 228.342C238.103 228.038 238.999 227.59 238.999 227.59C239.943 226.566 241.431 224.534 242.215 223.446L241.415 223.062L241.047 223.222V223.27C240.503 224.118 238.935 226.278 238.423 226.774C238.151 227.094 237.895 227.19 237.655 227.254C237.783 227.51 238.023 228.07 238.103 228.342ZM260.935 219.478C260.391 220.998 259.447 222.454 258.359 223.414C258.631 223.574 259.079 223.958 259.255 224.166C260.375 223.094 261.415 221.462 262.039 219.75L260.935 219.478ZM260.903 223.878C260.471 224.998 259.735 226.102 258.887 226.854C259.143 227.03 259.607 227.366 259.783 227.558C260.631 226.726 261.495 225.446 262.023 224.182L260.903 223.878ZM260.743 220.966L260.327 222.006H267.687V220.966H260.743ZM265.351 224.294C266.119 225.302 266.967 226.678 267.319 227.574L268.343 227.03C267.975 226.15 267.127 224.822 266.311 223.846L265.351 224.294ZM267.335 220.966V221.126C267.047 221.942 266.583 222.95 266.215 223.574L267.255 223.798C267.639 223.142 268.151 222.054 268.551 221.126L267.735 220.918L267.527 220.966H267.335ZM257.831 219.414C256.935 221.19 255.479 222.966 253.991 224.086C254.231 224.31 254.631 224.79 254.791 225.03C256.311 223.75 257.895 221.766 258.919 219.766L257.831 219.414ZM256.343 222.454V228.598H257.495V221.334L257.479 221.318L256.343 222.454ZM257.639 229.446V232.23C257.639 233.542 258.135 233.878 260.039 233.878C260.439 233.878 263.463 233.878 263.879 233.878C265.463 233.878 265.863 233.382 266.023 231.35C265.687 231.286 265.191 231.11 264.919 230.902C264.823 232.534 264.679 232.758 263.799 232.758C263.127 232.758 260.599 232.758 260.087 232.758C259.031 232.758 258.839 232.678 258.839 232.214V229.446H257.639ZM260.071 228.742C260.935 229.59 261.927 230.79 262.343 231.574L263.335 230.982C262.887 230.182 261.879 229.03 260.983 228.214L260.071 228.742ZM265.719 229.67C266.455 230.806 267.175 232.358 267.415 233.334L268.567 232.87C268.295 231.878 267.543 230.39 266.791 229.254L265.719 229.67ZM255.831 229.526C255.463 230.598 254.855 232.054 254.199 232.998L255.335 233.526C255.927 232.55 256.503 231.03 256.903 229.974L255.831 229.526ZM263.287 222.614V228.55H264.439V222.614H263.287ZM271.863 222.022V223.094H275.607V231.398H271.863V232.486H276.727V222.022H271.863ZM271.143 222.022V233.766H272.263V222.022H271.143ZM271.783 226.47V227.542H276.199V226.47H271.783ZM273.591 219.414C273.463 220.246 273.159 221.462 272.887 222.23L273.847 222.47C274.167 221.75 274.567 220.646 274.887 219.654L273.591 219.414ZM278.999 221.974V223.094H283.911V221.974H278.999ZM283.495 221.974V222.23C283.271 229.286 283.015 231.942 282.487 232.518C282.311 232.726 282.119 232.774 281.799 232.774C281.431 232.774 280.471 232.758 279.431 232.678C279.655 232.998 279.799 233.494 279.831 233.846C280.727 233.894 281.671 233.926 282.215 233.862C282.775 233.814 283.143 233.67 283.495 233.206C284.135 232.422 284.359 229.942 284.615 222.598C284.615 222.422 284.615 221.974 284.615 221.974H283.495ZM279.335 219.382C278.823 221.606 277.943 223.814 276.855 225.222C277.143 225.382 277.639 225.718 277.847 225.91C278.951 224.39 279.895 222.038 280.487 219.654L279.335 219.382ZM278.599 226.134C279.479 227.302 280.551 228.886 281.031 229.862L282.055 229.222C281.543 228.278 280.439 226.726 279.527 225.59L278.599 226.134ZM290.807 223.926V231.846C290.807 233.446 291.303 233.878 293.047 233.878C293.399 233.878 295.879 233.878 296.279 233.878C298.071 233.878 298.455 232.982 298.615 229.942C298.295 229.846 297.767 229.638 297.479 229.414C297.351 232.182 297.207 232.742 296.215 232.742C295.655 232.742 293.575 232.742 293.143 232.742C292.231 232.742 292.039 232.598 292.039 231.862V223.926H290.807ZM288.247 225.11C288.007 227.014 287.479 229.526 286.791 231.174L287.991 231.686C288.647 229.958 289.143 227.238 289.399 225.35L288.247 225.11ZM298.263 225.126C299.159 227.03 300.039 229.558 300.343 231.206L301.543 230.742C301.191 229.078 300.295 226.614 299.367 224.71L298.263 225.126ZM291.559 220.806C293.079 221.878 294.967 223.462 295.847 224.454L296.711 223.558C295.783 222.55 293.863 221.046 292.375 220.022L291.559 220.806ZM310.007 224.262H315.959V226.326H310.007V224.262ZM310.007 221.238H315.959V223.27H310.007V221.238ZM308.919 220.198V227.366H317.111V220.198H308.919ZM308.711 229.238V230.342H317.335V229.238H308.711ZM307.479 232.55V233.638H317.863V232.55H307.479ZM303.127 220.534V221.67H308.119V220.534H303.127ZM303.303 225.158V226.294H307.895V225.158H303.303ZM302.967 231.286L303.255 232.518C304.679 232.038 306.503 231.43 308.247 230.838L308.039 229.686C306.183 230.31 304.263 230.934 302.967 231.286ZM305.127 220.982V231.126L306.279 230.902V220.982H305.127ZM312.455 220.694V226.854H312.375V233.046H313.591V226.854H313.511V220.694H312.455ZM322.119 219.478C321.495 221.846 320.487 224.166 319.255 225.702C319.447 226.006 319.767 226.646 319.863 226.934C321.255 225.126 322.471 222.422 323.223 219.766L322.119 219.478ZM321.047 223.59V234.134H322.119V222.55L322.103 222.534L321.047 223.59ZM329.303 219.51V232.406H330.327V219.51H329.303ZM326.567 222.918V223.862H334.103V222.918H326.567ZM326.615 229.478V230.454H333.735V229.478H326.615ZM327.031 227.286V228.23H333.223V227.286H327.031ZM323.239 220.614V221.67H325.943V220.614H323.239ZM323.751 227.702L322.871 228.038C324.343 233.11 327.383 233.958 331.127 233.958H333.719C333.783 233.654 333.959 233.158 334.119 232.902C333.479 232.918 331.655 232.918 331.175 232.918C327.927 232.902 324.983 232.214 323.751 227.702ZM327.271 220.79V221.67H332.007V225.158H327.271V226.07H332.951V220.79H327.271ZM323.927 225.302L323.591 226.278H325.863V225.302H323.927ZM325.607 225.302V225.526C325.271 229.622 324.167 232.102 322.295 233.398C322.519 233.558 322.935 233.942 323.111 234.166C325.031 232.742 326.247 229.99 326.663 225.446L326.023 225.286L325.831 225.302H325.607ZM323.319 226.678C323.319 226.422 324.151 226.086 324.151 226.086V226.07C325.047 224.758 326.007 222.854 326.823 220.918L326.103 220.438L325.687 220.63V220.71C325.127 222.454 324.087 224.294 323.799 224.79C323.495 225.286 323.095 225.702 322.839 225.766C322.983 226.006 323.223 226.438 323.319 226.678ZM24.4933 254.254V255.166H34.3013V254.254H24.4933ZM25.2613 252.142V253.022H33.6933V256.462H25.1173V257.342H34.8293V252.142H25.2613ZM29.3733 250.702V261.806C29.3733 262.062 29.2933 262.142 29.0053 262.158C28.7333 262.174 27.7413 262.19 26.7653 262.142C26.9413 262.446 27.1013 262.878 27.1653 263.182C28.4933 263.182 29.3573 263.166 29.8853 263.006C30.3973 262.83 30.5893 262.542 30.5893 261.806V250.702H29.3733ZM24.9253 258.126C25.7413 258.622 26.7653 259.374 27.2773 259.838L27.9813 259.102C27.4373 258.638 26.3973 257.934 25.5973 257.454L24.9253 258.126ZM34.4133 257.55C33.7093 258.19 32.4773 259.102 31.5813 259.614L32.3013 260.238C33.1973 259.758 34.3813 258.974 35.3093 258.254L34.4133 257.55ZM24.0613 261.214L24.5413 262.206C26.0293 261.566 27.9813 260.718 29.8053 259.902L29.5973 259.038C27.5813 259.87 25.4373 260.718 24.0613 261.214ZM23.5333 249.87V250.926H36.2373V249.87H23.5333ZM22.9573 249.87V254.606C22.9573 256.942 22.8453 260.222 21.5653 262.526C21.8373 262.638 22.3333 262.958 22.5413 263.166C23.8853 260.734 24.0933 257.102 24.0933 254.606V249.87H22.9573ZM28.5733 248.638C28.9573 249.23 29.4053 250.046 29.6133 250.558L30.8133 250.142C30.6053 249.646 30.1413 248.878 29.7413 248.302L28.5733 248.638ZM34.2693 254.174V255.23H36.4133V254.174H34.2693ZM29.8693 259.806C31.7733 260.542 34.2693 261.678 35.5493 262.43L36.0773 261.55C34.7813 260.83 32.2533 259.726 30.3973 259.038L29.8693 259.806ZM44.0773 258.878C45.7573 258.302 46.8453 256.99 46.8453 255.262C46.8453 254.142 46.3653 253.406 45.4693 253.406C44.8293 253.406 44.2533 253.806 44.2533 254.558C44.2533 255.31 44.7973 255.71 45.4533 255.71C45.7573 255.71 46.0773 255.63 46.3013 255.342L45.4373 254.126L45.7413 255.47C45.7413 256.686 45.0213 257.502 43.7093 258.03L44.0773 258.878ZM62.4933 251.566V252.702H68.9893V251.566H62.4933ZM62.9413 248.446C62.4773 251.246 61.6293 253.854 60.2533 255.486C60.5093 255.71 60.9413 256.238 61.1173 256.494C62.6213 254.606 63.6133 251.758 64.1573 248.654L62.9413 248.446ZM66.6853 252.142C65.9333 257.134 64.2533 260.398 60.5253 262.206C60.7813 262.446 61.1493 262.942 61.2933 263.198C65.1653 261.102 66.9733 257.662 67.8693 252.302L66.6853 252.142ZM62.9413 252.574L61.9493 252.798C63.0213 257.422 64.9893 261.294 68.2853 263.102C68.4773 262.798 68.8613 262.366 69.1333 262.126C65.9173 260.542 63.9173 256.83 62.9413 252.574ZM58.8773 248.686V263.182H60.0773V248.686H58.8773ZM55.1813 260.286C55.5173 260.03 56.0293 259.758 59.7253 258.446C59.6293 258.19 59.4853 257.726 59.4373 257.406L55.5973 258.654L55.0533 259.15L55.1813 260.286ZM55.1813 260.286C55.1813 259.854 56.4133 259.182 56.4133 259.182V250.238H55.2453V258.11C55.2453 258.734 54.9093 259.054 54.6853 259.198C54.8613 259.454 55.0853 259.998 55.1813 260.286ZM80.6053 252.894V257.646H81.6613V252.894H80.6053ZM77.4053 252.478V253.262H84.9573V252.478H77.4053ZM77.6933 254.046V254.75H84.5093V254.046H77.6933ZM77.6933 255.566V256.286H84.5093V255.566H77.6933ZM76.2693 258.67V259.582H83.8853V258.67H76.2693ZM77.7573 251.214C77.2613 252.318 76.4293 253.39 75.5173 254.126C75.7413 254.302 76.1253 254.702 76.2853 254.894C77.2293 254.062 78.1893 252.798 78.7653 251.502L77.7573 251.214ZM83.6293 258.67V258.862C82.2373 260.718 78.8133 261.774 75.4053 262.19C75.5973 262.398 75.8693 262.878 75.9493 263.15C79.4693 262.59 83.0533 261.438 84.7653 259.118L84.0773 258.638L83.8693 258.67H83.6293ZM77.9653 259.374L76.9733 259.79C78.6053 261.566 81.6293 262.686 84.7333 263.134C84.8773 262.83 85.1813 262.398 85.4213 262.158C82.3813 261.806 79.3893 260.862 77.9653 259.374ZM78.8133 248.462V251.582H79.8533V248.462H78.8133ZM81.5973 248.462V251.614H82.6533V248.462H81.5973ZM76.0453 249.646V250.574H79.3733V249.646H76.0453ZM79.8853 251.502C80.2853 251.902 80.7653 252.494 80.9893 252.878L81.8693 252.318C81.6293 251.95 81.1493 251.422 80.7173 251.038L79.8853 251.502ZM77.2133 257.118V257.918H85.1493V257.118H77.2133ZM76.9893 252.958V258.35H78.0293V252.958H76.9893ZM73.1813 249.694V263.182H74.2853V249.694H73.1813ZM70.7653 253.038V254.174H76.0933V253.038H70.7653ZM73.1973 253.47C72.6533 255.454 71.5013 257.934 70.4453 259.23C70.6213 259.534 70.9253 260.03 71.0373 260.382C72.1733 258.91 73.3253 256.078 73.9173 253.79L73.1973 253.47ZM75.4213 248.59C74.3173 249.118 72.4293 249.582 70.8293 249.87C70.9413 250.142 71.1013 250.558 71.1653 250.83C72.8133 250.574 74.7653 250.158 76.1253 249.566L75.4213 248.59ZM74.1733 255.086L73.6773 255.598C74.1413 256.222 75.2933 257.822 75.6613 258.542L76.3333 257.534C76.0133 257.134 74.5733 255.486 74.1733 255.086ZM82.0133 249.63V250.542H85.2133V249.63H82.0133ZM88.7973 250.158V251.23H99.9173V250.158H88.7973ZM87.1333 253.054V254.11H101.597V253.054H87.1333ZM87.5493 259.39V260.446H101.133V259.39H87.5493ZM93.6773 248.462V253.518H94.9093V248.462H93.6773ZM93.6773 257.358V263.182H94.9093V257.358H93.6773ZM90.1733 254.43C90.5733 255.102 90.9893 255.982 91.1333 256.558L92.3173 256.158C92.1573 255.614 91.7253 254.734 91.3253 254.094L90.1733 254.43ZM97.3733 254.126C97.0853 254.878 96.5573 255.982 96.1093 256.686L97.0853 256.99C97.5493 256.35 98.1573 255.342 98.6533 254.462L97.3733 254.126ZM88.4293 256.446V257.502H100.381V256.446H88.4293ZM104.781 248.958C105.229 249.694 105.773 250.686 106.029 251.294L106.989 250.814C106.749 250.222 106.205 249.278 105.741 248.558L104.781 248.958ZM112.813 256.67V262.078H113.901V256.67H112.813ZM111.197 252.318H115.773V254.094H111.197V252.318ZM110.109 251.358V255.054H116.893V251.358H110.109ZM109.277 256.094V263.166H110.397V257.102H116.477V263.118H117.629V256.094H109.277ZM109.933 258.766V259.71H117.021V258.766H109.933ZM109.949 261.422V262.414H117.021V261.422H109.949ZM109.213 249.23V250.27H117.725V249.23H109.213ZM103.549 251.454V252.558H108.381V251.454H103.549ZM107.037 255.086L106.349 255.694C106.861 256.19 108.125 257.502 108.589 258.094L109.293 257.118C108.941 256.766 107.469 255.406 107.037 255.086ZM107.949 251.454V251.71C107.053 254.126 104.957 256.558 102.957 257.854C103.165 258.062 103.469 258.622 103.581 258.926C105.709 257.438 107.981 254.75 109.085 251.838L108.413 251.406L108.205 251.454H107.949ZM105.741 256.27V263.15H106.909V254.83L105.741 256.27ZM122.413 254.254V255.166H132.221V254.254H122.413ZM123.181 252.142V253.022H131.613V256.462H123.037V257.342H132.749V252.142H123.181ZM127.293 250.702V261.806C127.293 262.062 127.213 262.142 126.925 262.158C126.653 262.174 125.661 262.19 124.685 262.142C124.861 262.446 125.021 262.878 125.085 263.182C126.413 263.182 127.277 263.166 127.805 263.006C128.317 262.83 128.509 262.542 128.509 261.806V250.702H127.293ZM122.845 258.126C123.661 258.622 124.685 259.374 125.197 259.838L125.901 259.102C125.357 258.638 124.317 257.934 123.517 257.454L122.845 258.126ZM132.333 257.55C131.629 258.19 130.397 259.102 129.501 259.614L130.221 260.238C131.117 259.758 132.301 258.974 133.229 258.254L132.333 257.55ZM121.981 261.214L122.461 262.206C123.949 261.566 125.901 260.718 127.725 259.902L127.517 259.038C125.501 259.87 123.357 260.718 121.981 261.214ZM121.453 249.87V250.926H134.157V249.87H121.453ZM120.877 249.87V254.606C120.877 256.942 120.765 260.222 119.485 262.526C119.757 262.638 120.253 262.958 120.461 263.166C121.805 260.734 122.013 257.102 122.013 254.606V249.87H120.877ZM126.493 248.638C126.877 249.23 127.325 250.046 127.533 250.558L128.733 250.142C128.525 249.646 128.061 248.878 127.661 248.302L126.493 248.638ZM132.189 254.174V255.23H134.333V254.174H132.189ZM127.789 259.806C129.693 260.542 132.189 261.678 133.469 262.43L133.997 261.55C132.701 260.83 130.173 259.726 128.317 259.038L127.789 259.806ZM136.141 257.438V258.478H150.461V257.438H136.141ZM142.701 256.478V263.15H143.901V256.478H142.701ZM142.269 253.454H144.333V255.134H142.269V253.454ZM142.269 250.91H144.333V252.558H142.269V250.91ZM141.213 249.982V256.062H145.421V249.982H141.213ZM142.845 248.382C142.781 248.926 142.605 249.758 142.429 250.302L143.261 250.51C143.469 250.03 143.725 249.278 143.981 248.59L142.845 248.382ZM148.893 254.11C149.165 254.91 149.469 255.95 149.581 256.654L150.445 256.366C150.301 255.694 149.997 254.67 149.693 253.87L148.893 254.11ZM139.501 253.79C139.725 254.654 139.981 255.758 140.061 256.51L140.925 256.27C140.829 255.55 140.589 254.446 140.333 253.598L139.501 253.79ZM136.685 253.166C136.685 252.942 137.341 252.638 137.341 252.638V252.606C138.045 251.678 138.813 250.27 139.357 248.91L138.381 248.558C137.997 249.854 137.229 251.23 137.005 251.566C136.781 251.934 136.573 252.174 136.365 252.222C136.477 252.478 136.621 252.958 136.685 253.166ZM136.685 253.166C136.893 253.054 137.293 252.974 139.373 252.702C139.373 252.51 139.389 252.158 139.437 251.902L137.165 252.126L136.669 252.43L136.685 253.166ZM136.653 256.318C136.653 256.11 137.261 255.806 137.261 255.806V255.774C138.509 254.494 139.789 252.686 140.797 250.878L139.901 250.398C139.085 252.158 137.725 254.03 137.325 254.494C136.925 254.974 136.621 255.31 136.333 255.374C136.461 255.63 136.621 256.11 136.653 256.318ZM136.653 256.318C136.925 256.19 137.373 256.078 140.413 255.662C140.397 255.47 140.413 255.102 140.445 254.846L137.149 255.262L136.637 255.582L136.653 256.318ZM145.965 253.326C145.965 253.102 146.621 252.782 146.621 252.782V252.75C147.357 251.774 148.141 250.302 148.701 248.878L147.709 248.542C147.293 249.886 146.525 251.326 146.285 251.678C146.061 252.046 145.853 252.334 145.645 252.366C145.757 252.622 145.917 253.118 145.965 253.326ZM145.965 253.326C146.205 253.214 146.605 253.118 148.973 252.814C148.989 252.606 149.005 252.222 149.053 251.966L146.445 252.254L145.949 252.558L145.965 253.326ZM146.141 256.494C146.141 256.27 146.765 255.966 146.765 255.966V255.934C148.013 254.67 149.293 252.846 150.317 251.054L149.389 250.558C148.573 252.318 147.197 254.158 146.797 254.638C146.413 255.134 146.093 255.454 145.821 255.518C145.933 255.774 146.093 256.286 146.141 256.494ZM146.141 256.494C146.397 256.366 146.861 256.27 149.901 255.886C149.885 255.694 149.917 255.326 149.965 255.07L146.653 255.422L146.109 255.742L146.141 256.494ZM140.861 259.006C139.789 260.142 137.677 261.182 135.821 261.646C136.093 261.87 136.445 262.318 136.621 262.638C138.525 262.046 140.685 260.814 141.869 259.406L140.861 259.006ZM144.941 259.662C146.589 260.542 148.669 261.854 149.677 262.734L150.429 261.838C149.373 260.974 147.261 259.71 145.645 258.894L144.941 259.662ZM159.677 253.39C158.333 253.39 157.229 254.478 157.229 255.822C157.229 257.182 158.333 258.27 159.677 258.27C161.021 258.27 162.109 257.182 162.109 255.822C162.109 254.478 161.021 253.39 159.677 253.39ZM159.677 257.454C158.781 257.454 158.045 256.734 158.045 255.822C158.045 254.942 158.781 254.206 159.677 254.206C160.573 254.206 161.293 254.942 161.293 255.822C161.293 256.734 160.573 257.454 159.677 257.454Z" fill="#575757"/>
<line x1="21" y1="167.547" x2="190" y2="167.547" stroke="#FF715C" stroke-width="2"/>
<path d="M389.267 208.333C413.855 203.422 530.648 166.998 585.972 149.4L643.754 203.422L524.501 296.732C505.814 295.75 492.127 274.223 487.619 263.582C472.866 261.945 454.929 262.354 443.361 252.532C438.677 248.556 438.947 230.432 423.69 229.205C412.392 228.296 358.531 214.472 389.267 208.333Z" fill="#74CADD"/>
<rect x="497.174" y="124.594" width="145.077" height="140.567" rx="70.2834" fill="#FF715C"/>
<rect x="579.86" y="162.179" width="10.5237" height="17.289" rx="5.26186" fill="#002B51"/>
<rect x="612.934" y="164.434" width="9.77202" height="18.0407" rx="4.88601" fill="#002B51"/>
<path d="M620.69 195.351C601.329 193.594 586.799 189.996 576.755 187.496C568.72 202.497 581.223 212.763 591.992 214.103C612.871 216.701 617.342 203.269 620.69 195.351Z" fill="#002B51"/>
<path d="M585.366 208.092C588.966 204.455 598.1 199.555 605.844 209.055C602.866 211.566 591.621 213.74 585.366 208.092Z" fill="#FF715C"/>
<path d="M468.362 162.187L499.804 184.354L525.387 165.343L497.93 146.408L510.603 133.785C519.051 141.149 526.443 135.889 530.667 126.422C534.891 116.954 531.723 109.591 522.219 103.279C514.616 98.2298 502.859 103.98 497.93 107.487L469.418 135.889C457.59 147.671 463.785 158.33 468.362 162.187Z" fill="#FF715C"/>
<path d="M529.15 122.705C529.352 123.312 530.008 123.639 530.614 123.437C531.221 123.235 531.549 122.579 531.346 121.973L529.15 122.705ZM524.468 116.609C525.911 117.331 528.106 119.573 529.15 122.705L531.346 121.973C530.135 118.34 527.569 115.571 525.504 114.538L524.468 116.609Z" fill="#002B51"/>
<path d="M526.143 129.47C526.345 130.077 527.001 130.405 527.607 130.203C528.214 130 528.542 129.345 528.34 128.738L526.143 129.47ZM521.462 123.374C522.905 124.096 525.099 126.338 526.143 129.47L528.34 128.738C527.129 125.105 524.562 122.336 522.497 121.303L521.462 123.374Z" fill="#002B51"/>
<path d="M510.704 126.473C511.706 127.601 514.312 129.931 516.718 130.232" stroke="#002B51" stroke-width="2.31562" stroke-linecap="round"/>
<path d="M513.335 129.104C511.456 129.104 509.577 131.359 509.952 132.863" stroke="#002B51" stroke-width="2.31562" stroke-linecap="round"/>
<path d="M712.718 161.995L636.047 190.19L630.223 229.079L720.483 192.135C735.235 196.023 735.688 180.144 734.07 171.718C737.952 155.384 721.453 158.43 712.718 161.995Z" fill="#FF715C"/>
<path d="M722.682 165.561C721.93 166.939 718.923 169.395 712.91 168.192" stroke="#002B51" stroke-width="2.31562" stroke-linecap="round"/>
<path d="M431.024 259.147C452.707 257.533 505.451 242.214 526.865 226.073L551.482 238.495C533.815 265.129 472.456 282.905 442.676 289.967C444.282 299.652 434.705 303.734 431.024 303.062V259.147Z" fill="#FF715C"/>
<path d="M554.678 286.208L567.081 248.623L592.263 259.147C592.263 292.238 576.853 303.062 563.528 311.133L541.899 318.531L522.372 324.248C518.221 331.31 513.003 331.31 508.318 331.31L513.335 297.484L554.678 286.208Z" fill="#FF715C"/>
<line x1="454.034" y1="156.779" x2="389.085" y2="177.682" stroke="#002B51" stroke-width="2.31562" stroke-linecap="round"/>
<path d="M420.936 241.92L339 268.593" stroke="#002B51" stroke-width="2.31562" stroke-linecap="round"/>
<path d="M423.906 265.906L384.541 280.571" stroke="#002B51" stroke-width="2.31562" stroke-linecap="round"/>
<path d="M505.188 306.613L454.395 328.608" stroke="#002B51" stroke-width="2.31562" stroke-linecap="round"/>
<path d="M728.09 140.4C719.53 141.351 711.474 140.883 707.531 140.418C706.992 140.355 706.542 140.843 706.664 141.372L712.476 166.8C712.543 167.096 712.779 167.327 713.079 167.378C718.801 168.345 722.443 165.849 723.678 164.329C723.746 164.244 723.791 164.144 723.815 164.038L728.94 141.343C729.058 140.822 728.622 140.341 728.09 140.4Z" fill="#D9D9D9"/>
<path d="M717.887 201.077L714.624 183.309C714.561 182.964 714.737 182.62 715.054 182.471L720.155 180.071C720.618 179.853 721.161 180.138 721.245 180.642L721.398 181.56C721.439 181.806 721.359 182.057 721.182 182.233L718.563 184.852C718.442 184.974 718.364 185.132 718.343 185.303L718.037 187.753C718.007 187.989 718.088 188.226 718.257 188.394L720.419 190.556C720.59 190.728 720.671 190.97 720.637 191.211L719.231 201.05C719.183 201.386 718.896 201.635 718.557 201.635C718.229 201.635 717.947 201.4 717.887 201.077Z" fill="#D9D9D9"/>
<path d="M673.607 130.237C680.4 139.499 698.307 140.786 706.412 140.271H728.118C728.306 140.271 728.494 140.197 728.634 140.072C748.007 122.796 736.847 108.785 732.27 98.59C723.779 79.679 709.499 81.9946 717.604 92.0291C724.806 100.946 729.447 104.765 696.763 89.7134C667.432 76.2057 625.365 94.9384 653.538 103.607C665.58 107.312 676.823 114.413 680.94 117.501C668.976 109.396 663.853 111.31 657.398 112.484C648.907 114.027 637.715 113.641 643.89 119.045C647.364 122.084 666.815 120.974 673.607 130.237Z" fill="#FFC43D"/>
<path d="M683.256 124.062C676.463 124.988 696.635 135.254 707.57 140.271C709.691 141.26 720.414 141.208 725.797 141.052C725.991 141.046 726.178 140.962 726.315 140.825C747.17 120.057 725.635 99.4003 726.095 105.151C726.782 113.745 725.326 118.359 723.363 122.537C723.082 123.137 722.213 123.084 721.942 122.48C708.158 91.686 679.884 104.423 685.957 107.08C692.132 109.782 706.412 127.535 700.623 124.062C694.834 120.588 691.746 122.904 683.256 124.062Z" fill="#FF715C"/>
<path d="M714.902 168.83C718.285 169.206 720.051 171.951 720.427 176.837C720.427 178.465 720.163 180.539 717.796 181.723C715.541 182.85 713.06 182.174 712.158 179.468C711.156 182.224 705.318 188.112 700.507 183.602" stroke="#002B51" stroke-width="2.31562" stroke-linecap="round"/>
<path d="M733.205 180.971C731.953 182.474 727.568 183.903 721.554 182.099" stroke="#002B51" stroke-width="2.31562" stroke-linecap="round"/>
<path d="M718.884 184.729C718.007 186.358 717.23 189.916 721.139 191.119" stroke="#002B51" stroke-width="2.31562" stroke-linecap="round"/>
<path d="M732.83 170.823C731.326 172.577 727.342 175.559 721.93 174.957" stroke="#002B51" stroke-width="2.31562" stroke-linecap="round"/>
<line x1="629.949" y1="84.9892" x2="625.155" y2="82.7607" stroke="#FFC43D" stroke-width="2.31562" stroke-linecap="round"/>
<line x1="649.795" y1="72.1034" x2="643.016" y2="65.9442" stroke="#FFC43D" stroke-width="2.31562" stroke-linecap="round"/>
<line x1="714.27" y1="75.7491" x2="713.288" y2="71.8206" stroke="#FFC43D" stroke-width="2.31562" stroke-linecap="round"/>
<line x1="678.363" y1="79.4101" x2="675.274" y2="75.1201" stroke="#FF715C" stroke-width="2.31562" stroke-linecap="round"/>
<line x1="694.146" y1="68.1315" x2="691.314" y2="59.46" stroke="#FF715C" stroke-width="2.31562" stroke-linecap="round"/>
<line x1="634.132" y1="109.275" x2="628.718" y2="108.734" stroke="#FF715C" stroke-width="2.31562" stroke-linecap="round"/>
</svg>
