<svg width="1000" height="391" viewBox="0 0 1000 391" fill="none" xmlns="http://www.w3.org/2000/svg">
<path d="M57.304 142H59.824V133.288C59.824 131.68 59.608 129.424 59.464 127.816H59.56L60.976 131.896L64.048 140.32H65.776L68.848 131.896L70.288 127.816H70.384C70.24 129.424 70.024 131.68 70.024 133.288V142H72.592V124.336H69.376L66.184 133.288C65.8 134.44 65.464 135.64 65.032 136.84H64.936C64.528 135.64 64.168 134.44 63.736 133.288L60.52 124.336H57.304V142ZM82.2899 142.336C85.5539 142.336 88.5059 139.792 88.5059 135.424C88.5059 131.008 85.5539 128.464 82.2899 128.464C79.0019 128.464 76.0739 131.008 76.0739 135.424C76.0739 139.792 79.0019 142.336 82.2899 142.336ZM82.2899 140.056C80.2019 140.056 78.9299 138.208 78.9299 135.424C78.9299 132.616 80.2019 130.768 82.2899 130.768C84.3539 130.768 85.6739 132.616 85.6739 135.424C85.6739 138.208 84.3539 140.056 82.2899 140.056ZM97.0555 142.336C100.32 142.336 103.272 139.792 103.272 135.424C103.272 131.008 100.32 128.464 97.0555 128.464C93.7675 128.464 90.8395 131.008 90.8395 135.424C90.8395 139.792 93.7675 142.336 97.0555 142.336ZM97.0555 140.056C94.9675 140.056 93.6955 138.208 93.6955 135.424C93.6955 132.616 94.9675 130.768 97.0555 130.768C99.1195 130.768 100.44 132.616 100.44 135.424C100.44 138.208 99.1195 140.056 97.0555 140.056ZM111.077 142.336C112.565 142.336 113.933 141.544 114.941 140.536H115.013L115.229 142H117.509V122.896H114.725V127.768L114.845 129.952C113.789 129.04 112.805 128.464 111.293 128.464C108.365 128.464 105.653 131.128 105.653 135.424C105.653 139.792 107.765 142.336 111.077 142.336ZM111.749 140.032C109.685 140.032 108.509 138.376 108.509 135.376C108.509 132.544 109.997 130.768 111.845 130.768C112.829 130.768 113.765 131.104 114.725 131.992V138.424C113.789 139.528 112.829 140.032 111.749 140.032ZM121.634 142H124.418V128.8H121.634V142ZM123.026 126.328C124.034 126.328 124.754 125.68 124.754 124.672C124.754 123.688 124.034 123.04 123.026 123.04C121.994 123.04 121.322 123.688 121.322 124.672C121.322 125.68 121.994 126.328 123.026 126.328ZM128.548 142H131.332V132.64C132.484 131.488 133.324 130.864 134.548 130.864C136.084 130.864 136.756 131.752 136.756 134.056V142H139.54V133.696C139.54 130.36 138.292 128.464 135.484 128.464C133.684 128.464 132.316 129.448 131.116 130.648H131.044L130.804 128.8H128.548V142ZM148.061 147.928C152.285 147.928 154.973 145.864 154.973 143.32C154.973 141.064 153.341 140.104 150.221 140.104H147.773C146.117 140.104 145.565 139.6 145.565 138.832C145.565 138.184 145.877 137.8 146.285 137.44C146.885 137.704 147.557 137.824 148.133 137.824C150.917 137.824 153.101 136.192 153.101 133.288C153.101 132.28 152.741 131.416 152.237 130.888H154.733V128.8H150.077C149.573 128.608 148.901 128.464 148.133 128.464C145.421 128.464 143.021 130.216 143.021 133.216C143.021 134.776 143.885 136.048 144.773 136.72V136.816C144.029 137.344 143.309 138.232 143.309 139.264C143.309 140.344 143.813 141.04 144.509 141.472V141.592C143.285 142.312 142.589 143.344 142.589 144.472C142.589 146.752 144.893 147.928 148.061 147.928ZM148.133 136.048C146.789 136.048 145.661 134.968 145.661 133.216C145.661 131.44 146.765 130.432 148.133 130.432C149.525 130.432 150.629 131.44 150.629 133.216C150.629 134.968 149.501 136.048 148.133 136.048ZM148.469 146.104C146.285 146.104 144.941 145.336 144.941 144.064C144.941 143.392 145.277 142.72 146.069 142.12C146.621 142.264 147.197 142.312 147.821 142.312H149.813C151.421 142.312 152.285 142.672 152.285 143.776C152.285 144.976 150.773 146.104 148.469 146.104ZM158.6 125.632V127.624H163.856V139.504H158.6V141.52H165.92V125.632H158.6ZM157.256 125.632V143.368H159.344V125.632H157.256ZM158.48 132.184V134.176H164.888V132.184H158.48ZM160.832 121.72C160.664 122.992 160.256 124.816 159.872 126.016L161.696 126.448C162.176 125.344 162.776 123.664 163.28 122.104L160.832 121.72ZM169.232 125.512V127.6H176.456V125.512H169.232ZM175.664 125.512V125.968C175.376 136.288 175.016 140.344 174.224 141.184C173.96 141.52 173.672 141.592 173.192 141.592C172.616 141.592 171.176 141.568 169.616 141.448C170.024 142.048 170.312 143.008 170.36 143.656C171.728 143.704 173.168 143.752 174.032 143.656C174.944 143.536 175.544 143.296 176.12 142.504C177.104 141.28 177.416 137.512 177.752 126.592C177.776 126.304 177.776 125.512 177.776 125.512H175.664ZM169.544 121.696C168.776 124.96 167.456 128.248 165.824 130.336C166.352 130.624 167.288 131.272 167.696 131.632C169.328 129.352 170.816 125.776 171.728 122.2L169.544 121.696ZM168.416 132.04C169.664 133.792 171.224 136.168 171.92 137.632L173.864 136.456C173.096 135.04 171.464 132.712 170.192 131.032L168.416 132.04ZM180.392 136.96V138.784H202.28V136.96H180.392ZM181.088 123.472V125.224H201.344V123.472H181.088ZM194.48 135.472V141.664C194.48 141.976 194.36 142.072 193.976 142.096C193.592 142.096 192.224 142.096 190.904 142.048C191.192 142.624 191.48 143.44 191.576 144.016C193.472 144.016 194.744 144.016 195.608 143.728C196.448 143.416 196.664 142.84 196.664 141.736V135.472H194.48ZM190.16 121.768V134.68H192.392V121.768H190.16ZM184.232 139.72C185.624 140.608 187.256 141.952 188.048 142.888L189.704 141.424C188.888 140.488 187.16 139.216 185.792 138.4L184.232 139.72ZM185.096 130.408H197.648V131.656H185.096V130.408ZM185.096 127.816H197.648V129.04H185.096V127.816ZM182.96 126.376V133.096H199.88V126.376H182.96ZM194.816 133.552C196.64 134.248 198.872 135.52 200.024 136.48L201.368 135.256C200.192 134.368 197.984 133.144 196.136 132.472L194.816 133.552ZM181.376 134.272L181.472 135.976C186.032 135.904 192.872 135.784 199.304 135.592L199.4 134.128C192.8 134.248 185.768 134.296 181.376 134.272ZM204.776 136.504V138.4H225.968V136.504H204.776ZM204.848 125.872V127.696H225.872V125.872H204.848ZM205.832 130.12V131.896H224.984V130.12H205.832ZM207.032 133.36V135.04H223.832V133.36H207.032ZM214.16 130.96V144.04H216.416V130.96H214.16ZM212.048 121.72V126.784H214.16V121.72H212.048ZM216.536 121.72V126.664H218.696V121.72H216.536ZM222.104 121.984C221.72 123.064 221 124.6 220.376 125.584L222.224 126.184C222.872 125.248 223.712 123.904 224.456 122.584L222.104 121.984ZM219.056 127.576C218.744 128.224 218.12 129.208 217.664 129.88L219.56 130.456C220.112 129.88 220.784 129.064 221.432 128.2L219.056 127.576ZM206.72 122.608C207.464 123.712 208.256 125.224 208.568 126.184L210.608 125.416C210.296 124.456 209.456 122.992 208.664 121.936L206.72 122.608ZM209.624 128.032C210.104 128.776 210.608 129.784 210.8 130.408L213.008 129.856C212.768 129.208 212.24 128.248 211.76 127.552L209.624 128.032ZM211.592 139.432C210.08 140.416 207.128 141.304 204.656 141.688C205.112 142.096 205.736 142.84 206.024 143.344C208.52 142.792 211.568 141.544 213.248 140.2L211.592 139.432ZM217.736 140.44C219.92 141.28 222.896 142.552 224.384 143.32L225.92 142C224.312 141.232 221.336 140.056 219.2 139.288L217.736 140.44ZM245.096 128.344C246.32 130.24 247.712 132.808 248.288 134.368L250.304 133.408C249.68 131.824 248.192 129.376 246.944 127.528L245.096 128.344ZM237.224 124.672V126.808H250.112V124.672H237.224ZM243.896 132.136V140.824C243.896 142.936 244.328 143.608 246.224 143.608C246.584 143.608 247.784 143.608 248.168 143.608C249.8 143.608 250.328 142.672 250.52 139.24C249.92 139.072 249.032 138.736 248.552 138.352C248.504 141.16 248.432 141.592 247.952 141.592C247.688 141.592 246.776 141.592 246.56 141.592C246.104 141.592 246.032 141.496 246.032 140.8V132.136H243.896ZM239.888 132.64C239.744 137.68 239.36 140.632 235.64 142.36C236.144 142.768 236.768 143.56 237.032 144.136C241.256 142.024 241.856 138.424 242.024 132.64H239.888ZM237.8 133.864C238.52 133.528 239.648 133.384 248.384 132.4C248.288 131.944 248.192 131.08 248.144 130.504L238.952 131.392L237.728 132.136L237.8 133.864ZM237.8 133.864C237.8 133.408 239.36 132.616 239.36 132.616V132.568C241.376 129.952 243.56 126.16 245.168 122.368L242.696 121.696C241.472 125.224 239.384 128.92 238.688 129.88C238.04 130.864 237.56 131.488 237.032 131.632C237.296 132.256 237.68 133.384 237.8 133.864ZM233.864 131.368C234.584 132.928 235.232 134.992 235.472 136.264L237.152 135.592C236.912 134.32 236.192 132.328 235.448 130.792L233.864 131.368ZM231.68 137.608C231.944 139.216 232.184 141.304 232.232 142.672L233.96 142.24C233.888 140.872 233.624 138.808 233.336 137.224L231.68 137.608ZM229.04 137.368C228.848 139.312 228.536 141.472 227.96 142.912C228.416 143.032 229.304 143.32 229.688 143.536C230.168 142.072 230.6 139.792 230.84 137.68L229.04 137.368ZM228.68 130.984C228.68 130.552 230.024 129.856 230.024 129.856V129.808C231.584 127.888 233.24 125.128 234.44 122.488L232.376 121.6C231.44 124.192 229.832 126.928 229.328 127.6C228.824 128.344 228.416 128.8 227.984 128.92C228.224 129.496 228.56 130.528 228.68 130.984ZM228.68 130.984C229.088 130.768 229.784 130.624 233.552 130.24C233.552 129.808 233.648 129.064 233.744 128.536L229.568 128.872L228.656 129.472L228.68 130.984ZM228.848 136.456C228.848 136.024 230.192 135.352 230.192 135.352V135.304C232.544 132.904 234.896 129.544 236.72 126.232L234.8 125.08C233.288 128.416 230.792 131.896 229.976 132.76C229.232 133.672 228.728 134.248 228.152 134.392C228.416 134.968 228.752 136.024 228.848 136.456ZM228.848 136.456C229.376 136.192 230.168 135.952 235.832 134.992C235.784 134.56 235.808 133.792 235.88 133.264L229.688 134.224L228.752 134.872L228.848 136.456ZM234.32 137.08C234.8 138.424 235.328 140.176 235.52 141.304L237.176 140.728C236.936 139.6 236.384 137.896 235.88 136.552L234.32 137.08ZM253.832 129.04V130.792H261.8V129.04H253.832ZM253.832 132.232V133.984H261.752V132.232H253.832ZM252.776 125.776V127.624H262.808V125.776H252.776ZM254.96 135.496V137.344H259.832V140.776H254.96V142.624H261.8V135.496H254.96ZM253.976 135.496V143.704H255.92V135.496H253.976ZM255.536 122.512C256.184 123.52 256.952 124.936 257.312 125.824L259.112 124.792C258.728 123.928 257.984 122.632 257.312 121.648L255.536 122.512ZM262.76 129.928V132.16H274.328V129.928H262.76ZM267.248 122.176V144.016H269.6V122.176H267.248ZM277.424 122.824V125.032H290.624V122.824H277.424ZM294.848 129.664V130.096C293.168 136.84 287.936 140.704 281.648 142.168C282.128 142.672 282.704 143.632 282.968 144.28C289.832 142.36 295.304 138.328 297.368 130.264L295.736 129.568L295.304 129.664H294.848ZM281.48 123.64V127.072C281.48 131.176 281.048 137.224 276.056 141.688C276.56 142.12 277.4 143.056 277.712 143.656C283.304 138.568 283.832 131.824 283.832 127.072V123.64H281.48ZM290.048 122.824C289.568 125.344 288.776 128.608 288.128 130.696H290.672C291.224 128.68 291.944 125.44 292.472 122.824H290.048ZM282.872 129.664L282.488 131.824H295.376V129.664H282.872ZM286.112 131.008L284.144 131.56C286.376 137.896 290.384 142.24 296.984 144.064C297.344 143.416 298.04 142.432 298.568 141.928C292.184 140.44 288.08 136.456 286.112 131.008ZM311.6 141.088V143.08H319.856V141.088H311.6ZM310.568 134.968V144.064H312.704V136.936H318.848V143.968H321.08V134.968H310.568ZM316.4 125.68C315.944 128.584 314.984 131.512 311.072 133.072C311.48 133.408 312.056 134.104 312.248 134.56C316.64 132.688 317.888 129.328 318.464 125.68H316.4ZM317.768 127.408L316.136 127.768C317.024 130.768 318.704 133.264 321.272 134.44C321.56 133.912 322.16 133.144 322.592 132.76C320.24 131.872 318.56 129.808 317.768 127.408ZM301.16 129.04V130.792H307.544V129.04H301.16ZM301.16 132.256V134.008H307.544V132.256H301.16ZM300.32 125.776V127.624H308.576V125.776H300.32ZM302.048 135.496V137.344H305.576V140.776H302.048V142.624H307.496V135.496H302.048ZM301.136 135.496V143.704H303.104V135.496H301.136ZM302.816 122.248C303.272 123.256 303.824 124.648 304.016 125.536L306.032 124.984C305.792 124.12 305.24 122.8 304.712 121.792L302.816 122.248ZM309.056 123.808V125.56H312.776V123.808H309.056ZM308.528 129.28V131.08H313.376V129.28H308.528ZM314.504 121.72C314 124.048 313.064 126.376 311.792 127.888C312.296 128.152 313.136 128.728 313.496 129.04C314.792 127.384 315.872 124.768 316.496 122.128L314.504 121.72ZM314.264 124.192V126.016H320.96V124.192H314.264ZM320.504 124.192V124.456C320.264 125.752 319.856 127.312 319.496 128.296L321.176 128.656C321.608 127.6 322.088 125.896 322.472 124.408L321.128 124.12L320.816 124.192H320.504ZM326 129.376V143.968H328.16V131.248H343.808V129.376H326ZM342.656 129.376V141.736C342.656 142.072 342.512 142.192 342.104 142.192C341.744 142.216 340.352 142.24 339.008 142.192C339.272 142.672 339.56 143.392 339.656 143.896C341.648 143.896 342.92 143.872 343.688 143.608C344.48 143.32 344.744 142.816 344.744 141.736V129.376H342.656ZM331.928 135.328V136.96H337.928V139.384H331.928V140.992H339.8V135.328H331.928ZM330.728 135.328V142.072H332.648V135.328H330.728ZM324.728 124.216V126.16H345.968V124.216H324.728ZM329.792 126.688C330.296 127.576 330.896 128.776 331.184 129.496L333.2 128.728C332.888 128.032 332.24 126.904 331.736 126.064L329.792 126.688ZM338.816 126.184C338.432 127.264 337.64 128.8 337.016 129.784L338.768 130.264C339.464 129.376 340.328 127.96 341.096 126.688L338.816 126.184ZM333.776 122.152C334.16 123.136 334.592 124.48 334.784 125.32L337.04 124.672C336.8 123.856 336.344 122.584 335.936 121.6L333.776 122.152ZM332.072 130.36C331.904 132.52 331.232 133.528 328.136 134.08C328.52 134.44 329.024 135.184 329.168 135.64C332.888 134.824 333.824 133.264 334.064 130.36H332.072ZM336.248 130.384V132.352C336.248 133.936 336.56 134.68 338.24 134.68C338.648 134.68 340.064 134.68 340.52 134.68C341.024 134.68 341.648 134.656 341.96 134.536C341.888 134.056 341.864 133.504 341.816 132.976C341.48 133.072 340.832 133.096 340.472 133.096C340.136 133.096 339.032 133.096 338.72 133.096C338.312 133.096 338.264 132.904 338.264 132.376V130.384H336.248ZM352.496 125.848V127.192H366.056V125.848H352.496ZM352.184 136V137.32H366.392V136H352.184ZM354.608 138.04C355.328 138.712 356.144 139.648 356.504 140.272L358.04 139.456C357.656 138.832 356.792 137.92 356.048 137.32L354.608 138.04ZM355.088 130.96H363.464V131.872H355.088V130.96ZM355.088 129.088H363.464V129.952H355.088V129.088ZM353.312 128.032V132.928H365.312V128.032H353.312ZM361.184 135.208V139.168C361.184 139.408 361.112 139.48 360.872 139.48C360.608 139.504 359.744 139.504 358.904 139.48C359.096 139.816 359.312 140.272 359.408 140.704C360.8 140.704 361.736 140.704 362.312 140.512C362.936 140.32 363.104 140.056 363.104 139.24V135.208H361.184ZM352.568 133.96L352.64 135.28C355.736 135.232 360.128 135.112 364.376 134.968L364.424 133.864C360.032 133.936 355.52 133.984 352.568 133.96ZM362.24 133.528C363.152 134.2 364.256 135.28 364.808 136L366.032 135.064C365.504 134.392 364.4 133.408 363.44 132.736L362.24 133.528ZM358.28 124.84V134.488L360.176 134.392V124.84H358.28ZM349.448 122.728V144.04H351.536V124.48H367.088V143.944H369.248V122.728H349.448ZM350.48 141.04V142.816H367.976V141.04H350.48ZM392.528 128.656C391.16 129.832 388.88 131.416 387.248 132.28L388.4 133.6C390.08 132.736 392.288 131.416 393.968 130.144L392.528 128.656ZM381.92 122.92C383 123.832 384.2 125.176 384.728 126.064L386.504 124.84C385.928 123.952 384.728 122.728 383.6 121.864L381.92 122.92ZM380.144 125.68V127.672H394.256V125.68H380.144ZM386.384 131.392C385.088 132.64 382.472 134.104 380.552 134.824C380.984 135.208 381.512 135.952 381.8 136.456C383.744 135.472 386.408 133.744 387.824 132.352L386.384 131.392ZM387.488 134.632C385.856 136.456 382.472 138.4 379.688 139.216C380.192 139.648 380.72 140.344 381.032 140.848C383.792 139.768 387.2 137.632 388.976 135.64L387.488 134.632ZM390.176 121.768C389.6 122.992 388.568 124.696 387.704 125.752L389.552 126.376C390.392 125.392 391.472 123.856 392.36 122.44L390.176 121.768ZM373.16 122.776V144.04H375.176V124.816H378.824V122.776H373.16ZM378.128 122.776V123.424C377.696 125.008 376.856 128.08 376.088 130.264C377.648 132.016 378.032 133.576 378.032 134.8C378.032 135.496 377.912 136.072 377.576 136.312C377.384 136.456 377.144 136.528 376.856 136.528C376.52 136.552 376.112 136.528 375.608 136.504C375.944 137.056 376.112 137.92 376.136 138.472C376.688 138.496 377.264 138.472 377.744 138.424C378.248 138.352 378.68 138.208 379.04 137.968C379.76 137.464 380.048 136.456 380.048 135.04C380.048 133.6 379.688 131.944 378.056 130C378.8 128.104 379.664 125.584 380.312 123.568L378.848 122.704L378.512 122.776H378.128ZM386.288 126.376C384.8 128.224 382.136 129.88 379.592 130.888C380.024 131.248 380.672 132.088 380.936 132.496C383.504 131.272 386.408 129.28 388.16 127.096L386.288 126.376ZM390.872 132.04L389.144 132.64C390.08 135.592 391.76 138.856 393.392 140.68C393.728 140.2 394.4 139.528 394.856 139.192C393.296 137.632 391.688 134.728 390.872 132.04ZM384.368 129.016C388.328 133.024 388.016 139.84 386.672 141.136C386.288 141.64 385.904 141.736 385.328 141.736C384.824 141.736 384.032 141.712 383.24 141.616C383.6 142.216 383.768 143.08 383.792 143.656C384.464 143.704 385.256 143.728 385.712 143.728C386.84 143.704 387.584 143.44 388.304 142.648C390.368 140.776 390.536 132.616 386 128.128L384.368 129.016Z" fill="#002B51"/>
<path d="M57.536 193H59.216V187.192C59.216 186.12 59.072 184.616 58.976 183.544H59.04L59.984 186.264L62.032 191.88H63.184L65.232 186.264L66.192 183.544H66.256C66.16 184.616 66.016 186.12 66.016 187.192V193H67.728V181.224H65.584L63.456 187.192C63.2 187.96 62.976 188.76 62.688 189.56H62.624C62.352 188.76 62.112 187.96 61.824 187.192L59.68 181.224H57.536V193ZM74.5132 193.224C76.6892 193.224 78.6573 191.528 78.6573 188.616C78.6573 185.672 76.6892 183.976 74.5132 183.976C72.3212 183.976 70.3692 185.672 70.3692 188.616C70.3692 191.528 72.3212 193.224 74.5132 193.224ZM74.5132 191.704C73.1212 191.704 72.2732 190.472 72.2732 188.616C72.2732 186.744 73.1212 185.512 74.5132 185.512C75.8892 185.512 76.7692 186.744 76.7692 188.616C76.7692 190.472 75.8892 191.704 74.5132 191.704ZM84.677 193.224C86.853 193.224 88.821 191.528 88.821 188.616C88.821 185.672 86.853 183.976 84.677 183.976C82.485 183.976 80.533 185.672 80.533 188.616C80.533 191.528 82.485 193.224 84.677 193.224ZM84.677 191.704C83.285 191.704 82.437 190.472 82.437 188.616C82.437 186.744 83.285 185.512 84.677 185.512C86.053 185.512 86.933 186.744 86.933 188.616C86.933 190.472 86.053 191.704 84.677 191.704ZM94.3447 193.224C95.3367 193.224 96.2487 192.696 96.9207 192.024H96.9687L97.1127 193H98.6327V180.264H96.7767V183.512L96.8567 184.968C96.1527 184.36 95.4967 183.976 94.4887 183.976C92.5367 183.976 90.7287 185.752 90.7287 188.616C90.7287 191.528 92.1367 193.224 94.3447 193.224ZM94.7927 191.688C93.4167 191.688 92.6327 190.584 92.6327 188.584C92.6327 186.696 93.6247 185.512 94.8567 185.512C95.5127 185.512 96.1367 185.736 96.7767 186.328V190.616C96.1527 191.352 95.5127 191.688 94.7927 191.688ZM101.703 193H103.559V184.2H101.703V193ZM102.631 182.552C103.303 182.552 103.783 182.12 103.783 181.448C103.783 180.792 103.303 180.36 102.631 180.36C101.943 180.36 101.495 180.792 101.495 181.448C101.495 182.12 101.943 182.552 102.631 182.552ZM106.632 193H108.488V186.76C109.256 185.992 109.816 185.576 110.632 185.576C111.656 185.576 112.104 186.168 112.104 187.704V193H113.96V187.464C113.96 185.24 113.128 183.976 111.256 183.976C110.056 183.976 109.144 184.632 108.344 185.432H108.296L108.136 184.2H106.632V193ZM119.961 196.952C122.777 196.952 124.569 195.576 124.569 193.88C124.569 192.376 123.481 191.736 121.401 191.736H119.769C118.665 191.736 118.297 191.4 118.297 190.888C118.297 190.456 118.505 190.2 118.777 189.96C119.177 190.136 119.625 190.216 120.009 190.216C121.865 190.216 123.321 189.128 123.321 187.192C123.321 186.52 123.081 185.944 122.745 185.592H124.409V184.2H121.305C120.969 184.072 120.521 183.976 120.009 183.976C118.201 183.976 116.601 185.144 116.601 187.144C116.601 188.184 117.177 189.032 117.769 189.48V189.544C117.273 189.896 116.793 190.488 116.793 191.176C116.793 191.896 117.129 192.36 117.593 192.648V192.728C116.777 193.208 116.313 193.896 116.313 194.648C116.313 196.168 117.849 196.952 119.961 196.952ZM120.009 189.032C119.113 189.032 118.361 188.312 118.361 187.144C118.361 185.96 119.097 185.288 120.009 185.288C120.937 185.288 121.673 185.96 121.673 187.144C121.673 188.312 120.921 189.032 120.009 189.032ZM120.233 195.736C118.777 195.736 117.881 195.224 117.881 194.376C117.881 193.928 118.105 193.48 118.633 193.08C119.001 193.176 119.385 193.208 119.801 193.208H121.129C122.201 193.208 122.777 193.448 122.777 194.184C122.777 194.984 121.769 195.736 120.233 195.736ZM127.307 182.088V183.416H130.811V191.336H127.307V192.68H132.187V182.088H127.307ZM126.411 182.088V193.912H127.803V182.088H126.411ZM127.227 186.456V187.784H131.499V186.456H127.227ZM128.795 179.48C128.683 180.328 128.411 181.544 128.155 182.344L129.371 182.632C129.691 181.896 130.091 180.776 130.427 179.736L128.795 179.48ZM134.395 182.008V183.4H139.211V182.008H134.395ZM138.683 182.008V182.312C138.491 189.192 138.251 191.896 137.723 192.456C137.547 192.68 137.355 192.728 137.035 192.728C136.651 192.728 135.691 192.712 134.651 192.632C134.923 193.032 135.115 193.672 135.147 194.104C136.059 194.136 137.019 194.168 137.595 194.104C138.203 194.024 138.603 193.864 138.987 193.336C139.643 192.52 139.851 190.008 140.075 182.728C140.091 182.536 140.091 182.008 140.091 182.008H138.683ZM134.603 179.464C134.091 181.64 133.211 183.832 132.123 185.224C132.475 185.416 133.099 185.848 133.371 186.088C134.459 184.568 135.451 182.184 136.059 179.8L134.603 179.464ZM133.851 186.36C134.683 187.528 135.723 189.112 136.187 190.088L137.483 189.304C136.971 188.36 135.883 186.808 135.035 185.688L133.851 186.36ZM146.155 184.024V191.736C146.155 193.528 146.699 194.056 148.587 194.056C148.971 194.056 151.163 194.056 151.579 194.056C153.451 194.056 153.899 193.128 154.091 190.088C153.675 189.976 153.019 189.704 152.651 189.432C152.539 192.088 152.395 192.632 151.483 192.632C150.987 192.632 149.147 192.632 148.747 192.632C147.899 192.632 147.739 192.504 147.739 191.736V184.024H146.155ZM143.451 185.096C143.243 187.112 142.731 189.576 142.091 191.24L143.627 191.88C144.235 190.104 144.683 187.368 144.923 185.384L143.451 185.096ZM153.451 185.208C154.331 187.096 155.179 189.64 155.467 191.272L156.987 190.664C156.651 189 155.787 186.552 154.859 184.648L153.451 185.208ZM146.827 180.936C148.331 181.976 150.267 183.544 151.147 184.536L152.251 183.368C151.307 182.376 149.339 180.904 147.851 179.928L146.827 180.936ZM165.147 188.696V189.8H171.131V188.696H165.147ZM163.691 180.68V181.8H172.619V180.68H163.691ZM164.187 182.664V183.72H172.155V182.664H164.187ZM163.291 184.632V185.752H173.115V184.632H163.291ZM165.147 190.792V191.896H171.163V190.792H165.147ZM170.747 186.552V192.808C170.747 193 170.667 193.064 170.459 193.064C170.251 193.08 169.483 193.08 168.731 193.048C168.907 193.416 169.099 193.976 169.163 194.344C170.283 194.344 171.035 194.328 171.531 194.12C172.043 193.912 172.171 193.528 172.171 192.824V186.552H170.747ZM167.387 179.496V185H168.891V179.496H167.387ZM160.619 179.48V194.312H162.027V179.48H160.619ZM158.971 182.616C158.859 183.912 158.555 185.688 158.171 186.776L159.387 187.208C159.771 185.976 160.059 184.104 160.155 182.792L158.971 182.616ZM161.899 182.168C162.283 182.968 162.731 184.056 162.907 184.696L163.963 184.152C163.771 183.544 163.307 182.504 162.907 181.72L161.899 182.168ZM164.267 186.552V189.48C164.267 190.728 164.171 192.328 163.275 193.496C163.579 193.688 164.155 194.232 164.363 194.52C165.467 193.144 165.691 191.048 165.691 189.512V186.552H164.267ZM165.083 186.552V187.64H171.531V186.552H165.083ZM185.931 183.896C186.747 185.16 187.675 186.872 188.059 187.912L189.403 187.272C188.987 186.216 187.995 184.584 187.163 183.352L185.931 183.896ZM180.683 181.448V182.872H189.275V181.448H180.683ZM185.131 186.424V192.216C185.131 193.624 185.419 194.072 186.683 194.072C186.923 194.072 187.723 194.072 187.979 194.072C189.067 194.072 189.419 193.448 189.547 191.16C189.147 191.048 188.555 190.824 188.235 190.568C188.203 192.44 188.155 192.728 187.835 192.728C187.659 192.728 187.051 192.728 186.907 192.728C186.603 192.728 186.555 192.664 186.555 192.2V186.424H185.131ZM182.459 186.76C182.363 190.12 182.107 192.088 179.627 193.24C179.963 193.512 180.379 194.04 180.555 194.424C183.371 193.016 183.771 190.616 183.883 186.76H182.459ZM181.067 187.576C181.547 187.352 182.299 187.256 188.123 186.6C188.059 186.296 187.995 185.72 187.963 185.336L181.835 185.928L181.019 186.424L181.067 187.576ZM181.067 187.576C181.067 187.272 182.107 186.744 182.107 186.744V186.712C183.451 184.968 184.907 182.44 185.979 179.912L184.331 179.464C183.515 181.816 182.123 184.28 181.659 184.92C181.227 185.576 180.907 185.992 180.555 186.088C180.731 186.504 180.987 187.256 181.067 187.576ZM178.443 185.912C178.923 186.952 179.355 188.328 179.515 189.176L180.635 188.728C180.475 187.88 179.995 186.552 179.499 185.528L178.443 185.912ZM176.987 190.072C177.163 191.144 177.323 192.536 177.355 193.448L178.507 193.16C178.459 192.248 178.283 190.872 178.091 189.816L176.987 190.072ZM175.227 189.912C175.099 191.208 174.891 192.648 174.507 193.608C174.811 193.688 175.403 193.88 175.659 194.024C175.979 193.048 176.267 191.528 176.427 190.12L175.227 189.912ZM174.987 185.656C174.987 185.368 175.883 184.904 175.883 184.904V184.872C176.923 183.592 178.027 181.752 178.827 179.992L177.451 179.4C176.827 181.128 175.755 182.952 175.419 183.4C175.083 183.896 174.811 184.2 174.523 184.28C174.683 184.664 174.907 185.352 174.987 185.656ZM174.987 185.656C175.259 185.512 175.723 185.416 178.235 185.16C178.235 184.872 178.299 184.376 178.363 184.024L175.579 184.248L174.971 184.648L174.987 185.656ZM175.099 189.304C175.099 189.016 175.995 188.568 175.995 188.568V188.536C177.563 186.936 179.131 184.696 180.347 182.488L179.067 181.72C178.059 183.944 176.395 186.264 175.851 186.84C175.355 187.448 175.019 187.832 174.635 187.928C174.811 188.312 175.035 189.016 175.099 189.304ZM175.099 189.304C175.451 189.128 175.979 188.968 179.755 188.328C179.723 188.04 179.739 187.528 179.787 187.176L175.659 187.816L175.035 188.248L175.099 189.304ZM178.747 189.72C179.067 190.616 179.419 191.784 179.547 192.536L180.651 192.152C180.491 191.4 180.123 190.264 179.787 189.368L178.747 189.72ZM192.075 184.36V185.528H197.387V184.36H192.075ZM192.075 186.488V187.656H197.355V186.488H192.075ZM191.371 182.184V183.416H198.059V182.184H191.371ZM192.827 188.664V189.896H196.075V192.184H192.827V193.416H197.387V188.664H192.827ZM192.171 188.664V194.136H193.467V188.664H192.171ZM193.211 180.008C193.643 180.68 194.155 181.624 194.395 182.216L195.595 181.528C195.339 180.952 194.843 180.088 194.395 179.432L193.211 180.008ZM198.027 184.952V186.44H205.739V184.952H198.027ZM201.019 179.784V194.344H202.587V179.784H201.019ZM207.659 186.456V187.8H221.819V186.456H207.659ZM214.795 189.336V190.648H220.779V189.336H214.795ZM214.107 187.112V193.112H215.643V187.112H214.107ZM211.259 189.688L210.011 190.12C211.291 193.4 213.467 194.072 217.195 194.072H221.659C221.739 193.624 221.979 192.952 222.203 192.616C221.227 192.648 217.995 192.648 217.259 192.648C214.267 192.632 212.187 192.184 211.259 189.688ZM210.267 188.248C209.867 190.504 208.859 192.264 207.195 193.32C207.531 193.544 208.123 194.104 208.347 194.376C210.107 193.112 211.259 191.112 211.771 188.456L210.267 188.248ZM210.715 183.336H218.619V184.424H210.715V183.336ZM210.715 181.224H218.619V182.296H210.715V181.224ZM209.259 180.104V185.528H220.155V180.104H209.259ZM229.675 180.248V181.608H238.251V180.248H229.675ZM230.043 188.536V189.896H237.771V188.536H230.043ZM229.227 192.584V193.976H238.427V192.584H229.227ZM233.115 189.176V193.432H234.635V189.176H233.115ZM231.163 182.008C230.795 182.776 230.107 183.96 229.467 184.936C230.299 186.056 231.035 187.272 231.387 188.104L232.619 187.608C232.283 186.904 231.579 185.816 230.891 184.92C231.419 184.12 232.027 183.16 232.459 182.328L231.163 182.008ZM233.899 182.024C233.531 182.792 232.843 183.96 232.171 184.92C233.035 186.024 233.803 187.224 234.155 188.056L235.371 187.528C235.035 186.84 234.315 185.784 233.611 184.904C234.139 184.12 234.747 183.16 235.195 182.344L233.899 182.024ZM236.651 182.008C236.267 182.776 235.547 183.976 234.859 184.936C235.771 186.04 236.619 187.272 237.003 188.104L238.219 187.544C237.835 186.856 237.067 185.8 236.331 184.92C236.859 184.12 237.483 183.176 237.963 182.344L236.651 182.008ZM227.499 185.928C227.899 187.032 228.315 188.456 228.443 189.32L229.643 188.92C229.483 188.072 229.035 186.664 228.619 185.608L227.499 185.928ZM226.011 190.104C226.203 191.16 226.363 192.568 226.395 193.48L227.579 193.24C227.531 192.328 227.339 190.952 227.147 189.896L226.011 190.104ZM224.283 189.912C224.155 191.256 223.931 192.728 223.547 193.704C223.867 193.816 224.475 194.008 224.763 194.152C225.099 193.128 225.387 191.576 225.547 190.12L224.283 189.912ZM223.995 185.656C223.995 185.368 224.843 184.936 224.843 184.936V184.904C225.899 183.64 227.003 181.784 227.803 180.024L226.459 179.464C225.851 181.192 224.779 183 224.427 183.464C224.107 183.96 223.835 184.28 223.531 184.344C223.691 184.712 223.915 185.368 223.995 185.656ZM223.995 185.656C224.283 185.512 224.763 185.4 227.291 185.144C227.307 184.84 227.355 184.312 227.435 183.944L224.619 184.168L223.947 184.584L223.995 185.656ZM224.107 189.304C224.107 189.032 224.987 188.584 224.987 188.584V188.552C226.523 186.984 228.075 184.776 229.259 182.632L227.995 181.88C226.987 184.04 225.355 186.312 224.843 186.888C224.347 187.48 223.995 187.864 223.627 187.944C223.803 188.328 224.027 189.016 224.107 189.304ZM224.107 189.304C224.443 189.128 224.987 189 228.539 188.488C228.523 188.184 228.555 187.656 228.603 187.288L224.715 187.784L224.043 188.216L224.107 189.304ZM227.611 189.768C227.915 190.6 228.235 191.704 228.347 192.408L229.467 192.024C229.323 191.32 228.971 190.264 228.667 189.432L227.611 189.768ZM241.835 187.24V188.728H252.843V187.24H241.835ZM241.835 191.928V193.416H252.811V191.928H241.835ZM241.099 182.584V194.36H242.603V184.104H252.091V194.312H253.675V182.584H241.099ZM246.523 179.512V192.712H248.075V179.512H246.523ZM263.547 184.712V186.104H268.843V184.712H263.547ZM263.307 192.216V193.576H268.827V192.216H263.307ZM262.699 187.688V194.392H264.171V189.032H268.027V194.36H269.563V187.688H262.699ZM266.731 180.024L265.547 180.424C266.555 182.744 268.299 185.048 270.123 186.28C270.379 185.88 270.875 185.32 271.227 185.032C269.419 184.024 267.643 181.992 266.731 180.024ZM265.675 179.496C264.875 181.752 263.227 183.96 261.147 185.336C261.483 185.576 261.995 186.12 262.219 186.44C264.459 184.872 266.139 182.536 267.115 179.912L265.675 179.496ZM257.579 180.968V182.36H259.787V188.728H257.579V190.136H261.179V180.968H257.579ZM256.811 180.968V191.608H258.187V180.968H256.811ZM278.139 185.016V186.312H286.731V181.864H277.019V183.176H285.387V185.016H278.139ZM277.275 185.016C277.115 186.44 276.811 188.264 276.539 189.448H277.899C278.123 188.312 278.411 186.488 278.603 185.016H277.275ZM277.483 188.152L277.163 189.448H286.251V188.152H277.483ZM285.883 188.152V188.344C285.819 190.632 285.771 191.432 285.595 191.656C285.499 191.768 285.387 191.8 285.211 191.8C285.019 191.8 284.619 191.8 284.171 191.736C284.347 192.072 284.459 192.6 284.491 193C285.067 193.032 285.611 193.016 285.915 192.968C286.283 192.92 286.523 192.808 286.747 192.536C287.035 192.168 287.131 191.128 287.195 188.664C287.211 188.472 287.211 188.152 287.211 188.152H285.883ZM282.555 179.688V194.344H283.899V179.688H282.555ZM279.691 179.688V187.16C279.691 189.656 279.323 192.008 276.443 193.432C276.731 193.656 277.179 194.152 277.387 194.424C280.539 192.856 281.035 190.2 281.035 187.16V179.688H279.691ZM276.043 179.56C275.179 181.928 273.739 184.28 272.203 185.784C272.475 186.136 272.891 186.952 273.035 187.32C274.779 185.512 276.427 182.728 277.467 180.008L276.043 179.56ZM274.443 183.816V194.328H275.883V182.392L275.867 182.376L274.443 183.816ZM289.275 183.976V185.528H303.419V183.976H289.275ZM297.259 184.6L295.739 184.952C296.939 189.304 299.035 192.648 302.587 194.312C302.843 193.88 303.339 193.224 303.723 192.888C300.379 191.512 298.267 188.376 297.259 184.6ZM295.499 179.512C295.451 183.56 295.659 190.104 288.971 193.048C289.403 193.368 289.867 193.912 290.107 194.312C297.051 191.064 297.083 184.008 297.147 179.512H295.499ZM305.435 190.056V191.304H319.851V190.056H305.435ZM308.475 187.288V188.392H315.803V187.288H308.475ZM312.059 189.48V192.808C312.059 193.016 311.995 193.064 311.739 193.08C311.483 193.08 310.555 193.08 309.659 193.048C309.851 193.416 310.075 193.928 310.155 194.328C311.403 194.328 312.235 194.328 312.811 194.136C313.387 193.928 313.547 193.576 313.547 192.856V189.48H312.059ZM315.435 187.288V187.544C314.715 188.168 313.275 189.016 312.059 189.48C312.251 189.656 312.603 190.024 312.763 190.264C314.219 189.704 315.835 188.856 316.987 187.992L316.107 187.208L315.787 187.288H315.435ZM305.755 185.24V188.328H307.195V186.376H318.075V188.328H319.579V185.24H305.755ZM317.275 180.072C317.195 181.912 317.035 184.328 316.827 185.832H318.283C318.459 184.376 318.619 181.96 318.715 180.072H317.275ZM314.843 180.072V181.064H317.867V180.072H314.843ZM309.867 179.608C309.035 179.88 307.643 180.28 306.699 180.44L307.243 181.288C308.203 181.144 309.563 180.888 310.523 180.504L309.867 179.608ZM307.467 181.8V182.776H310.411V181.8H307.467ZM307.531 183.512V184.504H310.475V183.512H307.531ZM314.939 181.8V182.776H317.723V181.8H314.939ZM314.843 183.512V184.504H317.611V183.512H314.843ZM313.339 179.624C312.731 180.44 311.627 181.192 310.539 181.704C310.779 181.864 311.179 182.216 311.355 182.408C312.443 181.832 313.643 180.904 314.363 179.912L313.339 179.624ZM310.843 180.408C311.883 180.904 313.147 181.688 313.755 182.264L314.507 181.576C313.851 181.016 312.587 180.248 311.563 179.784L310.843 180.408ZM313.371 182.328C312.731 183.192 311.547 183.992 310.411 184.504C310.651 184.68 311.035 185.08 311.211 185.272C312.363 184.664 313.627 183.688 314.395 182.632L313.371 182.328ZM310.779 183.112C311.867 183.672 313.179 184.536 313.803 185.16L314.571 184.456C313.915 183.832 312.571 183.016 311.515 182.504L310.779 183.112ZM306.699 180.44L307.035 185.784H308.443L308.139 180.824L306.699 180.44ZM328.267 180.344V181.768H336.075V180.344H328.267ZM327.835 186.088V187.528H336.395V186.088H327.835ZM333.195 180.936V194.36H334.635V180.936H333.195ZM329.515 180.984V186.504C329.515 188.776 329.291 191.672 327.515 193.576C327.867 193.768 328.411 194.184 328.667 194.44C330.651 192.36 330.939 189.176 330.939 186.52V180.984H329.515ZM321.723 180.328V181.704H327.451V180.328H321.723ZM323.419 185.24V186.6H325.899V191.032H323.419V192.376H327.211V185.24H323.419ZM323.723 180.984C323.307 183.544 322.587 185.976 321.403 187.544C321.627 187.976 321.931 188.888 322.011 189.272C323.563 187.32 324.523 184.328 325.099 181.288L323.723 180.984ZM322.763 185.24V193.608H324.027V185.24H322.763ZM339.083 187.944V189.352H348.347V187.944H339.083ZM347.467 187.944V192.024C347.467 193.592 347.883 194.056 349.291 194.056C349.579 194.056 350.683 194.056 350.987 194.056C352.267 194.056 352.683 193.4 352.827 190.856C352.411 190.744 351.707 190.488 351.387 190.216C351.339 192.264 351.259 192.552 350.827 192.552C350.587 192.552 349.739 192.552 349.547 192.552C349.115 192.552 349.051 192.488 349.051 192.024V187.944H347.467ZM338.475 181V184.056H339.995V182.36H350.651V183.928H352.235V181H338.475ZM343.515 186.072V188.04C343.515 189.704 342.859 191.848 337.931 193.144C338.283 193.48 338.747 194.04 338.987 194.424C344.331 192.984 345.099 190.296 345.099 188.072V186.072H343.515ZM342.699 182.072C342.475 184.008 341.867 185.016 338.619 185.56C338.923 185.848 339.291 186.408 339.435 186.792C343.131 186.024 343.995 184.616 344.283 182.072H342.699ZM344.139 179.72C344.395 180.408 344.683 181.32 344.811 181.864L346.443 181.528C346.315 180.984 345.979 180.104 345.707 179.464L344.139 179.72ZM346.315 182.056V184.76C346.315 186.104 346.667 186.632 348.187 186.632C348.507 186.632 350.171 186.632 350.571 186.632C351.099 186.632 351.659 186.616 351.947 186.536C351.899 186.184 351.851 185.64 351.819 185.256C351.531 185.32 350.907 185.352 350.523 185.352C350.155 185.352 348.619 185.352 348.283 185.352C347.883 185.352 347.819 185.192 347.819 184.776V182.056H346.315ZM360.731 179.512V192.68H362.395V179.512H360.731ZM366.363 187.512V194.328H368.027V187.512H366.363ZM355.915 180.92V186.568H367.387V180.904H365.723V185.096H357.499V180.92H355.915ZM355.147 187.512V193.448H367.147V191.928H356.827V187.512H355.147ZM58.176 211.088V212.416H61.68V220.336H58.176V221.68H63.056V211.088H58.176ZM57.28 211.088V222.912H58.672V211.088H57.28ZM58.096 215.456V216.784H62.368V215.456H58.096ZM59.664 208.48C59.552 209.328 59.28 210.544 59.024 211.344L60.24 211.632C60.56 210.896 60.96 209.776 61.296 208.736L59.664 208.48ZM65.264 211.008V212.4H70.08V211.008H65.264ZM69.552 211.008V211.312C69.36 218.192 69.12 220.896 68.592 221.456C68.416 221.68 68.224 221.728 67.904 221.728C67.52 221.728 66.56 221.712 65.52 221.632C65.792 222.032 65.984 222.672 66.016 223.104C66.928 223.136 67.888 223.168 68.464 223.104C69.072 223.024 69.472 222.864 69.856 222.336C70.512 221.52 70.72 219.008 70.944 211.728C70.96 211.536 70.96 211.008 70.96 211.008H69.552ZM65.472 208.464C64.96 210.64 64.08 212.832 62.992 214.224C63.344 214.416 63.968 214.848 64.24 215.088C65.328 213.568 66.32 211.184 66.928 208.8L65.472 208.464ZM64.72 215.36C65.552 216.528 66.592 218.112 67.056 219.088L68.352 218.304C67.84 217.36 66.752 215.808 65.904 214.688L64.72 215.36ZM81.872 213.856V215.264H87.712V213.856H81.872ZM73.232 210.144V211.392H80.368V210.144H73.232ZM73.072 216.496V217.792H80.4V216.496H73.072ZM72.992 213.76V215.024H80.624V213.76H72.992ZM84.592 214.464V223.28H86.064V214.464H84.592ZM74.192 211.712C74.448 212.352 74.672 213.216 74.752 213.76L76.016 213.408C75.936 212.88 75.696 212.048 75.408 211.424L74.192 211.712ZM78.176 211.408C77.968 212.144 77.6 213.248 77.296 213.936L78.528 214.208C78.848 213.568 79.216 212.592 79.552 211.68L78.176 211.408ZM86.24 208.72C85.088 209.232 83.072 209.728 81.296 210.032C81.472 210.352 81.68 210.864 81.76 211.184C83.648 210.912 85.84 210.448 87.44 209.84L86.24 208.72ZM75.616 208.752C75.936 209.44 76.32 210.368 76.464 210.944L78.048 210.512C77.888 209.936 77.472 209.04 77.12 208.384L75.616 208.752ZM81.296 210.032V215.664C81.296 217.776 81.184 220.496 79.904 222.384C80.224 222.544 80.816 223.024 81.072 223.296C82.496 221.216 82.704 217.984 82.704 215.664V210.032H81.296ZM78.224 218.896C78.688 219.664 79.248 220.736 79.504 221.408L80.56 220.768C80.304 220.128 79.744 219.12 79.232 218.352L78.224 218.896ZM74.368 218.48C74.032 219.52 73.488 220.624 72.896 221.376C73.184 221.536 73.696 221.888 73.92 222.08C74.512 221.264 75.168 219.968 75.552 218.832L74.368 218.48ZM76.192 214.448V223.264H77.664V214.448H76.192ZM90.816 211.088V212.416H94.32V220.336H90.816V221.68H95.696V211.088H90.816ZM89.92 211.088V222.912H91.312V211.088H89.92ZM90.736 215.456V216.784H95.008V215.456H90.736ZM92.304 208.48C92.192 209.328 91.92 210.544 91.664 211.344L92.88 211.632C93.2 210.896 93.6 209.776 93.936 208.736L92.304 208.48ZM97.904 211.008V212.4H102.72V211.008H97.904ZM102.192 211.008V211.312C102 218.192 101.76 220.896 101.232 221.456C101.056 221.68 100.864 221.728 100.544 221.728C100.16 221.728 99.2 221.712 98.16 221.632C98.432 222.032 98.624 222.672 98.656 223.104C99.568 223.136 100.528 223.168 101.104 223.104C101.712 223.024 102.112 222.864 102.496 222.336C103.152 221.52 103.36 219.008 103.584 211.728C103.6 211.536 103.6 211.008 103.6 211.008H102.192ZM98.112 208.464C97.6 210.64 96.72 212.832 95.632 214.224C95.984 214.416 96.608 214.848 96.88 215.088C97.968 213.568 98.96 211.184 99.568 208.8L98.112 208.464ZM97.36 215.36C98.192 216.528 99.232 218.112 99.696 219.088L100.992 218.304C100.48 217.36 99.392 215.808 98.544 214.688L97.36 215.36ZM116.8 212.896C117.616 214.16 118.544 215.872 118.928 216.912L120.272 216.272C119.856 215.216 118.864 213.584 118.032 212.352L116.8 212.896ZM111.552 210.448V211.872H120.144V210.448H111.552ZM116 215.424V221.216C116 222.624 116.288 223.072 117.552 223.072C117.792 223.072 118.592 223.072 118.848 223.072C119.936 223.072 120.288 222.448 120.416 220.16C120.016 220.048 119.424 219.824 119.104 219.568C119.072 221.44 119.024 221.728 118.704 221.728C118.528 221.728 117.92 221.728 117.776 221.728C117.472 221.728 117.424 221.664 117.424 221.2V215.424H116ZM113.328 215.76C113.232 219.12 112.976 221.088 110.496 222.24C110.832 222.512 111.248 223.04 111.424 223.424C114.24 222.016 114.64 219.616 114.752 215.76H113.328ZM111.936 216.576C112.416 216.352 113.168 216.256 118.992 215.6C118.928 215.296 118.864 214.72 118.832 214.336L112.704 214.928L111.888 215.424L111.936 216.576ZM111.936 216.576C111.936 216.272 112.976 215.744 112.976 215.744V215.712C114.32 213.968 115.776 211.44 116.848 208.912L115.2 208.464C114.384 210.816 112.992 213.28 112.528 213.92C112.096 214.576 111.776 214.992 111.424 215.088C111.6 215.504 111.856 216.256 111.936 216.576ZM109.312 214.912C109.792 215.952 110.224 217.328 110.384 218.176L111.504 217.728C111.344 216.88 110.864 215.552 110.368 214.528L109.312 214.912ZM107.856 219.072C108.032 220.144 108.192 221.536 108.224 222.448L109.376 222.16C109.328 221.248 109.152 219.872 108.96 218.816L107.856 219.072ZM106.096 218.912C105.968 220.208 105.76 221.648 105.376 222.608C105.68 222.688 106.272 222.88 106.528 223.024C106.848 222.048 107.136 220.528 107.296 219.12L106.096 218.912ZM105.856 214.656C105.856 214.368 106.752 213.904 106.752 213.904V213.872C107.792 212.592 108.896 210.752 109.696 208.992L108.32 208.4C107.696 210.128 106.624 211.952 106.288 212.4C105.952 212.896 105.68 213.2 105.392 213.28C105.552 213.664 105.776 214.352 105.856 214.656ZM105.856 214.656C106.128 214.512 106.592 214.416 109.104 214.16C109.104 213.872 109.168 213.376 109.232 213.024L106.448 213.248L105.84 213.648L105.856 214.656ZM105.968 218.304C105.968 218.016 106.864 217.568 106.864 217.568V217.536C108.432 215.936 110 213.696 111.216 211.488L109.936 210.72C108.928 212.944 107.264 215.264 106.72 215.84C106.224 216.448 105.888 216.832 105.504 216.928C105.68 217.312 105.904 218.016 105.968 218.304ZM105.968 218.304C106.32 218.128 106.848 217.968 110.624 217.328C110.592 217.04 110.608 216.528 110.656 216.176L106.528 216.816L105.904 217.248L105.968 218.304ZM109.616 218.72C109.936 219.616 110.288 220.784 110.416 221.536L111.52 221.152C111.36 220.4 110.992 219.264 110.656 218.368L109.616 218.72ZM122.944 213.36V214.528H128.256V213.36H122.944ZM122.944 215.488V216.656H128.224V215.488H122.944ZM122.24 211.184V212.416H128.928V211.184H122.24ZM123.696 217.664V218.896H126.944V221.184H123.696V222.416H128.256V217.664H123.696ZM123.04 217.664V223.136H124.336V217.664H123.04ZM124.08 209.008C124.512 209.68 125.024 210.624 125.264 211.216L126.464 210.528C126.208 209.952 125.712 209.088 125.264 208.432L124.08 209.008ZM128.896 213.952V215.44H136.608V213.952H128.896ZM131.888 208.784V223.344H133.456V208.784H131.888ZM141.872 218.784C141.072 219.872 139.744 221.008 138.512 221.728C138.896 221.952 139.52 222.448 139.824 222.72C141.024 221.904 142.448 220.592 143.392 219.344L141.872 218.784ZM147.664 219.408C148.928 220.352 150.48 221.712 151.216 222.576L152.544 221.68C151.728 220.8 150.144 219.504 148.88 218.608L147.664 219.408ZM144.944 217.344V221.6C144.944 221.792 144.88 221.84 144.608 221.856C144.336 221.872 143.424 221.872 142.512 221.84C142.752 222.24 143.008 222.88 143.088 223.328C144.256 223.328 145.12 223.312 145.712 223.072C146.32 222.832 146.48 222.432 146.48 221.632V217.344H144.944ZM148.976 208.464C146.608 209.52 142.528 210.448 138.864 211.04C139.024 211.376 139.248 211.936 139.296 212.32C143.024 211.728 147.248 210.848 150.096 209.648L148.976 208.464ZM139.712 218.768C139.712 218.496 140.736 218.16 140.736 218.16V218.112C143.696 216.96 146.816 215.376 149.664 213.312L148.528 212.304C145.952 214.32 142.56 216.08 141.472 216.56C140.496 217.024 139.824 217.28 139.264 217.344C139.424 217.744 139.648 218.464 139.712 218.768ZM139.712 218.768C140.384 218.512 141.376 218.416 150.688 217.712C150.672 217.408 150.672 216.816 150.72 216.416L140.64 217.104L139.664 217.632L139.712 218.768ZM140.496 215.344C140.496 215.072 141.456 214.688 141.456 214.688V214.656C143.12 213.952 144.864 212.912 146.432 211.712L145.104 210.864C143.776 212.064 141.968 213.136 141.392 213.424C140.848 213.712 140.448 213.872 140.064 213.936C140.224 214.32 140.432 215.056 140.496 215.344ZM140.496 215.344C140.96 215.184 141.664 215.104 147.104 214.768C147.12 214.48 147.2 213.92 147.28 213.552L141.296 213.84L140.48 214.288L140.496 215.344ZM148.064 215.12C149.2 216.272 150.576 217.872 151.232 218.848L152.528 218.064C151.84 217.104 150.48 215.616 149.312 214.496L148.064 215.12ZM165.76 212.896C166.576 214.16 167.504 215.872 167.888 216.912L169.232 216.272C168.816 215.216 167.824 213.584 166.992 212.352L165.76 212.896ZM160.512 210.448V211.872H169.104V210.448H160.512ZM164.96 215.424V221.216C164.96 222.624 165.248 223.072 166.512 223.072C166.752 223.072 167.552 223.072 167.808 223.072C168.896 223.072 169.248 222.448 169.376 220.16C168.976 220.048 168.384 219.824 168.064 219.568C168.032 221.44 167.984 221.728 167.664 221.728C167.488 221.728 166.88 221.728 166.736 221.728C166.432 221.728 166.384 221.664 166.384 221.2V215.424H164.96ZM162.288 215.76C162.192 219.12 161.936 221.088 159.456 222.24C159.792 222.512 160.208 223.04 160.384 223.424C163.2 222.016 163.6 219.616 163.712 215.76H162.288ZM160.896 216.576C161.376 216.352 162.128 216.256 167.952 215.6C167.888 215.296 167.824 214.72 167.792 214.336L161.664 214.928L160.848 215.424L160.896 216.576ZM160.896 216.576C160.896 216.272 161.936 215.744 161.936 215.744V215.712C163.28 213.968 164.736 211.44 165.808 208.912L164.16 208.464C163.344 210.816 161.952 213.28 161.488 213.92C161.056 214.576 160.736 214.992 160.384 215.088C160.56 215.504 160.816 216.256 160.896 216.576ZM158.272 214.912C158.752 215.952 159.184 217.328 159.344 218.176L160.464 217.728C160.304 216.88 159.824 215.552 159.328 214.528L158.272 214.912ZM156.816 219.072C156.992 220.144 157.152 221.536 157.184 222.448L158.336 222.16C158.288 221.248 158.112 219.872 157.92 218.816L156.816 219.072ZM155.056 218.912C154.928 220.208 154.72 221.648 154.336 222.608C154.64 222.688 155.232 222.88 155.488 223.024C155.808 222.048 156.096 220.528 156.256 219.12L155.056 218.912ZM154.816 214.656C154.816 214.368 155.712 213.904 155.712 213.904V213.872C156.752 212.592 157.856 210.752 158.656 208.992L157.28 208.4C156.656 210.128 155.584 211.952 155.248 212.4C154.912 212.896 154.64 213.2 154.352 213.28C154.512 213.664 154.736 214.352 154.816 214.656ZM154.816 214.656C155.088 214.512 155.552 214.416 158.064 214.16C158.064 213.872 158.128 213.376 158.192 213.024L155.408 213.248L154.8 213.648L154.816 214.656ZM154.928 218.304C154.928 218.016 155.824 217.568 155.824 217.568V217.536C157.392 215.936 158.96 213.696 160.176 211.488L158.896 210.72C157.888 212.944 156.224 215.264 155.68 215.84C155.184 216.448 154.848 216.832 154.464 216.928C154.64 217.312 154.864 218.016 154.928 218.304ZM154.928 218.304C155.28 218.128 155.808 217.968 159.584 217.328C159.552 217.04 159.568 216.528 159.616 216.176L155.488 216.816L154.864 217.248L154.928 218.304ZM158.576 218.72C158.896 219.616 159.248 220.784 159.376 221.536L160.48 221.152C160.32 220.4 159.952 219.264 159.616 218.368L158.576 218.72ZM176.912 219.184C178.72 218.608 179.84 217.216 179.84 215.456C179.84 214.24 179.312 213.456 178.32 213.456C177.584 213.456 176.944 213.92 176.944 214.736C176.944 215.552 177.568 216 178.288 216C178.624 216 178.944 215.904 179.184 215.648L178.304 214.336L178.528 215.776C178.528 216.864 177.808 217.664 176.48 218.144L176.912 219.184ZM192.576 214.224V221.84C192.576 222.048 192.528 222.112 192.304 222.112C192.096 222.112 191.44 222.128 190.768 222.096C190.96 222.432 191.168 222.944 191.232 223.296C192.224 223.296 192.944 223.28 193.408 223.088C193.872 222.88 194.016 222.528 194.016 221.84V214.224H192.576ZM188.912 214.224V215.504H193.36V214.224H188.912ZM195.344 216V221.264C195.344 222.784 195.792 223.232 197.488 223.232C197.856 223.232 199.712 223.232 200.096 223.232C201.504 223.232 201.92 222.64 202.112 220.544C201.696 220.464 201.088 220.224 200.768 219.984C200.688 221.616 200.576 221.888 199.968 221.888C199.536 221.888 197.984 221.888 197.68 221.888C196.976 221.888 196.848 221.808 196.848 221.248V216H195.344ZM191.808 210.128C192.528 211.296 193.392 212.88 193.744 213.856L195.056 213.296C194.656 212.336 193.776 210.8 193.04 209.664L191.808 210.128ZM196.256 210.608V211.92H201.008V210.608H196.256ZM196.272 217.776V219.136H201.168V217.776H196.272ZM188.016 213.44C188.016 213.152 188.896 212.704 188.896 212.704V212.688C189.904 211.792 191.056 210.368 191.92 208.976L190.384 208.496C189.744 209.776 188.72 211.056 188.4 211.408C188.08 211.76 187.808 211.984 187.536 212.048C187.696 212.432 187.936 213.136 188.016 213.44ZM188.016 213.44C188.448 213.264 189.104 213.168 194 212.72C193.904 212.416 193.776 211.904 193.728 211.52L188.72 211.888L187.968 212.336L188.016 213.44ZM188.192 214.224V218.016C188.192 219.392 188.112 221.12 187.216 222.368C187.504 222.56 188.064 223.104 188.272 223.392C189.392 221.936 189.584 219.696 189.584 218.032V214.224H188.192ZM189.344 220.144L189.824 221.424C190.88 220.8 192.096 220.032 193.28 219.264L192.992 218.336C191.632 219.024 190.272 219.728 189.344 220.144ZM189.584 216.928C190.352 217.456 191.36 218.192 191.856 218.656L192.672 217.84C192.144 217.408 191.136 216.704 190.368 216.224L189.584 216.928ZM195.344 208.528V213.36C195.344 214.928 195.808 215.504 197.44 215.504C197.792 215.504 199.744 215.504 200.208 215.504C200.8 215.504 201.424 215.472 201.712 215.392C201.664 215.04 201.6 214.48 201.584 214.08C201.248 214.16 200.592 214.192 200.176 214.192C199.712 214.192 197.904 214.192 197.472 214.192C196.96 214.192 196.848 213.984 196.848 213.408V208.528H195.344ZM205.76 208.512V223.344H207.088V208.512H205.76ZM203.52 213.856V215.264H208.96V213.856H203.52ZM204.832 216.064C204.576 217.408 203.92 219.056 203.264 219.936C203.488 220.352 203.792 221.024 203.92 221.472C204.8 220.352 205.472 218.144 205.808 216.4L204.832 216.064ZM207.856 216.096L207.056 216.656C207.424 217.296 208.224 219.056 208.512 219.84L209.504 218.736C209.264 218.304 208.176 216.496 207.856 216.096ZM203.552 209.808C203.872 210.896 204.208 212.32 204.336 213.248L205.472 212.944C205.328 212.032 204.976 210.64 204.624 209.552L203.552 209.808ZM208.224 209.568C208 210.592 207.552 212.064 207.184 212.976L208.144 213.328C208.544 212.496 209.056 211.12 209.488 209.984L208.224 209.568ZM209.472 209.744V210.864H218.112V209.744H209.472ZM209.872 211.696V212.752H217.808V211.696H209.872ZM209.264 213.664V214.784H218.288V213.664H209.264ZM212.976 208.496V214.272H214.432V208.496H212.976ZM216.016 215.616V221.888C216.016 222.064 215.968 222.128 215.76 222.128C215.552 222.128 214.896 222.128 214.224 222.112C214.4 222.448 214.576 222.976 214.64 223.328C215.648 223.344 216.352 223.328 216.832 223.12C217.296 222.928 217.44 222.56 217.44 221.888V215.616H216.016ZM210.896 217.744V218.784H216.672V217.744H210.896ZM210.896 219.792V220.816H216.672V219.792H210.896ZM210.128 215.616V218.528C210.128 219.792 210.032 221.376 209.072 222.544C209.36 222.72 209.92 223.248 210.128 223.52C211.28 222.176 211.504 220.096 211.504 218.56V215.616H210.128ZM210.944 215.616V216.768H216.464V215.616H210.944ZM220.928 209.584C221.792 209.936 222.896 210.512 223.44 210.928L224.256 209.776C223.68 209.376 222.576 208.848 221.712 208.544L220.928 209.584ZM219.744 212.304C220.592 212.624 221.712 213.184 222.256 213.584L223.04 212.432C222.464 212.048 221.344 211.552 220.512 211.264L219.744 212.304ZM220.16 217.168L221.216 218.32C222.208 217.248 223.264 216.016 224.176 214.896L223.36 213.888C222.304 215.104 221.024 216.4 220.16 217.168ZM219.984 219.008V220.384H234.464V219.008H219.984ZM226.368 217.936V223.36H227.92V217.936H226.368ZM226.112 208.416C225.408 210 224.192 211.568 222.912 212.576C223.264 212.784 223.856 213.264 224.112 213.536C225.376 212.4 226.704 210.624 227.536 208.848L226.112 208.416ZM225.36 216.336V217.552H234.064V216.336H225.36ZM225.568 212.352V213.328H233.248V212.352H225.568ZM225.568 214.32V215.296H233.264V214.32H225.568ZM228.944 210.736V217.04H230.384V210.736H228.944ZM228.48 208.944C228.784 209.552 229.12 210.384 229.264 210.88L230.8 210.432C230.624 209.936 230.256 209.136 229.936 208.56L228.48 208.944ZM226.352 210.192H225.712L224.864 211.04V218.208H226.352V211.344H233.824V210.192H226.352ZM238.56 214.48V215.952H247.504V214.48H238.56ZM246.992 214.48V214.752C246.816 219.376 246.608 221.184 246.192 221.616C246.032 221.792 245.84 221.824 245.536 221.824C245.152 221.824 244.224 221.808 243.248 221.728C243.52 222.16 243.712 222.8 243.744 223.248C244.72 223.296 245.696 223.312 246.24 223.248C246.816 223.184 247.216 223.056 247.568 222.592C248.128 221.952 248.352 220.08 248.56 215.168C248.576 214.96 248.576 214.48 248.576 214.48H246.992ZM241.712 214.896C241.424 217.84 240.896 220.688 236.656 222.08C237.008 222.416 237.456 223.04 237.632 223.44C242.24 221.76 243.008 218.448 243.344 214.896H241.712ZM240.032 209.04C239.28 211.504 237.824 213.648 235.952 214.96C236.32 215.216 236.96 215.776 237.232 216.08C239.104 214.576 240.72 212.192 241.616 209.424L240.032 209.04ZM242.704 208.768V210.176H246.272V208.768H242.704ZM244.832 208.768V209.584H245.184C246.064 212.112 247.792 214.624 250.048 216.048C250.288 215.632 250.8 214.992 251.12 214.672C248.992 213.52 247.296 211.216 246.512 208.768H244.832ZM260.224 213.952V215.376H267.216V213.952H260.224ZM265.04 208.672C263.728 209.296 261.504 209.888 259.504 210.272C259.696 210.592 259.92 211.152 260 211.504C262.112 211.152 264.576 210.592 266.336 209.856L265.04 208.672ZM263.504 214.4V223.344H265.008V214.4H263.504ZM252.704 211.872V213.312H258.752V211.872H252.704ZM254.992 208.496V223.344H256.448V208.496H254.992ZM254.944 212.816C254.496 215.008 253.392 217.648 252.256 219.072C252.512 219.44 252.864 220.048 253.008 220.464C254.24 218.832 255.344 215.712 255.872 213.136L254.944 212.816ZM256.288 213.84L255.552 214.544C256.08 215.296 257.28 217.232 257.712 218.16L258.64 216.96C258.288 216.448 256.704 214.32 256.288 213.84ZM259.504 210.272V215.12C259.504 217.376 259.36 220.416 257.904 222.56C258.256 222.688 258.896 223.088 259.152 223.312C260.688 221.056 260.944 217.568 260.944 215.12V210.272H259.504ZM275.28 208.512V221.68H276.944V208.512H275.28ZM280.912 216.512V223.328H282.576V216.512H280.912ZM270.464 209.92V215.568H281.936V209.904H280.272V214.096H272.048V209.92H270.464ZM269.696 216.512V222.448H281.696V220.928H271.376V216.512H269.696ZM291.856 208.512C291.344 209.968 290.448 211.392 289.392 212.304C289.712 212.512 290.272 212.992 290.512 213.248C291.616 212.192 292.64 210.56 293.248 208.848L291.856 208.512ZM291.824 212.976C291.392 214.032 290.64 215.104 289.808 215.808C290.128 216.016 290.688 216.448 290.928 216.704C291.792 215.888 292.672 214.608 293.2 213.36L291.824 212.976ZM291.872 209.92L291.344 211.216H298.56V209.92H291.872ZM296.32 213.52C297.072 214.496 297.888 215.856 298.24 216.72L299.52 216.048C299.152 215.184 298.336 213.904 297.536 212.944L296.32 213.52ZM298.16 209.92V210.112C297.888 210.944 297.456 211.984 297.104 212.624L298.4 212.896C298.784 212.192 299.28 211.088 299.68 210.112L298.624 209.872L298.384 209.92H298.16ZM288.752 208.448C287.872 210.176 286.432 211.904 284.96 212.992C285.248 213.28 285.728 213.904 285.904 214.192C287.456 212.912 289.072 210.912 290.096 208.896L288.752 208.448ZM287.28 211.648V217.76H288.736V210.24L288.704 210.224L287.28 211.648ZM288.608 218.528V221.152C288.608 222.64 289.136 223.056 291.2 223.056C291.632 223.056 294.288 223.056 294.72 223.056C296.416 223.056 296.88 222.544 297.072 220.416C296.656 220.336 296.016 220.112 295.68 219.856C295.6 221.456 295.456 221.664 294.624 221.664C294 221.664 291.776 221.664 291.312 221.664C290.304 221.664 290.128 221.6 290.128 221.12V218.528H288.608ZM291.088 217.904C291.92 218.736 292.864 219.92 293.248 220.704L294.512 219.952C294.08 219.168 293.104 218.032 292.24 217.248L291.088 217.904ZM296.608 218.768C297.328 219.936 298.032 221.488 298.256 222.48L299.696 221.904C299.44 220.896 298.688 219.392 297.952 218.24L296.608 218.768ZM286.72 218.544C286.368 219.648 285.76 221.088 285.136 222.032L286.56 222.704C287.12 221.712 287.68 220.208 288.08 219.104L286.72 218.544ZM294.176 211.728V217.696H295.632V211.728H294.176ZM302.976 211.088V212.416H306.48V220.336H302.976V221.68H307.856V211.088H302.976ZM302.08 211.088V222.912H303.472V211.088H302.08ZM302.896 215.456V216.784H307.168V215.456H302.896ZM304.464 208.48C304.352 209.328 304.08 210.544 303.824 211.344L305.04 211.632C305.36 210.896 305.76 209.776 306.096 208.736L304.464 208.48ZM310.064 211.008V212.4H314.88V211.008H310.064ZM314.352 211.008V211.312C314.16 218.192 313.92 220.896 313.392 221.456C313.216 221.68 313.024 221.728 312.704 221.728C312.32 221.728 311.36 221.712 310.32 221.632C310.592 222.032 310.784 222.672 310.816 223.104C311.728 223.136 312.688 223.168 313.264 223.104C313.872 223.024 314.272 222.864 314.656 222.336C315.312 221.52 315.52 219.008 315.744 211.728C315.76 211.536 315.76 211.008 315.76 211.008H314.352ZM310.272 208.464C309.76 210.64 308.88 212.832 307.792 214.224C308.144 214.416 308.768 214.848 309.04 215.088C310.128 213.568 311.12 211.184 311.728 208.8L310.272 208.464ZM309.52 215.36C310.352 216.528 311.392 218.112 311.856 219.088L313.152 218.304C312.64 217.36 311.552 215.808 310.704 214.688L309.52 215.36ZM324.496 217.696V218.8H330.48V217.696H324.496ZM323.04 209.68V210.8H331.968V209.68H323.04ZM323.536 211.664V212.72H331.504V211.664H323.536ZM322.64 213.632V214.752H332.464V213.632H322.64ZM324.496 219.792V220.896H330.512V219.792H324.496ZM330.096 215.552V221.808C330.096 222 330.016 222.064 329.808 222.064C329.6 222.08 328.832 222.08 328.08 222.048C328.256 222.416 328.448 222.976 328.512 223.344C329.632 223.344 330.384 223.328 330.88 223.12C331.392 222.912 331.52 222.528 331.52 221.824V215.552H330.096ZM326.736 208.496V214H328.24V208.496H326.736ZM319.968 208.48V223.312H321.376V208.48H319.968ZM318.32 211.616C318.208 212.912 317.904 214.688 317.52 215.776L318.736 216.208C319.12 214.976 319.408 213.104 319.504 211.792L318.32 211.616ZM321.248 211.168C321.632 211.968 322.08 213.056 322.256 213.696L323.312 213.152C323.12 212.544 322.656 211.504 322.256 210.72L321.248 211.168ZM323.616 215.552V218.48C323.616 219.728 323.52 221.328 322.624 222.496C322.928 222.688 323.504 223.232 323.712 223.52C324.816 222.144 325.04 220.048 325.04 218.512V215.552H323.616ZM324.432 215.552V216.64H330.88V215.552H324.432ZM340.576 210.32V211.648H346.336V210.32H340.576ZM342.128 218.832V220H347.472V218.832H342.128ZM342.064 221.424V222.688H347.424V221.424H342.064ZM339.84 213.424V214.784H348.944V213.424H339.84ZM342.928 208.512V214.256H344.432V208.512H342.928ZM341.552 216.192V223.296H343.008V217.456H346.56V223.232H348.08V216.192H341.552ZM347.36 209.312C345.92 212.928 343.216 215.52 339.584 216.992C339.824 217.328 340.176 218.016 340.288 218.352C344.176 216.624 347.088 213.744 348.736 209.68L347.36 209.312ZM337.872 214.944C338.24 216.048 338.592 217.52 338.704 218.4L339.856 218.032C339.744 217.184 339.36 215.76 338.976 214.656L337.872 214.944ZM336.432 219.088C336.608 220.208 336.752 221.68 336.784 222.672L337.984 222.432C337.936 221.456 337.76 220.016 337.584 218.88L336.432 219.088ZM334.672 218.912C334.544 220.256 334.32 221.728 333.936 222.704C334.256 222.8 334.848 222.992 335.136 223.136C335.472 222.128 335.76 220.576 335.92 219.12L334.672 218.912ZM334.352 214.64C334.352 214.368 335.232 213.92 335.232 213.92V213.888C336.256 212.592 337.344 210.752 338.112 208.976L336.752 208.432C336.144 210.16 335.12 211.968 334.784 212.432C334.464 212.928 334.192 213.248 333.888 213.312C334.064 213.68 334.288 214.352 334.352 214.64ZM334.352 214.64C334.64 214.512 335.12 214.4 337.632 214.128C337.632 213.84 337.696 213.296 337.776 212.928L334.992 213.152L334.32 213.568L334.352 214.64ZM334.48 218.288C334.48 218.016 335.376 217.568 335.376 217.568V217.536C336.896 215.968 338.48 213.76 339.664 211.616L338.384 210.832C337.376 213.008 335.728 215.28 335.216 215.856C334.72 216.448 334.368 216.832 333.984 216.928C334.16 217.296 334.4 218 334.48 218.288ZM334.48 218.288C334.816 218.128 335.36 217.984 338.944 217.472C338.928 217.168 338.96 216.64 339.024 216.256L335.088 216.752L334.416 217.184L334.48 218.288ZM338.112 218.768C338.464 219.76 338.832 221.072 338.976 221.92L340.096 221.536C339.936 220.688 339.536 219.424 339.184 218.432L338.112 218.768ZM358.384 209.44V218.16C358.384 219.904 358.88 220.336 360.496 220.336C360.864 220.336 362.784 220.336 363.168 220.336C364.576 220.336 364.992 219.696 365.168 217.696C364.752 217.6 364.16 217.36 363.84 217.12C363.76 218.64 363.648 218.96 363.056 218.96C362.64 218.96 361.008 218.96 360.688 218.96C359.968 218.96 359.856 218.832 359.856 218.16V209.44H358.384ZM358.992 209.44V210.8H362.88V213.888H358.992V215.248H364.352V209.44H358.992ZM350.912 210.208V211.552H357.392V210.208H350.912ZM350.48 213.328V214.688H357.792V213.328H350.48ZM354.512 216.784V218.096H357.648V216.784H354.512ZM353.456 208.528V214.048H354.88V208.528H353.456ZM353.792 214.224V221.472H355.184V214.224H353.792ZM352.336 217.536L351.232 217.888C352.304 222.112 354.288 222.944 358.576 222.944H364.752C364.848 222.496 365.12 221.792 365.36 221.456C364.16 221.504 359.536 221.504 358.56 221.488C354.992 221.488 353.2 220.896 352.336 217.536ZM351.184 215.808C351.136 218.608 350.96 221.232 350.096 222.848C350.432 222.992 351.104 223.328 351.36 223.52C352.256 221.712 352.496 218.96 352.592 215.904L351.184 215.808ZM60.224 237.512C59.36 239.896 57.92 242.28 56.384 243.8C56.656 244.168 57.088 245 57.232 245.368C58.976 243.544 60.64 240.712 61.68 237.96L60.224 237.512ZM58.608 241.784V252.344H60.128V240.296L60.112 240.28L58.608 241.784ZM61.04 242.104V243.608H71.2V242.104H61.04ZM66.624 242.792L65.312 243.096C66.128 247.192 67.632 250.552 70.336 252.328C70.576 251.912 71.104 251.304 71.472 251.016C68.88 249.544 67.344 246.408 66.624 242.792ZM67.616 238.568C68.304 239.464 69.088 240.68 69.44 241.432L70.672 240.68C70.304 239.928 69.472 238.776 68.784 237.912L67.616 238.568ZM65.072 237.528V241.4C65.072 244.36 64.656 248.312 60.784 251.368C61.2 251.624 61.744 252.04 62.032 252.36C66.064 249.16 66.608 244.856 66.608 241.4V237.528H65.072ZM75.12 243.512V244.904H78.976V243.512H75.12ZM78.384 243.512V243.752C78.336 247.048 78.272 248.216 78.048 248.488C77.936 248.632 77.776 248.664 77.552 248.664C77.28 248.664 76.656 248.664 76 248.6C76.224 248.984 76.384 249.576 76.416 250.008C77.184 250.04 77.904 250.04 78.32 249.992C78.768 249.928 79.056 249.8 79.344 249.464C79.696 249 79.776 247.608 79.856 244.104C79.856 243.912 79.856 243.512 79.856 243.512H78.384ZM83.024 238.392C83.984 238.92 85.184 239.72 85.76 240.28L86.72 239.256C86.112 238.712 84.88 237.96 83.936 237.464L83.024 238.392ZM85.152 242.632C83.984 246.424 81.776 249.352 78.608 251.032C78.928 251.336 79.488 251.96 79.712 252.28C82.944 250.328 85.312 247.176 86.672 243L85.152 242.632ZM75.216 240.072V241.56H87.584V240.072H75.216ZM74.224 240.072V244.664C74.224 246.744 74.096 249.528 72.816 251.48C73.168 251.656 73.84 252.2 74.096 252.504C75.552 250.376 75.808 247 75.808 244.68V240.072H74.224ZM80.816 237.512C80.864 245.016 82.256 252.232 85.6 252.232C86.944 252.232 87.472 251.48 87.728 248.632C87.328 248.488 86.768 248.136 86.432 247.8C86.336 249.88 86.144 250.696 85.728 250.696C83.856 250.696 82.32 244.52 82.384 237.512H80.816ZM92.144 242.504V243.88H101.12V242.504H92.144ZM96.032 240.104C95.904 244.168 95.68 247.16 92.096 248.696C92.416 248.968 92.848 249.528 93.024 249.912C96.96 248.104 97.36 244.664 97.504 240.104H96.032ZM95.888 245.256C97.44 246.584 99.248 248.504 100.096 249.72L101.184 248.792C100.304 247.592 98.512 245.8 96.912 244.488L95.888 245.256ZM89.872 238.104V252.344H91.296V239.48H101.968V252.344H103.44V238.104H89.872ZM90.768 250.312V251.592H102.72V250.312H90.768ZM111.632 248.184C113.44 247.608 114.56 246.216 114.56 244.456C114.56 243.24 114.032 242.456 113.04 242.456C112.304 242.456 111.664 242.92 111.664 243.736C111.664 244.552 112.288 245 113.008 245C113.344 245 113.664 244.904 113.904 244.648L113.024 243.336L113.248 244.776C113.248 245.864 112.528 246.664 111.2 247.144L111.632 248.184ZM133.12 241.896C133.936 243.16 134.864 244.872 135.248 245.912L136.592 245.272C136.176 244.216 135.184 242.584 134.352 241.352L133.12 241.896ZM127.872 239.448V240.872H136.464V239.448H127.872ZM132.32 244.424V250.216C132.32 251.624 132.608 252.072 133.872 252.072C134.112 252.072 134.912 252.072 135.168 252.072C136.256 252.072 136.608 251.448 136.736 249.16C136.336 249.048 135.744 248.824 135.424 248.568C135.392 250.44 135.344 250.728 135.024 250.728C134.848 250.728 134.24 250.728 134.096 250.728C133.792 250.728 133.744 250.664 133.744 250.2V244.424H132.32ZM129.648 244.76C129.552 248.12 129.296 250.088 126.816 251.24C127.152 251.512 127.568 252.04 127.744 252.424C130.56 251.016 130.96 248.616 131.072 244.76H129.648ZM128.256 245.576C128.736 245.352 129.488 245.256 135.312 244.6C135.248 244.296 135.184 243.72 135.152 243.336L129.024 243.928L128.208 244.424L128.256 245.576ZM128.256 245.576C128.256 245.272 129.296 244.744 129.296 244.744V244.712C130.64 242.968 132.096 240.44 133.168 237.912L131.52 237.464C130.704 239.816 129.312 242.28 128.848 242.92C128.416 243.576 128.096 243.992 127.744 244.088C127.92 244.504 128.176 245.256 128.256 245.576ZM125.632 243.912C126.112 244.952 126.544 246.328 126.704 247.176L127.824 246.728C127.664 245.88 127.184 244.552 126.688 243.528L125.632 243.912ZM124.176 248.072C124.352 249.144 124.512 250.536 124.544 251.448L125.696 251.16C125.648 250.248 125.472 248.872 125.28 247.816L124.176 248.072ZM122.416 247.912C122.288 249.208 122.08 250.648 121.696 251.608C122 251.688 122.592 251.88 122.848 252.024C123.168 251.048 123.456 249.528 123.616 248.12L122.416 247.912ZM122.176 243.656C122.176 243.368 123.072 242.904 123.072 242.904V242.872C124.112 241.592 125.216 239.752 126.016 237.992L124.64 237.4C124.016 239.128 122.944 240.952 122.608 241.4C122.272 241.896 122 242.2 121.712 242.28C121.872 242.664 122.096 243.352 122.176 243.656ZM122.176 243.656C122.448 243.512 122.912 243.416 125.424 243.16C125.424 242.872 125.488 242.376 125.552 242.024L122.768 242.248L122.16 242.648L122.176 243.656ZM122.288 247.304C122.288 247.016 123.184 246.568 123.184 246.568V246.536C124.752 244.936 126.32 242.696 127.536 240.488L126.256 239.72C125.248 241.944 123.584 244.264 123.04 244.84C122.544 245.448 122.208 245.832 121.824 245.928C122 246.312 122.224 247.016 122.288 247.304ZM122.288 247.304C122.64 247.128 123.168 246.968 126.944 246.328C126.912 246.04 126.928 245.528 126.976 245.176L122.848 245.816L122.224 246.248L122.288 247.304ZM125.936 247.72C126.256 248.616 126.608 249.784 126.736 250.536L127.84 250.152C127.68 249.4 127.312 248.264 126.976 247.368L125.936 247.72ZM139.264 242.36V243.528H144.576V242.36H139.264ZM139.264 244.488V245.656H144.544V244.488H139.264ZM138.56 240.184V241.416H145.248V240.184H138.56ZM140.016 246.664V247.896H143.264V250.184H140.016V251.416H144.576V246.664H140.016ZM139.36 246.664V252.136H140.656V246.664H139.36ZM140.4 238.008C140.832 238.68 141.344 239.624 141.584 240.216L142.784 239.528C142.528 238.952 142.032 238.088 141.584 237.432L140.4 238.008ZM145.216 242.952V244.44H152.928V242.952H145.216ZM148.208 237.784V252.344H149.776V237.784H148.208ZM159.408 242.952V249.928H160.736V244.136H168.064V242.952H159.408ZM160.592 238.024V243.4H161.936V239.16H165.968V243.4H167.344V238.024H160.592ZM162.56 245V246.008H164.928V247.448H162.56V248.456H166.064V245H162.56ZM167.216 242.952V248.536C167.216 248.696 167.152 248.744 166.976 248.76C166.816 248.76 166.256 248.76 165.68 248.744C165.84 249.08 166.016 249.592 166.064 249.944C166.976 249.944 167.616 249.944 168.048 249.736C168.48 249.528 168.592 249.176 168.592 248.552V242.952H167.216ZM161.872 245V249.032H162.992V245H161.872ZM163.216 240.328V243.576H164.336V241.336H166.608V240.328H163.216ZM155.12 238.168C155.792 238.968 156.64 240.088 157.024 240.76L158.224 239.96C157.808 239.304 156.976 238.28 156.272 237.496L155.12 238.168ZM154.624 241.208V242.44H158.048V241.208H154.624ZM157.648 248.376L156.64 248.808C157.84 251.64 159.888 252.088 163.632 252.088C165.44 252.088 167.472 252.056 169.056 251.96C169.136 251.544 169.312 250.856 169.536 250.552C167.824 250.712 165.344 250.792 163.648 250.792C160.576 250.776 158.576 250.504 157.648 248.376ZM157.376 245.16V245.4C156.992 248.248 155.92 250.28 154.336 251.368C154.624 251.576 155.136 252.088 155.328 252.392C157.008 251.144 158.24 248.824 158.72 245.384L158.064 245.128L157.824 245.16H157.376ZM154.896 246.584C155.024 246.456 155.456 246.36 155.856 246.36H157.968V245.16H155.52L154.896 245.48V246.584ZM154.896 246.584C154.896 246.232 155.968 245.72 155.968 245.72C156.864 244.68 158.272 242.664 159.024 241.56L158.064 241.128L157.648 241.304V241.352C157.12 242.216 155.648 244.328 155.168 244.808C154.88 245.128 154.624 245.24 154.368 245.304C154.512 245.592 154.8 246.264 154.896 246.584ZM170.8 247.16V248.568H185.68V247.16H170.8ZM171.424 238.424V239.832H185.072V238.424H171.424ZM173.696 244.168V245.48H182.848V244.168H173.696ZM182.288 241.176V250.6C182.288 250.872 182.192 250.952 181.888 250.952C181.616 250.968 180.576 250.984 179.6 250.936C179.824 251.32 180.048 251.976 180.144 252.376C181.504 252.376 182.432 252.36 183.008 252.12C183.6 251.88 183.792 251.448 183.792 250.616V241.176H182.288ZM172.672 241.176V252.376H174.16V242.552H182.896V241.176H172.672ZM177.408 238.856V247.672H178.928V238.856H177.408ZM193.184 238.248V239.608H201.76V238.248H193.184ZM193.552 246.536V247.896H201.28V246.536H193.552ZM192.736 250.584V251.976H201.936V250.584H192.736ZM196.624 247.176V251.432H198.144V247.176H196.624ZM194.672 240.008C194.304 240.776 193.616 241.96 192.976 242.936C193.808 244.056 194.544 245.272 194.896 246.104L196.128 245.608C195.792 244.904 195.088 243.816 194.4 242.92C194.928 242.12 195.536 241.16 195.968 240.328L194.672 240.008ZM197.408 240.024C197.04 240.792 196.352 241.96 195.68 242.92C196.544 244.024 197.312 245.224 197.664 246.056L198.88 245.528C198.544 244.84 197.824 243.784 197.12 242.904C197.648 242.12 198.256 241.16 198.704 240.344L197.408 240.024ZM200.16 240.008C199.776 240.776 199.056 241.976 198.368 242.936C199.28 244.04 200.128 245.272 200.512 246.104L201.728 245.544C201.344 244.856 200.576 243.8 199.84 242.92C200.368 242.12 200.992 241.176 201.472 240.344L200.16 240.008ZM191.008 243.928C191.408 245.032 191.824 246.456 191.952 247.32L193.152 246.92C192.992 246.072 192.544 244.664 192.128 243.608L191.008 243.928ZM189.52 248.104C189.712 249.16 189.872 250.568 189.904 251.48L191.088 251.24C191.04 250.328 190.848 248.952 190.656 247.896L189.52 248.104ZM187.792 247.912C187.664 249.256 187.44 250.728 187.056 251.704C187.376 251.816 187.984 252.008 188.272 252.152C188.608 251.128 188.896 249.576 189.056 248.12L187.792 247.912ZM187.504 243.656C187.504 243.368 188.352 242.936 188.352 242.936V242.904C189.408 241.64 190.512 239.784 191.312 238.024L189.968 237.464C189.36 239.192 188.288 241 187.936 241.464C187.616 241.96 187.344 242.28 187.04 242.344C187.2 242.712 187.424 243.368 187.504 243.656ZM187.504 243.656C187.792 243.512 188.272 243.4 190.8 243.144C190.816 242.84 190.864 242.312 190.944 241.944L188.128 242.168L187.456 242.584L187.504 243.656ZM187.616 247.304C187.616 247.032 188.496 246.584 188.496 246.584V246.552C190.032 244.984 191.584 242.776 192.768 240.632L191.504 239.88C190.496 242.04 188.864 244.312 188.352 244.888C187.856 245.48 187.504 245.864 187.136 245.944C187.312 246.328 187.536 247.016 187.616 247.304ZM187.616 247.304C187.952 247.128 188.496 247 192.048 246.488C192.032 246.184 192.064 245.656 192.112 245.288L188.224 245.784L187.552 246.216L187.616 247.304ZM191.12 247.768C191.424 248.6 191.744 249.704 191.856 250.408L192.976 250.024C192.832 249.32 192.48 248.264 192.176 247.432L191.12 247.768ZM205.344 245.24V246.728H216.352V245.24H205.344ZM205.344 249.928V251.416H216.32V249.928H205.344ZM204.608 240.584V252.36H206.112V242.104H215.6V252.312H217.184V240.584H204.608ZM210.032 237.512V250.712H211.584V237.512H210.032ZM230.464 238.712C231.36 239.528 232.416 240.664 232.864 241.432L234.096 240.568C233.6 239.816 232.512 238.712 231.6 237.928L230.464 238.712ZM220.048 242.152V243.592H234.368V242.152H220.048ZM219.776 246.776L220.176 248.296C222.224 247.864 225.024 247.256 227.632 246.664L227.52 245.304C224.72 245.864 221.68 246.456 219.776 246.776ZM223.296 239.272V250.488C223.296 250.76 223.2 250.84 222.928 250.84C222.64 250.856 221.696 250.872 220.72 250.824C220.944 251.256 221.2 251.944 221.264 252.36C222.592 252.36 223.488 252.312 224.048 252.072C224.624 251.832 224.816 251.4 224.816 250.504V239.272H223.296ZM226.448 237.656C224.864 238.216 222.304 238.744 220.064 239.064C220.24 239.416 220.432 239.976 220.512 240.328C222.816 240.04 225.536 239.576 227.488 238.936L226.448 237.656ZM228.032 237.624C228.096 245.064 229.44 252.408 232.656 252.408C233.968 252.408 234.48 251.656 234.736 248.936C234.32 248.776 233.792 248.424 233.472 248.072C233.376 250.072 233.184 250.872 232.8 250.872C231.056 250.872 229.552 244.584 229.616 237.624H228.032ZM232.384 244.232C230.944 246.92 228.336 249.256 225.52 250.584C225.904 250.92 226.336 251.416 226.56 251.784C229.488 250.248 232.112 247.752 233.712 244.808L232.384 244.232ZM241.44 240.776V241.896H244.48V240.776H241.44ZM246.4 240.776V241.896H249.472V240.776H246.4ZM249.008 238.392V250.488C249.008 250.792 248.896 250.888 248.592 250.888C248.272 250.904 247.152 250.92 246.08 250.872C246.288 251.256 246.528 251.928 246.592 252.328C248.096 252.328 249.072 252.312 249.664 252.056C250.256 251.832 250.448 251.4 250.448 250.504V238.392H249.008ZM240.56 238.392V252.312H241.968V238.392H240.56ZM241.52 238.392V239.576H243.808V243.192H241.52V244.36H244.976V238.392H241.52ZM249.728 238.392H245.824V244.36H249.728V243.192H247.04V239.576H249.728V238.392ZM239.072 237.56C238.336 239.976 237.104 242.392 235.76 243.944C236 244.344 236.384 245.176 236.512 245.544C238.112 243.656 239.568 240.744 240.48 237.96L239.072 237.56ZM237.792 241.688V252.344H239.232V240.328L239.2 240.296L237.792 241.688ZM254.016 240.088V241.416H257.52V249.336H254.016V250.68H258.896V240.088H254.016ZM253.12 240.088V251.912H254.512V240.088H253.12ZM253.936 244.456V245.784H258.208V244.456H253.936ZM255.504 237.48C255.392 238.328 255.12 239.544 254.864 240.344L256.08 240.632C256.4 239.896 256.8 238.776 257.136 237.736L255.504 237.48ZM261.104 240.008V241.4H265.92V240.008H261.104ZM265.392 240.008V240.312C265.2 247.192 264.96 249.896 264.432 250.456C264.256 250.68 264.064 250.728 263.744 250.728C263.36 250.728 262.4 250.712 261.36 250.632C261.632 251.032 261.824 251.672 261.856 252.104C262.768 252.136 263.728 252.168 264.304 252.104C264.912 252.024 265.312 251.864 265.696 251.336C266.352 250.52 266.56 248.008 266.784 240.728C266.8 240.536 266.8 240.008 266.8 240.008H265.392ZM261.312 237.464C260.8 239.64 259.92 241.832 258.832 243.224C259.184 243.416 259.808 243.848 260.08 244.088C261.168 242.568 262.16 240.184 262.768 237.8L261.312 237.464ZM260.56 244.36C261.392 245.528 262.432 247.112 262.896 248.088L264.192 247.304C263.68 246.36 262.592 244.808 261.744 243.688L260.56 244.36ZM268.864 247.64V248.856H283.456V247.64H268.864ZM269.328 238.648V239.816H282.832V238.648H269.328ZM278.256 246.648V250.776C278.256 250.984 278.176 251.048 277.92 251.064C277.664 251.064 276.752 251.064 275.872 251.032C276.064 251.416 276.256 251.96 276.32 252.344C277.584 252.344 278.432 252.344 279.008 252.152C279.568 251.944 279.712 251.56 279.712 250.824V246.648H278.256ZM275.376 237.512V246.12H276.864V237.512H275.376ZM271.424 249.48C272.352 250.072 273.44 250.968 273.968 251.592L275.072 250.616C274.528 249.992 273.376 249.144 272.464 248.6L271.424 249.48ZM272 243.272H280.368V244.104H272V243.272ZM272 241.544H280.368V242.36H272V241.544ZM270.576 240.584V245.064H281.856V240.584H270.576ZM278.48 245.368C279.696 245.832 281.184 246.68 281.952 247.32L282.848 246.504C282.064 245.912 280.592 245.096 279.36 244.648L278.48 245.368ZM269.52 245.848L269.584 246.984C272.624 246.936 277.184 246.856 281.472 246.728L281.536 245.752C277.136 245.832 272.448 245.864 269.52 245.848ZM285.44 247.336V248.6H299.568V247.336H285.44ZM285.488 240.248V241.464H299.504V240.248H285.488ZM286.144 243.08V244.264H298.912V243.08H286.144ZM286.944 245.24V246.36H298.144V245.24H286.944ZM291.696 243.64V252.36H293.2V243.64H291.696ZM290.288 237.48V240.856H291.696V237.48H290.288ZM293.28 237.48V240.776H294.72V237.48H293.28ZM296.992 237.656C296.736 238.376 296.256 239.4 295.84 240.056L297.072 240.456C297.504 239.832 298.064 238.936 298.56 238.056L296.992 237.656ZM294.96 241.384C294.752 241.816 294.336 242.472 294.032 242.92L295.296 243.304C295.664 242.92 296.112 242.376 296.544 241.8L294.96 241.384ZM286.736 238.072C287.232 238.808 287.76 239.816 287.968 240.456L289.328 239.944C289.12 239.304 288.56 238.328 288.032 237.624L286.736 238.072ZM288.672 241.688C288.992 242.184 289.328 242.856 289.456 243.272L290.928 242.904C290.768 242.472 290.416 241.832 290.096 241.368L288.672 241.688ZM289.984 249.288C288.976 249.944 287.008 250.536 285.36 250.792C285.664 251.064 286.08 251.56 286.272 251.896C287.936 251.528 289.968 250.696 291.088 249.8L289.984 249.288ZM294.08 249.96C295.536 250.52 297.52 251.368 298.512 251.88L299.536 251C298.464 250.488 296.48 249.704 295.056 249.192L294.08 249.96ZM308.976 250.392V251.72H314.48V250.392H308.976ZM308.288 246.312V252.376H309.712V247.624H313.808V252.312H315.296V246.312H308.288ZM312.176 240.12C311.872 242.056 311.232 244.008 308.624 245.048C308.896 245.272 309.28 245.736 309.408 246.04C312.336 244.792 313.168 242.552 313.552 240.12H312.176ZM313.088 241.272L312 241.512C312.592 243.512 313.712 245.176 315.424 245.96C315.616 245.608 316.016 245.096 316.304 244.84C314.736 244.248 313.616 242.872 313.088 241.272ZM302.016 242.36V243.528H306.272V242.36H302.016ZM302.016 244.504V245.672H306.272V244.504H302.016ZM301.456 240.184V241.416H306.96V240.184H301.456ZM302.608 246.664V247.896H304.96V250.184H302.608V251.416H306.24V246.664H302.608ZM302 246.664V252.136H303.312V246.664H302ZM303.12 237.832C303.424 238.504 303.792 239.432 303.92 240.024L305.264 239.656C305.104 239.08 304.736 238.2 304.384 237.528L303.12 237.832ZM307.28 238.872V240.04H309.76V238.872H307.28ZM306.928 242.52V243.72H310.16V242.52H306.928ZM310.912 237.48C310.576 239.032 309.952 240.584 309.104 241.592C309.44 241.768 310 242.152 310.24 242.36C311.104 241.256 311.824 239.512 312.24 237.752L310.912 237.48ZM310.752 239.128V240.344H315.216V239.128H310.752ZM314.912 239.128V239.304C314.752 240.168 314.48 241.208 314.24 241.864L315.36 242.104C315.648 241.4 315.968 240.264 316.224 239.272L315.328 239.08L315.12 239.128H314.912ZM318.896 242.584V252.312H320.336V243.832H330.768V242.584H318.896ZM330 242.584V250.824C330 251.048 329.904 251.128 329.632 251.128C329.392 251.144 328.464 251.16 327.568 251.128C327.744 251.448 327.936 251.928 328 252.264C329.328 252.264 330.176 252.248 330.688 252.072C331.216 251.88 331.392 251.544 331.392 250.824V242.584H330ZM322.848 246.552V247.64H326.848V249.256H322.848V250.328H328.096V246.552H322.848ZM322.048 246.552V251.048H323.328V246.552H322.048ZM318.048 239.144V240.44H332.208V239.144H318.048ZM321.424 240.792C321.76 241.384 322.16 242.184 322.352 242.664L323.696 242.152C323.488 241.688 323.056 240.936 322.72 240.376L321.424 240.792ZM327.44 240.456C327.184 241.176 326.656 242.2 326.24 242.856L327.408 243.176C327.872 242.584 328.448 241.64 328.96 240.792L327.44 240.456ZM324.08 237.768C324.336 238.424 324.624 239.32 324.752 239.88L326.256 239.448C326.096 238.904 325.792 238.056 325.52 237.4L324.08 237.768ZM322.944 243.24C322.832 244.68 322.384 245.352 320.32 245.72C320.576 245.96 320.912 246.456 321.008 246.76C323.488 246.216 324.112 245.176 324.272 243.24H322.944ZM325.728 243.256V244.568C325.728 245.624 325.936 246.12 327.056 246.12C327.328 246.12 328.272 246.12 328.576 246.12C328.912 246.12 329.328 246.104 329.536 246.024C329.488 245.704 329.472 245.336 329.44 244.984C329.216 245.048 328.784 245.064 328.544 245.064C328.32 245.064 327.584 245.064 327.376 245.064C327.104 245.064 327.072 244.936 327.072 244.584V243.256H325.728ZM336.88 240.232V241.128H345.92V240.232H336.88ZM336.672 247V247.88H346.144V247H336.672ZM338.288 248.36C338.768 248.808 339.312 249.432 339.552 249.848L340.576 249.304C340.32 248.888 339.744 248.28 339.248 247.88L338.288 248.36ZM338.608 243.64H344.192V244.248H338.608V243.64ZM338.608 242.392H344.192V242.968H338.608V242.392ZM337.424 241.688V244.952H345.424V241.688H337.424ZM342.672 246.472V249.112C342.672 249.272 342.624 249.32 342.464 249.32C342.288 249.336 341.712 249.336 341.152 249.32C341.28 249.544 341.424 249.848 341.488 250.136C342.416 250.136 343.04 250.136 343.424 250.008C343.84 249.88 343.952 249.704 343.952 249.16V246.472H342.672ZM336.928 245.64L336.976 246.52C339.04 246.488 341.968 246.408 344.8 246.312L344.832 245.576C341.904 245.624 338.896 245.656 336.928 245.64ZM343.376 245.352C343.984 245.8 344.72 246.52 345.088 247L345.904 246.376C345.552 245.928 344.816 245.272 344.176 244.824L343.376 245.352ZM340.736 239.56V245.992L342 245.928V239.56H340.736ZM334.848 238.152V252.36H336.24V239.32H346.608V252.296H348.048V238.152H334.848ZM335.536 250.36V251.544H347.2V250.36H335.536ZM363.888 242.104C362.976 242.888 361.456 243.944 360.368 244.52L361.136 245.4C362.256 244.824 363.728 243.944 364.848 243.096L363.888 242.104ZM356.816 238.28C357.536 238.888 358.336 239.784 358.688 240.376L359.872 239.56C359.488 238.968 358.688 238.152 357.936 237.576L356.816 238.28ZM355.632 240.12V241.448H365.04V240.12H355.632ZM359.792 243.928C358.928 244.76 357.184 245.736 355.904 246.216C356.192 246.472 356.544 246.968 356.736 247.304C358.032 246.648 359.808 245.496 360.752 244.568L359.792 243.928ZM360.528 246.088C359.44 247.304 357.184 248.6 355.328 249.144C355.664 249.432 356.016 249.896 356.224 250.232C358.064 249.512 360.336 248.088 361.52 246.76L360.528 246.088ZM362.32 237.512C361.936 238.328 361.248 239.464 360.672 240.168L361.904 240.584C362.464 239.928 363.184 238.904 363.776 237.96L362.32 237.512ZM350.976 238.184V252.36H352.32V239.544H354.752V238.184H350.976ZM354.288 238.184V238.616C354 239.672 353.44 241.72 352.928 243.176C353.968 244.344 354.224 245.384 354.224 246.2C354.224 246.664 354.144 247.048 353.92 247.208C353.792 247.304 353.632 247.352 353.44 247.352C353.216 247.368 352.944 247.352 352.608 247.336C352.832 247.704 352.944 248.28 352.96 248.648C353.328 248.664 353.712 248.648 354.032 248.616C354.368 248.568 354.656 248.472 354.896 248.312C355.376 247.976 355.568 247.304 355.568 246.36C355.568 245.4 355.328 244.296 354.24 243C354.736 241.736 355.312 240.056 355.744 238.712L354.768 238.136L354.544 238.184H354.288ZM359.728 240.584C358.736 241.816 356.96 242.92 355.264 243.592C355.552 243.832 355.984 244.392 356.16 244.664C357.872 243.848 359.808 242.52 360.976 241.064L359.728 240.584ZM362.784 244.36L361.632 244.76C362.256 246.728 363.376 248.904 364.464 250.12C364.688 249.8 365.136 249.352 365.44 249.128C364.4 248.088 363.328 246.152 362.784 244.36ZM358.448 242.344C361.088 245.016 360.88 249.56 359.984 250.424C359.728 250.76 359.472 250.824 359.088 250.824C358.752 250.824 358.224 250.808 357.696 250.744C357.936 251.144 358.048 251.72 358.064 252.104C358.512 252.136 359.04 252.152 359.344 252.152C360.096 252.136 360.592 251.96 361.072 251.432C362.448 250.184 362.56 244.744 359.536 241.752L358.448 242.344ZM59.264 274.992V276.304H70.144V274.992H59.264ZM57.152 269.184V270.56H67.68V269.184H57.152ZM61.76 272.096V273.408H69.056V272.096H61.76ZM69.536 274.992V275.216C69.296 278.288 69.008 279.52 68.656 279.872C68.496 280.016 68.336 280.032 68.064 280.032C67.744 280.048 67.024 280.032 66.256 279.952C66.496 280.336 66.672 280.928 66.688 281.344C67.52 281.376 68.304 281.376 68.72 281.344C69.232 281.296 69.568 281.168 69.904 280.816C70.416 280.288 70.704 278.928 70.992 275.6C71.024 275.408 71.04 274.992 71.04 274.992H69.536ZM66.048 277.04C66.48 277.712 66.944 278.64 67.12 279.216L68.224 278.784C68.048 278.208 67.568 277.312 67.088 276.656L66.048 277.04ZM59.056 267.056C59.648 267.728 60.304 268.656 60.576 269.264L62 268.656C61.68 268.048 60.992 267.152 60.4 266.528L59.056 267.056ZM61.264 277.44C61.536 278.496 61.696 279.84 61.648 280.704L62.96 280.528C62.96 279.648 62.8 278.32 62.496 277.296L61.264 277.44ZM63.648 277.312C64.016 278.208 64.384 279.392 64.48 280.16L65.728 279.84C65.6 279.072 65.216 277.92 64.816 277.04L63.648 277.312ZM59.168 277.008C58.88 278.256 58.288 279.616 57.44 280.448L58.608 281.28C59.568 280.288 60.096 278.784 60.448 277.424L59.168 277.008ZM63.936 266.48C62.784 270.592 60.384 274.672 56.368 276.832C56.624 277.168 57.008 277.76 57.184 278.128C61.552 275.648 64.048 271.392 65.488 266.864L63.936 266.48ZM67.36 269.184C67.184 270.224 66.912 271.536 66.672 272.384L68 272.592C68.256 271.696 68.544 270.336 68.768 269.184H67.36ZM68.496 272.096C68.336 273.136 68.064 274.432 67.808 275.312L69.152 275.472C69.408 274.592 69.68 273.232 69.904 272.096H68.496ZM79.696 266.512C79.184 267.968 78.288 269.392 77.232 270.304C77.552 270.512 78.112 270.992 78.352 271.248C79.456 270.192 80.48 268.56 81.088 266.848L79.696 266.512ZM79.664 270.976C79.232 272.032 78.48 273.104 77.648 273.808C77.968 274.016 78.528 274.448 78.768 274.704C79.632 273.888 80.512 272.608 81.04 271.36L79.664 270.976ZM79.712 267.92L79.184 269.216H86.4V267.92H79.712ZM84.16 271.52C84.912 272.496 85.728 273.856 86.08 274.72L87.36 274.048C86.992 273.184 86.176 271.904 85.376 270.944L84.16 271.52ZM86 267.92V268.112C85.728 268.944 85.296 269.984 84.944 270.624L86.24 270.896C86.624 270.192 87.12 269.088 87.52 268.112L86.464 267.872L86.224 267.92H86ZM76.592 266.448C75.712 268.176 74.272 269.904 72.8 270.992C73.088 271.28 73.568 271.904 73.744 272.192C75.296 270.912 76.912 268.912 77.936 266.896L76.592 266.448ZM75.12 269.648V275.76H76.576V268.24L76.544 268.224L75.12 269.648ZM76.448 276.528V279.152C76.448 280.64 76.976 281.056 79.04 281.056C79.472 281.056 82.128 281.056 82.56 281.056C84.256 281.056 84.72 280.544 84.912 278.416C84.496 278.336 83.856 278.112 83.52 277.856C83.44 279.456 83.296 279.664 82.464 279.664C81.84 279.664 79.616 279.664 79.152 279.664C78.144 279.664 77.968 279.6 77.968 279.12V276.528H76.448ZM78.928 275.904C79.76 276.736 80.704 277.92 81.088 278.704L82.352 277.952C81.92 277.168 80.944 276.032 80.08 275.248L78.928 275.904ZM84.448 276.768C85.168 277.936 85.872 279.488 86.096 280.48L87.536 279.904C87.28 278.896 86.528 277.392 85.792 276.24L84.448 276.768ZM74.56 276.544C74.208 277.648 73.6 279.088 72.976 280.032L74.4 280.704C74.96 279.712 75.52 278.208 75.92 277.104L74.56 276.544ZM82.016 269.728V275.696H83.472V269.728H82.016ZM91.68 272.48V273.952H100.624V272.48H91.68ZM100.112 272.48V272.752C99.936 277.376 99.728 279.184 99.312 279.616C99.152 279.792 98.96 279.824 98.656 279.824C98.272 279.824 97.344 279.808 96.368 279.728C96.64 280.16 96.832 280.8 96.864 281.248C97.84 281.296 98.816 281.312 99.36 281.248C99.936 281.184 100.336 281.056 100.688 280.592C101.248 279.952 101.472 278.08 101.68 273.168C101.696 272.96 101.696 272.48 101.696 272.48H100.112ZM94.832 272.896C94.544 275.84 94.016 278.688 89.776 280.08C90.128 280.416 90.576 281.04 90.752 281.44C95.36 279.76 96.128 276.448 96.464 272.896H94.832ZM93.152 267.04C92.4 269.504 90.944 271.648 89.072 272.96C89.44 273.216 90.08 273.776 90.352 274.08C92.224 272.576 93.84 270.192 94.736 267.424L93.152 267.04ZM95.824 266.768V268.176H99.392V266.768H95.824ZM97.952 266.768V267.584H98.304C99.184 270.112 100.912 272.624 103.168 274.048C103.408 273.632 103.92 272.992 104.24 272.672C102.112 271.52 100.416 269.216 99.632 266.768H97.952ZM113.344 271.952V273.376H120.336V271.952H113.344ZM118.16 266.672C116.848 267.296 114.624 267.888 112.624 268.272C112.816 268.592 113.04 269.152 113.12 269.504C115.232 269.152 117.696 268.592 119.456 267.856L118.16 266.672ZM116.624 272.4V281.344H118.128V272.4H116.624ZM105.824 269.872V271.312H111.872V269.872H105.824ZM108.112 266.496V281.344H109.568V266.496H108.112ZM108.064 270.816C107.616 273.008 106.512 275.648 105.376 277.072C105.632 277.44 105.984 278.048 106.128 278.464C107.36 276.832 108.464 273.712 108.992 271.136L108.064 270.816ZM109.408 271.84L108.672 272.544C109.2 273.296 110.4 275.232 110.832 276.16L111.76 274.96C111.408 274.448 109.824 272.32 109.408 271.84ZM112.624 268.272V273.12C112.624 275.376 112.48 278.416 111.024 280.56C111.376 280.688 112.016 281.088 112.272 281.312C113.808 279.056 114.064 275.568 114.064 273.12V268.272H112.624ZM123.52 270.592V271.728H128.064V270.592H123.52ZM123.52 273.264V274.368H128.064V273.264H123.52ZM123.52 276V277.152H128.064V276H123.52ZM130.384 274.08V275.376H136.448V274.08H130.384ZM124.336 267.952V269.12H126.928V267.952H124.336ZM129.28 267.312V268.576H135.408V267.312H129.28ZM129.168 277.104V278.432H136.736V277.104H129.168ZM132.384 272.528V281.296H133.824V272.528H132.384ZM125.392 271.168V276.448H126.432V271.168H125.392ZM134.96 267.312V267.504C134.864 269.936 134.752 270.832 134.56 271.056C134.448 271.2 134.32 271.216 134.112 271.216C133.888 271.216 133.376 271.2 132.784 271.152C132.976 271.488 133.104 272 133.136 272.384C133.792 272.416 134.448 272.416 134.784 272.368C135.184 272.336 135.472 272.208 135.696 271.92C136.048 271.52 136.192 270.464 136.288 267.84C136.304 267.664 136.32 267.312 136.32 267.312H134.96ZM130.272 272.656C130.032 273.984 129.568 275.312 128.896 276.192C129.216 276.336 129.792 276.624 130.048 276.8C130.688 275.856 131.232 274.384 131.552 272.912L130.272 272.656ZM124.144 266.48C123.68 268.432 122.816 270.32 121.696 271.536C122 271.728 122.576 272.192 122.8 272.432C123.952 271.072 124.928 268.976 125.52 266.784L124.144 266.48ZM122.944 270.592V274.832C122.944 276.64 122.848 279.024 121.76 280.704C122.048 280.832 122.608 281.184 122.832 281.376C123.984 279.6 124.176 276.832 124.176 274.832V270.592H122.944ZM127.648 270.592V279.792C127.648 280 127.568 280.064 127.36 280.064C127.152 280.08 126.464 280.08 125.728 280.048C125.904 280.4 126.128 280.976 126.176 281.328C127.232 281.328 127.888 281.312 128.336 281.088C128.768 280.864 128.912 280.464 128.912 279.808V270.592H127.648ZM131.408 267.728C131.2 269.504 130.736 270.992 128.784 271.808C129.088 272.032 129.44 272.512 129.6 272.832C131.904 271.808 132.528 270 132.768 267.728H131.408ZM126.56 267.952V268.192C126.352 268.976 125.92 270.144 125.536 270.864C125.808 270.992 126.24 271.248 126.496 271.44C126.976 270.672 127.584 269.456 127.936 268.448L127.056 267.888L126.864 267.952H126.56ZM142.352 273.856V275.12H148.912V273.856H142.352ZM141.744 279.456V280.784H149.504V279.456H141.744ZM140.912 276.224V281.36H142.352V277.52H148.832V281.296H150.336V276.224H140.912ZM145.344 270.272C143.968 272.144 141.184 273.76 138.144 274.736C138.448 275.008 138.912 275.616 139.104 275.968C142.272 274.832 145.04 273.12 146.704 270.848L145.344 270.272ZM145.952 270.944L145.04 271.776C146.512 273.056 149.536 274.848 152.16 275.744C152.4 275.36 152.88 274.736 153.232 274.416C150.544 273.664 147.376 272.128 145.952 270.944ZM140.464 267.728V269.056H145.52V267.728H140.464ZM146.816 267.728V269.056H152.848V267.728H146.816ZM140.608 266.4C140.096 267.76 139.168 269.12 138.16 269.984C138.464 270.288 138.976 270.976 139.168 271.28C140.304 270.208 141.424 268.512 142.096 266.832L140.608 266.4ZM147.008 266.4C146.64 267.6 145.952 268.752 145.104 269.52C145.456 269.776 146.048 270.336 146.304 270.624C147.216 269.712 148.048 268.256 148.528 266.8L147.008 266.4ZM141.184 269.904C141.728 270.448 142.4 271.2 142.688 271.696L143.792 270.768C143.472 270.288 142.8 269.568 142.24 269.072L141.184 269.904ZM148.064 269.824C148.64 270.352 149.312 271.104 149.616 271.6L150.704 270.672C150.368 270.192 149.664 269.488 149.088 268.992L148.064 269.824ZM161.968 271.504C160.624 271.504 159.52 272.592 159.52 273.936C159.52 275.296 160.624 276.384 161.968 276.384C163.312 276.384 164.4 275.296 164.4 273.936C164.4 272.592 163.312 271.504 161.968 271.504ZM161.968 275.568C161.072 275.568 160.336 274.848 160.336 273.936C160.336 273.056 161.072 272.32 161.968 272.32C162.864 272.32 163.584 273.056 163.584 273.936C163.584 274.848 162.864 275.568 161.968 275.568Z" fill="#575757"/>
<line x1="56" y1="157" x2="397" y2="157" stroke="#FF715C" stroke-width="2"/>
<path d="M818.446 22.8475L766.525 73.1953L745.284 142.423C672.123 117.25 685.496 29.9276 735.844 7.11381C776.122 -11.1373 807.694 9.99832 818.446 22.8475Z" fill="#FF715C"/>
<path d="M750.004 144.783L769.671 77.9153H840.473C832.921 145.255 777.014 150.552 750.004 144.783Z" fill="#FFC43D"/>
<path d="M770.458 73.1952L824.739 25.2075C837.326 37.1651 842.046 61.1327 842.833 71.6218L770.458 73.1952Z" fill="#74CADD"/>
<rect x="751.015" y="101.332" width="181.904" height="132.661" rx="9.5" fill="white" stroke="#002B51"/>
<rect x="755.986" y="107.085" width="182.122" height="133.661" rx="10" fill="#002B51"/>
<rect x="752.378" y="102.196" width="179.511" height="130.736" rx="8.5" fill="white" stroke="#002B51" stroke-width="3"/>
<line x1="769.758" y1="210.905" x2="912.935" y2="210.905" stroke="#D7D7D7" stroke-width="3"/>
<rect x="794.932" y="154.19" width="20.4538" height="53.4945" rx="2" fill="#FFC43D"/>
<rect x="823.253" y="125.869" width="20.4538" height="81.8151" rx="2" fill="#74CADD"/>
<rect x="851.573" y="140.03" width="20.4538" height="67.6548" rx="2" fill="#FF715C"/>
<path d="M580.492 239.344C537.438 246.433 518.248 202.59 549.252 177.65L584.693 220.033L580.492 239.344Z" fill="#74CADD"/>
<rect x="577.342" y="222.018" width="35.1787" height="116.562" fill="#74CADD"/>
<circle r="79.0209" transform="matrix(-1 0 0 1 617.509 169.774)" fill="#74CADD"/>
<path d="M639.299 138.534C639.299 136.794 640.709 135.383 642.449 135.383V135.383C644.189 135.383 645.599 136.794 645.599 138.534V146.41C645.599 148.149 644.189 149.56 642.449 149.56V149.56C640.709 149.56 639.299 148.149 639.299 146.41V138.534Z" fill="#002B51"/>
<path d="M597.819 138.534C597.819 137.084 598.995 135.908 600.444 135.908V135.908C601.894 135.908 603.07 137.084 603.07 138.534V146.935C603.07 148.384 601.894 149.56 600.444 149.56V149.56C598.995 149.56 597.819 148.384 597.819 146.935V138.534Z" fill="#002B51"/>
<path d="M594.144 131.708C596.844 127.785 603.055 124.646 608.32 131.708" stroke="#002B51" stroke-width="4" stroke-linecap="round"/>
<path d="M634.048 121.305C637.873 119.253 646.752 119.572 650.85 125.407" stroke="#002B51" stroke-width="4" stroke-linecap="round"/>
<path d="M577.342 239.344C583.118 239.344 590.993 239.344 599.132 236.194" stroke="#002B51" stroke-width="4"/>
<path d="M577.338 199.965L575.242 205.347" stroke="#002B51" stroke-width="4"/>
<path d="M633.417 176.338C627.912 163.288 612.485 166.322 605.46 169.47C604.084 168.096 602.593 160.885 602.02 157.45C621.632 148.865 637.144 153.873 642.449 157.45V161.314C642.019 163.603 640.987 168.783 640.298 171.187C639.61 173.59 635.424 175.622 633.417 176.338Z" fill="#002B51"/>
<path d="M641.056 156.488C628.731 149.868 612.246 153.321 603.842 156.488C602.723 156.91 602.01 157.997 602.138 159.186C602.909 166.332 607.743 182.092 625.182 179.785C639.561 177.882 642.658 165.742 642.438 158.695C642.409 157.764 641.877 156.929 641.056 156.488Z" stroke="#002B51" stroke-width="3"/>
<path d="M695.999 176.338L675.527 141.662C679.538 137.985 723.433 109.493 744.879 95.7057C750.728 83.1723 753.653 78.9944 758.248 79.83C761.925 80.4985 761.73 85.4004 761.173 87.7679H780.391C782.48 87.6286 786.741 88.2692 787.075 91.9457C787.41 95.6222 784.708 97.0983 783.315 97.3768C788.329 96.7084 789.582 99.8835 789.582 101.555C789.916 105.565 784.429 107.682 781.644 108.239C784.569 108.972 784.012 112.036 783.315 112.732C780.307 118.414 768.693 121.19 763.262 122.444L695.999 176.338Z" fill="#74CADD"/>
<path d="M783.733 96.8565L769.529 98.1099" stroke="#002B51" stroke-width="4" stroke-linecap="round"/>
<path d="M781.226 108.137L772.453 109.39" stroke="#002B51" stroke-width="4" stroke-linecap="round"/>
<path d="M572.617 205.287C584.179 205.82 622.435 202.093 637.461 205.287" stroke="#002B51" stroke-width="4"/>
<path d="M595.383 228.76L652.243 190.096H722.749V360.296L728.814 363.328V386.072L725.024 391H561.268L556.34 386.072V360.296L560.13 356.505V327.696H595.383V228.76Z" fill="#E4D6BC"/>
<path d="M648.073 198.056L645.799 356.126L640.113 358.401V386.072" stroke="#002B51" stroke-width="4" stroke-linecap="round"/>
<path d="M562.405 356.126H633.29" stroke="#002B51" stroke-width="4" stroke-linecap="round"/>
<path d="M652.622 357.642H719.338" stroke="#002B51" stroke-width="4" stroke-linecap="round"/>
<rect x="670.543" y="236.067" width="27.8414" height="95.3149" stroke="#002B51" stroke-width="4"/>
<path d="M682.353 159.536C690.254 159.536 704.746 160.061 705.666 170.838C706.436 179.862 705.536 187.582 705.666 189.989" stroke="#002B51" stroke-width="4"/>
<rect x="666.077" y="164.917" width="12.7418" height="17.338" rx="6.37089" transform="rotate(-87.7672 666.077 164.917)" fill="#002B51"/>
</svg>
