<svg width="400" height="515" viewBox="0 0 400 515" fill="none" xmlns="http://www.w3.org/2000/svg">
<path d="M115.304 78H117.824V69.288C117.824 67.68 117.608 65.424 117.464 63.816H117.56L118.976 67.896L122.048 76.32H123.776L126.848 67.896L128.288 63.816H128.384C128.24 65.424 128.024 67.68 128.024 69.288V78H130.592V60.336H127.376L124.184 69.288C123.8 70.44 123.464 71.64 123.032 72.84H122.936C122.528 71.64 122.168 70.44 121.736 69.288L118.52 60.336H115.304V78ZM140.29 78.336C143.554 78.336 146.506 75.792 146.506 71.424C146.506 67.008 143.554 64.464 140.29 64.464C137.002 64.464 134.074 67.008 134.074 71.424C134.074 75.792 137.002 78.336 140.29 78.336ZM140.29 76.056C138.202 76.056 136.93 74.208 136.93 71.424C136.93 68.616 138.202 66.768 140.29 66.768C142.354 66.768 143.674 68.616 143.674 71.424C143.674 74.208 142.354 76.056 140.29 76.056ZM155.056 78.336C158.32 78.336 161.272 75.792 161.272 71.424C161.272 67.008 158.32 64.464 155.056 64.464C151.768 64.464 148.84 67.008 148.84 71.424C148.84 75.792 151.768 78.336 155.056 78.336ZM155.056 76.056C152.968 76.056 151.696 74.208 151.696 71.424C151.696 68.616 152.968 66.768 155.056 66.768C157.12 66.768 158.44 68.616 158.44 71.424C158.44 74.208 157.12 76.056 155.056 76.056ZM169.077 78.336C170.565 78.336 171.933 77.544 172.941 76.536H173.013L173.229 78H175.509V58.896H172.725V63.768L172.845 65.952C171.789 65.04 170.805 64.464 169.293 64.464C166.365 64.464 163.653 67.128 163.653 71.424C163.653 75.792 165.765 78.336 169.077 78.336ZM169.749 76.032C167.685 76.032 166.509 74.376 166.509 71.376C166.509 68.544 167.997 66.768 169.845 66.768C170.829 66.768 171.765 67.104 172.725 67.992V74.424C171.789 75.528 170.829 76.032 169.749 76.032ZM179.634 78H182.418V64.8H179.634V78ZM181.026 62.328C182.034 62.328 182.754 61.68 182.754 60.672C182.754 59.688 182.034 59.04 181.026 59.04C179.994 59.04 179.322 59.688 179.322 60.672C179.322 61.68 179.994 62.328 181.026 62.328ZM186.548 78H189.332V68.64C190.484 67.488 191.324 66.864 192.548 66.864C194.084 66.864 194.756 67.752 194.756 70.056V78H197.54V69.696C197.54 66.36 196.292 64.464 193.484 64.464C191.684 64.464 190.316 65.448 189.116 66.648H189.044L188.804 64.8H186.548V78ZM206.061 83.928C210.285 83.928 212.973 81.864 212.973 79.32C212.973 77.064 211.341 76.104 208.221 76.104H205.773C204.117 76.104 203.565 75.6 203.565 74.832C203.565 74.184 203.877 73.8 204.285 73.44C204.885 73.704 205.557 73.824 206.133 73.824C208.917 73.824 211.101 72.192 211.101 69.288C211.101 68.28 210.741 67.416 210.237 66.888H212.733V64.8H208.077C207.573 64.608 206.901 64.464 206.133 64.464C203.421 64.464 201.021 66.216 201.021 69.216C201.021 70.776 201.885 72.048 202.773 72.72V72.816C202.029 73.344 201.309 74.232 201.309 75.264C201.309 76.344 201.813 77.04 202.509 77.472V77.592C201.285 78.312 200.589 79.344 200.589 80.472C200.589 82.752 202.893 83.928 206.061 83.928ZM206.133 72.048C204.789 72.048 203.661 70.968 203.661 69.216C203.661 67.44 204.765 66.432 206.133 66.432C207.525 66.432 208.629 67.44 208.629 69.216C208.629 70.968 207.501 72.048 206.133 72.048ZM206.469 82.104C204.285 82.104 202.941 81.336 202.941 80.064C202.941 79.392 203.277 78.72 204.069 78.12C204.621 78.264 205.197 78.312 205.821 78.312H207.813C209.421 78.312 210.285 78.672 210.285 79.776C210.285 80.976 208.773 82.104 206.469 82.104ZM216.6 61.632V63.624H221.856V75.504H216.6V77.52H223.92V61.632H216.6ZM215.256 61.632V79.368H217.344V61.632H215.256ZM216.48 68.184V70.176H222.888V68.184H216.48ZM218.832 57.72C218.664 58.992 218.256 60.816 217.872 62.016L219.696 62.448C220.176 61.344 220.776 59.664 221.28 58.104L218.832 57.72ZM227.232 61.512V63.6H234.456V61.512H227.232ZM233.664 61.512V61.968C233.376 72.288 233.016 76.344 232.224 77.184C231.96 77.52 231.672 77.592 231.192 77.592C230.616 77.592 229.176 77.568 227.616 77.448C228.024 78.048 228.312 79.008 228.36 79.656C229.728 79.704 231.168 79.752 232.032 79.656C232.944 79.536 233.544 79.296 234.12 78.504C235.104 77.28 235.416 73.512 235.752 62.592C235.776 62.304 235.776 61.512 235.776 61.512H233.664ZM227.544 57.696C226.776 60.96 225.456 64.248 223.824 66.336C224.352 66.624 225.288 67.272 225.696 67.632C227.328 65.352 228.816 61.776 229.728 58.2L227.544 57.696ZM226.416 68.04C227.664 69.792 229.224 72.168 229.92 73.632L231.864 72.456C231.096 71.04 229.464 68.712 228.192 67.032L226.416 68.04ZM245.136 60.288V62.352H260.496V60.288H245.136ZM247.848 66.288H257.592V69.36H247.848V66.288ZM245.76 64.416V71.256H259.776V64.416H245.76ZM247.584 71.64L245.712 72.216C248.304 76.68 253.008 79.152 259.44 80.04C259.728 79.416 260.304 78.504 260.784 78C254.544 77.376 249.792 75.264 247.584 71.64ZM251.544 57.864V68.616C251.544 72.624 251.04 76.536 244.2 78.192C244.68 78.672 245.328 79.56 245.592 80.064C252.792 77.928 253.776 73.392 253.776 68.64V57.864H251.544ZM243.768 57.696C242.4 61.248 240.096 64.752 237.744 66.984C238.128 67.512 238.752 68.736 238.968 69.264C241.656 66.576 244.248 62.424 245.88 58.368L243.768 57.696ZM241.32 64.152V80.112H243.48V62.016L243.456 61.992L241.32 64.152ZM268.272 64.032V66.096H278.184V64.032H268.272ZM265.224 67.824V69.816H269.688V74.256H265.224V76.248H271.848V67.824H265.224ZM274.08 67.824V80.064H276.312V69.864H281.088V67.824H274.08ZM280.344 67.824V74.496C280.344 74.784 280.248 74.856 279.936 74.88C279.624 74.88 278.544 74.88 277.368 74.856C277.632 75.456 277.92 76.32 277.992 76.944C279.72 76.944 280.848 76.944 281.592 76.584C282.36 76.224 282.552 75.624 282.552 74.52V67.824H280.344ZM264.216 67.824V78.24H266.304V67.824H264.216ZM273.456 57.408C271.176 60.528 266.496 63.456 261.984 64.584C262.488 65.184 263.016 66.12 263.304 66.768C267.864 65.304 272.688 62.136 275.256 58.728L273.456 57.408ZM274.44 58.872L272.52 59.664C274.896 62.784 278.928 65.448 283.008 66.672C283.392 66 284.088 65.016 284.664 64.488C280.632 63.576 276.528 61.32 274.44 58.872Z" fill="#002B51"/>
<path d="M41.6053 128.886H43.2853V123.078C43.2853 122.006 43.1413 120.502 43.0453 119.43H43.1093L44.0533 122.15L46.1013 127.766H47.2533L49.3013 122.15L50.2613 119.43H50.3253C50.2293 120.502 50.0853 122.006 50.0853 123.078V128.886H51.7973V117.11H49.6533L47.5253 123.078C47.2693 123.846 47.0453 124.646 46.7573 125.446H46.6933C46.4213 124.646 46.1813 123.846 45.8933 123.078L43.7493 117.11H41.6053V128.886ZM58.5826 129.11C60.7586 129.11 62.7266 127.414 62.7266 124.502C62.7266 121.558 60.7586 119.862 58.5826 119.862C56.3906 119.862 54.4386 121.558 54.4386 124.502C54.4386 127.414 56.3906 129.11 58.5826 129.11ZM58.5826 127.59C57.1906 127.59 56.3426 126.358 56.3426 124.502C56.3426 122.63 57.1906 121.398 58.5826 121.398C59.9586 121.398 60.8386 122.63 60.8386 124.502C60.8386 126.358 59.9586 127.59 58.5826 127.59ZM68.7463 129.11C70.9223 129.11 72.8903 127.414 72.8903 124.502C72.8903 121.558 70.9223 119.862 68.7463 119.862C66.5543 119.862 64.6023 121.558 64.6023 124.502C64.6023 127.414 66.5543 129.11 68.7463 129.11ZM68.7463 127.59C67.3543 127.59 66.5063 126.358 66.5063 124.502C66.5063 122.63 67.3543 121.398 68.7463 121.398C70.1223 121.398 71.0023 122.63 71.0023 124.502C71.0023 126.358 70.1223 127.59 68.7463 127.59ZM78.4141 129.11C79.4061 129.11 80.3181 128.582 80.9901 127.91H81.0381L81.1821 128.886H82.7021V116.15H80.8461V119.398L80.9261 120.854C80.2221 120.246 79.5661 119.862 78.5581 119.862C76.6061 119.862 74.7981 121.638 74.7981 124.502C74.7981 127.414 76.2061 129.11 78.4141 129.11ZM78.8621 127.574C77.4861 127.574 76.7021 126.47 76.7021 124.47C76.7021 122.582 77.6941 121.398 78.9261 121.398C79.5821 121.398 80.2061 121.622 80.8461 122.214V126.502C80.2221 127.238 79.5821 127.574 78.8621 127.574ZM85.7722 128.886H87.6282V120.086H85.7722V128.886ZM86.7002 118.438C87.3722 118.438 87.8522 118.006 87.8522 117.334C87.8522 116.678 87.3722 116.246 86.7002 116.246C86.0122 116.246 85.5642 116.678 85.5642 117.334C85.5642 118.006 86.0122 118.438 86.7002 118.438ZM90.7016 128.886H92.5576V122.646C93.3256 121.878 93.8856 121.462 94.7016 121.462C95.7256 121.462 96.1736 122.054 96.1736 123.59V128.886H98.0296V123.35C98.0296 121.126 97.1976 119.862 95.3256 119.862C94.1256 119.862 93.2136 120.518 92.4136 121.318H92.3656L92.2056 120.086H90.7016V128.886ZM104.03 132.838C106.846 132.838 108.638 131.462 108.638 129.766C108.638 128.262 107.55 127.622 105.47 127.622H103.838C102.734 127.622 102.366 127.286 102.366 126.774C102.366 126.342 102.574 126.086 102.846 125.846C103.246 126.022 103.694 126.102 104.078 126.102C105.934 126.102 107.39 125.014 107.39 123.078C107.39 122.406 107.15 121.83 106.814 121.478H108.478V120.086H105.374C105.038 119.958 104.59 119.862 104.078 119.862C102.27 119.862 100.67 121.03 100.67 123.03C100.67 124.07 101.246 124.918 101.838 125.366V125.43C101.342 125.782 100.862 126.374 100.862 127.062C100.862 127.782 101.198 128.246 101.662 128.534V128.614C100.846 129.094 100.382 129.782 100.382 130.534C100.382 132.054 101.918 132.838 104.03 132.838ZM104.078 124.918C103.182 124.918 102.43 124.198 102.43 123.03C102.43 121.846 103.166 121.174 104.078 121.174C105.006 121.174 105.742 121.846 105.742 123.03C105.742 124.198 104.99 124.918 104.078 124.918ZM104.302 131.622C102.846 131.622 101.95 131.11 101.95 130.262C101.95 129.814 102.174 129.366 102.702 128.966C103.07 129.062 103.454 129.094 103.87 129.094H105.198C106.27 129.094 106.846 129.334 106.846 130.07C106.846 130.87 105.838 131.622 104.302 131.622ZM110.128 122.342V123.686H124.288V122.342H110.128ZM117.264 125.222V126.534H123.248V125.222H117.264ZM116.576 122.998V128.998H118.112V122.998H116.576ZM113.728 125.574L112.48 126.006C113.76 129.286 115.936 129.958 119.664 129.958H124.128C124.208 129.51 124.448 128.838 124.672 128.502C123.696 128.534 120.464 128.534 119.728 128.534C116.736 128.518 114.656 128.07 113.728 125.574ZM112.736 124.134C112.336 126.39 111.328 128.15 109.664 129.206C110 129.43 110.592 129.99 110.816 130.262C112.576 128.998 113.728 126.998 114.24 124.342L112.736 124.134ZM113.184 119.222H121.088V120.31H113.184V119.222ZM113.184 117.11H121.088V118.182H113.184V117.11ZM111.728 115.99V121.414H122.624V115.99H111.728ZM127.984 123.126V124.614H138.992V123.126H127.984ZM127.984 127.814V129.302H138.96V127.814H127.984ZM127.248 118.47V130.246H128.752V119.99H138.24V130.198H139.824V118.47H127.248ZM132.672 115.398V128.598H134.224V115.398H132.672ZM142.496 121.83V123.478H157.216V121.83H142.496ZM166.608 118.486V119.862H173.28V118.486H166.608ZM166.816 121.718V123.126H172.992V121.718H166.816ZM166.24 125.158V126.582H173.632V125.158H166.24ZM166.736 115.91C167.216 116.742 167.648 117.846 167.776 118.582L169.072 118.102C168.912 117.366 168.464 116.294 167.936 115.494L166.736 115.91ZM171.568 115.366C171.344 116.214 170.864 117.398 170.496 118.15L171.744 118.47C172.128 117.766 172.592 116.694 173.024 115.718L171.568 115.366ZM169.136 119.174V130.246H170.592V119.174H169.136ZM158.768 118.806V120.086H166.432V118.806H158.768ZM159.616 116.166V117.446H164.16V121.43H159.536V122.71H165.552V116.166H159.616ZM160.432 124.182V130.246H161.808V124.182H160.432ZM160.992 124.182V125.494H164.336V128.102H160.992V129.414H165.808V124.182H160.992ZM161.408 116.646C161.2 120.806 160.608 124.214 158.544 126.182C158.848 126.454 159.36 127.062 159.536 127.366C161.84 125.03 162.56 121.398 162.848 116.71L161.408 116.646ZM179.184 119.91V127.622C179.184 129.414 179.728 129.942 181.616 129.942C182 129.942 184.192 129.942 184.608 129.942C186.48 129.942 186.928 129.014 187.12 125.974C186.704 125.862 186.048 125.59 185.68 125.318C185.568 127.974 185.424 128.518 184.512 128.518C184.016 128.518 182.176 128.518 181.776 128.518C180.928 128.518 180.768 128.39 180.768 127.622V119.91H179.184ZM176.48 120.982C176.272 122.998 175.76 125.462 175.12 127.126L176.656 127.766C177.264 125.99 177.712 123.254 177.952 121.27L176.48 120.982ZM186.48 121.094C187.36 122.982 188.208 125.526 188.496 127.158L190.016 126.55C189.68 124.886 188.816 122.438 187.888 120.534L186.48 121.094ZM179.856 116.822C181.36 117.862 183.296 119.43 184.176 120.422L185.28 119.254C184.336 118.262 182.368 116.79 180.88 115.814L179.856 116.822ZM198.672 120.342H204.128V122.102H198.672V120.342ZM198.672 117.398H204.128V119.126H198.672V117.398ZM197.296 116.102V123.398H205.584V116.102H197.296ZM197.136 125.062V126.438H205.776V125.062H197.136ZM195.952 128.342V129.718H206.32V128.342H195.952ZM191.456 116.39V117.814H196.592V116.39H191.456ZM191.616 121.014V122.422H196.336V121.014H191.616ZM191.28 127.126L191.632 128.662C193.104 128.182 194.976 127.558 196.736 126.966L196.464 125.51C194.592 126.134 192.608 126.758 191.28 127.126ZM193.344 116.95V127.094L194.8 126.838V116.95H193.344ZM200.768 116.678V122.774H200.64V128.982H202.192V122.774H202.064V116.678H200.768ZM208.912 117.782V119.062H211.936V121.11H208.912V122.406H213.28V117.782H208.912ZM208.96 123.686V124.982H212.08V127.382H208.96V128.662H213.44V123.686H208.96ZM208.336 117.782V129.718H209.696V117.782H208.336ZM213.824 116.182V117.558H222.448V116.182H213.824ZM210.272 115.366C210.144 116.198 209.84 117.35 209.568 118.134L210.768 118.374C211.136 117.654 211.584 116.55 211.936 115.574L210.272 115.366ZM217.408 116.806V130.214H218.832V116.806H217.408ZM214.4 119.302V127.798H215.792V120.662H221.312V119.302H214.4ZM220.592 119.302V126.326C220.592 126.486 220.544 126.534 220.384 126.534C220.24 126.55 219.776 126.55 219.264 126.534C219.456 126.902 219.632 127.462 219.68 127.846C220.512 127.846 221.072 127.83 221.488 127.59C221.904 127.366 222 126.982 222 126.342V119.302H220.592ZM225.216 120.47V130.198H226.656V121.718H237.088V120.47H225.216ZM236.32 120.47V128.71C236.32 128.934 236.224 129.014 235.952 129.014C235.712 129.03 234.784 129.046 233.888 129.014C234.064 129.334 234.256 129.814 234.32 130.15C235.648 130.15 236.496 130.134 237.008 129.958C237.536 129.766 237.712 129.43 237.712 128.71V120.47H236.32ZM229.168 124.438V125.526H233.168V127.142H229.168V128.214H234.416V124.438H229.168ZM228.368 124.438V128.934H229.648V124.438H228.368ZM224.368 117.03V118.326H238.528V117.03H224.368ZM227.744 118.678C228.08 119.27 228.48 120.07 228.672 120.55L230.016 120.038C229.808 119.574 229.376 118.822 229.04 118.262L227.744 118.678ZM233.76 118.342C233.504 119.062 232.976 120.086 232.56 120.742L233.728 121.062C234.192 120.47 234.768 119.526 235.28 118.678L233.76 118.342ZM230.4 115.654C230.656 116.31 230.944 117.206 231.072 117.766L232.576 117.334C232.416 116.79 232.112 115.942 231.84 115.286L230.4 115.654ZM229.264 121.126C229.152 122.566 228.704 123.238 226.64 123.606C226.896 123.846 227.232 124.342 227.328 124.646C229.808 124.102 230.432 123.062 230.592 121.126H229.264ZM232.048 121.142V122.454C232.048 123.51 232.256 124.006 233.376 124.006C233.648 124.006 234.592 124.006 234.896 124.006C235.232 124.006 235.648 123.99 235.856 123.91C235.808 123.59 235.792 123.222 235.76 122.87C235.536 122.934 235.104 122.95 234.864 122.95C234.64 122.95 233.904 122.95 233.696 122.95C233.424 122.95 233.392 122.822 233.392 122.47V121.142H232.048ZM241.552 117.782V119.062H244.576V121.11H241.552V122.406H245.92V117.782H241.552ZM241.6 123.686V124.982H244.72V127.382H241.6V128.662H246.08V123.686H241.6ZM240.976 117.782V129.718H242.336V117.782H240.976ZM246.464 116.182V117.558H255.088V116.182H246.464ZM242.912 115.366C242.784 116.198 242.48 117.35 242.208 118.134L243.408 118.374C243.776 117.654 244.224 116.55 244.576 115.574L242.912 115.366ZM250.048 116.806V130.214H251.472V116.806H250.048ZM247.04 119.302V127.798H248.432V120.662H253.952V119.302H247.04ZM253.232 119.302V126.326C253.232 126.486 253.184 126.534 253.024 126.534C252.88 126.55 252.416 126.55 251.904 126.534C252.096 126.902 252.272 127.462 252.32 127.846C253.152 127.846 253.712 127.83 254.128 127.59C254.544 127.366 254.64 126.982 254.64 126.342V119.302H253.232ZM265.008 126.742V128.198H269.904V126.742H265.008ZM264.464 116.886V129.494H265.936V118.326H269.072V129.382H270.624V116.886H264.464ZM259.856 116.838V130.214H261.36V116.838H259.856ZM256.832 120.134V121.542H263.968V120.134H256.832ZM259.76 120.646C259.168 122.79 257.808 125.302 256.464 126.694C256.72 127.078 257.088 127.67 257.248 128.102C258.704 126.534 260.08 123.542 260.8 121.014L259.76 120.646ZM262.928 115.526C261.504 116.102 259.056 116.598 256.944 116.886C257.104 117.222 257.296 117.75 257.36 118.086C259.552 117.83 262.144 117.366 263.936 116.71L262.928 115.526ZM261.248 121.75L260.496 122.486C261.104 123.254 262.528 125.206 263.056 126.102L263.952 124.854C263.552 124.342 261.744 122.246 261.248 121.75ZM273.76 120.246V121.414H278.576V120.246H273.76ZM273.76 122.374V123.542H278.608V122.374H273.76ZM273.088 118.07V119.302H279.264V118.07H273.088ZM274.432 124.55V125.782H277.264V128.07H274.432V129.302H278.592V124.55H274.432ZM273.76 124.55V130.022H275.072V124.55H273.76ZM274.768 115.894C275.2 116.566 275.712 117.51 275.936 118.102L277.168 117.414C276.912 116.838 276.4 115.974 275.952 115.318L274.768 115.894ZM280.784 115.942V117.35H284.992V115.942H280.784ZM279.04 122.406V123.814H286.096V122.406H279.04ZM285.552 122.406V122.646C284.576 126.022 281.76 128.102 278.448 128.87C278.72 129.206 279.056 129.83 279.216 130.23C282.848 129.19 285.84 126.95 287.04 122.742L286.096 122.342L285.84 122.406H285.552ZM280.912 123.67L279.616 124.118C281.04 127.206 283.488 129.302 286.976 130.198C287.168 129.782 287.584 129.142 287.92 128.822C284.576 128.118 282.096 126.246 280.912 123.67ZM280.512 115.942V117.686C280.512 118.79 280.272 120.038 278.528 120.982C278.8 121.206 279.328 121.782 279.504 122.086C281.472 120.982 281.904 119.222 281.904 117.734V115.942H280.512ZM284.24 115.942V119.542C284.24 120.934 284.496 121.478 285.744 121.478C285.952 121.478 286.496 121.478 286.704 121.478C287.024 121.478 287.344 121.462 287.552 121.366C287.488 121.03 287.456 120.47 287.44 120.102C287.232 120.15 286.912 120.182 286.704 120.182C286.544 120.182 286.032 120.182 285.872 120.182C285.664 120.182 285.648 120.022 285.648 119.558V115.942H284.24ZM290.384 120.246V121.414H295.696V120.246H290.384ZM290.384 122.374V123.542H295.664V122.374H290.384ZM289.68 118.07V119.302H296.368V118.07H289.68ZM291.136 124.55V125.782H294.384V128.07H291.136V129.302H295.696V124.55H291.136ZM290.48 124.55V130.022H291.776V124.55H290.48ZM291.52 115.894C291.952 116.566 292.464 117.51 292.704 118.102L293.904 117.414C293.648 116.838 293.152 115.974 292.704 115.318L291.52 115.894ZM296.336 120.838V122.326H304.048V120.838H296.336ZM299.328 115.67V130.23H300.896V115.67H299.328ZM306.832 117.782V119.062H309.856V121.11H306.832V122.406H311.2V117.782H306.832ZM306.88 123.686V124.982H310V127.382H306.88V128.662H311.36V123.686H306.88ZM306.256 117.782V129.718H307.616V117.782H306.256ZM311.744 116.182V117.558H320.368V116.182H311.744ZM308.192 115.366C308.064 116.198 307.76 117.35 307.488 118.134L308.688 118.374C309.056 117.654 309.504 116.55 309.856 115.574L308.192 115.366ZM315.328 116.806V130.214H316.752V116.806H315.328ZM312.32 119.302V127.798H313.712V120.662H319.232V119.302H312.32ZM318.512 119.302V126.326C318.512 126.486 318.464 126.534 318.304 126.534C318.16 126.55 317.696 126.55 317.184 126.534C317.376 126.902 317.552 127.462 317.6 127.846C318.432 127.846 318.992 127.83 319.408 127.59C319.824 127.366 319.92 126.982 319.92 126.342V119.302H318.512ZM325.696 115.51V124.566H327.264V115.51H325.696ZM331.44 115.51V124.566H333.024V115.51H331.44ZM322.096 123.59V125.062H336.672V123.59H322.096ZM322.704 118.646V120.102H336.128V118.646H322.704ZM330.624 126.582C332.096 127.702 334.032 129.27 334.96 130.23L336.432 129.334C335.408 128.358 333.408 126.854 331.984 125.814L330.624 126.582ZM326.432 125.862C325.568 126.998 323.808 128.358 322.256 129.19C322.608 129.446 323.168 129.926 323.472 130.246C325.072 129.334 326.864 127.862 328.032 126.47L326.432 125.862ZM341.648 119.062V120.358H349.728V119.062H341.648ZM342.432 121.83V128.182H343.824V121.83H342.432ZM343.2 121.83V123.094H347.52V125.782H343.2V127.046H348.928V121.83H343.2ZM338.992 116.182V130.262H340.464V117.622H351.776V116.182H338.992ZM350.896 116.182V128.406C350.896 128.678 350.8 128.774 350.512 128.79C350.24 128.806 349.312 128.806 348.368 128.774C348.608 129.158 348.832 129.846 348.896 130.246C350.272 130.262 351.104 130.214 351.648 129.974C352.192 129.734 352.384 129.27 352.384 128.422V116.182H350.896ZM44.1173 151.486V152.702H51.9893V151.486H44.1173ZM43.8613 154.222V155.486H52.2933V154.222H43.8613ZM48.9493 151.87V158.942H50.2933V151.87H48.9493ZM45.7333 151.934V154.91C45.7333 155.758 45.3973 157.39 43.8933 158.302C44.2133 158.51 44.6773 158.926 44.8853 159.198C46.6293 158.014 47.0453 155.918 47.0453 154.91V151.934H45.7333ZM42.1813 147.246V148.27H46.4693V147.246H42.1813ZM49.5733 147.246V148.27H53.8933V147.246H49.5733ZM53.3013 145.038V157.374C53.3013 157.614 53.2213 157.71 52.9653 157.71C52.7093 157.726 51.8933 157.726 51.0773 157.694C51.2853 158.094 51.4933 158.798 51.5413 159.198C52.7733 159.214 53.5733 159.182 54.1013 158.926C54.6293 158.67 54.7893 158.222 54.7893 157.39V145.038H53.3013ZM42.3093 145.038V146.158H45.9893V149.438H42.3093V150.558H47.4133V145.038H42.3093ZM54.0533 145.038H48.6613V150.59H54.0533V149.47H50.1013V146.158H54.0533V145.038ZM41.4133 145.038V159.246H42.9013V145.038H41.4133ZM65.0453 149.182V150.35H68.3253V149.182H65.0453ZM63.8293 153.838V154.894H69.2533V153.838H63.8293ZM58.5333 145.006V146.222H62.9813V145.006H58.5333ZM62.5813 145.006V145.246C61.6533 147.358 59.1893 149.054 56.7893 149.79C57.0453 150.046 57.4133 150.574 57.6053 150.894C60.2453 149.966 62.8373 148.158 64.0213 145.422L63.0773 144.958L62.8373 145.006H62.5813ZM65.4773 144.43L64.2613 144.798C65.5573 147.646 67.9093 149.758 70.9973 150.734C71.2053 150.366 71.5893 149.838 71.9093 149.55C68.9333 148.766 66.5973 146.862 65.4773 144.43ZM68.3733 144.494C67.8293 145.118 66.8533 145.982 66.1653 146.494L67.0453 147.182C67.7653 146.686 68.7093 145.966 69.4773 145.262L68.3733 144.494ZM70.3573 146.094C69.7973 146.702 68.7893 147.566 68.0693 148.078L68.9813 148.766C69.7173 148.286 70.6933 147.566 71.4613 146.862L70.3573 146.094ZM59.2373 149.246V150.414H61.7653V153.022H63.1253V149.246H59.2373ZM58.7253 151.87C58.5813 153.054 58.3573 154.574 58.1333 155.566H59.4133C59.6053 154.606 59.8133 153.102 59.9733 151.87H58.7253ZM61.7653 154.43V154.622C61.6213 156.622 61.4453 157.47 61.1733 157.694C61.0453 157.822 60.8693 157.838 60.5813 157.838C60.2773 157.838 59.4293 157.822 58.5813 157.758C58.8213 158.11 58.9973 158.638 59.0133 159.038C59.8933 159.086 60.7253 159.086 61.1573 159.054C61.6693 159.022 62.0053 158.91 62.3253 158.59C62.7253 158.19 62.9173 157.198 63.0933 154.99C63.1253 154.798 63.1413 154.43 63.1413 154.43H61.7653ZM64.4853 149.182V150.382C64.4853 151.15 64.2933 152.014 63.0453 152.702C63.3173 152.878 63.8133 153.374 64.0053 153.646C65.4293 152.782 65.7653 151.518 65.7653 150.414V149.182H64.4853ZM68.9333 153.838V154.014C68.0693 156.286 65.7173 157.63 63.0133 158.142C63.2533 158.43 63.5413 158.926 63.6693 159.246C66.6933 158.526 69.2053 157.038 70.2773 154.094L69.4453 153.79L69.2053 153.838H68.9333ZM59.2853 151.87L59.0773 153.022H62.2453V151.87H59.2853ZM58.8213 154.43L58.5973 155.566H62.1493V154.43H58.8213ZM58.0693 147.182C58.7733 147.614 59.6373 148.254 60.0373 148.702L60.9493 147.79C60.5173 147.358 59.6373 146.766 58.9333 146.382L58.0693 147.182ZM67.6373 149.182V151.63C67.6373 152.75 67.8613 153.198 68.9973 153.198C69.2213 153.198 69.9733 153.198 70.1973 153.198C70.5173 153.198 70.8533 153.198 71.0613 153.118C71.0133 152.83 70.9813 152.382 70.9653 152.078C70.7733 152.126 70.3893 152.142 70.1653 152.142C69.9893 152.142 69.3333 152.142 69.1573 152.142C68.9333 152.142 68.9013 152.03 68.9013 151.646V149.182H67.6373ZM63.7173 155.678C65.6693 156.75 68.3093 158.334 69.6053 159.262L70.3733 158.27C69.0133 157.342 66.3413 155.838 64.4373 154.83L63.7173 155.678ZM74.8853 146.974V148.302H78.3893V156.222H74.8853V157.566H79.7653V146.974H74.8853ZM73.9893 146.974V158.798H75.3813V146.974H73.9893ZM74.8053 151.342V152.67H79.0773V151.342H74.8053ZM76.3733 144.366C76.2613 145.214 75.9893 146.43 75.7333 147.23L76.9493 147.518C77.2693 146.782 77.6693 145.662 78.0053 144.622L76.3733 144.366ZM81.9733 146.894V148.286H86.7893V146.894H81.9733ZM86.2613 146.894V147.198C86.0693 154.078 85.8293 156.782 85.3013 157.342C85.1253 157.566 84.9333 157.614 84.6133 157.614C84.2293 157.614 83.2693 157.598 82.2293 157.518C82.5013 157.918 82.6933 158.558 82.7253 158.99C83.6373 159.022 84.5973 159.054 85.1733 158.99C85.7813 158.91 86.1813 158.75 86.5653 158.222C87.2213 157.406 87.4293 154.894 87.6533 147.614C87.6693 147.422 87.6693 146.894 87.6693 146.894H86.2613ZM82.1813 144.35C81.6693 146.526 80.7893 148.718 79.7013 150.11C80.0533 150.302 80.6773 150.734 80.9493 150.974C82.0373 149.454 83.0293 147.07 83.6373 144.686L82.1813 144.35ZM81.4293 151.246C82.2613 152.414 83.3013 153.998 83.7653 154.974L85.0613 154.19C84.5493 153.246 83.4613 151.694 82.6133 150.574L81.4293 151.246ZM96.2613 153.614V154.542H102.501V153.614H96.2613ZM94.9333 145.71V146.622H103.829V145.71H94.9333ZM95.3813 147.646V148.526H103.397V147.646H95.3813ZM94.5173 149.646V150.558H104.325V149.646H94.5173ZM96.2613 155.758V156.654H102.533V155.758H96.2613ZM102.181 151.502V157.854C102.181 158.046 102.117 158.11 101.893 158.126C101.685 158.142 100.917 158.142 100.101 158.11C100.245 158.398 100.405 158.846 100.453 159.15C101.589 159.15 102.309 159.134 102.757 158.958C103.205 158.798 103.317 158.478 103.317 157.87V151.502H102.181ZM98.7573 144.446V149.934H99.9413V144.446H98.7573ZM91.9253 144.43V159.134H93.0613V144.43H91.9253ZM90.2933 147.534C90.1813 148.814 89.8773 150.574 89.4933 151.662L90.4853 151.998C90.8693 150.798 91.1573 148.958 91.2373 147.678L90.2933 147.534ZM93.1413 147.118C93.5253 147.902 93.9573 148.958 94.1333 149.582L94.9813 149.134C94.8053 148.526 94.3733 147.518 93.9733 146.75L93.1413 147.118ZM95.5893 151.502V154.43C95.5893 155.694 95.4933 157.326 94.6133 158.526C94.8533 158.67 95.3173 159.102 95.4613 159.342C96.5173 157.966 96.7093 155.95 96.7093 154.462V151.502H95.5893ZM96.2293 151.502V152.398H102.821V151.502H96.2293ZM112.213 146.382V147.438H118.117V146.382H112.213ZM113.813 154.814V155.774H119.189V154.814H113.813ZM113.781 157.454V158.462H119.157V157.454H113.781ZM111.365 149.454V150.558H120.677V149.454H111.365ZM114.821 144.462V150.11H115.957V144.462H114.821ZM113.301 152.126V159.118H114.421V153.15H118.565V159.054H119.733V152.126H113.301ZM119.221 145.31C117.509 148.894 114.565 151.678 110.981 153.31C111.237 153.55 111.621 154.03 111.781 154.27C115.381 152.446 118.437 149.518 120.309 145.662L119.221 145.31ZM106.437 154.974C106.437 154.75 107.221 154.398 107.221 154.398V154.382C108.741 152.814 110.309 150.638 111.589 148.462L110.629 147.886C109.525 150.046 107.829 152.302 107.301 152.878C106.789 153.47 106.437 153.87 106.085 153.934C106.213 154.222 106.389 154.75 106.437 154.974ZM106.437 154.974C106.741 154.798 107.269 154.638 110.965 153.902C110.949 153.646 110.949 153.214 110.981 152.91L106.965 153.63L106.389 154.03L106.437 154.974ZM106.325 151.134C106.325 150.894 107.029 150.526 107.029 150.526V150.494C108.101 149.038 109.221 146.958 110.005 144.974L108.917 144.494C108.309 146.414 107.189 148.51 106.837 149.054C106.501 149.598 106.229 149.982 105.957 150.046C106.085 150.334 106.277 150.894 106.325 151.134ZM106.325 151.134C106.581 151.006 107.013 150.91 109.685 150.558C109.685 150.334 109.717 149.918 109.765 149.614L106.853 149.918L106.293 150.286L106.325 151.134ZM106.053 157.038L106.293 158.19C107.749 157.806 109.685 157.326 111.557 156.846L111.445 155.822C109.445 156.286 107.397 156.766 106.053 157.038ZM128.517 146.126V147.134H134.165V149.358H128.517V150.382H135.333V146.126H128.517ZM131.093 144.398C130.949 145.022 130.645 145.918 130.405 146.526L131.493 146.766C131.797 146.222 132.149 145.406 132.469 144.622L131.093 144.398ZM127.941 146.126V156.494H129.093V146.126H127.941ZM128.597 151.87V152.894H134.805V155.486H128.597V156.494H135.957V151.87H128.597ZM122.997 145.086C123.701 145.87 124.597 146.99 125.029 147.646L125.957 146.99C125.509 146.35 124.629 145.326 123.893 144.542L122.997 145.086ZM122.421 148.142V149.15H125.925V148.142H122.421ZM125.269 155.486L124.469 155.854C125.669 158.494 127.765 158.942 131.509 158.942C133.269 158.942 135.285 158.894 136.789 158.814C136.853 158.478 137.013 157.918 137.189 157.662C135.557 157.79 133.205 157.87 131.525 157.87C128.341 157.87 126.261 157.582 125.269 155.486ZM125.557 152.142V152.35C125.093 155.294 123.845 157.31 122.117 158.382C122.373 158.558 122.757 158.958 122.917 159.214C124.725 158.014 126.085 155.758 126.645 152.334L126.053 152.11L125.845 152.142H125.557ZM122.661 153.342C122.789 153.214 123.205 153.118 123.621 153.118H125.893L125.909 152.142H123.237L122.661 152.43V153.342ZM122.661 153.342C122.661 153.038 123.573 152.59 123.573 152.59C124.501 151.566 126.005 149.534 126.789 148.446L125.989 148.062L125.621 148.222V148.27C125.077 149.118 123.509 151.278 122.997 151.774C122.725 152.078 122.453 152.19 122.213 152.254C122.341 152.51 122.581 153.07 122.661 153.342ZM140.197 146.19H142.373V149.022H140.197V146.19ZM139.237 145.15V150.062H143.381V145.15H139.237ZM140.997 149.518V156.958H141.973V149.518H140.997ZM139.173 151.566V157.438H140.101V151.566H139.173ZM138.549 157.182L138.773 158.286C140.197 157.886 142.085 157.374 143.877 156.862L143.765 155.838C141.829 156.35 139.861 156.894 138.549 157.182ZM141.509 152.398V153.454H143.493V152.398H141.509ZM148.309 144.51C148.037 146.782 147.493 148.83 146.437 150.142C146.661 150.318 147.045 150.654 147.205 150.846C148.357 149.374 148.981 147.15 149.317 144.638L148.309 144.51ZM148.261 154.062L147.445 154.302C148.149 158.222 149.557 158.958 151.589 158.958H153.157C153.205 158.67 153.349 158.174 153.493 157.902C153.109 157.918 151.941 157.918 151.669 157.918C150.117 157.918 148.821 157.342 148.261 154.062ZM150.229 153.374V154.414H152.981V153.374H150.229ZM151.221 144.51C150.997 146.75 150.485 148.638 149.317 149.854C149.541 150.014 149.925 150.366 150.053 150.558C151.317 149.198 151.941 147.118 152.213 144.606L151.221 144.51ZM150.789 147.486C151.509 148.462 152.389 149.79 152.789 150.622L153.541 149.886C153.109 149.102 152.213 147.822 151.461 146.846L150.789 147.486ZM148.565 146.782L148.037 147.326C148.341 147.742 149.077 148.846 149.333 149.358L149.941 148.366C149.749 148.11 148.821 147.038 148.565 146.782ZM145.717 148.094C145.269 149.662 144.325 151.63 143.253 152.926C143.429 153.102 143.717 153.486 143.845 153.694C145.029 152.27 146.069 150.174 146.709 148.382L145.717 148.094ZM145.589 144.478C145.173 145.678 144.293 147.182 143.381 148.158C143.589 148.334 143.909 148.686 144.069 148.894C145.061 147.822 146.021 146.19 146.629 144.798L145.589 144.478ZM147.477 151.966C147.445 153.934 147.301 156.958 146.021 158.574C146.245 158.702 146.597 159.022 146.773 159.182C148.181 157.486 148.421 154.222 148.501 152.014L147.477 151.966ZM149.669 150.622V158.158H150.709V150.622H149.669ZM144.837 150.814V159.15H145.845V150.03L145.685 149.982L144.837 150.814ZM166.389 146.766C166.229 147.598 165.861 148.846 165.573 149.614L166.293 149.854C166.613 149.134 166.981 147.982 167.301 147.022L166.389 146.766ZM163.125 146.99C163.493 147.71 163.845 148.67 163.957 149.31L164.741 149.022C164.613 148.398 164.261 147.438 163.877 146.734L163.125 146.99ZM161.077 145.214V159.198H162.165V146.286H168.581V145.214H161.077ZM168.197 145.214V157.822C168.197 158.046 168.133 158.11 167.925 158.126C167.717 158.126 167.061 158.142 166.373 158.11C166.533 158.398 166.677 158.894 166.709 159.166C167.701 159.182 168.357 159.15 168.757 158.974C169.157 158.782 169.285 158.478 169.285 157.822V145.214H168.197ZM162.565 149.438V150.382H167.845V149.438H162.565ZM162.741 152.078V153.038H167.637V152.078H162.741ZM164.277 150.67C164.549 151.134 164.837 151.79 164.965 152.206L165.845 151.838C165.717 151.438 165.397 150.814 165.125 150.35L164.277 150.67ZM158.917 150.862C159.333 151.87 159.797 153.198 159.957 153.998L160.869 153.63C160.661 152.878 160.213 151.566 159.765 150.574L158.917 150.862ZM157.333 154.862C157.525 155.95 157.701 157.374 157.717 158.302L158.629 158.094C158.581 157.15 158.389 155.758 158.181 154.686L157.333 154.862ZM155.653 154.75C155.509 156.046 155.269 157.486 154.901 158.462C155.141 158.526 155.589 158.686 155.797 158.798C156.117 157.806 156.421 156.302 156.581 154.91L155.653 154.75ZM155.285 150.446C155.285 150.206 155.973 149.854 155.973 149.854V149.838C157.013 148.558 158.069 146.686 158.869 144.91L157.861 144.462C157.221 146.206 156.133 148.046 155.797 148.526C155.477 149.006 155.189 149.342 154.933 149.406C155.061 149.694 155.237 150.222 155.285 150.446ZM155.285 150.446C155.525 150.318 155.941 150.238 158.437 149.95C158.453 149.726 158.485 149.326 158.533 149.038L155.797 149.278L155.269 149.614L155.285 150.446ZM155.381 154.046C155.381 153.822 156.085 153.486 156.085 153.486V153.454C157.557 151.854 159.077 149.598 160.261 147.39L159.317 146.83C158.309 149.022 156.693 151.326 156.197 151.918C155.717 152.526 155.365 152.942 155.045 153.006C155.173 153.294 155.349 153.822 155.381 154.046ZM155.381 154.046C155.685 153.886 156.197 153.758 160.133 153.15C160.117 152.926 160.117 152.526 160.149 152.254L155.893 152.846L155.349 153.214L155.381 154.046ZM159.077 154.542C159.413 155.518 159.813 156.814 159.973 157.678L160.821 157.374C160.645 156.542 160.245 155.262 159.877 154.27L159.077 154.542ZM163.333 152.542V154.606C163.333 155.662 163.573 156.046 164.629 156.046C164.869 156.046 166.373 156.046 166.709 156.046C167.093 156.046 167.525 156.046 167.733 155.982C167.701 155.742 167.669 155.358 167.653 155.086C167.397 155.15 166.949 155.15 166.677 155.15C166.389 155.15 164.997 155.15 164.709 155.15C164.389 155.15 164.325 155.022 164.325 154.622V152.542H163.333ZM171.557 147.47V148.574H177.781V147.47H171.557ZM171.365 156.382L171.653 157.582C173.333 157.15 175.589 156.59 177.701 156.03L177.589 154.926C175.317 155.486 172.933 156.062 171.365 156.382ZM172.197 149.502C172.549 151.31 172.885 153.662 172.965 155.23L173.973 155.038C173.877 153.454 173.541 151.134 173.141 149.31L172.197 149.502ZM175.893 149.118C175.685 151.102 175.253 153.998 174.837 155.678L175.717 155.902C176.165 154.222 176.693 151.438 177.029 149.326L175.893 149.118ZM173.429 144.862C173.861 145.614 174.325 146.638 174.501 147.294L175.589 146.926C175.397 146.27 174.917 145.278 174.453 144.542L173.429 144.862ZM181.397 147.774V148.91H185.989V147.774H181.397ZM178.645 157.262V158.398H184.693V157.262H178.645ZM180.693 144.446V152.606H181.909V144.446H180.693ZM178.085 152.11V159.15H179.253V153.23H184.085V159.086H185.301V152.11H178.085ZM197.535 154.878C199.215 154.302 200.303 152.99 200.303 151.262C200.303 150.142 199.823 149.406 198.927 149.406C198.287 149.406 197.711 149.806 197.711 150.558C197.711 151.31 198.255 151.71 198.911 151.71C199.215 151.71 199.535 151.63 199.759 151.342L198.895 150.126L199.199 151.47C199.199 152.686 198.479 153.502 197.167 154.03L197.535 154.878ZM209.935 151.758V159.182H211.119V152.83H219.279V159.118H220.495V151.758H209.935ZM210.591 154.606V155.598H219.695V154.606H210.591ZM210.591 157.454V158.526H219.695V157.454H210.591ZM209.343 144.494V148.302C209.343 149.822 210.015 150.35 211.951 150.35C212.511 150.35 217.567 150.35 218.527 150.35C219.599 150.35 220.735 150.318 221.151 150.238C221.103 149.966 221.023 149.502 220.975 149.15C220.447 149.246 219.199 149.294 218.415 149.294C217.455 149.294 212.767 149.294 211.855 149.294C210.815 149.294 210.559 149.022 210.559 148.334V144.494H209.343ZM210.159 146.254V147.31H220.335V146.254H210.159ZM224.479 146.926V148.094H238.495V146.926H224.479ZM229.439 151.998V153.118H237.871V151.998H229.439ZM228.815 157.662V158.798H238.495V157.662H228.815ZM233.055 148.91V158.27H234.255V148.91H233.055ZM229.743 144.446C228.847 147.742 226.975 151.294 224.095 153.326C224.287 153.598 224.591 154.11 224.719 154.43C227.903 152.142 229.855 148.414 230.975 144.75L229.743 144.446ZM226.575 151.038V159.118H227.775V151.038H226.575ZM243.519 144.51C242.751 146.99 241.487 149.438 240.079 151.038C240.287 151.342 240.607 151.998 240.719 152.27C242.303 150.398 243.727 147.598 244.639 144.83L243.519 144.51ZM242.239 148.462V159.166H243.423V147.342L243.375 147.31L242.239 148.462ZM247.039 146.27H252.831V149.566H247.039V146.27ZM245.887 145.198V150.638H254.031V145.198H245.887ZM249.871 153.102V154.238H254.319V153.102H249.871ZM249.359 150.094V157.598L250.543 158.11V150.094H249.359ZM246.943 154.11L246.015 154.462C247.151 158.094 249.327 158.814 252.303 158.814H254.863C254.927 158.494 255.103 157.95 255.263 157.678C254.687 157.678 252.815 157.694 252.383 157.678C249.919 157.678 247.839 157.166 246.943 154.11ZM246.207 152.222C245.935 154.894 245.295 157.118 243.839 158.494C244.111 158.654 244.607 159.006 244.799 159.198C246.287 157.662 247.039 155.31 247.359 152.334L246.207 152.222ZM263.535 147.102H263.423L262.431 148.158V156.062H263.535V148.11H270.863V147.102H263.535ZM262.959 149.726V150.686H270.431V149.726H262.959ZM262.991 152.35V153.31H270.431V152.35H262.991ZM262.959 155.038V156.062H271.231V155.038H262.959ZM266.335 147.518V155.55H267.407V147.518H266.335ZM263.695 144.558C262.975 146.654 261.807 148.75 260.527 150.126C260.735 150.35 261.071 150.846 261.199 151.07C262.591 149.534 263.887 147.182 264.719 144.846L263.695 144.558ZM265.903 144.974C266.367 145.79 266.879 146.878 267.071 147.534L268.127 147.198C267.919 146.526 267.391 145.47 266.895 144.686L265.903 144.974ZM257.455 145.006C258.159 145.79 259.055 146.91 259.487 147.582L260.415 146.926C259.967 146.27 259.087 145.246 258.351 144.478L257.455 145.006ZM256.879 148.142V149.15H260.383V148.142H256.879ZM259.727 155.486L258.927 155.854C260.127 158.494 262.223 158.942 265.967 158.942C267.727 158.942 269.743 158.894 271.247 158.814C271.311 158.478 271.471 157.918 271.647 157.662C270.015 157.79 267.663 157.87 265.983 157.87C262.799 157.87 260.719 157.582 259.727 155.486ZM259.951 152.142V152.35C259.503 155.278 258.271 157.31 256.575 158.382C256.799 158.558 257.199 158.958 257.359 159.214C259.151 158.014 260.479 155.758 261.039 152.334L260.431 152.11L260.223 152.142H259.951ZM257.103 153.342C257.215 153.214 257.631 153.118 258.047 153.118H260.335L260.351 152.142H257.679L257.103 152.43V153.342ZM257.103 153.342C257.103 153.038 257.999 152.59 257.999 152.59C258.943 151.566 260.431 149.534 261.215 148.446L260.415 148.062L260.047 148.222V148.27C259.503 149.118 257.935 151.278 257.423 151.774C257.151 152.094 256.895 152.19 256.655 152.254C256.783 152.51 257.023 153.07 257.103 153.342ZM279.935 144.478C279.391 145.998 278.447 147.454 277.359 148.414C277.631 148.574 278.079 148.958 278.255 149.166C279.375 148.094 280.415 146.462 281.039 144.75L279.935 144.478ZM279.903 148.878C279.471 149.998 278.735 151.102 277.887 151.854C278.143 152.03 278.607 152.366 278.783 152.558C279.631 151.726 280.495 150.446 281.023 149.182L279.903 148.878ZM279.743 145.966L279.327 147.006H286.687V145.966H279.743ZM284.351 149.294C285.119 150.302 285.967 151.678 286.319 152.574L287.343 152.03C286.975 151.15 286.127 149.822 285.311 148.846L284.351 149.294ZM286.335 145.966V146.126C286.047 146.942 285.583 147.95 285.215 148.574L286.255 148.798C286.639 148.142 287.151 147.054 287.551 146.126L286.735 145.918L286.527 145.966H286.335ZM276.831 144.414C275.935 146.19 274.479 147.966 272.991 149.086C273.231 149.31 273.631 149.79 273.791 150.03C275.311 148.75 276.895 146.766 277.919 144.766L276.831 144.414ZM275.343 147.454V153.598H276.495V146.334L276.479 146.318L275.343 147.454ZM276.639 154.446V157.23C276.639 158.542 277.135 158.878 279.039 158.878C279.439 158.878 282.463 158.878 282.879 158.878C284.463 158.878 284.863 158.382 285.023 156.35C284.687 156.286 284.191 156.11 283.919 155.902C283.823 157.534 283.679 157.758 282.799 157.758C282.127 157.758 279.599 157.758 279.087 157.758C278.031 157.758 277.839 157.678 277.839 157.214V154.446H276.639ZM279.071 153.742C279.935 154.59 280.927 155.79 281.343 156.574L282.335 155.982C281.887 155.182 280.879 154.03 279.983 153.214L279.071 153.742ZM284.719 154.67C285.455 155.806 286.175 157.358 286.415 158.334L287.567 157.87C287.295 156.878 286.543 155.39 285.791 154.254L284.719 154.67ZM274.831 154.526C274.463 155.598 273.855 157.054 273.199 157.998L274.335 158.526C274.927 157.55 275.503 156.03 275.903 154.974L274.831 154.526ZM282.287 147.614V153.55H283.439V147.614H282.287ZM290.863 147.022V148.094H294.607V156.398H290.863V157.486H295.727V147.022H290.863ZM290.143 147.022V158.766H291.263V147.022H290.143ZM290.783 151.47V152.542H295.199V151.47H290.783ZM292.591 144.414C292.463 145.246 292.159 146.462 291.887 147.23L292.847 147.47C293.167 146.75 293.567 145.646 293.887 144.654L292.591 144.414ZM297.999 146.974V148.094H302.911V146.974H297.999ZM302.495 146.974V147.23C302.271 154.286 302.015 156.942 301.487 157.518C301.311 157.726 301.119 157.774 300.799 157.774C300.431 157.774 299.471 157.758 298.431 157.678C298.655 157.998 298.799 158.494 298.831 158.846C299.727 158.894 300.671 158.926 301.215 158.862C301.775 158.814 302.143 158.67 302.495 158.206C303.135 157.422 303.359 154.942 303.615 147.598C303.615 147.422 303.615 146.974 303.615 146.974H302.495ZM298.335 144.382C297.823 146.606 296.943 148.814 295.855 150.222C296.143 150.382 296.639 150.718 296.847 150.91C297.951 149.39 298.895 147.038 299.487 144.654L298.335 144.382ZM297.599 151.134C298.479 152.302 299.551 153.886 300.031 154.862L301.055 154.222C300.543 153.278 299.439 151.726 298.527 150.59L297.599 151.134ZM309.807 148.926V156.846C309.807 158.446 310.303 158.878 312.047 158.878C312.399 158.878 314.879 158.878 315.279 158.878C317.071 158.878 317.455 157.982 317.615 154.942C317.295 154.846 316.767 154.638 316.479 154.414C316.351 157.182 316.207 157.742 315.215 157.742C314.655 157.742 312.575 157.742 312.143 157.742C311.231 157.742 311.039 157.598 311.039 156.862V148.926H309.807ZM307.247 150.11C307.007 152.014 306.479 154.526 305.791 156.174L306.991 156.686C307.647 154.958 308.143 152.238 308.399 150.35L307.247 150.11ZM317.263 150.126C318.159 152.03 319.039 154.558 319.343 156.206L320.543 155.742C320.191 154.078 319.295 151.614 318.367 149.71L317.263 150.126ZM310.559 145.806C312.079 146.878 313.967 148.462 314.847 149.454L315.711 148.558C314.783 147.55 312.863 146.046 311.375 145.022L310.559 145.806ZM329.007 149.262H334.959V151.326H329.007V149.262ZM329.007 146.238H334.959V148.27H329.007V146.238ZM327.919 145.198V152.366H336.111V145.198H327.919ZM327.711 154.238V155.342H336.335V154.238H327.711ZM326.479 157.55V158.638H336.863V157.55H326.479ZM322.127 145.534V146.67H327.119V145.534H322.127ZM322.303 150.158V151.294H326.895V150.158H322.303ZM321.967 156.286L322.255 157.518C323.679 157.038 325.503 156.43 327.247 155.838L327.039 154.686C325.183 155.31 323.263 155.934 321.967 156.286ZM324.127 145.982V156.126L325.279 155.902V145.982H324.127ZM331.455 145.694V151.854H331.375V158.046H332.591V151.854H332.511V145.694H331.455ZM341.119 144.478C340.495 146.846 339.487 149.166 338.255 150.702C338.447 151.006 338.767 151.646 338.863 151.934C340.255 150.126 341.471 147.422 342.223 144.766L341.119 144.478ZM340.047 148.59V159.134H341.119V147.55L341.103 147.534L340.047 148.59ZM348.303 144.51V157.406H349.327V144.51H348.303ZM345.567 147.918V148.862H353.103V147.918H345.567ZM345.615 154.478V155.454H352.735V154.478H345.615ZM346.031 152.286V153.23H352.223V152.286H346.031ZM342.239 145.614V146.67H344.943V145.614H342.239ZM342.751 152.702L341.871 153.038C343.343 158.11 346.383 158.958 350.127 158.958H352.719C352.783 158.654 352.959 158.158 353.119 157.902C352.479 157.918 350.655 157.918 350.175 157.918C346.927 157.902 343.983 157.214 342.751 152.702ZM346.271 145.79V146.67H351.007V150.158H346.271V151.07H351.951V145.79H346.271ZM342.927 150.302L342.591 151.278H344.863V150.302H342.927ZM344.607 150.302V150.526C344.271 154.622 343.167 157.102 341.295 158.398C341.519 158.558 341.935 158.942 342.111 159.166C344.031 157.742 345.247 154.99 345.663 150.446L345.023 150.286L344.831 150.302H344.607ZM342.319 151.678C342.319 151.422 343.151 151.086 343.151 151.086V151.07C344.047 149.758 345.007 147.854 345.823 145.918L345.103 145.438L344.687 145.63V145.71C344.127 147.454 343.087 149.294 342.799 149.79C342.495 150.286 342.095 150.702 341.839 150.766C341.983 151.006 342.223 151.438 342.319 151.678ZM43.4933 179.254V180.166H53.3013V179.254H43.4933ZM44.2613 177.142V178.022H52.6933V181.462H44.1173V182.342H53.8293V177.142H44.2613ZM48.3733 175.702V186.806C48.3733 187.062 48.2933 187.142 48.0053 187.158C47.7333 187.174 46.7413 187.19 45.7653 187.142C45.9413 187.446 46.1013 187.878 46.1653 188.182C47.4933 188.182 48.3573 188.166 48.8853 188.006C49.3973 187.83 49.5893 187.542 49.5893 186.806V175.702H48.3733ZM43.9253 183.126C44.7413 183.622 45.7653 184.374 46.2773 184.838L46.9813 184.102C46.4373 183.638 45.3973 182.934 44.5973 182.454L43.9253 183.126ZM53.4133 182.55C52.7093 183.19 51.4773 184.102 50.5813 184.614L51.3013 185.238C52.1973 184.758 53.3813 183.974 54.3093 183.254L53.4133 182.55ZM43.0613 186.214L43.5413 187.206C45.0293 186.566 46.9813 185.718 48.8053 184.902L48.5973 184.038C46.5813 184.87 44.4373 185.718 43.0613 186.214ZM42.5333 174.87V175.926H55.2373V174.87H42.5333ZM41.9573 174.87V179.606C41.9573 181.942 41.8453 185.222 40.5653 187.526C40.8373 187.638 41.3333 187.958 41.5413 188.166C42.8853 185.734 43.0933 182.102 43.0933 179.606V174.87H41.9573ZM47.5733 173.638C47.9573 174.23 48.4053 175.046 48.6133 175.558L49.8133 175.142C49.6053 174.646 49.1413 173.878 48.7413 173.302L47.5733 173.638ZM53.2693 179.174V180.23H55.4133V179.174H53.2693ZM48.8693 184.806C50.7733 185.542 53.2693 186.678 54.5493 187.43L55.0773 186.55C53.7813 185.83 51.2533 184.726 49.3973 184.038L48.8693 184.806ZM63.0773 183.878C64.7573 183.302 65.8453 181.99 65.8453 180.262C65.8453 179.142 65.3653 178.406 64.4693 178.406C63.8293 178.406 63.2533 178.806 63.2533 179.558C63.2533 180.31 63.7973 180.71 64.4533 180.71C64.7573 180.71 65.0773 180.63 65.3013 180.342L64.4373 179.126L64.7413 180.47C64.7413 181.686 64.0213 182.502 62.7093 183.03L63.0773 183.878ZM81.4933 176.566V177.702H87.9893V176.566H81.4933ZM81.9413 173.446C81.4773 176.246 80.6293 178.854 79.2533 180.486C79.5093 180.71 79.9413 181.238 80.1173 181.494C81.6213 179.606 82.6133 176.758 83.1573 173.654L81.9413 173.446ZM85.6853 177.142C84.9333 182.134 83.2533 185.398 79.5253 187.206C79.7813 187.446 80.1493 187.942 80.2933 188.198C84.1653 186.102 85.9733 182.662 86.8693 177.302L85.6853 177.142ZM81.9413 177.574L80.9493 177.798C82.0213 182.422 83.9893 186.294 87.2853 188.102C87.4773 187.798 87.8613 187.366 88.1333 187.126C84.9173 185.542 82.9173 181.83 81.9413 177.574ZM77.8773 173.686V188.182H79.0773V173.686H77.8773ZM74.1813 185.286C74.5173 185.03 75.0293 184.758 78.7253 183.446C78.6293 183.19 78.4853 182.726 78.4373 182.406L74.5973 183.654L74.0533 184.15L74.1813 185.286ZM74.1813 185.286C74.1813 184.854 75.4133 184.182 75.4133 184.182V175.238H74.2453V183.11C74.2453 183.734 73.9093 184.054 73.6853 184.198C73.8613 184.454 74.0853 184.998 74.1813 185.286ZM99.6053 177.894V182.646H100.661V177.894H99.6053ZM96.4053 177.478V178.262H103.957V177.478H96.4053ZM96.6933 179.046V179.75H103.509V179.046H96.6933ZM96.6933 180.566V181.286H103.509V180.566H96.6933ZM95.2693 183.67V184.582H102.885V183.67H95.2693ZM96.7573 176.214C96.2613 177.318 95.4293 178.39 94.5173 179.126C94.7413 179.302 95.1253 179.702 95.2853 179.894C96.2293 179.062 97.1893 177.798 97.7653 176.502L96.7573 176.214ZM102.629 183.67V183.862C101.237 185.718 97.8133 186.774 94.4053 187.19C94.5973 187.398 94.8693 187.878 94.9493 188.15C98.4693 187.59 102.053 186.438 103.765 184.118L103.077 183.638L102.869 183.67H102.629ZM96.9653 184.374L95.9733 184.79C97.6053 186.566 100.629 187.686 103.733 188.134C103.877 187.83 104.181 187.398 104.421 187.158C101.381 186.806 98.3893 185.862 96.9653 184.374ZM97.8133 173.462V176.582H98.8533V173.462H97.8133ZM100.597 173.462V176.614H101.653V173.462H100.597ZM95.0453 174.646V175.574H98.3733V174.646H95.0453ZM98.8853 176.502C99.2853 176.902 99.7653 177.494 99.9893 177.878L100.869 177.318C100.629 176.95 100.149 176.422 99.7173 176.038L98.8853 176.502ZM96.2133 182.118V182.918H104.149V182.118H96.2133ZM95.9893 177.958V183.35H97.0293V177.958H95.9893ZM92.1813 174.694V188.182H93.2853V174.694H92.1813ZM89.7653 178.038V179.174H95.0933V178.038H89.7653ZM92.1973 178.47C91.6533 180.454 90.5013 182.934 89.4453 184.23C89.6213 184.534 89.9253 185.03 90.0373 185.382C91.1733 183.91 92.3253 181.078 92.9173 178.79L92.1973 178.47ZM94.4213 173.59C93.3173 174.118 91.4293 174.582 89.8293 174.87C89.9413 175.142 90.1013 175.558 90.1653 175.83C91.8133 175.574 93.7653 175.158 95.1253 174.566L94.4213 173.59ZM93.1733 180.086L92.6773 180.598C93.1413 181.222 94.2933 182.822 94.6613 183.542L95.3333 182.534C95.0133 182.134 93.5733 180.486 93.1733 180.086ZM101.013 174.63V175.542H104.213V174.63H101.013ZM107.797 175.158V176.23H118.917V175.158H107.797ZM106.133 178.054V179.11H120.597V178.054H106.133ZM106.549 184.39V185.446H120.133V184.39H106.549ZM112.677 173.462V178.518H113.909V173.462H112.677ZM112.677 182.358V188.182H113.909V182.358H112.677ZM109.173 179.43C109.573 180.102 109.989 180.982 110.133 181.558L111.317 181.158C111.157 180.614 110.725 179.734 110.325 179.094L109.173 179.43ZM116.373 179.126C116.085 179.878 115.557 180.982 115.109 181.686L116.085 181.99C116.549 181.35 117.157 180.342 117.653 179.462L116.373 179.126ZM107.429 181.446V182.502H119.381V181.446H107.429ZM123.781 173.958C124.229 174.694 124.773 175.686 125.029 176.294L125.989 175.814C125.749 175.222 125.205 174.278 124.741 173.558L123.781 173.958ZM131.813 181.67V187.078H132.901V181.67H131.813ZM130.197 177.318H134.773V179.094H130.197V177.318ZM129.109 176.358V180.054H135.893V176.358H129.109ZM128.277 181.094V188.166H129.397V182.102H135.477V188.118H136.629V181.094H128.277ZM128.933 183.766V184.71H136.021V183.766H128.933ZM128.949 186.422V187.414H136.021V186.422H128.949ZM128.213 174.23V175.27H136.725V174.23H128.213ZM122.549 176.454V177.558H127.381V176.454H122.549ZM126.037 180.086L125.349 180.694C125.861 181.19 127.125 182.502 127.589 183.094L128.293 182.118C127.941 181.766 126.469 180.406 126.037 180.086ZM126.949 176.454V176.71C126.053 179.126 123.957 181.558 121.957 182.854C122.165 183.062 122.469 183.622 122.581 183.926C124.709 182.438 126.981 179.75 128.085 176.838L127.413 176.406L127.205 176.454H126.949ZM124.741 181.27V188.15H125.909V179.83L124.741 181.27ZM141.413 179.254V180.166H151.221V179.254H141.413ZM142.181 177.142V178.022H150.613V181.462H142.037V182.342H151.749V177.142H142.181ZM146.293 175.702V186.806C146.293 187.062 146.213 187.142 145.925 187.158C145.653 187.174 144.661 187.19 143.685 187.142C143.861 187.446 144.021 187.878 144.085 188.182C145.413 188.182 146.277 188.166 146.805 188.006C147.317 187.83 147.509 187.542 147.509 186.806V175.702H146.293ZM141.845 183.126C142.661 183.622 143.685 184.374 144.197 184.838L144.901 184.102C144.357 183.638 143.317 182.934 142.517 182.454L141.845 183.126ZM151.333 182.55C150.629 183.19 149.397 184.102 148.501 184.614L149.221 185.238C150.117 184.758 151.301 183.974 152.229 183.254L151.333 182.55ZM140.981 186.214L141.461 187.206C142.949 186.566 144.901 185.718 146.725 184.902L146.517 184.038C144.501 184.87 142.357 185.718 140.981 186.214ZM140.453 174.87V175.926H153.157V174.87H140.453ZM139.877 174.87V179.606C139.877 181.942 139.765 185.222 138.485 187.526C138.757 187.638 139.253 187.958 139.461 188.166C140.805 185.734 141.013 182.102 141.013 179.606V174.87H139.877ZM145.493 173.638C145.877 174.23 146.325 175.046 146.533 175.558L147.733 175.142C147.525 174.646 147.061 173.878 146.661 173.302L145.493 173.638ZM151.189 179.174V180.23H153.333V179.174H151.189ZM146.789 184.806C148.693 185.542 151.189 186.678 152.469 187.43L152.997 186.55C151.701 185.83 149.173 184.726 147.317 184.038L146.789 184.806ZM155.141 182.438V183.478H169.461V182.438H155.141ZM161.701 181.478V188.15H162.901V181.478H161.701ZM161.269 178.454H163.333V180.134H161.269V178.454ZM161.269 175.91H163.333V177.558H161.269V175.91ZM160.213 174.982V181.062H164.421V174.982H160.213ZM161.845 173.382C161.781 173.926 161.605 174.758 161.429 175.302L162.261 175.51C162.469 175.03 162.725 174.278 162.981 173.59L161.845 173.382ZM167.893 179.11C168.165 179.91 168.469 180.95 168.581 181.654L169.445 181.366C169.301 180.694 168.997 179.67 168.693 178.87L167.893 179.11ZM158.501 178.79C158.725 179.654 158.981 180.758 159.061 181.51L159.925 181.27C159.829 180.55 159.589 179.446 159.333 178.598L158.501 178.79ZM155.685 178.166C155.685 177.942 156.341 177.638 156.341 177.638V177.606C157.045 176.678 157.813 175.27 158.357 173.91L157.381 173.558C156.997 174.854 156.229 176.23 156.005 176.566C155.781 176.934 155.573 177.174 155.365 177.222C155.477 177.478 155.621 177.958 155.685 178.166ZM155.685 178.166C155.893 178.054 156.293 177.974 158.373 177.702C158.373 177.51 158.389 177.158 158.437 176.902L156.165 177.126L155.669 177.43L155.685 178.166ZM155.653 181.318C155.653 181.11 156.261 180.806 156.261 180.806V180.774C157.509 179.494 158.789 177.686 159.797 175.878L158.901 175.398C158.085 177.158 156.725 179.03 156.325 179.494C155.925 179.974 155.621 180.31 155.333 180.374C155.461 180.63 155.621 181.11 155.653 181.318ZM155.653 181.318C155.925 181.19 156.373 181.078 159.413 180.662C159.397 180.47 159.413 180.102 159.445 179.846L156.149 180.262L155.637 180.582L155.653 181.318ZM164.965 178.326C164.965 178.102 165.621 177.782 165.621 177.782V177.75C166.357 176.774 167.141 175.302 167.701 173.878L166.709 173.542C166.293 174.886 165.525 176.326 165.285 176.678C165.061 177.046 164.853 177.334 164.645 177.366C164.757 177.622 164.917 178.118 164.965 178.326ZM164.965 178.326C165.205 178.214 165.605 178.118 167.973 177.814C167.989 177.606 168.005 177.222 168.053 176.966L165.445 177.254L164.949 177.558L164.965 178.326ZM165.141 181.494C165.141 181.27 165.765 180.966 165.765 180.966V180.934C167.013 179.67 168.293 177.846 169.317 176.054L168.389 175.558C167.573 177.318 166.197 179.158 165.797 179.638C165.413 180.134 165.093 180.454 164.821 180.518C164.933 180.774 165.093 181.286 165.141 181.494ZM165.141 181.494C165.397 181.366 165.861 181.27 168.901 180.886C168.885 180.694 168.917 180.326 168.965 180.07L165.653 180.422L165.109 180.742L165.141 181.494ZM159.861 184.006C158.789 185.142 156.677 186.182 154.821 186.646C155.093 186.87 155.445 187.318 155.621 187.638C157.525 187.046 159.685 185.814 160.869 184.406L159.861 184.006ZM163.941 184.662C165.589 185.542 167.669 186.854 168.677 187.734L169.429 186.838C168.373 185.974 166.261 184.71 164.645 183.894L163.941 184.662ZM178.677 178.39C177.333 178.39 176.229 179.478 176.229 180.822C176.229 182.182 177.333 183.27 178.677 183.27C180.021 183.27 181.109 182.182 181.109 180.822C181.109 179.478 180.021 178.39 178.677 178.39ZM178.677 182.454C177.781 182.454 177.045 181.734 177.045 180.822C177.045 179.942 177.781 179.206 178.677 179.206C179.573 179.206 180.293 179.942 180.293 180.822C180.293 181.734 179.573 182.454 178.677 182.454Z" fill="#575757"/>
<line x1="114" y1="93" x2="283" y2="93" stroke="#FF715C" stroke-width="2"/>
<path d="M58.3063 364.479C81.4463 359.857 191.362 325.579 243.427 309.017L297.806 359.857L185.577 447.672C167.99 446.748 155.109 426.489 150.867 416.475C136.982 414.934 120.101 415.319 109.214 406.076C104.807 402.333 105.06 385.277 90.7023 384.122C80.0698 383.266 29.3812 370.256 58.3063 364.479Z" fill="#74CADD"/>
<rect x="159.858" y="285.672" width="136.533" height="132.288" rx="66.1442" fill="#FF715C"/>
<rect x="237.675" y="321.043" width="9.90394" height="16.2708" rx="4.95197" fill="#002B51"/>
<rect x="268.802" y="323.166" width="9.19651" height="16.9782" rx="4.59826" fill="#002B51"/>
<path d="M276.1 352.262C257.879 350.608 244.206 347.223 234.753 344.87C227.191 358.987 238.958 368.649 249.092 369.91C268.742 372.354 272.949 359.713 276.1 352.262Z" fill="#002B51"/>
<path d="M242.857 364.253C246.244 360.83 254.841 356.219 262.129 365.159C259.326 367.522 248.744 369.568 242.857 364.253Z" fill="#FF715C"/>
<path d="M132.743 321.052L162.334 341.912L186.41 324.021L160.57 306.202L172.497 294.322C180.447 301.252 187.404 296.302 191.379 287.392C195.355 278.482 192.373 271.552 183.429 265.613C176.273 260.861 165.208 266.273 160.57 269.572L133.737 296.302C122.606 307.39 128.436 317.422 132.743 321.052Z" fill="#FF715C"/>
<path d="M189.951 283.894C190.141 284.465 190.758 284.774 191.329 284.584C191.9 284.393 192.209 283.776 192.018 283.205L189.951 283.894ZM185.545 278.158C186.903 278.837 188.968 280.947 189.951 283.894L192.018 283.205C190.879 279.786 188.463 277.18 186.52 276.208L185.545 278.158Z" fill="#002B51"/>
<path d="M187.121 290.261C187.312 290.832 187.929 291.141 188.5 290.95C189.071 290.76 189.379 290.143 189.189 289.572L187.121 290.261ZM182.716 284.524C184.074 285.203 186.139 287.313 187.121 290.261L189.189 289.572C188.049 286.153 185.634 283.547 183.69 282.575L182.716 284.524Z" fill="#002B51"/>
<path d="M172.592 287.441C173.535 288.502 175.987 290.695 178.251 290.978" stroke="#002B51" stroke-width="2.17925" stroke-linecap="round"/>
<path d="M175.068 289.917C173.299 289.917 171.531 292.039 171.885 293.454" stroke="#002B51" stroke-width="2.17925" stroke-linecap="round"/>
<path d="M362.709 320.871L290.553 347.405L285.072 384.004L370.016 349.235C383.899 352.895 384.325 337.95 382.803 330.02C386.457 314.649 370.929 317.516 362.709 320.871Z" fill="#FF715C"/>
<path d="M372.086 324.227C371.378 325.524 368.548 327.835 362.889 326.703" stroke="#002B51" stroke-width="2.17925" stroke-linecap="round"/>
<path d="M97.6049 412.301C118.01 410.782 167.648 396.365 187.801 381.174L210.968 392.865C194.342 417.931 136.596 434.659 108.57 441.305C110.081 450.42 101.069 454.262 97.6049 453.629V412.301Z" fill="#FF715C"/>
<path d="M213.976 437.768L225.649 402.397L249.347 412.301C249.347 443.442 234.845 453.629 222.305 461.225L201.95 468.187L183.572 473.568C179.666 480.214 174.755 480.214 170.347 480.214L175.068 448.38L213.976 437.768Z" fill="#FF715C"/>
<line x1="119.259" y1="315.962" x2="58.1351" y2="335.634" stroke="#002B51" stroke-width="2.17925" stroke-linecap="round"/>
<path d="M88.1107 396.089L11 421.19" stroke="#002B51" stroke-width="2.17925" stroke-linecap="round"/>
<path d="M90.906 418.661L53.8586 432.463" stroke="#002B51" stroke-width="2.17925" stroke-linecap="round"/>
<path d="M167.401 456.971L119.599 477.671" stroke="#002B51" stroke-width="2.17925" stroke-linecap="round"/>
<path d="M377.175 300.547C369.12 301.443 361.538 301.002 357.827 300.565C357.319 300.505 356.897 300.964 357.011 301.462L362.48 325.392C362.544 325.671 362.766 325.888 363.048 325.936C368.434 326.847 371.861 324.497 373.023 323.067C373.087 322.987 373.13 322.893 373.152 322.793L377.975 301.435C378.086 300.944 377.675 300.492 377.175 300.547Z" fill="#D9D9D9"/>
<path d="M367.573 357.651L364.502 340.929C364.443 340.605 364.609 340.281 364.907 340.141L369.707 337.882C370.143 337.677 370.654 337.944 370.733 338.419L370.877 339.284C370.916 339.515 370.84 339.751 370.674 339.917L368.209 342.382C368.095 342.496 368.022 342.645 368.002 342.805L367.714 345.111C367.686 345.334 367.763 345.556 367.921 345.715L369.955 347.749C370.117 347.911 370.193 348.139 370.161 348.366L368.838 357.626C368.793 357.941 368.523 358.176 368.204 358.176C367.894 358.176 367.629 357.955 367.573 357.651Z" fill="#D9D9D9"/>
<path d="M325.901 290.983C332.293 299.7 349.146 300.91 356.774 300.426H377.202C377.379 300.426 377.555 300.357 377.687 300.239C395.919 283.981 385.416 270.795 381.109 261.2C373.118 243.402 359.679 245.582 367.307 255.025C374.084 263.417 378.453 267.011 347.693 252.846C320.09 240.134 280.5 257.763 307.014 265.921C318.346 269.408 328.928 276.091 332.802 278.997C321.543 271.369 316.721 273.17 310.646 274.275C302.656 275.728 292.123 275.365 297.934 280.45C301.203 283.31 319.509 282.266 325.901 290.983Z" fill="#FFC43D"/>
<path d="M334.981 285.171C328.589 286.043 347.573 295.704 357.863 300.426C359.86 301.356 369.951 301.307 375.017 301.161C375.2 301.155 375.376 301.076 375.505 300.947C395.132 281.403 374.864 261.962 375.297 267.374C375.944 275.462 374.574 279.804 372.727 283.736C372.462 284.301 371.644 284.251 371.389 283.682C358.417 254.702 331.808 266.689 337.524 269.19C343.335 271.733 356.774 288.44 351.326 285.171C345.878 281.902 342.972 284.082 334.981 285.171Z" fill="#FF715C"/>
<path d="M364.764 327.303C367.948 327.657 369.609 330.24 369.963 334.838C369.963 336.371 369.715 338.322 367.487 339.436C365.365 340.497 363.03 339.861 362.181 337.314C361.238 339.908 355.744 345.449 351.216 341.205" stroke="#002B51" stroke-width="2.17925" stroke-linecap="round"/>
<path d="M381.989 338.729C380.81 340.144 376.684 341.488 371.024 339.79" stroke="#002B51" stroke-width="2.17925" stroke-linecap="round"/>
<path d="M368.511 342.266C367.686 343.799 366.955 347.147 370.634 348.279" stroke="#002B51" stroke-width="2.17925" stroke-linecap="round"/>
<path d="M381.636 329.179C380.221 330.829 376.472 333.635 371.378 333.069" stroke="#002B51" stroke-width="2.17925" stroke-linecap="round"/>
<line x1="284.814" y1="248.4" x2="280.303" y2="246.303" stroke="#FFC43D" stroke-width="2.17925" stroke-linecap="round"/>
<line x1="303.492" y1="236.273" x2="297.112" y2="230.476" stroke="#FFC43D" stroke-width="2.17925" stroke-linecap="round"/>
<line x1="364.169" y1="239.704" x2="363.245" y2="236.007" stroke="#FFC43D" stroke-width="2.17925" stroke-linecap="round"/>
<line x1="330.377" y1="243.149" x2="327.47" y2="239.112" stroke="#FF715C" stroke-width="2.17925" stroke-linecap="round"/>
<line x1="345.23" y1="232.535" x2="342.565" y2="224.374" stroke="#FF715C" stroke-width="2.17925" stroke-linecap="round"/>
<line x1="288.751" y1="271.255" x2="283.655" y2="270.746" stroke="#FF715C" stroke-width="2.17925" stroke-linecap="round"/>
</svg>
