<svg width="256" height="466" viewBox="0 0 256 466" fill="none" xmlns="http://www.w3.org/2000/svg">
<g filter="url(#filter0_d_465_1269)">
<path d="M9 22H181C203.091 22 221 39.9086 221 62V453H49C26.9086 453 9 435.091 9 413V22Z" fill="white"/>
</g>
<path d="M44.104 285.08V286.568H65.896V285.08H44.104ZM44.8 271.712V273.152H64.912V271.712H44.8ZM58.408 283.52V289.952C58.408 290.264 58.288 290.36 57.904 290.384C57.496 290.408 56.152 290.408 54.712 290.36C54.952 290.816 55.192 291.464 55.264 291.92C57.208 291.92 58.432 291.92 59.2 291.68C59.944 291.416 60.136 290.936 60.136 290V283.52H58.408ZM54.064 269.888V282.752H55.84V269.888H54.064ZM47.944 287.576C49.384 288.464 51.064 289.784 51.88 290.744L53.2 289.544C52.36 288.608 50.584 287.336 49.168 286.52L47.944 287.576ZM48.352 278.36H61.696V279.848H48.352V278.36ZM48.352 275.72H61.696V277.184H48.352V275.72ZM46.648 274.52V281.072H63.448V274.52H46.648ZM58.552 281.576C60.448 282.224 62.728 283.472 63.904 284.432L64.984 283.4C63.784 282.512 61.504 281.312 59.584 280.664L58.552 281.576ZM45.064 282.464L45.136 283.88C49.672 283.808 56.488 283.664 62.896 283.496L62.992 282.272C56.416 282.392 49.432 282.464 45.064 282.464ZM77.752 270.584C77.584 273.776 77.584 285.32 67.792 290.312C68.344 290.72 68.944 291.272 69.256 291.728C79.192 286.328 79.552 274.352 79.744 270.584H77.752ZM79.672 271.064L77.944 271.232C78.112 273.44 78.784 286.856 88.96 291.728C89.248 291.224 89.8 290.624 90.328 290.216C80.44 285.68 79.744 272.936 79.672 271.064ZM108.376 274.832C105.688 283.064 100.48 287.768 91.912 290.216C92.296 290.648 92.872 291.512 93.064 291.968C101.8 289.136 107.248 284.192 110.272 275.384L108.376 274.832ZM97.48 274.952L95.704 275.504C98.656 283.904 103.936 289.616 112.84 291.944C113.128 291.416 113.704 290.6 114.136 290.168C105.472 288.152 100.072 282.632 97.48 274.952ZM92.2 273.92V275.696H113.896V273.92H92.2ZM102.04 269.84V275H103.888V269.84H102.04ZM120.592 276.8V278.456H132.112V276.8H120.592ZM116.68 282.824V284.528H137.368V282.824H116.68ZM126.064 281.024V289.664C126.064 290 125.944 290.096 125.512 290.12C125.08 290.144 123.52 290.144 121.888 290.096C122.2 290.6 122.56 291.368 122.68 291.896C124.72 291.896 125.992 291.872 126.832 291.584C127.696 291.296 127.96 290.768 127.96 289.688V281.024H126.064ZM131.56 276.8V277.16C130.48 278.504 128.344 280.304 126.472 281.312C126.76 281.552 127.24 282.008 127.456 282.344C129.664 281.216 132.04 279.344 133.624 277.592L132.448 276.704L132.04 276.8H131.56ZM126.016 269.816V273.68H127.912V269.816H126.016ZM116.92 272.456V278.096H118.696V274.16H135.208V278.096H137.056V272.456H116.92ZM148.912 272.072V273.776H160.384V272.072H148.912ZM159.712 272.072V272.504C159.472 284.36 159.16 288.656 158.416 289.52C158.152 289.856 157.912 289.952 157.48 289.928C156.928 289.928 155.656 289.928 154.24 289.808C154.552 290.336 154.768 291.128 154.816 291.656C156.112 291.728 157.432 291.776 158.248 291.68C159.04 291.56 159.568 291.344 160.096 290.6C161.008 289.4 161.272 285.32 161.536 273.08C161.536 272.816 161.536 272.072 161.536 272.072H159.712ZM153.04 272.792C152.896 279.344 152.728 286.88 147.136 290.6C147.616 290.912 148.216 291.512 148.552 291.968C154.336 287.84 154.696 279.896 154.864 272.792H153.04ZM143.8 281.432V291.944H145.552V279.32L143.8 281.432ZM140.296 274.28V275.912H147.736V274.28H140.296ZM143.8 269.864V275.168H145.552V269.864H143.8ZM145.504 280.184L144.52 281.024C145.408 281.888 147.52 284.408 148.264 285.488L149.368 284.144C148.768 283.472 146.224 280.808 145.504 280.184ZM147.232 274.28V274.664C145.84 278.36 142.6 282.272 139.624 284.384C139.912 284.696 140.416 285.512 140.608 285.968C143.728 283.568 147.208 279.296 148.936 274.856L147.904 274.184L147.568 274.28H147.232ZM148.504 278.768C148.024 279.632 147.064 280.952 146.392 281.72L147.28 282.464C148 281.768 148.864 280.688 149.704 279.728L148.504 278.768ZM178.24 275.96C180.472 277.328 183.376 279.296 184.768 280.592L185.968 279.224C184.48 277.952 181.576 276.056 179.368 274.784L178.24 275.96ZM179.512 279.824H178.6V283.28C178.6 284.672 177.736 288.56 172.144 290.504C172.48 290.864 172.984 291.56 173.176 291.944C177.424 290.408 179.128 287.384 179.488 285.92C179.848 287.36 181.456 290.504 185.152 291.944C185.392 291.536 185.896 290.84 186.232 290.408C181.216 288.56 180.4 284.648 180.4 283.28V279.824H179.512ZM178.744 269.864C178.528 274.976 177.832 277.856 172.888 279.344C173.272 279.704 173.728 280.352 173.896 280.784C179.32 278.96 180.232 275.624 180.52 269.864H178.744ZM175.192 271.448C174.976 273.008 174.28 274.592 173.296 275.432L174.688 276.104C175.816 275.12 176.464 273.368 176.704 271.784L175.192 271.448ZM174.952 281.792C174.64 283.496 173.872 285.152 172.696 285.992L174.136 286.856C175.456 285.8 176.224 283.928 176.536 282.104L174.952 281.792ZM183.76 271.328C183.328 272.504 182.44 274.208 181.744 275.24L183.088 275.792C183.808 274.808 184.72 273.296 185.488 271.952L183.76 271.328ZM184.024 281.624C183.496 282.896 182.536 284.72 181.792 285.824L183.16 286.4C183.976 285.344 184.96 283.664 185.776 282.248L184.024 281.624ZM165.04 277.112V278.552H172.072V277.112H165.04ZM165.112 270.704V272.144H171.976V270.704H165.112ZM165.04 280.328V281.768H172.072V280.328H165.04ZM163.912 273.848V275.336H172.864V273.848H163.912ZM165.832 283.568V285.056H170.488V289.064H165.832V290.576H172.072V283.568H165.832ZM165.016 283.568V291.68H166.576V283.568H165.016Z" fill="#002B51"/>
<circle cx="115" cy="29" r="29" fill="#FFC43D"/>
<path d="M107.068 40V36.9545L115.148 29.0341C115.92 28.2538 116.564 27.5606 117.08 26.9545C117.595 26.3485 117.981 25.7614 118.239 25.1932C118.496 24.625 118.625 24.0189 118.625 23.375C118.625 22.6402 118.458 22.0114 118.125 21.4886C117.792 20.9583 117.333 20.5492 116.75 20.2614C116.167 19.9735 115.504 19.8295 114.761 19.8295C113.996 19.8295 113.326 19.9886 112.75 20.3068C112.174 20.6174 111.727 21.0606 111.409 21.6364C111.098 22.2121 110.943 22.8977 110.943 23.6932H106.932C106.932 22.2159 107.269 20.9318 107.943 19.8409C108.617 18.75 109.545 17.9053 110.727 17.3068C111.917 16.7083 113.28 16.4091 114.818 16.4091C116.379 16.4091 117.75 16.7008 118.932 17.2841C120.114 17.8674 121.03 18.6667 121.682 19.6818C122.341 20.697 122.67 21.8561 122.67 23.1591C122.67 24.0303 122.504 24.8864 122.17 25.7273C121.837 26.5682 121.25 27.5 120.409 28.5227C119.576 29.5455 118.405 30.7841 116.898 32.2386L112.886 36.3182V36.4773H123.023V40H107.068Z" fill="white"/>
<path d="M256 240.5L221 205V275L256 240.5Z" fill="#FFC43D"/>
<path d="M42.384 327.368V328.536H53.552V327.368H42.384ZM42.384 332.104V333.288H53.504V332.104H42.384ZM41.824 322.68V334.28H43.008V323.88H52.96V334.216H54.192V322.68H41.824ZM47.328 319.576V332.728H48.56V319.576H47.328ZM56.736 329.72V330.712H71.264V329.72H56.736ZM57.2 320.808V321.768H70.608V320.808H57.2ZM66.272 328.68V332.968C66.272 333.176 66.192 333.24 65.936 333.256C65.664 333.272 64.768 333.272 63.808 333.24C63.968 333.544 64.128 333.976 64.176 334.28C65.472 334.28 66.288 334.28 66.8 334.12C67.296 333.944 67.424 333.624 67.424 333V328.68H66.272ZM63.376 319.592V328.168H64.56V319.592H63.376ZM59.296 331.384C60.256 331.976 61.376 332.856 61.92 333.496L62.8 332.696C62.24 332.072 61.056 331.224 60.112 330.68L59.296 331.384ZM59.568 325.24H68.464V326.232H59.568V325.24ZM59.568 323.48H68.464V324.456H59.568V323.48ZM58.432 322.68V327.048H69.632V322.68H58.432ZM66.368 327.384C67.632 327.816 69.152 328.648 69.936 329.288L70.656 328.6C69.856 328.008 68.336 327.208 67.056 326.776L66.368 327.384ZM57.376 327.976L57.424 328.92C60.448 328.872 64.992 328.776 69.264 328.664L69.328 327.848C64.944 327.928 60.288 327.976 57.376 327.976ZM79.168 320.056C79.056 322.184 79.056 329.88 72.528 333.208C72.896 333.48 73.296 333.848 73.504 334.152C80.128 330.552 80.368 322.568 80.496 320.056H79.168ZM80.448 320.376L79.296 320.488C79.408 321.96 79.856 330.904 86.64 334.152C86.832 333.816 87.2 333.416 87.552 333.144C80.96 330.12 80.496 321.624 80.448 320.376ZM91.92 325.88H88.736V327H90.768V331.544H91.92V325.88ZM91.92 331.064H90.88C90.128 331.752 89.264 332.472 88.56 332.984L89.184 334.152C89.984 333.448 90.72 332.76 91.424 332.072C92.416 333.336 93.872 333.896 95.984 333.976C97.776 334.056 101.2 334.024 103.008 333.944C103.056 333.592 103.248 333.032 103.392 332.76C101.456 332.888 97.76 332.936 95.984 332.856C94.08 332.792 92.672 332.248 91.92 331.064ZM88.88 320.632C89.856 321.416 90.96 322.536 91.408 323.336L92.4 322.584C91.904 321.8 90.784 320.696 89.792 319.976L88.88 320.632ZM92.992 322.536V323.48H103.216V322.536H92.992ZM94.272 326.568V327.496H99.648V326.568H94.272ZM99.536 328.008V328.92H101.92V328.008H99.536ZM97.488 320.84V326.184H98.624V320.84H97.488ZM97.168 322.968C96.176 324.312 94.224 325.608 92.48 326.2C92.72 326.408 93.04 326.792 93.216 327.064C94.976 326.344 96.96 324.872 98.032 323.32L97.168 322.968ZM98.944 323.016L98.128 323.32C99.152 324.808 101.024 326.248 102.768 326.92C102.928 326.648 103.248 326.248 103.488 326.024C101.76 325.496 99.888 324.28 98.944 323.016ZM101.584 328.008V328.168C101.44 329.912 101.28 330.616 101.024 330.84C100.912 330.952 100.768 330.968 100.496 330.968C100.224 330.968 99.472 330.952 98.704 330.872C98.864 331.144 98.976 331.528 99.008 331.816C99.792 331.864 100.56 331.864 100.96 331.832C101.376 331.816 101.68 331.736 101.936 331.48C102.288 331.16 102.496 330.344 102.672 328.456C102.688 328.296 102.72 328.008 102.72 328.008H101.584ZM101.728 319.832C99.856 320.264 96.368 320.536 93.472 320.648C93.584 320.888 93.712 321.272 93.744 321.512C96.688 321.416 100.272 321.144 102.528 320.648L101.728 319.832ZM96.256 326.824C96.048 328.888 95.456 330.392 92.992 331.16C93.216 331.368 93.52 331.784 93.632 332.056C96.384 331.112 97.12 329.32 97.376 326.824H96.256ZM99.344 326.568C99.216 327.464 98.992 328.552 98.784 329.32L99.824 329.464C100.016 328.68 100.256 327.544 100.432 326.568H99.344ZM107.92 325.88H104.736V327H106.768V331.544H107.92V325.88ZM107.92 331.064H106.88C106.128 331.752 105.264 332.472 104.56 332.984L105.184 334.152C105.984 333.448 106.72 332.76 107.424 332.072C108.416 333.336 109.872 333.896 111.984 333.976C113.776 334.056 117.2 334.024 119.008 333.944C119.056 333.592 119.248 333.032 119.392 332.76C117.456 332.888 113.76 332.936 111.984 332.856C110.08 332.792 108.672 332.248 107.92 331.064ZM104.88 320.632C105.856 321.416 106.96 322.536 107.408 323.336L108.4 322.584C107.904 321.8 106.784 320.696 105.792 319.976L104.88 320.632ZM109.472 325.08V332.024H110.544V326.04H118.128V325.08H109.472ZM113.344 322.376V325.48H114.256V323.224H116.704V322.376H113.344ZM110.72 320.12V325.4H111.792V321.064H116.224V325.4H117.312V320.12H110.72ZM112.432 327.064V327.928H115.12V329.624H112.432V330.456H116.048V327.064H112.432ZM117.456 325.08V330.84C117.456 331 117.392 331.048 117.216 331.064C117.04 331.064 116.432 331.064 115.76 331.048C115.904 331.32 116.048 331.736 116.096 332.024C117.04 332.024 117.664 332.024 118.048 331.848C118.464 331.688 118.56 331.384 118.56 330.84V325.08H117.456ZM111.888 327.064V331.096H112.816V327.064H111.888ZM121.409 321.364H123.091L127.045 331.023H127.182L131.136 321.364H132.818V333H131.5V324.159H131.386L127.75 333H126.477L122.841 324.159H122.727V333H121.409V321.364ZM139.007 333.182C138.219 333.182 137.528 332.994 136.933 332.619C136.342 332.244 135.88 331.72 135.547 331.045C135.217 330.371 135.053 329.583 135.053 328.682C135.053 327.773 135.217 326.979 135.547 326.301C135.88 325.623 136.342 325.097 136.933 324.722C137.528 324.347 138.219 324.159 139.007 324.159C139.795 324.159 140.484 324.347 141.075 324.722C141.67 325.097 142.132 325.623 142.462 326.301C142.795 326.979 142.962 327.773 142.962 328.682C142.962 329.583 142.795 330.371 142.462 331.045C142.132 331.72 141.67 332.244 141.075 332.619C140.484 332.994 139.795 333.182 139.007 333.182ZM139.007 331.977C139.606 331.977 140.098 331.824 140.484 331.517C140.871 331.21 141.157 330.807 141.342 330.307C141.528 329.807 141.621 329.265 141.621 328.682C141.621 328.098 141.528 327.555 141.342 327.051C141.157 326.547 140.871 326.14 140.484 325.83C140.098 325.519 139.606 325.364 139.007 325.364C138.409 325.364 137.916 325.519 137.53 325.83C137.143 326.14 136.857 326.547 136.672 327.051C136.486 327.555 136.393 328.098 136.393 328.682C136.393 329.265 136.486 329.807 136.672 330.307C136.857 330.807 137.143 331.21 137.53 331.517C137.916 331.824 138.409 331.977 139.007 331.977ZM148.554 333.182C147.766 333.182 147.075 332.994 146.48 332.619C145.889 332.244 145.427 331.72 145.094 331.045C144.764 330.371 144.599 329.583 144.599 328.682C144.599 327.773 144.764 326.979 145.094 326.301C145.427 325.623 145.889 325.097 146.48 324.722C147.075 324.347 147.766 324.159 148.554 324.159C149.342 324.159 150.031 324.347 150.622 324.722C151.217 325.097 151.679 325.623 152.009 326.301C152.342 326.979 152.509 327.773 152.509 328.682C152.509 329.583 152.342 330.371 152.009 331.045C151.679 331.72 151.217 332.244 150.622 332.619C150.031 332.994 149.342 333.182 148.554 333.182ZM148.554 331.977C149.152 331.977 149.645 331.824 150.031 331.517C150.418 331.21 150.704 330.807 150.889 330.307C151.075 329.807 151.168 329.265 151.168 328.682C151.168 328.098 151.075 327.555 150.889 327.051C150.704 326.547 150.418 326.14 150.031 325.83C149.645 325.519 149.152 325.364 148.554 325.364C147.955 325.364 147.463 325.519 147.077 325.83C146.69 326.14 146.404 326.547 146.219 327.051C146.033 327.555 145.94 328.098 145.94 328.682C145.94 329.265 146.033 329.807 146.219 330.307C146.404 330.807 146.69 331.21 147.077 331.517C147.463 331.824 147.955 331.977 148.554 331.977ZM157.851 333.182C157.124 333.182 156.482 332.998 155.925 332.631C155.368 332.259 154.932 331.737 154.618 331.062C154.304 330.384 154.146 329.583 154.146 328.659C154.146 327.742 154.304 326.947 154.618 326.273C154.932 325.598 155.37 325.078 155.93 324.71C156.491 324.343 157.139 324.159 157.874 324.159C158.442 324.159 158.891 324.254 159.22 324.443C159.554 324.629 159.807 324.841 159.982 325.08C160.16 325.314 160.298 325.508 160.396 325.659H160.51V321.364H161.851V333H160.555V331.659H160.396C160.298 331.818 160.158 332.019 159.976 332.261C159.794 332.5 159.535 332.714 159.197 332.903C158.86 333.089 158.411 333.182 157.851 333.182ZM158.033 331.977C158.571 331.977 159.025 331.837 159.396 331.557C159.768 331.273 160.05 330.881 160.243 330.381C160.436 329.877 160.533 329.295 160.533 328.636C160.533 327.985 160.438 327.415 160.249 326.926C160.059 326.434 159.779 326.051 159.408 325.778C159.036 325.502 158.578 325.364 158.033 325.364C157.464 325.364 156.991 325.509 156.612 325.801C156.237 326.089 155.955 326.481 155.766 326.977C155.58 327.47 155.487 328.023 155.487 328.636C155.487 329.258 155.582 329.822 155.771 330.33C155.964 330.833 156.249 331.235 156.624 331.534C157.002 331.83 157.472 331.977 158.033 331.977ZM164.493 333V324.273H165.834V333H164.493ZM165.175 322.818C164.913 322.818 164.688 322.729 164.499 322.551C164.313 322.373 164.22 322.159 164.22 321.909C164.22 321.659 164.313 321.445 164.499 321.267C164.688 321.089 164.913 321 165.175 321C165.436 321 165.66 321.089 165.845 321.267C166.035 321.445 166.129 321.659 166.129 321.909C166.129 322.159 166.035 322.373 165.845 322.551C165.66 322.729 165.436 322.818 165.175 322.818ZM169.631 327.75V333H168.29V324.273H169.585V325.636H169.699C169.903 325.193 170.214 324.837 170.631 324.568C171.047 324.295 171.585 324.159 172.244 324.159C172.835 324.159 173.352 324.28 173.795 324.523C174.239 324.761 174.583 325.125 174.83 325.614C175.076 326.098 175.199 326.712 175.199 327.455V333H173.858V327.545C173.858 326.86 173.68 326.326 173.324 325.943C172.968 325.557 172.479 325.364 171.858 325.364C171.43 325.364 171.047 325.456 170.71 325.642C170.377 325.828 170.114 326.098 169.92 326.455C169.727 326.811 169.631 327.242 169.631 327.75ZM181.172 336.455C180.524 336.455 179.967 336.371 179.501 336.205C179.036 336.042 178.647 335.826 178.337 335.557C178.03 335.292 177.786 335.008 177.604 334.705L178.672 333.955C178.793 334.114 178.946 334.295 179.132 334.5C179.318 334.708 179.571 334.888 179.893 335.04C180.219 335.195 180.645 335.273 181.172 335.273C181.876 335.273 182.458 335.102 182.916 334.761C183.375 334.42 183.604 333.886 183.604 333.159V331.386H183.49C183.392 331.545 183.251 331.742 183.07 331.977C182.892 332.208 182.634 332.415 182.297 332.597C181.964 332.775 181.513 332.864 180.945 332.864C180.24 332.864 179.607 332.697 179.047 332.364C178.49 332.03 178.049 331.545 177.723 330.909C177.401 330.273 177.24 329.5 177.24 328.591C177.24 327.697 177.397 326.919 177.712 326.256C178.026 325.589 178.464 325.074 179.024 324.71C179.585 324.343 180.232 324.159 180.967 324.159C181.536 324.159 181.986 324.254 182.32 324.443C182.657 324.629 182.914 324.841 183.092 325.08C183.274 325.314 183.414 325.508 183.513 325.659H183.649V324.273H184.945V333.25C184.945 334 184.774 334.61 184.433 335.08C184.096 335.553 183.642 335.9 183.07 336.119C182.501 336.343 181.869 336.455 181.172 336.455ZM181.126 331.659C181.664 331.659 182.119 331.536 182.49 331.29C182.861 331.044 183.143 330.689 183.337 330.227C183.53 329.765 183.626 329.212 183.626 328.568C183.626 327.939 183.532 327.384 183.342 326.903C183.153 326.422 182.873 326.045 182.501 325.773C182.13 325.5 181.672 325.364 181.126 325.364C180.558 325.364 180.085 325.508 179.706 325.795C179.331 326.083 179.049 326.47 178.859 326.955C178.674 327.439 178.581 327.977 178.581 328.568C178.581 329.174 178.676 329.71 178.865 330.176C179.058 330.638 179.342 331.002 179.717 331.267C180.096 331.528 180.566 331.659 181.126 331.659ZM50.304 355.072C48.832 359.12 45.472 361.2 40.624 362.208C40.88 362.496 41.264 363.04 41.392 363.344C46.304 362.112 49.824 359.888 51.584 355.424L50.304 355.072ZM45.088 352.32C44.112 353.68 42.416 355.008 40.848 355.84C41.152 356.064 41.616 356.544 41.824 356.8C43.376 355.824 45.168 354.32 46.304 352.784L45.088 352.32ZM45.728 355.152L44.592 355.504C46.304 359.76 49.52 362.32 54.624 363.296C54.8 362.96 55.152 362.416 55.424 362.144C50.464 361.328 47.216 358.944 45.728 355.152ZM40.976 350.656V351.824H55.024V350.656H40.976ZM47.344 348.544V351.408H48.576V348.544H47.344ZM49.872 352.992C51.408 354.032 53.264 355.584 54.128 356.64L55.168 355.808C54.256 354.752 52.368 353.264 50.864 352.256L49.872 352.992ZM61.024 350.656V351.744H71.216V350.656H61.024ZM65.28 348.576V351.184H66.496V348.576H65.28ZM65.28 356.24V362.592H66.352V356.24H65.28ZM62.464 356.144V357.792C62.464 359.296 62.256 361.104 60.304 362.464C60.576 362.656 60.976 363.024 61.152 363.264C63.312 361.696 63.568 359.616 63.568 357.824V356.144H62.464ZM64.56 351.248C64.176 352.272 63.472 353.744 62.88 354.656L63.84 355.008C64.448 354.144 65.2 352.784 65.808 351.632L64.56 351.248ZM67.36 352.816C68.496 353.808 69.76 355.264 70.304 356.224L71.296 355.632C70.72 354.656 69.44 353.264 68.288 352.288L67.36 352.816ZM61.232 354.368L61.36 355.52C63.552 355.424 66.704 355.264 69.712 355.088L69.744 354.08C66.608 354.192 63.312 354.32 61.232 354.368ZM57.44 349.568C58.464 350.048 59.696 350.816 60.304 351.392L60.992 350.416C60.384 349.856 59.12 349.136 58.112 348.704L57.44 349.568ZM56.592 353.92C57.632 354.352 58.896 355.072 59.52 355.616L60.208 354.624C59.568 354.096 58.272 353.408 57.248 353.024L56.592 353.92ZM57.072 362.288L58.112 363.056C58.992 361.568 60.048 359.536 60.832 357.84L59.92 357.104C59.056 358.928 57.888 361.056 57.072 362.288ZM68.112 356.144V361.312C68.112 362.288 68.192 362.544 68.432 362.768C68.656 362.96 69.008 363.04 69.312 363.04C69.488 363.04 69.904 363.04 70.112 363.04C70.368 363.04 70.688 362.976 70.864 362.864C71.088 362.736 71.216 362.544 71.296 362.24C71.392 361.952 71.44 361.104 71.456 360.4C71.168 360.304 70.816 360.128 70.608 359.952C70.592 360.72 70.576 361.296 70.544 361.568C70.512 361.824 70.464 361.936 70.384 361.984C70.32 362.048 70.176 362.064 70.048 362.064C69.904 362.064 69.696 362.064 69.584 362.064C69.488 362.064 69.376 362.048 69.328 362C69.248 361.92 69.232 361.76 69.232 361.44V356.144H68.112ZM76.288 358.944C75.392 360.128 73.952 361.36 72.608 362.128C72.928 362.32 73.44 362.72 73.68 362.96C74.976 362.08 76.496 360.72 77.52 359.408L76.288 358.944ZM82.256 359.552C83.648 360.56 85.36 362.016 86.176 362.928L87.232 362.176C86.352 361.264 84.592 359.856 83.232 358.88L82.256 359.552ZM74.064 353.184C75.536 354.048 77.312 355.36 78.144 356.272L79.024 355.408C78.144 354.496 76.336 353.248 74.896 352.448L74.064 353.184ZM82.432 355.232C83.84 356.4 85.52 358.064 86.272 359.152L87.344 358.448C86.512 357.344 84.8 355.728 83.392 354.608L82.432 355.232ZM79.328 357.472V363.296H80.592V357.472H79.328ZM72.88 357.008L73.008 358.208C76.176 358.144 81.024 358.032 85.584 357.872L85.648 356.8C81.008 356.896 75.984 356.992 72.88 357.008ZM82.672 351.2C80.992 353.152 78.208 355.696 76.064 357.2L76.992 357.808C79.104 356.304 81.872 353.888 83.824 351.808L82.672 351.2ZM78.528 350.112C77.792 351.184 76.512 352.64 75.552 353.504L76.496 354.032C77.472 353.184 78.736 351.856 79.68 350.704L78.528 350.112ZM85.2 348.8C82.448 349.344 77.52 349.68 73.392 349.808C73.504 350.096 73.648 350.576 73.68 350.88C77.84 350.784 82.832 350.448 86.08 349.824L85.2 348.8ZM98 348.56V351.152H99.216V348.56H98ZM97.088 351.392C96.784 352.512 96.176 354.112 95.664 355.072L96.672 355.408C97.2 354.48 97.84 352.992 98.368 351.76L97.088 351.392ZM99.824 352.88C100.816 354.048 101.888 355.632 102.352 356.64L103.36 356.064C102.88 355.056 101.76 353.504 100.752 352.384L99.824 352.88ZM94.352 350.688V351.776H103.104V350.688H94.352ZM94.416 354.784L94.528 355.904C96.464 355.776 99.248 355.584 101.904 355.392L101.92 354.336C99.152 354.528 96.288 354.704 94.416 354.784ZM99.456 356.48V361.648C99.456 362.832 99.728 363.184 100.816 363.184C101.04 363.184 101.984 363.184 102.208 363.184C103.168 363.184 103.456 362.64 103.552 360.544C103.248 360.48 102.768 360.288 102.528 360.08C102.48 361.84 102.416 362.096 102.096 362.096C101.888 362.096 101.152 362.096 100.992 362.096C100.656 362.096 100.592 362.048 100.592 361.648V356.48H99.456ZM91.12 348.576C90.704 349.632 89.968 351.168 89.36 352.08L90.192 352.464C90.816 351.584 91.568 350.16 92.176 348.992L91.12 348.576ZM92.912 350.4C92.064 352.128 90.56 354.56 89.376 356L90.112 356.416C91.296 355.008 92.832 352.688 93.92 350.848L92.912 350.4ZM88.592 351.936C89.456 352.704 90.464 353.824 90.896 354.576L91.536 353.664C91.104 352.944 90.096 351.904 89.2 351.152L88.592 351.936ZM92.352 354.112C92.992 355.168 93.584 356.576 93.808 357.472L94.704 357.056C94.48 356.176 93.84 354.8 93.184 353.776L92.352 354.112ZM88.544 355.744L88.64 356.832C90.096 356.736 92.032 356.624 93.952 356.496L93.968 355.504C91.936 355.616 89.936 355.696 88.544 355.744ZM92.768 357.888C93.168 358.816 93.6 360.048 93.744 360.848L94.672 360.528C94.512 359.728 94.08 358.512 93.632 357.616L92.768 357.888ZM89.44 357.712C89.248 359.12 88.928 360.544 88.4 361.52C88.656 361.632 89.136 361.856 89.344 361.984C89.856 360.96 90.256 359.408 90.48 357.904L89.44 357.712ZM91.168 356.192V363.328H92.24V356.192H91.168ZM96.496 356.496C96.368 359.6 95.984 361.456 93.424 362.464C93.664 362.672 93.984 363.072 94.128 363.344C96.976 362.16 97.504 360 97.648 356.496H96.496ZM110.608 350.048V351.184H118.256V350.048H110.608ZM117.808 350.048V350.336C117.648 358.24 117.44 361.104 116.944 361.68C116.768 361.904 116.608 361.968 116.32 361.952C115.952 361.952 115.104 361.952 114.16 361.872C114.368 362.224 114.512 362.752 114.544 363.104C115.408 363.152 116.288 363.184 116.832 363.12C117.36 363.04 117.712 362.896 118.064 362.4C118.672 361.6 118.848 358.88 119.024 350.72C119.024 350.544 119.024 350.048 119.024 350.048H117.808ZM113.36 350.528C113.264 354.896 113.152 359.92 109.424 362.4C109.744 362.608 110.144 363.008 110.368 363.312C114.224 360.56 114.464 355.264 114.576 350.528H113.36ZM107.2 356.288V363.296H108.368V354.88L107.2 356.288ZM104.864 351.52V352.608H109.824V351.52H104.864ZM107.2 348.576V352.112H108.368V348.576H107.2ZM108.336 355.456L107.68 356.016C108.272 356.592 109.68 358.272 110.176 358.992L110.912 358.096C110.512 357.648 108.816 355.872 108.336 355.456ZM109.488 351.52V351.776C108.56 354.24 106.4 356.848 104.416 358.256C104.608 358.464 104.944 359.008 105.072 359.312C107.152 357.712 109.472 354.864 110.624 351.904L109.936 351.456L109.712 351.52H109.488ZM110.336 354.512C110.016 355.088 109.376 355.968 108.928 356.48L109.52 356.976C110 356.512 110.576 355.792 111.136 355.152L110.336 354.512ZM127.408 354.448V358.256C127.408 358.432 127.344 358.48 127.12 358.496C126.88 358.512 126.096 358.512 125.248 358.48C125.408 358.8 125.584 359.232 125.632 359.552C126.768 359.552 127.52 359.552 128 359.376C128.48 359.2 128.608 358.896 128.608 358.272V354.448H127.408ZM124.208 355.104C123.408 356.304 122.096 357.488 120.832 358.256C121.136 358.448 121.632 358.832 121.872 359.056C123.104 358.208 124.512 356.864 125.44 355.52L124.208 355.104ZM132.272 355.552C130.896 359.584 127.792 361.488 122.016 362.192C122.272 362.48 122.512 362.96 122.64 363.312C128.64 362.448 131.936 360.352 133.472 355.968L132.272 355.552ZM120.848 353.408V354.56H135.152V353.408H120.848ZM128.112 350.464V351.584H133.536V350.464H128.112ZM127.392 348.576V354.08H128.624V348.576H127.392ZM123.248 349.808V354.016H124.464V349.808H123.248ZM143.392 354.016V361.712C143.392 362 143.28 362.096 142.928 362.112C142.56 362.128 141.328 362.128 140 362.08C140.192 362.432 140.416 362.944 140.496 363.296C142.112 363.296 143.184 363.28 143.808 363.088C144.432 362.912 144.64 362.544 144.64 361.744V354.016H143.392ZM137.568 349.824V350.992H149.12V349.824H137.568ZM148.688 349.824V350.112C147.68 351.44 145.568 353.28 143.744 354.288C144 354.464 144.384 354.864 144.56 355.12C146.544 354 148.8 352.112 150.224 350.416L149.296 349.744L149.008 349.824H148.688ZM154.208 352.624V353.568H158.832V352.624H154.208ZM154.208 355.344V356.256H158.832V355.344H154.208ZM154.208 358.128V359.072H158.832V358.128H154.208ZM161.024 356.144V357.184H167.12V356.144H161.024ZM155.04 350V350.944H157.696V350H155.04ZM160 349.376V350.4H166.256V349.376H160ZM159.808 359.136V360.208H167.392V359.136H159.808ZM163.184 354.496V363.216H164.336V354.496H163.184ZM156.192 353.088V358.528H157.056V353.088H156.192ZM165.872 349.376V349.536C165.76 352.048 165.632 352.976 165.424 353.216C165.328 353.344 165.184 353.376 164.96 353.36C164.736 353.36 164.16 353.36 163.52 353.296C163.664 353.568 163.776 353.984 163.792 354.304C164.464 354.336 165.136 354.336 165.456 354.304C165.872 354.272 166.112 354.176 166.336 353.904C166.672 353.536 166.832 352.496 166.944 349.824C166.96 349.68 166.96 349.376 166.96 349.376H165.872ZM161.088 354.64C160.816 356 160.32 357.344 159.632 358.24C159.888 358.368 160.368 358.608 160.576 358.752C161.248 357.792 161.808 356.336 162.128 354.848L161.088 354.64ZM155.008 348.56C154.528 350.528 153.632 352.432 152.496 353.664C152.752 353.824 153.216 354.192 153.408 354.384C154.544 353.024 155.52 350.96 156.112 348.8L155.008 348.56ZM153.744 352.624V356.88C153.744 358.688 153.632 361.072 152.544 362.768C152.784 362.88 153.232 363.152 153.408 363.312C154.544 361.536 154.736 358.832 154.736 356.88V352.624H153.744ZM158.512 352.624V361.968C158.512 362.176 158.416 362.24 158.208 362.256C157.984 362.272 157.264 362.272 156.448 362.24C156.592 362.528 156.768 362.992 156.816 363.264C157.92 363.264 158.576 363.248 158.976 363.072C159.392 362.896 159.52 362.56 159.52 361.968V352.624H158.512ZM162.272 349.712C162.048 351.52 161.472 353.104 159.504 353.936C159.744 354.112 160.032 354.496 160.176 354.752C162.416 353.744 163.104 351.92 163.376 349.712H162.272ZM157.408 350V350.192C157.168 350.992 156.72 352.144 156.32 352.864C156.544 352.96 156.896 353.168 157.088 353.328C157.568 352.576 158.176 351.392 158.512 350.4L157.808 349.936L157.648 350H157.408ZM175.44 348.64C174.912 350.992 173.984 353.296 172.8 354.784C173.072 354.96 173.552 355.344 173.76 355.552C174.992 353.92 176 351.456 176.624 348.896L175.44 348.64ZM175.168 355.424C174.72 357.344 173.952 359.248 172.96 360.48C173.248 360.624 173.76 360.944 174 361.136C174.976 359.792 175.84 357.76 176.336 355.664L175.168 355.424ZM175.296 351.648L174.832 352.768H182.496V351.648H175.296ZM177.776 352.112V361.824C177.776 362.032 177.712 362.096 177.504 362.096C177.28 362.096 176.592 362.112 175.84 362.08C176.016 362.432 176.192 362.96 176.272 363.296C177.264 363.296 177.952 363.264 178.384 363.056C178.832 362.864 178.976 362.512 178.976 361.824V352.112H177.776ZM180.128 355.664C181.008 357.344 181.808 359.6 182.064 361.072L183.2 360.688C182.928 359.2 182.128 356.992 181.2 355.312L180.128 355.664ZM182.144 351.648V351.824C181.984 352.88 181.776 354.224 181.6 355.024L182.64 355.216C182.848 354.352 183.12 352.976 183.344 351.792L182.512 351.616L182.304 351.648H182.144ZM172.224 348.624C171.328 351.056 169.824 353.456 168.24 355.008C168.464 355.28 168.8 355.92 168.928 356.192C170.656 354.4 172.304 351.696 173.36 348.976L172.224 348.624ZM170.56 352.752V363.264H171.712V351.632L171.68 351.616L170.56 352.752ZM42.096 380.136V381.208H45.84V389.512H42.096V390.6H46.96V380.136H42.096ZM41.376 380.136V391.88H42.496V380.136H41.376ZM42.016 384.584V385.656H46.432V384.584H42.016ZM43.824 377.528C43.696 378.36 43.392 379.576 43.12 380.344L44.08 380.584C44.4 379.864 44.8 378.76 45.12 377.768L43.824 377.528ZM49.232 380.088V381.208H54.144V380.088H49.232ZM53.728 380.088V380.344C53.504 387.4 53.248 390.056 52.72 390.632C52.544 390.84 52.352 390.888 52.032 390.888C51.664 390.888 50.704 390.872 49.664 390.792C49.888 391.112 50.032 391.608 50.064 391.96C50.96 392.008 51.904 392.04 52.448 391.976C53.008 391.928 53.376 391.784 53.728 391.32C54.368 390.536 54.592 388.056 54.848 380.712C54.848 380.536 54.848 380.088 54.848 380.088H53.728ZM49.568 377.496C49.056 379.72 48.176 381.928 47.088 383.336C47.376 383.496 47.872 383.832 48.08 384.024C49.184 382.504 50.128 380.152 50.72 377.768L49.568 377.496ZM48.832 384.248C49.712 385.416 50.784 387 51.264 387.976L52.288 387.336C51.776 386.392 50.672 384.84 49.76 383.704L48.832 384.248ZM61.936 383.592L62.448 384.504C63.296 384.072 64.304 383.528 65.232 383L64.976 382.12C63.824 382.696 62.72 383.256 61.936 383.592ZM62.32 378.664C63.024 379.224 63.824 380.024 64.176 380.6L64.976 379.928C64.608 379.368 63.792 378.584 63.072 378.072L62.32 378.664ZM65.984 379.256V380.248H70.656V379.256H65.984ZM63.936 390.424V391.512H69.616V390.424H63.936ZM63.392 386.296V392.312H64.528V387.368H69.088V392.264H70.272V386.296H63.392ZM66.288 377.56C65.888 379.064 65.216 380.552 64.304 381.512C64.576 381.656 65.04 381.96 65.232 382.136C66.128 381.08 66.896 379.464 67.36 377.784L66.288 377.56ZM70.352 379.256V379.416C70.176 380.248 69.872 381.24 69.616 381.864L70.512 382.088C70.816 381.416 71.152 380.328 71.424 379.384L70.704 379.224L70.512 379.256H70.352ZM67.904 379.64H67.312V381.272C67.312 381.944 67.008 383.896 63.952 384.984C64.16 385.208 64.448 385.592 64.576 385.832C66.8 385.048 67.712 383.528 67.904 382.76C68.096 383.528 68.928 385.128 70.896 385.848C71.056 385.576 71.344 385.176 71.552 384.92C68.8 383.944 68.48 381.944 68.48 381.256V379.64H67.904ZM57.296 382.408V383.368H61.616V382.408H57.296ZM57.376 378.136V379.096H61.552V378.136H57.376ZM57.296 384.552V385.512H61.616V384.552H57.296ZM56.608 380.232V381.224H62.08V380.232H56.608ZM57.856 386.712V387.704H60.608V390.376H57.856V391.368H61.616V386.712H57.856ZM57.264 386.712V392.12H58.288V386.712H57.264ZM73.088 379.08V380.184H86.928V379.08H73.088ZM79.328 377.576V379.72H80.56V377.576H79.328ZM73.776 381.88V392.264H74.912V382.952H85.856V381.88H73.776ZM85.216 381.88V390.808C85.216 391.048 85.136 391.128 84.848 391.128C84.56 391.144 83.6 391.16 82.56 391.112C82.72 391.432 82.912 391.976 82.96 392.296C84.288 392.296 85.168 392.264 85.696 392.088C86.208 391.896 86.368 391.512 86.368 390.808V381.88H85.216ZM77.808 382.664C77.68 384.344 77.168 385.144 75.008 385.576C75.216 385.768 75.488 386.184 75.6 386.44C78.064 385.848 78.736 384.76 78.896 382.664H77.808ZM80.784 382.664V384.552C80.784 385.544 81.04 385.8 82.192 385.8C82.416 385.8 83.616 385.8 83.856 385.8C84.704 385.8 84.992 385.48 85.088 384.184C84.8 384.12 84.368 383.976 84.16 383.816C84.112 384.776 84.048 384.872 83.712 384.872C83.456 384.872 82.512 384.872 82.304 384.872C81.904 384.872 81.84 384.84 81.84 384.536V382.664H80.784ZM77.024 386.632V391.544H78.096V386.632H77.024ZM77.664 386.632V387.576H82.016V389.624H77.664V390.568H83.104V386.632H77.664ZM76.16 380.184C76.512 380.808 76.864 381.64 77.008 382.184L78.224 381.896C78.064 381.368 77.696 380.552 77.328 379.944L76.16 380.184ZM82.608 379.896C82.384 380.488 81.968 381.384 81.632 381.944L82.8 382.184C83.136 381.656 83.536 380.904 83.92 380.136L82.608 379.896ZM97.76 378.36V379.464H102.208V378.36H97.76ZM97.76 382.04V383.112H102.208V382.04H97.76ZM97.744 385.768V386.856H102.24V385.768H97.744ZM101.664 378.36V390.744C101.664 390.984 101.584 391.064 101.344 391.064C101.104 391.08 100.304 391.08 99.456 391.064C99.616 391.368 99.792 391.896 99.824 392.232C101.008 392.232 101.76 392.2 102.208 392.008C102.672 391.816 102.832 391.448 102.832 390.76V378.36H101.664ZM97.264 378.36V384.168C97.264 386.488 97.152 389.528 95.808 391.672C96.08 391.784 96.56 392.136 96.768 392.36C98.208 390.088 98.4 386.632 98.4 384.168V378.36H97.264ZM88.816 379.704V380.76H96.48V379.704H88.816ZM90.704 382.184V383.16H94.752V382.184H90.704ZM90.704 384.728V385.688H94.768V384.728H90.704ZM88.608 387.304V388.376H96.48V387.304H88.608ZM90.176 377.752V387.736H91.28V377.752H90.176ZM94.192 377.752V387.736H95.296V377.752H94.192ZM90.832 388.728C90.352 389.8 89.52 390.872 88.624 391.592C88.912 391.752 89.376 392.104 89.6 392.296C90.464 391.496 91.392 390.264 91.984 389.048L90.832 388.728ZM93.136 389.224C93.76 389.976 94.48 391.032 94.784 391.672L95.76 391.096C95.44 390.44 94.688 389.448 94.064 388.728L93.136 389.224ZM110.176 379.64V380.744H118.56V379.64H110.176ZM109.424 385.656V386.776H119.28V385.656H109.424ZM109.232 382.776V383.88H119.392V382.776H109.232ZM113.696 377.64V383.352H114.88V377.64H113.696ZM115.936 383.64V390.824C115.936 391.048 115.856 391.112 115.6 391.128C115.344 391.144 114.464 391.144 113.504 391.112C113.664 391.448 113.84 391.928 113.904 392.264C115.152 392.264 115.952 392.248 116.48 392.072C116.976 391.88 117.12 391.544 117.12 390.84V383.64H115.936ZM110.64 387.752C111.376 388.616 112.192 389.816 112.528 390.584L113.552 389.992C113.2 389.208 112.368 388.056 111.616 387.224L110.64 387.752ZM108.336 381.128C107.424 382.792 105.904 384.44 104.448 385.496C104.656 385.768 104.992 386.408 105.104 386.664C106.656 385.4 108.336 383.464 109.408 381.56L108.336 381.128ZM108.08 377.608C107.376 378.744 105.952 380.072 104.688 380.904C104.88 381.144 105.184 381.608 105.312 381.88C106.736 380.936 108.256 379.432 109.2 378.056L108.08 377.608ZM106.944 383.96V392.28H108.096V382.856L108.064 382.824L106.944 383.96ZM130.464 378.568V379.64H133.424V378.568H130.464ZM126.768 379.352V380.376H130.144V379.352H126.768ZM130.624 381.528V382.536H133.392V381.528H130.624ZM130.592 384.52V385.528H133.312V384.52H130.592ZM122.704 381.528V382.536H125.424V381.528H122.704ZM122.768 384.504V385.528H125.44V384.504H122.768ZM122.064 378.68L122.384 387.976H123.472L123.184 379.304C123.376 379.272 123.456 379.208 123.488 379.112L122.064 378.68ZM132.768 378.568C132.784 381.512 132.656 385.592 132.48 387.944H133.616C133.776 385.64 133.872 381.576 133.888 378.568H132.768ZM125.008 377.72C124.368 378.152 123.296 378.728 122.368 379.16C122.496 379.4 122.688 379.784 122.752 379.992C123.776 379.608 124.976 379.096 125.952 378.584L125.008 377.72ZM126.24 383.72V387.88H127.232V383.72H126.24ZM126.256 377.704V383.016H129.376V382.04H127.296V377.704H126.256ZM128.784 382.04V387.864H129.824V382.04H128.784ZM120.704 387.464V388.584H135.312V387.464H120.704ZM129.488 389.608C131.2 390.456 133.024 391.544 134.096 392.328L135.216 391.512C134.048 390.712 132.112 389.64 130.336 388.808L129.488 389.608ZM125.296 388.84C124.304 389.72 122.384 390.824 120.832 391.464C121.12 391.688 121.536 392.072 121.744 392.312C123.264 391.64 125.152 390.552 126.416 389.56L125.296 388.84ZM138.144 378.216V379.176H149.84V378.216H138.144ZM137.024 385.304V386.28H151.008V385.304H137.024ZM139.088 381.864V382.68H142.544V381.864H139.088ZM138.752 383.544V384.36H142.544V383.544H138.752ZM145.36 383.544V384.36H149.28V383.544H145.36ZM145.36 381.864V382.68H148.896V381.864H145.36ZM143.36 378.584V384.776H144.528V378.584H143.36ZM141.776 388.056V392.168H142.896V388.056H141.776ZM145.328 388.056V392.168H146.432V388.056H145.328ZM137.216 380.104V383.176H138.304V380.984H149.664V383.176H150.8V380.104H137.216ZM138.272 387.432V392.264H139.408V388.424H149.248V387.432H138.272ZM148.944 387.432V391.08C148.944 391.224 148.896 391.272 148.72 391.288C148.544 391.304 148 391.304 147.36 391.288C147.504 391.576 147.68 391.992 147.728 392.28C148.608 392.28 149.2 392.296 149.6 392.104C150.016 391.928 150.096 391.64 150.096 391.096V387.432H148.944ZM143.376 385.672C143.264 386.328 142.976 387.288 142.736 387.944L143.792 388.056C144.064 387.464 144.4 386.584 144.688 385.72L143.376 385.672ZM153.024 380.248V381.416H167.024V380.248H153.024ZM160.48 381.288L159.536 381.576C160.848 385.784 163.2 389.448 166.608 391.112C166.8 390.76 167.2 390.296 167.488 390.056C164.144 388.6 161.68 385.128 160.48 381.288ZM165.28 382.072C164.416 383.256 162.928 384.808 161.84 385.72L162.688 386.376C163.808 385.464 165.264 384.04 166.32 382.824L165.28 382.072ZM162.08 378.376C163.104 378.92 164.384 379.72 165.008 380.28L165.776 379.416C165.104 378.888 163.792 378.136 162.816 377.624L162.08 378.376ZM153.888 382.984C154.88 383.864 155.984 385.144 156.464 385.976L157.44 385.288C156.944 384.44 155.792 383.224 154.816 382.376L153.888 382.984ZM159.344 377.608V390.664C159.344 390.968 159.232 391.048 158.944 391.064C158.624 391.08 157.584 391.08 156.464 391.048C156.656 391.416 156.848 391.976 156.912 392.312C158.32 392.312 159.28 392.296 159.824 392.072C160.352 391.88 160.576 391.512 160.576 390.664V377.608H159.344ZM152.592 389.656L153.328 390.728C154.752 389.928 156.64 388.808 158.368 387.736L157.984 386.664C156.032 387.8 153.936 388.968 152.592 389.656ZM171.104 387.112C169.76 387.112 168.656 388.2 168.656 389.544C168.656 390.888 169.76 391.976 171.104 391.976C172.448 391.976 173.536 390.888 173.536 389.544C173.536 388.2 172.448 387.112 171.104 387.112ZM171.104 391.16C170.208 391.16 169.472 390.44 169.472 389.544C169.472 388.648 170.208 387.928 171.104 387.928C172 387.928 172.72 388.648 172.72 389.544C172.72 390.44 172 391.16 171.104 391.16Z" fill="#7E7E7E"/>
<rect x="55" y="242" width="13" height="8" fill="white"/>
<rect width="72" height="47" rx="13" transform="matrix(-1 0 0 1 131 133)" fill="#74CADD"/>
<line x1="1.5" y1="-1.5" x2="52.5" y2="-1.5" transform="matrix(-1 0 0 1 122 150)" stroke="#002B51" stroke-width="3" stroke-linecap="round"/>
<line x1="95.5" y1="158.5" x2="69.5" y2="158.5" stroke="#002B51" stroke-width="3" stroke-linecap="round"/>
<path d="M77.5 193V179.5H91L77.5 193Z" fill="#74CADD"/>
<rect x="98" y="159" width="70" height="45" rx="12" fill="#FF715C" stroke="white" stroke-width="2"/>
<line x1="107.5" y1="173.5" x2="158.5" y2="173.5" stroke="white" stroke-width="3" stroke-linecap="round"/>
<line x1="107.5" y1="191.5" x2="133.5" y2="191.5" stroke="white" stroke-width="3" stroke-linecap="round"/>
<line x1="107.5" y1="182.5" x2="146.5" y2="182.5" stroke="white" stroke-width="3" stroke-linecap="round"/>
<path d="M153.5 215.5L140 203H153.5V215.5Z" fill="#FF715C"/>
<defs>
<filter id="filter0_d_465_1269" x="0" y="17" width="230" height="449" filterUnits="userSpaceOnUse" color-interpolation-filters="sRGB">
<feFlood flood-opacity="0" result="BackgroundImageFix"/>
<feColorMatrix in="SourceAlpha" type="matrix" values="0 0 0 0 0 0 0 0 0 0 0 0 0 0 0 0 0 0 127 0" result="hardAlpha"/>
<feOffset dy="4"/>
<feGaussianBlur stdDeviation="4.5"/>
<feComposite in2="hardAlpha" operator="out"/>
<feColorMatrix type="matrix" values="0 0 0 0 0 0 0 0 0 0 0 0 0 0 0 0 0 0 0.25 0"/>
<feBlend mode="normal" in2="BackgroundImageFix" result="effect1_dropShadow_465_1269"/>
<feBlend mode="normal" in="SourceGraphic" in2="effect1_dropShadow_465_1269" result="shape"/>
</filter>
</defs>
</svg>
