<svg width="255" height="466" viewBox="0 0 255 466" fill="none" xmlns="http://www.w3.org/2000/svg">
<g filter="url(#filter0_d_466_1278)">
<path d="M9 22H181C203.091 22 221 39.9086 221 62V453H49C26.9086 453 9 435.091 9 413V22Z" fill="white"/>
</g>
<path d="M69.448 274.824V276.456H82.504V274.824H69.448ZM65.344 279.24V280.944H86.632V279.24H65.344ZM71.656 280.416C71.248 284.328 70.216 287.088 64.816 288.432C65.2 288.792 65.68 289.512 65.872 289.968C71.728 288.336 73.072 285.096 73.576 280.416H71.656ZM77.728 280.272V287.04C77.728 288.96 78.304 289.512 80.512 289.512C80.992 289.512 83.752 289.512 84.232 289.512C86.152 289.512 86.68 288.672 86.872 285.384C86.392 285.24 85.624 284.952 85.24 284.664C85.168 287.424 85 287.856 84.088 287.856C83.464 287.856 81.184 287.856 80.704 287.856C79.696 287.856 79.528 287.736 79.528 287.016V280.272H77.728ZM74.992 267.864V271.68H76.888V267.864H74.992ZM65.896 270.432V275.52H67.72V272.136H84.184V275.52H86.08V270.432H65.896ZM92.08 276.84V278.52H98.056V276.84H92.08ZM97.336 276.84V277.152C97.264 282.336 97.144 284.136 96.784 284.568C96.616 284.784 96.376 284.808 96.04 284.808C95.632 284.808 94.576 284.808 93.496 284.712C93.76 285.168 93.952 285.864 94 286.392C95.176 286.44 96.256 286.464 96.88 286.392C97.552 286.32 97.936 286.152 98.32 285.72C98.824 285.048 98.968 283.032 99.088 277.608C99.088 277.368 99.088 276.84 99.088 276.84H97.336ZM104.104 269.064C105.616 269.856 107.464 271.08 108.376 271.92L109.504 270.696C108.568 269.856 106.672 268.704 105.184 267.936L104.104 269.064ZM107.536 275.568C105.736 281.352 102.352 285.744 97.48 288.336C97.864 288.696 98.536 289.44 98.8 289.8C103.72 286.896 107.296 282.264 109.336 276L107.536 275.568ZM92.224 271.92V273.696H110.8V271.92H92.224ZM91.072 271.92V278.664C91.072 281.808 90.856 285.936 88.864 288.888C89.296 289.104 90.064 289.728 90.376 290.088C92.56 286.944 92.944 282.096 92.944 278.688V271.92H91.072ZM101.032 267.888C101.128 279.384 103.288 289.752 108.184 289.752C110.008 289.752 110.68 288.576 111.016 284.472C110.536 284.304 109.864 283.896 109.456 283.488C109.312 286.68 109 287.928 108.328 287.928C105.208 287.928 102.856 278.928 102.904 267.888H101.032ZM113.416 269.016V270.6H121.216V269.016H113.416ZM112.888 276.624V278.256H122.056V276.624H112.888ZM116.848 277.416V287.784C116.848 288.072 116.752 288.168 116.416 288.168C116.08 288.192 114.952 288.192 113.728 288.168C113.968 288.648 114.232 289.392 114.304 289.872C115.96 289.872 117.016 289.848 117.688 289.56C118.384 289.296 118.576 288.768 118.576 287.808V277.416H116.848ZM120.664 269.016V269.376C119.92 270.744 118.408 272.688 117.088 273.816C117.4 274.08 117.88 274.56 118.144 274.872C119.656 273.6 121.384 271.536 122.536 269.688L121.384 268.92L121.048 269.016H120.664ZM121.552 276.624V276.888C121.072 278.544 120.376 280.56 119.8 281.784L121.192 282.144C121.816 280.824 122.584 278.736 123.208 276.864L122.08 276.552L121.816 276.624H121.552ZM114.088 273.216C116.104 274.296 118.48 275.976 119.632 277.224L120.664 275.904C119.488 274.68 117.064 273.072 115.048 272.016L114.088 273.216ZM122.704 268.968V270.528H134.896V268.968H122.704ZM125.296 277.896H132.328V280.248H125.296V277.896ZM125.296 281.568H132.328V283.944H125.296V281.568ZM125.296 274.224H132.328V276.552H125.296V274.224ZM123.616 272.832V285.36H134.08V272.832H123.616ZM127.864 269.736C127.72 270.84 127.384 272.496 127.096 273.576L128.68 273.888C129.064 272.88 129.496 271.368 129.904 269.976L127.864 269.736ZM126.016 285.792C124.984 286.848 122.824 288.096 120.904 288.792C121.264 289.104 121.84 289.656 122.104 290.016C124.024 289.296 126.28 288 127.6 286.728L126.016 285.792ZM129.736 286.824C131.224 287.736 133.072 289.104 133.96 289.992L135.4 288.96C134.416 288.048 132.568 286.752 131.104 285.912L129.736 286.824ZM148.264 278.16C149.608 279.888 151 282.264 151.528 283.776L153.112 282.936C152.536 281.4 151.096 279.096 149.728 277.416L148.264 278.16ZM148.408 272.184V273.888H157.528V272.184H148.408ZM156.808 272.184V272.592C156.424 282.96 156.016 286.944 155.176 287.808C154.936 288.12 154.624 288.168 154.144 288.168C153.544 288.168 152.056 288.168 150.472 288.024C150.784 288.528 151 289.296 151.048 289.824C152.488 289.92 153.952 289.944 154.768 289.872C155.68 289.776 156.208 289.584 156.76 288.888C157.744 287.688 158.128 283.944 158.536 273.12C158.536 272.88 158.536 272.184 158.536 272.184H156.808ZM149.296 267.84C148.408 271.032 146.872 274.2 145 276.216C145.456 276.456 146.248 276.984 146.608 277.272C148.432 275.088 150.088 271.728 151.144 268.248L149.296 267.84ZM140.68 267.864C140.056 269.448 138.952 271.752 138.04 273.144L139.288 273.672C140.224 272.376 141.376 270.24 142.288 268.464L140.68 267.864ZM143.584 270.6C142.264 273.144 139.984 276.744 138.136 278.88L139.288 279.48C141.112 277.416 143.464 273.96 145.144 271.272L143.584 270.6ZM136.888 272.904C138.184 274.056 139.696 275.712 140.344 276.84L141.304 275.472C140.656 274.416 139.144 272.832 137.8 271.704L136.888 272.904ZM142.816 276.168C143.8 277.752 144.76 279.84 145.12 281.184L146.56 280.512C146.2 279.192 145.168 277.128 144.16 275.592L142.816 276.168ZM136.84 278.592L136.984 280.2C139.264 280.08 142.312 279.912 145.36 279.72V278.256C142.192 278.4 139 278.52 136.84 278.592ZM143.416 281.904C144.088 283.392 144.736 285.336 144.952 286.584L146.416 286.08C146.152 284.832 145.48 282.936 144.784 281.472L143.416 281.904ZM138.16 281.568C137.872 283.68 137.392 285.816 136.6 287.28C136.984 287.448 137.704 287.784 138.016 287.976C138.784 286.44 139.384 284.112 139.72 281.856L138.16 281.568ZM140.92 279.288V289.992H142.552V279.288H140.92Z" fill="#002B51"/>
<circle cx="114" cy="29" r="29" fill="#FF715C"/>
<path d="M103.648 35.6818V32.3295L113.523 16.7273H116.318V21.5H114.614L107.966 32.0341V32.2159H121.75V35.6818H103.648ZM114.75 40V34.6591L114.795 33.1591V16.7273H118.773V40H114.75Z" fill="white"/>
<path d="M255 240.5L220 205V275L255 240.5Z" fill="#FF715C"/>
<path d="M52.328 319.56V322.136H53.592V319.56H52.328ZM46.36 321.256V324.712H47.576V322.392H58.456V324.712H59.72V321.256H46.36ZM51.688 323.112C50.6 325.464 48.872 328.728 47.704 330.648L48.936 330.984C50.072 329.048 51.752 325.816 52.936 323.384L51.688 323.112ZM55.928 326.424C54.888 330.872 51.704 332.552 46.28 333.224C46.504 333.496 46.872 334.024 47 334.312C52.52 333.432 55.944 331.576 57.256 326.616L55.928 326.424ZM45.896 325.704V326.84H60.104V325.704H45.896ZM48.632 330.088C52.072 331.08 56.312 332.888 58.44 334.312L59.336 333.32C57.096 331.896 52.808 330.168 49.448 329.24L48.632 330.088ZM69.368 319.56V326.328C69.368 329.208 69.032 331.72 66.328 333.496C66.6 333.688 67 334.056 67.192 334.296C70.088 332.344 70.456 329.528 70.456 326.328V319.56H69.368ZM72.12 319.56V334.264H73.272V319.56H72.12ZM66.744 322.296V323.4H69.848V322.296H66.744ZM72.728 322.296V323.4H76.072V322.296H72.728ZM72.792 325.656V326.728H75.912V325.656H72.792ZM72.712 329.144V330.248H76.344V329.144H72.712ZM66.856 325.656V326.728H69.896V325.656H66.856ZM65.944 329.832L66.408 330.872C67.4 330.52 68.536 330.104 69.64 329.672L69.464 328.744C68.152 329.16 66.872 329.576 65.944 329.832ZM61.432 327.864L61.752 329.032C63.112 328.6 64.872 328.024 66.536 327.448L66.376 326.344C64.552 326.936 62.68 327.512 61.432 327.864ZM61.656 322.792V323.912H66.52V322.792H61.656ZM63.672 319.576V332.888C63.672 333.128 63.576 333.176 63.384 333.176C63.192 333.192 62.584 333.192 61.88 333.176C62.04 333.512 62.184 334.008 62.232 334.296C63.24 334.296 63.864 334.264 64.232 334.072C64.632 333.88 64.792 333.56 64.792 332.888V319.576H63.672ZM80.44 326.584V327.608H90.76V323.96H79.048V324.968H89.576V326.584H80.44ZM79.832 326.584C79.592 327.848 79.176 329.464 78.84 330.488L80.024 330.664C80.344 329.608 80.744 327.944 81.032 326.584H79.832ZM80.008 329.08L79.688 330.12H90.792V329.08H80.008ZM90.488 329.08V329.24C90.312 331.32 90.12 332.152 89.832 332.408C89.704 332.536 89.544 332.552 89.272 332.552C88.984 332.552 88.216 332.552 87.448 332.456C87.624 332.776 87.752 333.224 87.784 333.576C88.6 333.608 89.384 333.608 89.8 333.576C90.248 333.56 90.536 333.464 90.824 333.192C91.224 332.792 91.448 331.8 91.656 329.576C91.688 329.4 91.704 329.08 91.704 329.08H90.488ZM84.392 324.216V334.28H85.576V324.216H84.392ZM84.072 329.4C82.728 330.968 80.04 332.408 77.688 333.064C77.944 333.304 78.28 333.736 78.456 334.024C80.824 333.256 83.528 331.64 85.016 329.832L84.072 329.4ZM79.608 320.952V321.928H84.776V320.952H79.608ZM85.784 320.952V321.928H92.248V320.952H85.784ZM79.944 319.496C79.416 320.92 78.52 322.328 77.512 323.272C77.8 323.416 78.296 323.752 78.504 323.912C79.48 322.92 80.456 321.352 81.064 319.784L79.944 319.496ZM86.248 319.496C85.72 320.936 84.744 322.28 83.608 323.144C83.912 323.304 84.392 323.64 84.616 323.848C85.704 322.872 86.776 321.384 87.384 319.784L86.248 319.496ZM80.504 321.704C80.872 322.376 81.224 323.256 81.352 323.816L82.408 323.4C82.264 322.856 81.864 321.976 81.512 321.336L80.504 321.704ZM87.192 321.688C87.752 322.36 88.328 323.256 88.552 323.864L89.592 323.432C89.336 322.84 88.744 321.96 88.2 321.32L87.192 321.688ZM93.704 326.104V327.416H108.344V326.104H93.704ZM116.12 319.608C115.56 322.168 114.584 324.664 113.224 326.232C113.56 326.392 114.136 326.712 114.376 326.904C115.672 325.208 116.728 322.6 117.368 319.832L116.12 319.608ZM118.76 323.528H118.12V325.672C118.12 327.192 117.288 331.384 112.408 333.304C112.632 333.528 113 334.024 113.144 334.28C117.016 332.664 118.472 329.448 118.744 327.928C119 329.432 120.36 332.744 123.72 334.28C123.912 333.992 124.28 333.496 124.504 333.208C120.152 331.336 119.368 327.096 119.368 325.672V323.528H118.76ZM109.592 330.984L110.376 331.976C111.464 330.936 112.808 329.544 113.992 328.264L113.336 327.224C111.976 328.648 110.52 330.12 109.592 330.984ZM110.104 321.496C111.144 322.216 112.408 323.272 113.016 323.976L113.912 323C113.288 322.312 111.992 321.304 110.952 320.632L110.104 321.496ZM116.152 322.456L115.608 323.64H123.352V322.456H116.152ZM122.936 322.456V322.744C122.664 323.976 121.976 325.672 121.448 326.632C121.752 326.76 122.216 327 122.472 327.144C123.064 326.072 123.816 324.408 124.232 322.872L123.352 322.376L123.128 322.456H122.936ZM128.632 325.032H137.416V327.448H128.632V325.032ZM127.608 324.216V328.264H138.504V324.216H127.608ZM130.232 322.488V323.336H135.816V322.488H130.232ZM132.424 324.472V327.816H133.448V324.472H132.424ZM132.92 320.536C134.552 322.104 137.432 323.688 139.784 324.504C139.96 324.2 140.232 323.768 140.488 323.512C138.008 322.776 135.224 321.304 133.416 319.56H132.28C130.952 321.112 128.248 322.744 125.528 323.672C125.752 323.928 126.024 324.344 126.168 324.616C128.824 323.624 131.496 321.992 132.92 320.536ZM129.608 325.512C130.008 326.088 130.376 326.872 130.504 327.384L131.432 327.048C131.272 326.536 130.888 325.784 130.472 325.224L129.608 325.512ZM135.368 325.16C135.176 325.704 134.76 326.552 134.456 327.096L135.304 327.384C135.624 326.904 136.024 326.168 136.392 325.48L135.368 325.16ZM128.552 329.032V334.28H129.736V329.88H136.376V334.264H137.592V329.032H128.552ZM129.256 330.952V331.832H136.904V330.952H129.256ZM129.256 332.92V333.784H136.904V332.92H129.256ZM151.16 323.64C152.648 324.552 154.584 325.864 155.512 326.728L156.312 325.816C155.32 324.968 153.384 323.704 151.912 322.856L151.16 323.64ZM152.008 326.216H151.4V328.52C151.4 329.448 150.824 332.04 147.096 333.336C147.32 333.576 147.656 334.04 147.784 334.296C150.616 333.272 151.752 331.256 151.992 330.28C152.232 331.24 153.304 333.336 155.768 334.296C155.928 334.024 156.264 333.56 156.488 333.272C153.144 332.04 152.6 329.432 152.6 328.52V326.216H152.008ZM151.496 319.576C151.352 322.984 150.888 324.904 147.592 325.896C147.848 326.136 148.152 326.568 148.264 326.856C151.88 325.64 152.488 323.416 152.68 319.576H151.496ZM149.128 320.632C148.984 321.672 148.52 322.728 147.864 323.288L148.792 323.736C149.544 323.08 149.976 321.912 150.136 320.856L149.128 320.632ZM148.968 327.528C148.76 328.664 148.248 329.768 147.464 330.328L148.424 330.904C149.304 330.2 149.816 328.952 150.024 327.736L148.968 327.528ZM154.84 320.552C154.552 321.336 153.96 322.472 153.496 323.16L154.392 323.528C154.872 322.872 155.48 321.864 155.992 320.968L154.84 320.552ZM155.016 327.416C154.664 328.264 154.024 329.48 153.528 330.216L154.44 330.6C154.984 329.896 155.64 328.776 156.184 327.832L155.016 327.416ZM142.36 324.408V325.368H147.048V324.408H142.36ZM142.408 320.136V321.096H146.984V320.136H142.408ZM142.36 326.552V327.512H147.048V326.552H142.36ZM141.608 322.232V323.224H147.576V322.232H141.608ZM142.888 328.712V329.704H145.992V332.376H142.888V333.384H147.048V328.712H142.888ZM142.344 328.712V334.12H143.384V328.712H142.344ZM163.736 321.48V322.536H171.736V321.48H163.736ZM163.048 324.584V325.656H172.424V324.584H163.048ZM163.128 327.48V328.552H172.248V327.48H163.128ZM167.096 319.56V325.24H168.28V319.56H167.096ZM169.208 325.496V332.84C169.208 333.08 169.128 333.144 168.856 333.16C168.6 333.176 167.704 333.176 166.712 333.144C166.888 333.464 167.08 333.944 167.128 334.264C168.408 334.264 169.224 334.248 169.72 334.072C170.216 333.896 170.376 333.544 170.376 332.856V325.496H169.208ZM164.104 329.672C164.92 330.504 165.784 331.704 166.136 332.488L167.176 331.848C166.792 331.064 165.896 329.928 165.064 329.096L164.104 329.672ZM158.776 320.616V321.704H161.656V330.04H158.776V331.128H162.776V320.616H158.776ZM158.824 325.272V326.344H162.184V325.272H158.824ZM158.2 320.616V332.44H159.336V320.616H158.2ZM50.552 358.368V359.296H55.4V358.368H50.552ZM50.504 355.952V356.896H54.824V360.864H50.504V361.792H55.96V355.952H50.504ZM49.976 355.952V362.608H51.08V355.952H49.976ZM47.032 351.52V352.4H51.48V351.52H47.032ZM54.408 351.52V352.4H58.936V351.52H54.408ZM58.44 349.248V361.696C58.44 361.968 58.344 362.064 58.056 362.064C57.768 362.08 56.792 362.096 55.816 362.048C55.992 362.384 56.184 362.944 56.232 363.28C57.576 363.28 58.44 363.264 58.952 363.072C59.464 362.864 59.64 362.464 59.64 361.696V349.248H58.44ZM47.128 349.248V350.176H51.112V353.824H47.128V354.752H52.248V349.248H47.128ZM59.032 349.248H53.688V354.768H59.032V353.856H54.84V350.176H59.032V349.248ZM46.44 349.248V363.296H47.624V349.248H46.44ZM63.512 363.712C65.192 363.136 66.28 361.824 66.28 360.096C66.28 358.976 65.8 358.24 64.904 358.24C64.264 358.24 63.688 358.64 63.688 359.392C63.688 360.16 64.232 360.544 64.888 360.544C65.192 360.544 65.512 360.464 65.736 360.176L64.872 358.96L65.176 360.32C65.176 361.52 64.456 362.336 63.144 362.88L63.512 363.712ZM78.28 351.776V352.96H91.752V351.776H78.28ZM77.848 361.36V362.592H92.152V361.36H77.848ZM82.664 352.56V362H83.848V352.56H82.664ZM86.056 352.56V362.016H87.256V352.56H86.056ZM89.8 354.336C89.416 355.936 88.664 358.192 88.024 359.568L89.096 359.872C89.752 358.528 90.504 356.416 91.08 354.656L89.8 354.336ZM88.488 348.576C88.12 349.472 87.416 350.736 86.856 351.536L87.928 351.92C88.504 351.152 89.208 350 89.784 348.96L88.488 348.576ZM79.032 354.784C79.784 356.384 80.408 358.48 80.568 359.856L81.72 359.568C81.544 358.176 80.904 356.096 80.104 354.496L79.032 354.784ZM80.408 349.024C81.048 349.856 81.72 351.04 81.976 351.824L83.096 351.328C82.808 350.576 82.136 349.44 81.464 348.592L80.408 349.024ZM98.824 351.088C99.848 352.272 100.888 353.92 101.304 355.024L102.456 354.4C101.992 353.312 100.968 351.728 99.896 350.56L98.824 351.088ZM93.56 360.304L93.992 361.552C95.768 360.784 98.2 359.712 100.424 358.688L100.152 357.52C97.752 358.576 95.192 359.664 93.56 360.304ZM103.16 358.192C104.696 359.76 106.616 361.92 107.512 363.248L108.536 362.304C107.592 360.992 105.608 358.912 104.088 357.408L103.16 358.192ZM105.384 349.392C104.664 356.352 102.968 360.272 97.432 362.288C97.736 362.544 98.216 363.072 98.392 363.328C103.992 360.992 105.864 356.912 106.68 349.52L105.384 349.392ZM95.512 349.44L95.784 360.016L97.016 359.968L96.744 349.392L95.512 349.44ZM112.184 358.24V359.056H121.768V358.24H112.184ZM112.216 356.272V357.136H121.272V360.16H112.216V361.04H122.456V356.272H112.216ZM116.312 356.704V361.52C116.312 362.832 116.824 363.152 118.616 363.152C119.016 363.152 121.912 363.152 122.328 363.152C123.848 363.152 124.216 362.656 124.392 360.704C124.056 360.64 123.608 360.48 123.336 360.288C123.256 361.904 123.112 362.192 122.248 362.192C121.624 362.192 119.16 362.192 118.68 362.192C117.656 362.192 117.464 362.08 117.464 361.536V356.704H116.312ZM111.592 356.272V361.872H112.744V356.272H111.592ZM111.144 349.248V350.192H122.84V349.248H111.144ZM112.136 352.912V353.68H115.528V352.912H112.136ZM111.816 354.56V355.312H115.544V354.56H111.816ZM118.376 354.56V355.312H122.216V354.56H118.376ZM118.376 352.912V353.68H121.832V352.912H118.376ZM116.36 349.616V355.728H117.528V349.616H116.36ZM110.216 351.168V354.288H111.304V352.048H122.664V354.288H123.8V351.168H110.216ZM125.752 355.712V356.912H140.28V355.712H125.752ZM132.408 353.136V361.728C132.408 362.016 132.296 362.096 131.96 362.112C131.608 362.128 130.424 362.128 129.128 362.08C129.336 362.432 129.56 362.976 129.656 363.328C131.192 363.328 132.232 363.296 132.824 363.104C133.432 362.912 133.656 362.544 133.656 361.744V353.136H132.408ZM127.4 349.68V350.864H137.848V349.68H127.4ZM137.432 349.68V349.952C136.424 351.088 134.296 352.608 132.552 353.44C132.792 353.648 133.16 354.032 133.336 354.304C135.208 353.344 137.48 351.76 138.936 350.288L138.024 349.616L137.752 349.68H137.432ZM142.024 352.016V353.056H150.168V352.016H142.024ZM141.96 358.016V359.024H150.136V358.016H141.96ZM141.624 354.992V356.016H150.344V354.992H141.624ZM141.656 361.552L141.816 362.704C144.04 362.416 147.272 362 150.296 361.584L150.28 360.528C147.16 360.928 143.8 361.328 141.656 361.552ZM149.432 348.752C147.624 349.248 144.472 349.632 141.832 349.824C141.96 350.08 142.088 350.496 142.136 350.768C144.808 350.608 148.056 350.256 150.152 349.712L149.432 348.752ZM150.856 349.408V363.296H151.976V350.496H155.416V349.408H150.856ZM145.432 349.744V361.712L146.536 361.6V349.744H145.432ZM143.048 352.368V358.496H144.008V352.368H143.048ZM148.008 352.368V358.464H148.968V352.368H148.008ZM155.128 349.408V349.792C154.68 351.04 153.896 353.232 153.16 354.896C154.616 356.336 155.032 357.536 155.032 358.544C155.032 359.12 154.92 359.6 154.6 359.808C154.424 359.92 154.168 359.968 153.912 359.984C153.592 360 153.128 360 152.632 359.952C152.84 360.288 152.968 360.8 152.984 361.12C153.464 361.152 154.008 361.168 154.424 361.12C154.824 361.056 155.176 360.96 155.432 360.768C155.976 360.4 156.184 359.632 156.184 358.64C156.184 357.536 155.832 356.256 154.376 354.752C155.064 353.232 155.816 351.392 156.392 349.888L155.544 349.36L155.336 349.408H155.128ZM166.664 348.768V363.28H167.864V348.768H166.664ZM163.896 349.376C163.528 351.456 162.856 353.52 161.928 354.864C162.232 354.992 162.728 355.28 162.968 355.456C163.88 354.032 164.616 351.84 165.048 349.6L163.896 349.376ZM164.056 351.84L163.752 353.024H171.528V351.84H164.056ZM162.056 356.544V357.728H172.232V356.544H162.056ZM161.272 348.624C160.424 351.056 159 353.456 157.496 355.008C157.72 355.296 158.072 355.92 158.184 356.192C159.848 354.384 161.4 351.68 162.408 348.976L161.272 348.624ZM159.656 352.752V363.264H160.808V351.632L160.792 351.616L159.656 352.752ZM49.128 383.88H45.656V385H47.992V389.544H49.128V383.88ZM49.128 389.064H48.088C47.24 389.752 46.248 390.472 45.448 390.968L46.04 392.152C46.952 391.464 47.816 390.76 48.632 390.072C49.624 391.336 51.08 391.896 53.176 391.976C54.968 392.056 58.392 392.024 60.168 391.944C60.232 391.592 60.408 391.032 60.552 390.76C58.632 390.888 54.936 390.936 53.176 390.856C51.288 390.792 49.912 390.248 49.128 389.064ZM45.928 378.68C46.936 379.432 48.104 380.568 48.6 381.352L49.512 380.52C48.984 379.736 47.784 378.648 46.76 377.928L45.928 378.68ZM52.328 380.248C53.88 380.84 55.864 381.752 56.872 382.376L57.688 381.624C56.616 380.984 54.6 380.104 53.096 379.576L52.328 380.248ZM50.808 381.592V389.88H51.944V382.52H59.08V381.592H50.808ZM58.504 381.592V388.664C58.504 388.872 58.456 388.936 58.248 388.936C58.04 388.936 57.368 388.952 56.616 388.92C56.76 389.192 56.904 389.608 56.952 389.912C58.024 389.912 58.696 389.912 59.112 389.72C59.544 389.544 59.656 389.272 59.656 388.68V381.592H58.504ZM50.808 378.232V379.192H58.792V378.232H50.808ZM51.432 383.928V384.824H58.968V383.928H51.432ZM51.432 386.28V387.208H58.968V386.28H51.432ZM54.632 381.976V389.816H55.72V381.976H54.632ZM58.392 378.232V378.456C57.672 379.208 56.184 380.136 54.872 380.648C55.048 380.824 55.352 381.144 55.512 381.352C56.968 380.744 58.584 379.752 59.656 378.744L58.92 378.168L58.664 378.232H58.392ZM70.248 389.416V390.552H74.984V389.416H70.248ZM69.752 378.952V391.832H70.904V380.088H74.312V391.656H75.512V378.952H69.752ZM65.016 380.264V383.464C65.016 385.944 64.648 389.128 61.528 391.352C61.784 391.528 62.216 391.992 62.376 392.248C65.688 389.88 66.232 386.2 66.232 383.48V380.264H65.016ZM63.368 379.72V380.84H68.76V379.72H63.368ZM61.704 384.024V385.176H69.24V384.024H61.704ZM65.848 386.136L65.112 386.824C65.848 387.608 67.688 389.8 68.36 390.776L69.176 389.768C68.664 389.16 66.472 386.696 65.848 386.136ZM63.512 377.56C63.128 379.512 62.472 381.432 61.512 382.664C61.784 382.824 62.296 383.16 62.504 383.352C63.448 381.992 64.216 379.928 64.68 377.784L63.512 377.56ZM84.056 380.632V381.736H92.168V380.632H84.056ZM84.36 383.832V384.92H91.832V383.832H84.36ZM83.56 387.192V388.312H92.392V387.192H83.56ZM87.432 381.016V392.28H88.6V381.016H87.432ZM90.296 377.544C90.008 378.392 89.464 379.64 89.048 380.408L89.976 380.744C90.44 380.024 90.984 378.904 91.464 377.928L90.296 377.544ZM84.744 378.008C85.256 378.872 85.768 380.04 85.944 380.792L86.984 380.376C86.792 379.64 86.264 378.504 85.72 377.656L84.744 378.008ZM78.36 382.408V383.368H83.128V382.408H78.36ZM78.44 378.136V379.096H83.096V378.136H78.44ZM78.36 384.552V385.512H83.128V384.552H78.36ZM77.608 380.232V381.224H83.688V380.232H77.608ZM78.936 386.712V387.704H82.072V390.376H78.936V391.384H83.128V386.712H78.936ZM78.344 386.712V392.12H79.384V386.712H78.344ZM103.464 379.336V390.776H104.536V379.336H103.464ZM100.296 378.84V392.088H101.384V379.96H106.744V391.96H107.864V378.84H100.296ZM100.888 384.392V385.496H107.24V384.392H100.888ZM100.888 390.104V391.208H107.192V390.104H100.888ZM96.312 385.096V392.264H97.384V385.096H96.312ZM96.152 377.56C95.736 378.632 94.984 380.184 94.36 381.112L95.208 381.496C95.832 380.6 96.616 379.176 97.224 377.992L96.152 377.56ZM98.12 379.4C97.24 381.096 95.688 383.48 94.456 384.888L95.208 385.32C96.44 383.944 98.024 381.672 99.144 379.896L98.12 379.4ZM93.592 380.984C94.44 381.72 95.432 382.808 95.848 383.544L96.488 382.616C96.056 381.928 95.064 380.904 94.2 380.184L93.592 380.984ZM97.672 383.064C98.36 384.12 99.048 385.544 99.304 386.44L100.264 385.976C99.992 385.08 99.288 383.704 98.584 382.664L97.672 383.064ZM93.48 384.632L93.656 385.736C95.208 385.592 97.256 385.4 99.256 385.224L99.24 384.248C97.096 384.408 94.936 384.552 93.48 384.632ZM97.96 386.936C98.408 387.928 98.84 389.24 98.984 390.088L99.992 389.752C99.8 388.904 99.352 387.624 98.888 386.648L97.96 386.936ZM94.472 386.696C94.296 388.104 93.992 389.544 93.464 390.52C93.736 390.616 94.216 390.84 94.424 390.968C94.92 389.944 95.304 388.392 95.512 386.888L94.472 386.696ZM110.536 378.744C111.656 379.096 113.144 379.672 113.896 380.088L114.424 379.16C113.656 378.76 112.168 378.216 111.064 377.928L110.536 378.744ZM109.736 382.12L110.2 383.176C111.416 382.808 112.92 382.312 114.376 381.848L114.248 380.904C112.584 381.368 110.888 381.848 109.736 382.12ZM116.6 378.744L115.896 379.656H123.032V378.744H116.6ZM122.712 378.744V378.92C122.392 379.592 121.848 380.392 121.336 380.888L122.296 381.224C122.872 380.664 123.464 379.768 123.912 378.936L123.112 378.696L122.904 378.744H122.712ZM118.584 379.064C118.312 380.888 117.448 381.88 114.488 382.376C114.696 382.584 114.952 382.984 115.064 383.24C118.328 382.584 119.352 381.336 119.688 379.064H118.584ZM119.64 379.352L118.664 379.448C119.08 381.128 119.88 382.856 123.672 383.512C123.8 383.208 124.072 382.776 124.296 382.536C120.744 382.024 119.96 380.712 119.64 379.352ZM116.856 377.56C116.44 378.52 115.624 379.624 114.424 380.44C114.712 380.568 115.128 380.824 115.336 381.048C116.584 380.088 117.4 378.904 117.944 377.736L116.856 377.56ZM113.048 385.928H121.112V387.016H113.048V385.928ZM113.048 387.8H121.112V388.92H113.048V387.8ZM113.048 384.056H121.112V385.144H113.048V384.056ZM111.88 383.256V389.72H122.312V383.256H111.88ZM118.328 390.536C120.072 391.112 121.816 391.8 122.824 392.328L124.152 391.72C123 391.176 121.064 390.472 119.304 389.928L118.328 390.536ZM114.568 389.896C113.416 390.52 111.496 391.08 109.848 391.432C110.12 391.64 110.536 392.104 110.728 392.344C112.328 391.896 114.36 391.16 115.656 390.392L114.568 389.896ZM131.768 378.376V379.528H138.12V378.376H131.768ZM131.608 383.832V384.968H136.968V383.832H131.608ZM133.784 379.032V382.904C133.784 385.72 133.544 388.952 130.984 391.496C131.272 391.672 131.688 392.072 131.88 392.328C134.648 389.576 134.936 386.04 134.936 382.904V379.032H133.784ZM137.512 378.376C137.528 385.768 137.368 391.624 139.256 392.216C140.072 392.536 140.6 391.976 140.792 389.32C140.6 389.16 140.264 388.76 140.04 388.472C139.992 389.816 139.864 391 139.736 390.968C138.616 390.712 138.664 385.192 138.744 378.376H137.512ZM126.36 382.408V383.368H131.048V382.408H126.36ZM126.408 378.136V379.096H130.984V378.136H126.408ZM126.36 384.552V385.512H131.048V384.552H126.36ZM125.608 380.232V381.224H131.576V380.232H125.608ZM126.888 386.712V387.704H129.992V390.376H126.888V391.384H131.048V386.712H126.888ZM126.344 386.712V392.12H127.384V386.712H126.344ZM144.104 387.112C142.76 387.112 141.656 388.2 141.656 389.544C141.656 390.888 142.76 391.976 144.104 391.976C145.448 391.976 146.536 390.888 146.536 389.544C146.536 388.2 145.448 387.112 144.104 387.112ZM144.104 391.16C143.208 391.16 142.472 390.44 142.472 389.544C142.472 388.648 143.208 387.928 144.104 387.928C145 387.928 145.72 388.648 145.72 389.544C145.72 390.44 145 391.16 144.104 391.16Z" fill="#7E7E7E"/>
<path d="M155 146H62V136C62 133.239 64.2386 131 67 131H150C152.761 131 155 133.239 155 136V146Z" fill="#FFC43D" stroke="#002B51" stroke-width="3" stroke-linecap="round"/>
<path d="M62 147V211.5C62 214.261 64.2386 216.5 67 216.5H124.5" stroke="#002B51" stroke-width="3" stroke-linecap="round"/>
<path d="M155 147V167" stroke="#002B51" stroke-width="3" stroke-linecap="round"/>
<path d="M74 161H88" stroke="#002B51" stroke-width="3" stroke-linecap="round"/>
<path d="M101 161H115" stroke="#002B51" stroke-width="3" stroke-linecap="round"/>
<path d="M128 161H142" stroke="#002B51" stroke-width="3" stroke-linecap="round"/>
<path d="M74 176H88" stroke="#002B51" stroke-width="3" stroke-linecap="round"/>
<path d="M101 176H115" stroke="#002B51" stroke-width="3" stroke-linecap="round"/>
<path d="M74 191H88" stroke="#002B51" stroke-width="3" stroke-linecap="round"/>
<path d="M101 191H115" stroke="#002B51" stroke-width="3" stroke-linecap="round"/>
<circle cx="147.5" cy="194.5" r="23.5" fill="#FF715C"/>
<path d="M136 196.5L142.723 205.464C143.116 205.988 143.898 205.999 144.306 205.487L161 184.5" stroke="white" stroke-width="4" stroke-linecap="round"/>
<defs>
<filter id="filter0_d_466_1278" x="0" y="17" width="230" height="449" filterUnits="userSpaceOnUse" color-interpolation-filters="sRGB">
<feFlood flood-opacity="0" result="BackgroundImageFix"/>
<feColorMatrix in="SourceAlpha" type="matrix" values="0 0 0 0 0 0 0 0 0 0 0 0 0 0 0 0 0 0 127 0" result="hardAlpha"/>
<feOffset dy="4"/>
<feGaussianBlur stdDeviation="4.5"/>
<feComposite in2="hardAlpha" operator="out"/>
<feColorMatrix type="matrix" values="0 0 0 0 0 0 0 0 0 0 0 0 0 0 0 0 0 0 0.25 0"/>
<feBlend mode="normal" in2="BackgroundImageFix" result="effect1_dropShadow_466_1278"/>
<feBlend mode="normal" in="SourceGraphic" in2="effect1_dropShadow_466_1278" result="shape"/>
</filter>
</defs>
</svg>
