<svg width="255" height="466" viewBox="0 0 255 466" fill="none" xmlns="http://www.w3.org/2000/svg">
<g filter="url(#filter0_d_466_1275)">
<path d="M9 22H181C203.091 22 221 39.9086 221 62V453H49C26.9086 453 9 435.091 9 413V22Z" fill="white"/>
</g>
<path d="M70.024 278.472V279.96H81.928V278.472H70.024ZM69.568 282.576V284.112H82.432V282.576H69.568ZM77.56 278.952V289.488H79.192V278.952H77.56ZM72.64 279.024V283.392C72.64 284.712 72.136 287.256 69.712 288.744C70.12 288.984 70.672 289.488 70.912 289.824C73.624 288 74.2 284.856 74.2 283.392V279.024H72.64ZM67.048 272.208V273.504H73.792V272.208H67.048ZM78.112 272.208V273.504H84.904V272.208H78.112ZM84.208 268.872V287.592C84.208 287.952 84.088 288.096 83.704 288.096C83.32 288.12 82.024 288.12 80.704 288.072C80.968 288.576 81.208 289.416 81.28 289.896C83.104 289.896 84.304 289.872 85.024 289.56C85.744 289.248 85.984 288.672 85.984 287.592V268.872H84.208ZM67.192 268.872V270.264H73.192V275.592H67.192V276.96H74.896V268.872H67.192ZM85.072 268.872H77.008V276.984H85.072V275.616H78.736V270.264H85.072V268.872ZM66.112 268.872V289.944H67.888V268.872H66.112ZM100.672 287.232V288.864H109.048V287.232H100.672ZM99.736 280.2V289.944H101.464V281.856H108.208V289.848H109.984V280.2H99.736ZM98.104 276.168L98.32 277.944C101.296 277.752 105.592 277.416 109.648 277.104L109.672 275.496C105.4 275.784 100.936 276.024 98.104 276.168ZM106.048 272.304C107.632 274.344 109.24 277.08 109.816 278.88L111.4 278.016C110.752 276.24 109.096 273.552 107.488 271.56L106.048 272.304ZM102.784 267.84C102.112 270.528 100.816 274.368 99.736 276.696L101.272 277.128C102.4 274.848 103.768 271.176 104.752 268.248L102.784 267.84ZM89.032 272.808V274.512H96.952V272.808H89.032ZM92.68 267.84C91.84 272.4 90.352 278.856 89.272 282.504L90.76 283.32C91.888 279.312 93.424 272.832 94.408 268.032L92.68 267.84ZM90.232 281.784C92.92 283.344 96.04 285.768 97.456 287.568L98.56 286.104C97.12 284.328 93.928 282.024 91.24 280.512L90.232 281.784ZM96.256 272.808V273.192C95.68 281.328 93.16 286.44 89.176 288.552C89.56 288.912 90.04 289.56 90.304 289.992C94.72 287.352 97.312 282.264 97.96 272.976L96.88 272.76L96.568 272.808H96.256ZM117.448 276.048H130.624V279.672H117.448V276.048ZM115.912 274.824V280.896H132.256V274.824H115.912ZM119.848 272.232V273.504H128.224V272.232H119.848ZM123.136 275.208V280.224H124.672V275.208H123.136ZM123.88 269.304C126.328 271.656 130.648 274.032 134.176 275.256C134.44 274.8 134.848 274.152 135.232 273.768C131.512 272.664 127.336 270.456 124.624 267.84H122.92C120.928 270.168 116.872 272.616 112.792 274.008C113.128 274.392 113.536 275.016 113.752 275.424C117.736 273.936 121.744 271.488 123.88 269.304ZM118.912 276.768C119.512 277.632 120.064 278.808 120.256 279.576L121.648 279.072C121.408 278.304 120.832 277.176 120.208 276.336L118.912 276.768ZM127.552 276.24C127.264 277.056 126.64 278.328 126.184 279.144L127.456 279.576C127.936 278.856 128.536 277.752 129.088 276.72L127.552 276.24ZM117.328 282.048V289.92H119.104V283.32H129.064V289.896H130.888V282.048H117.328ZM118.384 284.928V286.248H129.856V284.928H118.384ZM118.384 287.88V289.176H129.856V287.88H118.384ZM151.24 273.96C153.472 275.328 156.376 277.296 157.768 278.592L158.968 277.224C157.48 275.952 154.576 274.056 152.368 272.784L151.24 273.96ZM152.512 277.824H151.6V281.28C151.6 282.672 150.736 286.56 145.144 288.504C145.48 288.864 145.984 289.56 146.176 289.944C150.424 288.408 152.128 285.384 152.488 283.92C152.848 285.36 154.456 288.504 158.152 289.944C158.392 289.536 158.896 288.84 159.232 288.408C154.216 286.56 153.4 282.648 153.4 281.28V277.824H152.512ZM151.744 267.864C151.528 272.976 150.832 275.856 145.888 277.344C146.272 277.704 146.728 278.352 146.896 278.784C152.32 276.96 153.232 273.624 153.52 267.864H151.744ZM148.192 269.448C147.976 271.008 147.28 272.592 146.296 273.432L147.688 274.104C148.816 273.12 149.464 271.368 149.704 269.784L148.192 269.448ZM147.952 279.792C147.64 281.496 146.872 283.152 145.696 283.992L147.136 284.856C148.456 283.8 149.224 281.928 149.536 280.104L147.952 279.792ZM156.76 269.328C156.328 270.504 155.44 272.208 154.744 273.24L156.088 273.792C156.808 272.808 157.72 271.296 158.488 269.952L156.76 269.328ZM157.024 279.624C156.496 280.896 155.536 282.72 154.792 283.824L156.16 284.4C156.976 283.344 157.96 281.664 158.776 280.248L157.024 279.624ZM138.04 275.112V276.552H145.072V275.112H138.04ZM138.112 268.704V270.144H144.976V268.704H138.112ZM138.04 278.328V279.768H145.072V278.328H138.04ZM136.912 271.848V273.336H145.864V271.848H136.912ZM138.832 281.568V283.056H143.488V287.064H138.832V288.576H145.072V281.568H138.832ZM138.016 281.568V289.68H139.576V281.568H138.016Z" fill="#002B51"/>
<circle cx="114" cy="29" r="29" fill="#002B51"/>
<path d="M112.159 40.3182C110.644 40.3182 109.288 40.0341 108.091 39.4659C106.894 38.8902 105.943 38.1023 105.239 37.1023C104.542 36.1023 104.17 34.9583 104.125 33.6705H108.216C108.292 34.625 108.705 35.4053 109.455 36.0114C110.205 36.6098 111.106 36.9091 112.159 36.9091C112.985 36.9091 113.72 36.7197 114.364 36.3409C115.008 35.9621 115.515 35.4356 115.886 34.7614C116.258 34.0871 116.439 33.3182 116.432 32.4545C116.439 31.5758 116.254 30.7955 115.875 30.1136C115.496 29.4318 114.977 28.8977 114.318 28.5114C113.659 28.1174 112.902 27.9205 112.045 27.9205C111.348 27.9129 110.663 28.0417 109.989 28.3068C109.314 28.572 108.78 28.9205 108.386 29.3523L104.58 28.7273L105.795 16.7273H119.295V20.25H109.284L108.614 26.4205H108.75C109.182 25.9129 109.792 25.4924 110.58 25.1591C111.367 24.8182 112.231 24.6477 113.17 24.6477C114.58 24.6477 115.837 24.9811 116.943 25.6477C118.049 26.3068 118.92 27.2159 119.557 28.375C120.193 29.5341 120.511 30.8598 120.511 32.3523C120.511 33.8902 120.155 35.2614 119.443 36.4659C118.739 37.6629 117.758 38.6061 116.5 39.2955C115.25 39.9773 113.803 40.3182 112.159 40.3182Z" fill="white"/>
<path d="M46.384 327.368V328.536H57.552V327.368H46.384ZM46.384 332.104V333.288H57.504V332.104H46.384ZM45.824 322.68V334.28H47.008V323.88H56.96V334.216H58.192V322.68H45.824ZM51.328 319.576V332.728H52.56V319.576H51.328ZM60.736 329.72V330.712H75.264V329.72H60.736ZM61.2 320.808V321.768H74.608V320.808H61.2ZM70.272 328.68V332.968C70.272 333.176 70.192 333.24 69.936 333.256C69.664 333.272 68.768 333.272 67.808 333.24C67.968 333.544 68.128 333.976 68.176 334.28C69.472 334.28 70.288 334.28 70.8 334.12C71.296 333.944 71.424 333.624 71.424 333V328.68H70.272ZM67.376 319.592V328.168H68.56V319.592H67.376ZM63.296 331.384C64.256 331.976 65.376 332.856 65.92 333.496L66.8 332.696C66.24 332.072 65.056 331.224 64.112 330.68L63.296 331.384ZM63.568 325.24H72.464V326.232H63.568V325.24ZM63.568 323.48H72.464V324.456H63.568V323.48ZM62.432 322.68V327.048H73.632V322.68H62.432ZM70.368 327.384C71.632 327.816 73.152 328.648 73.936 329.288L74.656 328.6C73.856 328.008 72.336 327.208 71.056 326.776L70.368 327.384ZM61.376 327.976L61.424 328.92C64.448 328.872 68.992 328.776 73.264 328.664L73.328 327.848C68.944 327.928 64.288 327.976 61.376 327.976ZM77.008 329.448V330.456H91.024V329.448H77.008ZM77.072 322.424V323.448H90.96V322.424H77.072ZM77.712 325.16V326.152H90.384V325.16H77.712ZM78.528 327.32V328.248H89.6V327.32H78.528ZM83.376 325.624V334.296H84.56V325.624H83.376ZM81.904 319.56V322.904H83.04V319.56H81.904ZM84.928 319.56V322.856H86.08V319.56H84.928ZM82.992 329.848C81.632 331.24 78.96 332.472 76.592 333C76.848 333.256 77.2 333.72 77.376 334.024C79.76 333.352 82.464 331.96 83.952 330.296L82.992 329.848ZM84.944 329.816L84 330.216C85.504 331.944 88.176 333.4 90.608 334.072C90.784 333.736 91.152 333.256 91.424 333C88.992 332.488 86.304 331.256 84.944 329.816ZM88.64 319.752C88.368 320.488 87.84 321.544 87.408 322.216L88.384 322.536C88.832 321.912 89.408 320.968 89.872 320.088L88.64 319.752ZM86.496 323.144C86.304 323.72 85.888 324.552 85.568 325.112L86.576 325.416C86.928 324.904 87.344 324.168 87.744 323.448L86.496 323.144ZM78.368 320.088C78.88 320.84 79.456 321.864 79.68 322.504L80.752 322.104C80.528 321.448 79.936 320.44 79.392 319.72L78.368 320.088ZM80.448 323.56C80.8 324.088 81.152 324.84 81.28 325.32L82.464 325.064C82.32 324.584 81.952 323.864 81.584 323.336L80.448 323.56ZM94.096 322.136V323.208H97.84V331.512H94.096V332.6H98.96V322.136H94.096ZM93.376 322.136V333.88H94.496V322.136H93.376ZM94.016 326.584V327.656H98.432V326.584H94.016ZM95.824 319.528C95.696 320.36 95.392 321.576 95.12 322.344L96.08 322.584C96.4 321.864 96.8 320.76 97.12 319.768L95.824 319.528ZM101.232 322.088V323.208H106.144V322.088H101.232ZM105.728 322.088V322.344C105.504 329.4 105.248 332.056 104.72 332.632C104.544 332.84 104.352 332.888 104.032 332.888C103.664 332.888 102.704 332.872 101.664 332.792C101.888 333.112 102.032 333.608 102.064 333.96C102.96 334.008 103.904 334.04 104.448 333.976C105.008 333.928 105.376 333.784 105.728 333.32C106.368 332.536 106.592 330.056 106.848 322.712C106.848 322.536 106.848 322.088 106.848 322.088H105.728ZM101.568 319.496C101.056 321.72 100.176 323.928 99.088 325.336C99.376 325.496 99.872 325.832 100.08 326.024C101.184 324.504 102.128 322.152 102.72 319.768L101.568 319.496ZM100.832 326.248C101.712 327.416 102.784 329 103.264 329.976L104.288 329.336C103.776 328.392 102.672 326.84 101.76 325.704L100.832 326.248ZM112.864 324.04V332.072C112.864 333.64 113.36 334.072 115.056 334.072C115.424 334.072 117.808 334.072 118.192 334.072C119.936 334.072 120.304 333.176 120.48 330.152C120.128 330.072 119.632 329.848 119.344 329.608C119.216 332.376 119.072 332.968 118.128 332.968C117.584 332.968 115.568 332.968 115.168 332.968C114.288 332.968 114.096 332.824 114.096 332.072V324.04H112.864ZM112.992 320.552C114.928 321.24 117.264 322.44 118.496 323.368L119.264 322.312C118 321.448 115.68 320.296 113.744 319.64L112.992 320.552ZM110.192 325.32C109.968 327.4 109.44 329.736 108.368 331.144L109.456 331.8C110.608 330.264 111.104 327.704 111.344 325.56L110.192 325.32ZM119.52 325.336C120.88 327.144 122.08 329.64 122.432 331.32L123.632 330.744C123.232 329.048 122.032 326.632 120.592 324.808L119.52 325.336ZM131.6 324.376H137.552V326.44H131.6V324.376ZM131.6 321.352H137.552V323.384H131.6V321.352ZM130.512 320.312V327.48H138.704V320.312H130.512ZM130.304 329.352V330.456H138.928V329.352H130.304ZM129.072 332.664V333.752H139.456V332.664H129.072ZM124.72 320.648V321.784H129.712V320.648H124.72ZM124.896 325.272V326.408H129.488V325.272H124.896ZM124.56 331.4L124.848 332.632C126.272 332.152 128.096 331.544 129.84 330.952L129.632 329.8C127.776 330.424 125.856 331.048 124.56 331.4ZM126.72 321.096V331.24L127.872 331.016V321.096H126.72ZM134.048 320.808V326.968H133.968V333.16H135.184V326.968H135.104V320.808H134.048ZM141.76 321.976V323.016H145.008V325.368H141.76V326.424H146.096V321.976H141.76ZM141.776 327.896V328.936H145.168V331.688H141.776V332.712H146.24V327.896H141.776ZM141.28 321.976V333.8H142.368V321.976H141.28ZM146.72 320.408V321.512H155.28V320.408H146.72ZM143.312 319.56C143.152 320.36 142.8 321.528 142.512 322.296L143.456 322.504C143.84 321.8 144.272 320.696 144.624 319.752L143.312 319.56ZM150.416 320.872V334.264H151.552V320.872H150.416ZM147.328 323.48V331.88H148.432V324.568H154.256V323.48H147.328ZM153.68 323.48V330.6C153.68 330.76 153.632 330.824 153.456 330.824C153.312 330.824 152.8 330.824 152.192 330.808C152.352 331.112 152.512 331.56 152.544 331.864C153.408 331.864 153.968 331.864 154.336 331.672C154.72 331.48 154.816 331.16 154.816 330.616V323.48H153.68ZM160.016 326.648V327.64H167.952V326.648H160.016ZM159.712 329.384V330.408H168.288V329.384H159.712ZM165.04 326.968V333.992H166.128V326.968H165.04ZM161.76 327.016V329.928C161.76 330.808 161.424 332.504 159.808 333.496C160.08 333.656 160.448 333.992 160.608 334.216C162.416 333 162.8 330.904 162.8 329.928V327.016H161.76ZM158.032 322.472V323.336H162.528V322.472H158.032ZM165.408 322.472V323.336H169.936V322.472H165.408ZM169.472 320.248V332.728C169.472 332.968 169.392 333.064 169.136 333.064C168.88 333.08 168.016 333.08 167.136 333.048C167.312 333.384 167.472 333.944 167.52 334.264C168.736 334.264 169.536 334.248 170.016 334.04C170.496 333.832 170.656 333.448 170.656 332.728V320.248H169.472ZM158.128 320.248V321.176H162.128V324.728H158.128V325.64H163.264V320.248H158.128ZM170.048 320.248H164.672V325.656H170.048V324.744H165.824V321.176H170.048V320.248ZM157.408 320.248V334.296H158.592V320.248H157.408ZM180.448 332.488V333.576H186.032V332.488H180.448ZM179.824 327.8V334.296H180.976V328.904H185.472V334.232H186.656V327.8H179.824ZM178.736 325.112L178.88 326.296C180.864 326.168 183.728 325.944 186.432 325.736L186.448 324.664C183.6 324.856 180.624 325.016 178.736 325.112ZM184.032 322.536C185.088 323.896 186.16 325.72 186.544 326.92L187.6 326.344C187.168 325.16 186.064 323.368 184.992 322.04L184.032 322.536ZM181.856 319.56C181.408 321.352 180.544 323.912 179.824 325.464L180.848 325.752C181.6 324.232 182.512 321.784 183.168 319.832L181.856 319.56ZM172.688 322.872V324.008H177.968V322.872H172.688ZM175.12 319.56C174.56 322.6 173.568 326.904 172.848 329.336L173.84 329.88C174.592 327.208 175.616 322.888 176.272 319.688L175.12 319.56ZM173.488 328.856C175.28 329.896 177.36 331.512 178.304 332.712L179.04 331.736C178.08 330.552 175.952 329.016 174.16 328.008L173.488 328.856ZM177.504 322.872V323.128C177.12 328.552 175.44 331.96 172.784 333.368C173.04 333.608 173.36 334.04 173.536 334.328C176.48 332.568 178.208 329.176 178.64 322.984L177.92 322.84L177.712 322.872H177.504ZM46.208 349.152V350.272H49.92V349.152H46.208ZM46.208 352.896V354.016H49.952V352.896H46.208ZM52.448 354.64V355.76H58.256V354.64H52.448ZM46.176 356.736V357.872H49.92V356.736H46.176ZM45.712 349.152V354.912C45.712 357.264 45.632 360.48 44.528 362.736C44.816 362.848 45.296 363.12 45.52 363.312C46.656 360.944 46.816 357.408 46.816 354.912V349.152H45.712ZM49.248 349.152V361.84C49.248 362.064 49.168 362.128 48.944 362.144C48.752 362.16 48.08 362.16 47.328 362.144C47.488 362.448 47.632 362.992 47.68 363.28C48.768 363.296 49.408 363.264 49.824 363.072C50.224 362.864 50.368 362.496 50.368 361.856V349.152H49.248ZM57.424 349.2V352.288C57.424 352.48 57.36 352.544 57.104 352.544C56.848 352.56 56 352.56 55.04 352.544C55.184 352.832 55.36 353.232 55.424 353.568C56.64 353.568 57.44 353.568 57.936 353.392C58.448 353.216 58.576 352.896 58.576 352.304V349.2H57.424ZM57.936 354.64V354.864C57.248 358.368 55.264 361.104 52.992 362.304C53.232 362.512 53.552 362.928 53.696 363.2C56.192 361.712 58.24 358.944 59.04 354.848L58.336 354.608L58.144 354.64H57.936ZM54.24 355.328L53.28 355.584C54.288 358.992 56.144 361.888 58.736 363.296C58.912 363.024 59.248 362.608 59.52 362.384C57.008 361.168 55.152 358.432 54.24 355.328ZM51.776 349.2V363.28H52.912V350.32H57.744V349.2H51.776ZM60.912 349.36V350.4H66.368V349.36H60.912ZM67.088 357.536V358.576H74.032V357.536H67.088ZM60.736 354.192V355.264H66.752V354.192H60.736ZM63.536 354.624V361.888C63.536 362.064 63.472 362.112 63.296 362.128C63.104 362.128 62.464 362.128 61.776 362.112C61.936 362.432 62.096 362.928 62.128 363.232C63.12 363.232 63.744 363.216 64.144 363.04C64.576 362.832 64.688 362.512 64.688 361.888V354.624H63.536ZM73.616 357.536V357.728C73.376 360.528 73.088 361.648 72.752 361.968C72.608 362.112 72.464 362.128 72.208 362.128C71.952 362.128 71.312 362.112 70.624 362.048C70.8 362.368 70.912 362.848 70.944 363.168C71.664 363.216 72.368 363.216 72.736 363.184C73.168 363.152 73.456 363.056 73.744 362.768C74.208 362.288 74.496 361.072 74.8 358.064C74.832 357.888 74.848 357.536 74.848 357.536H73.616ZM70.08 355.952C69.808 358.72 69.184 361.136 65.856 362.368C66.112 362.576 66.432 363.008 66.576 363.296C70.192 361.888 70.976 359.184 71.28 355.952H70.08ZM61.472 352.032C62.832 352.64 64.464 353.648 65.264 354.384L66.064 353.504C65.232 352.768 63.568 351.824 62.224 351.264L61.472 352.032ZM66.432 354.192V354.4C66.176 355.552 65.776 356.976 65.36 357.856L66.208 358.272C66.704 357.28 67.184 355.744 67.52 354.4L66.784 354.144L66.608 354.192H66.432ZM72.848 350.736C71.984 353.216 69.744 354.64 66.832 355.376C67.072 355.632 67.44 356.128 67.584 356.384C70.608 355.44 73.008 353.84 74.08 350.944L72.848 350.736ZM69.424 348.56C68.784 350.096 67.616 351.552 66.352 352.496C66.656 352.656 67.136 352.992 67.344 353.2C68.576 352.176 69.808 350.576 70.56 348.864L69.424 348.56ZM69.136 351.072L68.144 351.408C69.424 353.872 71.824 355.664 74.752 356.448C74.912 356.128 75.264 355.664 75.52 355.424C72.672 354.8 70.288 353.2 69.136 351.072ZM63.392 354.544C62.864 356.384 61.728 358.48 60.576 359.568C60.784 359.856 61.072 360.352 61.2 360.688C62.448 359.44 63.6 356.96 64.208 354.848L63.392 354.544ZM69.072 350.256L68.576 351.28H75.184V350.256H69.072ZM66.08 349.36V349.584C65.552 350.448 64.432 351.616 63.408 352.288C63.648 352.432 64.016 352.688 64.224 352.88C65.328 352.144 66.576 350.928 67.312 349.808L66.528 349.312L66.336 349.36H66.08ZM79.104 358.112C77.76 358.112 76.656 359.2 76.656 360.544C76.656 361.888 77.76 362.976 79.104 362.976C80.448 362.976 81.536 361.888 81.536 360.544C81.536 359.2 80.448 358.112 79.104 358.112ZM79.104 362.16C78.208 362.16 77.472 361.44 77.472 360.544C77.472 359.648 78.208 358.928 79.104 358.928C80 358.928 80.72 359.648 80.72 360.544C80.72 361.44 80 362.16 79.104 362.16Z" fill="#7E7E7E"/>
<rect x="127.327" y="109" width="44.9032" height="30.9868" rx="7.58333" fill="#74CADD"/>
<line x1="134.107" y1="119.041" x2="165.451" y2="119.041" stroke="#002B51" stroke-width="2.33333" stroke-linecap="round"/>
<line x1="1.16667" y1="-1.16667" x2="16.9194" y2="-1.16667" transform="matrix(1 0 0 -1 148.532 124.823)" stroke="#002B51" stroke-width="2.33333" stroke-linecap="round"/>
<path d="M149.066 148.557V139.657H157.486L149.066 148.557Z" fill="#74CADD"/>
<path d="M74.5469 174.877V142.673C74.9545 137.645 79.2756 127.509 93.2985 127.182C107.322 126.856 111.371 137.374 111.643 142.673V174.877" stroke="#002B51" stroke-width="3" stroke-linecap="round"/>
<path d="M81.0693 145.934C86.2872 146.586 91.1246 142.401 92.891 140.227C96.1522 144.793 102.403 145.934 105.12 145.934V156.533C104.169 159.522 100.392 165.501 92.891 165.501C85.3904 165.501 81.8846 159.522 81.0693 156.533V145.934Z" stroke="#002B51" stroke-width="3" stroke-linecap="round" stroke-linejoin="round"/>
<path d="M90.0371 156.533C89.9012 157.62 90.6894 159.794 93.2983 159.794C95.9073 159.794 96.1518 157.62 96.1518 156.533" stroke="#002B51" stroke-width="3" stroke-linecap="round" stroke-linejoin="round"/>
<path d="M60.5071 204.152C59.4381 190.253 65.8529 174.217 86.7761 172.023" stroke="#002B51" stroke-width="3" stroke-linecap="round" stroke-linejoin="round"/>
<path d="M99.4131 172.023C104.876 172.023 113.964 173.682 122.517 186.512" stroke="#002B51" stroke-width="3" stroke-linecap="round" stroke-linejoin="round"/>
<path d="M86.7759 164.278V172.023C87.4553 173.382 88.8141 176.507 92.8905 176.507C96.168 176.507 98.3258 173.654 99.0052 172.023V164.278" stroke="#002B51" stroke-width="3" stroke-linecap="round" stroke-linejoin="round"/>
<path d="M74.1392 176.507L83.1073 185.883V192.813L92.8908 204.227L103.897 192.813L102.674 185.883L112.05 175.692" stroke="#002B51" stroke-width="3" stroke-linecap="round" stroke-linejoin="round"/>
<path d="M86.3682 172.839L92.8905 203.412" stroke="#002B51" stroke-width="3" stroke-linecap="round" stroke-linejoin="round"/>
<path d="M99.413 172.023L93.2983 202.597" stroke="#002B51" stroke-width="3" stroke-linecap="round" stroke-linejoin="round"/>
<path d="M93.2983 203.412V216.456" stroke="#002B51" stroke-width="3" stroke-linecap="round" stroke-linejoin="round"/>
<circle cx="139" cy="172" r="11.5" stroke="#002B51" stroke-width="3"/>
<path d="M110.142 225C109.076 214 113.551 192 139.975 192C166.398 192 170.163 214 168.742 225" stroke="#002B51" stroke-width="3" stroke-linecap="round"/>
<path d="M255 236.5L220 201V271L255 236.5Z" fill="#002B51"/>
<defs>
<filter id="filter0_d_466_1275" x="0" y="17" width="230" height="449" filterUnits="userSpaceOnUse" color-interpolation-filters="sRGB">
<feFlood flood-opacity="0" result="BackgroundImageFix"/>
<feColorMatrix in="SourceAlpha" type="matrix" values="0 0 0 0 0 0 0 0 0 0 0 0 0 0 0 0 0 0 127 0" result="hardAlpha"/>
<feOffset dy="4"/>
<feGaussianBlur stdDeviation="4.5"/>
<feComposite in2="hardAlpha" operator="out"/>
<feColorMatrix type="matrix" values="0 0 0 0 0 0 0 0 0 0 0 0 0 0 0 0 0 0 0.25 0"/>
<feBlend mode="normal" in2="BackgroundImageFix" result="effect1_dropShadow_466_1275"/>
<feBlend mode="normal" in="SourceGraphic" in2="effect1_dropShadow_466_1275" result="shape"/>
</filter>
</defs>
</svg>
