<svg width="1001" height="402" viewBox="0 0 1001 402" fill="none" xmlns="http://www.w3.org/2000/svg">
<rect x="155.398" y="10.0818" width="71.6448" height="52.1305" rx="12.8268" fill="#002B51"/>
<path d="M225.789 45.7603L213.27 60.4106C213.029 60.6923 213.044 61.1116 213.305 61.375L225.825 74.0144C226.273 74.4666 227.044 74.1494 227.044 73.5129V46.2232C227.044 45.5611 226.219 45.2569 225.789 45.7603Z" fill="#002B51"/>
<path d="M468.039 248.832H175.58C175.58 261.267 183.475 264.16 187.423 264.052H455.867C467.447 263.793 468.806 253.797 468.039 248.832Z" fill="#002B51"/>
<path d="M187.421 95.7593V245.438C187.421 251.516 192.348 256.443 198.427 256.443H444.522C450.6 256.443 455.528 251.516 455.528 245.438V95.7593C455.528 89.6811 450.6 84.7537 444.522 84.7537H198.427C192.348 84.7537 187.421 89.681 187.421 95.7593Z" fill="#002B51"/>
<path d="M447.915 98.2861H194.187V248.832H447.915V98.2861Z" fill="white"/>
<path d="M295.59 254.752L292.295 249.677H320.628H348.961L345.996 254.752H295.59Z" fill="#74CADD"/>
<path d="M203.323 115.361V114.244L207.761 108.016H203.314V106.466H210.124V107.582L205.681 113.81H210.132V115.361H203.323ZM214.555 115.491C213.88 115.491 213.297 115.348 212.805 115.061C212.315 114.771 211.937 114.369 211.671 113.854C211.405 113.335 211.271 112.734 211.271 112.051C211.271 111.362 211.405 110.76 211.671 110.244C211.937 109.726 212.315 109.324 212.805 109.037C213.297 108.748 213.88 108.603 214.555 108.603C215.229 108.603 215.811 108.748 216.301 109.037C216.793 109.324 217.172 109.726 217.439 110.244C217.705 110.76 217.838 111.362 217.838 112.051C217.838 112.734 217.705 113.335 217.439 113.854C217.172 114.369 216.793 114.771 216.301 115.061C215.811 115.348 215.229 115.491 214.555 115.491ZM214.563 114.058C214.87 114.058 215.127 113.971 215.332 113.797C215.538 113.62 215.693 113.38 215.797 113.076C215.904 112.772 215.958 112.426 215.958 112.038C215.958 111.65 215.904 111.304 215.797 111C215.693 110.696 215.538 110.456 215.332 110.279C215.127 110.103 214.87 110.014 214.563 110.014C214.254 110.014 213.993 110.103 213.782 110.279C213.573 110.456 213.415 110.696 213.308 111C213.204 111.304 213.152 111.65 213.152 112.038C213.152 112.426 213.204 112.772 213.308 113.076C213.415 113.38 213.573 113.62 213.782 113.797C213.993 113.971 214.254 114.058 214.563 114.058ZM222.511 115.556C221.764 115.553 221.122 115.369 220.583 115.004C220.047 114.64 219.635 114.111 219.345 113.419C219.059 112.727 218.917 111.895 218.92 110.922C218.92 109.952 219.063 109.125 219.35 108.442C219.639 107.759 220.052 107.239 220.587 106.883C221.126 106.524 221.767 106.344 222.511 106.344C223.255 106.344 223.895 106.524 224.431 106.883C224.969 107.242 225.384 107.763 225.673 108.446C225.963 109.127 226.106 109.952 226.103 110.922C226.103 111.898 225.958 112.732 225.669 113.424C225.382 114.116 224.971 114.644 224.435 115.009C223.9 115.374 223.258 115.556 222.511 115.556ZM222.511 113.997C223.021 113.997 223.428 113.741 223.732 113.228C224.036 112.716 224.186 111.947 224.183 110.922C224.183 110.247 224.114 109.686 223.975 109.237C223.839 108.788 223.645 108.451 223.393 108.225C223.144 107.999 222.85 107.886 222.511 107.886C222.005 107.886 221.599 108.14 221.295 108.646C220.991 109.153 220.838 109.911 220.835 110.922C220.835 111.605 220.903 112.176 221.039 112.633C221.178 113.088 221.373 113.429 221.625 113.658C221.877 113.884 222.173 113.997 222.511 113.997ZM230.475 115.491C229.801 115.491 229.217 115.348 228.725 115.061C228.236 114.771 227.858 114.369 227.592 113.854C227.325 113.335 227.192 112.734 227.192 112.051C227.192 111.362 227.325 110.76 227.592 110.244C227.858 109.726 228.236 109.324 228.725 109.037C229.217 108.748 229.801 108.603 230.475 108.603C231.15 108.603 231.732 108.748 232.221 109.037C232.714 109.324 233.093 109.726 233.359 110.244C233.626 110.76 233.759 111.362 233.759 112.051C233.759 112.734 233.626 113.335 233.359 113.854C233.093 114.369 232.714 114.771 232.221 115.061C231.732 115.348 231.15 115.491 230.475 115.491ZM230.484 114.058C230.791 114.058 231.047 113.971 231.253 113.797C231.458 113.62 231.613 113.38 231.718 113.076C231.825 112.772 231.878 112.426 231.878 112.038C231.878 111.65 231.825 111.304 231.718 111C231.613 110.696 231.458 110.456 231.253 110.279C231.047 110.103 230.791 110.014 230.484 110.014C230.174 110.014 229.914 110.103 229.702 110.279C229.494 110.456 229.336 110.696 229.229 111C229.125 111.304 229.073 111.65 229.073 112.038C229.073 112.426 229.125 112.772 229.229 113.076C229.336 113.38 229.494 113.62 229.702 113.797C229.914 113.971 230.174 114.058 230.484 114.058ZM234.962 115.361V108.69H236.725V109.867H236.803C236.942 109.476 237.174 109.167 237.498 108.942C237.822 108.716 238.21 108.603 238.662 108.603C239.12 108.603 239.509 108.717 239.83 108.946C240.152 109.172 240.366 109.479 240.473 109.867H240.543C240.679 109.484 240.925 109.179 241.281 108.95C241.64 108.719 242.064 108.603 242.553 108.603C243.176 108.603 243.681 108.801 244.069 109.198C244.46 109.592 244.656 110.15 244.656 110.874V115.361H242.81V111.239C242.81 110.868 242.711 110.59 242.514 110.405C242.318 110.22 242.071 110.127 241.776 110.127C241.44 110.127 241.178 110.234 240.99 110.449C240.802 110.66 240.708 110.939 240.708 111.287V115.361H238.914V111.2C238.914 110.873 238.82 110.612 238.632 110.418C238.446 110.224 238.202 110.127 237.898 110.127C237.692 110.127 237.507 110.179 237.342 110.284C237.18 110.385 237.051 110.528 236.955 110.714C236.86 110.896 236.812 111.11 236.812 111.356V115.361H234.962Z" fill="#161616"/>
<circle cx="313.342" cy="171.77" r="61.6431" fill="#FFC43D"/>
<path fill-rule="evenodd" clip-rule="evenodd" d="M319.506 208.756L316.493 196.956L320.464 195.897L323.616 207.728L322.588 211.838L319.506 208.756Z" fill="#FF715C"/>
<rect x="313.342" y="147.113" width="6.16431" height="14.3834" rx="1.8034" fill="#002B51"/>
<rect x="346.219" y="145.058" width="6.16431" height="14.3834" rx="1.8034" fill="#002B51"/>
<path d="M305.123 140.66C308.205 135.865 314.369 133.468 321.561 135.523" stroke="#002B51" stroke-width="3.60681" stroke-linecap="round"/>
<path d="M341.081 134.784C341.887 132.983 351.659 132.409 355.465 137.866" stroke="#002B51" stroke-width="3.60681" stroke-linecap="round"/>
<path d="M350.056 173.825C350.056 179.873 343.872 185.377 335.422 185.377C326.971 185.377 320.787 179.873 320.787 173.825C320.787 172.295 321.163 171.162 321.762 170.288C322.37 169.402 323.29 168.663 324.561 168.069C327.163 166.854 330.941 166.382 335.422 166.382C339.902 166.382 343.68 166.854 346.282 168.069C347.553 168.663 348.473 169.402 349.081 170.288C349.68 171.162 350.056 172.295 350.056 173.825Z" stroke="#002B51" stroke-width="3.60681"/>
<path d="M350.328 176.906C338.822 171.153 327.041 175.879 322.589 178.961C319.301 170.742 326.646 166.633 333.89 166.633C345.397 164.167 349.643 172.454 350.328 176.906Z" fill="#002B51"/>
<rect width="45.2049" height="65.7526" rx="5.41021" transform="matrix(1 0 -0.293206 0.956049 365.498 159.441)" fill="#FF715C"/>
<path d="M408.889 183.071C408.048 181.391 404.437 181.016 402.724 181.016H400.67H398.615C394.505 181.016 393.478 182.044 392.739 183.896C392.451 186.153 395.305 187.171 397.587 188.208C389.368 188.208 390.738 192.66 392.451 194.372C386.697 196.016 389.368 199.167 391.423 200.537C385.67 202.18 388.341 205.331 390.396 206.701C395.327 208.345 399.985 206.016 401.697 204.646C405.807 202.18 406.834 192.318 406.834 188.208C410.122 186.564 409.574 184.441 408.889 183.071Z" fill="#FFC43D"/>
<path d="M398.615 188.208C400.327 188.55 402.519 189.03 405.806 188.208" stroke="#002B51" stroke-width="1.8034" stroke-linecap="round"/>
<path d="M393.479 194.372C395.191 194.715 399.437 195.194 402.725 194.372" stroke="#002B51" stroke-width="1.8034" stroke-linecap="round"/>
<path d="M392.451 200.537C394.163 200.879 397.382 201.359 400.67 200.537" stroke="#002B51" stroke-width="1.8034" stroke-linecap="round"/>
<path d="M295.875 247.796V228.276L337.998 227.249L339.026 247.796H295.875Z" fill="#FFC43D"/>
<path d="M316.424 231.358V248.823" stroke="#002B51" stroke-width="3.60681"/>
<path d="M312.315 175.88L314.37 184.099" stroke="#FF715C" stroke-width="3.60681"/>
<path d="M270.191 179.989C275.328 188.208 286.835 202.797 299.986 191.29C313.136 179.784 321.218 186.496 323.615 191.29C323.958 192.66 323.821 196.222 320.533 195.4C319.163 194.372 315.807 191.29 313.342 191.29" stroke="#002B51" stroke-width="2.70511" stroke-linecap="round"/>
<path d="M317.451 195.399C317.793 199.509 315.396 207.934 303.067 208.755C294.848 213.207 276.355 218.002 264.027 205.673" stroke="#002B51" stroke-width="2.70511" stroke-linecap="round"/>
<rect x="624.622" y="200.636" width="230.071" height="129.162" rx="20.3358" fill="#FFC43D"/>
<rect x="732.593" y="311.635" width="108.981" height="4.03633" rx="2.01816" fill="#002B51"/>
<circle cx="703.77" cy="200.126" r="120.015" fill="#74CADD"/>
<path d="M679.043 158.513C679.043 155.849 681.204 153.688 683.868 153.688V153.688C686.533 153.688 688.693 155.849 688.693 158.513V170.575C688.693 173.24 686.533 175.4 683.868 175.4V175.4C681.204 175.4 679.043 173.24 679.043 170.575V158.513Z" fill="#002B51"/>
<path d="M624.765 159.116C624.765 156.785 626.655 154.895 628.987 154.895V154.895C631.318 154.895 633.208 156.785 633.208 159.116V171.178C633.208 173.51 631.318 175.4 628.987 175.4V175.4C626.655 175.4 624.765 173.51 624.765 171.178V159.116Z" fill="#002B51"/>
<path d="M649.085 226.979C646.472 225.371 640.28 222.637 636.42 224.567" stroke="#002B51" stroke-width="4.78489"/>
<path d="M680.018 192.347C680.018 200.863 671.075 208.651 658.818 208.651C646.561 208.651 637.618 200.863 637.618 192.347C637.618 190.195 638.159 188.725 638.979 187.654C639.818 186.559 641.111 185.671 642.964 184.987C646.776 183.579 652.259 183.273 658.818 183.273C665.377 183.273 670.859 183.579 674.672 184.987C676.525 185.671 677.818 186.559 678.657 187.654C679.476 188.725 680.018 190.195 680.018 192.347Z" stroke="#002B51" stroke-width="4.78489"/>
<path d="M677.254 200.986C665.412 181.235 642.598 190.441 639.012 198.807C633.638 183.878 650.759 182.234 654.929 181.834L654.937 181.833C678.449 183.868 682.864 190.213 677.254 200.986Z" fill="#002B51"/>
<path d="M619.689 148.017C623.786 142.436 633.21 137.971 641.2 148.017" stroke="#002B51" stroke-width="4.78489" stroke-linecap="round"/>
<path d="M673.467 136.7C679.18 133.432 692.442 133.939 698.563 143.236" stroke="#002B51" stroke-width="4.78489" stroke-linecap="round"/>
<path d="M859.215 226.886C898.49 185.838 836.864 170.748 801.141 168.333L792.161 209.38L819.102 213.606L781.384 245.598C765.578 260.569 774.798 275.579 781.384 281.213C799.584 297.632 814.113 284.432 819.102 275.78C823.293 264.311 815.111 257.269 807.128 254.653C827.723 253.204 850.434 235.538 859.215 226.886Z" fill="#74CADD"/>
<path d="M759.511 200.599L825.239 212.126L775.046 240.036C768.961 246.103 765.353 269.03 781.42 283.104C801.504 300.698 837.411 275.218 809.415 257.625" stroke="#002B51" stroke-width="4.78489"/>
<path d="M818.09 19.1636L818.688 29.9191" stroke="#FFC43D" stroke-width="3.58867" stroke-linecap="round"/>
<path d="M844.382 21.554L839.645 32.006" stroke="#74CADD" stroke-width="3.58867" stroke-linecap="round"/>
<path d="M862.307 40.6747L851.152 46.0649" stroke="#FFC43D" stroke-width="3.58867" stroke-linecap="round"/>
<rect x="806.045" y="78.5129" width="24.737" height="34.8567" rx="12.3685" transform="rotate(14.0338 806.045 78.5129)" fill="#74CADD"/>
<circle cx="822.135" cy="65.1491" r="26.9858" transform="rotate(14.0338 822.135 65.1491)" fill="#FFC43D"/>
<path d="M809.591 85.1942C813.954 73.9221 816.68 45.242 805.09 49.8785C786.97 57.1273 830.04 73.9874 830.04 59.1981C830.04 46.6501 816.894 48.7863 816.894 58.0584C816.895 67.3305 839.588 74.1483 844.361 68.9665C849.133 63.7848 842.588 53.8204 837.815 58.0584C827.656 67.0792 824.635 79.8757 823.227 88.6025" stroke="#002B51" stroke-width="2.39244" stroke-linecap="round"/>
<path d="M807.137 92.6936C808.221 93.9003 812.468 96.7214 820.789 98.3521" stroke="#002B51" stroke-width="2.39244" stroke-linecap="round"/>
<path d="M805.228 100.33C806.202 101.977 810.243 105.626 818.617 107.045" stroke="#002B51" stroke-width="2.39244" stroke-linecap="round"/>
<rect x="624.622" y="315.672" width="205.853" height="9.08174" rx="4.54087" fill="#FFC43D"/>
<path d="M558.268 346.213L668.682 291.473L714.979 278.371L724.763 263.185C699.455 226.038 647.197 244.588 624.232 258.506L536.669 294.748C531.282 289.622 525.265 292.839 522.93 295.089L558.268 346.213Z" fill="#74CADD"/>
<path d="M629.848 257.364C636.421 255.303 641.201 253.779 647.176 249.597C660.322 238.244 683.172 243.668 694.979 254.377" stroke="#002B51" stroke-width="4.78489"/>
<path d="M608.267 272.427C550.605 251.684 561.054 197.655 585.473 192.831L626.194 266.708C626.982 266.033 627.116 265.883 626.355 267L626.194 266.708C625.282 267.491 623.493 268.978 621.204 270.015C615.882 272.427 614.034 273.633 608.267 272.427Z" fill="#74CADD"/>
<path d="M605.947 262.487C613.715 264.307 635.556 255.879 640.684 253.476C649.68 250.592 649.956 234.651 648.969 227.041C656.544 223.676 652.126 218.83 648.969 216.827C634.767 203.85 613.462 218.229 604.586 227.041C598.865 226.039 587.424 219.11 587.424 199.405" stroke="#002B51" stroke-width="4.78489"/>
<path d="M677.053 338.03C693.311 322.495 700.556 310.544 709.319 312.337L677.053 297.156C632.119 286.639 606.744 343.209 595.789 367.309C585.272 359.661 576.668 368.703 574.875 375.077L640.604 401.966C642.197 395.194 655.542 358.585 677.053 338.03Z" fill="#74CADD"/>
<path d="M634.628 311.739C655.541 290.826 681.593 279.927 701.312 308.608" stroke="#002B51" stroke-width="4.78489"/>
<rect x="158.425" y="10.0818" width="68.9708" height="49.7087" rx="12.8268" fill="#FAFAFA"/>
<path d="M226.144 44.1542L214.159 58.0463C213.915 58.3289 213.931 58.7517 214.195 59.0157L226.18 71.001C226.629 71.4499 227.396 71.1319 227.396 70.4971V44.6197C227.396 43.9593 226.576 43.6542 226.144 44.1542Z" fill="#FAFAFA"/>
<circle cx="178.607" cy="38.3359" r="4.03633" fill="#002B51"/>
<circle cx="193.743" cy="38.3359" r="4.03633" fill="#002B51"/>
<circle cx="208.881" cy="38.3359" r="4.03633" fill="#002B51"/>
<path d="M26.1381 256.195C15.2333 262.391 31.3101 292.338 41.074 307.09C41.4204 307.613 42.0618 307.835 42.6626 307.654L53.9526 304.254C54.6375 304.047 55.069 303.369 54.9575 302.661C50.8697 276.693 39.8253 248.418 26.1381 256.195Z" fill="#002B51"/>
<path d="M59.6657 175.813C26.5359 183.464 35.8239 263.462 44.8808 303.932C45.062 304.742 45.8838 305.197 46.6769 304.958L73.3792 296.916C73.8834 296.764 74.2614 296.365 74.3688 295.848C83.4484 252.097 92.9913 168.118 59.6657 175.813Z" fill="#002B51"/>
<path fill-rule="evenodd" clip-rule="evenodd" d="M46.2722 303.578L72.9691 295.537C77.4975 273.71 82.1261 241.913 81.4854 216.579C81.164 203.875 79.5194 192.992 76.0111 185.807C74.2664 182.234 72.1116 179.681 69.5319 178.223C66.9809 176.781 63.8602 176.322 59.9835 177.217C52.3367 178.983 46.9886 184.931 43.4376 193.898C39.8816 202.877 38.2284 214.664 37.8867 227.6C37.2043 253.437 41.7607 283.408 46.2722 303.578ZM40.7735 192.84C44.5156 183.391 50.4299 176.471 59.3477 174.411C63.8022 173.383 67.6731 173.865 70.9434 175.713C74.185 177.546 76.681 180.633 78.5862 184.534C82.3775 192.298 84.0281 203.701 84.3518 216.498C85.0008 242.159 80.3215 274.214 75.7718 296.137C75.5523 297.195 74.775 297.996 73.7875 298.294L47.0857 306.337C45.5372 306.803 43.8544 305.913 43.4821 304.25C38.9394 283.951 34.329 253.707 35.0204 227.531C35.3659 214.453 37.0364 202.276 40.7735 192.84Z" fill="#032068"/>
<path d="M91.0259 221.793C71.2448 224.822 67.7687 272.94 68.4323 298.047C68.4572 298.987 69.3655 299.628 70.2637 299.357L84.7257 295.001C85.141 294.876 85.4732 294.582 85.6368 294.178C96.0145 268.581 111.138 218.713 91.0259 221.793Z" fill="#002B51"/>
<path fill-rule="evenodd" clip-rule="evenodd" d="M62.0136 208.754L62.2936 187.252L59.4255 187.222L58.8523 231.241L47.8238 220.629L45.8361 222.711L58.8009 235.186L58.2368 278.502L48.575 270.416L46.7348 272.63L58.1885 282.216L57.9421 301.133L60.8103 301.163L61.313 262.555L72.7645 251.291L70.7597 249.237L61.3661 258.477L61.9587 212.97L71.4271 203.043L69.3578 201.055L62.0136 208.754Z" fill="white"/>
<path d="M21.6365 295.466C21.0635 292.777 23.102 290.241 25.8368 290.241H91.3773C94.0519 290.241 96.0762 292.673 95.606 295.32L85.9659 349.609C85.6001 351.669 83.8183 353.17 81.7372 353.17H37.4049C35.3794 353.17 33.6291 351.747 33.2047 349.755L21.6365 295.466Z" fill="#FFC43D"/>
<path d="M480.532 270.138H158.216C152.042 270.138 147.037 275.147 147.037 281.327C147.037 287.506 152.042 292.516 158.216 292.516H480.532C486.706 292.516 491.711 287.506 491.711 281.327C491.711 275.147 486.706 270.138 480.532 270.138Z" fill="#FFC43D"/>
<path d="M181.84 343.796L193.723 293.587H223.353L201.284 343.796H181.84Z" fill="#E4D6BC"/>
<path d="M453.406 343.796L442.084 293.587H411.893L433.593 343.796H453.406Z" fill="#E4D6BC"/>
<path d="M998.362 53.9767C998.362 82.3556 975.356 105.361 946.977 105.361C918.598 105.361 895.593 82.3556 895.593 53.9767C895.593 25.5979 918.598 2.59229 946.977 2.59229C975.356 2.59229 998.362 25.5979 998.362 53.9767Z" fill="#FAFAFA"/>
<path fill-rule="evenodd" clip-rule="evenodd" d="M946.977 4.18467C919.477 4.18467 897.185 26.4774 897.185 53.9768C897.185 81.4762 919.477 103.769 946.977 103.769C974.476 103.769 996.769 81.4762 996.769 53.9768C996.769 26.4774 974.476 4.18467 946.977 4.18467ZM894 53.9768C894 24.7185 917.719 1 946.977 1C976.235 1 999.954 24.7185 999.954 53.9768C999.954 83.2351 976.235 106.954 946.977 106.954C917.719 106.954 894 83.2351 894 53.9768Z" fill="#002B51" stroke="#002B51" stroke-width="1.01007"/>
<path d="M957.927 53.9769C957.927 60.0249 953.025 64.9277 946.977 64.9277C940.929 64.9277 936.026 60.0249 936.026 53.9769C936.026 47.929 940.929 43.0261 946.977 43.0261C953.025 43.0261 957.927 47.929 957.927 53.9769Z" fill="#FFC43D"/>
<path fill-rule="evenodd" clip-rule="evenodd" d="M945.699 10.875L949.463 53.2497L930.512 76.0536L928.062 74.0181L946.175 52.2239L942.527 11.1568L945.699 10.875Z" fill="#002B51" stroke="#002B51" stroke-width="1.01007"/>
</svg>
