<svg width="255" height="466" viewBox="0 0 255 466" fill="none" xmlns="http://www.w3.org/2000/svg">
<g filter="url(#filter0_d_465_1268)">
<path d="M9 22H181C203.091 22 221 39.9086 221 62V453H49C26.9086 453 9 435.091 9 413V22Z" fill="white"/>
</g>
<path d="M46.536 276.536V278.096H55.44V276.536H46.536ZM40.56 289.856V291.368H61.464V289.856H40.56ZM42 270.776V272.288H49.104V270.776H42ZM48.528 270.776V271.112C47.04 274.928 43.152 278.288 39.624 279.776C39.984 280.088 40.464 280.712 40.704 281.096C44.52 279.32 48.528 275.888 50.328 271.28L49.176 270.68L48.84 270.776H48.528ZM52.584 269.912L51.072 270.416C53.112 274.976 56.784 278.888 61.032 280.808C61.32 280.328 61.824 279.68 62.256 279.32C58.104 277.712 54.432 273.992 52.584 269.912ZM41.352 274.16C42.6 274.928 44.04 276.128 44.76 276.968L45.768 275.864C45.072 275 43.584 273.896 42.312 273.176L41.352 274.16ZM57.408 270.056C56.448 271.112 54.744 272.576 53.52 273.464L54.624 274.328C55.872 273.488 57.528 272.192 58.776 271.016L57.408 270.056ZM60.096 272.888C59.088 273.968 57.312 275.432 56.016 276.296L57.12 277.16C58.44 276.344 60.168 275.048 61.44 273.848L60.096 272.888ZM46.104 281.552H55.824V284.72H46.104V281.552ZM44.328 280.064V286.208H57.672V280.064H44.328ZM45.72 286.592C46.368 287.648 46.968 289.112 47.208 290.048L48.912 289.52C48.672 288.584 48.048 287.168 47.376 286.136L45.72 286.592ZM54.648 286.064C54.264 287.12 53.496 288.68 52.896 289.616L54.432 290.072C55.032 289.136 55.752 287.816 56.4 286.544L54.648 286.064ZM68.448 271.304V273.128H75.24V271.304H68.448ZM74.328 271.304C74.328 275.816 75.12 286.04 84.72 291.848C85.056 291.416 85.776 290.648 86.184 290.336C76.704 284.72 76.176 275.6 76.176 271.304H74.328ZM73.656 276.008C72.192 282.8 69.192 287.648 63.864 290.432C64.344 290.768 65.16 291.512 65.496 291.896C70.8 288.776 73.968 283.712 75.696 276.392L73.656 276.008ZM95.3608 271.727L89.7358 292.625H87.4602L93.0852 271.727H95.3608ZM98.2605 270.728V272.168H104.573V270.728H98.2605ZM98.0205 277.208V278.648H104.789V277.208H98.0205ZM98.0205 280.424V281.864H104.789V280.424H98.0205ZM96.7725 273.896V275.408H106.061V273.896H96.7725ZM106.397 274.592V276.296H118.397V274.592H106.397ZM105.701 289.472V291.176H118.853V289.472H105.701ZM106.805 281.672V283.352H118.037V281.672H106.805ZM98.7885 283.64V285.056H103.277V288.968H98.7885V290.384H104.981V283.64H98.7885ZM97.8765 283.64V291.56H99.5325V283.64H97.8765ZM111.365 269.912V275.408H113.165V269.912H111.365ZM111.365 275.168V290.36H113.165V275.168H111.365ZM123.125 271.328V291.992H124.901V273.104H139.901V271.328H123.125ZM138.965 271.328V289.76C138.965 290.072 138.869 290.192 138.581 290.192C138.317 290.192 137.405 290.216 136.421 290.168C136.685 290.648 136.949 291.464 136.997 291.944C138.413 291.944 139.349 291.896 139.949 291.584C140.573 291.272 140.765 290.744 140.765 289.784V271.328H138.965ZM120.773 280.016V281.768H142.901V280.016H120.773ZM128.333 271.928V291.68H130.013V271.928H128.333ZM133.613 271.928V291.68H135.317V271.928H133.613ZM149.261 278.048H162.437V281.672H149.261V278.048ZM147.725 276.824V282.896H164.069V276.824H147.725ZM151.661 274.232V275.504H160.037V274.232H151.661ZM154.949 277.208V282.224H156.484V277.208H154.949ZM155.693 271.304C158.141 273.656 162.461 276.032 165.989 277.256C166.253 276.8 166.661 276.152 167.045 275.768C163.325 274.664 159.149 272.456 156.437 269.84H154.733C152.741 272.168 148.685 274.616 144.604 276.008C144.941 276.392 145.349 277.016 145.565 277.424C149.549 275.936 153.557 273.488 155.693 271.304ZM150.725 278.768C151.325 279.632 151.877 280.808 152.069 281.576L153.461 281.072C153.221 280.304 152.645 279.176 152.021 278.336L150.725 278.768ZM159.365 278.24C159.077 279.056 158.453 280.328 157.997 281.144L159.269 281.576C159.749 280.856 160.349 279.752 160.901 278.72L159.365 278.24ZM149.141 284.048V291.92H150.917V285.32H160.877V291.896H162.701V284.048H149.141ZM150.197 286.928V288.248H161.669V286.928H150.197ZM150.197 289.88V291.176H161.669V289.88H150.197ZM174.148 272.24H185.549V274.712H174.148V272.24ZM172.349 270.776V276.2H187.445V270.776H172.349ZM173.117 281.888H186.557V283.592H173.117V281.888ZM173.117 284.864H186.557V286.592H173.117V284.864ZM173.117 278.936H186.557V280.616H173.117V278.936ZM171.317 277.592V287.912H188.405V277.592H171.317ZM175.901 287.888C174.389 288.872 171.245 290.024 168.725 290.624C169.157 290.984 169.757 291.56 170.069 291.944C172.541 291.32 175.661 290.168 177.581 288.992L175.901 287.888ZM181.757 289.136C184.301 289.88 187.565 291.128 189.341 291.968L190.901 290.672C189.029 289.88 185.813 288.704 183.317 287.96L181.757 289.136Z" fill="#002B51"/>
<circle cx="115" cy="29" r="29" fill="#FF715C"/>
<path d="M118.534 17.7273V41H114.318V21.8295H114.182L108.739 25.3068V21.4432L114.523 17.7273H118.534Z" fill="white"/>
<path d="M255 240L220 204.5V274.5L255 240Z" fill="#FF715C"/>
<circle cx="110" cy="134" r="18.5" stroke="#002B51" stroke-width="3"/>
<path d="M47.008 322.952V323.928H57.36V322.952H47.008ZM47.952 327.272V328.184H56.304V327.272H47.952ZM47.232 329.464V330.456H57.008V329.464H47.232ZM51.44 319.688V332.152H52.608V319.688H51.44ZM48.16 320.856V321.816H54.976V325.112H48.048V326.072H56.16V320.856H48.16ZM42.656 320.584V321.656H46.112V320.584H42.656ZM45.68 320.584V320.728C45.088 322.072 43.856 324.664 42.864 326.536L43.952 326.84C44.928 324.936 46.128 322.456 46.864 320.776L46.048 320.52L45.856 320.584H45.68ZM44.112 325.144L43.968 326.216H46.736V325.144H44.112ZM46.24 325.144V325.384C45.84 329.512 44.56 332.12 42.528 333.48C42.8 333.64 43.248 334.072 43.44 334.312C45.52 332.808 46.912 329.944 47.392 325.288L46.704 325.112L46.48 325.144H46.24ZM44.16 327.496L43.2 327.864C44.752 332.888 47.84 333.864 52.464 333.864H56.976C57.056 333.512 57.28 332.968 57.472 332.696C56.624 332.712 53.168 332.712 52.496 332.712C48.432 332.712 45.456 331.912 44.16 327.496ZM59.376 322.712V323.896H72.736V322.712H59.376ZM58.832 332.392V333.592H73.184V332.392H58.832ZM65.328 319.576V323.368H66.576V319.576H65.328ZM69.136 324.632C68.656 327.08 67.712 330.52 66.896 332.568L68.048 332.84C68.88 330.808 69.84 327.512 70.512 324.888L69.136 324.632ZM61.52 325.016C62.304 327.112 62.912 329.832 63.008 331.592L64.224 331.304C64.112 329.512 63.504 326.84 62.656 324.728L61.52 325.016ZM77.152 319.592V334.296H78.192V319.592H77.152ZM75.056 322.616V331H75.984V323.688H79.92V322.616H75.056ZM79.424 322.616V329.64C79.424 329.768 79.392 329.8 79.296 329.816C79.168 329.816 78.864 329.816 78.48 329.8C78.624 330.088 78.784 330.552 78.8 330.856C79.36 330.856 79.728 330.824 80.016 330.632C80.288 330.44 80.352 330.104 80.352 329.672V322.616H79.424ZM82.256 320.264V321.256H88.576V320.264H82.256ZM82.272 322.488V323.432H88.064V322.488H82.272ZM82.272 324.696V325.64H88.064V324.696H82.272ZM80.544 326.888V327.912H89.28V326.888H80.544ZM80.208 333L80.464 334.104C81.968 333.832 83.984 333.48 85.936 333.128L85.856 332.12C83.776 332.456 81.632 332.808 80.208 333ZM85.168 327.208L84.176 327.368C84.832 330.696 86.208 333.16 88.8 334.296C88.96 333.976 89.328 333.496 89.584 333.256C87.12 332.344 85.76 330.104 85.168 327.208ZM88.432 328.28C87.728 328.984 86.48 329.928 85.632 330.488L86.32 331.176C87.2 330.616 88.384 329.8 89.248 329L88.432 328.28ZM81.76 320.264V327.4H82.896V320.264H81.76ZM81.744 327.352V333.224L82.88 333.08V327.352H81.744ZM92.464 321.176H94.848V323.608H92.464V321.176ZM91.376 320.168V324.632H95.984V320.168H91.376ZM90.64 325.752V326.808H96.672V325.752H90.64ZM92.144 326.232C91.904 327.448 91.536 329.048 91.216 330.072L92.304 330.28C92.592 329.224 92.976 327.56 93.248 326.232H92.144ZM92.272 328.232L92 329.256H95.248V328.232H92.272ZM94.8 328.232V328.424C94.608 331.576 94.368 332.808 94.048 333.128C93.92 333.272 93.76 333.304 93.52 333.288C93.264 333.288 92.64 333.288 91.952 333.224C92.144 333.512 92.272 333.976 92.288 334.28C92.96 334.312 93.616 334.312 93.968 334.296C94.4 334.248 94.672 334.152 94.944 333.864C95.392 333.384 95.632 332.072 95.888 328.728C95.904 328.552 95.92 328.232 95.92 328.232H94.8ZM100.832 320.664V321.656H104.656V320.664H100.832ZM97.616 322.744V323.72H104.672V322.744H97.616ZM100.256 319.56V323.256H101.408V319.56H100.256ZM97.104 322.744V326.84C97.104 328.904 96.96 331.688 95.568 333.72C95.84 333.832 96.288 334.168 96.48 334.376C97.968 332.248 98.192 329.08 98.192 326.84V322.744H97.104ZM98.576 325.384L98.688 326.264L103.424 325.752L103.312 324.92L98.576 325.384ZM100.32 323.832V326.696C100.32 327.72 100.608 327.976 101.76 327.976C102 327.976 103.28 327.976 103.52 327.976C104.384 327.976 104.688 327.656 104.784 326.424C104.496 326.36 104.08 326.216 103.856 326.072C103.808 326.968 103.744 327.08 103.392 327.08C103.12 327.08 102.096 327.08 101.904 327.08C101.456 327.08 101.392 327.032 101.392 326.696V323.832H100.32ZM104.336 322.744V322.904C104.24 323.752 104.048 324.84 103.888 325.512L104.816 325.736C105.008 325.016 105.264 323.864 105.456 322.888L104.704 322.696L104.512 322.744H104.336ZM99.488 328.68C99.392 331.032 99.04 332.584 97.296 333.48C97.536 333.672 97.856 334.072 98 334.344C99.952 333.272 100.416 331.4 100.528 328.68H99.488ZM101.84 328.664V332.584C101.84 333.32 101.904 333.56 102.16 333.784C102.4 333.976 102.768 334.04 103.12 334.04C103.296 334.04 103.824 334.04 104.032 334.04C104.336 334.04 104.688 333.976 104.88 333.88C105.12 333.736 105.296 333.56 105.392 333.256C105.472 332.984 105.552 332.184 105.568 331.432C105.264 331.336 104.864 331.128 104.656 330.936C104.656 331.656 104.64 332.28 104.592 332.536C104.56 332.712 104.48 332.824 104.384 332.872C104.304 332.92 104.096 332.952 103.952 332.952C103.76 332.952 103.504 332.952 103.376 332.952C103.216 332.952 103.088 332.92 102.992 332.872C102.912 332.84 102.88 332.728 102.88 332.616V328.664H101.84ZM107.28 322.776V323.96H120.752V322.776H107.28ZM106.848 332.36V333.592H121.152V332.36H106.848ZM111.664 323.56V333H112.848V323.56H111.664ZM115.056 323.56V333.016H116.256V323.56H115.056ZM118.8 325.336C118.416 326.936 117.664 329.192 117.024 330.568L118.096 330.872C118.752 329.528 119.504 327.416 120.08 325.656L118.8 325.336ZM117.488 319.576C117.12 320.472 116.416 321.736 115.856 322.536L116.928 322.92C117.504 322.152 118.208 321 118.784 319.96L117.488 319.576ZM108.032 325.784C108.784 327.384 109.408 329.48 109.568 330.856L110.72 330.568C110.544 329.176 109.904 327.096 109.104 325.496L108.032 325.784ZM109.408 320.024C110.048 320.856 110.72 322.04 110.976 322.824L112.096 322.328C111.808 321.576 111.136 320.44 110.464 319.592L109.408 320.024ZM130.88 323.656V324.648H135.312V323.656H130.88ZM129.856 328.024V328.888H132.48V328.024H129.856ZM129.856 330.216V331.128H132.48V330.216H129.856ZM133.824 326.232V331.864H134.704V326.232H133.824ZM133.104 320.744C134 322.184 135.584 323.768 137.056 324.712C137.232 324.376 137.472 323.944 137.712 323.656C136.208 322.856 134.592 321.256 133.6 319.624H132.512C131.76 321.144 130.208 322.888 128.608 323.864C128.8 324.12 129.072 324.536 129.2 324.84C130.816 323.8 132.304 322.152 133.104 320.744ZM129.312 325.88V334.232H130.192V326.792H132.304V325.88H129.312ZM132.032 325.88V333.24C132.032 333.368 131.984 333.416 131.872 333.416C131.76 333.416 131.44 333.416 131.072 333.416C131.168 333.656 131.296 334.04 131.328 334.28C131.904 334.28 132.288 334.264 132.576 334.12C132.832 333.944 132.912 333.688 132.912 333.256V325.88H132.032ZM135.968 325.624V333.096C135.968 333.272 135.904 333.32 135.728 333.336C135.552 333.352 134.96 333.352 134.288 333.336C134.416 333.592 134.56 333.992 134.592 334.232C135.536 334.232 136.112 334.232 136.496 334.088C136.848 333.912 136.96 333.64 136.96 333.112V325.624H135.968ZM122.816 321.288V322.36H128.912V321.288H122.816ZM122.624 330.424V331.496H128.864V330.424H122.624ZM125.264 319.56V323.96H126.336V319.56H125.264ZM125.392 324.024V328.68H125.264V334.312H126.336V328.68H126.208V324.024H125.392ZM123.952 326.776H127.648V328.232H123.952V326.776ZM123.952 324.472H127.648V325.912H123.952V324.472ZM123.056 323.56V329.128H128.56V323.56H123.056ZM141.632 320.536V321.752H146.16V320.536H141.632ZM145.552 320.536C145.552 323.544 146.08 330.36 152.48 334.232C152.704 333.944 153.184 333.432 153.456 333.224C147.136 329.48 146.784 323.4 146.784 320.536H145.552ZM145.104 323.672C144.128 328.2 142.128 331.432 138.576 333.288C138.896 333.512 139.44 334.008 139.664 334.264C143.2 332.184 145.312 328.808 146.464 323.928L145.104 323.672ZM159.456 320.536V334.28H160.576V321.608H167.664V334.152H168.816V320.536H159.456ZM161.232 323.928V324.872H167.12V323.928H161.232ZM160.064 332.248V333.32H168.304V332.248H160.064ZM163.664 322.12V327.192H164.64V322.12H163.664ZM162.832 327.528H165.536V330.008H162.832V327.528ZM161.904 326.632V330.92H166.496V326.632H161.904ZM157.792 319.64C157.008 322.072 155.696 324.488 154.256 326.056C154.464 326.344 154.8 327 154.896 327.288C156.496 325.448 157.984 322.696 158.896 319.96L157.792 319.64ZM156.464 323.56V334.312H157.6V322.44L157.584 322.424L156.464 323.56ZM177.168 320.056C177.056 322.184 177.056 329.88 170.528 333.208C170.896 333.48 171.296 333.848 171.504 334.152C178.128 330.552 178.368 322.568 178.496 320.056H177.168ZM178.448 320.376L177.296 320.488C177.408 321.96 177.856 330.904 184.64 334.152C184.832 333.816 185.2 333.416 185.552 333.144C178.96 330.12 178.496 321.624 178.448 320.376ZM43.472 350.112V351.136H56.576V350.112H43.472ZM43.984 361.84V362.848H56.096V361.84H43.984ZM46.624 352.192V353.104H53.36V352.192H46.624ZM46.624 354.208V355.12H53.36V354.208H46.624ZM42.72 356.272V357.28H57.264V356.272H42.72ZM46.08 359.136V360.128H53.936V359.136H46.08ZM45.904 348.576V356.832H47.104V348.576H45.904ZM52.944 348.576V356.832H54.144V348.576H52.944ZM49.344 357.792V362.4H50.576V357.792H49.344ZM46.752 356.544C45.888 357.952 44.176 359.328 42.56 359.968C42.832 360.192 43.168 360.608 43.344 360.88C45.024 360.096 46.784 358.576 47.76 356.928L46.752 356.544ZM53.296 356.544L52.352 356.912C53.28 358.48 54.976 359.968 56.672 360.688C56.848 360.4 57.2 359.984 57.472 359.76C55.808 359.168 54.144 357.904 53.296 356.544ZM59.024 351.936V353.152H72.992V351.936H59.024ZM62.224 359.072V360.288H69.68V359.072H62.224ZM65.344 348.576V363.28H66.608V348.576H65.344ZM64.976 352.336C63.696 355.408 61.152 358.384 58.48 359.776C58.752 360.016 59.152 360.464 59.344 360.768C62.112 359.152 64.624 356.096 66.048 352.704L64.976 352.336ZM67.008 352.384L65.936 352.752C67.344 356.112 69.808 359.168 72.64 360.736C72.832 360.4 73.248 359.92 73.552 359.664C70.784 358.336 68.272 355.424 67.008 352.384ZM75.536 349.744C76.656 350.096 78.144 350.672 78.896 351.088L79.424 350.16C78.656 349.76 77.168 349.216 76.064 348.928L75.536 349.744ZM74.736 353.12L75.2 354.176C76.416 353.808 77.92 353.312 79.376 352.848L79.248 351.904C77.584 352.368 75.888 352.848 74.736 353.12ZM81.6 349.744L80.896 350.656H88.032V349.744H81.6ZM87.712 349.744V349.92C87.392 350.592 86.848 351.392 86.336 351.888L87.296 352.224C87.872 351.664 88.464 350.768 88.912 349.936L88.112 349.696L87.904 349.744H87.712ZM83.584 350.064C83.312 351.888 82.448 352.88 79.488 353.376C79.696 353.584 79.952 353.984 80.064 354.24C83.328 353.584 84.352 352.336 84.688 350.064H83.584ZM84.64 350.352L83.664 350.448C84.08 352.128 84.88 353.856 88.672 354.512C88.8 354.208 89.072 353.776 89.296 353.536C85.744 353.024 84.96 351.712 84.64 350.352ZM81.856 348.56C81.44 349.52 80.624 350.624 79.424 351.44C79.712 351.568 80.128 351.824 80.336 352.048C81.584 351.088 82.4 349.904 82.944 348.736L81.856 348.56ZM78.048 356.928H86.112V358.016H78.048V356.928ZM78.048 358.8H86.112V359.92H78.048V358.8ZM78.048 355.056H86.112V356.144H78.048V355.056ZM76.88 354.256V360.72H87.312V354.256H76.88ZM83.328 361.536C85.072 362.112 86.816 362.8 87.824 363.328L89.152 362.72C88 362.176 86.064 361.472 84.304 360.928L83.328 361.536ZM79.568 360.896C78.416 361.52 76.496 362.08 74.848 362.432C75.12 362.64 75.536 363.104 75.728 363.344C77.328 362.896 79.36 362.16 80.656 361.392L79.568 360.896ZM93.328 348.624V363.264H94.448V348.624H93.328ZM90.752 353.936V355.072H97.072V353.936H90.752ZM93.152 354.528C92.64 356.4 91.52 358.832 90.496 360.064C90.688 360.384 90.976 360.896 91.104 361.248C92.176 359.792 93.312 357.024 93.872 354.848L93.152 354.528ZM94.416 355.28L93.824 355.776C94.352 356.464 95.664 358.56 96.064 359.424L96.864 358.464C96.496 357.936 94.864 355.76 94.416 355.28ZM90.864 349.808C91.28 350.928 91.648 352.416 91.728 353.376L92.672 353.12C92.56 352.16 92.192 350.704 91.744 349.584L90.864 349.808ZM96.032 349.52C95.808 350.608 95.328 352.208 94.976 353.168L95.744 353.408C96.176 352.512 96.672 351.008 97.088 349.792L96.032 349.52ZM102.24 348.576V363.28H103.376V348.576H102.24ZM97.04 358.752L97.232 359.872L105.456 358.384L105.264 357.28L97.04 358.752ZM98.24 350.528C99.168 351.104 100.272 351.968 100.784 352.592L101.424 351.664C100.896 351.072 99.792 350.256 98.864 349.712L98.24 350.528ZM97.424 354.56C98.384 355.088 99.536 355.904 100.096 356.48L100.704 355.536C100.128 354.96 98.944 354.208 97.984 353.712L97.424 354.56ZM108.512 363.712C110.192 363.136 111.28 361.824 111.28 360.096C111.28 358.976 110.8 358.24 109.904 358.24C109.264 358.24 108.688 358.64 108.688 359.392C108.688 360.16 109.232 360.544 109.888 360.544C110.192 360.544 110.512 360.464 110.736 360.176L109.872 358.96L110.176 360.32C110.176 361.52 109.456 362.336 108.144 362.88L108.512 363.712ZM130.448 356.176V363.28H131.552V357.28H135.584V363.216H136.736V356.176H130.448ZM132.768 348.592V356.528H133.952V348.592H132.768ZM133.456 352.064V353.184H137.376V352.064H133.456ZM131.024 361.424V362.528H136.144V361.424H131.024ZM124.176 350.032H128.576V353.904H124.176V350.032ZM123.232 349.152V354.784H129.552V349.152H123.232ZM124.4 350.816C124.672 351.6 124.88 352.608 124.912 353.28L125.536 353.088C125.488 352.448 125.28 351.44 125.008 350.656L124.4 350.816ZM124.944 359.984C125.168 360.864 125.328 362.016 125.328 362.768L126.16 362.656C126.144 361.904 125.984 360.752 125.728 359.872L124.944 359.984ZM126.48 359.888C126.832 360.704 127.168 361.776 127.264 362.48L128.08 362.304C127.968 361.6 127.616 360.528 127.248 359.728L126.48 359.888ZM128 359.664C128.544 360.416 129.104 361.44 129.344 362.128L130.144 361.76C129.904 361.104 129.328 360.112 128.752 359.376L128 359.664ZM123.584 359.92C123.44 361.024 123.136 362.192 122.512 362.848L123.328 363.296C124.016 362.576 124.272 361.328 124.432 360.144L123.584 359.92ZM127.68 350.608C127.536 351.344 127.216 352.48 126.976 353.168L127.504 353.376C127.776 352.736 128.096 351.696 128.384 350.88L127.68 350.608ZM122.768 358.224L122.832 359.28C124.672 359.168 127.328 359.008 129.888 358.816L129.92 357.856C127.264 358.016 124.544 358.144 122.768 358.224ZM123.12 355.872V356.848H129.664V355.872H123.12ZM125.92 349.568V354.368H125.792V358.496H126.864V354.368H126.736V349.568H125.92ZM141.824 354.88H138.72V356H140.688V360.544H141.824V354.88ZM141.824 360.064H140.8C140.064 360.768 139.216 361.488 138.528 362.016L139.152 363.152C139.92 362.432 140.64 361.744 141.328 361.056C142.336 362.32 143.792 362.896 145.92 362.976C147.744 363.04 151.232 363.008 153.056 362.928C153.104 362.592 153.296 362.048 153.44 361.792C151.472 361.92 147.712 361.968 145.904 361.888C144 361.808 142.576 361.264 141.824 360.064ZM138.8 349.552C139.728 350.352 140.768 351.504 141.184 352.304L142.192 351.616C141.744 350.816 140.672 349.712 139.728 348.944L138.8 349.552ZM143.008 355.328V356.256H152.72V355.328H143.008ZM142.496 357.792V358.736H153.216V357.792H142.496ZM145.376 354.176V358.256H146.528V354.176H145.376ZM149.152 354.176V358.256H150.288V354.176H149.152ZM143.408 351.072V351.92H147.28V349.2H142.8V350.032H146.224V351.072H143.408ZM143.072 351.072V352.752C143.072 353.712 143.392 353.952 144.576 353.952C144.816 353.952 146.336 353.952 146.592 353.952C147.408 353.952 147.712 353.68 147.824 352.64C147.536 352.592 147.136 352.464 146.944 352.304C146.896 353.008 146.816 353.104 146.432 353.104C146.128 353.104 144.912 353.104 144.688 353.104C144.176 353.104 144.096 353.04 144.096 352.736V351.072H143.072ZM148.688 351.072V351.92H152.496V349.2H148.048V350.032H151.456V351.072H148.688ZM148.336 351.072V352.736C148.336 353.712 148.672 353.952 149.888 353.952C150.144 353.952 151.776 353.952 152.032 353.952C152.896 353.952 153.2 353.68 153.312 352.592C153.024 352.528 152.624 352.4 152.416 352.256C152.368 353.008 152.288 353.104 151.888 353.104C151.568 353.104 150.256 353.104 150 353.104C149.456 353.104 149.36 353.04 149.36 352.736V351.072H148.336ZM148.864 359.456C149.968 360.032 151.152 360.8 151.792 361.392L152.976 360.864C152.208 360.272 150.896 359.488 149.728 358.928L148.864 359.456ZM145.936 358.896C145.216 359.552 144.016 360.16 142.928 360.592C143.184 360.752 143.632 361.136 143.808 361.344C144.88 360.832 146.176 360.048 146.992 359.264L145.936 358.896ZM154.944 349.344V350.4H160.144V349.344H154.944ZM154.592 354.416V355.504H160.704V354.416H154.592ZM157.232 354.944V361.856C157.232 362.048 157.168 362.112 156.944 362.112C156.72 362.128 155.968 362.128 155.152 362.112C155.312 362.432 155.488 362.928 155.536 363.248C156.64 363.248 157.344 363.232 157.792 363.04C158.256 362.864 158.384 362.512 158.384 361.872V354.944H157.232ZM159.776 349.344V349.584C159.28 350.496 158.272 351.792 157.392 352.544C157.6 352.72 157.92 353.04 158.096 353.248C159.104 352.4 160.256 351.024 161.024 349.792L160.256 349.28L160.032 349.344H159.776ZM160.368 354.416V354.592C160.048 355.696 159.584 357.04 159.2 357.856L160.128 358.096C160.544 357.216 161.056 355.824 161.472 354.576L160.72 354.368L160.544 354.416H160.368ZM155.392 352.144C156.736 352.864 158.32 353.984 159.088 354.816L159.776 353.936C158.992 353.12 157.376 352.048 156.032 351.344L155.392 352.144ZM161.136 349.312V350.352H169.264V349.312H161.136ZM162.864 355.264H167.552V356.832H162.864V355.264ZM162.864 357.712H167.552V359.296H162.864V357.712ZM162.864 352.816H167.552V354.368H162.864V352.816ZM161.744 351.888V360.24H168.72V351.888H161.744ZM164.576 349.824C164.48 350.56 164.256 351.664 164.064 352.384L165.12 352.592C165.376 351.92 165.664 350.912 165.936 349.984L164.576 349.824ZM163.344 360.528C162.656 361.232 161.216 362.064 159.936 362.528C160.176 362.736 160.56 363.104 160.736 363.344C162.016 362.864 163.52 362 164.4 361.152L163.344 360.528ZM165.824 361.216C166.816 361.824 168.048 362.736 168.64 363.328L169.6 362.64C168.944 362.032 167.712 361.168 166.736 360.608L165.824 361.216ZM178.176 355.44C179.072 356.592 180 358.176 180.352 359.184L181.408 358.624C181.024 357.6 180.064 356.064 179.152 354.944L178.176 355.44ZM178.272 351.456V352.592H184.352V351.456H178.272ZM183.872 351.456V351.728C183.616 358.64 183.344 361.296 182.784 361.872C182.624 362.08 182.416 362.112 182.096 362.112C181.696 362.112 180.704 362.112 179.648 362.016C179.856 362.352 180 362.864 180.032 363.216C180.992 363.28 181.968 363.296 182.512 363.248C183.12 363.184 183.472 363.056 183.84 362.592C184.496 361.792 184.752 359.296 185.024 352.08C185.024 351.92 185.024 351.456 185.024 351.456H183.872ZM178.864 348.56C178.272 350.688 177.248 352.8 176 354.144C176.304 354.304 176.832 354.656 177.072 354.848C178.288 353.392 179.392 351.152 180.096 348.832L178.864 348.56ZM173.12 348.576C172.704 349.632 171.968 351.168 171.36 352.096L172.192 352.448C172.816 351.584 173.584 350.16 174.192 348.976L173.12 348.576ZM175.056 350.4C174.176 352.096 172.656 354.496 171.424 355.92L172.192 356.32C173.408 354.944 174.976 352.64 176.096 350.848L175.056 350.4ZM170.592 351.936C171.456 352.704 172.464 353.808 172.896 354.56L173.536 353.648C173.104 352.944 172.096 351.888 171.2 351.136L170.592 351.936ZM174.544 354.112C175.2 355.168 175.84 356.56 176.08 357.456L177.04 357.008C176.8 356.128 176.112 354.752 175.44 353.728L174.544 354.112ZM170.56 355.728L170.656 356.8C172.176 356.72 174.208 356.608 176.24 356.48V355.504C174.128 355.6 172 355.68 170.56 355.728ZM174.944 357.936C175.392 358.928 175.824 360.224 175.968 361.056L176.944 360.72C176.768 359.888 176.32 358.624 175.856 357.648L174.944 357.936ZM171.44 357.712C171.248 359.12 170.928 360.544 170.4 361.52C170.656 361.632 171.136 361.856 171.344 361.984C171.856 360.96 172.256 359.408 172.48 357.904L171.44 357.712ZM173.28 356.192V363.328H174.368V356.192H173.28ZM47.936 383.592L48.448 384.504C49.296 384.072 50.304 383.528 51.232 383L50.976 382.12C49.824 382.696 48.72 383.256 47.936 383.592ZM48.32 378.664C49.024 379.224 49.824 380.024 50.176 380.6L50.976 379.928C50.608 379.368 49.792 378.584 49.072 378.072L48.32 378.664ZM51.984 379.256V380.248H56.656V379.256H51.984ZM49.936 390.424V391.512H55.616V390.424H49.936ZM49.392 386.296V392.312H50.528V387.368H55.088V392.264H56.272V386.296H49.392ZM52.288 377.56C51.888 379.064 51.216 380.552 50.304 381.512C50.576 381.656 51.04 381.96 51.232 382.136C52.128 381.08 52.896 379.464 53.36 377.784L52.288 377.56ZM56.352 379.256V379.416C56.176 380.248 55.872 381.24 55.616 381.864L56.512 382.088C56.816 381.416 57.152 380.328 57.424 379.384L56.704 379.224L56.512 379.256H56.352ZM53.904 379.64H53.312V381.272C53.312 381.944 53.008 383.896 49.952 384.984C50.16 385.208 50.448 385.592 50.576 385.832C52.8 385.048 53.712 383.528 53.904 382.76C54.096 383.528 54.928 385.128 56.896 385.848C57.056 385.576 57.344 385.176 57.552 384.92C54.8 383.944 54.48 381.944 54.48 381.256V379.64H53.904ZM43.296 382.408V383.368H47.616V382.408H43.296ZM43.376 378.136V379.096H47.552V378.136H43.376ZM43.296 384.552V385.512H47.616V384.552H43.296ZM42.608 380.232V381.224H48.08V380.232H42.608ZM43.856 386.712V387.704H46.608V390.376H43.856V391.368H47.616V386.712H43.856ZM43.264 386.712V392.12H44.288V386.712H43.264ZM65.952 385.416V386.344H69.52V385.416H65.952ZM66.064 380.12V381.24H72.24V380.12H66.064ZM66.032 382.968V383.928H69.056V387.944H66.032V388.92H70.112V382.968H66.032ZM65.376 382.968V389.848H66.432V382.968H65.376ZM71.824 380.12V380.392C71.696 387.688 71.536 390.376 71.072 390.92C70.896 391.128 70.736 391.176 70.432 391.176C70.048 391.176 69.136 391.16 68.112 391.096C68.32 391.4 68.464 391.896 68.496 392.216C69.392 392.28 70.32 392.296 70.864 392.248C71.424 392.184 71.776 392.056 72.112 391.592C72.688 390.824 72.832 388.328 72.976 380.76C72.976 380.584 72.976 380.12 72.976 380.12H71.824ZM66.528 377.544C65.952 379.672 64.976 381.752 63.728 383.08C64.016 383.272 64.528 383.672 64.752 383.88C66 382.408 67.072 380.168 67.728 377.832L66.528 377.544ZM59.328 382.408V383.368H63.872V382.408H59.328ZM59.392 378.136V379.096H63.808V378.136H59.392ZM59.328 384.552V385.512H63.872V384.552H59.328ZM58.608 380.232V381.224H64.288V380.232H58.608ZM59.856 386.712V387.704H62.832V390.376H59.856V391.384H63.872V386.712H59.856ZM59.312 386.712V392.12H60.336V386.712H59.312ZM78.016 384.648V385.64H85.952V384.648H78.016ZM77.712 387.384V388.408H86.288V387.384H77.712ZM83.04 384.968V391.992H84.128V384.968H83.04ZM79.76 385.016V387.928C79.76 388.808 79.424 390.504 77.808 391.496C78.08 391.656 78.448 391.992 78.608 392.216C80.416 391 80.8 388.904 80.8 387.928V385.016H79.76ZM76.032 380.472V381.336H80.528V380.472H76.032ZM83.408 380.472V381.336H87.936V380.472H83.408ZM87.472 378.248V390.728C87.472 390.968 87.392 391.064 87.136 391.064C86.88 391.08 86.016 391.08 85.136 391.048C85.312 391.384 85.472 391.944 85.52 392.264C86.736 392.264 87.536 392.248 88.016 392.04C88.496 391.832 88.656 391.448 88.656 390.728V378.248H87.472ZM76.128 378.248V379.176H80.128V382.728H76.128V383.64H81.264V378.248H76.128ZM88.048 378.248H82.672V383.656H88.048V382.744H83.824V379.176H88.048V378.248ZM75.408 378.248V392.296H76.592V378.248H75.408ZM98.448 390.488V391.576H104.032V390.488H98.448ZM97.824 385.8V392.296H98.976V386.904H103.472V392.232H104.656V385.8H97.824ZM96.736 383.112L96.88 384.296C98.864 384.168 101.728 383.944 104.432 383.736L104.448 382.664C101.6 382.856 98.624 383.016 96.736 383.112ZM102.032 380.536C103.088 381.896 104.16 383.72 104.544 384.92L105.6 384.344C105.168 383.16 104.064 381.368 102.992 380.04L102.032 380.536ZM99.856 377.56C99.408 379.352 98.544 381.912 97.824 383.464L98.848 383.752C99.6 382.232 100.512 379.784 101.168 377.832L99.856 377.56ZM90.688 380.872V382.008H95.968V380.872H90.688ZM93.12 377.56C92.56 380.6 91.568 384.904 90.848 387.336L91.84 387.88C92.592 385.208 93.616 380.888 94.272 377.688L93.12 377.56ZM91.488 386.856C93.28 387.896 95.36 389.512 96.304 390.712L97.04 389.736C96.08 388.552 93.952 387.016 92.16 386.008L91.488 386.856ZM95.504 380.872V381.128C95.12 386.552 93.44 389.96 90.784 391.368C91.04 391.608 91.36 392.04 91.536 392.328C94.48 390.568 96.208 387.176 96.64 380.984L95.92 380.84L95.712 380.872H95.504ZM106.944 378.344V379.4H112.144V378.344H106.944ZM106.592 383.416V384.504H112.704V383.416H106.592ZM109.232 383.944V390.856C109.232 391.048 109.168 391.112 108.944 391.112C108.72 391.128 107.968 391.128 107.152 391.112C107.312 391.432 107.488 391.928 107.536 392.248C108.64 392.248 109.344 392.232 109.792 392.04C110.256 391.864 110.384 391.512 110.384 390.872V383.944H109.232ZM111.776 378.344V378.584C111.28 379.496 110.272 380.792 109.392 381.544C109.6 381.72 109.92 382.04 110.096 382.248C111.104 381.4 112.256 380.024 113.024 378.792L112.256 378.28L112.032 378.344H111.776ZM112.368 383.416V383.592C112.048 384.696 111.584 386.04 111.2 386.856L112.128 387.096C112.544 386.216 113.056 384.824 113.472 383.576L112.72 383.368L112.544 383.416H112.368ZM107.392 381.144C108.736 381.864 110.32 382.984 111.088 383.816L111.776 382.936C110.992 382.12 109.376 381.048 108.032 380.344L107.392 381.144ZM113.136 378.312V379.352H121.264V378.312H113.136ZM114.864 384.264H119.552V385.832H114.864V384.264ZM114.864 386.712H119.552V388.296H114.864V386.712ZM114.864 381.816H119.552V383.368H114.864V381.816ZM113.744 380.888V389.24H120.72V380.888H113.744ZM116.576 378.824C116.48 379.56 116.256 380.664 116.064 381.384L117.12 381.592C117.376 380.92 117.664 379.912 117.936 378.984L116.576 378.824ZM115.344 389.528C114.656 390.232 113.216 391.064 111.936 391.528C112.176 391.736 112.56 392.104 112.736 392.344C114.016 391.864 115.52 391 116.4 390.152L115.344 389.528ZM117.824 390.216C118.816 390.824 120.048 391.736 120.64 392.328L121.6 391.64C120.944 391.032 119.712 390.168 118.736 389.608L117.824 390.216ZM130.176 384.44C131.072 385.592 132 387.176 132.352 388.184L133.408 387.624C133.024 386.6 132.064 385.064 131.152 383.944L130.176 384.44ZM130.272 380.456V381.592H136.352V380.456H130.272ZM135.872 380.456V380.728C135.616 387.64 135.344 390.296 134.784 390.872C134.624 391.08 134.416 391.112 134.096 391.112C133.696 391.112 132.704 391.112 131.648 391.016C131.856 391.352 132 391.864 132.032 392.216C132.992 392.28 133.968 392.296 134.512 392.248C135.12 392.184 135.472 392.056 135.84 391.592C136.496 390.792 136.752 388.296 137.024 381.08C137.024 380.92 137.024 380.456 137.024 380.456H135.872ZM130.864 377.56C130.272 379.688 129.248 381.8 128 383.144C128.304 383.304 128.832 383.656 129.072 383.848C130.288 382.392 131.392 380.152 132.096 377.832L130.864 377.56ZM125.12 377.576C124.704 378.632 123.968 380.168 123.36 381.096L124.192 381.448C124.816 380.584 125.584 379.16 126.192 377.976L125.12 377.576ZM127.056 379.4C126.176 381.096 124.656 383.496 123.424 384.92L124.192 385.32C125.408 383.944 126.976 381.64 128.096 379.848L127.056 379.4ZM122.592 380.936C123.456 381.704 124.464 382.808 124.896 383.56L125.536 382.648C125.104 381.944 124.096 380.888 123.2 380.136L122.592 380.936ZM126.544 383.112C127.2 384.168 127.84 385.56 128.08 386.456L129.04 386.008C128.8 385.128 128.112 383.752 127.44 382.728L126.544 383.112ZM122.56 384.728L122.656 385.8C124.176 385.72 126.208 385.608 128.24 385.48V384.504C126.128 384.6 124 384.68 122.56 384.728ZM126.944 386.936C127.392 387.928 127.824 389.224 127.968 390.056L128.944 389.72C128.768 388.888 128.32 387.624 127.856 386.648L126.944 386.936ZM123.44 386.712C123.248 388.12 122.928 389.544 122.4 390.52C122.656 390.632 123.136 390.856 123.344 390.984C123.856 389.96 124.256 388.408 124.48 386.904L123.44 386.712ZM125.28 385.192V392.328H126.368V385.192H125.28ZM141.104 387.112C139.76 387.112 138.656 388.2 138.656 389.544C138.656 390.888 139.76 391.976 141.104 391.976C142.448 391.976 143.536 390.888 143.536 389.544C143.536 388.2 142.448 387.112 141.104 387.112ZM141.104 391.16C140.208 391.16 139.472 390.44 139.472 389.544C139.472 388.648 140.208 387.928 141.104 387.928C142 387.928 142.72 388.648 142.72 389.544C142.72 390.44 142 391.16 141.104 391.16Z" fill="#7E7E7E"/>
<circle cx="151.5" cy="175.5" r="21.5" fill="#FF715C"/>
<path d="M152 165V186" stroke="white" stroke-width="5" stroke-linecap="round"/>
<path d="M143 175L161 175" stroke="white" stroke-width="5" stroke-linecap="round"/>
<path d="M157 204.5V217H64.0002C60.1669 195 67.5002 153.6 127.5 164" stroke="#002B51" stroke-width="3" stroke-linecap="round"/>
<defs>
<filter id="filter0_d_465_1268" x="0" y="17" width="230" height="449" filterUnits="userSpaceOnUse" color-interpolation-filters="sRGB">
<feFlood flood-opacity="0" result="BackgroundImageFix"/>
<feColorMatrix in="SourceAlpha" type="matrix" values="0 0 0 0 0 0 0 0 0 0 0 0 0 0 0 0 0 0 127 0" result="hardAlpha"/>
<feOffset dy="4"/>
<feGaussianBlur stdDeviation="4.5"/>
<feComposite in2="hardAlpha" operator="out"/>
<feColorMatrix type="matrix" values="0 0 0 0 0 0 0 0 0 0 0 0 0 0 0 0 0 0 0.25 0"/>
<feBlend mode="normal" in2="BackgroundImageFix" result="effect1_dropShadow_465_1268"/>
<feBlend mode="normal" in="SourceGraphic" in2="effect1_dropShadow_465_1268" result="shape"/>
</filter>
</defs>
</svg>
