<svg width="1200" height="400" viewBox="0 0 1200 400" fill="none" xmlns="http://www.w3.org/2000/svg">
<path d="M556.9 291.255H216C216 305.75 225.203 309.122 229.805 308.997H542.711C556.209 308.695 557.794 297.043 556.9 291.255Z" fill="#002B51"/>
<path d="M229.802 112.816V287.311C229.802 294.389 235.54 300.127 242.618 300.127H529.5C536.578 300.127 542.316 294.389 542.316 287.311V112.816C542.316 105.738 536.578 100 529.5 100H242.618C235.54 100 229.802 105.738 229.802 112.816Z" fill="#002B51"/>
<path d="M533.443 115.774H237.688V291.255H533.443V115.774Z" fill="white"/>
<path d="M355.888 298.156L352.047 292.241H385.073H418.099L414.643 298.156H355.888Z" fill="#74CADD"/>
<path d="M248.336 135.689V134.389L253.505 127.137H248.326V125.331H256.256V126.631L251.083 133.883H256.266V135.689H248.336ZM261.416 135.84C260.631 135.84 259.951 135.674 259.378 135.34C258.808 135.003 258.368 134.534 258.058 133.934C257.748 133.33 257.593 132.631 257.593 131.835C257.593 131.032 257.748 130.331 258.058 129.731C258.368 129.127 258.808 128.659 259.378 128.325C259.951 127.988 260.631 127.819 261.416 127.819C262.202 127.819 262.88 127.988 263.449 128.325C264.023 128.659 264.464 129.127 264.774 129.731C265.085 130.331 265.24 131.032 265.24 131.835C265.24 132.631 265.085 133.33 264.774 133.934C264.464 134.534 264.023 135.003 263.449 135.34C262.88 135.674 262.202 135.84 261.416 135.84ZM261.426 134.171C261.784 134.171 262.082 134.07 262.322 133.868C262.561 133.662 262.741 133.383 262.863 133.028C262.987 132.674 263.05 132.272 263.05 131.82C263.05 131.368 262.987 130.965 262.863 130.611C262.741 130.257 262.561 129.977 262.322 129.771C262.082 129.566 261.784 129.463 261.426 129.463C261.066 129.463 260.762 129.566 260.516 129.771C260.273 129.977 260.09 130.257 259.965 130.611C259.843 130.965 259.783 131.368 259.783 131.82C259.783 132.272 259.843 132.674 259.965 133.028C260.09 133.383 260.273 133.662 260.516 133.868C260.762 134.07 261.066 134.171 261.426 134.171ZM270.682 135.916C269.812 135.913 269.063 135.699 268.436 135.274C267.812 134.849 267.332 134.234 266.995 133.428C266.661 132.622 266.496 131.653 266.499 130.52C266.499 129.39 266.666 128.428 267 127.632C267.337 126.836 267.817 126.231 268.441 125.816C269.068 125.398 269.815 125.189 270.682 125.189C271.548 125.189 272.293 125.398 272.917 125.816C273.544 126.235 274.026 126.841 274.363 127.637C274.701 128.43 274.868 129.39 274.864 130.52C274.864 131.656 274.696 132.627 274.358 133.433C274.025 134.239 273.546 134.854 272.922 135.279C272.298 135.704 271.551 135.916 270.682 135.916ZM270.682 134.101C271.275 134.101 271.749 133.802 272.103 133.205C272.457 132.609 272.632 131.714 272.629 130.52C272.629 129.734 272.548 129.08 272.386 128.558C272.228 128.035 272.002 127.642 271.708 127.379C271.418 127.116 271.076 126.985 270.682 126.985C270.092 126.985 269.62 127.28 269.265 127.87C268.911 128.46 268.733 129.343 268.729 130.52C268.729 131.316 268.809 131.98 268.967 132.513C269.129 133.042 269.357 133.44 269.65 133.706C269.943 133.969 270.287 134.101 270.682 134.101ZM279.956 135.84C279.17 135.84 278.491 135.674 277.918 135.34C277.348 135.003 276.908 134.534 276.598 133.934C276.287 133.33 276.132 132.631 276.132 131.835C276.132 131.032 276.287 130.331 276.598 129.731C276.908 129.127 277.348 128.659 277.918 128.325C278.491 127.988 279.17 127.819 279.956 127.819C280.741 127.819 281.419 127.988 281.989 128.325C282.562 128.659 283.004 129.127 283.314 129.731C283.624 130.331 283.779 131.032 283.779 131.835C283.779 132.631 283.624 133.33 283.314 133.934C283.004 134.534 282.562 135.003 281.989 135.34C281.419 135.674 280.741 135.84 279.956 135.84ZM279.966 134.171C280.323 134.171 280.622 134.07 280.861 133.868C281.1 133.662 281.281 133.383 281.402 133.028C281.527 132.674 281.589 132.272 281.589 131.82C281.589 131.368 281.527 130.965 281.402 130.611C281.281 130.257 281.1 129.977 280.861 129.771C280.622 129.566 280.323 129.463 279.966 129.463C279.605 129.463 279.302 129.566 279.056 129.771C278.813 129.977 278.629 130.257 278.504 130.611C278.383 130.965 278.322 131.368 278.322 131.82C278.322 132.272 278.383 132.674 278.504 133.028C278.629 133.383 278.813 133.662 279.056 133.868C279.302 134.07 279.605 134.171 279.966 134.171ZM285.18 135.689V127.92H287.234V129.291H287.325C287.486 128.836 287.756 128.477 288.134 128.214C288.511 127.951 288.963 127.819 289.489 127.819C290.022 127.819 290.475 127.952 290.85 128.219C291.224 128.482 291.473 128.839 291.598 129.291H291.679C291.838 128.846 292.124 128.49 292.539 128.224C292.957 127.954 293.451 127.819 294.021 127.819C294.746 127.819 295.334 128.05 295.786 128.512C296.241 128.971 296.468 129.621 296.468 130.464V135.689H294.319V130.889C294.319 130.458 294.204 130.134 293.975 129.918C293.746 129.702 293.459 129.594 293.115 129.594C292.724 129.594 292.419 129.719 292.2 129.969C291.981 130.215 291.871 130.54 291.871 130.945V135.689H289.782V130.844C289.782 130.463 289.673 130.159 289.454 129.933C289.238 129.707 288.953 129.594 288.599 129.594C288.36 129.594 288.144 129.655 287.952 129.777C287.763 129.895 287.613 130.061 287.502 130.277C287.39 130.49 287.335 130.739 287.335 131.026V135.689H285.18Z" fill="#161616"/>
<circle cx="376.58" cy="201.429" r="71.8532" fill="#FFC43D"/>
<path fill-rule="evenodd" clip-rule="evenodd" d="M383.765 244.541L380.253 230.787L384.881 229.553L388.555 243.343L387.357 248.133L383.765 244.541Z" fill="#FF715C"/>
<rect x="376.579" y="172.688" width="7.18533" height="16.7658" rx="2.10006" fill="#002B51"/>
<rect x="414.902" y="170.292" width="7.18533" height="16.7658" rx="2.10006" fill="#002B51"/>
<path d="M366.999 165.166C370.592 159.577 377.777 156.783 386.16 159.178" stroke="#002B51" stroke-width="4.20012" stroke-linecap="round"/>
<path d="M408.913 158.317C409.852 156.217 421.243 155.549 425.679 161.91" stroke="#002B51" stroke-width="4.20012" stroke-linecap="round"/>
<path d="M419.377 203.824C419.377 210.876 412.167 217.292 402.316 217.292C392.465 217.292 385.255 210.876 385.255 203.824C385.255 202.041 385.694 200.72 386.393 199.701C387.101 198.667 388.174 197.806 389.656 197.113C392.689 195.697 397.093 195.146 402.316 195.146C407.539 195.146 411.943 195.697 414.976 197.113C416.458 197.806 417.531 198.667 418.239 199.701C418.938 200.72 419.377 202.041 419.377 203.824Z" stroke="#002B51" stroke-width="4.20012"/>
<path d="M419.692 207.416C406.28 200.71 392.548 206.219 387.358 209.811C383.526 200.231 392.088 195.441 400.531 195.441C413.944 192.567 418.894 202.227 419.692 207.416Z" fill="#002B51"/>
<rect width="52.6924" height="76.6435" rx="6.30018" transform="matrix(1 0 -0.293206 0.956049 437.375 187.058)" fill="#FF715C"/>
<path d="M487.952 214.602C486.973 212.643 482.763 212.207 480.767 212.207H478.372H475.976C471.186 212.207 469.989 213.404 469.127 215.564C468.791 218.195 472.119 219.381 474.779 220.59C465.198 220.59 466.795 225.779 468.791 227.775C462.085 229.691 465.199 233.364 467.594 234.96C460.887 236.876 464.001 240.549 466.396 242.146C472.144 244.062 477.573 241.347 479.569 239.751C484.359 236.876 485.557 225.38 485.557 220.59C489.389 218.674 488.75 216.199 487.952 214.602Z" fill="#FFC43D"/>
<path d="M475.977 220.59C477.972 220.989 480.527 221.548 484.359 220.59" stroke="#002B51" stroke-width="2.10006" stroke-linecap="round"/>
<path d="M469.989 227.775C471.985 228.174 476.935 228.733 480.767 227.775" stroke="#002B51" stroke-width="2.10006" stroke-linecap="round"/>
<path d="M468.792 234.961C470.787 235.36 474.54 235.919 478.372 234.961" stroke="#002B51" stroke-width="2.10006" stroke-linecap="round"/>
<path d="M356.22 290.048V267.294L405.32 266.097L406.517 290.048H356.22Z" fill="#FFC43D"/>
<path d="M380.173 270.887V291.245" stroke="#002B51" stroke-width="4.20012"/>
<path d="M375.383 206.219L377.778 215.8" stroke="#FF715C" stroke-width="4.20012"/>
<path d="M326.281 211.009C332.269 220.59 345.682 237.595 361.01 224.182C376.339 210.77 385.76 218.594 388.554 224.182C388.953 225.779 388.794 229.931 384.961 228.972C383.365 227.775 379.453 224.182 376.579 224.182" stroke="#002B51" stroke-width="3.15009" stroke-linecap="round"/>
<path d="M381.369 228.973C381.769 233.763 378.974 243.583 364.604 244.541C355.023 249.73 333.467 255.319 319.097 240.948" stroke="#002B51" stroke-width="3.15009" stroke-linecap="round"/>
<rect x="722" y="189.839" width="228" height="128" rx="20.1331" fill="#FFC43D"/>
<rect x="829" y="299.839" width="108" height="4" rx="2" fill="#002B51"/>
<circle cx="800.436" cy="189.334" r="118.935" fill="#74CADD"/>
<path d="M775.932 148.095C775.932 145.455 778.073 143.314 780.713 143.314V143.314C783.354 143.314 785.495 145.455 785.495 148.096V160.049C785.495 162.689 783.354 164.83 780.713 164.83V164.83C778.073 164.83 775.932 162.689 775.932 160.049V148.095Z" fill="#002B51"/>
<path d="M722.143 148.693C722.143 146.383 724.016 144.51 726.326 144.51V144.51C728.637 144.51 730.51 146.383 730.51 148.693V160.646C730.51 162.957 728.637 164.83 726.326 164.83V164.83C724.016 164.83 722.143 162.957 722.143 160.646V148.693Z" fill="#002B51"/>
<path d="M746.244 215.945C743.654 214.351 737.518 211.642 733.693 213.554" stroke="#002B51" stroke-width="4.7372"/>
<path d="M776.9 181.625C776.9 190.065 768.036 197.784 755.889 197.784C743.741 197.784 734.877 190.065 734.877 181.625C734.877 179.491 735.414 178.034 736.227 176.973C737.058 175.887 738.34 175.006 740.177 174.328C743.955 172.934 749.389 172.63 755.889 172.63C762.388 172.63 767.822 172.934 771.601 174.328C773.438 175.006 774.719 175.887 775.551 176.973C776.364 178.034 776.9 179.491 776.9 181.625Z" stroke="#002B51" stroke-width="4.7372"/>
<path d="M774.159 190.187C762.423 170.612 739.814 179.736 736.261 188.026C730.936 173.232 747.902 171.603 752.035 171.206L752.043 171.205C775.343 173.222 779.718 179.51 774.159 190.187Z" fill="#002B51"/>
<path d="M717.112 137.693C721.173 132.162 730.512 127.738 738.43 137.693" stroke="#002B51" stroke-width="4.7372" stroke-linecap="round"/>
<path d="M770.406 126.479C776.067 123.24 789.21 123.742 795.276 132.956" stroke="#002B51" stroke-width="4.7372" stroke-linecap="round"/>
<path d="M954.482 215.852C993.404 175.174 932.332 160.219 896.931 157.827L888.031 198.504L914.73 202.692L877.352 234.397C861.688 249.232 870.825 264.107 877.352 269.691C895.388 285.962 909.786 272.881 914.73 264.307C918.884 252.941 910.775 245.962 902.864 243.37C923.274 241.934 945.78 224.427 954.482 215.852Z" fill="#74CADD"/>
<path d="M855.675 189.803L920.812 201.225L871.071 228.885C865.04 234.896 861.465 257.617 877.387 271.565C897.29 289 932.874 263.75 905.131 246.315" stroke="#002B51" stroke-width="4.7372"/>
<path d="M934.22 20.8607L932.986 31.4643" stroke="#FFC43D" stroke-width="3.5529" stroke-linecap="round"/>
<path d="M959.49 27.6381L953.097 37.0436" stroke="#74CADD" stroke-width="3.5529" stroke-linecap="round"/>
<path d="M973.762 49.339L961.958 52.7172" stroke="#FFC43D" stroke-width="3.5529" stroke-linecap="round"/>
<rect x="912.429" y="76.7786" width="24.5144" height="34.543" rx="12.2572" transform="rotate(23.8532 912.429 76.7786)" fill="#74CADD"/>
<circle cx="930.399" cy="66.4484" r="26.7429" transform="rotate(23.8532 930.399 66.4484)" fill="#FFC43D"/>
<path d="M914.762 83.9018C920.927 73.6321 928.436 46.0873 916.335 48.6559C897.416 52.6718 936.624 76.4146 939.123 61.9731C941.244 49.7202 928.046 49.5844 926.479 58.6385C924.913 67.6926 945.92 78.1854 951.456 73.9321C956.992 69.6788 952.285 58.8426 946.908 62.1743C935.463 69.266 930.351 81.251 927.5 89.5345" stroke="#002B51" stroke-width="2.3686" stroke-linecap="round"/>
<path d="M911.098 90.8101C911.952 92.1716 915.623 95.6442 923.473 98.6428" stroke="#002B51" stroke-width="2.3686" stroke-linecap="round"/>
<path d="M907.943 97.9438C908.616 99.7168 911.945 103.963 919.882 106.764" stroke="#002B51" stroke-width="2.3686" stroke-linecap="round"/>
<rect x="722" y="303.839" width="204" height="9" rx="4.5" fill="#FFC43D"/>
<path d="M656.244 334.106L765.664 279.859L811.544 266.874L821.241 251.825C796.16 215.012 744.373 233.395 721.614 247.189L634.84 283.104C629.501 278.024 623.538 281.212 621.224 283.442L656.244 334.106Z" fill="#74CADD"/>
<path d="M727.18 246.057C733.693 244.014 738.431 242.504 744.352 238.359C757.379 227.108 780.023 232.484 791.724 243.096" stroke="#002B51" stroke-width="4.7372"/>
<path d="M705.793 260.984C648.65 240.428 659.004 186.885 683.204 182.105L723.558 255.317C724.339 254.647 724.472 254.498 723.718 255.606L723.558 255.317C722.654 256.092 720.881 257.566 718.613 258.594C713.339 260.984 711.508 262.179 705.793 260.984Z" fill="#74CADD"/>
<path d="M703.493 251.134C711.191 252.937 732.835 244.584 737.918 242.203C746.832 239.345 747.106 223.548 746.128 216.006C753.635 212.672 749.256 207.869 746.128 205.885C732.053 193.024 710.941 207.274 702.144 216.006C696.475 215.014 685.137 208.147 685.137 188.619" stroke="#002B51" stroke-width="4.7372"/>
<path d="M773.959 325.997C790.071 310.601 797.25 298.758 805.935 300.535L773.959 285.491C729.429 275.069 704.283 331.129 693.426 355.013C683.005 347.433 674.478 356.394 672.701 362.71L737.838 389.357C739.417 382.646 752.641 346.367 773.959 325.997Z" fill="#74CADD"/>
<path d="M731.917 299.943C752.642 279.217 778.459 268.416 798 296.839" stroke="#002B51" stroke-width="4.7372"/>
</svg>
