<svg width="256" height="466" viewBox="0 0 256 466" fill="none" xmlns="http://www.w3.org/2000/svg">
<g filter="url(#filter0_d_466_1277)">
<path d="M9 22H181C203.091 22 221 39.9086 221 62V453H49C26.9086 453 9 435.091 9 413V22Z" fill="white"/>
</g>
<path d="M66.992 269.84V273.704H68.888V269.84H66.992ZM58.04 272.384V277.568H59.864V274.088H76.184V277.568H78.08V272.384H58.04ZM66.032 275.168C64.4 278.696 61.808 283.592 60.056 286.472L61.904 286.976C63.608 284.072 66.128 279.224 67.904 275.576L66.032 275.168ZM72.392 280.136C70.832 286.808 66.056 289.328 57.92 290.336C58.256 290.744 58.808 291.536 59 291.968C67.28 290.648 72.416 287.864 74.384 280.424L72.392 280.136ZM57.344 279.056V280.76H78.656V279.056H57.344ZM61.448 285.632C66.608 287.12 72.968 289.832 76.16 291.968L77.504 290.48C74.144 288.344 67.712 285.752 62.672 284.36L61.448 285.632ZM92.552 269.84V279.992C92.552 284.312 92.048 288.08 87.992 290.744C88.4 291.032 89 291.584 89.288 291.944C93.632 289.016 94.184 284.792 94.184 279.992V269.84H92.552ZM96.68 269.84V291.896H98.408V269.84H96.68ZM88.616 273.944V275.6H93.272V273.944H88.616ZM97.592 273.944V275.6H102.608V273.944H97.592ZM97.688 278.984V280.592H102.368V278.984H97.688ZM97.568 284.216V285.872H103.016V284.216H97.568ZM88.784 278.984V280.592H93.344V278.984H88.784ZM87.416 285.248L88.112 286.808C89.6 286.28 91.304 285.656 92.96 285.008L92.696 283.616C90.728 284.24 88.808 284.864 87.416 285.248ZM80.648 282.296L81.128 284.048C83.168 283.4 85.808 282.536 88.304 281.672L88.064 280.016C85.328 280.904 82.52 281.768 80.648 282.296ZM80.984 274.688V276.368H88.28V274.688H80.984ZM84.008 269.864V289.832C84.008 290.192 83.864 290.264 83.576 290.264C83.288 290.288 82.376 290.288 81.32 290.264C81.56 290.768 81.776 291.512 81.848 291.944C83.36 291.944 84.296 291.896 84.848 291.608C85.448 291.32 85.688 290.84 85.688 289.832V269.864H84.008ZM111.296 276.56V288.608C111.296 290.96 112.04 291.608 114.584 291.608C115.136 291.608 118.712 291.608 119.288 291.608C121.904 291.608 122.456 290.264 122.72 285.728C122.192 285.608 121.448 285.272 121.016 284.912C120.824 289.064 120.608 289.952 119.192 289.952C118.376 289.952 115.352 289.952 114.752 289.952C113.432 289.952 113.144 289.736 113.144 288.608V276.56H111.296ZM111.488 271.328C114.392 272.36 117.896 274.16 119.744 275.552L120.896 273.968C119 272.672 115.52 270.944 112.616 269.96L111.488 271.328ZM107.288 278.48C106.952 281.6 106.16 285.104 104.552 287.216L106.184 288.2C107.912 285.896 108.656 282.056 109.016 278.84L107.288 278.48ZM121.28 278.504C123.32 281.216 125.12 284.96 125.648 287.48L127.448 286.616C126.848 284.072 125.048 280.448 122.888 277.712L121.28 278.504ZM139.4 277.064H148.328V280.16H139.4V277.064ZM139.4 272.528H148.328V275.576H139.4V272.528ZM137.768 270.968V281.72H150.056V270.968H137.768ZM137.456 284.528V286.184H150.392V284.528H137.456ZM135.608 289.496V291.128H151.184V289.496H135.608ZM129.08 271.472V273.176H136.568V271.472H129.08ZM129.344 278.408V280.112H136.232V278.408H129.344ZM128.84 287.6L129.272 289.448C131.408 288.728 134.144 287.816 136.76 286.928L136.448 285.2C133.664 286.136 130.784 287.072 128.84 287.6ZM132.08 272.144V287.36L133.808 287.024V272.144H132.08ZM143.072 271.712V280.952H142.952V290.24H144.776V280.952H144.656V271.712H143.072ZM154.64 273.464V275.024H159.512V278.552H154.64V280.136H161.144V273.464H154.64ZM154.664 282.344V283.904H159.752V288.032H154.664V289.568H161.36V282.344H154.664ZM153.92 273.464V291.2H155.552V273.464H153.92ZM162.08 271.112V272.768H174.92V271.112H162.08ZM156.968 269.84C156.728 271.04 156.2 272.792 155.768 273.944L157.184 274.256C157.76 273.2 158.408 271.544 158.936 270.128L156.968 269.84ZM167.624 271.808V291.896H169.328V271.808H167.624ZM162.992 275.72V288.32H164.648V277.352H173.384V275.72H162.992ZM172.52 275.72V286.4C172.52 286.64 172.448 286.736 172.184 286.736C171.968 286.736 171.2 286.736 170.288 286.712C170.528 287.168 170.768 287.84 170.816 288.296C172.112 288.296 172.952 288.296 173.504 288.008C174.08 287.72 174.224 287.24 174.224 286.424V275.72H172.52Z" fill="#002B51"/>
<circle cx="115" cy="29" r="29" fill="#74CADD"/>
<path d="M115.42 40.3182C113.784 40.3182 112.33 40.0379 111.057 39.4773C109.792 38.9167 108.792 38.1364 108.057 37.1364C107.322 36.1364 106.932 34.9811 106.886 33.6705H111.159C111.197 34.2992 111.405 34.8485 111.784 35.3182C112.163 35.7803 112.667 36.1402 113.295 36.3977C113.924 36.6553 114.629 36.7841 115.409 36.7841C116.242 36.7841 116.981 36.6402 117.625 36.3523C118.269 36.0568 118.773 35.6477 119.136 35.125C119.5 34.6023 119.678 34 119.67 33.3182C119.678 32.6136 119.496 31.9924 119.125 31.4545C118.754 30.9167 118.216 30.4962 117.511 30.1932C116.814 29.8902 115.973 29.7386 114.989 29.7386H112.932V26.4886H114.989C115.799 26.4886 116.508 26.3485 117.114 26.0682C117.727 25.7879 118.208 25.3939 118.557 24.8864C118.905 24.3712 119.076 23.7765 119.068 23.1023C119.076 22.4432 118.928 21.8712 118.625 21.3864C118.33 20.8939 117.909 20.5114 117.364 20.2386C116.826 19.9659 116.193 19.8295 115.466 19.8295C114.754 19.8295 114.095 19.9583 113.489 20.2159C112.883 20.4735 112.394 20.8409 112.023 21.3182C111.652 21.7879 111.455 22.3485 111.432 23H107.375C107.405 21.697 107.78 20.553 108.5 19.5682C109.227 18.5758 110.197 17.803 111.409 17.25C112.621 16.6894 113.981 16.4091 115.489 16.4091C117.042 16.4091 118.39 16.7008 119.534 17.2841C120.686 17.8598 121.576 18.6364 122.205 19.6136C122.833 20.5909 123.148 21.6705 123.148 22.8523C123.155 24.1629 122.769 25.2614 121.989 26.1477C121.216 27.0341 120.201 27.6136 118.943 27.8864V28.0682C120.58 28.2955 121.833 28.9015 122.705 29.8864C123.583 30.8636 124.019 32.0795 124.011 33.5341C124.011 34.8371 123.64 36.0038 122.898 37.0341C122.163 38.0568 121.148 38.8598 119.852 39.4432C118.564 40.0265 117.087 40.3182 115.42 40.3182Z" fill="white"/>
<path d="M256 240.5L221 205V275L256 240.5Z" fill="#74CADD"/>
<path d="M53.312 319.752V323.128H54.512V319.752H53.312ZM48.48 322.52V323.64H59.088V322.52H48.48ZM53.248 322.952C52.064 325.112 50.016 327.032 47.84 328.216C48.096 328.456 48.512 328.968 48.672 329.208C50.864 327.848 53.04 325.736 54.4 323.336L53.248 322.952ZM48.672 332.872L49.04 334.04C50.816 333.624 53.28 333.032 55.568 332.472L55.456 331.368C52.976 331.96 50.368 332.536 48.672 332.872ZM58.416 325.16C57.552 326.072 56.064 327.336 54.992 328.04L55.664 328.744C56.768 328.072 58.224 326.952 59.312 326.008L58.416 325.16ZM54.64 323.192L53.568 323.368C54.32 328.248 55.776 332.28 58.832 334.136C59.024 333.8 59.408 333.352 59.68 333.112C56.784 331.528 55.312 327.64 54.64 323.192ZM48.288 319.608C47.36 322.024 45.84 324.408 44.224 325.912C44.448 326.2 44.784 326.84 44.912 327.112C46.656 325.352 48.336 322.664 49.408 319.96L48.288 319.608ZM46.624 323.736V334.248H47.776V322.616L47.744 322.6L46.624 323.736ZM50.656 327.128V332.984H51.792V326.008L51.776 325.992L50.656 327.128ZM61.472 320.264V330.232H62.608V320.264H61.472ZM62.08 320.264V321.336H65.024V328.328H62.08V329.432H66.144V320.264H62.08ZM62.064 324.136V325.208H65.6V324.136H62.064ZM66.832 320.232V321.304H74V320.232H66.832ZM73.616 320.232V320.392C73.504 322.584 73.376 323.4 73.136 323.64C73.024 323.752 72.88 323.784 72.64 323.784C72.384 323.784 71.728 323.768 71.04 323.704C71.2 323.992 71.312 324.408 71.344 324.712C72.08 324.744 72.784 324.744 73.152 324.712C73.568 324.68 73.856 324.6 74.096 324.344C74.448 323.976 74.592 323.016 74.752 320.696C74.768 320.536 74.768 320.232 74.768 320.232H73.616ZM69.616 320.568C69.408 322.456 68.768 323.704 66.32 324.376C66.576 324.584 66.88 325 66.992 325.272C69.744 324.44 70.528 322.904 70.816 320.568H69.616ZM68.448 326.504H73.12V328.936H68.448V326.504ZM67.312 325.496V329.944H74.304V325.496H67.312ZM65.44 331.016C65.632 332.056 65.76 333.416 65.76 334.232L66.944 334.056C66.928 333.256 66.752 331.928 66.544 330.888L65.44 331.016ZM68.864 330.968C69.28 331.992 69.68 333.368 69.824 334.184L71.008 333.928C70.848 333.096 70.416 331.752 69.984 330.76L68.864 330.968ZM72.128 330.872C72.88 331.944 73.776 333.416 74.144 334.312L75.296 333.8C74.896 332.904 73.968 331.48 73.2 330.44L72.128 330.872ZM62.784 330.552C62.24 331.72 61.408 333.048 60.672 333.864L61.824 334.36C62.56 333.448 63.36 332.072 63.92 330.872L62.784 330.552ZM83.44 319.64C82.912 321.992 81.984 324.296 80.8 325.784C81.072 325.96 81.552 326.344 81.76 326.552C82.992 324.92 84 322.456 84.624 319.896L83.44 319.64ZM83.168 326.424C82.72 328.344 81.952 330.248 80.96 331.48C81.248 331.624 81.76 331.944 82 332.136C82.976 330.792 83.84 328.76 84.336 326.664L83.168 326.424ZM83.296 322.648L82.832 323.768H90.496V322.648H83.296ZM85.776 323.112V332.824C85.776 333.032 85.712 333.096 85.504 333.096C85.28 333.096 84.592 333.112 83.84 333.08C84.016 333.432 84.192 333.96 84.272 334.296C85.264 334.296 85.952 334.264 86.384 334.056C86.832 333.864 86.976 333.512 86.976 332.824V323.112H85.776ZM88.128 326.664C89.008 328.344 89.808 330.6 90.064 332.072L91.2 331.688C90.928 330.2 90.128 327.992 89.2 326.312L88.128 326.664ZM90.144 322.648V322.824C89.984 323.88 89.776 325.224 89.6 326.024L90.64 326.216C90.848 325.352 91.12 323.976 91.344 322.792L90.512 322.616L90.304 322.648H90.144ZM80.224 319.624C79.328 322.056 77.824 324.456 76.24 326.008C76.464 326.28 76.8 326.92 76.928 327.192C78.656 325.4 80.304 322.696 81.36 319.976L80.224 319.624ZM78.56 323.752V334.264H79.712V322.632L79.68 322.616L78.56 323.752ZM94.096 322.136V323.208H97.84V331.512H94.096V332.6H98.96V322.136H94.096ZM93.376 322.136V333.88H94.496V322.136H93.376ZM94.016 326.584V327.656H98.432V326.584H94.016ZM95.824 319.528C95.696 320.36 95.392 321.576 95.12 322.344L96.08 322.584C96.4 321.864 96.8 320.76 97.12 319.768L95.824 319.528ZM101.232 322.088V323.208H106.144V322.088H101.232ZM105.728 322.088V322.344C105.504 329.4 105.248 332.056 104.72 332.632C104.544 332.84 104.352 332.888 104.032 332.888C103.664 332.888 102.704 332.872 101.664 332.792C101.888 333.112 102.032 333.608 102.064 333.96C102.96 334.008 103.904 334.04 104.448 333.976C105.008 333.928 105.376 333.784 105.728 333.32C106.368 332.536 106.592 330.056 106.848 322.712C106.848 322.536 106.848 322.088 106.848 322.088H105.728ZM101.568 319.496C101.056 321.72 100.176 323.928 99.088 325.336C99.376 325.496 99.872 325.832 100.08 326.024C101.184 324.504 102.128 322.152 102.72 319.768L101.568 319.496ZM100.832 326.248C101.712 327.416 102.784 329 103.264 329.976L104.288 329.336C103.776 328.392 102.672 326.84 101.76 325.704L100.832 326.248ZM114.368 324.312V325.496H123.296V324.312H114.368ZM119.84 320.552C120.656 321.432 121.568 322.648 121.952 323.448L122.96 322.904C122.544 322.12 121.632 320.936 120.8 320.072L119.84 320.552ZM109.856 324.2V325.288H113.152V324.2H109.856ZM108.72 327.576V328.664H113.024V327.576H108.72ZM112.688 319.56V334.264H113.824V319.56H112.688ZM109.344 320.248V325.288H110.464V320.248H109.344ZM109.968 327.96V329.128C109.968 330.264 109.776 332.088 108.608 333.368C108.88 333.48 109.312 333.752 109.536 333.944C110.816 332.552 111.072 330.472 111.072 329.16V327.96H109.968ZM117.872 319.576V323.96C117.872 327.096 117.52 330.728 113.792 333.4C114.048 333.608 114.448 334.04 114.608 334.312C118.624 331.4 119.024 327.464 119.024 323.944V319.576H117.872ZM119.264 324.68L118.144 324.76C118.4 327.112 118.944 332.008 122.608 334.2C122.8 333.896 123.168 333.496 123.504 333.256C119.968 331.256 119.424 326.824 119.264 324.68ZM128.864 330.728V332.696C128.864 333.832 129.28 334.136 130.96 334.136C131.296 334.136 133.776 334.136 134.144 334.136C135.424 334.136 135.776 333.752 135.92 332.072C135.6 332.008 135.136 331.848 134.88 331.672C134.816 332.952 134.704 333.128 134.016 333.128C133.488 333.128 131.44 333.128 131.04 333.128C130.192 333.128 130.032 333.064 130.032 332.68V330.728H128.864ZM130.24 330.344C131.184 330.76 132.288 331.464 132.832 332.024L133.584 331.272C133.04 330.696 131.92 330.04 130.976 329.656L130.24 330.344ZM135.552 331.048C136.688 331.864 137.872 333.08 138.368 333.976L139.392 333.352C138.848 332.44 137.632 331.272 136.48 330.472L135.552 331.048ZM126.864 330.648C126.496 331.704 125.728 332.76 124.624 333.368L125.568 334.024C126.752 333.336 127.44 332.184 127.888 331.016L126.864 330.648ZM125.776 323.704V329.992H126.848V324.584H130.72V323.704H125.776ZM132.736 319.704V323.048C132.736 324.216 133.104 324.536 134.624 324.536C134.944 324.536 137.056 324.536 137.376 324.536C138.56 324.536 138.88 324.12 139.008 322.536C138.704 322.472 138.256 322.328 138.016 322.152C137.952 323.352 137.84 323.528 137.28 323.528C136.832 323.528 135.04 323.528 134.704 323.528C133.968 323.528 133.84 323.464 133.84 323.032V319.704H132.736ZM132.736 324.904V328.504C132.736 329.688 133.104 330.008 134.624 330.008C134.944 330.008 137.104 330.008 137.44 330.008C138.624 330.008 138.96 329.592 139.088 327.976C138.784 327.928 138.336 327.768 138.08 327.576C138.032 328.824 137.92 329 137.344 329C136.88 329 135.072 329 134.72 329C133.968 329 133.84 328.92 133.84 328.504V324.904H132.736ZM127.408 319.48C127.04 320.312 126.368 321.48 125.84 322.232L126.688 322.552C127.264 321.864 127.984 320.776 128.592 319.832L127.408 319.48ZM129.312 320.776C130.16 321.544 131.072 322.632 131.472 323.384L132.384 322.84C131.968 322.088 131.04 321.032 130.16 320.296L129.312 320.776ZM137.312 320.104C136.4 320.616 134.736 321.176 133.264 321.544C133.392 321.768 133.536 322.12 133.584 322.328C135.152 321.976 136.96 321.448 138.224 320.84L137.312 320.104ZM137.488 325.384C136.528 325.928 134.784 326.488 133.264 326.856C133.392 327.08 133.536 327.432 133.584 327.656C135.216 327.288 137.088 326.744 138.384 326.136L137.488 325.384ZM130.336 323.704V328.824C130.336 328.984 130.272 329.032 130.08 329.032C129.904 329.048 129.312 329.048 128.656 329.032C128.784 329.288 128.944 329.64 129.008 329.928C129.92 329.928 130.544 329.912 130.928 329.752C131.312 329.592 131.424 329.352 131.424 328.824V323.704H130.336ZM124.816 321.896L124.88 322.888C126.56 322.824 128.944 322.728 131.264 322.616L131.28 321.72C128.864 321.784 126.448 321.864 124.816 321.896ZM126.384 325.448V326.216H130.736V325.448H126.384ZM126.384 327.112V327.88H130.736V327.112H126.384ZM140.624 322.872V323.992H145.456V322.872H140.624ZM142.816 319.576C142.336 322.568 141.472 326.808 140.832 329.224L141.792 329.816C142.48 327.144 143.392 322.856 143.968 319.688L142.816 319.576ZM141.376 328.664C142.944 329.8 144.768 331.464 145.6 332.632L146.32 331.688C145.472 330.568 143.6 328.968 142.032 327.864L141.376 328.664ZM145.04 322.872V323.112C144.72 328.504 143.216 331.896 140.752 333.32C141.008 333.56 141.328 333.992 141.488 334.28C144.24 332.504 145.776 329.096 146.144 322.952L145.44 322.84L145.248 322.872H145.04ZM145.936 321.32V322.36H155.296V321.32H145.936ZM146.064 328.6V329.64H155.296V328.6H146.064ZM148.208 323.784V324.728H153.008V323.784H148.208ZM147.616 319.56V327.176H153.68V319.56H152.544V326.184H148.736V319.56H147.616ZM150.032 327.016V334.28H151.2V327.016H150.032ZM149.664 329.08C148.8 330.664 147.104 332.216 145.44 332.952C145.696 333.176 146.08 333.608 146.272 333.896C147.952 333 149.664 331.256 150.608 329.432L149.664 329.08ZM151.552 329.128L150.688 329.48C151.584 331.144 153.248 332.904 154.688 333.816C154.88 333.512 155.264 333.08 155.536 332.872C154.08 332.12 152.432 330.584 151.552 329.128ZM159.968 324.792V325.864H168.048V324.792H159.968ZM159.68 332.568V333.64H168.256V332.568H159.68ZM159.136 327.88V334.296H160.304V328.968H167.712V334.296H168.928V327.88H159.136ZM163.952 320.792C165.456 322.84 168.272 325.096 170.784 326.408C170.992 326.056 171.28 325.64 171.584 325.352C169.024 324.216 166.224 321.992 164.496 319.608H163.28C162.016 321.672 159.344 324.12 156.528 325.544C156.8 325.8 157.12 326.232 157.28 326.504C160.016 325.016 162.64 322.744 163.952 320.792ZM179.328 319.56V322.136H180.592V319.56H179.328ZM173.36 321.256V324.712H174.576V322.392H185.456V324.712H186.72V321.256H173.36ZM178.688 323.112C177.6 325.464 175.872 328.728 174.704 330.648L175.936 330.984C177.072 329.048 178.752 325.816 179.936 323.384L178.688 323.112ZM182.928 326.424C181.888 330.872 178.704 332.552 173.28 333.224C173.504 333.496 173.872 334.024 174 334.312C179.52 333.432 182.944 331.576 184.256 326.616L182.928 326.424ZM172.896 325.704V326.84H187.104V325.704H172.896ZM175.632 330.088C179.072 331.08 183.312 332.888 185.44 334.312L186.336 333.32C184.096 331.896 179.808 330.168 176.448 329.24L175.632 330.088ZM52.368 348.56V355.328C52.368 358.208 52.032 360.72 49.328 362.496C49.6 362.688 50 363.056 50.192 363.296C53.088 361.344 53.456 358.528 53.456 355.328V348.56H52.368ZM55.12 348.56V363.264H56.272V348.56H55.12ZM49.744 351.296V352.4H52.848V351.296H49.744ZM55.728 351.296V352.4H59.072V351.296H55.728ZM55.792 354.656V355.728H58.912V354.656H55.792ZM55.712 358.144V359.248H59.344V358.144H55.712ZM49.856 354.656V355.728H52.896V354.656H49.856ZM48.944 358.832L49.408 359.872C50.4 359.52 51.536 359.104 52.64 358.672L52.464 357.744C51.152 358.16 49.872 358.576 48.944 358.832ZM44.432 356.864L44.752 358.032C46.112 357.6 47.872 357.024 49.536 356.448L49.376 355.344C47.552 355.936 45.68 356.512 44.432 356.864ZM44.656 351.792V352.912H49.52V351.792H44.656ZM46.672 348.576V361.888C46.672 362.128 46.576 362.176 46.384 362.176C46.192 362.192 45.584 362.192 44.88 362.176C45.04 362.512 45.184 363.008 45.232 363.296C46.24 363.296 46.864 363.264 47.232 363.072C47.632 362.88 47.792 362.56 47.792 361.888V348.576H46.672ZM63.968 353.792V354.864H72.048V353.792H63.968ZM63.68 361.568V362.64H72.256V361.568H63.68ZM63.136 356.88V363.296H64.304V357.968H71.712V363.296H72.928V356.88H63.136ZM67.952 349.792C69.456 351.84 72.272 354.096 74.784 355.408C74.992 355.056 75.28 354.64 75.584 354.352C73.024 353.216 70.224 350.992 68.496 348.608H67.28C66.016 350.672 63.344 353.12 60.528 354.544C60.8 354.8 61.12 355.232 61.28 355.504C64.016 354.016 66.64 351.744 67.952 349.792ZM79.92 354.88H76.736V356H78.768V360.544H79.92V354.88ZM79.92 360.064H78.88C78.128 360.752 77.264 361.472 76.56 361.984L77.184 363.152C77.984 362.448 78.72 361.76 79.424 361.072C80.416 362.336 81.872 362.896 83.984 362.976C85.776 363.056 89.2 363.024 91.008 362.944C91.056 362.592 91.248 362.032 91.392 361.76C89.456 361.888 85.76 361.936 83.984 361.856C82.08 361.792 80.672 361.248 79.92 360.064ZM76.88 349.632C77.856 350.416 78.96 351.536 79.408 352.336L80.4 351.584C79.904 350.8 78.784 349.696 77.792 348.976L76.88 349.632ZM80.832 349.92V350.896H91.136V349.92H80.832ZM83.072 354.592V355.392H88.8V354.592H83.072ZM85.296 348.56V350.512H86.448V348.56H85.296ZM85.456 353.408V356.8H86.384V353.408H85.456ZM81.408 352.528V360.912H82.512V353.488H89.888V352.528H81.408ZM83.792 356.544V360.08H84.688V356.544H83.792ZM84.272 356.544V357.312H87.216V358.704H84.272V359.456H88.112V356.544H84.272ZM89.456 352.528V359.616C89.456 359.808 89.392 359.856 89.2 359.872C88.992 359.888 88.368 359.888 87.648 359.856C87.792 360.16 87.952 360.592 88.016 360.896C88.96 360.896 89.616 360.88 90.048 360.704C90.464 360.512 90.56 360.224 90.56 359.632V352.528H89.456ZM87.936 350.688C87.76 351.2 87.392 351.984 87.12 352.496L88.08 352.768C88.384 352.304 88.72 351.648 89.072 350.992L87.936 350.688ZM82.832 351.024C83.152 351.568 83.456 352.272 83.552 352.752L84.592 352.464C84.496 351.984 84.176 351.28 83.84 350.768L82.832 351.024ZM100.816 348.608C100.896 356.192 102.304 363.296 105.488 363.296C106.704 363.296 107.168 362.512 107.376 359.744C107.04 359.632 106.592 359.344 106.32 359.072C106.224 361.2 106.048 362.048 105.584 362.048C103.632 362.048 102.064 355.92 102.096 348.608H100.816ZM103.056 349.36C104.048 349.824 105.216 350.576 105.792 351.12L106.528 350.272C105.936 349.744 104.752 349.04 103.76 348.624L103.056 349.36ZM105.152 353.456C103.888 357.488 101.584 360.56 98.256 362.352C98.512 362.576 98.992 363.056 99.168 363.296C102.528 361.28 104.944 358.064 106.336 353.744L105.152 353.456ZM93.072 351.12V352.304H106.976V351.12H93.072ZM92.992 360.96L93.216 362.192C95.088 361.792 97.712 361.216 100.16 360.672L100.064 359.52C97.456 360.08 94.736 360.624 92.992 360.96ZM95.104 354.768H98.368V357.568H95.104V354.768ZM94 353.728V358.592H99.552V353.728H94ZM110.656 349.664V358.272H111.856V350.816H120.432V358.192H121.664V349.664H110.656ZM111.216 356.544V357.696H120.928V356.544H111.216ZM117.424 359.472C119.008 360.624 120.96 362.272 121.872 363.328L122.912 362.592C121.952 361.504 119.952 359.92 118.4 358.832L117.424 359.472ZM113.408 358.8C112.48 360.08 110.608 361.552 108.912 362.448C109.2 362.656 109.632 363.056 109.872 363.312C111.6 362.336 113.488 360.784 114.672 359.312L113.408 358.8ZM128.864 353.04V361.072C128.864 362.64 129.36 363.072 131.056 363.072C131.424 363.072 133.808 363.072 134.192 363.072C135.936 363.072 136.304 362.176 136.48 359.152C136.128 359.072 135.632 358.848 135.344 358.608C135.216 361.376 135.072 361.968 134.128 361.968C133.584 361.968 131.568 361.968 131.168 361.968C130.288 361.968 130.096 361.824 130.096 361.072V353.04H128.864ZM128.992 349.552C130.928 350.24 133.264 351.44 134.496 352.368L135.264 351.312C134 350.448 131.68 349.296 129.744 348.64L128.992 349.552ZM126.192 354.32C125.968 356.4 125.44 358.736 124.368 360.144L125.456 360.8C126.608 359.264 127.104 356.704 127.344 354.56L126.192 354.32ZM135.52 354.336C136.88 356.144 138.08 358.64 138.432 360.32L139.632 359.744C139.232 358.048 138.032 355.632 136.592 353.808L135.52 354.336ZM147.6 353.376H153.552V355.44H147.6V353.376ZM147.6 350.352H153.552V352.384H147.6V350.352ZM146.512 349.312V356.48H154.704V349.312H146.512ZM146.304 358.352V359.456H154.928V358.352H146.304ZM145.072 361.664V362.752H155.456V361.664H145.072ZM140.72 349.648V350.784H145.712V349.648H140.72ZM140.896 354.272V355.408H145.488V354.272H140.896ZM140.56 360.4L140.848 361.632C142.272 361.152 144.096 360.544 145.84 359.952L145.632 358.8C143.776 359.424 141.856 360.048 140.56 360.4ZM142.72 350.096V360.24L143.872 360.016V350.096H142.72ZM150.048 349.808V355.968H149.968V362.16H151.184V355.968H151.104V349.808H150.048ZM157.76 350.976V352.016H161.008V354.368H157.76V355.424H162.096V350.976H157.76ZM157.776 356.896V357.936H161.168V360.688H157.776V361.712H162.24V356.896H157.776ZM157.28 350.976V362.8H158.368V350.976H157.28ZM162.72 349.408V350.512H171.28V349.408H162.72ZM159.312 348.56C159.152 349.36 158.8 350.528 158.512 351.296L159.456 351.504C159.84 350.8 160.272 349.696 160.624 348.752L159.312 348.56ZM166.416 349.872V363.264H167.552V349.872H166.416ZM163.328 352.48V360.88H164.432V353.568H170.256V352.48H163.328ZM169.68 352.48V359.6C169.68 359.76 169.632 359.824 169.456 359.824C169.312 359.824 168.8 359.824 168.192 359.808C168.352 360.112 168.512 360.56 168.544 360.864C169.408 360.864 169.968 360.864 170.336 360.672C170.72 360.48 170.816 360.16 170.816 359.616V352.48H169.68ZM174.512 363.712C176.192 363.136 177.28 361.824 177.28 360.096C177.28 358.976 176.8 358.24 175.904 358.24C175.264 358.24 174.688 358.64 174.688 359.392C174.688 360.16 175.232 360.544 175.888 360.544C176.192 360.544 176.512 360.464 176.736 360.176L175.872 358.96L176.176 360.32C176.176 361.52 175.456 362.336 174.144 362.88L174.512 363.712ZM45.28 380.776V381.96H58.752V380.776H45.28ZM44.848 390.36V391.592H59.152V390.36H44.848ZM49.664 381.56V391H50.848V381.56H49.664ZM53.056 381.56V391.016H54.256V381.56H53.056ZM56.8 383.336C56.416 384.936 55.664 387.192 55.024 388.568L56.096 388.872C56.752 387.528 57.504 385.416 58.08 383.656L56.8 383.336ZM55.488 377.576C55.12 378.472 54.416 379.736 53.856 380.536L54.928 380.92C55.504 380.152 56.208 379 56.784 377.96L55.488 377.576ZM46.032 383.784C46.784 385.384 47.408 387.48 47.568 388.856L48.72 388.568C48.544 387.176 47.904 385.096 47.104 383.496L46.032 383.784ZM47.408 378.024C48.048 378.856 48.72 380.04 48.976 380.824L50.096 380.328C49.808 379.576 49.136 378.44 48.464 377.592L47.408 378.024ZM63.92 383.88H60.736V385H62.768V389.544H63.92V383.88ZM63.92 389.064H62.88C62.128 389.752 61.264 390.472 60.56 390.984L61.184 392.152C61.984 391.448 62.72 390.76 63.424 390.072C64.416 391.336 65.872 391.896 67.984 391.976C69.776 392.056 73.2 392.024 75.008 391.944C75.056 391.592 75.248 391.032 75.392 390.76C73.456 390.888 69.76 390.936 67.984 390.856C66.08 390.792 64.672 390.248 63.92 389.064ZM60.88 378.632C61.856 379.416 62.96 380.536 63.408 381.336L64.4 380.584C63.904 379.8 62.784 378.696 61.792 377.976L60.88 378.632ZM64.832 379V380.008H74.896V379H64.832ZM64.592 387.448V388.456H75.136V387.448H64.592ZM69.168 377.576V390.28H70.352V377.576H69.168ZM66.704 384.12H72.896V385.4H66.704V384.12ZM66.704 382.008H72.896V383.272H66.704V382.008ZM65.6 381.112V386.312H74.064V381.112H65.6ZM83.36 388.904V392.312H84.544V388.904H83.36ZM79.92 377.544V385.08H80.944V377.544H79.92ZM77.52 383.896V385.928H78.464V383.896H77.52ZM82.592 384.936C82.048 385.464 81.104 386.184 80.368 386.616L81.136 387.064C81.872 386.632 82.8 386.04 83.568 385.416L82.592 384.936ZM85.92 385.512C84.528 386.536 82.192 387.88 80.416 388.648L81.136 389.176C82.912 388.408 85.216 387.176 86.896 386.072L85.92 385.512ZM78.736 386.568C79.952 387.08 81.44 387.896 82.192 388.472L83.024 387.768C82.224 387.176 80.704 386.408 79.536 385.928L78.736 386.568ZM86.208 387.608C87.616 388.248 89.328 389.256 90.176 389.976L90.96 389.288C90.08 388.552 88.352 387.592 86.96 387L86.208 387.608ZM86.144 390.232C87.52 390.712 89.248 391.496 90.096 392.088L90.96 391.384C90.048 390.776 88.32 390.024 86.96 389.608L86.144 390.232ZM77.04 388.488L77.072 389.464C80.112 389.432 84.816 389.304 89.248 389.192L89.296 388.36C84.736 388.44 79.936 388.488 77.04 388.488ZM80.72 389.656C79.744 390.312 78.176 390.92 76.768 391.32C77.04 391.496 77.456 391.912 77.648 392.12C79.008 391.64 80.672 390.856 81.76 390.072L80.72 389.656ZM77.04 378.376V379.08H83.904V378.376H77.04ZM85.696 378.072V378.936H88.8V378.072H85.696ZM84.544 381.464V382.328H89.552V381.464H84.544ZM76.864 382.968V383.672H84.048V382.968H76.864ZM78.384 381.304H82.528V381.88H78.384V381.304ZM78.384 380.168H82.528V380.712H78.384V380.168ZM77.488 379.56V382.488H83.472V379.56H77.488ZM85.088 378.072V379.112C85.088 379.736 84.912 380.376 83.792 380.92C84 381.064 84.384 381.512 84.512 381.736C85.84 381.032 86.144 380.04 86.144 379.128V378.072H85.088ZM88.256 378.072V379.496C88.256 380.232 88.32 380.472 88.528 380.664C88.736 380.856 89.072 380.936 89.376 380.936C89.552 380.936 89.92 380.936 90.096 380.936C90.304 380.936 90.608 380.888 90.752 380.84C90.96 380.744 91.12 380.616 91.216 380.424C91.296 380.248 91.344 379.752 91.376 379.288C91.12 379.224 90.768 379.048 90.576 378.888C90.56 379.304 90.56 379.624 90.512 379.784C90.48 379.896 90.416 379.976 90.352 380.008C90.288 380.04 90.16 380.04 90.032 380.04C89.904 380.04 89.712 380.04 89.616 380.04C89.488 380.04 89.408 380.04 89.36 379.992C89.312 379.944 89.312 379.8 89.312 379.56V378.072H88.256ZM85.888 382.248L84.96 382.488C85.952 384.504 88 385.752 90.784 386.232C90.912 385.944 91.2 385.544 91.424 385.336C88.784 384.968 86.768 383.928 85.888 382.248ZM89.184 381.464V381.624C88.416 383.576 86.24 384.6 83.84 384.984C84.016 385.192 84.24 385.576 84.336 385.816C87.008 385.288 89.312 384.152 90.224 381.672L89.6 381.432L89.408 381.464H89.184ZM82.496 383.896V384.664H78.08V385.368H83.424V383.896H82.496ZM96.544 379.736V385.032H97.552V379.736H96.544ZM94.608 381.08V381.896H99.456V381.08H94.608ZM94.608 382.824V383.624H99.456V382.824H94.608ZM94.016 384.584V385.416H99.984V384.584H94.016ZM97.28 377.784C97.104 378.328 96.736 379.128 96.432 379.64L97.216 379.88C97.536 379.416 97.936 378.712 98.288 378.04L97.28 377.784ZM94.928 377.576C94.416 379.08 93.552 380.536 92.544 381.512C92.752 381.704 93.088 382.136 93.216 382.344C94.304 381.24 95.28 379.544 95.904 377.832L94.928 377.576ZM103.472 379.688V385.096H104.48V379.688H103.472ZM101.504 381.08V381.896H106.528V381.08H101.504ZM101.504 382.824V383.624H106.528V382.824H101.504ZM100.912 384.584V385.416H107.12V384.584H100.912ZM104.128 377.784C103.936 378.328 103.536 379.128 103.248 379.64L104.016 379.896C104.352 379.416 104.752 378.696 105.12 378.04L104.128 377.784ZM101.776 377.576C101.232 379.112 100.336 380.632 99.312 381.64C99.536 381.832 99.888 382.264 100.016 382.456C101.104 381.32 102.128 379.576 102.768 377.848L101.776 377.576ZM94.88 379.32L94.128 380.168H99.792V379.32H94.88ZM94.016 380.328V385.016H95.072V379.544L94.016 380.328ZM101.712 379.32L100.96 380.168H106.88V379.32H101.712ZM100.912 380.328V385.016H101.952V379.496L100.912 380.328ZM93.648 386.408V387.432H104.576V386.408H93.648ZM104.16 386.408V386.584C102.288 389.464 97.344 390.808 92.736 391.208C92.944 391.496 93.152 391.992 93.248 392.296C98.096 391.768 103.216 390.296 105.456 386.872L104.656 386.36L104.432 386.408H104.16ZM96.736 387.24L95.648 387.752C97.872 390.36 101.92 391.816 106.48 392.328C106.64 391.992 106.96 391.464 107.232 391.176C102.72 390.776 98.64 389.464 96.736 387.24ZM108.832 380.328V381.48H123.152V380.328H108.832ZM114.064 384.12V385.272H120.464V384.12H114.064ZM120.032 384.12L120.016 384.328C119.744 388.712 119.424 390.504 118.912 390.968C118.736 391.128 118.512 391.144 118.16 391.144C117.744 391.144 116.608 391.144 115.456 391.032C115.68 391.368 115.856 391.864 115.872 392.216C116.96 392.264 118.016 392.296 118.576 392.264C119.184 392.216 119.584 392.104 119.952 391.72C120.576 391.08 120.896 389.304 121.216 384.696C121.248 384.52 121.264 384.12 121.264 384.12H120.032ZM113.792 380.968C113.616 384.792 113.344 389.256 108.672 391.368C108.976 391.608 109.36 392.04 109.536 392.344C114.416 390.008 114.88 385.208 115.12 380.968H113.792ZM115.312 377.528V380.824H116.544V377.528H115.312ZM130.736 379.48V380.536H138.736V379.48H130.736ZM130.048 382.584V383.656H139.424V382.584H130.048ZM130.128 385.48V386.552H139.248V385.48H130.128ZM134.096 377.56V383.24H135.28V377.56H134.096ZM136.208 383.496V390.84C136.208 391.08 136.128 391.144 135.856 391.16C135.6 391.176 134.704 391.176 133.712 391.144C133.888 391.464 134.08 391.944 134.128 392.264C135.408 392.264 136.224 392.248 136.72 392.072C137.216 391.896 137.376 391.544 137.376 390.856V383.496H136.208ZM131.104 387.672C131.92 388.504 132.784 389.704 133.136 390.488L134.176 389.848C133.792 389.064 132.896 387.928 132.064 387.096L131.104 387.672ZM125.776 378.616V379.704H128.656V388.04H125.776V389.128H129.776V378.616H125.776ZM125.824 383.272V384.344H129.184V383.272H125.824ZM125.2 378.616V390.44H126.336V378.616H125.2ZM145.552 387.368V388.296H150.4V387.368H145.552ZM145.504 384.952V385.896H149.824V389.864H145.504V390.792H150.96V384.952H145.504ZM144.976 384.952V391.608H146.08V384.952H144.976ZM142.032 380.52V381.4H146.48V380.52H142.032ZM149.408 380.52V381.4H153.936V380.52H149.408ZM153.44 378.248V390.696C153.44 390.968 153.344 391.064 153.056 391.064C152.768 391.08 151.792 391.096 150.816 391.048C150.992 391.384 151.184 391.944 151.232 392.28C152.576 392.28 153.44 392.264 153.952 392.072C154.464 391.864 154.64 391.464 154.64 390.696V378.248H153.44ZM142.128 378.248V379.176H146.112V382.824H142.128V383.752H147.248V378.248H142.128ZM154.032 378.248H148.688V383.768H154.032V382.856H149.84V379.176H154.032V378.248ZM141.44 378.248V392.296H142.624V378.248H141.44ZM159.104 387.112C157.76 387.112 156.656 388.2 156.656 389.544C156.656 390.888 157.76 391.976 159.104 391.976C160.448 391.976 161.536 390.888 161.536 389.544C161.536 388.2 160.448 387.112 159.104 387.112ZM159.104 391.16C158.208 391.16 157.472 390.44 157.472 389.544C157.472 388.648 158.208 387.928 159.104 387.928C160 387.928 160.72 388.648 160.72 389.544C160.72 390.44 160 391.16 159.104 391.16Z" fill="#7E7E7E"/>
<path d="M91.5 166.5V127C92 120.833 97.3 108.4 114.5 108C131.7 107.6 136.667 120.5 137 127V166.5" stroke="#002B51" stroke-width="3" stroke-linecap="round"/>
<path d="M99.5 131C105.9 131.8 111.833 126.667 114 124C118 129.6 125.667 131 129 131V144C127.833 147.667 123.2 155 114 155C104.8 155 100.5 147.667 99.5 144V131Z" stroke="#002B51" stroke-width="3" stroke-linecap="round" stroke-linejoin="round"/>
<path d="M110.5 144C110.333 145.333 111.3 148 114.5 148C117.7 148 118 145.333 118 144" stroke="#002B51" stroke-width="3" stroke-linecap="round" stroke-linejoin="round"/>
<path d="M74.5 217C71.6667 200.333 74.1 166.2 106.5 163" stroke="#002B51" stroke-width="3" stroke-linecap="round" stroke-linejoin="round"/>
<path d="M122 163C127.667 163 140.7 166 147.5 178" stroke="#002B51" stroke-width="3" stroke-linecap="round" stroke-linejoin="round"/>
<path d="M106.5 153.5V163C107.333 164.667 109 168.5 114 168.5C118.02 168.5 120.667 165 121.5 163V153.5" stroke="#002B51" stroke-width="3" stroke-linecap="round" stroke-linejoin="round"/>
<path d="M91 168.5L102 180V188.5L114 202.5L127.5 188.5L126 180L137.5 167.5" stroke="#002B51" stroke-width="3" stroke-linecap="round" stroke-linejoin="round"/>
<path d="M106 164L114 201.5" stroke="#002B51" stroke-width="3" stroke-linecap="round" stroke-linejoin="round"/>
<path d="M122 163L114.5 200.5" stroke="#002B51" stroke-width="3" stroke-linecap="round" stroke-linejoin="round"/>
<path d="M114.5 201.5V217.5" stroke="#002B51" stroke-width="3" stroke-linecap="round" stroke-linejoin="round"/>
<path d="M135.5 182C140.7 177.6 147 181.5 149.5 184C153 179.5 159 179 162.5 182C166 185 167.5 189.5 164.5 194.5C162.1 198.5 153.5 205.5 149.5 207.5C143.5 205.5 137 198 135 196C133 194 129 187.5 135.5 182Z" fill="#FF715C"/>
<defs>
<filter id="filter0_d_466_1277" x="0" y="17" width="230" height="449" filterUnits="userSpaceOnUse" color-interpolation-filters="sRGB">
<feFlood flood-opacity="0" result="BackgroundImageFix"/>
<feColorMatrix in="SourceAlpha" type="matrix" values="0 0 0 0 0 0 0 0 0 0 0 0 0 0 0 0 0 0 127 0" result="hardAlpha"/>
<feOffset dy="4"/>
<feGaussianBlur stdDeviation="4.5"/>
<feComposite in2="hardAlpha" operator="out"/>
<feColorMatrix type="matrix" values="0 0 0 0 0 0 0 0 0 0 0 0 0 0 0 0 0 0 0.25 0"/>
<feBlend mode="normal" in2="BackgroundImageFix" result="effect1_dropShadow_466_1277"/>
<feBlend mode="normal" in="SourceGraphic" in2="effect1_dropShadow_466_1277" result="shape"/>
</filter>
</defs>
</svg>
