<svg width="400" height="261" viewBox="0 0 400 261" fill="none" xmlns="http://www.w3.org/2000/svg">
<path d="M228.306 200.526H72.5669C72.5669 207.149 76.7713 208.689 78.8735 208.632H221.824C227.99 208.494 228.714 203.171 228.306 200.526Z" fill="#002B51"/>
<path d="M78.8726 119.038V198.695C78.8726 201.945 81.5075 204.58 84.7578 204.58H215.758C219.009 204.58 221.644 201.945 221.644 198.695V119.038C221.644 115.787 219.009 113.152 215.758 113.152H84.7578C81.5075 113.152 78.8726 115.787 78.8726 119.038Z" fill="#002B51"/>
<path d="M217.59 120.359H82.4751V200.527H217.59V120.359Z" fill="white"/>
<path d="M136.474 203.679L134.72 200.977H149.808H164.895L163.316 203.679H136.474Z" fill="#74CADD"/>
<path d="M87.3423 129.061V128.464L89.7158 125.134H87.3376V124.304H90.9792V124.901L88.6034 128.232H90.9839V129.061H87.3423ZM93.3487 129.13C92.9879 129.13 92.676 129.054 92.4128 128.901C92.1511 128.746 91.949 128.531 91.8066 128.255C91.6642 127.978 91.5929 127.656 91.5929 127.291C91.5929 126.923 91.6642 126.601 91.8066 126.325C91.949 126.048 92.1511 125.833 92.4128 125.679C92.676 125.524 92.9879 125.447 93.3487 125.447C93.7094 125.447 94.0207 125.524 94.2823 125.679C94.5455 125.833 94.7484 126.048 94.8908 126.325C95.0332 126.601 95.1045 126.923 95.1045 127.291C95.1045 127.656 95.0332 127.978 94.8908 128.255C94.7484 128.531 94.5455 128.746 94.2823 128.901C94.0207 129.054 93.7094 129.13 93.3487 129.13ZM93.3533 128.364C93.5175 128.364 93.6545 128.318 93.7644 128.225C93.8743 128.13 93.9572 128.002 94.0129 127.839C94.0702 127.677 94.0988 127.492 94.0988 127.284C94.0988 127.077 94.0702 126.892 94.0129 126.729C93.9572 126.566 93.8743 126.438 93.7644 126.344C93.6545 126.249 93.5175 126.202 93.3533 126.202C93.1877 126.202 93.0483 126.249 92.9353 126.344C92.8238 126.438 92.7394 126.566 92.6822 126.729C92.6264 126.892 92.5985 127.077 92.5985 127.284C92.5985 127.492 92.6264 127.677 92.6822 127.839C92.7394 128.002 92.8238 128.13 92.9353 128.225C93.0483 128.318 93.1877 128.364 93.3533 128.364ZM97.6034 129.165C97.2039 129.164 96.8602 129.065 96.5722 128.87C96.2858 128.675 96.0652 128.393 95.9103 128.023C95.7571 127.653 95.6812 127.207 95.6827 126.687C95.6827 126.169 95.7594 125.727 95.9127 125.361C96.0675 124.996 96.2881 124.718 96.5746 124.527C96.8625 124.335 97.2055 124.239 97.6034 124.239C98.0013 124.239 98.3435 124.335 98.6299 124.527C98.9179 124.719 99.1393 124.998 99.2941 125.363C99.449 125.727 99.5256 126.169 99.5241 126.687C99.5241 127.209 99.4466 127.655 99.2918 128.025C99.1385 128.395 98.9187 128.678 98.6322 128.873C98.3458 129.068 98.0029 129.165 97.6034 129.165ZM97.6034 128.332C97.8759 128.332 98.0934 128.195 98.256 127.92C98.4186 127.646 98.4991 127.235 98.4975 126.687C98.4975 126.327 98.4604 126.026 98.3861 125.786C98.3133 125.546 98.2096 125.366 98.0749 125.245C97.9417 125.124 97.7846 125.064 97.6034 125.064C97.3325 125.064 97.1157 125.199 96.9531 125.47C96.7906 125.741 96.7085 126.147 96.7069 126.687C96.7069 127.053 96.7433 127.358 96.8161 127.602C96.8904 127.845 96.9949 128.028 97.1296 128.15C97.2643 128.271 97.4223 128.332 97.6034 128.332ZM101.862 129.13C101.501 129.13 101.189 129.054 100.926 128.901C100.665 128.746 100.463 128.531 100.32 128.255C100.178 127.978 100.106 127.656 100.106 127.291C100.106 126.923 100.178 126.601 100.32 126.325C100.463 126.048 100.665 125.833 100.926 125.679C101.189 125.524 101.501 125.447 101.862 125.447C102.223 125.447 102.534 125.524 102.796 125.679C103.059 125.833 103.262 126.048 103.404 126.325C103.547 126.601 103.618 126.923 103.618 127.291C103.618 127.656 103.547 127.978 103.404 128.255C103.262 128.531 103.059 128.746 102.796 128.901C102.534 129.054 102.223 129.13 101.862 129.13ZM101.867 128.364C102.031 128.364 102.168 128.318 102.278 128.225C102.388 128.13 102.471 128.002 102.526 127.839C102.584 127.677 102.612 127.492 102.612 127.284C102.612 127.077 102.584 126.892 102.526 126.729C102.471 126.566 102.388 126.438 102.278 126.344C102.168 126.249 102.031 126.202 101.867 126.202C101.701 126.202 101.562 126.249 101.449 126.344C101.337 126.438 101.253 126.566 101.196 126.729C101.14 126.892 101.112 127.077 101.112 127.284C101.112 127.492 101.14 127.677 101.196 127.839C101.253 128.002 101.337 128.13 101.449 128.225C101.562 128.318 101.701 128.364 101.867 128.364ZM104.261 129.061V125.494H105.204V126.123H105.246C105.32 125.914 105.444 125.749 105.618 125.628C105.791 125.507 105.998 125.447 106.24 125.447C106.485 125.447 106.693 125.508 106.865 125.631C107.037 125.751 107.151 125.915 107.208 126.123H107.246C107.318 125.919 107.45 125.755 107.64 125.633C107.832 125.509 108.059 125.447 108.321 125.447C108.654 125.447 108.924 125.553 109.131 125.765C109.34 125.976 109.445 126.275 109.445 126.662V129.061H108.458V126.857C108.458 126.659 108.405 126.51 108.3 126.411C108.195 126.312 108.063 126.262 107.905 126.262C107.726 126.262 107.585 126.32 107.485 126.434C107.384 126.547 107.334 126.697 107.334 126.882V129.061H106.375V126.836C106.375 126.661 106.324 126.522 106.224 126.418C106.125 126.314 105.994 126.262 105.831 126.262C105.721 126.262 105.622 126.29 105.534 126.346C105.447 126.4 105.378 126.477 105.327 126.576C105.276 126.673 105.251 126.788 105.251 126.92V129.061H104.261Z" fill="#161616"/>
<circle cx="145.928" cy="159.49" r="32.8259" fill="#FFC43D"/>
<path fill-rule="evenodd" clip-rule="evenodd" d="M149.21 179.185L147.605 172.902L149.72 172.338L151.398 178.638L150.851 180.827L149.21 179.185Z" fill="#FF715C"/>
<rect x="145.928" y="146.359" width="3.28259" height="7.65938" rx="0.964364" fill="#002B51"/>
<rect x="163.435" y="145.265" width="3.28259" height="7.65938" rx="0.964364" fill="#002B51"/>
<path d="M141.55 142.923C143.192 140.37 146.474 139.093 150.304 140.188" stroke="#002B51" stroke-width="1.92873" stroke-linecap="round"/>
<path d="M160.699 139.794C161.128 138.835 166.332 138.53 168.359 141.436" stroke="#002B51" stroke-width="1.92873" stroke-linecap="round"/>
<path d="M165.474 160.584C165.474 163.802 162.184 166.732 157.685 166.732C153.187 166.732 149.896 163.802 149.896 160.584C149.896 159.77 150.096 159.168 150.415 158.703C150.738 158.232 151.227 157.839 151.904 157.523C153.288 156.876 155.299 156.625 157.685 156.625C160.071 156.625 162.082 156.876 163.467 157.523C164.143 157.839 164.632 158.232 164.956 158.703C165.274 159.168 165.474 159.77 165.474 160.584Z" stroke="#002B51" stroke-width="1.92873"/>
<path d="M165.623 162.225C159.496 159.161 153.222 161.678 150.851 163.319C149.101 158.942 153.012 156.754 156.87 156.754C162.997 155.441 165.258 159.854 165.623 162.225Z" fill="#002B51"/>
<rect width="24.0723" height="35.0143" rx="2.89309" transform="matrix(1 0 -0.293206 0.956049 173.702 152.925)" fill="#FF715C"/>
<path d="M196.808 165.508C196.36 164.613 194.437 164.414 193.525 164.414H192.431H191.337C189.148 164.414 188.601 164.961 188.208 165.947C188.054 167.149 189.574 167.691 190.79 168.244C186.413 168.244 187.142 170.614 188.054 171.526C184.99 172.401 186.413 174.079 187.507 174.809C184.443 175.684 185.866 177.362 186.96 178.091C189.586 178.967 192.066 177.727 192.978 176.997C195.167 175.684 195.714 170.432 195.714 168.244C197.464 167.368 197.173 166.237 196.808 165.508Z" fill="#FFC43D"/>
<path d="M191.336 168.243C192.248 168.426 193.415 168.681 195.166 168.243" stroke="#002B51" stroke-width="0.964364" stroke-linecap="round"/>
<path d="M188.602 171.526C189.513 171.708 191.775 171.964 193.525 171.526" stroke="#002B51" stroke-width="0.964364" stroke-linecap="round"/>
<path d="M188.054 174.808C188.966 174.991 190.68 175.246 192.43 174.808" stroke="#002B51" stroke-width="0.964364" stroke-linecap="round"/>
<path d="M136.626 199.975V189.58L159.057 189.033L159.605 199.975H136.626Z" fill="#FFC43D"/>
<path d="M147.569 191.221V200.522" stroke="#002B51" stroke-width="1.92873"/>
<path d="M145.381 161.678L146.475 166.055" stroke="#FF715C" stroke-width="1.92873"/>
<path d="M122.949 163.867C125.685 168.243 131.812 176.012 138.815 169.885C145.818 163.757 150.122 167.332 151.398 169.885C151.581 170.614 151.508 172.511 149.757 172.073C149.028 171.526 147.24 169.885 145.927 169.885" stroke="#002B51" stroke-width="1.44655" stroke-linecap="round"/>
<path d="M148.116 172.073C148.298 174.261 147.021 178.747 140.456 179.185C136.079 181.556 126.232 184.109 119.667 177.544" stroke="#002B51" stroke-width="1.44655" stroke-linecap="round"/>
<rect x="87.1689" y="68.0198" width="38.152" height="27.7603" rx="6.85906" fill="#002B51"/>
<path d="M124.651 87.0222L117.988 94.8193C117.859 94.97 117.867 95.1942 118.007 95.335L124.67 102.062C124.909 102.304 125.321 102.134 125.321 101.794V87.2698C125.321 86.9157 124.881 86.753 124.651 87.0222Z" fill="#002B51"/>
<rect x="88.7808" y="68.0198" width="36.728" height="26.4707" rx="6.85906" fill="#FAFAFA"/>
<path d="M124.84 86.167L118.461 93.5603C118.331 93.7115 118.339 93.9376 118.48 94.0787L124.859 100.457C125.099 100.697 125.509 100.527 125.509 100.188V86.4159C125.509 86.0627 125.071 85.8996 124.84 86.167Z" fill="#FAFAFA"/>
<circle cx="99.5278" cy="83.0652" r="2.14941" fill="#002B51"/>
<circle cx="107.588" cy="83.0652" r="2.14941" fill="#002B51"/>
<circle cx="115.649" cy="83.0652" r="2.14941" fill="#002B51"/>
<path d="M13.919 207.91C8.11205 211.209 16.6732 227.156 21.8726 235.012C22.0571 235.29 22.3986 235.408 22.7186 235.312L28.7307 233.501C29.0954 233.392 29.3252 233.03 29.2658 232.653C27.089 218.825 21.2077 203.768 13.919 207.91Z" fill="#002B51"/>
<path d="M31.7731 165.105C14.131 169.179 19.077 211.779 23.8999 233.33C23.9964 233.761 24.434 234.004 24.8564 233.877L39.0758 229.594C39.3442 229.513 39.5455 229.301 39.6027 229.025C44.4377 205.727 49.5195 161.007 31.7731 165.105Z" fill="#002B51"/>
<path fill-rule="evenodd" clip-rule="evenodd" d="M24.6407 233.142L38.8572 228.859C41.2687 217.236 43.7335 200.304 43.3923 186.813C43.2211 180.048 42.3453 174.253 40.4771 170.427C39.5481 168.524 38.4006 167.165 37.0268 166.388C35.6684 165.62 34.0066 165.376 31.9422 165.852C27.8701 166.793 25.0222 169.96 23.1312 174.735C21.2376 179.517 20.3573 185.793 20.1753 192.682C19.8119 206.441 22.2383 222.401 24.6407 233.142ZM21.7126 174.172C23.7053 169.14 26.8547 165.455 31.6036 164.358C33.9757 163.811 36.037 164.067 37.7785 165.052C39.5047 166.027 40.8339 167.671 41.8484 169.749C43.8673 173.883 44.7463 179.956 44.9187 186.77C45.2643 200.435 42.7725 217.505 40.3497 229.179C40.2328 229.743 39.8189 230.169 39.293 230.328L25.0739 234.611C24.2493 234.859 23.3532 234.385 23.1549 233.499C20.7359 222.69 18.2808 206.585 18.6489 192.645C18.8329 185.681 19.7225 179.197 21.7126 174.172Z" fill="#032068"/>
<path d="M48.4726 189.59C37.9389 191.203 36.0878 216.826 36.4412 230.196C36.4544 230.697 36.9381 231.038 37.4164 230.894L45.1177 228.574C45.3388 228.508 45.5157 228.351 45.6028 228.136C51.1291 214.505 59.1828 187.95 48.4726 189.59Z" fill="#002B51"/>
<path fill-rule="evenodd" clip-rule="evenodd" d="M33.0233 182.647L33.1724 171.197L31.645 171.18L31.3398 194.621L25.4669 188.97L24.4085 190.079L31.3124 196.722L31.0121 219.789L25.867 215.482L24.8871 216.661L30.9863 221.766L30.8551 231.84L32.3825 231.856L32.6502 211.296L38.7483 205.298L37.6807 204.204L32.6785 209.125L32.994 184.891L38.0361 179.606L36.9342 178.547L33.0233 182.647Z" fill="white"/>
<path d="M11.5219 228.822C11.2167 227.39 12.3023 226.04 13.7586 226.04H48.6599C50.0842 226.04 51.1621 227.335 50.9118 228.745L45.7783 257.654C45.5835 258.751 44.6346 259.55 43.5264 259.55H19.9188C18.8401 259.55 17.9081 258.792 17.6821 257.732L11.5219 228.822Z" fill="#FFC43D"/>
<path d="M234.959 211.872H63.3205C60.0328 211.872 57.3677 214.54 57.3677 217.831C57.3677 221.121 60.0328 223.789 63.3204 223.789H234.959C238.247 223.789 240.912 221.121 240.912 217.831C240.912 214.54 238.247 211.872 234.959 211.872Z" fill="#FFC43D"/>
<path d="M75.9004 251.096L82.2286 224.359H98.0069L86.2549 251.096H75.9004Z" fill="#E4D6BC"/>
<path d="M220.514 251.096L214.485 224.359H198.408L209.963 251.096H220.514Z" fill="#E4D6BC"/>
<path d="M283.574 29.2109C283.574 44.3231 271.323 56.5739 256.211 56.5739C241.099 56.5739 228.848 44.3231 228.848 29.2109C228.848 14.0987 241.099 1.8479 256.211 1.8479C271.323 1.8479 283.574 14.0987 283.574 29.2109Z" fill="#FAFAFA"/>
<path fill-rule="evenodd" clip-rule="evenodd" d="M256.211 2.69589C241.567 2.69589 229.696 14.5671 229.696 29.211C229.696 43.8548 241.567 55.726 256.211 55.726C270.855 55.726 282.726 43.8548 282.726 29.211C282.726 14.5671 270.855 2.69589 256.211 2.69589ZM228 29.211C228 13.6305 240.63 1 256.211 1C271.791 1 284.422 13.6305 284.422 29.211C284.422 44.7915 271.791 57.4219 256.211 57.4219C240.63 57.4219 228 44.7915 228 29.211Z" fill="#002B51" stroke="#002B51" stroke-width="0.54013"/>
<path d="M262.042 29.2109C262.042 32.4315 259.431 35.0423 256.211 35.0423C252.99 35.0423 250.379 32.4315 250.379 29.2109C250.379 25.9902 252.99 23.3794 256.211 23.3794C259.431 23.3794 262.042 25.9902 262.042 29.2109Z" fill="#FFC43D"/>
<path fill-rule="evenodd" clip-rule="evenodd" d="M255.53 6.25854L257.535 28.8237L247.443 40.9672L246.139 39.8832L255.784 28.2775L253.841 6.40861L255.53 6.25854Z" fill="#002B51" stroke="#002B51" stroke-width="0.54013"/>
<rect x="268.349" y="153.474" width="122.516" height="68.781" rx="10.8745" fill="#FFC43D"/>
<rect x="325.845" y="212.583" width="58.034" height="2.14941" rx="1.0747" fill="#002B51"/>
<circle cx="310.496" cy="153.203" r="63.9098" fill="#74CADD"/>
<path d="M297.33 131.043C297.33 129.624 298.48 128.473 299.899 128.473V128.473C301.318 128.473 302.468 129.624 302.468 131.043V137.466C302.468 138.885 301.318 140.035 299.899 140.035V140.035C298.48 140.035 297.33 138.885 297.33 137.466V131.043Z" fill="#002B51"/>
<path d="M268.425 131.364C268.425 130.122 269.432 129.116 270.673 129.116V129.116C271.915 129.116 272.921 130.122 272.921 131.364V137.787C272.921 139.028 271.915 140.035 270.673 140.035V140.035C269.432 140.035 268.425 139.028 268.425 137.787V131.364Z" fill="#002B51"/>
<path d="M281.377 167.502C279.985 166.645 276.688 165.19 274.632 166.217" stroke="#002B51" stroke-width="2.5587"/>
<path d="M297.843 149.06C297.843 153.59 293.084 157.736 286.559 157.736C280.033 157.736 275.275 153.59 275.275 149.06C275.275 147.915 275.563 147.133 275.999 146.564C276.444 145.982 277.132 145.509 278.118 145.145C280.147 144.396 283.066 144.233 286.559 144.233C290.052 144.233 292.97 144.396 294.999 145.145C295.986 145.509 296.673 145.982 297.119 146.564C297.555 147.133 297.843 147.915 297.843 149.06Z" stroke="#002B51" stroke-width="2.5587"/>
<path d="M296.376 153.66C290.07 143.142 277.921 148.045 276.012 152.499C273.15 144.55 282.267 143.674 284.488 143.461L284.492 143.461C297.013 144.545 299.364 147.923 296.376 153.66Z" fill="#002B51"/>
<path d="M265.722 125.453C267.904 122.481 272.922 120.104 277.177 125.453" stroke="#002B51" stroke-width="2.5587" stroke-linecap="round"/>
<path d="M294.359 119.427C297.402 117.687 304.464 117.957 307.723 122.908" stroke="#002B51" stroke-width="2.5587" stroke-linecap="round"/>
<path d="M393.273 167.452C414.188 145.594 381.371 137.558 362.348 136.272L357.566 158.13L371.913 160.38L351.827 177.417C343.41 185.389 348.32 193.382 351.827 196.382C361.519 205.126 369.256 198.097 371.913 193.489C374.144 187.382 369.787 183.632 365.536 182.239C376.504 181.467 388.597 172.06 393.273 167.452Z" fill="#74CADD"/>
<path d="M340.179 153.454L375.18 159.592L348.452 174.455C345.211 177.686 343.29 189.895 351.846 197.39C362.541 206.758 381.662 193.19 366.754 183.821" stroke="#002B51" stroke-width="2.5587"/>
<path d="M371.374 56.8369L371.692 62.5644" stroke="#FFC43D" stroke-width="1.91903" stroke-linecap="round"/>
<path d="M385.375 58.1099L382.852 63.6757" stroke="#74CADD" stroke-width="1.91903" stroke-linecap="round"/>
<path d="M394.92 68.2918L388.979 71.1622" stroke="#FFC43D" stroke-width="1.91903" stroke-linecap="round"/>
<rect x="364.96" y="88.4412" width="13.1728" height="18.5617" rx="6.58642" transform="rotate(14.0338 364.96 88.4412)" fill="#74CADD"/>
<circle cx="373.528" cy="81.3246" r="14.3704" transform="rotate(14.0338 373.528 81.3246)" fill="#FFC43D"/>
<path d="M366.848 91.9991C369.171 85.9965 370.623 70.7239 364.451 73.193C354.802 77.053 377.737 86.0313 377.737 78.1558C377.737 71.4738 370.737 72.6113 370.737 77.5488C370.737 82.4864 382.822 86.117 385.363 83.3576C387.904 80.5983 384.419 75.292 381.878 77.5489C376.468 82.3526 374.859 89.1669 374.109 93.8141" stroke="#002B51" stroke-width="1.27935" stroke-linecap="round"/>
<path d="M365.541 95.9927C366.118 96.6353 368.38 98.1375 372.811 99.0059" stroke="#002B51" stroke-width="1.27935" stroke-linecap="round"/>
<path d="M364.524 100.059C365.043 100.936 367.195 102.879 371.654 103.635" stroke="#002B51" stroke-width="1.27935" stroke-linecap="round"/>
<rect x="268.349" y="214.732" width="109.62" height="4.83617" rx="2.41808" fill="#FFC43D"/>
<path d="M233.015 230.996L291.812 201.846L316.466 194.869L321.676 186.782C308.199 167 280.371 176.879 268.141 184.291L221.513 203.59C218.644 200.86 215.44 202.573 214.197 203.771L233.015 230.996Z" fill="#74CADD"/>
<path d="M271.132 183.683C274.632 182.585 277.178 181.773 280.36 179.546C287.36 173.5 299.528 176.389 305.815 182.092" stroke="#002B51" stroke-width="2.5587"/>
<path d="M259.64 191.704C228.934 180.658 234.498 151.886 247.502 149.318L269.186 188.658C269.606 188.299 269.677 188.219 269.272 188.814L269.186 188.658C268.7 189.075 267.748 189.867 266.529 190.419C263.695 191.704 262.711 192.346 259.64 191.704Z" fill="#74CADD"/>
<path d="M258.404 186.411C262.541 187.38 274.171 182.891 276.902 181.612C281.692 180.076 281.839 171.587 281.314 167.535C285.348 165.743 282.995 163.162 281.314 162.096C273.751 155.186 262.406 162.843 257.679 167.535C254.633 167.002 248.54 163.312 248.54 152.818" stroke="#002B51" stroke-width="2.5587"/>
<path d="M296.269 226.638C304.927 218.365 308.785 212.001 313.452 212.956L296.269 204.872C272.341 199.272 258.829 229.396 252.995 242.23C247.395 238.157 242.813 242.972 241.858 246.366L276.86 260.685C277.708 257.079 284.814 237.584 296.269 226.638Z" fill="#74CADD"/>
<path d="M273.677 212.638C284.814 201.501 298.687 195.697 309.187 210.971" stroke="#002B51" stroke-width="2.5587"/>
</svg>
