<svg width="169" height="138" viewBox="0 0 169 138" fill="none" xmlns="http://www.w3.org/2000/svg">
<rect width="168.793" height="118.612" rx="5" fill="#002B51"/>
<rect x="6.84302" y="6.84302" width="155.107" height="96.9421" rx="2" fill="white"/>
<rect x="68.4297" y="118.612" width="31.9339" height="15.9669" fill="#74CADD"/>
<path d="M118.612 138H47.9009V133.438C47.9009 131.613 49.8017 131.157 50.7521 131.157H115.76C118.041 131.157 118.612 133.058 118.612 134.008V138Z" fill="#002B51"/>
<path d="M14.1291 19.4049V18.6748L17.0325 14.6009H14.1234V13.5867H18.578V14.3168L15.6717 18.3907H18.5836V19.4049H14.1291ZM21.4764 19.4901C21.0351 19.4901 20.6535 19.3964 20.3315 19.2089C20.0114 19.0195 19.7643 18.7562 19.59 18.4191C19.4158 18.0801 19.3287 17.6871 19.3287 17.2401C19.3287 16.7894 19.4158 16.3954 19.59 16.0583C19.7643 15.7193 20.0114 15.456 20.3315 15.2685C20.6535 15.0791 21.0351 14.9845 21.4764 14.9845C21.9177 14.9845 22.2984 15.0791 22.6184 15.2685C22.9404 15.456 23.1885 15.7193 23.3628 16.0583C23.537 16.3954 23.6241 16.7894 23.6241 17.2401C23.6241 17.6871 23.537 18.0801 23.3628 18.4191C23.1885 18.7562 22.9404 19.0195 22.6184 19.2089C22.2984 19.3964 21.9177 19.4901 21.4764 19.4901ZM21.4821 18.5526C21.6828 18.5526 21.8504 18.4958 21.9849 18.3822C22.1194 18.2666 22.2207 18.1095 22.2889 17.9106C22.359 17.7117 22.394 17.4854 22.394 17.2316C22.394 16.9778 22.359 16.7515 22.2889 16.5526C22.2207 16.3538 22.1194 16.1966 21.9849 16.081C21.8504 15.9655 21.6828 15.9077 21.4821 15.9077C21.2794 15.9077 21.109 15.9655 20.9707 16.081C20.8344 16.1966 20.7311 16.3538 20.6611 16.5526C20.5929 16.7515 20.5588 16.9778 20.5588 17.2316C20.5588 17.4854 20.5929 17.7117 20.6611 17.9106C20.7311 18.1095 20.8344 18.2666 20.9707 18.3822C21.109 18.4958 21.2794 18.5526 21.4821 18.5526ZM26.6809 19.5327C26.1923 19.5309 25.7719 19.4106 25.4196 19.172C25.0692 18.9333 24.7993 18.5877 24.6099 18.135C24.4224 17.6824 24.3296 17.1379 24.3315 16.5015C24.3315 15.867 24.4253 15.3263 24.6128 14.8793C24.8022 14.4324 25.072 14.0924 25.4224 13.8595C25.7747 13.6246 26.1942 13.5072 26.6809 13.5072C27.1677 13.5072 27.5862 13.6246 27.9366 13.8595C28.2889 14.0943 28.5597 14.4352 28.7491 14.8822C28.9385 15.3273 29.0323 15.867 29.0304 16.5015C29.0304 17.1398 28.9357 17.6852 28.7463 18.1379C28.5588 18.5905 28.2898 18.9362 27.9395 19.1748C27.5891 19.4134 27.1696 19.5327 26.6809 19.5327ZM26.6809 18.5129C27.0143 18.5129 27.2804 18.3452 27.4792 18.01C27.6781 17.6748 27.7766 17.172 27.7747 16.5015C27.7747 16.0602 27.7292 15.6928 27.6383 15.3992C27.5493 15.1057 27.4224 14.885 27.2576 14.7373C27.0948 14.5896 26.9025 14.5157 26.6809 14.5157C26.3495 14.5157 26.0844 14.6814 25.8855 15.0129C25.6866 15.3443 25.5862 15.8405 25.5844 16.5015C25.5844 16.9485 25.6289 17.3216 25.7179 17.6208C25.8088 17.9182 25.9366 18.1416 26.1014 18.2913C26.2662 18.439 26.4594 18.5129 26.6809 18.5129ZM31.8905 19.4901C31.4492 19.4901 31.0675 19.3964 30.7456 19.2089C30.4255 19.0195 30.1783 18.7562 30.0041 18.4191C29.8299 18.0801 29.7427 17.6871 29.7427 17.2401C29.7427 16.7894 29.8299 16.3954 30.0041 16.0583C30.1783 15.7193 30.4255 15.456 30.7456 15.2685C31.0675 15.0791 31.4492 14.9845 31.8905 14.9845C32.3317 14.9845 32.7124 15.0791 33.0325 15.2685C33.3545 15.456 33.6026 15.7193 33.7768 16.0583C33.9511 16.3954 34.0382 16.7894 34.0382 17.2401C34.0382 17.6871 33.9511 18.0801 33.7768 18.4191C33.6026 18.7562 33.3545 19.0195 33.0325 19.2089C32.7124 19.3964 32.3317 19.4901 31.8905 19.4901ZM31.8961 18.5526C32.0969 18.5526 32.2645 18.4958 32.399 18.3822C32.5335 18.2666 32.6348 18.1095 32.703 17.9106C32.773 17.7117 32.8081 17.4854 32.8081 17.2316C32.8081 16.9778 32.773 16.7515 32.703 16.5526C32.6348 16.3538 32.5335 16.1966 32.399 16.081C32.2645 15.9655 32.0969 15.9077 31.8961 15.9077C31.6935 15.9077 31.523 15.9655 31.3848 16.081C31.2484 16.1966 31.1452 16.3538 31.0751 16.5526C31.0069 16.7515 30.9728 16.9778 30.9728 17.2316C30.9728 17.4854 31.0069 17.7117 31.0751 17.9106C31.1452 18.1095 31.2484 18.2666 31.3848 18.3822C31.523 18.4958 31.6935 18.5526 31.8961 18.5526ZM34.8251 19.4049V15.0413H35.9785V15.8112H36.0297C36.1206 15.5555 36.2721 15.3538 36.4842 15.206C36.6963 15.0583 36.9501 14.9845 37.2456 14.9845C37.5448 14.9845 37.7995 15.0593 38.0098 15.2089C38.22 15.3566 38.3602 15.5574 38.4302 15.8112H38.4757C38.5647 15.5612 38.7257 15.3613 38.9586 15.2117C39.1935 15.0602 39.471 14.9845 39.791 14.9845C40.1982 14.9845 40.5287 15.1142 40.7825 15.3737C41.0382 15.6312 41.166 15.9968 41.166 16.4702V19.4049H39.9586V16.7089C39.9586 16.4665 39.8942 16.2846 39.7655 16.1634C39.6367 16.0422 39.4757 15.9816 39.2825 15.9816C39.0628 15.9816 38.8914 16.0517 38.7683 16.1918C38.6452 16.3301 38.5836 16.5129 38.5836 16.7401V19.4049H37.4103V16.6833C37.4103 16.4693 37.3488 16.2988 37.2257 16.172C37.1045 16.0451 36.9444 15.9816 36.7456 15.9816C36.6111 15.9816 36.4899 16.0157 36.3819 16.0839C36.2759 16.1502 36.1916 16.2439 36.1291 16.3651C36.0666 16.4845 36.0353 16.6246 36.0353 16.7856V19.4049H34.8251Z" fill="#161616"/>
<circle cx="82.1158" cy="61.5868" r="34.2149" fill="#FFC43D"/>
<path fill-rule="evenodd" clip-rule="evenodd" d="M85.5372 82.1158L83.865 75.5666L86.069 74.9789L87.8182 81.5455L87.248 83.8265L85.5372 82.1158Z" fill="#FF715C"/>
<rect x="82.1157" y="47.9009" width="3.42149" height="7.98347" rx="1" fill="#002B51"/>
<rect x="100.364" y="46.7604" width="3.42149" height="7.98347" rx="1" fill="#002B51"/>
<path d="M77.5537 44.3192C79.2645 41.658 82.6859 40.3275 86.6777 41.4679" stroke="#002B51" stroke-width="2" stroke-linecap="round"/>
<path d="M97.5123 41.0579C97.9593 40.058 103.384 39.7398 105.496 42.7687" stroke="#002B51" stroke-width="2" stroke-linecap="round"/>
<path d="M102.495 62.7273C102.495 66.0852 99.0618 69.1405 94.371 69.1405C89.6802 69.1405 86.247 66.0852 86.247 62.7273C86.247 61.8783 86.4558 61.2491 86.7887 60.7638C87.1261 60.2719 87.6371 59.8615 88.3426 59.5319C89.7868 58.8573 91.8839 58.5951 94.371 58.5951C96.8581 58.5951 98.9552 58.8573 100.399 59.5319C101.105 59.8615 101.616 60.2719 101.953 60.7638C102.286 61.2491 102.495 61.8783 102.495 62.7273Z" stroke="#002B51" stroke-width="2"/>
<path d="M102.645 64.438C96.2579 61.2446 89.719 63.8677 87.2479 65.5785C85.4231 61.0165 89.5 58.7356 93.5207 58.7356C99.9074 57.367 102.264 61.9669 102.645 64.438Z" fill="#002B51"/>
<rect width="25.0909" height="36.4959" rx="3" transform="matrix(1 0 -0.293206 0.956049 111.064 54.7438)" fill="#FF715C"/>
<path d="M135.149 67.8595C134.682 66.9267 132.678 66.719 131.727 66.719H130.587H129.446C127.165 66.719 126.595 67.2892 126.185 68.3175C126.025 69.5702 127.609 70.135 128.876 70.7107C124.314 70.7107 125.074 73.1818 126.025 74.1322C122.831 75.0446 124.314 76.7934 125.455 77.5537C122.261 78.4661 123.744 80.2149 124.884 80.9752C127.621 81.8876 130.207 80.595 131.157 79.8347C133.438 78.4661 134.008 72.9917 134.008 70.7107C135.833 69.7983 135.529 68.6198 135.149 67.8595Z" fill="#FFC43D"/>
<path d="M129.446 70.7107C130.397 70.9008 131.613 71.1669 133.438 70.7107" stroke="#002B51" stroke-linecap="round"/>
<path d="M126.595 74.1322C127.546 74.3223 129.903 74.5884 131.727 74.1322" stroke="#002B51" stroke-linecap="round"/>
<path d="M126.025 77.5537C126.975 77.7438 128.762 78.0099 130.587 77.5537" stroke="#002B51" stroke-linecap="round"/>
<path d="M72.4215 103.785V92.9504L95.8017 92.3801L96.3719 103.785H72.4215Z" fill="#FFC43D"/>
<path d="M83.8264 94.6611V104.355" stroke="#002B51" stroke-width="2"/>
<path d="M81.5454 63.8678L82.6859 68.4298" stroke="#FF715C" stroke-width="2"/>
<path d="M58.1653 66.1488C61.0165 70.7108 67.4033 78.8083 74.7025 72.4215C82.0016 66.0348 86.4876 69.7604 87.8182 72.4215C88.0083 73.1819 87.9322 75.1587 86.1074 74.7025C85.3471 74.1323 83.4843 72.4215 82.1157 72.4215" stroke="#002B51" stroke-width="1.5" stroke-linecap="round"/>
<path d="M84.3967 74.7025C84.5867 76.9835 83.2562 81.6595 76.4132 82.1157C71.8512 84.5868 61.5867 87.248 54.7438 80.405" stroke="#002B51" stroke-width="1.5" stroke-linecap="round"/>
<path d="M116.058 57.0637L115 60.7251H131L132.058 57.0637H130.148C130.326 56.0009 129.897 54 124.891 54C120.286 54 118.362 56.084 117.993 57.0637H116.058Z" fill="#74CADD"/>
</svg>
