<svg width="50" height="50" viewBox="0 0 50 50" fill="none" xmlns="http://www.w3.org/2000/svg">
<path d="M33.27 17.9089V23.1361H17.7842V17.9089H33.27ZM21.3289 42.9998V16.0957C21.3289 14.277 21.6829 12.7687 22.3907 11.5708C23.1095 10.3729 24.0896 9.47445 25.3311 8.87549C26.5725 8.27653 27.9828 7.97705 29.5619 7.97705C30.6291 7.97705 31.6038 8.05873 32.4859 8.22208C33.3789 8.38543 34.0432 8.53245 34.4788 8.66313L33.2373 13.8904C32.9651 13.8033 32.6275 13.7216 32.2245 13.6454C31.8325 13.5691 31.4295 13.531 31.0157 13.531C29.992 13.531 29.2787 13.7706 28.8758 14.2498C28.4729 14.7181 28.2714 15.3769 28.2714 16.2263V42.9998H21.3289Z" fill="white"/>
</svg>
