<svg width="147" height="164" viewBox="0 0 147 164" fill="none" xmlns="http://www.w3.org/2000/svg">
<rect width="42.076" height="28.9272" rx="5.2595" transform="matrix(0.99863 0.052336 -0.156434 0.987688 104.982 68.8994)" fill="#74CADD"/>
<circle cx="75.7364" cy="67.3215" r="51.5431" fill="#FF715C"/>
<path d="M124.289 99.6468C121.495 106.768 114.633 104.797 111.239 104.401L117.243 96.3464C122.93 96.4328 124.31 98.5827 124.289 99.6468Z" fill="#FF715C"/>
<path d="M123.335 51.28C134.117 63.9028 145.318 95.1054 117.38 96.0529L123.335 51.28Z" fill="#FF715C"/>
<path d="M24.0833 156.207L45.6472 101.508L67.7371 105.716L45.6472 163.307H18.0349C16.983 159.521 21.6289 156.996 24.0833 156.207Z" fill="#FF715C"/>
<path d="M77.9937 163.833C80.5182 154.156 79.0456 124.037 77.9937 110.187H98.2427C103.081 115.446 102.889 144.987 102.187 159.1C105.764 159.1 107.71 162.256 108.236 163.833H77.9937Z" fill="#FF715C"/>
<path d="M68.9468 30.779C70.3948 28.6053 74.6666 24.7915 80.1693 26.9256" stroke="#002B51" stroke-width="1.57785" stroke-linecap="round"/>
<path d="M94.2876 35.8179C96.339 36.4107 100.442 38.0113 100.442 39.6712" stroke="#002B51" stroke-width="1.57785" stroke-linecap="round"/>
<rect x="72.5664" y="42.6353" width="3.62015" height="6.52104" rx="0.52595" fill="#002B51"/>
<rect x="92.8398" y="46.7852" width="3.62015" height="6.52104" rx="0.52595" fill="#002B51"/>
<path d="M95.0115 60.4198L69.3084 54.4916C67.0157 59.9258 65.7607 71.0313 79.0829 71.9798C92.405 72.9283 95.2529 64.6683 95.0115 60.4198Z" stroke="#002B51" stroke-width="1.57785" stroke-linecap="round"/>
<path d="M86.6861 71.0908C84.0796 63.0284 73.5329 63.1865 68.5853 64.2734C66.8477 60.7165 68.5853 56.4679 69.6714 54.7882L95.0125 60.7164L94.6504 63.0877L93.5644 66.0518L92.8404 67.8303L90.6683 69.6087L86.6861 71.0908Z" fill="#002B51"/>
<path d="M12.9648 63.1346L27.6914 75.7574L40.5772 56.0343L25.3247 39.7299C25.5 34.2074 25.7454 20.3749 25.3247 9.22477C24.9039 -1.92536 19.8899 -0.680615 17.4354 1.33553V9.22477H8.2313C1.49912 9.43515 0.868004 15.2732 1.39397 18.1659C-1.13064 20.0593 0.342046 24.039 1.39397 25.7922C-0.920213 30.6309 4.98795 34.6457 8.2313 36.0482V47.3561C7.38978 55.9817 11.0364 61.4691 12.9648 63.1346Z" fill="#FF715C"/>
<path d="M125.702 55.4875C127.981 65.0423 128.069 88.2016 110.187 104.401" stroke="#002B51" stroke-width="1.57785" stroke-linecap="round"/>
<path d="M145.427 79.6596L145.688 79.6813L143.585 92.5671C140.067 92.2857 137.564 89.025 138.202 85.5543L138.28 85.1269C138.903 81.738 141.994 79.3735 145.427 79.6596Z" fill="#D9D9D9"/>
<rect width="24.7196" height="16.8304" rx="2.1038" transform="matrix(0.996917 0.0784591 -0.107305 0.994226 16.0063 12.6228)" fill="#002B51"/>
<rect width="21.5639" height="13.6747" rx="2.1038" transform="matrix(0.996917 0.0784591 -0.107305 0.994226 17.584 14.2007)" fill="white"/>
<path d="M17.8824 11.3079C19.0219 12.8857 20.1966 16.4622 15.7786 18.1452C11.3606 19.8282 15.3403 14.2882 17.8824 11.3079Z" fill="#FF715C"/>
<path d="M15.7784 25.7714C20.1963 23.878 17.9698 20.4242 16.3043 18.934C12.9382 17.0406 13.3239 22.7033 13.9375 25.7714H15.7784Z" fill="#FF715C"/>
<path d="M13.9371 26.5603C14.2 26.5603 18.1447 26.5603 17.3557 32.0828C15.4273 30.7679 12.0436 27.8226 13.9371 26.5603Z" fill="#FF715C"/>
<path d="M16.8303 9.99292C17.8822 10.6942 19.7756 12.6753 18.9341 14.9894C17.8822 17.8822 16.3044 18.1451 14.4635 18.1451C12.9909 18.1451 7.01258 17.6192 4.20752 17.3562" stroke="#002B51" stroke-width="1.57785" stroke-linecap="round"/>
<path d="M15.7786 18.4082C17.0058 19.2848 19.1972 21.5639 18.1453 23.6677C16.8305 26.2974 16.3045 25.7715 14.4637 26.0345C12.991 26.2449 6.31146 25.4209 3.15576 24.9826" stroke="#002B51" stroke-width="1.57785" stroke-linecap="round"/>
<path d="M14.9896 26.5603C16.1292 27.0863 18.2505 28.7693 17.6194 31.2939C16.8304 34.4495 10.519 34.7125 8.67822 34.4495" stroke="#002B51" stroke-width="1.57785" stroke-linecap="round"/>
<circle cx="32.609" cy="21.5639" r="4.2076" fill="#FFC43D"/>
<line x1="28.6813" y1="26.5786" x2="36.0457" y2="27.0696" stroke="#002B51" stroke-width="0.52595" stroke-linecap="round"/>
<line x1="18.1622" y1="17.6373" x2="25.5267" y2="18.1283" stroke="#002B51" stroke-width="0.52595" stroke-linecap="round"/>
<line x1="17.6363" y1="19.7412" x2="25.0008" y2="20.2321" stroke="#002B51" stroke-width="0.52595" stroke-linecap="round"/>
<line x1="18.6906" y1="22.3737" x2="25.0035" y2="22.8593" stroke="#002B51" stroke-width="0.52595" stroke-linecap="round"/>
</svg>
