<svg width="18" height="18" viewBox="0 0 18 18" fill="none" xmlns="http://www.w3.org/2000/svg">
<path fill-rule="evenodd" clip-rule="evenodd" d="M11.9629 17.4702H17.4702L17.4702 0H0V17.4702L9.16895 17.4702V10.3174H7.23982V8.98693L9.16895 8.18867V7.36823C9.16895 6.33345 9.33156 5.52041 9.65678 4.9291C9.98199 4.3378 10.455 3.91649 11.0759 3.66519C11.6968 3.3991 12.4285 3.26606 13.2711 3.26606C13.8624 3.26606 14.3946 3.3178 14.8676 3.42128C15.3407 3.50997 15.7324 3.61345 16.0429 3.73171L15.3333 5.81606C15.082 5.74215 14.8011 5.67562 14.4907 5.61649C14.195 5.54258 13.8698 5.50562 13.515 5.50562C12.9829 5.50562 12.5911 5.67562 12.3398 6.01562C12.0885 6.35562 11.9629 6.82867 11.9629 7.43475V8.21084H14.8676V10.3174H11.9629V17.4702Z" fill="#033968"/>
</svg>
