<svg width="1200" height="434" viewBox="0 0 1200 434" fill="none" xmlns="http://www.w3.org/2000/svg">
<path d="M904.613 21L905.148 30.6304" stroke="#FFC43D" stroke-width="3.21012" stroke-linecap="round"/>
<path d="M928.154 23.1401L923.912 32.4987" stroke="#74CADD" stroke-width="3.21012" stroke-linecap="round"/>
<path d="M944.204 40.2608L934.216 45.0872" stroke="#FFC43D" stroke-width="3.21012" stroke-linecap="round"/>
<circle cx="813.507" cy="199.808" r="107.46" fill="#FF715C"/>
<path d="M791.367 162.548C791.367 160.162 793.301 158.228 795.687 158.228C798.072 158.228 800.007 160.162 800.007 162.548V173.348C800.007 175.734 798.072 177.668 795.687 177.668C793.301 177.668 791.367 175.734 791.367 173.348V162.548Z" fill="#002B51"/>
<path d="M742.767 163.088C742.767 161.001 744.459 159.308 746.547 159.308C748.634 159.308 750.327 161.001 750.327 163.088V173.888C750.327 175.976 748.634 177.668 746.547 177.668C744.459 177.668 742.767 175.976 742.767 173.888V163.088Z" fill="#002B51"/>
<path d="M765.987 232.262C763.647 230.822 758.103 228.374 754.647 230.102" stroke="#002B51" stroke-width="4.28016"/>
<path d="M792.595 198.728C792.595 206.354 784.586 213.328 773.611 213.328C762.635 213.328 754.627 206.354 754.627 198.728C754.627 191.102 762.635 184.128 773.611 184.128C784.586 184.128 792.595 191.102 792.595 198.728Z" stroke="#002B51" stroke-width="4.28016"/>
<path d="M790.036 205.324C779.432 187.638 760.457 195.677 754.318 202.644C752.086 188.174 766.224 185.852 769.945 185.494C787.561 183.004 795.058 195.677 790.036 205.324Z" fill="#002B51"/>
<path d="M738.222 153.15C741.891 148.152 750.329 144.155 757.483 153.15" stroke="#002B51" stroke-width="4.28016" stroke-linecap="round"/>
<path d="M786.374 143.017C791.489 140.091 803.364 140.545 808.844 148.87" stroke="#002B51" stroke-width="4.28016" stroke-linecap="round"/>
<path d="M898.728 388.558L867.742 292.255L797.074 303.746L811.751 375.426C803.488 374.551 798.524 383.816 797.074 388.558H898.728Z" fill="#FF715C"/>
<path d="M830.245 299.745L846.296 374.489C842.326 375.753 838.529 379.906 838.529 387.488" stroke="#002B51" stroke-width="4.28016"/>
<path d="M952.69 223.768C987.856 187.015 932.677 173.503 900.691 171.341L892.65 208.094L916.773 211.877L883.001 240.523C868.849 253.927 877.104 267.367 883.001 272.412C899.297 287.113 912.306 275.295 916.773 267.548C920.526 257.278 913.2 250.973 906.052 248.63C924.493 247.333 944.828 231.515 952.69 223.768Z" fill="#FF715C"/>
<path d="M863.416 200.231L922.268 210.552L877.327 235.543C871.878 240.975 868.648 261.504 883.034 274.106C901.016 289.858 933.167 267.044 908.1 251.291" stroke="#002B51" stroke-width="4.28016"/>
<path d="M726.924 266.15C675.294 247.577 684.649 199.201 706.515 194.881L742.975 261.03C743.68 260.425 743.801 260.291 743.119 261.291L742.975 261.03C742.158 261.73 740.557 263.062 738.508 263.991C733.742 266.15 732.087 267.23 726.924 266.15Z" fill="#FF715C"/>
<path d="M726.986 264.205C733.942 265.835 753.497 258.288 758.09 256.136C766.144 253.554 766.391 239.281 765.508 232.467C772.29 229.454 768.334 225.115 765.508 223.322C752.791 211.702 733.715 224.577 725.767 232.467C720.645 231.57 710.401 225.366 710.401 207.722" stroke="#002B51" stroke-width="4.28016"/>
<rect x="893.829" y="74.1404" width="22.1492" height="31.2103" rx="11.0746" transform="rotate(14.0338 893.829 74.1404)" fill="#74CADD"/>
<circle cx="908.235" cy="62.1747" r="24.1628" transform="rotate(14.0338 908.235 62.1747)" fill="#FFC43D"/>
<path d="M897.003 80.1229C900.91 70.0299 903.351 44.3502 892.973 48.5017C876.749 54.9921 915.313 70.0885 915.313 56.8463C915.313 45.6109 903.542 47.5237 903.543 55.8258C903.543 64.1279 923.863 70.2325 928.136 65.5928C932.409 60.9532 926.549 52.0311 922.275 55.8258C913.178 63.903 910.474 75.3608 909.212 83.1746" stroke="#002B51" stroke-width="2.14008" stroke-linecap="round"/>
<path d="M894.806 86.8376C895.776 87.9181 899.58 90.4441 907.03 91.9042" stroke="#002B51" stroke-width="2.14008" stroke-linecap="round"/>
<path d="M893.097 93.6746C893.969 95.1493 897.587 98.4166 905.085 99.6874" stroke="#002B51" stroke-width="2.14008" stroke-linecap="round"/>
<path d="M613.939 329.962H229C229 346.33 239.392 350.138 244.588 349.996H597.918C613.16 349.655 614.95 336.498 613.939 329.962Z" fill="#002B51"/>
<path d="M244.585 128.472V325.509C244.585 333.502 251.064 339.981 259.057 339.981H583C590.992 339.981 597.472 333.502 597.472 325.509V128.472C597.472 120.479 590.992 114 583 114H259.057C251.064 114 244.585 120.479 244.585 128.472Z" fill="#002B51"/>
<path d="M587.453 131.811H253.491V329.962H587.453V131.811Z" fill="white"/>
<path d="M386.959 337.755L382.623 331.075H419.915H457.208L453.305 337.755H386.959Z" fill="#74CADD"/>
<rect x="309.903" y="159.058" width="161.454" height="112.938" rx="6.67925" fill="#74CADD" stroke="#74CADD" stroke-width="5.56604"/>
<rect x="305.131" y="151.9" width="161.454" height="112.938" rx="6.67925" fill="white" stroke="#002B51" stroke-width="5.56604"/>
<path d="M455.848 159.058L445.508 167.806M445.508 159.058L455.848 167.806" stroke="#002B51" stroke-width="2.22642" stroke-linecap="round"/>
<rect x="321.833" y="171.783" width="93.0547" height="36.5856" rx="18.2928" fill="#FFC43D"/>
<rect x="321.833" y="213.141" width="93.0547" height="6.36271" rx="3.18136" fill="#74CADD"/>
<rect x="321.833" y="224.275" width="93.0547" height="6.36271" rx="3.18136" fill="#74CADD"/>
<rect x="362.522" y="181.658" width="160.368" height="117.892" rx="20.0377" fill="#002B51"/>
<rect x="356.904" y="176.052" width="160.368" height="117.892" rx="20.0377" fill="#74CADD"/>
<path d="M388.11 258.403C396.898 239.63 417.473 209.484 429.478 239.093C444.484 276.104 456.245 243.518 459.49 239.093C462.734 234.668 479.768 179.956 501.668 241.507" stroke="white" stroke-width="3.33962" stroke-linecap="round"/>
<path d="M388.11 264.471C396.669 256.44 416.883 243.4 429.273 255.487C444.76 270.597 455.764 256.304 459.432 251.812C463.1 247.32 466.36 245.279 475.326 246.912C485.375 248.743 496.519 219.961 497.334 215.061" stroke="#002B51" stroke-width="3.33962" stroke-linecap="round"/>
<circle cx="480.864" cy="212.46" r="4.33427" fill="#FF715C"/>
<path d="M375.975 254.069L381.98 257.537V264.471L375.975 267.939L369.969 264.471V257.537L375.975 254.069Z" fill="#002B51"/>
<path d="M375.834 230.547L382.768 237.481L375.834 244.416L368.899 237.481L375.834 230.547Z" fill="white"/>
<circle cx="375.807" cy="215.136" r="5.84539" fill="#FF715C"/>
<line x1="372.087" y1="275.134" x2="504.937" y2="275.159" stroke="#F3F3F3" stroke-width="2.22642"/>
</svg>
