<svg width="404" height="358" viewBox="0 0 404 358" fill="none" xmlns="http://www.w3.org/2000/svg">
<g filter="url(#filter0_d_453_3399)">
<path d="M152.97 32.0857H10.4798C6.34881 32.0857 3 35.4345 3 39.5655V142.11C3 146.241 6.34881 149.589 10.4798 149.589H152.97C157.101 149.589 160.449 146.241 160.449 142.11V39.5655C160.449 35.4345 157.101 32.0857 152.97 32.0857Z" fill="#F2F6FB"/>
<mask id="mask0_453_3399" style="mask-type:alpha" maskUnits="userSpaceOnUse" x="5" y="52" width="153" height="98">
<path d="M5.73047 52.0737H157.719V147.979C157.719 148.805 157.05 149.475 156.221 149.475H7.22862C6.40121 149.475 5.73047 148.808 5.73047 147.979V52.0737Z" fill="white"/>
</mask>
<g mask="url(#mask0_453_3399)">
<path d="M5.73047 52.0737H157.719V147.979C157.719 148.805 157.05 149.475 156.221 149.475H7.22862C6.40121 149.475 5.73047 148.808 5.73047 147.979V52.0737Z" fill="#F2F6FB"/>
<path d="M89.739 144.916V153.205H97.4766V157.626H65.9735V153.205H73.7111V144.916H37.6258C36.7988 144.916 36.1284 144.249 36.1284 143.419V133.863H127.322V143.419C127.322 144.246 126.653 144.916 125.824 144.916H89.739Z" fill="#74CADD"/>
<path fill-rule="evenodd" clip-rule="evenodd" d="M36.1284 83.9635C36.1284 83.1377 36.7972 82.4683 37.6258 82.4683H125.824C126.651 82.4683 127.322 83.139 127.322 83.9635V135.521H36.1284V83.9635Z" fill="white"/>
<path d="M82.5725 114.647L81.9799 114.655L81.9847 114.647H74.2356C73.9047 114.647 73.7765 114.419 73.9519 114.134L79.3439 105.375C79.518 105.092 79.8046 105.086 79.986 105.364L83.9355 111.471L85.3662 109.142C85.5386 108.862 85.8298 108.857 86.0148 109.129L89.3282 113.997C89.514 114.27 89.3959 114.5 89.0658 114.51L86.2871 114.597L85.859 114.603L85.8849 114.647C85.8849 114.647 85.6177 114.647 85.2859 114.647H82.5725ZM85.8079 106.555C85.0847 106.555 84.4984 105.957 84.4984 105.219C84.4984 104.481 85.0847 103.883 85.8079 103.883C86.5311 103.883 87.1174 104.481 87.1174 105.219C87.1174 105.957 86.5311 106.555 85.8079 106.555Z" fill="#74CADD"/>
</g>
<path d="M98.4157 70.1111H65.3307C64.9176 70.1111 64.5828 70.446 64.5828 70.8591V74.8723C64.5828 75.2854 64.9176 75.6203 65.3307 75.6203H98.4157C98.8288 75.6203 99.1637 75.2854 99.1637 74.8723V70.8591C99.1637 70.446 98.8288 70.1111 98.4157 70.1111Z" fill="#74CADD"/>
<path d="M115.706 61.1589H48.0402C47.6271 61.1589 47.2922 61.4938 47.2922 61.9069V65.9202C47.2922 66.3333 47.6271 66.6681 48.0402 66.6681H115.706C116.119 66.6681 116.454 66.3333 116.454 65.9202V61.9069C116.454 61.4938 116.119 61.1589 115.706 61.1589Z" fill="#74CADD"/>
<path d="M3 38.7483C3 35.0686 5.98299 32.0857 9.66484 32.0857H153.785C157.465 32.0857 160.449 35.0678 160.449 38.7483V45.4109H3V38.7483Z" fill="#D0D8DE"/>
<path d="M11.9496 41.7768C13.5413 41.7768 14.8317 40.4887 14.8317 38.8997C14.8317 37.3108 13.5413 36.0227 11.9496 36.0227C10.358 36.0227 9.06763 37.3108 9.06763 38.8997C9.06763 40.4887 10.358 41.7768 11.9496 41.7768Z" fill="#FF5645"/>
<path d="M21.3539 41.7768C22.9456 41.7768 24.236 40.4887 24.236 38.8997C24.236 37.3108 22.9456 36.0227 21.3539 36.0227C19.7622 36.0227 18.4719 37.3108 18.4719 38.8997C18.4719 40.4887 19.7622 41.7768 21.3539 41.7768Z" fill="#FFCB3D"/>
<path d="M31.062 41.7768C32.6537 41.7768 33.944 40.4887 33.944 38.8997C33.944 37.3108 32.6537 36.0227 31.062 36.0227C29.4703 36.0227 28.1799 37.3108 28.1799 38.8997C28.1799 40.4887 29.4703 41.7768 31.062 41.7768Z" fill="#3ABF7C"/>
</g>
<g filter="url(#filter1_d_453_3399)">
<path d="M133.669 207.419H40.2909C37.2071 207.419 34.7073 209.919 34.7073 213.002V281.681C34.7073 284.765 37.2071 287.264 40.2909 287.264H133.669C136.753 287.264 139.253 284.765 139.253 281.681V213.002C139.253 209.919 136.753 207.419 133.669 207.419Z" fill="#F2F6FB"/>
<path d="M88.6749 270.037C100.372 263.283 104.379 248.323 97.6235 236.623C90.8683 224.923 75.9094 220.912 64.212 227.666C52.5146 234.419 48.5082 249.379 55.2634 261.08C62.0187 272.78 76.9775 276.79 88.6749 270.037ZM82.6898 259.67C76.7162 263.119 69.077 261.071 65.6273 255.096C62.1775 249.121 64.2235 241.481 70.1971 238.032C76.1707 234.583 83.8099 236.631 87.2597 242.606C90.7094 248.582 88.6634 256.221 82.6898 259.67Z" fill="#E1E5F0"/>
<mask id="mask1_453_3399" style="mask-type:alpha" maskUnits="userSpaceOnUse" x="46" y="222" width="61" height="57">
<path d="M61.1878 222.526C46.7267 230.875 41.7737 249.37 50.125 263.834C58.4762 278.299 76.9693 283.257 91.4304 274.908C105.891 266.559 110.844 248.064 102.493 233.6L92.1993 239.543C97.2673 248.321 94.2616 259.545 85.4856 264.611C76.7097 269.678 65.4869 266.669 60.4189 257.891C55.3508 249.113 58.3566 237.889 67.1325 232.823L61.1878 222.526Z" fill="white"/>
</mask>
<g mask="url(#mask1_453_3399)">
<path d="M61.1878 222.526C46.7267 230.875 41.7737 249.37 50.125 263.834C58.4762 278.299 76.9693 283.257 91.4304 274.908C105.891 266.559 110.844 248.064 102.493 233.6L92.1993 239.543C97.2673 248.321 94.2616 259.545 85.4856 264.611C76.7097 269.678 65.4869 266.669 60.4189 257.891C55.3508 249.113 58.3566 237.889 67.1325 232.823L61.1878 222.526Z" fill="white"/>
<path d="M61.7066 222.459C45.6802 227.909 40.3918 250.09 48.743 264.554C57.0943 279.019 82.5204 284.067 91.9492 274.84L86.0754 263.884C77.2605 268.974 65.9352 266.643 60.8671 257.865C55.799 249.086 58.8364 237.845 67.6513 232.755L61.7066 222.459Z" fill="#FF715C"/>
</g>
<path d="M122.262 235.104H115.78C115.471 235.104 115.221 235.354 115.221 235.663V242.054C115.221 242.362 115.471 242.612 115.78 242.612H122.262C122.571 242.612 122.821 242.362 122.821 242.054V235.663C122.821 235.354 122.571 235.104 122.262 235.104Z" fill="#FF715C"/>
<path d="M122.262 246.098H115.78C115.471 246.098 115.221 246.348 115.221 246.656V253.047C115.221 253.356 115.471 253.606 115.78 253.606H122.262C122.571 253.606 122.821 253.356 122.821 253.047V246.656C122.821 246.348 122.571 246.098 122.262 246.098Z" fill="white"/>
<path d="M122.262 257.091H115.78C115.471 257.091 115.221 257.341 115.221 257.65V264.041C115.221 264.349 115.471 264.599 115.78 264.599H122.262C122.571 264.599 122.821 264.349 122.821 264.041V257.65C122.821 257.341 122.571 257.091 122.262 257.091Z" fill="#E1E5F0"/>
<path d="M34.7073 211.934C34.7073 209.44 36.7291 207.419 39.2236 207.419H134.325C136.82 207.419 138.842 209.44 138.842 211.934V216.45H34.7073V211.934Z" fill="#D0D8DE"/>
</g>
<path d="M145.4 86.4944L146.169 91.8532" stroke="#FFC43D" stroke-width="1.84842" stroke-linecap="round"/>
<path d="M132.682 90.2712L136.049 94.953" stroke="#74CADD" stroke-width="1.84842" stroke-linecap="round"/>
<path d="M125.739 101.465L131.768 103.018" stroke="#FFC43D" stroke-width="1.84842" stroke-linecap="round"/>
<rect width="12.4319" height="17.5177" rx="6.21596" transform="matrix(-0.903494 0.4286 0.4286 0.903494 157.202 114.547)" fill="#74CADD"/>
<circle r="13.5621" transform="matrix(-0.903494 0.4286 0.4286 0.903494 147.953 109.553)" fill="#FFC43D"/>
<path d="M156.115 118.19C152.851 113.067 148.673 99.2045 154.842 100.343C164.487 102.124 144.931 114.689 143.469 107.402C142.229 101.219 148.917 100.972 149.834 105.541C150.75 110.11 140.242 115.713 137.379 113.631C134.515 111.55 136.755 105.993 139.525 107.609C145.423 111.05 148.177 117.057 149.734 121.217" stroke="#002B51" stroke-width="1.23228" stroke-linecap="round"/>
<path d="M158.066 121.642C157.652 122.344 155.837 124.154 151.899 125.78" stroke="#002B51" stroke-width="1.23228" stroke-linecap="round"/>
<path d="M159.761 125.216C159.444 126.124 157.814 128.322 153.828 129.849" stroke="#002B51" stroke-width="1.23228" stroke-linecap="round"/>
<path d="M148.899 357.638L161.189 237.314L191.716 249.802L186.364 348.718C188.148 349.511 192.113 351.612 193.699 353.673C195.284 355.735 194.359 357.175 193.699 357.638H148.899Z" fill="#74CADD"/>
<ellipse cx="207.086" cy="200.737" rx="68.983" ry="70.7671" fill="#74CADD"/>
<path d="M221.984 163.299C221.737 165.831 220.501 166.857 219.113 166.722C217.726 166.587 216.712 165.341 216.958 162.809C217.205 160.277 218.463 159.021 219.851 159.157C221.239 159.292 222.23 160.767 221.984 163.299Z" fill="#002B51"/>
<path d="M246.564 165.677C246.317 168.21 245.081 169.236 243.694 169.1C242.306 168.965 241.292 167.72 241.539 165.187C241.786 162.655 243.044 161.4 244.431 161.535C245.819 161.67 246.811 163.145 246.564 165.677Z" fill="#002B51"/>
<path d="M266.158 166.868L211.051 192.439L215.808 224.552L257.436 192.439C261.202 193.562 271.431 195.135 282.214 192.439C292.998 189.743 292.125 178.47 290.54 172.788C295.429 175.96 306.081 180.783 307.984 177.77C310.362 174.004 309.173 173.211 298.865 166.868C290.619 161.793 273.624 164.753 266.158 166.868Z" fill="#74CADD"/>
<path d="M286.377 170.012C287.698 170.805 289.35 171.4 291.134 174.175" stroke="#002B51" stroke-width="2.46456" stroke-linecap="round"/>
<path d="M282.809 176.752C285.386 180.056 288.994 187.734 282.809 192.016" stroke="#002B51" stroke-width="2.46456" stroke-linecap="round"/>
<path d="M256.048 186.862C256.313 189.307 258.665 194.196 265.96 194.196C275.078 194.196 278.646 188.844 278.646 184.88" stroke="#002B51" stroke-width="2.46456" stroke-linecap="round"/>
<path d="M209.267 229.084L257.039 192.61" stroke="#002B51" stroke-width="2.46456" stroke-linecap="round"/>
<path d="M202.329 197.764L263.779 167.634" stroke="#002B51" stroke-width="2.46456" stroke-linecap="round"/>
<path d="M269.528 250.432L260.211 245.675V210.787L276.267 220.302C284.196 212.835 301.006 196.515 304.812 190.964C309.57 184.026 327.212 180.458 330.185 184.225C332.564 187.238 329.194 189.973 327.212 190.964L357.937 197.902C359.457 198.497 361.584 200.995 357.937 206.228C354.29 211.461 333.819 214.487 324.04 215.346C314.723 224.465 294.742 243.891 289.35 248.648C283.959 253.406 273.889 251.82 269.528 250.432Z" fill="#74CADD"/>
<path d="M341.484 200.539C341.748 203.711 339.898 210.887 330.383 214.217" stroke="#002B51" stroke-width="1.84842" stroke-linecap="round"/>
<path d="M352.585 198.557C353.18 202.323 352.466 210.134 344.854 211.244" stroke="#002B51" stroke-width="1.84842" stroke-linecap="round"/>
<path d="M328.798 151.868L327.212 191.513C313.402 192.306 285.227 194.923 283.007 195.082C280.787 195.24 279.241 195.874 279.241 198.253V202.812C279.241 204.874 281.752 205.125 283.007 204.993C313.402 202.614 375.5 197.738 380.733 197.262C385.966 196.786 388.2 193.231 388.662 191.513C390.05 179.289 392.151 152.383 392.627 145.723C393.102 139.063 388.596 138.851 385.887 139.181C371.879 140.239 342.158 142.472 335.339 142.948C328.52 143.423 328.798 148.498 328.798 151.868Z" fill="#E6E2DD"/>
<path d="M200.438 357.44L205.394 255.551H236.912V348.123C238.828 349.114 243.454 351.691 246.625 354.07C249.797 356.448 247.947 357.307 246.625 357.44H200.438Z" fill="#74CADD"/>
<path d="M234.32 178.433C233.692 181.253 231.509 182.659 229.844 182.288C228.179 181.917 226.798 179.718 227.426 176.898C228.054 174.078 230.238 172.673 231.903 173.043C233.567 173.414 234.948 175.613 234.32 178.433Z" stroke="#002B51" stroke-width="2.46456"/>
<path d="M214.222 151.775C216.072 150.256 220.803 148.128 224.926 151.775" stroke="#002B51" stroke-width="2.46456" stroke-linecap="round"/>
<path d="M242.21 152.905C244.404 151.946 249.148 152.905 250.457 156.139" stroke="#002B51" stroke-width="2.46456" stroke-linecap="round"/>
<mask id="path-48-inside-1_453_3399" fill="white">
<path fill-rule="evenodd" clip-rule="evenodd" d="M371.437 167.917C371.286 167.175 370.335 167.036 369.67 167.398C369.256 167.624 368.793 167.792 368.293 167.887C366.026 168.317 363.865 167.071 363.466 165.105C363.389 164.728 363.383 164.353 363.439 163.988C363.594 162.972 363.16 161.62 362.135 161.692C361.73 161.721 361.32 161.773 360.91 161.851C355.966 162.789 352.663 167.025 353.533 171.313C354.403 175.601 359.116 178.317 364.06 177.379C369.004 176.442 372.307 172.205 371.437 167.917V167.917Z"/>
</mask>
<path d="M368.293 167.887L367.949 166.07L367.949 166.07L368.293 167.887ZM363.466 165.105L365.277 164.737L365.277 164.737L363.466 165.105ZM360.91 161.851L360.565 160.035L360.565 160.035L360.91 161.851ZM353.533 171.313L351.721 171.681L351.721 171.681L353.533 171.313ZM364.06 177.379L363.716 175.563L363.716 175.563L364.06 177.379ZM368.785 165.775C368.541 165.908 368.26 166.011 367.949 166.07L368.638 169.703C369.325 169.572 369.97 169.339 370.554 169.021L368.785 165.775ZM367.949 166.07C366.433 166.358 365.429 165.487 365.277 164.737L361.654 165.472C362.3 168.655 365.619 170.275 368.638 169.703L367.949 166.07ZM365.277 164.737C365.245 164.579 365.242 164.422 365.266 164.268L361.612 163.709C361.524 164.283 361.534 164.878 361.654 165.472L365.277 164.737ZM361.254 163.667C361.594 163.603 361.932 163.559 362.265 163.536L362.005 159.848C361.528 159.882 361.047 159.944 360.565 160.035L361.254 163.667ZM355.344 170.946C354.727 167.901 357.07 164.461 361.254 163.667L360.565 160.035C354.861 161.117 350.599 166.149 351.721 171.681L355.344 170.946ZM363.716 175.563C359.523 176.358 355.968 174.017 355.344 170.946L351.721 171.681C352.838 177.185 358.709 180.276 364.404 179.195L363.716 175.563ZM369.625 168.285C370.243 171.329 367.899 174.77 363.716 175.563L364.404 179.195C370.109 178.113 374.37 173.081 373.248 167.55L369.625 168.285ZM365.266 164.268C365.393 163.439 365.294 162.467 364.899 161.637C364.492 160.784 363.552 159.739 362.005 159.848L362.265 163.536C362.183 163.542 362.082 163.534 361.974 163.503C361.866 163.471 361.776 163.423 361.707 163.373C361.577 163.278 361.547 163.197 361.561 163.227C361.573 163.251 361.598 163.32 361.612 163.428C361.626 163.535 361.623 163.636 361.612 163.709L365.266 164.268ZM370.554 169.021C370.508 169.046 370.444 169.072 370.311 169.04C370.23 169.02 370.084 168.967 369.935 168.829C369.772 168.678 369.665 168.481 369.625 168.285L373.248 167.55C372.998 166.319 372.048 165.657 371.181 165.447C370.369 165.25 369.496 165.388 368.785 165.775L370.554 169.021Z" fill="#002B51" mask="url(#path-48-inside-1_453_3399)"/>
<path d="M400.224 343.511L382.07 331.816C381.828 331.984 381.828 331.984 381.61 332.177L388.396 352.602C388.396 352.602 391.062 352.24 393.123 351.083L396.201 355.037L400.685 351.589L397.607 347.61C398.479 346.236 399.352 344.861 400.224 343.511Z" fill="#E6E6E6"/>
<path d="M397.854 297.226H294.74C291.686 297.226 289.211 299.701 289.211 302.755V326.253C289.211 329.306 291.686 331.782 294.74 331.782H397.854C400.908 331.782 403.383 329.306 403.383 326.253V302.755C403.383 299.701 400.908 297.226 397.854 297.226Z" fill="#C9D0D6"/>
<path d="M386.091 324.661C380.581 324.661 376.114 320.19 376.114 314.675C376.114 309.16 380.581 304.69 386.091 304.69C391.602 304.69 396.069 309.16 396.069 314.675C396.069 320.19 391.602 324.661 386.091 324.661ZM386.086 314.54C387.445 314.54 388.546 313.453 388.546 312.111C388.546 310.77 387.445 309.682 386.086 309.682C384.728 309.682 383.626 310.77 383.626 312.111C383.626 313.453 384.728 314.54 386.086 314.54ZM386.086 315.755C383.624 315.755 381.627 317.726 381.627 320.157H390.545C390.545 317.726 388.549 315.755 386.086 315.755ZM299.843 313.677H357.602C357.908 313.677 358.155 313.924 358.155 314.23V317.118C358.155 317.423 357.908 317.671 357.602 317.671H299.843C299.537 317.671 299.29 317.423 299.29 317.118V314.23C299.29 313.924 299.537 313.677 299.843 313.677ZM299.843 320.167H362.591C362.896 320.167 363.144 320.415 363.144 320.72V323.609C363.144 323.914 362.896 324.162 362.591 324.162H299.843C299.537 324.162 299.29 323.914 299.29 323.609V320.72C299.29 320.415 299.537 320.167 299.843 320.167Z" fill="#F2F6FB"/>
<path d="M363.589 307.186H299.843C299.537 307.186 299.29 307.434 299.29 307.739V310.628C299.29 310.933 299.537 311.181 299.843 311.181H363.589C363.894 311.181 364.142 310.933 364.142 310.628V307.739C364.142 307.434 363.894 307.186 363.589 307.186Z" fill="#E1E5F0"/>
<g filter="url(#filter2_d_453_3399)">
<path d="M364.681 267.093H261.566C258.512 267.093 256.037 269.568 256.037 272.622V296.12C256.037 299.173 258.512 301.649 261.566 301.649H364.681C367.734 301.649 370.209 299.173 370.209 296.12V272.622C370.209 269.568 367.734 267.093 364.681 267.093Z" fill="white"/>
</g>
<path d="M276.093 294.364C270.583 294.364 266.116 289.893 266.116 284.378C266.116 278.863 270.583 274.393 276.093 274.393C281.604 274.393 286.071 278.863 286.071 284.378C286.071 289.893 281.604 294.364 276.093 294.364ZM276.088 284.243C277.447 284.243 278.548 283.156 278.548 281.814C278.548 280.473 277.447 279.385 276.088 279.385C274.73 279.385 273.628 280.473 273.628 281.814C273.628 283.156 274.73 284.243 276.088 284.243ZM276.088 285.458C273.626 285.458 271.629 287.429 271.629 289.86H280.547C280.547 287.429 278.551 285.458 276.088 285.458ZM291.612 282.381H349.372C349.677 282.381 349.925 282.629 349.925 282.934V285.822C349.925 286.128 349.677 286.375 349.372 286.375H291.612C291.307 286.375 291.059 286.128 291.059 285.822V282.934C291.059 282.629 291.307 282.381 291.612 282.381ZM291.612 288.872H359.349C359.654 288.872 359.902 289.119 359.902 289.425V292.313C359.902 292.618 359.654 292.866 359.349 292.866H291.612C291.307 292.866 291.059 292.618 291.059 292.313V289.425C291.059 289.119 291.307 288.872 291.612 288.872Z" fill="#FF715C"/>
<path d="M335.404 275.891H291.612C291.307 275.891 291.059 276.138 291.059 276.444V279.332C291.059 279.637 291.307 279.885 291.612 279.885H335.404C335.709 279.885 335.956 279.637 335.956 279.332V276.444C335.956 276.138 335.709 275.891 335.404 275.891Z" fill="#FFC43D"/>
<g filter="url(#filter3_d_453_3399)">
<path d="M368.986 102.339H251.143C246.516 102.339 242.737 98.3038 242.737 93.3624V10.471C242.737 5.52959 246.516 1.49414 251.143 1.49414H368.986C373.613 1.49414 377.392 5.52959 377.392 10.471V93.3212C377.392 98.3038 373.613 102.339 368.986 102.339Z" fill="#F2F6FB"/>
<path d="M281.479 57.4765C287.651 57.4765 292.656 52.5599 292.656 46.495C292.656 40.43 287.651 35.5134 281.479 35.5134C275.306 35.5134 270.302 40.43 270.302 46.495C270.302 52.5599 275.306 57.4765 281.479 57.4765Z" fill="#FFC43D"/>
<path d="M309.155 57.4765C315.328 57.4765 320.332 52.5599 320.332 46.495C320.332 40.43 315.328 35.5134 309.155 35.5134C302.982 35.5134 297.978 40.43 297.978 46.495C297.978 52.5599 302.982 57.4765 309.155 57.4765Z" fill="#74CADD"/>
<path d="M336.831 57.4765C343.004 57.4765 348.008 52.5599 348.008 46.495C348.008 40.43 343.004 35.5134 336.831 35.5134C330.658 35.5134 325.654 40.43 325.654 46.495C325.654 52.5599 330.658 57.4765 336.831 57.4765Z" fill="#FF715C"/>
<path d="M347.779 75.2559H272.66C271.505 75.2559 270.568 76.1924 270.568 77.3476C270.568 78.5028 271.505 79.4393 272.66 79.4393H347.779C348.934 79.4393 349.871 78.5028 349.871 77.3476C349.871 76.1924 348.934 75.2559 347.779 75.2559Z" fill="#E1E5F0"/>
<path d="M347.648 66.8892H272.791C271.563 66.8892 270.568 67.8842 270.568 69.1116C270.568 70.339 271.563 71.3341 272.791 71.3341H347.648C348.876 71.3341 349.871 70.339 349.871 69.1116C349.871 67.8842 348.876 66.8892 347.648 66.8892Z" fill="#E1E5F0"/>
<path d="M242.359 6.75223C242.359 3.57536 244.934 1 248.114 1H371.526C374.704 1 377.281 3.57466 377.281 6.75223V12.5045H242.359V6.75223Z" fill="#D0D8DE"/>
<path d="M250.21 9.367C251.606 9.367 252.738 8.25491 252.738 6.88309C252.738 5.51126 251.606 4.39917 250.21 4.39917C248.814 4.39917 247.682 5.51126 247.682 6.88309C247.682 8.25491 248.814 9.367 250.21 9.367Z" fill="#FF5645"/>
<path d="M258.46 9.367C259.856 9.367 260.988 8.25491 260.988 6.88309C260.988 5.51126 259.856 4.39917 258.46 4.39917C257.064 4.39917 255.932 5.51126 255.932 6.88309C255.932 8.25491 257.064 9.367 258.46 9.367Z" fill="#FFCB3D"/>
<path d="M266.975 9.367C268.372 9.367 269.503 8.25491 269.503 6.88309C269.503 5.51126 268.372 4.39917 266.975 4.39917C265.579 4.39917 264.447 5.51126 264.447 6.88309C264.447 8.25491 265.579 9.367 266.975 9.367Z" fill="#3ABF7C"/>
</g>
<defs>
<filter id="filter0_d_453_3399" x="0.575531" y="31.4796" width="162.298" height="122.353" filterUnits="userSpaceOnUse" color-interpolation-filters="sRGB">
<feFlood flood-opacity="0" result="BackgroundImageFix"/>
<feColorMatrix in="SourceAlpha" type="matrix" values="0 0 0 0 0 0 0 0 0 0 0 0 0 0 0 0 0 0 127 0" result="hardAlpha"/>
<feOffset dy="1.81835"/>
<feGaussianBlur stdDeviation="1.21223"/>
<feComposite in2="hardAlpha" operator="out"/>
<feColorMatrix type="matrix" values="0 0 0 0 0 0 0 0 0 0 0 0 0 0 0 0 0 0 0.2 0"/>
<feBlend mode="normal" in2="BackgroundImageFix" result="effect1_dropShadow_453_3399"/>
<feBlend mode="normal" in="SourceGraphic" in2="effect1_dropShadow_453_3399" result="shape"/>
</filter>
<filter id="filter1_d_453_3399" x="32.7389" y="206.927" width="108.482" height="83.7825" filterUnits="userSpaceOnUse" color-interpolation-filters="sRGB">
<feFlood flood-opacity="0" result="BackgroundImageFix"/>
<feColorMatrix in="SourceAlpha" type="matrix" values="0 0 0 0 0 0 0 0 0 0 0 0 0 0 0 0 0 0 127 0" result="hardAlpha"/>
<feOffset dy="1.4763"/>
<feGaussianBlur stdDeviation="0.984201"/>
<feComposite in2="hardAlpha" operator="out"/>
<feColorMatrix type="matrix" values="0 0 0 0 0 0 0 0 0 0 0 0 0 0 0 0 0 0 0.2 0"/>
<feBlend mode="normal" in2="BackgroundImageFix" result="effect1_dropShadow_453_3399"/>
<feBlend mode="normal" in="SourceGraphic" in2="effect1_dropShadow_453_3399" result="shape"/>
</filter>
<filter id="filter2_d_453_3399" x="253.992" y="266.707" width="118.263" height="38.647" filterUnits="userSpaceOnUse" color-interpolation-filters="sRGB">
<feFlood flood-opacity="0" result="BackgroundImageFix"/>
<feColorMatrix in="SourceAlpha" type="matrix" values="0 0 0 0 0 0 0 0 0 0 0 0 0 0 0 0 0 0 127 0" result="hardAlpha"/>
<feOffset dy="1.65955"/>
<feGaussianBlur stdDeviation="1.02277"/>
<feComposite in2="hardAlpha" operator="out"/>
<feColorMatrix type="matrix" values="0 0 0 0 0 0 0 0 0 0 0 0 0 0 0 0 0 0 0.2 0"/>
<feBlend mode="normal" in2="BackgroundImageFix" result="effect1_dropShadow_453_3399"/>
<feBlend mode="normal" in="SourceGraphic" in2="effect1_dropShadow_453_3399" result="shape"/>
</filter>
<filter id="filter3_d_453_3399" x="239.6" y="0.310139" width="140.551" height="106.858" filterUnits="userSpaceOnUse" color-interpolation-filters="sRGB">
<feFlood flood-opacity="0" result="BackgroundImageFix"/>
<feColorMatrix in="SourceAlpha" type="matrix" values="0 0 0 0 0 0 0 0 0 0 0 0 0 0 0 0 0 0 127 0" result="hardAlpha"/>
<feOffset dy="2.06958"/>
<feGaussianBlur stdDeviation="1.37972"/>
<feComposite in2="hardAlpha" operator="out"/>
<feColorMatrix type="matrix" values="0 0 0 0 0 0 0 0 0 0 0 0 0 0 0 0 0 0 0.2 0"/>
<feBlend mode="normal" in2="BackgroundImageFix" result="effect1_dropShadow_453_3399"/>
<feBlend mode="normal" in="SourceGraphic" in2="effect1_dropShadow_453_3399" result="shape"/>
</filter>
</defs>
</svg>
