<svg width="1008" height="448" viewBox="0 0 1008 448" fill="none" xmlns="http://www.w3.org/2000/svg">
<g filter="url(#filter0_d_449_3191)">
<path d="M251.427 11.856H16.3405C9.52502 11.856 4 17.381 4 24.1964V193.378C4 200.194 9.52502 205.719 16.3405 205.719H251.427C258.242 205.719 263.767 200.194 263.767 193.378V24.1964C263.767 17.381 258.242 11.856 251.427 11.856Z" fill="#F2F6FB"/>
<mask id="mask0_449_3191" style="mask-type:alpha" maskUnits="userSpaceOnUse" x="8" y="44" width="252" height="162">
<path d="M8.50488 44.833H259.263V203.062C259.263 204.425 258.159 205.53 256.791 205.53H10.9766C9.61151 205.53 8.50488 204.429 8.50488 203.062V44.833Z" fill="white"/>
</mask>
<g mask="url(#mask0_449_3191)">
<path d="M8.50488 44.833H259.263V203.062C259.263 204.425 258.159 205.53 256.791 205.53H10.9766C9.61151 205.53 8.50488 204.429 8.50488 203.062V44.833Z" fill="#F2F6FB"/>
<path d="M147.106 198.008V211.685H159.871V218.979H107.896V211.685H120.662V198.008H61.1269C59.7625 198.008 58.6565 196.909 58.6565 195.54V179.773H209.111V195.54C209.111 196.903 208.008 198.008 206.641 198.008H147.106Z" fill="#74CADD"/>
<path fill-rule="evenodd" clip-rule="evenodd" d="M58.6565 97.4465C58.6565 96.084 59.7599 94.9795 61.1269 94.9795H206.641C208.005 94.9795 209.111 96.0862 209.111 97.4465V182.508H58.6565V97.4465Z" fill="white"/>
<path d="M135.282 148.069L134.304 148.082L134.312 148.069H121.527C120.982 148.069 120.77 147.694 121.059 147.224L129.955 132.773C130.243 132.306 130.716 132.295 131.015 132.754L137.531 142.83L139.891 138.988C140.176 138.525 140.656 138.517 140.961 138.965L146.428 146.998C146.734 147.448 146.54 147.827 145.995 147.844L141.411 147.988L140.704 147.997L140.747 148.069C140.747 148.069 140.306 148.069 139.759 148.069H135.282ZM140.62 134.719C139.427 134.719 138.46 133.732 138.46 132.515C138.46 131.297 139.427 130.31 140.62 130.31C141.813 130.31 142.78 131.297 142.78 132.515C142.78 133.732 141.813 134.719 140.62 134.719Z" fill="#74CADD"/>
</g>
<path d="M161.421 74.5918H106.836C106.155 74.5918 105.602 75.1443 105.602 75.8258V82.4471C105.602 83.1286 106.155 83.6811 106.836 83.6811H161.421C162.103 83.6811 162.655 83.1286 162.655 82.4471V75.8258C162.655 75.1443 162.103 74.5918 161.421 74.5918Z" fill="#74CADD"/>
<path d="M189.948 59.8223H78.3095C77.6279 59.8223 77.0754 60.3748 77.0754 61.0563V67.6775C77.0754 68.3591 77.6279 68.9116 78.3095 68.9116H189.948C190.629 68.9116 191.182 68.3591 191.182 67.6775V61.0563C191.182 60.3748 190.629 59.8223 189.948 59.8223Z" fill="#74CADD"/>
<path d="M4 22.8482C4 16.7773 8.92148 11.856 14.9959 11.856H252.771C258.844 11.856 263.767 16.776 263.767 22.8482V33.8404H4V22.8482Z" fill="#D0D8DE"/>
<path d="M18.7654 27.8449C21.3914 27.8449 23.5203 25.7197 23.5203 23.0982C23.5203 20.4767 21.3914 18.3516 18.7654 18.3516C16.1393 18.3516 14.0105 20.4767 14.0105 23.0982C14.0105 25.7197 16.1393 27.8449 18.7654 27.8449Z" fill="#FF5645"/>
<path d="M34.281 27.8449C36.9071 27.8449 39.0359 25.7197 39.0359 23.0982C39.0359 20.4767 36.9071 18.3516 34.281 18.3516C31.655 18.3516 29.5261 20.4767 29.5261 23.0982C29.5261 25.7197 31.655 27.8449 34.281 27.8449Z" fill="#FFCB3D"/>
<path d="M50.2979 27.8449C52.9239 27.8449 55.0527 25.7197 55.0527 23.0982C55.0527 20.4767 52.9239 18.3516 50.2979 18.3516C47.6718 18.3516 45.543 20.4767 45.543 23.0982C45.543 25.7197 47.6718 27.8449 50.2979 27.8449Z" fill="#3ABF7C"/>
</g>
<g filter="url(#filter1_d_449_3191)">
<path d="M335.446 259.625H145.692C139.426 259.625 134.346 264.705 134.346 270.972V410.534C134.346 416.8 139.426 421.88 145.692 421.88H335.446C341.713 421.88 346.793 416.8 346.793 410.534V270.972C346.793 264.705 341.713 259.625 335.446 259.625Z" fill="#F2F6FB"/>
<path d="M244.014 386.872C267.784 373.148 275.925 342.748 262.198 318.972C248.471 295.195 218.073 287.046 194.302 300.77C170.532 314.494 162.391 344.894 176.118 368.67C189.845 392.447 220.243 400.596 244.014 386.872ZM231.851 365.806C219.712 372.815 204.189 368.653 197.178 356.511C190.168 344.369 194.326 328.844 206.465 321.836C218.604 314.827 234.127 318.989 241.138 331.131C248.148 343.273 243.99 358.798 231.851 365.806Z" fill="#E1E5F0"/>
<mask id="mask1_449_3191" style="mask-type:alpha" maskUnits="userSpaceOnUse" x="157" y="290" width="124" height="116">
<path d="M188.157 290.326C158.771 307.292 148.706 344.874 165.676 374.268C182.647 403.662 220.227 413.737 249.613 396.771C279 379.804 289.065 342.222 272.094 312.828L251.176 324.905C261.475 342.743 255.366 365.551 237.533 375.847C219.699 386.143 196.893 380.029 186.595 362.191C176.296 344.353 182.404 321.545 200.237 311.249L188.157 290.326Z" fill="white"/>
</mask>
<g mask="url(#mask1_449_3191)">
<path d="M188.157 290.326C158.771 307.292 148.706 344.874 165.676 374.268C182.647 403.662 220.227 413.737 249.613 396.771C279 379.804 289.065 342.222 272.094 312.828L251.176 324.905C261.475 342.743 255.366 365.551 237.533 375.847C219.699 386.143 196.893 380.029 186.595 362.191C176.296 344.353 182.404 321.545 200.237 311.249L188.157 290.326Z" fill="white"/>
<path d="M189.211 290.189C156.644 301.264 145.897 346.338 162.868 375.732C179.839 405.126 231.507 415.382 250.667 396.634L238.731 374.37C220.818 384.712 197.804 379.975 187.505 362.137C177.207 344.299 183.379 321.454 201.292 311.112L189.211 290.189Z" fill="#FF715C"/>
</g>
<path d="M312.267 315.886H299.093C298.467 315.886 297.959 316.394 297.959 317.021V330.008C297.959 330.635 298.467 331.143 299.093 331.143H312.267C312.894 331.143 313.402 330.635 313.402 330.008V317.021C313.402 316.394 312.894 315.886 312.267 315.886Z" fill="#FF715C"/>
<path d="M312.267 338.226H299.093C298.467 338.226 297.959 338.734 297.959 339.361V352.348C297.959 352.974 298.467 353.482 299.093 353.482H312.267C312.894 353.482 313.402 352.974 313.402 352.348V339.361C313.402 338.734 312.894 338.226 312.267 338.226Z" fill="white"/>
<path d="M312.267 360.566H299.093C298.467 360.566 297.959 361.074 297.959 361.7V374.687C297.959 375.314 298.467 375.822 299.093 375.822H312.267C312.894 375.822 313.402 375.314 313.402 374.687V361.7C313.402 361.074 312.894 360.566 312.267 360.566Z" fill="#E1E5F0"/>
<path d="M134.346 268.802C134.346 263.734 138.455 259.625 143.524 259.625H336.78C341.849 259.625 345.958 263.733 345.958 268.802V277.978H134.346V268.802Z" fill="#D0D8DE"/>
</g>
<path d="M390.134 5.51416L391.371 14.1335" stroke="#FFC43D" stroke-width="2.97311" stroke-linecap="round"/>
<path d="M369.677 11.5894L375.094 19.1198" stroke="#74CADD" stroke-width="2.97311" stroke-linecap="round"/>
<path d="M358.51 29.5941L368.208 32.0924" stroke="#FFC43D" stroke-width="2.97311" stroke-linecap="round"/>
<rect width="19.9962" height="28.1765" rx="9.99812" transform="matrix(-0.903494 0.4286 0.4286 0.903494 409.118 50.6362)" fill="#74CADD"/>
<circle r="21.8141" transform="matrix(-0.903494 0.4286 0.4286 0.903494 394.24 42.6038)" fill="#FFC43D"/>
<path d="M407.37 56.496C402.12 48.2559 395.399 25.9587 405.322 27.7904C420.835 30.6541 389.381 50.8656 387.029 39.1442C385.034 29.1992 395.792 28.8018 397.266 36.1506C398.74 43.4993 381.839 52.5115 377.232 49.1635C372.626 45.8155 376.229 36.8774 380.685 39.4773C390.172 45.0114 394.601 54.673 397.105 61.3655" stroke="#002B51" stroke-width="1.98207" stroke-linecap="round"/>
<path d="M410.508 62.0488C409.84 63.1776 406.922 66.0889 400.587 68.7045" stroke="#002B51" stroke-width="1.98207" stroke-linecap="round"/>
<path d="M413.234 67.7974C412.725 69.2576 410.102 72.7923 403.691 75.2487" stroke="#002B51" stroke-width="1.98207" stroke-linecap="round"/>
<path d="M395.763 441.638L415.531 248.102L464.632 268.189L456.024 427.29C458.893 428.565 465.27 431.945 467.821 435.261C470.371 438.577 468.883 440.894 467.821 441.638H395.763Z" fill="#74CADD"/>
<ellipse cx="489.354" cy="189.269" rx="110.956" ry="113.826" fill="#74CADD"/>
<path d="M513.316 129.051C512.919 133.124 510.932 134.774 508.7 134.557C506.468 134.339 504.836 132.336 505.233 128.263C505.63 124.19 507.654 122.171 509.886 122.388C512.118 122.606 513.713 124.978 513.316 129.051Z" fill="#002B51"/>
<path d="M552.852 132.877C552.455 136.95 550.468 138.601 548.236 138.383C546.004 138.165 544.373 136.162 544.77 132.089C545.167 128.016 547.19 125.997 549.422 126.214C551.654 126.432 553.25 128.804 552.852 132.877Z" fill="#002B51"/>
<path d="M584.368 134.791L495.731 175.921L503.383 227.574L570.339 175.921C576.397 177.728 592.85 180.258 610.194 175.921C627.539 171.585 626.136 153.453 623.586 144.313C631.45 149.415 648.583 157.174 651.644 152.327C655.47 146.269 653.557 144.994 636.977 134.791C623.713 126.629 596.378 131.39 584.368 134.791Z" fill="#74CADD"/>
<path d="M616.89 139.849C619.016 141.124 621.673 142.081 624.542 146.545" stroke="#002B51" stroke-width="3.96414" stroke-linecap="round"/>
<path d="M611.151 150.69C615.296 156.004 621.099 168.354 611.151 175.241" stroke="#002B51" stroke-width="3.96414" stroke-linecap="round"/>
<path d="M568.108 166.951C568.533 170.883 572.316 178.748 584.05 178.748C598.716 178.748 604.455 170.14 604.455 163.763" stroke="#002B51" stroke-width="3.96414" stroke-linecap="round"/>
<path d="M492.861 234.864L569.702 176.197" stroke="#002B51" stroke-width="3.96414" stroke-linecap="round"/>
<path d="M481.702 184.487L580.542 136.023" stroke="#002B51" stroke-width="3.96414" stroke-linecap="round"/>
<path d="M589.788 269.202L574.803 261.55V205.434L600.629 220.738C613.383 208.728 640.42 182.477 646.542 173.55C654.194 162.39 682.571 156.651 687.354 162.709C691.18 167.555 685.759 171.955 682.571 173.55L731.991 184.709C734.436 185.666 737.858 189.683 731.991 198.1C726.125 206.518 693.199 211.385 677.47 212.767C662.484 227.434 630.345 258.68 621.673 266.332C613 273.984 596.803 271.434 589.788 269.202Z" fill="#74CADD"/>
<path d="M705.528 188.951C705.953 194.052 702.977 205.594 687.673 210.951" stroke="#002B51" stroke-width="2.97311" stroke-linecap="round"/>
<path d="M723.383 185.762C724.339 191.82 723.191 204.383 710.948 206.168" stroke="#002B51" stroke-width="2.97311" stroke-linecap="round"/>
<path d="M685.122 110.665L682.571 174.433C660.359 175.708 615.041 179.917 611.47 180.172C607.899 180.427 605.412 181.448 605.412 185.274V192.607C605.412 195.923 609.451 196.327 611.47 196.114C660.359 192.288 760.241 184.445 768.658 183.679C777.076 182.914 780.668 177.196 781.412 174.433C783.644 154.771 787.023 111.494 787.789 100.781C788.554 90.0679 781.306 89.7277 776.948 90.2591C754.417 91.9596 706.612 95.5519 695.644 96.3171C684.676 97.0823 685.122 105.245 685.122 110.665Z" fill="#E6E2DD"/>
<path d="M478.661 441.319L486.632 277.435H537.328V426.333C540.41 427.927 547.85 432.072 552.951 435.898C558.052 439.724 555.077 441.106 552.951 441.319H478.661Z" fill="#74CADD"/>
<path d="M533.159 153.394C532.149 157.93 528.637 160.191 525.959 159.595C523.281 158.998 521.061 155.461 522.071 150.925C523.081 146.389 526.593 144.129 529.27 144.725C531.948 145.321 534.169 148.859 533.159 153.394Z" stroke="#002B51" stroke-width="3.96414"/>
<path d="M500.832 110.516C503.808 108.072 511.418 104.649 518.049 110.516" stroke="#002B51" stroke-width="3.96414" stroke-linecap="round"/>
<path d="M545.85 112.333C549.378 110.79 557.009 112.333 559.114 117.534" stroke="#002B51" stroke-width="3.96414" stroke-linecap="round"/>
<mask id="path-48-inside-1_449_3191" fill="white">
<path fill-rule="evenodd" clip-rule="evenodd" d="M753.705 136.48C753.463 135.286 751.933 135.062 750.863 135.645C750.197 136.007 749.453 136.278 748.649 136.43C745.003 137.122 741.526 135.118 740.885 131.956C740.762 131.35 740.752 130.746 740.841 130.16C741.092 128.526 740.394 126.35 738.744 126.467C738.092 126.513 737.434 126.597 736.773 126.723C728.821 128.231 723.509 135.045 724.908 141.942C726.307 148.839 733.888 153.207 741.84 151.699C749.793 150.191 755.105 143.377 753.705 136.48V136.48Z"/>
</mask>
<path d="M748.649 136.43L748.095 133.509L748.095 133.509L748.649 136.43ZM740.885 131.956L743.798 131.365L743.798 131.365L740.885 131.956ZM736.773 126.723L737.327 129.644L736.773 126.723ZM724.908 141.942L727.822 141.351L727.822 141.351L724.908 141.942ZM741.84 151.699L742.394 154.62L742.394 154.62L741.84 151.699ZM740.841 130.16L737.903 129.711L740.841 130.16ZM750.863 135.645L749.44 133.034L750.863 135.645ZM749.44 133.034C749.047 133.248 748.596 133.414 748.095 133.509L749.204 139.351C750.309 139.141 751.347 138.767 752.286 138.255L749.44 133.034ZM748.095 133.509C745.658 133.971 744.043 132.57 743.798 131.365L737.971 132.547C739.01 137.667 744.348 140.272 749.204 139.351L748.095 133.509ZM743.798 131.365C743.747 131.11 743.742 130.858 743.78 130.61L737.903 129.711C737.761 130.634 737.777 131.591 737.971 132.547L743.798 131.365ZM737.327 129.644C737.874 129.54 738.417 129.47 738.954 129.432L738.535 123.501C737.767 123.555 736.994 123.655 736.219 123.802L737.327 129.644ZM727.822 141.351C726.828 136.454 730.598 130.92 737.327 129.644L736.219 123.802C727.044 125.542 720.189 133.636 721.994 142.533L727.822 141.351ZM741.286 148.778C734.543 150.057 728.824 146.291 727.822 141.351L721.994 142.533C723.791 151.387 733.233 156.358 742.394 154.62L741.286 148.778ZM750.792 137.071C751.785 141.968 748.015 147.502 741.286 148.778L742.394 154.62C751.57 152.88 758.424 144.786 756.619 135.889L750.792 137.071ZM743.78 130.61C743.984 129.277 743.825 127.713 743.189 126.379C742.536 125.006 741.023 123.325 738.535 123.501L738.954 129.432C738.822 129.442 738.659 129.43 738.485 129.379C738.311 129.328 738.167 129.251 738.056 129.17C737.847 129.018 737.798 128.888 737.821 128.935C737.84 128.975 737.88 129.086 737.903 129.26C737.925 129.431 737.921 129.593 737.903 129.711L743.78 130.61ZM752.286 138.255C752.212 138.295 752.108 138.337 751.894 138.285C751.765 138.254 751.53 138.168 751.29 137.946C751.028 137.704 750.855 137.386 750.792 137.071L756.619 135.889C756.217 133.909 754.689 132.844 753.295 132.506C751.988 132.19 750.584 132.411 749.44 133.034L752.286 138.255Z" fill="#002B51" mask="url(#path-48-inside-1_449_3191)"/>
<path d="M966.649 427.141L933.832 406C933.394 406.305 933.394 406.305 933 406.654L945.268 443.575C945.268 443.575 950.088 442.921 953.812 440.829L959.376 447.978L967.482 441.744L961.917 434.552C963.495 432.067 965.072 429.583 966.649 427.141Z" fill="#E6E6E6"/>
<path d="M962.365 343.471H775.963C770.443 343.471 765.969 347.946 765.969 353.466V395.944C765.969 401.464 770.443 405.938 775.963 405.938H962.365C967.885 405.938 972.359 401.464 972.359 395.944V353.466C972.359 347.946 967.885 343.471 962.365 343.471Z" fill="#C9D0D6"/>
<path d="M941.101 393.067C931.14 393.067 923.065 384.985 923.065 375.015C923.065 365.046 931.14 356.964 941.101 356.964C951.062 356.964 959.137 365.046 959.137 375.015C959.137 384.985 951.062 393.067 941.101 393.067ZM941.092 374.771C943.548 374.771 945.539 372.806 945.539 370.381C945.539 367.956 943.548 365.99 941.092 365.99C938.636 365.99 936.645 367.956 936.645 370.381C936.645 372.806 938.636 374.771 941.092 374.771ZM941.092 376.967C936.64 376.967 933.031 380.53 933.031 384.925H949.152C949.152 380.53 945.544 376.967 941.092 376.967ZM785.188 373.21H889.601C890.153 373.21 890.601 373.658 890.601 374.21V379.431C890.601 379.983 890.153 380.431 889.601 380.431H785.188C784.636 380.431 784.188 379.983 784.188 379.431V374.21C784.188 373.658 784.636 373.21 785.188 373.21ZM785.188 384.944H898.619C899.171 384.944 899.618 385.391 899.618 385.943V391.164C899.618 391.716 899.171 392.164 898.619 392.164H785.188C784.636 392.164 784.188 391.716 784.188 391.164V385.943C784.188 385.391 784.636 384.944 785.188 384.944Z" fill="#F2F6FB"/>
<path d="M900.423 361.477H785.188C784.636 361.477 784.188 361.925 784.188 362.477V367.698C784.188 368.25 784.636 368.697 785.188 368.697H900.423C900.975 368.697 901.422 368.25 901.422 367.698V362.477C901.422 361.925 900.975 361.477 900.423 361.477Z" fill="#E1E5F0"/>
<g filter="url(#filter2_d_449_3191)">
<path d="M902.396 289H715.995C710.475 289 706 293.475 706 298.995V341.472C706 346.992 710.475 351.467 715.995 351.467H902.396C907.916 351.467 912.391 346.992 912.391 341.472V298.995C912.391 293.475 907.916 289 902.396 289Z" fill="white"/>
</g>
<path d="M742.256 338.298C732.295 338.298 724.22 330.216 724.22 320.247C724.22 310.278 732.295 302.196 742.256 302.196C752.217 302.196 760.292 310.278 760.292 320.247C760.292 330.216 752.217 338.298 742.256 338.298ZM742.247 320.003C744.703 320.003 746.694 318.037 746.694 315.612C746.694 313.187 744.703 311.221 742.247 311.221C739.791 311.221 737.8 313.187 737.8 315.612C737.8 318.037 739.791 320.003 742.247 320.003ZM742.247 322.198C737.795 322.198 734.186 325.761 734.186 330.157H750.307C750.307 325.761 746.699 322.198 742.247 322.198ZM770.31 316.637H874.723C875.275 316.637 875.722 317.084 875.722 317.636V322.858C875.722 323.41 875.275 323.857 874.723 323.857H770.31C769.758 323.857 769.31 323.41 769.31 322.858V317.636C769.31 317.084 769.758 316.637 770.31 316.637ZM770.31 328.37H892.758C893.31 328.37 893.758 328.817 893.758 329.369V334.591C893.758 335.143 893.31 335.59 892.758 335.59H770.31C769.758 335.59 769.31 335.143 769.31 334.591V329.369C769.31 328.817 769.758 328.37 770.31 328.37Z" fill="#FF715C"/>
<path d="M849.472 304.904H770.31C769.758 304.904 769.31 305.351 769.31 305.903V311.125C769.31 311.677 769.758 312.124 770.31 312.124H849.472C850.024 312.124 850.472 311.677 850.472 311.125V305.903C850.472 305.351 850.024 304.904 849.472 304.904Z" fill="#FFC43D"/>
<g filter="url(#filter3_d_449_3191)">
<path d="M991.814 164.301H820.994C814.286 164.301 808.808 158.451 808.808 151.288V31.1317C808.808 23.9688 814.286 18.1191 820.994 18.1191H991.814C998.522 18.1191 1004 23.9688 1004 31.1317V151.229C1004 158.451 998.522 164.301 991.814 164.301Z" fill="#F2F6FB"/>
<path d="M864.967 99.2696C873.915 99.2696 881.169 92.1426 881.169 83.3511C881.169 74.5596 873.915 67.4326 864.967 67.4326C856.019 67.4326 848.765 74.5596 848.765 83.3511C848.765 92.1426 856.019 99.2696 864.967 99.2696Z" fill="#FFC43D"/>
<path d="M905.085 99.2696C914.033 99.2696 921.287 92.1426 921.287 83.3511C921.287 74.5596 914.033 67.4326 905.085 67.4326C896.138 67.4326 888.884 74.5596 888.884 83.3511C888.884 92.1426 896.138 99.2696 905.085 99.2696Z" fill="#74CADD"/>
<path d="M945.204 99.2696C954.152 99.2696 961.406 92.1426 961.406 83.3511C961.406 74.5596 954.152 67.4326 945.204 67.4326C936.256 67.4326 929.002 74.5596 929.002 83.3511C929.002 92.1426 936.256 99.2696 945.204 99.2696Z" fill="#FF715C"/>
<path d="M961.074 125.042H852.183C850.509 125.042 849.151 126.4 849.151 128.074C849.151 129.749 850.509 131.106 852.183 131.106H961.074C962.749 131.106 964.106 129.749 964.106 128.074C964.106 126.4 962.749 125.042 961.074 125.042Z" fill="#E1E5F0"/>
<path d="M960.885 112.914H852.373C850.594 112.914 849.151 114.356 849.151 116.135C849.151 117.914 850.594 119.357 852.373 119.357H960.885C962.664 119.357 964.106 117.914 964.106 116.135C964.106 114.356 962.664 112.914 960.885 112.914Z" fill="#E1E5F0"/>
<path d="M808.261 25.7411C808.261 21.136 811.994 17.4028 816.602 17.4028H995.498C1000.1 17.4028 1003.84 21.135 1003.84 25.7411V34.0793H808.261V25.7411Z" fill="#D0D8DE"/>
<path d="M819.641 29.5313C821.665 29.5313 823.306 27.9192 823.306 25.9307C823.306 23.9421 821.665 22.3301 819.641 22.3301C817.617 22.3301 815.976 23.9421 815.976 25.9307C815.976 27.9192 817.617 29.5313 819.641 29.5313Z" fill="#FF5645"/>
<path d="M831.599 29.5313C833.623 29.5313 835.264 27.9192 835.264 25.9307C835.264 23.9421 833.623 22.3301 831.599 22.3301C829.576 22.3301 827.935 23.9421 827.935 25.9307C827.935 27.9192 829.576 29.5313 831.599 29.5313Z" fill="#FFCB3D"/>
<path d="M843.943 29.5313C845.967 29.5313 847.608 27.9192 847.608 25.9307C847.608 23.9421 845.967 22.3301 843.943 22.3301C841.92 22.3301 840.279 23.9421 840.279 25.9307C840.279 27.9192 841.92 29.5313 843.943 29.5313Z" fill="#3ABF7C"/>
</g>
<defs>
<filter id="filter0_d_449_3191" x="0" y="10.856" width="267.767" height="201.863" filterUnits="userSpaceOnUse" color-interpolation-filters="sRGB">
<feFlood flood-opacity="0" result="BackgroundImageFix"/>
<feColorMatrix in="SourceAlpha" type="matrix" values="0 0 0 0 0 0 0 0 0 0 0 0 0 0 0 0 0 0 127 0" result="hardAlpha"/>
<feOffset dy="3"/>
<feGaussianBlur stdDeviation="2"/>
<feComposite in2="hardAlpha" operator="out"/>
<feColorMatrix type="matrix" values="0 0 0 0 0 0 0 0 0 0 0 0 0 0 0 0 0 0 0.2 0"/>
<feBlend mode="normal" in2="BackgroundImageFix" result="effect1_dropShadow_449_3191"/>
<feBlend mode="normal" in="SourceGraphic" in2="effect1_dropShadow_449_3191" result="shape"/>
</filter>
<filter id="filter1_d_449_3191" x="130.346" y="258.625" width="220.447" height="170.255" filterUnits="userSpaceOnUse" color-interpolation-filters="sRGB">
<feFlood flood-opacity="0" result="BackgroundImageFix"/>
<feColorMatrix in="SourceAlpha" type="matrix" values="0 0 0 0 0 0 0 0 0 0 0 0 0 0 0 0 0 0 127 0" result="hardAlpha"/>
<feOffset dy="3"/>
<feGaussianBlur stdDeviation="2"/>
<feComposite in2="hardAlpha" operator="out"/>
<feColorMatrix type="matrix" values="0 0 0 0 0 0 0 0 0 0 0 0 0 0 0 0 0 0 0.2 0"/>
<feBlend mode="normal" in2="BackgroundImageFix" result="effect1_dropShadow_449_3191"/>
<feBlend mode="normal" in="SourceGraphic" in2="effect1_dropShadow_449_3191" result="shape"/>
</filter>
<filter id="filter2_d_449_3191" x="702.302" y="288.302" width="213.787" height="69.8625" filterUnits="userSpaceOnUse" color-interpolation-filters="sRGB">
<feFlood flood-opacity="0" result="BackgroundImageFix"/>
<feColorMatrix in="SourceAlpha" type="matrix" values="0 0 0 0 0 0 0 0 0 0 0 0 0 0 0 0 0 0 127 0" result="hardAlpha"/>
<feOffset dy="3"/>
<feGaussianBlur stdDeviation="1.84888"/>
<feComposite in2="hardAlpha" operator="out"/>
<feColorMatrix type="matrix" values="0 0 0 0 0 0 0 0 0 0 0 0 0 0 0 0 0 0 0.2 0"/>
<feBlend mode="normal" in2="BackgroundImageFix" result="effect1_dropShadow_449_3191"/>
<feBlend mode="normal" in="SourceGraphic" in2="effect1_dropShadow_449_3191" result="shape"/>
</filter>
<filter id="filter3_d_449_3191" x="804.261" y="16.4028" width="203.739" height="154.898" filterUnits="userSpaceOnUse" color-interpolation-filters="sRGB">
<feFlood flood-opacity="0" result="BackgroundImageFix"/>
<feColorMatrix in="SourceAlpha" type="matrix" values="0 0 0 0 0 0 0 0 0 0 0 0 0 0 0 0 0 0 127 0" result="hardAlpha"/>
<feOffset dy="3"/>
<feGaussianBlur stdDeviation="2"/>
<feComposite in2="hardAlpha" operator="out"/>
<feColorMatrix type="matrix" values="0 0 0 0 0 0 0 0 0 0 0 0 0 0 0 0 0 0 0.2 0"/>
<feBlend mode="normal" in2="BackgroundImageFix" result="effect1_dropShadow_449_3191"/>
<feBlend mode="normal" in="SourceGraphic" in2="effect1_dropShadow_449_3191" result="shape"/>
</filter>
</defs>
</svg>
