<svg width="101" height="20" viewBox="0 0 101 20" fill="none" xmlns="http://www.w3.org/2000/svg">
<circle cx="8.29837" cy="11.3557" r="8.29837" fill="#74CADD"/>
<path d="M21.4009 8.29837C21.4009 12.8814 17.5878 16.5967 12.8842 16.5967C8.18051 16.5967 4.36743 12.8814 4.36743 8.29837C4.36743 3.7153 8.18051 0 12.8842 0C17.5878 0 21.4009 3.7153 21.4009 8.29837Z" fill="#FF715C"/>
<path d="M5.45947 13.9761C7.27369 14.7515 9.07156 13.794 9.39028 12.0645" stroke="#002B51" stroke-width="0.873512" stroke-linecap="round"/>
<path d="M2.28687 11.5938C2.71971 12.1122 3.80695 11.7948 3.79509 11.001" stroke="#002B51" stroke-width="0.873512" stroke-linecap="round"/>
<path d="M27.8545 15C27.6111 15 27.4064 14.917 27.2404 14.751C27.0744 14.5851 26.9915 14.3804 26.9915 14.137V2.90098C26.9915 2.6465 27.0744 2.44181 27.2404 2.2869C27.4064 2.12094 27.6111 2.03795 27.8545 2.03795C28.1864 2.03795 28.4409 2.19286 28.6179 2.50266L33.8127 12.9088H33.2816L38.3436 2.50266C38.5207 2.19286 38.7751 2.03795 39.1071 2.03795C39.3505 2.03795 39.5552 2.12094 39.7212 2.2869C39.8871 2.44181 39.9701 2.6465 39.9701 2.90098V14.137C39.9701 14.3804 39.8816 14.5851 39.7046 14.751C39.5386 14.917 39.3394 15 39.1071 15C38.8637 15 38.659 14.917 38.493 14.751C38.327 14.5851 38.244 14.3804 38.244 14.137V5.29091L38.576 5.20793L34.2276 14.0706C34.0395 14.3583 33.7906 14.5021 33.4808 14.5021C33.1157 14.5021 32.8501 14.3306 32.6841 13.9876L28.3856 5.3739L28.7175 5.29091V14.137C28.7175 14.3804 28.6345 14.5851 28.4686 14.751C28.3026 14.917 28.0979 15 27.8545 15ZM46.7486 15.0664C45.8523 15.0664 45.0612 14.8728 44.3752 14.4855C43.6892 14.0872 43.1471 13.545 42.7488 12.859C42.3615 12.162 42.1679 11.3653 42.1679 10.4691C42.1679 9.5618 42.3615 8.76516 42.7488 8.07916C43.1471 7.3821 43.6892 6.83994 44.3752 6.45268C45.0612 6.05436 45.8523 5.8552 46.7486 5.8552C47.6337 5.8552 48.4193 6.05436 49.1053 6.45268C49.7913 6.83994 50.3279 7.3821 50.7152 8.07916C51.1135 8.76516 51.3127 9.5618 51.3127 10.4691C51.3127 11.3653 51.119 12.162 50.7318 12.859C50.3445 13.545 49.8079 14.0872 49.1219 14.4855C48.4359 14.8728 47.6448 15.0664 46.7486 15.0664ZM46.7486 13.5727C47.3239 13.5727 47.8329 13.4399 48.2755 13.1744C48.7181 12.9088 49.0611 12.5437 49.3045 12.079C49.559 11.6143 49.6862 11.0776 49.6862 10.4691C49.6862 9.86055 49.559 9.32392 49.3045 8.85921C49.0611 8.38344 48.7181 8.01278 48.2755 7.74723C47.8329 7.48168 47.3239 7.34891 46.7486 7.34891C46.1732 7.34891 45.6643 7.48168 45.2217 7.74723C44.7791 8.01278 44.4306 8.38344 44.1761 8.85921C43.9216 9.32392 43.7944 9.86055 43.7944 10.4691C43.7944 11.0776 43.9216 11.6143 44.1761 12.079C44.4306 12.5437 44.7791 12.9088 45.2217 13.1744C45.6643 13.4399 46.1732 13.5727 46.7486 13.5727ZM57.4502 15.0664C56.554 15.0664 55.7629 14.8728 55.0769 14.4855C54.3909 14.0872 53.8487 13.545 53.4504 12.859C53.0632 12.162 52.8695 11.3653 52.8695 10.4691C52.8695 9.5618 53.0632 8.76516 53.4504 8.07916C53.8487 7.3821 54.3909 6.83994 55.0769 6.45268C55.7629 6.05436 56.554 5.8552 57.4502 5.8552C58.3354 5.8552 59.121 6.05436 59.807 6.45268C60.493 6.83994 61.0296 7.3821 61.4168 8.07916C61.8152 8.76516 62.0143 9.5618 62.0143 10.4691C62.0143 11.3653 61.8207 12.162 61.4334 12.859C61.0462 13.545 60.5096 14.0872 59.8236 14.4855C59.1376 14.8728 58.3464 15.0664 57.4502 15.0664ZM57.4502 13.5727C58.0256 13.5727 58.5345 13.4399 58.9771 13.1744C59.4197 12.9088 59.7627 12.5437 60.0061 12.079C60.2606 11.6143 60.3878 11.0776 60.3878 10.4691C60.3878 9.86055 60.2606 9.32392 60.0061 8.85921C59.7627 8.38344 59.4197 8.01278 58.9771 7.74723C58.5345 7.48168 58.0256 7.34891 57.4502 7.34891C56.8749 7.34891 56.3659 7.48168 55.9233 7.74723C55.4807 8.01278 55.1322 8.38344 54.8777 8.85921C54.6232 9.32392 54.496 9.86055 54.496 10.4691C54.496 11.0776 54.6232 11.6143 54.8777 12.079C55.1322 12.5437 55.4807 12.9088 55.9233 13.1744C56.3659 13.4399 56.8749 13.5727 57.4502 13.5727ZM68.1519 15.0664C67.2888 15.0664 66.5088 14.8672 65.8117 14.4689C65.1257 14.0595 64.578 13.5063 64.1687 12.8092C63.7703 12.1122 63.5712 11.3266 63.5712 10.4525C63.5712 9.5784 63.7537 8.79835 64.1189 8.11236C64.4951 7.41529 65.004 6.8676 65.6458 6.46928C66.2875 6.05989 67.0122 5.8552 67.8199 5.8552C68.4727 5.8552 69.0758 5.99351 69.629 6.27012C70.1822 6.53567 70.6469 6.90079 71.0231 7.3655V2.88439C71.0231 2.6299 71.1006 2.42521 71.2555 2.27031C71.4214 2.1154 71.6261 2.03795 71.8695 2.03795C72.124 2.03795 72.3287 2.1154 72.4836 2.27031C72.6385 2.42521 72.716 2.6299 72.716 2.88439V10.4525C72.716 11.3266 72.5113 12.1122 72.1019 12.8092C71.7036 13.5063 71.1614 14.0595 70.4754 14.4689C69.7894 14.8672 69.0149 15.0664 68.1519 15.0664ZM68.1519 13.5727C68.7162 13.5727 69.2196 13.4399 69.6622 13.1744C70.1048 12.8977 70.4533 12.5216 70.7078 12.0458C70.9623 11.57 71.0895 11.0389 71.0895 10.4525C71.0895 9.85501 70.9623 9.32392 70.7078 8.85921C70.4533 8.3945 70.1048 8.02937 69.6622 7.76382C69.2196 7.48721 68.7162 7.34891 68.1519 7.34891C67.5986 7.34891 67.0952 7.48721 66.6416 7.76382C66.199 8.02937 65.8449 8.3945 65.5794 8.85921C65.3249 9.32392 65.1977 9.85501 65.1977 10.4525C65.1977 11.0389 65.3249 11.57 65.5794 12.0458C65.8449 12.5216 66.199 12.8977 66.6416 13.1744C67.0952 13.4399 67.5986 13.5727 68.1519 13.5727ZM76.22 15C75.9765 15 75.7718 14.9225 75.6059 14.7676C75.451 14.6017 75.3735 14.397 75.3735 14.1536V6.76802C75.3735 6.51354 75.451 6.30884 75.6059 6.15394C75.7718 5.99904 75.9765 5.92159 76.22 5.92159C76.4744 5.92159 76.6791 5.99904 76.834 6.15394C76.9889 6.30884 77.0664 6.51354 77.0664 6.76802V14.1536C77.0664 14.397 76.9889 14.6017 76.834 14.7676C76.6791 14.9225 76.4744 15 76.22 15ZM76.22 4.44448C75.9212 4.44448 75.6612 4.33937 75.4399 4.12914C75.2297 3.90785 75.1246 3.64784 75.1246 3.34909C75.1246 3.05035 75.2297 2.79587 75.4399 2.58564C75.6612 2.36436 75.9212 2.25371 76.22 2.25371C76.5187 2.25371 76.7732 2.36436 76.9834 2.58564C77.2047 2.79587 77.3153 3.05035 77.3153 3.34909C77.3153 3.64784 77.2047 3.90785 76.9834 4.12914C76.7732 4.33937 76.5187 4.44448 76.22 4.44448ZM87.3855 15.0166C87.1421 15.0166 86.9374 14.9391 86.7715 14.7842C86.6166 14.6183 86.5391 14.4136 86.5391 14.1702V10.0874C86.5391 9.45669 86.4229 8.94219 86.1906 8.54387C85.9582 8.14555 85.6429 7.85234 85.2446 7.66424C84.8573 7.46508 84.4092 7.3655 83.9002 7.3655C83.4355 7.3655 83.0151 7.45955 82.6389 7.64765C82.2627 7.83574 81.9639 8.09023 81.7427 8.4111C81.5214 8.7209 81.4107 9.0805 81.4107 9.48988H80.3651C80.3651 8.79282 80.5311 8.17321 80.863 7.63105C81.206 7.07783 81.6707 6.64078 82.2571 6.31991C82.8436 5.99904 83.5019 5.8386 84.2322 5.8386C84.9956 5.8386 85.6761 6.00457 86.2736 6.33651C86.8821 6.65738 87.3579 7.13315 87.7009 7.76382C88.0549 8.3945 88.232 9.16901 88.232 10.0874V14.1702C88.232 14.4136 88.149 14.6183 87.983 14.7842C87.8281 14.9391 87.629 15.0166 87.3855 15.0166ZM80.5643 15.0166C80.3209 15.0166 80.1162 14.9391 79.9502 14.7842C79.7953 14.6183 79.7178 14.4136 79.7178 14.1702V6.76802C79.7178 6.51354 79.7953 6.30884 79.9502 6.15394C80.1162 5.99904 80.3209 5.92159 80.5643 5.92159C80.8188 5.92159 81.0235 5.99904 81.1784 6.15394C81.3333 6.30884 81.4107 6.51354 81.4107 6.76802V14.1702C81.4107 14.4136 81.3333 14.6183 81.1784 14.7842C81.0235 14.9391 80.8188 15.0166 80.5643 15.0166ZM94.317 15.0664C93.4872 15.0664 92.7514 14.8728 92.1096 14.4855C91.479 14.0872 90.9811 13.545 90.6159 12.859C90.2508 12.162 90.0682 11.3653 90.0682 10.4691C90.0682 9.5618 90.2619 8.76516 90.6491 8.07916C91.0475 7.3821 91.5896 6.83994 92.2756 6.45268C92.9616 6.05436 93.7527 5.8552 94.6489 5.8552C95.5341 5.8552 96.3197 6.05436 97.0057 6.45268C97.6917 6.83994 98.2283 7.3821 98.6156 8.07916C99.0139 8.76516 99.213 9.5618 99.213 10.4691H98.2338C98.2338 11.3653 98.0623 12.162 97.7193 12.859C97.3874 13.545 96.9282 14.0872 96.3418 14.4855C95.7554 14.8728 95.0805 15.0664 94.317 15.0664ZM94.6158 18.7675C93.8302 18.7675 93.0944 18.6126 92.4084 18.3027C91.7224 17.9929 91.1415 17.5393 90.6657 16.9418C90.5219 16.7537 90.4666 16.5601 90.4998 16.3609C90.544 16.1618 90.6547 16.0013 90.8317 15.8796C91.0309 15.7469 91.2356 15.7026 91.4458 15.7469C91.6671 15.7911 91.8441 15.9018 91.9769 16.0788C92.2756 16.455 92.6518 16.7482 93.1054 16.9584C93.5591 17.1686 94.0736 17.2738 94.6489 17.2738C95.18 17.2738 95.6669 17.1465 96.1095 16.892C96.5631 16.6375 96.9227 16.2614 97.1882 15.7634C97.4538 15.2655 97.5866 14.657 97.5866 13.9378V11.5811L98.1343 10.1206L99.213 10.4691V14.054C99.213 14.9281 99.0194 15.7192 98.6322 16.4273C98.2449 17.1465 97.7027 17.7163 97.0057 18.1368C96.3197 18.5572 95.523 18.7675 94.6158 18.7675ZM94.6489 13.5727C95.2243 13.5727 95.7333 13.4399 96.1758 13.1744C96.6184 12.9088 96.9614 12.5437 97.2048 12.079C97.4593 11.6143 97.5866 11.0776 97.5866 10.4691C97.5866 9.86055 97.4593 9.32392 97.2048 8.85921C96.9614 8.38344 96.6184 8.01278 96.1758 7.74723C95.7333 7.48168 95.2243 7.34891 94.6489 7.34891C94.0736 7.34891 93.5646 7.48168 93.122 7.74723C92.6795 8.01278 92.3309 8.38344 92.0765 8.85921C91.822 9.32392 91.6947 9.86055 91.6947 10.4691C91.6947 11.0776 91.822 11.6143 92.0765 12.079C92.3309 12.5437 92.6795 12.9088 93.122 13.1744C93.5646 13.4399 94.0736 13.5727 94.6489 13.5727Z" fill="#002B51"/>
<path d="M77.7426 2.83895C77.7426 3.6832 77.0582 4.3676 76.2139 4.3676C75.3697 4.3676 74.6853 3.6832 74.6853 2.83895C74.6853 1.9947 75.3697 1.3103 76.2139 1.3103C77.0582 1.3103 77.7426 1.9947 77.7426 2.83895Z" fill="#FF715C"/>
<path d="M7.06937 8.30773C6.8737 8.00338 6.96181 7.59804 7.26616 7.40237L7.4431 7.28862C7.74745 7.09296 8.1528 7.18107 8.34846 7.48542L9.03878 8.55919C9.23444 8.86354 9.14633 9.26888 8.84198 9.46455L8.66504 9.5783C8.36069 9.77396 7.95535 9.68585 7.75968 9.3815L7.06937 8.30773Z" fill="#002B51"/>
</svg>
