<svg width="601" height="508" viewBox="0 0 601 508" fill="none" xmlns="http://www.w3.org/2000/svg">
<path d="M396.606 372.824H0C0 390.622 10.707 394.762 16.0605 394.608H380.099C395.803 394.237 397.647 379.931 396.606 372.824Z" fill="#002B51"/>
<path d="M16.0573 151V370.723C16.0573 377.902 21.8775 383.723 29.0573 383.723H366.639C373.819 383.723 379.639 377.902 379.639 370.723V151C379.639 143.82 373.819 138 366.639 138H29.0573C21.8775 138 16.0573 143.82 16.0573 151Z" fill="#002B51"/>
<path d="M372.084 161H28V376.461H372.084V161Z" fill="white"/>
<path d="M162.746 381.297L158.279 374.034H196.701H235.124L231.103 381.297H162.746Z" fill="#74CADD"/>
<ellipse cx="439.69" cy="294.075" rx="115.183" ry="121.562" fill="#FF715C"/>
<path d="M415.959 251.67C415.959 249.113 418.032 247.04 420.589 247.04C423.147 247.04 425.22 249.113 425.22 251.67V264.4C425.22 266.958 423.147 269.031 420.589 269.031C418.032 269.031 415.959 266.958 415.959 264.4V251.67Z" fill="#002B51"/>
<path d="M363.866 252.313C363.866 250.076 365.68 248.262 367.917 248.262C370.155 248.262 371.969 250.076 371.969 252.313V264.979C371.969 267.217 370.155 269.031 367.917 269.031C365.68 269.031 363.866 267.217 363.866 264.979V252.313Z" fill="#002B51"/>
<path d="M417.569 292.855C417.569 301.889 408.677 309.791 396.927 309.791C385.177 309.791 376.284 301.889 376.284 292.855C376.284 283.821 385.177 275.918 396.927 275.918C408.677 275.918 417.569 283.821 417.569 292.855Z" stroke="#002B51" stroke-width="4"/>
<path d="M414.532 300.316C403.166 280.31 382.828 289.403 376.248 297.285C373.855 280.916 389.009 278.289 392.997 277.885C411.88 275.067 419.916 289.403 414.532 300.316Z" fill="#002B51"/>
<path d="M361.158 236.221C365.091 230.567 374.135 226.045 381.803 236.221" stroke="#002B51" stroke-width="4" stroke-linecap="round"/>
<path d="M409.305 224.939C414.788 221.629 427.517 222.143 433.391 231.56" stroke="#002B51" stroke-width="4" stroke-linecap="round"/>
<path d="M531.036 507.59L497.824 398.648L422.076 411.647L437.808 492.734C428.952 491.744 423.63 502.225 422.076 507.59H531.036Z" fill="#FF715C"/>
<path d="M457.632 407.122L474.836 491.674C470.581 493.104 466.511 497.801 466.511 506.379" stroke="#002B51" stroke-width="4"/>
<path d="M588.877 321.18C626.571 279.604 567.425 264.319 533.141 261.873L524.522 303.449L550.379 307.729L514.179 340.134C499.01 355.297 507.859 370.501 514.179 376.208C531.647 392.838 545.591 379.469 550.379 370.705C554.401 359.088 546.548 351.955 538.887 349.305C558.653 347.838 580.45 329.944 588.877 321.18Z" fill="#FF715C"/>
<path d="M493.187 294.555L556.269 306.23L508.097 334.5C502.256 340.645 498.794 363.868 514.214 378.124C533.489 395.944 567.951 370.136 541.083 352.316" stroke="#002B51" stroke-width="4"/>
<path d="M346.884 369.125C291.543 348.114 301.571 293.389 325.008 288.503L364.089 363.332C364.845 362.648 364.974 362.496 364.244 363.628L364.089 363.332C363.214 364.125 361.497 365.631 359.301 366.682C354.193 369.125 352.419 370.346 346.884 369.125Z" fill="#FF715C"/>
<path d="M388.125 332.237C385.616 330.608 379.674 327.838 375.97 329.793" stroke="#002B51" stroke-width="4"/>
<path d="M347.003 366.945C354.459 368.788 375.42 360.251 380.342 357.817C388.975 354.896 389.24 338.75 388.294 331.041C395.564 327.634 391.323 322.725 388.294 320.696C374.663 307.552 354.216 322.116 345.697 331.041C340.206 330.027 329.226 323.009 329.226 303.049" stroke="#002B51" stroke-width="4"/>
<path d="M525.744 89.4351L526.917 99.9186" stroke="#FFC43D" stroke-width="3" stroke-linecap="round"/>
<path d="M552.87 95.1194L547.175 103.39" stroke="#74CADD" stroke-width="3" stroke-linecap="round"/>
<path d="M566.17 114.139L555.463 117.13" stroke="#FFC43D" stroke-width="3" stroke-linecap="round"/>
<rect width="22.3081" height="30.3639" rx="11" transform="matrix(0.9217 0.387903 -0.404851 0.914383 510.671 138.361)" fill="#74CADD"/>
<ellipse rx="24.3361" ry="23.5076" transform="matrix(0.921701 0.387901 -0.404853 0.914382 526.901 129.253)" fill="#FFC43D"/>
<path d="M512.895 144.609C518.371 135.58 524.834 111.383 513.845 113.665C496.665 117.232 532.709 137.988 534.788 125.305C536.552 114.544 524.527 114.454 523.224 122.406C521.921 130.357 541.203 139.522 546.188 135.776C551.172 132.03 546.736 122.528 541.883 125.465C531.554 131.715 527.061 142.248 524.577 149.526" stroke="#002B51" stroke-width="2" stroke-linecap="round"/>
<path d="M509.651 150.682C510.448 151.876 513.84 154.916 521.033 157.531" stroke="#002B51" stroke-width="2" stroke-linecap="round"/>
<path d="M506.875 156.952C507.512 158.507 510.603 162.227 517.873 164.669" stroke="#002B51" stroke-width="2" stroke-linecap="round"/>
<rect x="83.3548" y="186.994" width="166.347" height="122.804" rx="6" fill="#74CADD" stroke="#74CADD" stroke-width="5"/>
<rect x="78.4382" y="179.21" width="166.347" height="122.804" rx="6" fill="white" stroke="#002B51" stroke-width="5"/>
<path d="M233.723 186.994L223.07 196.507M223.07 186.994L233.723 196.507" stroke="#002B51" stroke-width="2" stroke-linecap="round"/>
<rect x="95.6465" y="200.83" width="95.875" height="39.7817" rx="19.8909" fill="#FFC43D"/>
<rect x="95.6465" y="245.801" width="95.875" height="6.91856" rx="3.45928" fill="#74CADD"/>
<rect x="95.6465" y="257.909" width="95.875" height="6.91856" rx="3.45928" fill="#74CADD"/>
<rect x="137.569" y="211.569" width="165.228" height="128.191" rx="18" fill="#002B51"/>
<rect x="131.78" y="205.474" width="165.228" height="128.191" rx="18" fill="#74CADD"/>
<path d="M163.933 295.019C172.986 274.605 194.185 241.827 206.554 274.022C222.015 314.266 234.132 278.834 237.475 274.022C240.818 269.21 258.368 209.719 280.932 276.647" stroke="white" stroke-width="3" stroke-linecap="round"/>
<path d="M163.933 301.617C172.751 292.885 193.578 278.706 206.343 291.849C222.299 308.278 233.637 292.737 237.416 287.852C241.195 282.968 244.554 280.748 253.792 282.524C264.145 284.515 275.627 253.218 276.467 247.89" stroke="#002B51" stroke-width="3" stroke-linecap="round"/>
<ellipse cx="259.497" cy="245.062" rx="4.46563" ry="4.71291" fill="#FF715C"/>
<path d="M151.429 290.306L157.617 294.077V301.617L151.429 305.388L145.241 301.617V294.077L151.429 290.306Z" fill="#002B51"/>
<path d="M151.284 264.729L158.429 272.269L151.284 279.81L144.139 272.269L151.284 264.729Z" fill="white"/>
<ellipse cx="151.256" cy="247.972" rx="6.02255" ry="6.35604" fill="#FF715C"/>
<line y1="-1" x2="136.876" y2="-1" transform="matrix(1 0.000202619 -0.000181915 1 147.424 314.422)" stroke="#F3F3F3" stroke-width="2"/>
<g filter="url(#filter0_d_383_465)">
<rect x="17" width="111" height="80" rx="18" fill="white"/>
<path d="M126.243 54.5367L106.607 77.2966C106.265 77.6932 106.287 78.2866 106.657 78.6569L126.293 98.2929C126.923 98.9229 128 98.4767 128 97.5858V55.1899C128 54.2631 126.848 53.835 126.243 54.5367Z" fill="white"/>
</g>
<g filter="url(#filter1_d_383_465)">
<rect width="86" height="61.982" rx="13.9459" transform="matrix(-1 0 0 1 336 44)" fill="white"/>
<path d="M251.361 86.2538L266.575 103.888C266.84 104.195 266.823 104.655 266.536 104.942L251.323 120.155C250.835 120.643 250 120.297 250 119.607V86.7599C250 86.0418 250.892 85.7101 251.361 86.2538Z" fill="white"/>
</g>
<circle cx="70.2659" cy="41.2659" r="27.2659" fill="#FFC43D"/>
<path d="M58.7302 30.7786L66.5954 34.449L58.7302 37.0707" stroke="#002B51" stroke-width="2.19907" stroke-linecap="round"/>
<path d="M83.8989 30.7786L77.6067 33.8372L83.8989 36.022" stroke="#002B51" stroke-width="2.19907" stroke-linecap="round"/>
<path d="M65.5468 41.2656C67.4693 43.1882 72.4681 45.8799 77.0823 41.2656" stroke="#002B51" stroke-width="2.19907" stroke-linecap="round"/>
<circle cx="293" cy="74" r="22" fill="#74CADD"/>
<line x1="289.656" y1="62.1126" x2="295.497" y2="62.1126" stroke="#002B51" stroke-width="1.77436" stroke-linecap="round"/>
<line x1="293.041" y1="63.0412" x2="293.041" y2="66.3438" stroke="#002B51" stroke-width="1.77436" stroke-linecap="round"/>
<line x1="304.041" y1="63.0412" x2="304.041" y2="66.3438" stroke="#002B51" stroke-width="1.77436" stroke-linecap="round"/>
<line x1="301.503" y1="62.1126" x2="307.344" y2="62.1126" stroke="#002B51" stroke-width="1.77436" stroke-linecap="round"/>
<line x1="295.579" y1="68.8824" x2="301.421" y2="68.8824" stroke="#002B51" stroke-width="1.77436" stroke-linecap="round"/>
<defs>
<filter id="filter0_d_383_465" x="13" y="0" width="119" height="106.588" filterUnits="userSpaceOnUse" color-interpolation-filters="sRGB">
<feFlood flood-opacity="0" result="BackgroundImageFix"/>
<feColorMatrix in="SourceAlpha" type="matrix" values="0 0 0 0 0 0 0 0 0 0 0 0 0 0 0 0 0 0 127 0" result="hardAlpha"/>
<feOffset dy="4"/>
<feGaussianBlur stdDeviation="2"/>
<feComposite in2="hardAlpha" operator="out"/>
<feColorMatrix type="matrix" values="0 0 0 0 0 0 0 0 0 0 0 0 0 0 0 0 0 0 0.25 0"/>
<feBlend mode="normal" in2="BackgroundImageFix" result="effect1_dropShadow_383_465"/>
<feBlend mode="normal" in="SourceGraphic" in2="effect1_dropShadow_383_465" result="shape"/>
</filter>
<filter id="filter1_d_383_465" x="246.901" y="44" width="92.1982" height="82.5817" filterUnits="userSpaceOnUse" color-interpolation-filters="sRGB">
<feFlood flood-opacity="0" result="BackgroundImageFix"/>
<feColorMatrix in="SourceAlpha" type="matrix" values="0 0 0 0 0 0 0 0 0 0 0 0 0 0 0 0 0 0 127 0" result="hardAlpha"/>
<feOffset dy="3.0991"/>
<feGaussianBlur stdDeviation="1.54955"/>
<feComposite in2="hardAlpha" operator="out"/>
<feColorMatrix type="matrix" values="0 0 0 0 0 0 0 0 0 0 0 0 0 0 0 0 0 0 0.25 0"/>
<feBlend mode="normal" in2="BackgroundImageFix" result="effect1_dropShadow_383_465"/>
<feBlend mode="normal" in="SourceGraphic" in2="effect1_dropShadow_383_465" result="shape"/>
</filter>
</defs>
</svg>
