<svg width="524" height="346" viewBox="0 0 524 346" fill="none" xmlns="http://www.w3.org/2000/svg">
<path d="M468.5 2L469 11" stroke="#FFC43D" stroke-width="3" stroke-linecap="round"/>
<path d="M490.5 4L486.536 12.746" stroke="#74CADD" stroke-width="3" stroke-linecap="round"/>
<path d="M505.5 20L496.166 24.5105" stroke="#FFC43D" stroke-width="3" stroke-linecap="round"/>
<path d="M345.793 244.5H0C0 259.204 9.33524 262.624 14.0029 262.497H331.401C345.093 262.19 346.701 250.371 345.793 244.5Z" fill="#002B51"/>
<path d="M14 63.5V240.5C14 247.68 19.8203 253.5 27 253.5H318C325.18 253.5 331 247.68 331 240.5V63.5C331 56.3203 325.18 50.5 318 50.5H27C19.8203 50.5 14 56.3203 14 63.5Z" fill="#002B51"/>
<path d="M322 66.5H22V244.5H322V66.5Z" fill="white"/>
<path d="M141.895 251.5L138 245.5H171.5H205L201.494 251.5H141.895Z" fill="#74CADD"/>
<circle cx="383.357" cy="169.104" r="100.426" fill="#FF715C"/>
<path d="M362.666 134.283C362.666 132.054 364.474 130.246 366.703 130.246C368.933 130.246 370.741 132.054 370.741 134.283V144.376C370.741 146.606 368.933 148.414 366.703 148.414C364.474 148.414 362.666 146.606 362.666 144.376V134.283Z" fill="#002B51"/>
<path d="M317.247 134.788C317.247 132.837 318.829 131.255 320.78 131.255C322.731 131.255 324.312 132.837 324.312 134.788V144.881C324.312 146.832 322.731 148.414 320.78 148.414C318.829 148.414 317.247 146.832 317.247 144.881V134.788Z" fill="#002B51"/>
<path d="M338.947 199.434C336.761 198.089 331.58 195.801 328.35 197.416" stroke="#002B51" stroke-width="4"/>
<path d="M363.814 168.095C363.814 175.222 356.33 181.739 346.073 181.739C335.815 181.739 328.331 175.222 328.331 168.095C328.331 160.968 335.815 154.451 346.073 154.451C356.33 154.451 363.814 160.968 363.814 168.095Z" stroke="#002B51" stroke-width="4"/>
<path d="M361.422 174.259C351.513 157.731 333.78 165.244 328.043 171.755C325.957 158.232 339.17 156.061 342.647 155.727C359.11 153.4 366.116 165.244 361.422 174.259Z" fill="#002B51"/>
<path d="M313 125.5C316.429 120.83 324.314 117.094 331 125.5" stroke="#002B51" stroke-width="4" stroke-linecap="round"/>
<path d="M358 116.03C362.78 113.296 373.878 113.72 379 121.5" stroke="#002B51" stroke-width="4" stroke-linecap="round"/>
<path d="M463 345.5L434.043 255.5L368 266.239L381.717 333.227C373.995 332.409 369.355 341.068 368 345.5H463Z" fill="#FF715C"/>
<path d="M399 262.5L414 332.352C410.29 333.533 406.742 337.414 406.742 344.5" stroke="#002B51" stroke-width="4"/>
<path d="M513.43 191.496C546.295 157.148 494.727 144.52 464.835 142.5L457.32 176.848L479.865 180.383L448.303 207.154C435.077 219.681 442.792 232.241 448.303 236.956C463.533 250.695 475.69 239.65 479.865 232.41C483.371 222.813 476.525 216.92 469.845 214.731C487.079 213.519 506.083 198.736 513.43 191.496Z" fill="#FF715C"/>
<path d="M430 169.5L485 179.145L443 202.5C437.907 207.576 434.889 226.762 448.333 238.539C465.139 253.26 495.185 231.939 471.759 217.218" stroke="#002B51" stroke-width="4"/>
<path d="M302.442 231.104C254.191 213.747 262.934 168.537 283.368 164.5L317.442 226.319C318.101 225.754 318.214 225.628 317.577 226.563L317.442 226.319C316.679 226.973 315.182 228.218 313.267 229.086C308.813 231.104 307.267 232.113 302.442 231.104Z" fill="#FF715C"/>
<path d="M302.5 229.287C309 230.809 327.276 223.756 331.567 221.746C339.094 219.332 339.326 205.993 338.5 199.625C344.839 196.81 341.141 192.755 338.5 191.079C326.616 180.22 308.789 192.252 301.361 199.625C296.574 198.788 287 192.989 287 176.5" stroke="#002B51" stroke-width="4"/>
<rect x="458.422" y="51.6621" width="20.6995" height="29.1674" rx="10.3497" transform="rotate(14.0338 458.422 51.6621)" fill="#74CADD"/>
<circle cx="471.885" cy="40.4797" r="22.5812" transform="rotate(14.0338 471.885 40.4797)" fill="#FFC43D"/>
<path d="M461.389 57.253C465.039 47.8207 467.32 23.8218 457.622 27.7015C442.46 33.7671 478.5 47.8754 478.5 35.5C478.5 25 467.5 26.7875 467.5 34.5463C467.5 42.305 486.49 48.01 490.483 43.674C494.477 39.338 489 31 485.006 34.5463C476.505 42.0948 473.977 52.8026 472.799 60.105" stroke="#002B51" stroke-width="2" stroke-linecap="round"/>
<path d="M459.335 63.5283C460.242 64.5381 463.797 66.8987 470.759 68.2632" stroke="#002B51" stroke-width="2" stroke-linecap="round"/>
<path d="M457.738 69.9177C458.553 71.296 461.934 74.3494 468.941 75.537" stroke="#002B51" stroke-width="2" stroke-linecap="round"/>
<rect x="72.6754" y="90.9756" width="145.035" height="101.453" rx="6" fill="#74CADD" stroke="#74CADD" stroke-width="5"/>
<rect x="68.3887" y="84.5454" width="145.035" height="101.453" rx="6" fill="white" stroke="#002B51" stroke-width="5"/>
<path d="M203.778 90.9756L194.49 98.8346M194.49 90.9756L203.778 98.8346" stroke="#002B51" stroke-width="2" stroke-linecap="round"/>
<rect x="83.3923" y="102.407" width="83.5915" height="32.865" rx="16.4325" fill="#FFC43D"/>
<rect x="83.3923" y="139.559" width="83.5915" height="5.71566" rx="2.85783" fill="#74CADD"/>
<rect x="83.3923" y="149.561" width="83.5915" height="5.71566" rx="2.85783" fill="#74CADD"/>
<rect x="119.943" y="111.277" width="144.059" height="105.903" rx="18" fill="#002B51"/>
<rect x="114.897" y="106.242" width="144.059" height="105.903" rx="18" fill="#74CADD"/>
<path d="M142.93 180.218C150.823 163.354 169.306 136.274 180.09 162.872C193.57 196.119 204.135 166.847 207.05 162.872C209.965 158.896 225.266 109.749 244.939 165.04" stroke="white" stroke-width="3" stroke-linecap="round"/>
<path d="M142.93 185.669C150.618 178.455 168.777 166.741 179.906 177.599C193.818 191.171 203.703 178.333 206.998 174.297C210.293 170.262 213.222 168.428 221.276 169.896C230.303 171.54 240.314 145.685 241.046 141.283" stroke="#002B51" stroke-width="3" stroke-linecap="round"/>
<circle cx="226.251" cy="138.947" r="3.8935" fill="#FF715C"/>
<path d="M132.028 176.325L137.423 179.439V185.669L132.028 188.784L126.633 185.669V179.439L132.028 176.325Z" fill="#002B51"/>
<path d="M131.901 155.194L138.131 161.424L131.901 167.653L125.672 161.424L131.901 155.194Z" fill="white"/>
<circle cx="131.877" cy="141.351" r="5.25094" fill="#FF715C"/>
<line x1="128.536" y1="195.247" x2="247.876" y2="195.27" stroke="#F3F3F3" stroke-width="2"/>
</svg>
