<svg width="1000" height="464" viewBox="0 0 1000 464" fill="none" xmlns="http://www.w3.org/2000/svg">
<path d="M890.664 11.6667L891.269 22.5649" stroke="#FFC43D" stroke-width="3" stroke-linecap="round"/>
<path d="M917.303 14.0886L912.503 24.6792" stroke="#74CADD" stroke-width="3" stroke-linecap="round"/>
<path d="M935.467 33.4634L924.164 38.9252" stroke="#FFC43D" stroke-width="3" stroke-linecap="round"/>
<circle cx="787.564" cy="214.014" r="121.606" fill="#74CADD"/>
<path d="M762.509 171.849C762.509 169.149 764.698 166.96 767.398 166.96V166.96C770.098 166.96 772.287 169.149 772.287 171.849V184.071C772.287 186.771 770.098 188.96 767.398 188.96V188.96C764.698 188.96 762.509 186.771 762.509 184.071V171.849Z" fill="#002B51"/>
<path d="M707.511 172.46C707.511 170.098 709.427 168.183 711.789 168.183V168.183C714.152 168.183 716.067 170.098 716.067 172.46V184.682C716.067 187.045 714.152 188.96 711.789 188.96V188.96C709.427 188.96 707.511 187.045 707.511 184.682V172.46Z" fill="#002B51"/>
<path d="M733.788 250.74C731.14 249.111 724.866 246.341 720.955 248.296" stroke="#002B51" stroke-width="4"/>
<path d="M764.321 212.791C764.321 221.74 754.972 229.735 742.416 229.735C729.859 229.735 720.51 221.74 720.51 212.791C720.51 203.842 729.859 195.848 742.416 195.848C754.972 195.848 764.321 203.842 764.321 212.791Z" stroke="#002B51" stroke-width="4"/>
<path d="M761.003 220.256C749.003 200.242 727.531 209.339 720.584 217.223C718.058 200.848 734.057 198.22 738.267 197.816C758.202 194.998 766.687 209.339 761.003 220.256Z" fill="#002B51"/>
<path d="M702.368 161.213C706.52 155.558 716.069 151.033 724.165 161.213" stroke="#002B51" stroke-width="4" stroke-linecap="round"/>
<path d="M756.859 149.747C762.648 146.435 776.086 146.949 782.288 156.37" stroke="#002B51" stroke-width="4" stroke-linecap="round"/>
<path d="M884.004 427.612L848.939 318.631L768.968 331.634L785.577 412.751C776.227 411.76 770.608 422.246 768.968 427.612H884.004Z" fill="#74CADD"/>
<path d="M806.506 327.107L824.669 411.691C820.177 413.121 815.881 417.82 815.881 426.401" stroke="#002B51" stroke-width="4"/>
<path d="M945.07 241.128C984.865 199.536 922.422 184.245 886.226 181.799L877.126 223.39L904.425 227.672L866.207 260.089C850.191 275.258 859.534 290.467 866.207 296.176C884.649 312.812 899.37 299.438 904.425 290.671C908.672 279.05 900.381 271.914 892.292 269.264C913.161 267.796 936.172 249.895 945.07 241.128Z" fill="#74CADD"/>
<path d="M844.044 214.493L910.644 226.172L859.786 254.452C853.619 260.599 849.964 283.831 866.244 298.092C886.594 315.918 922.977 290.101 894.61 272.274" stroke="#002B51" stroke-width="4"/>
<path d="M689.583 289.09C631.156 268.071 641.743 213.326 666.487 208.438L707.748 283.295C708.546 282.611 708.682 282.458 707.911 283.591L707.748 283.295C706.823 284.088 705.011 285.595 702.692 286.646C697.299 289.09 695.426 290.312 689.583 289.09Z" fill="#74CADD"/>
<path d="M689.654 286.889C697.525 288.733 719.655 280.193 724.852 277.758C733.966 274.836 734.246 258.683 733.247 250.972C740.922 247.563 736.445 242.653 733.247 240.624C718.856 227.474 697.269 242.044 688.274 250.972C682.478 249.958 670.885 242.937 670.885 222.97" stroke="#002B51" stroke-width="4"/>
<rect x="878.46" y="71.8027" width="25.065" height="35.3189" rx="11" transform="rotate(14.0338 878.46 71.8027)" fill="#74CADD"/>
<circle cx="894.763" cy="58.2622" r="27.3437" transform="rotate(14.0338 894.763 58.2622)" fill="#FFC43D"/>
<path d="M882.052 78.572C886.473 67.1503 889.235 38.09 877.492 42.788C859.131 50.1328 902.915 67.9325 904.296 53.0108C905.677 38.0892 888.683 42.6493 888.683 52.0443C888.684 61.4394 912.448 67.3795 917.283 62.1291C922.119 56.8786 915.134 45.4354 910.651 51.0763C902.085 61.8534 897.296 73.1829 895.869 82.0254" stroke="#002B51" stroke-width="2" stroke-linecap="round"/>
<path d="M879.566 86.1716C880.664 87.3943 884.968 90.2528 893.4 91.9051" stroke="#002B51" stroke-width="2" stroke-linecap="round"/>
<path d="M877.632 93.9082C878.619 95.5771 882.713 99.2745 891.198 100.713" stroke="#002B51" stroke-width="2" stroke-linecap="round"/>
<path d="M531.879 388.905H60C60 408.97 72.7391 413.638 79.1087 413.463H512.24C530.924 413.045 533.118 396.917 531.879 388.905Z" fill="#002B51"/>
<path d="M79.1047 137.167V388.187C79.1047 395.366 84.925 401.187 92.1047 401.187H498.692C505.872 401.187 511.692 395.366 511.692 388.187V137.167C511.692 129.987 505.872 124.167 498.692 124.167H92.1047C84.925 124.167 79.1047 129.987 79.1047 137.167Z" fill="#002B51"/>
<path d="M499.411 146.001H90.022V388.905H499.411V146.001Z" fill="white"/>
<path d="M253.635 398.457L248.319 390.269H294.034H339.749L334.965 398.457H253.635Z" fill="#74CADD"/>
<rect x="159.175" y="179.4" width="197.919" height="138.446" rx="6" fill="#74CADD" stroke="#74CADD" stroke-width="5"/>
<rect x="153.325" y="170.626" width="197.919" height="138.446" rx="6" fill="white" stroke="#002B51" stroke-width="5"/>
<path d="M338.082 179.4L325.407 190.125M325.407 179.4L338.082 190.125" stroke="#002B51" stroke-width="2" stroke-linecap="round"/>
<rect x="173.799" y="195" width="114.071" height="44.8486" rx="22.4243" fill="#FFC43D"/>
<rect x="173.799" y="245.699" width="114.071" height="7.79976" rx="3.89988" fill="#74CADD"/>
<rect x="173.799" y="259.349" width="114.071" height="7.79976" rx="3.89988" fill="#74CADD"/>
<rect x="223.678" y="207.105" width="196.588" height="144.519" rx="18" fill="#002B51"/>
<rect x="216.792" y="200.233" width="196.588" height="144.519" rx="18" fill="#74CADD"/>
<path d="M255.046 301.184C265.818 278.17 291.041 241.217 305.757 277.513C324.152 322.883 338.569 282.937 342.547 277.513C346.524 272.088 367.405 205.019 394.251 280.471" stroke="white" stroke-width="3" stroke-linecap="round"/>
<path d="M255.046 308.623C265.538 298.778 290.318 282.793 305.506 297.61C324.49 316.132 337.979 298.611 342.476 293.105C346.972 287.599 350.969 285.096 361.96 287.098C374.278 289.342 387.939 254.06 388.938 248.053" stroke="#002B51" stroke-width="3" stroke-linecap="round"/>
<circle cx="368.748" cy="244.864" r="5.31318" fill="#FF715C"/>
<path d="M240.169 295.871L247.531 300.122V308.623L240.169 312.873L232.807 308.623V300.122L240.169 295.871Z" fill="#002B51"/>
<path d="M239.996 267.036L248.498 275.537L239.996 284.038L231.495 275.537L239.996 267.036Z" fill="white"/>
<circle cx="239.964" cy="248.144" r="7.16559" fill="#FF715C"/>
<line x1="235.404" y1="322.058" x2="398.258" y2="322.089" stroke="#F3F3F3" stroke-width="2"/>
<g filter="url(#filter0_d_437_795)">
<rect x="65.8333" width="92.5" height="66.6667" rx="18" fill="white"/>
<path d="M156.576 45.7867L140.607 64.2966C140.265 64.6932 140.287 65.2866 140.657 65.6569L156.626 81.6262C157.256 82.2562 158.333 81.81 158.333 80.9191V46.4399C158.333 45.5131 157.182 45.085 156.576 45.7867Z" fill="white"/>
</g>
<circle cx="110.222" cy="34.3883" r="22.7216" fill="#FFC43D"/>
<path d="M100.608 25.6489L107.163 28.7076L100.608 30.8924" stroke="#002B51" stroke-width="2.19907" stroke-linecap="round"/>
<path d="M121.583 25.6489L116.339 28.1978L121.583 30.0185" stroke="#002B51" stroke-width="2.19907" stroke-linecap="round"/>
<path d="M106.289 34.3879C107.891 35.9901 112.057 38.2331 115.902 34.3879" stroke="#002B51" stroke-width="2.19907" stroke-linecap="round"/>
<g filter="url(#filter1_d_437_795)">
<rect width="71.6667" height="51.6517" rx="13.9459" transform="matrix(-1 0 0 1 331.667 36.6667)" fill="white"/>
<path d="M261.361 72.1412L273.734 86.4822C273.999 86.7895 273.982 87.2492 273.695 87.5362L261.323 99.9088C260.834 100.397 260 100.051 260 99.3609V72.6473C260 71.9293 260.892 71.5975 261.361 72.1412Z" fill="white"/>
</g>
<circle cx="295.833" cy="61.6666" r="18.3333" fill="#74CADD"/>
<line x1="293.195" y1="51.6126" x2="297.767" y2="51.6126" stroke="#002B51" stroke-width="1.77436" stroke-linecap="round"/>
<line x1="296.015" y1="52.6821" x2="296.015" y2="55.1385" stroke="#002B51" stroke-width="1.77436" stroke-linecap="round"/>
<line x1="305.182" y1="52.6821" x2="305.182" y2="55.1385" stroke="#002B51" stroke-width="1.77436" stroke-linecap="round"/>
<line x1="303.067" y1="51.6126" x2="307.639" y2="51.6126" stroke="#002B51" stroke-width="1.77436" stroke-linecap="round"/>
<line x1="298.131" y1="57.2542" x2="302.703" y2="57.2542" stroke="#002B51" stroke-width="1.77436" stroke-linecap="round"/>
<defs>
<filter id="filter0_d_437_795" x="61.8333" y="0" width="100.5" height="89.9211" filterUnits="userSpaceOnUse" color-interpolation-filters="sRGB">
<feFlood flood-opacity="0" result="BackgroundImageFix"/>
<feColorMatrix in="SourceAlpha" type="matrix" values="0 0 0 0 0 0 0 0 0 0 0 0 0 0 0 0 0 0 127 0" result="hardAlpha"/>
<feOffset dy="4"/>
<feGaussianBlur stdDeviation="2"/>
<feComposite in2="hardAlpha" operator="out"/>
<feColorMatrix type="matrix" values="0 0 0 0 0 0 0 0 0 0 0 0 0 0 0 0 0 0 0.25 0"/>
<feBlend mode="normal" in2="BackgroundImageFix" result="effect1_dropShadow_437_795"/>
<feBlend mode="normal" in="SourceGraphic" in2="effect1_dropShadow_437_795" result="shape"/>
</filter>
<filter id="filter1_d_437_795" x="256.901" y="36.6667" width="77.8649" height="69.6687" filterUnits="userSpaceOnUse" color-interpolation-filters="sRGB">
<feFlood flood-opacity="0" result="BackgroundImageFix"/>
<feColorMatrix in="SourceAlpha" type="matrix" values="0 0 0 0 0 0 0 0 0 0 0 0 0 0 0 0 0 0 127 0" result="hardAlpha"/>
<feOffset dy="3.0991"/>
<feGaussianBlur stdDeviation="1.54955"/>
<feComposite in2="hardAlpha" operator="out"/>
<feColorMatrix type="matrix" values="0 0 0 0 0 0 0 0 0 0 0 0 0 0 0 0 0 0 0.25 0"/>
<feBlend mode="normal" in2="BackgroundImageFix" result="effect1_dropShadow_437_795"/>
<feBlend mode="normal" in="SourceGraphic" in2="effect1_dropShadow_437_795" result="shape"/>
</filter>
</defs>
</svg>
