<svg width="504" height="356" viewBox="0 0 504 356" fill="none" xmlns="http://www.w3.org/2000/svg">
<path d="M298.778 251.763H17.8596C17.8596 263.708 25.4435 266.487 29.2354 266.383H287.086C298.209 266.134 299.515 256.532 298.778 251.763Z" fill="#002B51"/>
<path d="M29.2329 101.899V251.335C29.2329 255.609 32.6978 259.074 36.972 259.074H279.021C283.295 259.074 286.76 255.609 286.76 251.335V101.899C286.76 97.6244 283.295 94.1594 279.021 94.1594H36.972C32.6978 94.1594 29.2329 97.6243 29.2329 101.899Z" fill="#002B51"/>
<path d="M279.449 107.158H35.7322V251.763H279.449V107.158Z" fill="white"/>
<path d="M133.134 257.449L129.969 252.575H157.184H184.399L181.551 257.449H133.134Z" fill="#74CADD"/>
<rect x="76.9001" y="127.041" width="117.825" height="82.4192" rx="3.57191" fill="#74CADD" stroke="#74CADD" stroke-width="2.97659"/>
<rect x="73.4177" y="121.818" width="117.825" height="82.4192" rx="3.57191" fill="white" stroke="#002B51" stroke-width="2.97659"/>
<path d="M183.407 127.041L175.861 133.426M175.861 127.041L183.407 133.426" stroke="#002B51" stroke-width="1.19064" stroke-linecap="round"/>
<rect x="85.6062" y="136.328" width="67.9088" height="26.6992" rx="13.3496" fill="#FFC43D"/>
<rect x="85.6062" y="166.51" width="67.9088" height="4.64333" rx="2.32167" fill="#74CADD"/>
<rect x="85.6062" y="174.636" width="67.9088" height="4.64333" rx="2.32167" fill="#74CADD"/>
<rect x="115.3" y="143.535" width="117.032" height="86.0344" rx="10.7157" fill="#002B51"/>
<rect x="111.2" y="139.443" width="117.032" height="86.0344" rx="10.7157" fill="#74CADD"/>
<path d="M133.974 199.541C140.387 185.841 155.402 163.842 164.163 185.449C175.114 212.459 183.697 188.679 186.064 185.449C188.432 182.22 200.863 142.293 216.845 187.211" stroke="white" stroke-width="1.78595" stroke-linecap="round"/>
<path d="M133.974 203.969C140.22 198.109 154.972 188.592 164.013 197.413C175.315 208.44 183.345 198.009 186.022 194.731C188.699 191.453 191.078 189.963 197.622 191.155C204.955 192.491 213.087 171.487 213.682 167.911" stroke="#002B51" stroke-width="1.78595" stroke-linecap="round"/>
<circle cx="201.663" cy="166.013" r="3.16303" fill="#FF715C"/>
<path d="M125.117 196.378L129.5 198.909V203.97L125.117 206.5L120.735 203.97V198.909L125.117 196.378Z" fill="#002B51"/>
<path d="M125.015 179.212L130.076 184.273L125.015 189.334L119.954 184.273L125.015 179.212Z" fill="white"/>
<circle cx="124.995" cy="167.966" r="4.26581" fill="#FF715C"/>
<line x1="122.281" y1="211.968" x2="219.231" y2="211.986" stroke="#F3F3F3" stroke-width="1.19064"/>
<g filter="url(#filter0_d_442_796)">
<rect x="21.3323" y="20.2407" width="55.0669" height="39.6878" rx="10.7157" fill="white"/>
<path d="M75.353 47.4984L65.8461 58.5176C65.6425 58.7537 65.6555 59.107 65.8759 59.3275L75.3828 68.8343C75.7578 69.2093 76.399 68.9437 76.399 68.4133V47.8873C76.399 47.3355 75.7134 47.0806 75.353 47.4984Z" fill="white"/>
</g>
<circle cx="47.7573" cy="40.7129" r="13.5266" fill="#FFC43D"/>
<path d="M42.0344 35.51L45.9363 37.3309L42.0344 38.6315" stroke="#002B51" stroke-width="1.30915" stroke-linecap="round"/>
<path d="M54.5208 35.51L51.3992 37.0274L54.5208 38.1113" stroke="#002B51" stroke-width="1.30915" stroke-linecap="round"/>
<path d="M45.4163 40.7126C46.3701 41.6664 48.8499 43.0018 51.139 40.7126" stroke="#002B51" stroke-width="1.30915" stroke-linecap="round"/>
<g filter="url(#filter1_d_442_796)">
<rect width="42.6644" height="30.7491" rx="8.30227" transform="matrix(-1 0 0 1 179.588 42.0691)" fill="white"/>
<path d="M137.734 63.1877L145.099 71.7251C145.257 71.9081 145.247 72.1818 145.076 72.3526L137.711 79.7182C137.42 80.0088 136.923 79.803 136.923 79.3921V63.489C136.923 63.0615 137.454 62.864 137.734 63.1877Z" fill="white"/>
</g>
<circle cx="158.255" cy="56.952" r="10.9142" fill="#74CADD"/>
<line x1="156.685" y1="50.9667" x2="159.406" y2="50.9667" stroke="#002B51" stroke-width="1.05631" stroke-linecap="round"/>
<line x1="158.364" y1="51.6033" x2="158.364" y2="53.0657" stroke="#002B51" stroke-width="1.05631" stroke-linecap="round"/>
<line x1="163.821" y1="51.6033" x2="163.821" y2="53.0657" stroke="#002B51" stroke-width="1.05631" stroke-linecap="round"/>
<line x1="162.562" y1="50.9667" x2="165.283" y2="50.9667" stroke="#002B51" stroke-width="1.05631" stroke-linecap="round"/>
<line x1="159.623" y1="54.3251" x2="162.345" y2="54.3251" stroke="#002B51" stroke-width="1.05631" stroke-linecap="round"/>
<path d="M443.751 14.8831L444.216 23.243" stroke="#FFC43D" stroke-width="1.78595" stroke-linecap="round"/>
<path d="M464.187 16.7407L460.504 24.8648" stroke="#74CADD" stroke-width="1.78595" stroke-linecap="round"/>
<path d="M478.12 31.6031L469.449 35.7928" stroke="#FFC43D" stroke-width="1.78595" stroke-linecap="round"/>
<circle cx="364.664" cy="170.103" r="93.284" fill="#74CADD"/>
<path d="M345.444 137.758C345.444 135.687 347.123 134.008 349.194 134.008V134.008C351.266 134.008 352.945 135.687 352.945 137.758V147.134C352.945 149.205 351.266 150.884 349.194 150.884V150.884C347.123 150.884 345.444 149.205 345.444 147.134V137.758Z" fill="#002B51"/>
<path d="M303.256 138.228C303.256 136.415 304.725 134.946 306.537 134.946V134.946C308.349 134.946 309.819 136.415 309.819 138.228V147.603C309.819 149.415 308.349 150.884 306.537 150.884V150.884C304.725 150.884 303.256 149.415 303.256 147.603V138.228Z" fill="#002B51"/>
<path d="M323.413 198.276C321.381 197.026 316.569 194.901 313.569 196.401" stroke="#002B51" stroke-width="2.38127"/>
<path d="M347.178 169.165C347.178 176.29 339.774 182.506 330.031 182.506C320.288 182.506 312.884 176.29 312.884 169.165C312.884 162.041 320.288 155.824 330.031 155.824C339.774 155.824 347.178 162.041 347.178 169.165Z" stroke="#002B51" stroke-width="2.38127"/>
<path d="M344.289 174.892C335.084 159.539 318.612 166.517 313.283 172.565C311.346 160.004 323.619 157.988 326.848 157.678C342.141 155.516 348.649 166.517 344.289 174.892Z" fill="#002B51"/>
<path d="M299.311 129.599C302.495 125.261 309.82 121.791 316.03 129.599" stroke="#002B51" stroke-width="2.38127" stroke-linecap="round"/>
<path d="M341.11 120.804C345.551 118.264 355.859 118.658 360.617 125.884" stroke="#002B51" stroke-width="2.38127" stroke-linecap="round"/>
<path d="M438.643 333.954L411.745 250.354L350.399 260.329L363.14 322.554C355.967 321.794 351.657 329.837 350.399 333.954H438.643Z" fill="#74CADD"/>
<path d="M379.194 256.856L393.127 321.741C389.681 322.838 386.385 326.442 386.385 333.025" stroke="#002B51" stroke-width="2.38127"/>
<path d="M485.486 190.902C516.014 158.997 468.113 147.268 440.347 145.391L433.367 177.296L454.308 180.58L424.991 205.447C412.705 217.083 419.872 228.75 424.991 233.129C439.137 245.891 450.43 235.631 454.308 228.906C457.565 219.992 451.205 214.518 445.001 212.485C461.009 211.359 478.661 197.627 485.486 190.902Z" fill="#74CADD"/>
<path d="M407.99 170.47L459.078 179.429L420.065 201.123C415.335 205.839 412.531 223.659 425.019 234.599C440.629 248.274 468.539 228.469 446.779 214.795" stroke="#002B51" stroke-width="2.38127"/>
<path d="M289.503 227.693C244.684 211.57 252.805 169.576 271.786 165.826L303.437 223.248C304.049 222.724 304.154 222.607 303.562 223.475L303.437 223.248C302.728 223.857 301.337 225.013 299.559 225.819C295.422 227.693 293.985 228.631 289.503 227.693Z" fill="#74CADD"/>
<path d="M289.557 226.006C295.595 227.42 312.571 220.869 316.558 219.001C323.549 216.759 323.764 204.369 322.997 198.454C328.885 195.839 325.45 192.072 322.997 190.515C311.958 180.429 295.399 191.605 288.499 198.454C284.053 197.676 275.16 192.29 275.16 176.973" stroke="#002B51" stroke-width="2.38127"/>
<rect x="434.39" y="61.0132" width="19.2273" height="27.0931" rx="6.54849" transform="rotate(14.0338 434.39 61.0132)" fill="#74CADD"/>
<circle cx="446.896" cy="50.626" r="20.9753" transform="rotate(14.0338 446.896 50.626)" fill="#FFC43D"/>
<path d="M437.146 66.2058C440.537 57.4443 442.656 35.1522 433.647 38.756C419.563 44.3902 453.149 58.0443 454.209 46.5979C455.268 35.1515 442.232 38.6496 442.232 45.8565C442.233 53.0635 460.462 57.6201 464.171 53.5925C467.881 49.5649 462.523 40.7868 459.084 45.114C452.513 53.381 448.839 62.0719 447.744 68.855" stroke="#002B51" stroke-width="1.19064" stroke-linecap="round"/>
<path d="M435.239 72.0354C436.081 72.9733 439.383 75.1661 445.85 76.4335" stroke="#002B51" stroke-width="1.19064" stroke-linecap="round"/>
<path d="M433.755 77.9702C434.512 79.2504 437.653 82.0867 444.161 83.1899" stroke="#002B51" stroke-width="1.19064" stroke-linecap="round"/>
<defs>
<filter id="filter0_d_442_796" x="18.951" y="20.2407" width="59.8294" height="53.5316" filterUnits="userSpaceOnUse" color-interpolation-filters="sRGB">
<feFlood flood-opacity="0" result="BackgroundImageFix"/>
<feColorMatrix in="SourceAlpha" type="matrix" values="0 0 0 0 0 0 0 0 0 0 0 0 0 0 0 0 0 0 127 0" result="hardAlpha"/>
<feOffset dy="2.38127"/>
<feGaussianBlur stdDeviation="1.19064"/>
<feComposite in2="hardAlpha" operator="out"/>
<feColorMatrix type="matrix" values="0 0 0 0 0 0 0 0 0 0 0 0 0 0 0 0 0 0 0.25 0"/>
<feBlend mode="normal" in2="BackgroundImageFix" result="effect1_dropShadow_442_796"/>
<feBlend mode="normal" in="SourceGraphic" in2="effect1_dropShadow_442_796" result="shape"/>
</filter>
<filter id="filter1_d_442_796" x="135.078" y="42.0691" width="46.3544" height="41.4751" filterUnits="userSpaceOnUse" color-interpolation-filters="sRGB">
<feFlood flood-opacity="0" result="BackgroundImageFix"/>
<feColorMatrix in="SourceAlpha" type="matrix" values="0 0 0 0 0 0 0 0 0 0 0 0 0 0 0 0 0 0 127 0" result="hardAlpha"/>
<feOffset dy="1.84495"/>
<feGaussianBlur stdDeviation="0.922474"/>
<feComposite in2="hardAlpha" operator="out"/>
<feColorMatrix type="matrix" values="0 0 0 0 0 0 0 0 0 0 0 0 0 0 0 0 0 0 0.25 0"/>
<feBlend mode="normal" in2="BackgroundImageFix" result="effect1_dropShadow_442_796"/>
<feBlend mode="normal" in="SourceGraphic" in2="effect1_dropShadow_442_796" result="shape"/>
</filter>
</defs>
</svg>
