<svg width="460" height="298" viewBox="0 0 460 298" fill="none" xmlns="http://www.w3.org/2000/svg">
<path d="M12.1229 138.677C43.978 132.315 195.29 85.1258 266.964 62.3268L341.824 132.315L187.326 253.203C163.116 251.93 145.384 224.041 139.543 210.256C120.43 208.135 97.1915 208.665 82.2042 195.94C76.1369 190.788 76.4858 167.308 56.7201 165.718C42.083 164.54 -27.696 146.63 12.1229 138.677Z" fill="#74CADD"/>
<rect x="151.922" y="30.1896" width="187.954" height="182.111" rx="91.0556" fill="#FF715C"/>
<rect x="259.046" y="78.8823" width="13.634" height="22.3987" rx="6.81699" fill="#002B51"/>
<rect x="301.895" y="81.804" width="12.6601" height="23.3725" rx="6.33007" fill="#002B51"/>
<path d="M311.943 121.859C286.86 119.582 268.036 114.921 255.023 111.682C244.613 131.117 260.812 144.417 274.763 146.153C301.813 149.518 307.605 132.116 311.943 121.859Z" fill="#002B51"/>
<path d="M266.18 138.365C270.842 133.653 282.677 127.306 292.71 139.613C288.851 142.866 274.283 145.683 266.18 138.365Z" fill="#FF715C"/>
<path d="M114.594 78.8937L155.33 107.611L188.474 82.9822L152.902 58.4512L169.32 42.0972C180.265 51.637 189.842 44.8229 195.314 32.5574C200.787 20.2919 196.682 10.7521 184.369 2.57513C174.519 -3.96646 159.287 3.48368 152.902 8.02645L115.962 44.8229C100.639 60.0866 108.666 73.8966 114.594 78.8937Z" fill="#FF715C"/>
<path d="M193.348 27.7423C193.61 28.5283 194.46 28.953 195.246 28.691C196.031 28.4291 196.456 27.5796 196.194 26.7937L193.348 27.7423ZM187.283 19.8449C189.153 20.7797 191.996 23.6844 193.348 27.7423L196.194 26.7937C194.625 22.0869 191.3 18.4993 188.625 17.1617L187.283 19.8449Z" fill="#002B51"/>
<path d="M189.453 36.507C189.715 37.2929 190.564 37.7176 191.35 37.4557C192.136 37.1937 192.561 36.3442 192.299 35.5583L189.453 36.507ZM183.388 28.6096C185.257 29.5443 188.1 32.449 189.453 36.507L192.299 35.5583C190.73 30.8515 187.405 27.2639 184.73 25.9263L183.388 28.6096Z" fill="#002B51"/>
<path d="M169.451 32.6241C170.749 34.0849 174.125 37.1039 177.242 37.4934" stroke="#002B51" stroke-width="3" stroke-linecap="round"/>
<path d="M172.859 36.0327C170.425 36.0327 167.99 38.9543 168.477 40.902" stroke="#002B51" stroke-width="3" stroke-linecap="round"/>
<path d="M431.17 78.6448L331.838 115.173L324.294 165.556L441.229 117.692C460.341 122.73 460.928 102.157 458.833 91.2406C463.862 70.0797 442.487 74.0264 431.17 78.6448Z" fill="#FF715C"/>
<path d="M444.078 83.2646C443.104 85.0501 439.209 88.2313 431.418 86.6731" stroke="#002B51" stroke-width="3" stroke-linecap="round"/>
<path d="M434.34 87.1602C438.722 87.6471 440.67 91.5425 441.157 97.8726C441.157 99.9826 440.816 102.669 437.748 104.203C434.827 105.663 431.613 104.787 430.444 101.281C429.146 104.852 421.582 112.48 415.35 106.637" stroke="#002B51" stroke-width="3" stroke-linecap="round"/>
<path d="M457.225 90.0817C455.278 92.354 450.116 96.217 443.104 95.4379" stroke="#002B51" stroke-width="3" stroke-linecap="round"/>
<path d="M457.712 103.229C456.089 105.176 450.408 107.027 442.618 104.69" stroke="#002B51" stroke-width="3" stroke-linecap="round"/>
<path d="M439.158 108.098C438.022 110.208 437.016 114.818 442.08 116.376" stroke="#002B51" stroke-width="3" stroke-linecap="round"/>
<path d="M66.2222 204.51C94.3128 202.419 162.645 182.572 190.389 161.66L222.281 177.754C199.392 212.26 119.898 235.289 81.3169 244.438C83.3977 256.985 70.9906 262.275 66.2222 261.404V204.51Z" fill="#FF715C"/>
<path d="M226.422 239.569L242.49 190.876L275.114 204.51C275.114 247.38 255.15 261.404 237.887 271.86L209.866 281.444L184.567 288.851C179.189 298 172.429 298 166.36 298L172.859 254.176L226.422 239.569Z" fill="#FF715C"/>
</svg>
