<svg width="79" height="79" viewBox="0 0 79 79" fill="none" xmlns="http://www.w3.org/2000/svg">
<rect width="78.9593" height="78.9593" fill="white"/>
<circle cx="36.8948" cy="43.7951" r="21.513" fill="#74CADD"/>
<path d="M70.8628 35.8692C70.8628 47.7505 60.9777 57.3822 48.7837 57.3822C36.5897 57.3822 26.7046 47.7505 26.7046 35.8692C26.7046 23.988 36.5897 14.3563 48.7837 14.3563C60.9777 14.3563 70.8628 23.988 70.8628 35.8692Z" fill="#FF715C"/>
<path d="M29.5347 50.5886C34.2379 52.5989 38.8988 50.1166 39.725 45.6328" stroke="#002B51" stroke-width="2.20833" stroke-linecap="round"/>
<path d="M21.3101 44.4124C22.4322 45.7564 25.2508 44.9337 25.22 42.8757" stroke="#002B51" stroke-width="2.20833" stroke-linecap="round"/>
<path d="M33.6862 35.8572C33.1915 35.0877 33.4143 34.063 34.1837 33.5683L34.7133 33.2278C35.4827 32.7332 36.5075 32.9559 37.0022 33.7254L38.8373 36.5799C39.332 37.3494 39.1092 38.3741 38.3398 38.8688L37.8102 39.2093C37.0408 39.7039 36.016 39.4812 35.5214 38.7117L33.6862 35.8572Z" fill="#002B51"/>
</svg>
