<svg width="608" height="428" viewBox="0 0 608 428" fill="none" xmlns="http://www.w3.org/2000/svg">
<g filter="url(#filter0_d_246_726)">
<rect x="4" width="600" height="420" rx="9.23687" fill="url(#paint0_linear_246_726)"/>
</g>
<g filter="url(#filter1_d_246_726)">
<rect x="15.7856" y="11.938" width="577.5" height="396.124" rx="10.9126" fill="white"/>
</g>
<path d="M447.551 200.675C447.602 205.503 448.499 210.025 450.525 210.025C451.3 210.025 451.595 209.526 451.727 207.764C451.513 207.693 451.228 207.509 451.055 207.336C450.994 208.691 450.882 209.231 450.587 209.231C449.344 209.231 448.346 205.33 448.366 200.675H447.551ZM448.977 201.154C449.609 201.449 450.352 201.928 450.719 202.274L451.188 201.735C450.811 201.398 450.057 200.95 449.425 200.685L448.977 201.154ZM450.312 203.761C449.507 206.328 448.04 208.284 445.922 209.424C446.085 209.567 446.39 209.872 446.502 210.025C448.641 208.742 450.179 206.695 451.065 203.945L450.312 203.761ZM442.622 202.274V203.028H451.473V202.274H442.622ZM442.571 208.538L442.714 209.322C443.905 209.068 445.576 208.701 447.134 208.355L447.073 207.622C445.413 207.978 443.681 208.324 442.571 208.538ZM443.915 204.597H445.993V206.379H443.915V204.597ZM443.213 203.935V207.031H446.747V203.935H443.213Z" fill="#5F5F5F"/>
<path d="M418.654 76.0566V76.755H421.716V76.0566H418.654ZM418.538 79.1994V79.8978H421.821V79.1994H418.538ZM418.538 80.7592V81.4576H421.821V80.7592H418.538ZM417.933 77.5931V78.3264H422.437V77.5931H417.933ZM422.6 77.9306V78.7571H428.42V77.9306H422.6ZM422.263 85.1475V85.9739H428.642V85.1475H422.263ZM422.798 81.3645V82.1793H428.246V81.3645H422.798ZM418.911 82.3189V83.0057H421.087V84.903H418.911V85.5898H421.914V82.3189H418.911ZM418.468 82.3189V86.1602H419.271V82.3189H418.468ZM425.01 75.6608V78.3264H425.883V75.6608H425.01ZM425.01 78.21V85.5782H425.883V78.21H425.01ZM430.714 76.3476V86.3697H431.575V77.2089H438.85V76.3476H430.714ZM438.396 76.3476V85.2872C438.396 85.4385 438.349 85.4967 438.21 85.4967C438.082 85.4967 437.639 85.5083 437.162 85.485C437.29 85.7178 437.418 86.1136 437.442 86.3464C438.128 86.3464 438.582 86.3231 438.873 86.1718C439.176 86.0205 439.269 85.7644 439.269 85.2988V76.3476H438.396ZM429.573 80.5613V81.411H440.305V80.5613H429.573ZM433.239 76.6386V86.2184H434.054V76.6386H433.239ZM435.8 76.6386V86.2184H436.627V76.6386H435.8ZM443.04 75.6492V86.3464H443.797V75.6492H443.04ZM441.516 77.8491V83.9486H442.191V78.629H445.054V77.8491H441.516ZM444.693 77.8491V82.9591C444.693 83.0523 444.67 83.0755 444.6 83.0872C444.507 83.0872 444.286 83.0872 444.007 83.0755C444.111 83.2851 444.228 83.6226 444.239 83.8438C444.647 83.8438 444.914 83.8205 445.124 83.6808C445.322 83.5412 445.368 83.2967 445.368 82.9824V77.8491H444.693ZM446.754 76.1381V76.8597H451.351V76.1381H446.754ZM446.765 77.756V78.4428H450.979V77.756H446.765ZM446.765 79.3624V80.0491H450.979V79.3624H446.765ZM445.508 80.9571V81.702H451.864V80.9571H445.508ZM445.264 85.4036L445.45 86.2067C446.544 86.0088 448.011 85.7528 449.431 85.4967L449.373 84.7634C447.859 85.0078 446.3 85.2639 445.264 85.4036ZM448.872 81.1899L448.15 81.3063C448.628 83.7274 449.629 85.52 451.514 86.3464C451.631 86.1136 451.899 85.7644 452.085 85.5898C450.292 84.9263 449.303 83.2967 448.872 81.1899ZM451.247 81.9697C450.735 82.4819 449.827 83.1687 449.21 83.5761L449.71 84.0766C450.35 83.6692 451.212 83.0755 451.84 82.4935L451.247 81.9697ZM446.393 76.1381V81.3295H447.219V76.1381H446.393ZM446.381 81.2946V85.5665L447.208 85.4618V81.2946H446.381ZM454.18 76.8015H455.914V78.5708H454.18V76.8015ZM453.388 76.0682V79.3158H456.741V76.0682H453.388ZM452.853 80.1306V80.8988H457.241V80.1306H452.853ZM453.947 80.4798C453.773 81.3645 453.505 82.5285 453.272 83.2734L454.064 83.4247C454.273 82.6565 454.552 81.4459 454.75 80.4798H453.947ZM454.04 81.9348L453.842 82.6798H456.205V81.9348H454.04ZM455.879 81.9348V82.0745C455.74 84.3676 455.565 85.2639 455.332 85.4967C455.239 85.6014 455.123 85.6247 454.948 85.6131C454.762 85.6131 454.308 85.6131 453.808 85.5665C453.947 85.776 454.04 86.1136 454.052 86.3348C454.541 86.3581 455.018 86.3581 455.274 86.3464C455.588 86.3115 455.786 86.2417 455.984 86.0321C456.31 85.6829 456.485 84.7284 456.671 82.2957C456.683 82.1676 456.694 81.9348 456.694 81.9348H455.879ZM460.268 76.4291V77.1507H463.05V76.4291H460.268ZM457.928 77.9423V78.6523H463.061V77.9423H457.928ZM459.849 75.6259V78.3147H460.687V75.6259H459.849ZM457.556 77.9423V80.9221C457.556 82.4237 457.451 84.4491 456.438 85.9274C456.636 86.0088 456.962 86.2533 457.102 86.4046C458.184 84.8565 458.347 82.5517 458.347 80.9221V77.9423H457.556ZM458.627 79.8629L458.708 80.5031L462.153 80.1306L462.072 79.5253L458.627 79.8629ZM459.895 78.7338V80.8174C459.895 81.5623 460.105 81.7486 460.943 81.7486C461.117 81.7486 462.049 81.7486 462.223 81.7486C462.852 81.7486 463.073 81.5158 463.143 80.6195C462.933 80.5729 462.631 80.4682 462.468 80.3634C462.433 81.0153 462.386 81.0967 462.13 81.0967C461.932 81.0967 461.187 81.0967 461.048 81.0967C460.722 81.0967 460.675 81.0618 460.675 80.8174V78.7338H459.895ZM462.817 77.9423V78.0587C462.747 78.6756 462.607 79.4671 462.491 79.956L463.166 80.119C463.306 79.5952 463.492 78.7571 463.632 78.047L463.085 77.9073L462.945 77.9423H462.817ZM459.29 82.2607C459.22 83.9718 458.964 85.1009 457.695 85.7528C457.87 85.8924 458.103 86.1835 458.207 86.3813C459.628 85.6014 459.965 84.2396 460.047 82.2607H459.29ZM461.001 82.2491V85.1009C461.001 85.6364 461.048 85.811 461.234 85.9739C461.408 86.1136 461.676 86.1602 461.932 86.1602C462.06 86.1602 462.444 86.1602 462.596 86.1602C462.817 86.1602 463.073 86.1136 463.213 86.0438C463.387 85.939 463.515 85.811 463.585 85.5898C463.643 85.3919 463.702 84.8099 463.713 84.2628C463.492 84.193 463.201 84.0417 463.05 83.902C463.05 84.4258 463.038 84.8798 463.003 85.066C462.98 85.194 462.922 85.2755 462.852 85.3104C462.794 85.3454 462.642 85.3686 462.538 85.3686C462.398 85.3686 462.212 85.3686 462.119 85.3686C462.002 85.3686 461.909 85.3454 461.839 85.3104C461.781 85.2872 461.758 85.2057 461.758 85.1242V82.2491H461.001Z" fill="black"/>
<rect x="339.357" y="109.612" width="216.03" height="32.4813" rx="5.09254" fill="#156DBA"/>
<rect x="339.831" y="154.752" width="216.03" height="32.4813" rx="5.09254" fill="#F34747"/>
<rect x="339.831" y="232.536" width="216.03" height="32.4813" rx="5.09254" fill="#EAEAEA"/>
<rect x="339.831" y="276.984" width="216.03" height="32.4813" rx="5.09254" fill="#EAEAEA"/>
<rect x="339.831" y="335.963" width="216.03" height="32.4813" rx="5.09254" fill="#FF3666"/>
<path d="M360.194 118.751V120.735H353.018V118.751H360.194ZM354.986 131.449V117.279C354.986 116.486 355.159 115.827 355.507 115.303C355.854 114.774 356.314 114.38 356.887 114.121C357.46 113.857 358.083 113.724 358.756 113.724C359.252 113.724 359.676 113.766 360.029 113.848C360.381 113.925 360.643 113.997 360.814 114.063L360.235 116.064C360.12 116.031 359.971 115.992 359.789 115.948C359.607 115.899 359.387 115.874 359.128 115.874C358.527 115.874 358.097 116.023 357.838 116.32C357.584 116.618 357.458 117.048 357.458 117.61V131.449H354.986Z" fill="white"/>
<path d="M359.947 168.194C359.827 167.818 359.666 167.481 359.463 167.183C359.265 166.881 359.027 166.625 358.75 166.414C358.473 166.199 358.157 166.036 357.801 165.924C357.45 165.813 357.063 165.757 356.642 165.757C355.927 165.757 355.282 165.941 354.707 166.309C354.133 166.677 353.678 167.216 353.343 167.927C353.013 168.634 352.847 169.5 352.847 170.525C352.847 171.554 353.015 172.424 353.349 173.135C353.684 173.846 354.143 174.386 354.726 174.754C355.309 175.122 355.972 175.305 356.716 175.305C357.407 175.305 358.008 175.165 358.521 174.884C359.037 174.603 359.436 174.206 359.717 173.693C360.002 173.177 360.145 172.569 360.145 171.871L360.641 171.964H357.008V170.382H361.999V171.827C361.999 172.894 361.772 173.819 361.317 174.605C360.866 175.386 360.242 175.99 359.444 176.415C358.651 176.841 357.741 177.054 356.716 177.054C355.567 177.054 354.559 176.789 353.69 176.26C352.827 175.731 352.153 174.981 351.669 174.01C351.186 173.034 350.944 171.877 350.944 170.537C350.944 169.525 351.084 168.615 351.365 167.809C351.646 167.003 352.041 166.319 352.55 165.757C353.062 165.191 353.664 164.759 354.354 164.461C355.048 164.159 355.807 164.008 356.629 164.008C357.316 164.008 357.954 164.11 358.545 164.312C359.141 164.515 359.67 164.802 360.133 165.174C360.6 165.546 360.986 165.988 361.292 166.501C361.598 167.009 361.805 167.574 361.912 168.194H359.947Z" fill="white"/>
<path d="M358.142 245.991V246.622H360.963V245.991H358.142ZM357.49 248.771V249.321H359.16V248.771H357.49ZM357.49 250.166V250.747H359.16V250.166H357.49ZM360.016 247.63V251.215H360.576V247.63H360.016ZM359.558 244.137C360.128 245.053 361.136 246.062 362.073 246.663C362.185 246.449 362.338 246.174 362.491 245.991C361.533 245.481 360.505 244.463 359.873 243.424H359.181C358.702 244.391 357.714 245.502 356.696 246.123C356.818 246.286 356.991 246.551 357.072 246.744C358.101 246.082 359.048 245.033 359.558 244.137ZM357.144 247.406V252.723H357.704V247.987H359.048V247.406H357.144ZM358.875 247.406V252.091C358.875 252.173 358.845 252.203 358.773 252.203C358.702 252.203 358.498 252.203 358.264 252.203C358.325 252.356 358.407 252.601 358.427 252.753C358.794 252.753 359.038 252.743 359.221 252.652C359.384 252.54 359.435 252.377 359.435 252.102V247.406H358.875ZM361.381 247.243V252C361.381 252.112 361.34 252.142 361.228 252.152C361.116 252.163 360.739 252.163 360.311 252.152C360.393 252.315 360.484 252.57 360.505 252.723C361.106 252.723 361.472 252.723 361.717 252.631C361.941 252.519 362.012 252.346 362.012 252.01V247.243H361.381ZM353.009 244.483V245.166H356.889V244.483H353.009ZM352.886 250.299V250.981H356.859V250.299H352.886ZM354.567 243.383V246.184H355.249V243.383H354.567ZM354.648 246.225V249.189H354.567V252.774H355.249V249.189H355.168V246.225H354.648ZM353.732 247.977H356.084V248.903H353.732V247.977ZM353.732 246.51H356.084V247.427H353.732V246.51ZM353.161 245.929V249.474H356.665V245.929H353.161ZM364.986 244.004V244.778H367.869V244.004H364.986ZM367.482 244.004C367.482 245.919 367.818 250.258 371.892 252.723C372.034 252.54 372.34 252.214 372.513 252.081C368.49 249.698 368.266 245.828 368.266 244.004H367.482ZM367.196 246.001C366.575 248.883 365.302 250.94 363.041 252.122C363.245 252.265 363.591 252.58 363.733 252.743C365.984 251.419 367.329 249.27 368.062 246.164L367.196 246.001ZM374.886 249.545V250.065H380.987V249.545H374.886ZM374.906 248.292V248.842H380.671V250.767H374.906V251.327H381.425V248.292H374.906ZM377.514 248.567V251.633C377.514 252.468 377.84 252.672 378.981 252.672C379.235 252.672 381.079 252.672 381.343 252.672C382.311 252.672 382.545 252.356 382.657 251.114C382.443 251.073 382.158 250.971 381.985 250.849C381.934 251.877 381.843 252.061 381.293 252.061C380.895 252.061 379.327 252.061 379.021 252.061C378.369 252.061 378.247 251.99 378.247 251.643V248.567H377.514ZM374.509 248.292V251.857H375.243V248.292H374.509ZM374.224 243.821V244.422H381.669V243.821H374.224ZM374.856 246.153V246.642H377.015V246.153H374.856ZM374.652 247.203V247.681H377.025V247.203H374.652ZM378.828 247.203V247.681H381.272V247.203H378.828ZM378.828 246.153V246.642H381.028V246.153H378.828ZM377.544 244.055V247.946H378.288V244.055H377.544ZM373.633 245.043V247.029H374.326V245.603H381.557V247.029H382.28V245.043H373.633ZM383.523 247.936V248.7H392.771V247.936H383.523ZM387.76 246.296V251.765C387.76 251.949 387.689 252 387.475 252.01C387.251 252.02 386.497 252.02 385.672 251.99C385.805 252.214 385.947 252.56 386.008 252.784C386.986 252.784 387.648 252.764 388.025 252.641C388.412 252.519 388.554 252.285 388.554 251.776V246.296H387.76ZM384.572 244.096V244.85H391.223V244.096H384.572ZM390.958 244.096V244.269C390.317 244.992 388.962 245.96 387.852 246.49C388.005 246.622 388.239 246.866 388.351 247.04C389.542 246.428 390.989 245.42 391.916 244.483L391.335 244.055L391.162 244.096H390.958ZM393.881 245.583V246.245H399.065V245.583H393.881ZM393.841 249.403V250.044H399.045V249.403H393.841ZM393.627 247.478V248.129H399.178V247.478H393.627ZM393.647 251.653L393.749 252.387C395.165 252.203 397.222 251.939 399.147 251.674L399.137 251.002C397.151 251.256 395.012 251.511 393.647 251.653ZM398.597 243.505C397.446 243.821 395.44 244.066 393.759 244.188C393.841 244.351 393.922 244.616 393.953 244.789C395.653 244.687 397.721 244.463 399.055 244.116L398.597 243.505ZM399.503 243.923V252.764H400.216V244.616H402.406V243.923H399.503ZM396.051 244.137V251.755L396.753 251.684V244.137H396.051ZM394.533 245.807V249.708H395.144V245.807H394.533ZM397.691 245.807V249.688H398.302V245.807H397.691ZM402.223 243.923V244.167C401.938 244.962 401.439 246.357 400.97 247.416C401.897 248.333 402.162 249.097 402.162 249.739C402.162 250.105 402.09 250.411 401.887 250.543C401.775 250.615 401.612 250.645 401.449 250.655C401.245 250.665 400.95 250.665 400.634 250.635C400.766 250.849 400.848 251.175 400.858 251.378C401.164 251.399 401.51 251.409 401.775 251.378C402.029 251.338 402.253 251.277 402.416 251.154C402.763 250.92 402.895 250.431 402.895 249.8C402.895 249.097 402.671 248.282 401.744 247.325C402.182 246.357 402.661 245.186 403.027 244.228L402.488 243.892L402.355 243.923H402.223ZM409.566 243.516V252.753H410.33V243.516H409.566ZM407.804 243.903C407.57 245.227 407.142 246.541 406.552 247.396C406.745 247.478 407.061 247.661 407.214 247.773C407.794 246.866 408.263 245.471 408.538 244.045L407.804 243.903ZM407.906 245.471L407.713 246.225H412.663V245.471H407.906ZM406.633 248.465V249.219H413.111V248.465H406.633ZM406.134 243.424C405.594 244.972 404.688 246.5 403.73 247.488C403.873 247.671 404.097 248.068 404.168 248.241C405.227 247.091 406.215 245.369 406.857 243.648L406.134 243.424ZM405.105 246.052V252.743H405.839V245.339L405.828 245.328L405.105 246.052Z" fill="#616161"/>
<path d="M358.142 290.438V291.07H360.963V290.438H358.142ZM357.49 293.219V293.769H359.16V293.219H357.49ZM357.49 294.614V295.195H359.16V294.614H357.49ZM360.016 292.078V295.663H360.576V292.078H360.016ZM359.558 288.585C360.128 289.501 361.136 290.51 362.073 291.111C362.185 290.897 362.338 290.622 362.491 290.438C361.533 289.929 360.505 288.911 359.873 287.872H359.181C358.702 288.839 357.714 289.95 356.696 290.571C356.818 290.734 356.991 290.999 357.072 291.192C358.101 290.53 359.048 289.481 359.558 288.585ZM357.144 291.854V297.171H357.704V292.435H359.048V291.854H357.144ZM358.875 291.854V296.539C358.875 296.621 358.845 296.651 358.773 296.651C358.702 296.651 358.498 296.651 358.264 296.651C358.325 296.804 358.407 297.049 358.427 297.201C358.794 297.201 359.038 297.191 359.221 297.099C359.384 296.987 359.435 296.824 359.435 296.549V291.854H358.875ZM361.381 291.691V296.448C361.381 296.56 361.34 296.59 361.228 296.6C361.116 296.611 360.739 296.611 360.311 296.6C360.393 296.763 360.484 297.018 360.505 297.171C361.106 297.171 361.472 297.171 361.717 297.079C361.941 296.967 362.012 296.794 362.012 296.458V291.691H361.381ZM353.009 288.931V289.613H356.889V288.931H353.009ZM352.886 294.747V295.429H356.859V294.747H352.886ZM354.567 287.831V290.632H355.249V287.831H354.567ZM354.648 290.673V293.637H354.567V297.222H355.249V293.637H355.168V290.673H354.648ZM353.732 292.424H356.084V293.351H353.732V292.424ZM353.732 290.958H356.084V291.874H353.732V290.958ZM353.161 290.377V293.922H356.665V290.377H353.161ZM364.986 288.452V289.226H367.869V288.452H364.986ZM367.482 288.452C367.482 290.367 367.818 294.706 371.892 297.171C372.034 296.987 372.34 296.661 372.513 296.529C368.49 294.146 368.266 290.275 368.266 288.452H367.482ZM367.196 290.449C366.575 293.331 365.302 295.388 363.041 296.57C363.245 296.712 363.591 297.028 363.733 297.191C365.984 295.867 367.329 293.718 368.062 290.612L367.196 290.449ZM374.713 290.764C374.479 291.457 374.031 292.17 373.338 292.577L373.929 292.985C374.672 292.537 375.08 291.752 375.344 290.988L374.713 290.764ZM375.956 290.591V292.587C375.956 293.341 376.22 293.535 377.28 293.535C377.504 293.535 379.103 293.535 379.337 293.535C380.182 293.535 380.396 293.26 380.488 292.139C380.294 292.099 380.019 291.997 379.856 291.895C379.816 292.781 379.734 292.913 379.276 292.913C378.919 292.913 377.585 292.913 377.32 292.913C376.75 292.913 376.648 292.862 376.648 292.587V290.591H375.956ZM376.444 290C377.066 290.286 377.83 290.764 378.196 291.121L378.604 290.622C378.217 290.275 377.453 289.827 376.831 289.552L376.444 290ZM380.274 291.182C380.967 291.762 381.73 292.608 382.056 293.168L382.647 292.75C382.301 292.18 381.517 291.365 380.824 290.805L380.274 291.182ZM379.765 289.96C378.42 291.783 375.915 292.985 373.236 293.637C373.379 293.799 373.603 294.115 373.684 294.278C376.343 293.524 378.93 292.251 380.427 290.255L379.765 289.96ZM377.534 293.698V296.437H378.318V293.698H377.534ZM374.499 294.278V297.211H375.253V294.278H374.499ZM380.743 294.278V297.181H381.506V294.278H380.743ZM374.876 296.05V296.763H381.15V296.05H374.876ZM377.534 287.841V289.165H378.318V287.841H377.534ZM373.644 288.707V290.703H374.387V289.4H381.506V290.703H382.28V288.707H373.644ZM383.533 288.32V289.023H387.271V288.32H383.533ZM384.582 291.498V292.17H386.212V295.225H384.582V295.898H386.894V291.498H384.582ZM384.766 288.656C384.521 290.571 384.093 292.394 383.289 293.555C383.431 293.718 383.666 294.085 383.737 294.248C384.664 292.913 385.183 290.907 385.499 288.768L384.766 288.656ZM384.246 291.498V296.743H384.918V291.498H384.246ZM388.086 289.868V290.489H392.211V289.868H388.086ZM388.086 291.437V292.068H392.211V291.437H388.086ZM387.709 293.036V293.708H392.18V293.036H387.709ZM389.817 288.615V293.321H390.51V288.615H389.817ZM388.554 294.523C388.667 295.124 388.728 295.898 388.707 296.407L389.267 296.315C389.278 295.816 389.206 295.052 389.084 294.441L388.554 294.523ZM389.634 294.441C389.838 294.94 390.031 295.602 390.092 296.02L390.622 295.867C390.541 295.449 390.347 294.798 390.133 294.309L389.634 294.441ZM390.663 294.217C390.928 294.604 391.213 295.113 391.335 295.449L391.793 295.236C391.661 294.92 391.366 294.411 391.07 294.044L390.663 294.217ZM387.567 294.207C387.475 295.042 387.271 295.928 386.823 296.437L387.363 296.743C387.852 296.183 388.045 295.236 388.147 294.349L387.567 294.207ZM387.709 288.269V293.372H388.412V288.941H392.466V288.269H387.709ZM391.956 293.036V293.158C391.865 295.429 391.742 296.264 391.559 296.468C391.478 296.56 391.396 296.58 391.233 296.58C391.08 296.58 390.673 296.57 390.235 296.529C390.347 296.723 390.418 296.998 390.429 297.201C390.877 297.222 391.315 297.222 391.549 297.201C391.824 297.181 391.997 297.11 392.16 296.916C392.425 296.621 392.537 295.745 392.649 293.351C392.659 293.249 392.659 293.036 392.659 293.036H391.956ZM394.271 293.312C394.271 292.406 394.39 291.571 394.629 290.809C394.868 290.047 395.216 289.344 395.674 288.701H396.665C396.487 288.939 396.321 289.232 396.166 289.58C396.012 289.927 395.877 290.308 395.761 290.722C395.646 291.135 395.555 291.563 395.49 292.006C395.425 292.448 395.392 292.883 395.392 293.312C395.392 293.886 395.449 294.467 395.562 295.055C395.676 295.644 395.829 296.19 396.022 296.694C396.215 297.198 396.429 297.609 396.665 297.927H395.674C395.216 297.283 394.868 296.581 394.629 295.819C394.39 295.057 394.271 294.221 394.271 293.312ZM397.853 288.473V289.186H406.571V288.473H397.853ZM398.525 293.443V294.156H405.879V293.443H398.525ZM397.629 296.071V296.784H406.734V296.071H397.629ZM401.733 292.18V296.57H402.528V292.18H401.733ZM398.036 291.223L398.067 291.997C399.869 291.936 402.701 291.813 405.359 291.691L405.4 290.999C402.66 291.1 399.798 291.192 398.036 291.223ZM400.817 288.799C400.511 289.603 399.931 290.724 399.472 291.426L400.175 291.681C400.643 291.019 401.234 289.97 401.693 289.074L400.817 288.799ZM403.098 289.909C404.127 290.662 405.349 291.742 405.919 292.465L406.602 291.976C406.001 291.243 404.728 290.194 403.719 289.491L403.098 289.909ZM411.959 287.851V293.005C411.959 293.168 411.898 293.209 411.725 293.219C411.542 293.219 410.92 293.229 410.248 293.209C410.37 293.433 410.492 293.769 410.523 293.993C411.379 293.993 411.949 293.973 412.285 293.85C412.631 293.718 412.733 293.494 412.733 293.015V287.851H411.959ZM414.169 289.379C415.045 290.438 415.972 291.874 416.328 292.801L417.092 292.394C416.705 291.447 415.738 290.051 414.852 289.033L414.169 289.379ZM414.841 292.16C413.966 294.777 412.01 296.01 408.404 296.478C408.567 296.672 408.741 296.998 408.812 297.232C412.591 296.641 414.668 295.276 415.636 292.404L414.841 292.16ZM409.698 289.125C409.321 290.245 408.537 291.61 407.651 292.475C407.855 292.577 408.15 292.791 408.323 292.934C409.24 292.007 410.044 290.571 410.533 289.328L409.698 289.125ZM420.747 296.488C420.417 296.483 420.092 296.423 419.771 296.307C419.453 296.191 419.163 295.998 418.903 295.728C418.642 295.458 418.434 295.095 418.277 294.64C418.123 294.184 418.046 293.615 418.046 292.932C418.046 292.286 418.11 291.712 418.237 291.211C418.368 290.709 418.554 290.286 418.798 289.941C419.041 289.594 419.336 289.33 419.68 289.149C420.025 288.968 420.412 288.878 420.841 288.878C421.283 288.878 421.675 288.965 422.017 289.138C422.359 289.312 422.637 289.552 422.849 289.858C423.063 290.164 423.2 290.513 423.258 290.903H422.154C422.08 290.595 421.931 290.343 421.71 290.147C421.488 289.952 421.198 289.854 420.841 289.854C420.299 289.854 419.876 290.091 419.572 290.563C419.271 291.036 419.119 291.693 419.116 292.535H419.17C419.298 292.325 419.455 292.146 419.641 291.999C419.829 291.85 420.039 291.735 420.27 291.656C420.504 291.574 420.75 291.533 421.008 291.533C421.437 291.533 421.825 291.638 422.172 291.847C422.522 292.055 422.801 292.342 423.008 292.708C423.215 293.075 423.319 293.494 423.319 293.967C423.319 294.439 423.212 294.867 422.997 295.251C422.785 295.634 422.486 295.938 422.1 296.162C421.714 296.384 421.263 296.493 420.747 296.488ZM420.744 295.547C421.028 295.547 421.283 295.477 421.507 295.338C421.731 295.198 421.908 295.01 422.039 294.773C422.169 294.537 422.234 294.273 422.234 293.981C422.234 293.697 422.17 293.438 422.042 293.204C421.917 292.97 421.743 292.784 421.521 292.647C421.302 292.509 421.051 292.44 420.769 292.44C420.555 292.44 420.356 292.481 420.172 292.563C419.991 292.645 419.832 292.759 419.695 292.903C419.557 293.048 419.449 293.214 419.369 293.403C419.292 293.588 419.254 293.785 419.254 293.992C419.254 294.269 419.318 294.526 419.445 294.763C419.576 294.999 419.753 295.189 419.977 295.334C420.204 295.476 420.459 295.547 420.744 295.547ZM427.397 288.452V297.201H428.11V289.135H432.622V297.12H433.355V288.452H427.397ZM428.528 290.612V291.212H432.276V290.612H428.528ZM427.784 295.908V296.59H433.029V295.908H427.784ZM430.076 289.461V292.689H430.697V289.461H430.076ZM429.546 292.903H431.267V294.482H429.546V292.903ZM428.955 292.333V295.062H431.878V292.333H428.955ZM426.338 287.882C425.839 289.43 425.004 290.968 424.087 291.966C424.219 292.149 424.433 292.567 424.494 292.75C425.513 291.579 426.46 289.827 427.041 288.086L426.338 287.882ZM425.492 290.377V297.222H426.216V289.664L426.205 289.654L425.492 290.377ZM436.482 290.785V291.487H441.371V290.785H436.482ZM434.822 293.341V294.064H443.602V293.341H434.822ZM438.804 292.577V296.244C438.804 296.386 438.753 296.427 438.57 296.437C438.387 296.448 437.725 296.448 437.032 296.427C437.165 296.641 437.317 296.967 437.368 297.191C438.234 297.191 438.774 297.181 439.13 297.059C439.497 296.936 439.609 296.712 439.609 296.254V292.577H438.804ZM441.137 290.785V290.937C440.678 291.508 439.772 292.272 438.977 292.699C439.1 292.801 439.303 292.995 439.395 293.137C440.332 292.659 441.34 291.864 442.013 291.121L441.514 290.744L441.34 290.785H441.137ZM438.784 287.821V289.461H439.589V287.821H438.784ZM434.924 288.941V291.335H435.678V289.664H442.685V291.335H443.469V288.941H434.924ZM447.101 293.312C447.101 294.221 446.981 295.057 446.743 295.819C446.504 296.581 446.156 297.283 445.697 297.927H444.706C444.885 297.689 445.051 297.396 445.206 297.048C445.36 296.701 445.495 296.321 445.611 295.909C445.726 295.494 445.817 295.065 445.882 294.621C445.947 294.178 445.98 293.741 445.98 293.312C445.98 292.741 445.923 292.161 445.81 291.572C445.696 290.984 445.543 290.438 445.35 289.934C445.157 289.43 444.943 289.019 444.706 288.701H445.697C446.156 289.344 446.504 290.047 446.743 290.809C446.981 291.571 447.101 292.406 447.101 293.312Z" fill="#616161"/>
<path d="M437.071 347.188V347.799H439.75V347.188H437.071ZM436.969 349.938V350.549H439.841V349.938H436.969ZM436.969 351.302V351.913H439.841V351.302H436.969ZM436.44 348.532V349.174H440.381V348.532H436.44ZM440.524 348.827V349.551H445.616V348.827H440.524ZM440.228 355.142V355.865H445.81V355.142H440.228ZM440.697 351.832V352.545H445.463V351.832H440.697ZM437.295 352.667V353.268H439.2V354.928H437.295V355.529H439.923V352.667H437.295ZM436.908 352.667V356.028H437.611V352.667H436.908ZM442.632 346.841V349.174H443.396V346.841H442.632ZM442.632 349.072V355.519H443.396V349.072H442.632ZM447.623 347.442V356.212H448.376V348.196H454.742V347.442H447.623ZM454.345 347.442V355.264C454.345 355.397 454.304 355.448 454.182 355.448C454.07 355.448 453.683 355.458 453.265 355.438C453.377 355.641 453.489 355.988 453.51 356.191C454.111 356.191 454.508 356.171 454.762 356.038C455.027 355.906 455.109 355.682 455.109 355.275V347.442H454.345ZM446.625 351.129V351.873H456.015V351.129H446.625ZM449.833 347.697V356.079H450.546V347.697H449.833ZM452.074 347.697V356.079H452.797V347.697H452.074Z" fill="white"/>
<path d="M112.409 330.394V334.776C112.409 335.868 112.854 336.121 114.277 336.121C114.6 336.121 117.201 336.121 117.559 336.121C119 336.121 119.279 335.649 119.454 334.034C119.253 333.999 118.965 333.886 118.782 333.764C118.668 335.178 118.52 335.475 117.559 335.475C116.975 335.475 114.696 335.475 114.233 335.475C113.273 335.475 113.081 335.344 113.081 334.794V330.394H112.409ZM112.775 331.826V332.48H117.926V331.826H112.775ZM111.955 328.883V329.53H117.664V332.908H118.336V328.883H111.955ZM123.443 328.831V329.416H128.149V328.831H123.443ZM123.679 333.31V333.895H127.931V333.31H123.679ZM123.12 335.536V336.121H128.262V335.536H123.12ZM125.451 333.537V335.894H126.106V333.537H125.451ZM124.282 329.687C124.081 330.106 123.705 330.76 123.356 331.293C123.81 331.904 124.212 332.576 124.395 333.03L124.936 332.803C124.753 332.41 124.369 331.791 123.993 331.284C124.273 330.839 124.622 330.28 124.849 329.835L124.282 329.687ZM125.792 329.687C125.591 330.106 125.198 330.76 124.823 331.293C125.312 331.895 125.739 332.576 125.949 333.03L126.473 332.795C126.281 332.402 125.87 331.791 125.469 331.284C125.766 330.839 126.124 330.28 126.368 329.835L125.792 329.687ZM127.302 329.687C127.093 330.106 126.682 330.76 126.307 331.293C126.813 331.895 127.276 332.576 127.494 333.03L128.027 332.777C127.809 332.384 127.372 331.773 126.953 331.284C127.259 330.839 127.616 330.289 127.87 329.844L127.302 329.687ZM121.584 328.342C121.357 328.918 120.947 329.774 120.632 330.28L121.078 330.472C121.418 329.992 121.828 329.206 122.16 328.56L121.584 328.342ZM122.562 329.337C122.082 330.254 121.261 331.555 120.606 332.332L121.008 332.559C121.663 331.799 122.509 330.56 123.112 329.591L122.562 329.337ZM120.187 330.158C120.65 330.603 121.174 331.223 121.392 331.642L121.767 331.153C121.54 330.752 121.008 330.167 120.536 329.739L120.187 330.158ZM122.221 331.337C122.57 331.913 122.911 332.69 123.024 333.179L123.54 332.943C123.417 332.463 123.059 331.712 122.693 331.136L122.221 331.337ZM120.117 332.201L120.187 332.786C120.982 332.733 122.029 332.672 123.068 332.602V332.053C121.968 332.114 120.877 332.166 120.117 332.201ZM122.448 333.449C122.658 333.956 122.841 334.619 122.893 335.047L123.4 334.89C123.339 334.462 123.155 333.807 122.928 333.301L122.448 333.449ZM120.641 333.327C120.545 334.087 120.379 334.872 120.1 335.405C120.231 335.466 120.493 335.579 120.597 335.649C120.877 335.091 121.078 334.252 121.191 333.423L120.641 333.327ZM121.567 332.454V336.365H122.143V332.454H121.567ZM129.153 329.468V330.088H136.8V329.468H129.153ZM131.283 332.585V333.152H135.386V332.585H131.283ZM130.82 331.101V336.365H131.466V331.686H135.281V331.101H130.82ZM135.133 331.101V335.545C135.133 335.675 135.081 335.719 134.932 335.728C134.775 335.728 134.243 335.737 133.658 335.71C133.754 335.894 133.85 336.164 133.876 336.348C134.627 336.348 135.116 336.348 135.395 336.243C135.692 336.138 135.77 335.937 135.77 335.553V331.101H135.133ZM132.008 328.333C131.536 330.088 130.506 331.939 128.943 333.013C129.074 333.144 129.275 333.371 129.362 333.519C131.03 332.349 132.078 330.411 132.671 328.491L132.008 328.333ZM131.283 334.06V334.628H135.386V334.06H131.283ZM139.053 328.351V336.374H139.62V328.351H139.053ZM137.909 330.001V334.575H138.416V330.586H140.563V330.001H137.909ZM140.293 330.001V333.833C140.293 333.903 140.275 333.921 140.223 333.929C140.153 333.929 139.987 333.929 139.777 333.921C139.856 334.078 139.943 334.331 139.952 334.497C140.258 334.497 140.458 334.479 140.616 334.375C140.764 334.27 140.799 334.087 140.799 333.851V330.001H140.293ZM141.838 328.718V329.259H145.286V328.718H141.838ZM141.846 329.931V330.446H145.007V329.931H141.846ZM141.846 331.136V331.651H145.007V331.136H141.846ZM140.904 332.332V332.891H145.67V332.332H140.904ZM140.72 335.667L140.86 336.269C141.681 336.121 142.781 335.929 143.846 335.737L143.802 335.187C142.667 335.37 141.497 335.562 140.72 335.667ZM143.427 332.506L142.885 332.594C143.243 334.41 143.994 335.754 145.408 336.374C145.496 336.199 145.696 335.937 145.836 335.806C144.492 335.309 143.75 334.087 143.427 332.506ZM145.208 333.091C144.823 333.476 144.142 333.991 143.68 334.296L144.055 334.672C144.535 334.366 145.181 333.921 145.653 333.484L145.208 333.091ZM141.567 328.718V332.611H142.187V328.718H141.567ZM141.558 332.585V335.789L142.178 335.71V332.585H141.558ZM147.408 329.215H148.708V330.542H147.408V329.215ZM146.814 328.665V331.101H149.328V328.665H146.814ZM146.412 331.712V332.288H149.704V331.712H146.412ZM147.233 331.974C147.102 332.637 146.901 333.51 146.727 334.069L147.32 334.183C147.477 333.606 147.687 332.699 147.835 331.974H147.233ZM147.303 333.065L147.154 333.624H148.927V333.065H147.303ZM148.682 333.065V333.17C148.577 334.89 148.446 335.562 148.272 335.737C148.202 335.815 148.115 335.833 147.984 335.824C147.844 335.824 147.504 335.824 147.128 335.789C147.233 335.946 147.303 336.199 147.311 336.365C147.678 336.383 148.036 336.383 148.228 336.374C148.464 336.348 148.612 336.295 148.761 336.138C149.005 335.876 149.136 335.16 149.276 333.336C149.284 333.24 149.293 333.065 149.293 333.065H148.682ZM151.973 328.936V329.477H154.06V328.936H151.973ZM150.219 330.071V330.603H154.069V330.071H150.219ZM151.659 328.333V330.35H152.288V328.333H151.659ZM149.939 330.071V332.306C149.939 333.432 149.861 334.951 149.101 336.06C149.25 336.121 149.494 336.304 149.599 336.418C150.411 335.256 150.533 333.528 150.533 332.306V330.071H149.939ZM150.742 331.511L150.804 331.991L153.388 331.712L153.327 331.258L150.742 331.511ZM151.694 330.664V332.227C151.694 332.786 151.851 332.926 152.48 332.926C152.611 332.926 153.309 332.926 153.44 332.926C153.911 332.926 154.077 332.751 154.13 332.079C153.973 332.044 153.746 331.965 153.623 331.887C153.597 332.376 153.562 332.437 153.37 332.437C153.222 332.437 152.663 332.437 152.558 332.437C152.314 332.437 152.279 332.41 152.279 332.227V330.664H151.694ZM153.885 330.071V330.158C153.833 330.621 153.728 331.214 153.641 331.581L154.147 331.703C154.252 331.31 154.392 330.682 154.496 330.149L154.086 330.045L153.981 330.071H153.885ZM151.24 333.31C151.188 334.593 150.996 335.44 150.044 335.929C150.175 336.033 150.35 336.252 150.428 336.4C151.493 335.815 151.746 334.794 151.807 333.31H151.24ZM152.523 333.301V335.44C152.523 335.841 152.558 335.972 152.698 336.095C152.829 336.199 153.03 336.234 153.222 336.234C153.318 336.234 153.606 336.234 153.719 336.234C153.885 336.234 154.077 336.199 154.182 336.147C154.313 336.068 154.409 335.972 154.461 335.806C154.505 335.658 154.549 335.222 154.557 334.811C154.392 334.759 154.173 334.645 154.06 334.541C154.06 334.933 154.051 335.274 154.025 335.414C154.007 335.51 153.964 335.571 153.911 335.597C153.868 335.623 153.754 335.641 153.676 335.641C153.571 335.641 153.431 335.641 153.361 335.641C153.274 335.641 153.204 335.623 153.152 335.597C153.108 335.579 153.091 335.518 153.091 335.457V333.301H152.523ZM155.762 329.172V329.783H157.159V333.266H155.762V333.877H157.761V329.172H155.762ZM155.422 329.172V334.698H156.015V329.172H155.422ZM158.748 330.123V330.656H162.572V330.123H158.748ZM158.748 331.476V332.009H162.572V331.476H158.748ZM158.39 332.847V333.406H162.545V332.847H158.39ZM158.39 328.744V333.152H159.01V329.32H162.746V328.744H158.39ZM160.345 329.006V333.109H160.948V329.006H160.345ZM162.397 332.847V332.952C162.301 334.846 162.196 335.553 162.039 335.719C161.969 335.806 161.882 335.824 161.751 335.824C161.611 335.824 161.271 335.815 160.895 335.78C160.991 335.937 161.053 336.182 161.061 336.348C161.454 336.365 161.83 336.365 162.03 336.356C162.257 336.33 162.406 336.278 162.545 336.121C162.772 335.85 162.886 335.099 162.991 333.118C162.999 333.03 162.999 332.847 162.999 332.847H162.397ZM158.25 333.833C158.145 334.523 157.927 335.318 157.552 335.789L158.032 336.042C158.425 335.545 158.626 334.689 158.739 333.973L158.25 333.833ZM159.149 333.973C159.289 334.532 159.368 335.239 159.342 335.702L159.83 335.623C159.848 335.16 159.769 334.453 159.612 333.903L159.149 333.973ZM160.11 333.912C160.328 334.375 160.529 334.995 160.59 335.405L161.053 335.248C160.974 334.855 160.765 334.235 160.538 333.772L160.11 333.912ZM161.07 333.764C161.315 334.13 161.55 334.619 161.646 334.96L162.057 334.785C161.952 334.462 161.707 333.973 161.454 333.606L161.07 333.764ZM165.16 333.841V333.782C165.164 333.397 165.202 333.092 165.275 332.864C165.349 332.637 165.455 332.453 165.591 332.312C165.727 332.172 165.892 332.044 166.084 331.928C166.208 331.849 166.32 331.762 166.419 331.664C166.518 331.567 166.597 331.456 166.654 331.33C166.712 331.204 166.741 331.064 166.741 330.911C166.741 330.727 166.698 330.568 166.611 330.434C166.524 330.299 166.408 330.196 166.264 330.124C166.121 330.049 165.962 330.012 165.786 330.012C165.627 330.012 165.475 330.045 165.331 330.111C165.186 330.177 165.066 330.281 164.971 330.421C164.876 330.56 164.821 330.739 164.807 330.958H163.864C163.879 330.586 163.973 330.271 164.146 330.015C164.32 329.757 164.549 329.561 164.835 329.429C165.122 329.297 165.439 329.231 165.786 329.231C166.167 329.231 166.499 329.302 166.785 329.445C167.07 329.585 167.291 329.783 167.448 330.037C167.607 330.289 167.687 330.584 167.687 330.92C167.687 331.152 167.651 331.361 167.578 331.547C167.506 331.731 167.403 331.895 167.268 332.04C167.136 332.184 166.977 332.312 166.791 332.424C166.615 332.534 166.473 332.647 166.363 332.765C166.255 332.883 166.177 333.022 166.127 333.184C166.078 333.345 166.051 333.544 166.047 333.782V333.841H165.16ZM165.628 335.726C165.459 335.726 165.313 335.666 165.191 335.546C165.069 335.424 165.008 335.277 165.008 335.106C165.008 334.936 165.069 334.791 165.191 334.672C165.313 334.55 165.459 334.489 165.628 334.489C165.796 334.489 165.94 334.55 166.062 334.672C166.186 334.791 166.248 334.936 166.248 335.106C166.248 335.219 166.219 335.324 166.161 335.419C166.106 335.512 166.031 335.586 165.938 335.642C165.845 335.698 165.742 335.726 165.628 335.726ZM172.719 332.489V336.365H173.322V333.091H175.522V336.33H176.15V332.489H172.719ZM173.985 328.351V332.681H174.631V328.351H173.985ZM174.361 330.245V330.856H176.5V330.245H174.361ZM173.034 335.352V335.955H175.827V335.352H173.034ZM169.297 329.137H171.698V331.249H169.297V329.137ZM168.782 328.657V331.729H172.231V328.657H168.782ZM169.419 329.564C169.568 329.992 169.681 330.542 169.699 330.909L170.039 330.804C170.013 330.455 169.9 329.905 169.751 329.477L169.419 329.564ZM169.716 334.567C169.838 335.047 169.926 335.675 169.926 336.086L170.38 336.025C170.371 335.614 170.284 334.986 170.144 334.506L169.716 334.567ZM170.554 334.514C170.746 334.96 170.93 335.545 170.982 335.929L171.427 335.833C171.366 335.448 171.174 334.864 170.973 334.427L170.554 334.514ZM171.384 334.392C171.681 334.802 171.986 335.361 172.117 335.737L172.554 335.536C172.423 335.178 172.108 334.637 171.794 334.235L171.384 334.392ZM168.974 334.532C168.896 335.134 168.73 335.772 168.389 336.129L168.835 336.374C169.21 335.981 169.35 335.3 169.437 334.654L168.974 334.532ZM171.209 329.451C171.131 329.853 170.956 330.472 170.825 330.848L171.113 330.961C171.261 330.612 171.436 330.045 171.593 329.599L171.209 329.451ZM168.529 333.606L168.564 334.183C169.568 334.122 171.017 334.034 172.414 333.929L172.431 333.406C170.982 333.493 169.498 333.563 168.529 333.606ZM168.721 332.323V332.856H172.292V332.323H168.721ZM170.249 328.883V331.503H170.179V333.755H170.764V331.503H170.694V328.883H170.249ZM179.791 331.031V331.668H181.467V331.031H179.791ZM179.555 328.342V335.422L180.227 335.335V328.342H179.555ZM177.931 330.106V335.667L178.569 335.579V330.106H177.931ZM177.224 335.553L177.338 336.252C178.438 336.042 180.026 335.754 181.519 335.475L181.467 334.82C179.922 335.099 178.28 335.387 177.224 335.553ZM184.47 330.245C183.92 330.752 182.96 331.363 182.095 331.799C182.183 331.939 182.305 332.166 182.349 332.306C183.265 331.869 184.287 331.319 185.011 330.769L184.47 330.245ZM181.903 328.342V334.89C181.903 335.833 182.13 336.086 182.942 336.086C183.108 336.086 184.095 336.086 184.269 336.086C185.055 336.086 185.23 335.597 185.308 334.183C185.125 334.139 184.854 334.025 184.68 333.895C184.636 335.134 184.584 335.448 184.217 335.448C184.007 335.448 183.195 335.448 183.021 335.448C182.654 335.448 182.593 335.361 182.593 334.907V328.342H181.903Z" fill="#002B51"/>
<path d="M188.311 330.769V331.337H191.55V330.769H188.311ZM186.137 335.614V336.164H193.741V335.614H186.137ZM186.661 328.674V329.224H189.245V328.674H186.661ZM189.036 328.674V328.796C188.495 330.184 187.08 331.406 185.797 331.948C185.928 332.061 186.103 332.288 186.19 332.428C187.578 331.782 189.036 330.533 189.691 328.857L189.272 328.639L189.149 328.674H189.036ZM190.511 328.36L189.961 328.543C190.703 330.202 192.039 331.625 193.584 332.323C193.689 332.149 193.872 331.913 194.029 331.782C192.519 331.197 191.183 329.844 190.511 328.36ZM186.426 329.905C186.88 330.184 187.403 330.621 187.665 330.926L188.032 330.525C187.779 330.21 187.237 329.809 186.775 329.547L186.426 329.905ZM192.266 328.412C191.917 328.796 191.297 329.329 190.852 329.652L191.253 329.966C191.707 329.66 192.31 329.189 192.764 328.761L192.266 328.412ZM193.244 329.442C192.877 329.835 192.231 330.368 191.76 330.682L192.161 330.996C192.641 330.699 193.27 330.228 193.733 329.791L193.244 329.442ZM188.154 332.594H191.69V333.746H188.154V332.594ZM187.508 332.053V334.287H192.362V332.053H187.508ZM188.014 334.427C188.25 334.811 188.468 335.344 188.556 335.684L189.176 335.492C189.088 335.152 188.861 334.637 188.617 334.261L188.014 334.427ZM191.262 334.235C191.122 334.619 190.843 335.187 190.625 335.527L191.183 335.693C191.402 335.352 191.664 334.872 191.899 334.41L191.262 334.235ZM196.282 328.866V329.53H198.752V328.866H196.282ZM198.421 328.866C198.421 330.507 198.709 334.226 202.201 336.339C202.323 336.182 202.585 335.902 202.733 335.789C199.285 333.746 199.093 330.429 199.093 328.866H198.421ZM198.176 330.577C197.644 333.048 196.552 334.811 194.614 335.824C194.789 335.946 195.086 336.217 195.208 336.356C197.137 335.222 198.29 333.379 198.918 330.717L198.176 330.577Z" fill="#FF715C"/>
<path d="M128.504 100.911V103.996C128.504 104.939 128.783 105.206 129.877 105.206C130.11 105.206 131.46 105.206 131.693 105.206C132.659 105.206 132.904 104.787 133.008 103.111C132.764 103.041 132.391 102.902 132.194 102.75C132.147 104.17 132.077 104.38 131.623 104.38C131.309 104.38 130.203 104.38 129.97 104.38C129.481 104.38 129.4 104.322 129.4 103.984V100.911H128.504ZM125.71 101.016C125.489 102.762 124.942 103.926 122.276 104.508C122.462 104.683 122.695 105.055 122.788 105.276C125.675 104.555 126.385 103.146 126.641 101.016H125.71ZM127.223 97.7567V100.737H128.073V97.7567H127.223ZM125.663 94.5324C125.058 95.6266 123.917 96.9768 122.323 97.9546C122.521 98.0943 122.8 98.4086 122.94 98.6181C124.639 97.489 125.838 96.0573 126.618 94.7187L125.663 94.5324ZM124.418 98.234H131.158V100.352H124.418V98.234ZM123.545 97.4424V101.156H132.066V97.4424H123.545ZM128.841 95.452V95.6266C128.55 96.2319 127.945 97.1282 127.398 97.6636C127.607 97.7684 127.898 97.9546 128.061 98.0826C128.643 97.5006 129.353 96.5694 129.784 95.8012L129.179 95.4054L129.027 95.452H128.841ZM125.454 95.452L124.988 96.1853H129.086V95.452H125.454ZM135.534 96.4414V97.035H143.659V95.2075H134.743V95.7895H142.844V96.4414H135.534ZM135.267 96.4414C135.08 97.07 134.824 97.8149 134.591 98.3387L135.395 98.3969C135.604 97.8848 135.872 97.1165 136.093 96.4414H135.267ZM135.22 97.652L135.034 98.2456H143.845V97.652H135.22ZM143.566 97.652V97.7684C143.496 98.4086 143.438 98.6763 143.345 98.7694C143.287 98.8276 143.217 98.8393 143.077 98.8393C142.949 98.8393 142.635 98.8276 142.274 98.7927C142.355 98.9557 142.425 99.2117 142.437 99.3747C142.856 99.4096 143.263 99.4096 143.461 99.398C143.694 99.3863 143.892 99.3281 144.032 99.1885C144.218 99.0022 144.299 98.653 144.369 97.943C144.381 97.8382 144.392 97.652 144.392 97.652H143.566ZM137.606 94.5673V96.6393C137.606 97.8382 137.222 98.816 134.149 99.398C134.3 99.5493 134.487 99.8752 134.557 100.073C137.932 99.4213 138.409 98.199 138.409 96.6626V94.5673H137.606ZM140.214 94.5673V99.1186H141.04V94.5673H140.214ZM136.454 100.969H142.309V101.691H136.454V100.969ZM136.454 102.238H142.309V102.971H136.454V102.238ZM136.454 99.7123H142.309V100.422H136.454V99.7123ZM135.604 99.1419V103.53H143.182V99.1419H135.604ZM140.26 104.112C141.552 104.496 142.833 104.939 143.578 105.288L144.52 104.822C143.671 104.473 142.251 104.007 140.947 103.658L140.26 104.112ZM137.571 103.647C136.733 104.066 135.325 104.426 134.114 104.659C134.312 104.811 134.615 105.137 134.754 105.311C135.918 105.02 137.408 104.52 138.351 103.996L137.571 103.647ZM152.18 103.391V104.24H155.346V103.391H152.18ZM145.754 96.7673V97.617H150.224V96.7673H145.754ZM151.784 96.0107V105.09H152.634V96.8488H154.88V105.008H155.765V96.0107H151.784ZM149.991 96.7673V96.9768C149.91 101.959 149.805 103.682 149.537 104.042C149.433 104.194 149.328 104.229 149.153 104.217C148.932 104.217 148.432 104.217 147.884 104.17C148.036 104.415 148.129 104.799 148.14 105.055C148.664 105.09 149.2 105.09 149.526 105.043C149.875 105.008 150.084 104.904 150.294 104.601C150.666 104.089 150.748 102.389 150.841 97.2096C150.841 97.0932 150.841 96.7673 150.841 96.7673H149.991ZM147.407 94.7187C147.396 98.7927 147.407 102.634 145.463 104.683C145.684 104.811 145.987 105.078 146.138 105.276C148.187 103.053 148.245 99.0139 148.257 94.7187H147.407ZM159.42 95.2657V96.1504H162.714V95.2657H159.42ZM162.272 95.2657C162.272 97.4541 162.656 102.413 167.312 105.23C167.475 105.02 167.824 104.648 168.022 104.496C163.424 101.773 163.168 97.3493 163.168 95.2657H162.272ZM161.946 97.5472C161.236 100.841 159.781 103.193 157.196 104.543C157.429 104.706 157.825 105.067 157.988 105.253C160.56 103.74 162.097 101.284 162.935 97.7334L161.946 97.5472ZM176.601 95.3239C177.287 95.9292 178.079 96.7673 178.428 97.326L179.15 96.8139C178.766 96.2784 177.951 95.452 177.264 94.87L176.601 95.3239ZM169.058 98.0012V98.8393H179.429V98.0012H169.058ZM168.883 101.423L169.139 102.296C170.606 101.97 172.666 101.493 174.575 101.051L174.505 100.259C172.457 100.702 170.268 101.167 168.883 101.423ZM171.56 95.743V104.135C171.56 104.345 171.491 104.403 171.281 104.403C171.071 104.415 170.385 104.426 169.64 104.392C169.768 104.648 169.919 105.043 169.966 105.276C170.932 105.288 171.549 105.253 171.921 105.113C172.294 104.974 172.433 104.717 172.433 104.147V95.743H171.56ZM173.772 94.6954C172.655 95.1144 170.769 95.5102 169.128 95.7663C169.244 95.9641 169.349 96.2901 169.395 96.488C171.06 96.2552 173.039 95.8943 174.389 95.4287L173.772 94.6954ZM174.936 94.6605C174.983 100.201 176.019 105.311 178.3 105.311C179.173 105.311 179.487 104.741 179.65 102.809C179.406 102.715 179.091 102.518 178.905 102.32C178.835 103.821 178.696 104.426 178.381 104.426C176.961 104.426 175.821 100.003 175.844 94.6605H174.936ZM178.09 99.3747C177.054 101.342 175.134 103.134 173.062 104.135C173.283 104.333 173.528 104.613 173.667 104.834C175.809 103.705 177.73 101.831 178.87 99.7006L178.09 99.3747ZM184.236 96.9885V97.652H186.588V96.9885H184.236ZM187.926 96.9885V97.652H190.301V96.9885H187.926ZM190.022 95.2308V104.124C190.022 104.345 189.94 104.415 189.719 104.426C189.486 104.438 188.671 104.438 187.845 104.415C187.961 104.648 188.101 105.032 188.147 105.265C189.253 105.265 189.94 105.253 190.324 105.102C190.72 104.962 190.86 104.694 190.86 104.124V95.2308H190.022ZM183.748 95.2308V105.241H184.562V95.2308H183.748ZM184.283 95.2308V95.9292H186.192V98.7811H184.283V99.4795H186.879V95.2308H184.283ZM190.441 95.2308H187.577V99.4795H190.441V98.7811H188.299V95.9292H190.441V95.2308ZM182.758 94.6255C182.199 96.4181 181.28 98.2107 180.256 99.3747C180.407 99.5959 180.64 100.061 180.721 100.271C181.873 98.9091 182.909 96.8604 183.573 94.8467L182.758 94.6255ZM181.827 97.4774V105.265H182.653V96.6975L182.63 96.6742L181.827 97.4774ZM194.087 95.8679L193.979 101.899H192.834L192.727 95.8679H194.087ZM193.409 104.412C193.18 104.412 192.985 104.332 192.822 104.172C192.659 104.01 192.58 103.814 192.582 103.585C192.58 103.359 192.659 103.166 192.822 103.007C192.985 102.844 193.18 102.763 193.409 102.763C193.632 102.763 193.825 102.844 193.988 103.007C194.15 103.166 194.233 103.359 194.236 103.585C194.233 103.737 194.193 103.876 194.116 104.003C194.041 104.127 193.942 104.226 193.818 104.3C193.694 104.375 193.558 104.412 193.409 104.412Z" fill="#002B51"/>
<path d="M390.812 120.511V121.326H398.285V120.511H390.812ZM391.965 123.2H397.051V124.946H391.965V123.2ZM391.162 122.455V125.691H397.901V122.455H391.162ZM391.883 125.924L391.162 126.168C392.395 128.298 394.782 129.509 397.866 129.951C397.983 129.707 398.204 129.357 398.39 129.171C395.364 128.834 392.977 127.751 391.883 125.924ZM394.048 119.265V124.41C394.048 126.378 393.85 128.368 390.393 129.241C390.568 129.427 390.812 129.776 390.917 129.974C394.526 128.903 394.91 126.669 394.91 124.422V119.265H394.048ZM390.312 119.196C389.637 120.965 388.496 122.699 387.32 123.805C387.483 124.015 387.728 124.469 387.809 124.666C389.101 123.374 390.347 121.419 391.138 119.452L390.312 119.196ZM389.09 122.245V129.986H389.928V121.431L389.916 121.419L389.09 122.245ZM400.997 120.045V120.883H408.529V120.045H400.997ZM400.997 122.757V123.584H408.517V122.757H400.997ZM400.939 125.539V126.366H408.54V125.539H400.939ZM400.509 120.045V124.259C400.509 125.9 400.381 127.972 399.1 129.416C399.286 129.532 399.636 129.823 399.775 129.998C401.16 128.449 401.37 126.04 401.37 124.271V120.045H400.509ZM408.179 120.045V128.741C408.179 128.962 408.098 129.032 407.877 129.043C407.656 129.043 406.864 129.055 406.038 129.02C406.166 129.253 406.305 129.637 406.34 129.87C407.446 129.881 408.121 129.87 408.517 129.73C408.901 129.579 409.041 129.311 409.041 128.741V120.045H408.179ZM404.164 120.36V129.823H405.048V120.36H404.164ZM414.22 122.647V123.639H410.632V122.647H414.22ZM411.616 128.997V121.912C411.616 121.515 411.703 121.186 411.876 120.924C412.05 120.659 412.28 120.462 412.567 120.333C412.853 120.2 413.165 120.134 413.501 120.134C413.749 120.134 413.961 120.155 414.138 120.196C414.314 120.235 414.445 120.271 414.53 120.304L414.241 121.304C414.183 121.288 414.109 121.268 414.018 121.246C413.927 121.221 413.816 121.209 413.687 121.209C413.387 121.209 413.172 121.283 413.042 121.432C412.915 121.581 412.852 121.796 412.852 122.077V128.997H411.616ZM417.15 129.137C416.747 129.137 416.384 129.063 416.059 128.914C415.733 128.762 415.476 128.543 415.286 128.257C415.098 127.97 415.005 127.619 415.005 127.203C415.005 126.844 415.073 126.55 415.211 126.318C415.349 126.087 415.535 125.903 415.769 125.768C416.003 125.633 416.265 125.531 416.555 125.462C416.844 125.394 417.139 125.341 417.439 125.305C417.819 125.261 418.128 125.225 418.365 125.198C418.602 125.168 418.774 125.119 418.882 125.053C418.989 124.987 419.043 124.88 419.043 124.731V124.702C419.043 124.341 418.941 124.061 418.737 123.863C418.536 123.664 418.236 123.565 417.836 123.565C417.42 123.565 417.092 123.657 416.852 123.842C416.615 124.024 416.451 124.226 416.36 124.45L415.199 124.185C415.337 123.799 415.538 123.488 415.802 123.251C416.07 123.011 416.377 122.838 416.724 122.73C417.071 122.62 417.436 122.565 417.819 122.565C418.073 122.565 418.342 122.595 418.626 122.656C418.912 122.714 419.179 122.821 419.427 122.978C419.678 123.135 419.883 123.36 420.043 123.652C420.203 123.941 420.283 124.317 420.283 124.78V128.997H419.076V128.129H419.026C418.947 128.288 418.827 128.445 418.667 128.6C418.507 128.754 418.302 128.882 418.051 128.984C417.8 129.086 417.5 129.137 417.15 129.137ZM417.419 128.145C417.76 128.145 418.052 128.078 418.295 127.943C418.54 127.807 418.726 127.631 418.853 127.413C418.982 127.193 419.047 126.957 419.047 126.707V125.888C419.003 125.932 418.918 125.974 418.791 126.012C418.667 126.048 418.525 126.08 418.365 126.107C418.205 126.132 418.05 126.155 417.898 126.177C417.746 126.197 417.62 126.213 417.518 126.227C417.278 126.257 417.059 126.308 416.86 126.38C416.665 126.452 416.508 126.555 416.389 126.69C416.274 126.822 416.216 126.999 416.216 127.219C416.216 127.525 416.329 127.757 416.555 127.914C416.781 128.068 417.069 128.145 417.419 128.145ZM424.604 129.125C423.989 129.125 423.46 128.986 423.016 128.707C422.575 128.426 422.237 128.039 422 127.546C421.763 127.052 421.644 126.488 421.644 125.851C421.644 125.206 421.765 124.637 422.008 124.144C422.25 123.648 422.592 123.261 423.033 122.982C423.474 122.704 423.993 122.565 424.591 122.565C425.074 122.565 425.503 122.654 425.881 122.833C426.258 123.01 426.563 123.258 426.794 123.577C427.029 123.897 427.168 124.271 427.212 124.698H426.009C425.943 124.4 425.791 124.144 425.554 123.929C425.32 123.714 425.006 123.606 424.612 123.606C424.267 123.606 423.966 123.697 423.707 123.879C423.45 124.058 423.251 124.315 423.107 124.648C422.964 124.979 422.892 125.37 422.892 125.822C422.892 126.285 422.963 126.685 423.103 127.021C423.244 127.357 423.442 127.617 423.698 127.802C423.957 127.987 424.262 128.079 424.612 128.079C424.846 128.079 425.058 128.036 425.249 127.951C425.441 127.863 425.603 127.737 425.732 127.575C425.864 127.412 425.957 127.216 426.009 126.988H427.212C427.168 127.398 427.034 127.765 426.811 128.087C426.588 128.41 426.289 128.663 425.914 128.848C425.542 129.032 425.105 129.125 424.604 129.125ZM431.27 129.125C430.645 129.125 430.106 128.991 429.654 128.724C429.205 128.454 428.857 128.075 428.612 127.587C428.37 127.097 428.248 126.522 428.248 125.863C428.248 125.213 428.37 124.64 428.612 124.144C428.857 123.648 429.199 123.261 429.637 122.982C430.078 122.704 430.594 122.565 431.183 122.565C431.541 122.565 431.889 122.624 432.225 122.743C432.561 122.861 432.863 123.047 433.13 123.301C433.397 123.554 433.608 123.883 433.763 124.288C433.917 124.691 433.994 125.18 433.994 125.756V126.194H428.947V125.268H432.783C432.783 124.943 432.717 124.655 432.585 124.404C432.452 124.151 432.266 123.951 432.026 123.805C431.79 123.659 431.511 123.586 431.192 123.586C430.844 123.586 430.541 123.671 430.282 123.842C430.026 124.01 429.827 124.231 429.687 124.503C429.549 124.773 429.48 125.067 429.48 125.384V126.107C429.48 126.532 429.555 126.893 429.703 127.19C429.855 127.488 430.066 127.715 430.336 127.872C430.606 128.027 430.921 128.104 431.282 128.104C431.517 128.104 431.73 128.071 431.923 128.005C432.116 127.936 432.283 127.834 432.423 127.699C432.564 127.564 432.671 127.397 432.746 127.198L433.916 127.409C433.822 127.754 433.654 128.056 433.411 128.315C433.171 128.571 432.87 128.771 432.506 128.914C432.145 129.054 431.733 129.125 431.27 129.125ZM435.465 128.997V120.531H436.701V123.677H436.775C436.847 123.544 436.95 123.391 437.085 123.218C437.22 123.044 437.407 122.893 437.647 122.763C437.887 122.631 438.204 122.565 438.598 122.565C439.11 122.565 439.568 122.694 439.97 122.953C440.372 123.212 440.688 123.586 440.917 124.074C441.148 124.561 441.264 125.148 441.264 125.834C441.264 126.521 441.15 127.109 440.921 127.599C440.692 128.087 440.378 128.463 439.978 128.728C439.579 128.99 439.123 129.121 438.61 129.121C438.224 129.121 437.909 129.056 437.664 128.926C437.421 128.797 437.231 128.645 437.093 128.472C436.955 128.298 436.849 128.144 436.775 128.009H436.672V128.997H435.465ZM436.676 125.822C436.676 126.268 436.74 126.66 436.87 126.996C437 127.332 437.187 127.595 437.432 127.785C437.677 127.973 437.978 128.067 438.333 128.067C438.703 128.067 439.011 127.969 439.259 127.773C439.507 127.575 439.695 127.306 439.821 126.967C439.951 126.628 440.016 126.246 440.016 125.822C440.016 125.403 439.952 125.027 439.825 124.694C439.701 124.36 439.514 124.097 439.263 123.904C439.015 123.711 438.705 123.615 438.333 123.615C437.975 123.615 437.672 123.707 437.424 123.892C437.179 124.076 436.993 124.334 436.866 124.665C436.739 124.995 436.676 125.381 436.676 125.822ZM445.326 129.125C444.731 129.125 444.212 128.988 443.768 128.716C443.324 128.443 442.98 128.061 442.734 127.571C442.489 127.08 442.367 126.507 442.367 125.851C442.367 125.192 442.489 124.616 442.734 124.123C442.98 123.63 443.324 123.247 443.768 122.974C444.212 122.701 444.731 122.565 445.326 122.565C445.921 122.565 446.441 122.701 446.885 122.974C447.328 123.247 447.673 123.63 447.918 124.123C448.163 124.616 448.286 125.192 448.286 125.851C448.286 126.507 448.163 127.08 447.918 127.571C447.673 128.061 447.328 128.443 446.885 128.716C446.441 128.988 445.921 129.125 445.326 129.125ZM445.33 128.087C445.716 128.087 446.036 127.985 446.289 127.781C446.543 127.577 446.73 127.306 446.851 126.967C446.975 126.628 447.037 126.255 447.037 125.847C447.037 125.442 446.975 125.07 446.851 124.731C446.73 124.389 446.543 124.115 446.289 123.908C446.036 123.701 445.716 123.598 445.33 123.598C444.942 123.598 444.619 123.701 444.363 123.908C444.11 124.115 443.921 124.389 443.797 124.731C443.676 125.07 443.615 125.442 443.615 125.847C443.615 126.255 443.676 126.628 443.797 126.967C443.921 127.306 444.11 127.577 444.363 127.781C444.619 127.985 444.942 128.087 445.33 128.087ZM452.34 129.125C451.745 129.125 451.225 128.988 450.781 128.716C450.338 128.443 449.993 128.061 449.748 127.571C449.503 127.08 449.38 126.507 449.38 125.851C449.38 125.192 449.503 124.616 449.748 124.123C449.993 123.63 450.338 123.247 450.781 122.974C451.225 122.701 451.745 122.565 452.34 122.565C452.935 122.565 453.454 122.701 453.898 122.974C454.342 123.247 454.686 123.63 454.932 124.123C455.177 124.616 455.299 125.192 455.299 125.851C455.299 126.507 455.177 127.08 454.932 127.571C454.686 128.061 454.342 128.443 453.898 128.716C453.454 128.988 452.935 129.125 452.34 129.125ZM452.344 128.087C452.73 128.087 453.049 127.985 453.303 127.781C453.556 127.577 453.744 127.306 453.865 126.967C453.989 126.628 454.051 126.255 454.051 125.847C454.051 125.442 453.989 125.07 453.865 124.731C453.744 124.389 453.556 124.115 453.303 123.908C453.049 123.701 452.73 123.598 452.344 123.598C451.955 123.598 451.633 123.701 451.377 123.908C451.123 124.115 450.934 124.389 450.81 124.731C450.689 125.07 450.629 125.442 450.629 125.847C450.629 126.255 450.689 126.628 450.81 126.967C450.934 127.306 451.123 127.577 451.377 127.781C451.633 127.985 451.955 128.087 452.344 128.087ZM457.816 126.843L457.807 125.334H458.022L460.552 122.647H462.032L459.147 125.706H458.952L457.816 126.843ZM456.679 128.997V120.531H457.915V128.997H456.679ZM460.689 128.997L458.415 125.979L459.267 125.115L462.206 128.997H460.689ZM466.611 119.254V129.928H467.403V119.254H466.611ZM467.1 123.654V124.341H473.386V123.654H467.1ZM467.088 128.775V129.462H473.421V128.775H467.088ZM468.753 119.37C468.578 119.836 468.252 120.499 468.008 120.93L468.415 121.116C468.695 120.732 469.032 120.127 469.323 119.603L468.753 119.37ZM469.684 120.185C469.277 120.942 468.567 122.047 468.008 122.688L468.415 122.897C468.974 122.269 469.684 121.244 470.219 120.429L469.684 120.185ZM467.647 120.849C468.054 121.198 468.52 121.71 468.741 122.059L469.044 121.559C468.823 121.256 468.357 120.779 467.95 120.418L467.647 120.849ZM469.323 121.943C469.637 122.397 469.952 123.014 470.08 123.409L470.534 123.142C470.417 122.757 470.08 122.164 469.766 121.722L469.323 121.943ZM467.6 122.629L467.682 123.223C468.404 123.188 469.207 123.142 470.08 123.083L470.091 122.583C469.149 122.606 468.299 122.618 467.6 122.629ZM471.535 119.37C471.349 119.824 471.011 120.488 470.743 120.907L471.151 121.093C471.442 120.72 471.803 120.115 472.117 119.603L471.535 119.37ZM472.513 120.185C472.07 120.953 471.267 122.059 470.65 122.711L471.058 122.92C471.675 122.292 472.478 121.256 473.06 120.429L472.513 120.185ZM470.324 120.837C470.755 121.174 471.255 121.687 471.5 122.024L471.779 121.524C471.546 121.209 471.034 120.744 470.604 120.406L470.324 120.837ZM472.105 121.908C472.466 122.385 472.862 123.037 473.013 123.456L473.479 123.177C473.316 122.757 472.92 122.129 472.548 121.663L472.105 121.908ZM470.406 122.629L470.499 123.223C471.232 123.188 472.059 123.142 472.967 123.083V122.571C471.989 122.606 471.104 122.618 470.406 122.629ZM468.753 124.422C468.59 124.853 468.276 125.528 468.043 125.947L468.45 126.133C468.718 125.749 469.032 125.167 469.323 124.643L468.753 124.422ZM469.719 125.202C469.3 126.005 468.555 127.146 467.973 127.821L468.369 128.03C468.962 127.367 469.707 126.296 470.266 125.446L469.719 125.202ZM467.659 125.877C468.066 126.25 468.532 126.75 468.753 127.099L469.055 126.61C468.846 126.296 468.369 125.819 467.961 125.47L467.659 125.877ZM469.323 126.994C469.649 127.472 469.987 128.124 470.126 128.543L470.569 128.263C470.441 127.867 470.091 127.239 469.766 126.773L469.323 126.994ZM467.6 127.728L467.67 128.321C468.404 128.287 469.207 128.228 470.103 128.158V127.67C469.16 127.693 468.287 127.716 467.6 127.728ZM471.581 124.422C471.395 124.853 471.058 125.516 470.79 125.924L471.221 126.121C471.512 125.737 471.861 125.167 472.152 124.643L471.581 124.422ZM472.559 125.214C472.105 126.005 471.302 127.146 470.685 127.809L471.081 128.019C471.709 127.379 472.513 126.319 473.106 125.458L472.559 125.214ZM470.348 125.854C470.79 126.226 471.279 126.75 471.512 127.099L471.803 126.61C471.57 126.273 471.069 125.796 470.639 125.446L470.348 125.854ZM472.094 126.971C472.466 127.46 472.873 128.124 473.036 128.554L473.479 128.252C473.316 127.844 472.908 127.192 472.524 126.715L472.094 126.971ZM470.406 127.728L470.476 128.321C471.221 128.287 472.047 128.24 472.967 128.17V127.658C471.989 127.693 471.116 127.716 470.406 127.728ZM464.283 119.231C464.062 119.999 463.631 121.093 463.27 121.756L463.864 121.989C464.225 121.361 464.679 120.325 465.04 119.498L464.283 119.231ZM465.459 120.569C464.923 121.803 463.969 123.537 463.212 124.562L463.736 124.841C464.516 123.828 465.482 122.175 466.18 120.883L465.459 120.569ZM462.77 121.582C463.329 122.164 463.969 122.979 464.236 123.526L464.656 122.839C464.399 122.327 463.748 121.57 463.166 121L462.77 121.582ZM465.005 123.235C465.412 123.991 465.808 124.992 465.924 125.609L466.588 125.342C466.46 124.713 466.052 123.747 465.622 123.002L465.005 123.235ZM462.653 124.375L462.735 125.155C463.678 125.097 464.877 125.004 466.076 124.899L466.087 124.201C464.795 124.271 463.538 124.341 462.653 124.375ZM465.342 126.028C465.598 126.727 465.854 127.635 465.924 128.228L466.576 128.03C466.483 127.437 466.239 126.541 465.959 125.854L465.342 126.028ZM463.212 125.877C463.119 126.89 462.968 127.937 462.642 128.647C462.816 128.717 463.142 128.869 463.282 128.962C463.585 128.217 463.806 127.088 463.911 125.993L463.212 125.877ZM464.295 124.713V129.928H465.04V124.713H464.295ZM479.892 126.331H483.652V126.855H479.892V126.331ZM479.892 127.32H483.652V127.856H479.892V127.32ZM479.892 125.365H483.652V125.877H479.892V125.365ZM479.124 124.853V128.356H484.444V124.853H479.124ZM482.267 128.81C483.082 129.148 483.955 129.614 484.444 129.951L485.2 129.485C484.642 129.125 483.675 128.682 482.826 128.345L482.267 128.81ZM481.266 119.219V121.396H482.127V119.219H481.266ZM478.437 119.929V120.523H484.991V119.929H478.437ZM478.984 121.07V121.628H484.607V121.07H478.984ZM479.473 122.606H484.048V123.828H479.473V122.606ZM478.763 122.094V124.341H484.781V122.094H478.763ZM480.812 122.338C480.754 122.932 480.463 123.165 479.52 123.293C479.636 123.386 479.788 123.572 479.834 123.7C480.94 123.491 481.313 123.13 481.394 122.338H480.812ZM482.081 122.304V122.851C482.081 123.374 482.244 123.479 482.942 123.479C483.059 123.479 483.838 123.479 483.966 123.479C484.385 123.479 484.572 123.398 484.618 123.153C484.444 123.118 484.223 123.072 484.094 123.002C484.06 123.06 484.025 123.072 483.862 123.072C483.71 123.072 483.117 123.072 483.012 123.072C482.768 123.072 482.733 123.048 482.733 122.862V122.304H482.081ZM480.439 128.345C479.892 128.741 478.798 129.171 477.879 129.404C478.053 129.544 478.321 129.776 478.461 129.939C479.345 129.707 480.463 129.253 481.161 128.775L480.439 128.345ZM476.226 119.231C475.935 119.999 475.376 121.14 474.957 121.815L475.551 122.059C475.993 121.407 476.552 120.36 476.982 119.498L476.226 119.231ZM477.436 120.558C476.866 121.78 475.853 123.514 475.05 124.55L475.586 124.829C476.4 123.828 477.425 122.164 478.17 120.872L477.436 120.558ZM474.422 121.675C475.027 122.245 475.702 123.06 475.981 123.607L476.47 122.955C476.191 122.432 475.492 121.663 474.887 121.105L474.422 121.675ZM476.982 123.153C477.413 123.933 477.82 124.946 477.949 125.586L478.6 125.318C478.472 124.69 478.042 123.7 477.599 122.932L476.982 123.153ZM474.387 124.422L474.48 125.179C475.469 125.12 476.75 125.051 478.042 124.957V124.259C476.668 124.317 475.329 124.387 474.387 124.422ZM477.285 126.017C477.529 126.622 477.751 127.414 477.82 127.937L478.472 127.716C478.379 127.216 478.146 126.436 477.902 125.842L477.285 126.017ZM474.969 125.877C474.852 126.89 474.643 127.937 474.27 128.647C474.456 128.717 474.794 128.869 474.934 128.973C475.283 128.228 475.539 127.099 475.69 126.005L474.969 125.877ZM476.191 124.713V129.928H476.936V124.713H476.191ZM489.263 122.466V123.223H493.581V122.466H489.263ZM486.364 128.927V129.66H496.503V128.927H486.364ZM487.063 119.673V120.406H490.508V119.673H487.063ZM490.229 119.673V119.836C489.507 121.687 487.621 123.316 485.91 124.038C486.085 124.189 486.318 124.492 486.434 124.678C488.285 123.817 490.229 122.152 491.102 119.917L490.543 119.626L490.38 119.673H490.229ZM492.196 119.254L491.463 119.498C492.452 121.71 494.233 123.607 496.293 124.538C496.433 124.306 496.677 123.991 496.887 123.817C494.873 123.037 493.092 121.233 492.196 119.254ZM486.748 121.314C487.354 121.687 488.052 122.269 488.401 122.676L488.89 122.141C488.553 121.722 487.831 121.186 487.214 120.837L486.748 121.314ZM494.536 119.324C494.07 119.836 493.244 120.546 492.65 120.977L493.185 121.396C493.791 120.988 494.594 120.36 495.199 119.789L494.536 119.324ZM495.839 120.697C495.35 121.221 494.489 121.931 493.861 122.35L494.396 122.769C495.036 122.373 495.874 121.745 496.491 121.163L495.839 120.697ZM489.053 124.899H493.767V126.436H489.053V124.899ZM488.192 124.178V127.157H494.664V124.178H488.192ZM488.867 127.344C489.181 127.856 489.472 128.566 489.589 129.02L490.415 128.764C490.299 128.31 489.996 127.623 489.67 127.123L488.867 127.344ZM493.197 127.088C493.011 127.6 492.638 128.356 492.347 128.81L493.092 129.032C493.383 128.578 493.732 127.937 494.047 127.32L493.197 127.088ZM499.89 119.929V120.814H503.184V119.929H499.89ZM502.742 119.929C502.742 122.117 503.126 127.076 507.782 129.893C507.945 129.683 508.294 129.311 508.492 129.16C503.894 126.436 503.638 122.013 503.638 119.929H502.742ZM502.416 122.21C501.706 125.505 500.251 127.856 497.667 129.206C497.9 129.369 498.295 129.73 498.458 129.916C501.031 128.403 502.567 125.947 503.405 122.397L502.416 122.21Z" fill="white"/>
<path d="M396.72 165.814V166.629H404.193V165.814H396.72ZM397.872 168.503H402.959V170.249H397.872V168.503ZM397.069 167.758V170.994H403.809V167.758H397.069ZM397.791 171.227L397.069 171.471C398.303 173.601 400.689 174.812 403.774 175.254C403.89 175.01 404.111 174.661 404.298 174.474C401.271 174.137 398.885 173.054 397.791 171.227ZM399.956 164.569V169.714C399.956 171.681 399.758 173.671 396.301 174.544C396.476 174.73 396.72 175.08 396.825 175.278C400.433 174.207 400.817 171.972 400.817 169.725V164.569H399.956ZM396.219 164.499C395.544 166.268 394.404 168.003 393.228 169.108C393.391 169.318 393.635 169.772 393.717 169.97C395.009 168.678 396.254 166.722 397.046 164.755L396.219 164.499ZM394.997 167.549V175.289H395.835V166.734L395.824 166.722L394.997 167.549ZM406.905 165.349V166.187H414.436V165.349H406.905ZM406.905 168.061V168.887H414.425V168.061H406.905ZM406.847 170.843V171.669H414.448V170.843H406.847ZM406.416 165.349V169.562C406.416 171.204 406.288 173.275 405.008 174.719C405.194 174.835 405.543 175.126 405.683 175.301C407.068 173.753 407.278 171.343 407.278 169.574V165.349H406.416ZM414.087 165.349V174.044C414.087 174.265 414.005 174.335 413.784 174.346C413.563 174.346 412.772 174.358 411.945 174.323C412.073 174.556 412.213 174.94 412.248 175.173C413.354 175.184 414.029 175.173 414.425 175.033C414.809 174.882 414.948 174.614 414.948 174.044V165.349H414.087ZM410.071 165.663V175.126H410.956V165.663H410.071ZM422.934 168.509C422.855 168.258 422.747 168.033 422.612 167.835C422.48 167.634 422.321 167.463 422.137 167.322C421.952 167.179 421.741 167.07 421.504 166.996C421.27 166.921 421.012 166.884 420.731 166.884C420.255 166.884 419.825 167.007 419.442 167.252C419.059 167.497 418.755 167.857 418.532 168.331C418.312 168.802 418.202 169.379 418.202 170.063C418.202 170.749 418.313 171.329 418.536 171.803C418.76 172.277 419.065 172.637 419.454 172.882C419.843 173.127 420.285 173.25 420.781 173.25C421.241 173.25 421.642 173.156 421.984 172.969C422.328 172.781 422.594 172.517 422.782 172.175C422.972 171.831 423.067 171.426 423.067 170.96L423.397 171.022H420.975V169.968H424.303V170.931C424.303 171.642 424.151 172.259 423.848 172.783C423.548 173.304 423.131 173.706 422.6 173.99C422.071 174.274 421.464 174.416 420.781 174.416C420.015 174.416 419.342 174.239 418.764 173.886C418.188 173.534 417.739 173.034 417.416 172.386C417.094 171.736 416.933 170.964 416.933 170.071C416.933 169.396 417.026 168.79 417.214 168.252C417.401 167.715 417.664 167.259 418.003 166.884C418.345 166.507 418.746 166.219 419.206 166.02C419.669 165.819 420.175 165.719 420.723 165.719C421.18 165.719 421.606 165.786 422 165.921C422.397 166.056 422.75 166.248 423.058 166.496C423.37 166.744 423.628 167.039 423.831 167.38C424.035 167.719 424.173 168.095 424.245 168.509H422.934ZM428.499 174.428C427.904 174.428 427.385 174.292 426.941 174.019C426.497 173.746 426.153 173.364 425.908 172.874C425.662 172.383 425.54 171.81 425.54 171.154C425.54 170.496 425.662 169.92 425.908 169.426C426.153 168.933 426.497 168.55 426.941 168.277C427.385 168.004 427.904 167.868 428.499 167.868C429.094 167.868 429.614 168.004 430.058 168.277C430.501 168.55 430.846 168.933 431.091 169.426C431.336 169.92 431.459 170.496 431.459 171.154C431.459 171.81 431.336 172.383 431.091 172.874C430.846 173.364 430.501 173.746 430.058 174.019C429.614 174.292 429.094 174.428 428.499 174.428ZM428.503 173.39C428.889 173.39 429.209 173.288 429.462 173.085C429.716 172.881 429.903 172.609 430.025 172.27C430.149 171.931 430.211 171.558 430.211 171.15C430.211 170.745 430.149 170.373 430.025 170.034C429.903 169.692 429.716 169.418 429.462 169.211C429.209 169.005 428.889 168.901 428.503 168.901C428.115 168.901 427.792 169.005 427.536 169.211C427.283 169.418 427.094 169.692 426.97 170.034C426.849 170.373 426.788 170.745 426.788 171.15C426.788 171.558 426.849 171.931 426.97 172.27C427.094 172.609 427.283 172.881 427.536 173.085C427.792 173.288 428.115 173.39 428.503 173.39ZM435.513 174.428C434.918 174.428 434.398 174.292 433.955 174.019C433.511 173.746 433.166 173.364 432.921 172.874C432.676 172.383 432.553 171.81 432.553 171.154C432.553 170.496 432.676 169.92 432.921 169.426C433.166 168.933 433.511 168.55 433.955 168.277C434.398 168.004 434.918 167.868 435.513 167.868C436.108 167.868 436.628 168.004 437.071 168.277C437.515 168.55 437.859 168.933 438.105 169.426C438.35 169.92 438.472 170.496 438.472 171.154C438.472 171.81 438.35 172.383 438.105 172.874C437.859 173.364 437.515 173.746 437.071 174.019C436.628 174.292 436.108 174.428 435.513 174.428ZM435.517 173.39C435.903 173.39 436.222 173.288 436.476 173.085C436.729 172.881 436.917 172.609 437.038 172.27C437.162 171.931 437.224 171.558 437.224 171.15C437.224 170.745 437.162 170.373 437.038 170.034C436.917 169.692 436.729 169.418 436.476 169.211C436.222 169.005 435.903 168.901 435.517 168.901C435.128 168.901 434.806 169.005 434.55 169.211C434.296 169.418 434.107 169.692 433.983 170.034C433.862 170.373 433.802 170.745 433.802 171.15C433.802 171.558 433.862 171.931 433.983 172.27C434.107 172.609 434.296 172.881 434.55 173.085C434.806 173.288 435.128 173.39 435.517 173.39ZM442.514 176.813C442.01 176.813 441.576 176.747 441.212 176.615C440.851 176.482 440.556 176.307 440.327 176.09C440.099 175.872 439.928 175.634 439.815 175.375L440.877 174.936C440.952 175.058 441.051 175.186 441.175 175.321C441.302 175.459 441.472 175.576 441.687 175.672C441.905 175.769 442.185 175.817 442.526 175.817C442.995 175.817 443.382 175.702 443.688 175.474C443.994 175.248 444.147 174.887 444.147 174.391V173.142H444.068C443.994 173.277 443.886 173.428 443.746 173.593C443.608 173.758 443.418 173.902 443.175 174.023C442.933 174.144 442.617 174.205 442.229 174.205C441.727 174.205 441.275 174.088 440.873 173.853C440.473 173.616 440.157 173.268 439.922 172.808C439.691 172.345 439.575 171.776 439.575 171.1C439.575 170.425 439.689 169.847 439.918 169.364C440.15 168.882 440.467 168.513 440.869 168.257C441.271 167.998 441.727 167.868 442.237 167.868C442.631 167.868 442.949 167.934 443.192 168.066C443.434 168.196 443.623 168.347 443.758 168.521C443.896 168.695 444.002 168.848 444.077 168.98H444.167V167.951H445.379V174.44C445.379 174.986 445.252 175.434 444.998 175.784C444.745 176.134 444.402 176.393 443.969 176.561C443.539 176.729 443.054 176.813 442.514 176.813ZM442.502 173.18C442.857 173.18 443.158 173.097 443.403 172.932C443.651 172.764 443.838 172.524 443.965 172.212C444.094 171.898 444.159 171.522 444.159 171.084C444.159 170.657 444.096 170.281 443.969 169.955C443.842 169.63 443.656 169.377 443.411 169.195C443.166 169.01 442.863 168.918 442.502 168.918C442.13 168.918 441.82 169.014 441.572 169.207C441.324 169.397 441.136 169.656 441.009 169.984C440.885 170.312 440.823 170.679 440.823 171.084C440.823 171.5 440.887 171.865 441.014 172.179C441.14 172.493 441.328 172.739 441.576 172.915C441.827 173.091 442.135 173.18 442.502 173.18ZM448.272 165.834V174.3H447.036V165.834H448.272ZM452.671 174.428C452.046 174.428 451.507 174.294 451.055 174.027C450.606 173.757 450.259 173.378 450.013 172.89C449.771 172.4 449.65 171.825 449.65 171.167C449.65 170.516 449.771 169.943 450.013 169.447C450.259 168.951 450.6 168.564 451.038 168.285C451.479 168.007 451.995 167.868 452.584 167.868C452.943 167.868 453.29 167.927 453.626 168.046C453.962 168.164 454.264 168.35 454.531 168.604C454.799 168.857 455.009 169.187 455.164 169.592C455.318 169.994 455.395 170.483 455.395 171.059V171.497H450.348V170.571H454.184C454.184 170.246 454.118 169.958 453.986 169.707C453.853 169.454 453.667 169.254 453.428 169.108C453.191 168.962 452.912 168.889 452.593 168.889C452.245 168.889 451.942 168.974 451.683 169.145C451.427 169.313 451.229 169.534 451.088 169.807C450.95 170.077 450.881 170.37 450.881 170.687V171.41C450.881 171.835 450.956 172.196 451.105 172.493C451.256 172.791 451.467 173.018 451.737 173.175C452.007 173.33 452.323 173.407 452.684 173.407C452.918 173.407 453.131 173.374 453.324 173.308C453.517 173.239 453.684 173.137 453.825 173.002C453.965 172.867 454.073 172.7 454.147 172.502L455.317 172.713C455.223 173.057 455.055 173.359 454.812 173.618C454.573 173.874 454.271 174.074 453.907 174.217C453.546 174.358 453.134 174.428 452.671 174.428ZM460.219 164.557V175.231H461.011V164.557H460.219ZM460.708 168.957V169.644H466.994V168.957H460.708ZM460.697 174.079V174.765H467.029V174.079H460.697ZM462.361 164.673C462.186 165.139 461.861 165.803 461.616 166.233L462.023 166.419C462.303 166.035 462.64 165.43 462.931 164.906L462.361 164.673ZM463.292 165.488C462.885 166.245 462.175 167.351 461.616 167.991L462.023 168.2C462.582 167.572 463.292 166.548 463.828 165.733L463.292 165.488ZM461.255 166.152C461.663 166.501 462.128 167.013 462.349 167.362L462.652 166.862C462.431 166.559 461.965 166.082 461.558 165.721L461.255 166.152ZM462.931 167.246C463.246 167.7 463.56 168.317 463.688 168.713L464.142 168.445C464.026 168.061 463.688 167.467 463.374 167.025L462.931 167.246ZM461.209 167.933L461.29 168.526C462.012 168.491 462.815 168.445 463.688 168.387L463.7 167.886C462.757 167.909 461.907 167.921 461.209 167.933ZM465.143 164.673C464.957 165.127 464.619 165.791 464.351 166.21L464.759 166.396C465.05 166.024 465.411 165.418 465.725 164.906L465.143 164.673ZM466.121 165.488C465.678 166.257 464.875 167.362 464.258 168.014L464.666 168.224C465.283 167.595 466.086 166.559 466.668 165.733L466.121 165.488ZM463.932 166.14C464.363 166.478 464.864 166.99 465.108 167.327L465.387 166.827C465.155 166.513 464.643 166.047 464.212 165.709L463.932 166.14ZM465.713 167.211C466.074 167.688 466.47 168.34 466.621 168.759L467.087 168.48C466.924 168.061 466.528 167.432 466.156 166.967L465.713 167.211ZM464.014 167.933L464.107 168.526C464.84 168.491 465.667 168.445 466.575 168.387V167.874C465.597 167.909 464.712 167.921 464.014 167.933ZM462.361 169.725C462.198 170.156 461.884 170.831 461.651 171.25L462.058 171.436C462.326 171.052 462.64 170.47 462.931 169.946L462.361 169.725ZM463.327 170.505C462.908 171.308 462.163 172.449 461.581 173.124L461.977 173.334C462.571 172.67 463.316 171.599 463.874 170.75L463.327 170.505ZM461.267 171.18C461.674 171.553 462.14 172.053 462.361 172.402L462.664 171.914C462.454 171.599 461.977 171.122 461.57 170.773L461.267 171.18ZM462.931 172.298C463.257 172.775 463.595 173.427 463.735 173.846L464.177 173.566C464.049 173.171 463.7 172.542 463.374 172.077L462.931 172.298ZM461.209 173.031L461.279 173.625C462.012 173.59 462.815 173.532 463.711 173.462V172.973C462.768 172.996 461.895 173.019 461.209 173.031ZM465.19 169.725C465.003 170.156 464.666 170.819 464.398 171.227L464.829 171.425C465.12 171.041 465.469 170.47 465.76 169.946L465.19 169.725ZM466.167 170.517C465.713 171.308 464.91 172.449 464.293 173.113L464.689 173.322C465.318 172.682 466.121 171.623 466.714 170.761L466.167 170.517ZM463.956 171.157C464.398 171.529 464.887 172.053 465.12 172.402L465.411 171.914C465.178 171.576 464.677 171.099 464.247 170.75L463.956 171.157ZM465.702 172.274C466.074 172.763 466.482 173.427 466.645 173.857L467.087 173.555C466.924 173.147 466.517 172.496 466.132 172.018L465.702 172.274ZM464.014 173.031L464.084 173.625C464.829 173.59 465.655 173.543 466.575 173.473V172.961C465.597 172.996 464.724 173.019 464.014 173.031ZM457.891 164.534C457.67 165.302 457.239 166.396 456.879 167.06L457.472 167.292C457.833 166.664 458.287 165.628 458.648 164.801L457.891 164.534ZM459.067 165.872C458.531 167.106 457.577 168.841 456.82 169.865L457.344 170.144C458.124 169.132 459.09 167.479 459.789 166.187L459.067 165.872ZM456.378 166.885C456.937 167.467 457.577 168.282 457.845 168.829L458.264 168.142C458.008 167.63 457.356 166.873 456.774 166.303L456.378 166.885ZM458.613 168.538C459.02 169.295 459.416 170.296 459.533 170.913L460.196 170.645C460.068 170.016 459.661 169.05 459.23 168.305L458.613 168.538ZM456.262 169.679L456.343 170.459C457.286 170.4 458.485 170.307 459.684 170.202L459.695 169.504C458.403 169.574 457.146 169.644 456.262 169.679ZM458.95 171.332C459.207 172.03 459.463 172.938 459.533 173.532L460.184 173.334C460.091 172.74 459.847 171.844 459.567 171.157L458.95 171.332ZM456.82 171.18C456.727 172.193 456.576 173.241 456.25 173.951C456.425 174.02 456.751 174.172 456.89 174.265C457.193 173.52 457.414 172.391 457.519 171.297L456.82 171.18ZM457.903 170.016V175.231H458.648V170.016H457.903ZM473.501 171.634H477.26V172.158H473.501V171.634ZM473.501 172.624H477.26V173.159H473.501V172.624ZM473.501 170.668H477.26V171.18H473.501V170.668ZM472.732 170.156V173.66H478.052V170.156H472.732ZM475.875 174.114C476.69 174.451 477.563 174.917 478.052 175.254L478.808 174.789C478.25 174.428 477.284 173.986 476.434 173.648L475.875 174.114ZM474.874 164.522V166.699H475.736V164.522H474.874ZM472.046 165.232V165.826H478.599V165.232H472.046ZM472.593 166.373V166.932H478.215V166.373H472.593ZM473.082 167.909H477.656V169.132H473.082V167.909ZM472.372 167.397V169.644H478.389V167.397H472.372ZM474.42 167.642C474.362 168.235 474.071 168.468 473.128 168.596C473.245 168.689 473.396 168.876 473.442 169.004C474.548 168.794 474.921 168.433 475.002 167.642H474.42ZM475.689 167.607V168.154C475.689 168.678 475.852 168.782 476.55 168.782C476.667 168.782 477.447 168.782 477.575 168.782C477.994 168.782 478.18 168.701 478.226 168.456C478.052 168.422 477.831 168.375 477.703 168.305C477.668 168.363 477.633 168.375 477.47 168.375C477.319 168.375 476.725 168.375 476.62 168.375C476.376 168.375 476.341 168.352 476.341 168.165V167.607H475.689ZM474.048 173.648C473.501 174.044 472.406 174.474 471.487 174.707C471.661 174.847 471.929 175.08 472.069 175.243C472.954 175.01 474.071 174.556 474.769 174.079L474.048 173.648ZM469.834 164.534C469.543 165.302 468.984 166.443 468.565 167.118L469.159 167.362C469.601 166.71 470.16 165.663 470.591 164.801L469.834 164.534ZM471.045 165.861C470.474 167.083 469.462 168.817 468.658 169.853L469.194 170.133C470.009 169.132 471.033 167.467 471.778 166.175L471.045 165.861ZM468.03 166.978C468.635 167.549 469.31 168.363 469.59 168.91L470.078 168.259C469.799 167.735 469.101 166.967 468.495 166.408L468.03 166.978ZM470.591 168.456C471.021 169.236 471.429 170.249 471.557 170.889L472.209 170.622C472.081 169.993 471.65 169.004 471.208 168.235L470.591 168.456ZM467.995 169.725L468.088 170.482C469.077 170.424 470.358 170.354 471.65 170.261V169.562C470.276 169.62 468.938 169.69 467.995 169.725ZM470.893 171.32C471.138 171.925 471.359 172.717 471.429 173.241L472.081 173.019C471.987 172.519 471.755 171.739 471.51 171.145L470.893 171.32ZM468.577 171.18C468.46 172.193 468.251 173.241 467.878 173.951C468.065 174.02 468.402 174.172 468.542 174.277C468.891 173.532 469.147 172.402 469.299 171.308L468.577 171.18ZM469.799 170.016V175.231H470.544V170.016H469.799ZM482.871 167.77V168.526H487.189V167.77H482.871ZM479.973 174.23V174.963H490.111V174.23H479.973ZM480.671 164.976V165.709H484.116V164.976H480.671ZM483.837 164.976V165.139C483.115 166.99 481.23 168.619 479.519 169.341C479.693 169.492 479.926 169.795 480.042 169.981C481.893 169.12 483.837 167.455 484.71 165.221L484.151 164.93L483.988 164.976H483.837ZM485.804 164.557L485.071 164.801C486.06 167.013 487.841 168.91 489.901 169.842C490.041 169.609 490.286 169.295 490.495 169.12C488.481 168.34 486.7 166.536 485.804 164.557ZM480.357 166.617C480.962 166.99 481.66 167.572 482.01 167.979L482.498 167.444C482.161 167.025 481.439 166.489 480.822 166.14L480.357 166.617ZM488.144 164.627C487.678 165.139 486.852 165.849 486.258 166.28L486.794 166.699C487.399 166.291 488.202 165.663 488.807 165.092L488.144 164.627ZM489.448 166C488.959 166.524 488.097 167.234 487.469 167.653L488.004 168.072C488.644 167.677 489.482 167.048 490.099 166.466L489.448 166ZM482.661 170.202H487.376V171.739H482.661V170.202ZM481.8 169.481V172.461H488.272V169.481H481.8ZM482.475 172.647C482.789 173.159 483.08 173.869 483.197 174.323L484.023 174.067C483.907 173.613 483.604 172.926 483.278 172.426L482.475 172.647ZM486.805 172.391C486.619 172.903 486.247 173.66 485.956 174.114L486.7 174.335C486.991 173.881 487.341 173.241 487.655 172.624L486.805 172.391ZM493.498 165.232V166.117H496.792V165.232H493.498ZM496.35 165.232C496.35 167.421 496.734 172.379 501.39 175.196C501.553 174.987 501.902 174.614 502.1 174.463C497.502 171.739 497.246 167.316 497.246 165.232H496.35ZM496.024 167.514C495.314 170.808 493.859 173.159 491.275 174.509C491.508 174.672 491.904 175.033 492.067 175.219C494.639 173.706 496.176 171.25 497.014 167.7L496.024 167.514Z" fill="white"/>
<path d="M342.785 208.603L434.344 207.748" stroke="#989898" stroke-width="0.727506"/>
<path d="M460.504 207.748L555.862 207.748" stroke="#989898" stroke-width="0.727506"/>
<ellipse cx="388.333" cy="52.4069" rx="10.4049" ry="10.5393" fill="#74CADD"/>
<path d="M404.762 48.5239C404.762 54.3447 399.981 59.0633 394.084 59.0633C388.186 59.0633 383.405 54.3447 383.405 48.5239C383.405 42.7032 388.186 37.9846 394.084 37.9846C399.981 37.9846 404.762 42.7032 404.762 48.5239Z" fill="#FF715C"/>
<path d="M384.774 55.7349C387.049 56.7197 389.303 55.5036 389.703 53.307" stroke="#002B51" stroke-width="0.944226" stroke-linecap="round"/>
<path d="M410.392 55.9258V43.7671C410.392 43.6386 410.415 43.5189 410.462 43.4079C410.509 43.2911 410.573 43.1918 410.655 43.1101C410.742 43.0225 410.841 42.9553 410.952 42.9086C411.063 42.8619 411.186 42.8385 411.32 42.8385C411.682 42.8385 411.957 43.005 412.144 43.3378L417.4 53.841L422.656 43.3378C422.866 43.005 423.14 42.8385 423.479 42.8385C423.607 42.8385 423.727 42.8619 423.838 42.9086C423.955 42.9553 424.054 43.0225 424.136 43.1101C424.224 43.1918 424.291 43.2911 424.337 43.4079C424.384 43.5189 424.408 43.6386 424.408 43.7671V55.9258C424.408 56.1828 424.317 56.4018 424.136 56.5828C423.955 56.7639 423.736 56.8544 423.479 56.8544C423.222 56.8544 423.003 56.7639 422.822 56.5828C422.641 56.4018 422.55 56.1828 422.55 55.9258V47.709L418.206 56.3901C418.025 56.6996 417.756 56.8544 417.4 56.8544C417.014 56.8544 416.731 56.6675 416.55 56.2937L412.249 47.709V55.9258C412.249 56.1828 412.158 56.4018 411.977 56.5828C411.796 56.7639 411.577 56.8544 411.32 56.8544C411.063 56.8544 410.844 56.7639 410.663 56.5828C410.482 56.4018 410.392 56.1828 410.392 55.9258ZM434.903 51.9488C434.903 53.3154 434.424 54.4717 433.466 55.4177C432.497 56.3755 431.34 56.8544 429.997 56.8544C428.642 56.8544 427.486 56.3755 426.528 55.4177C425.57 54.46 425.092 53.3037 425.092 51.9488C425.092 50.594 425.57 49.4377 426.528 48.4799C427.486 47.5222 428.642 47.0433 429.997 47.0433C431.34 47.0433 432.497 47.5222 433.466 48.4799C433.945 48.9588 434.301 49.4873 434.535 50.0654C434.774 50.6436 434.897 51.2714 434.903 51.9488ZM429.997 48.8741C429.565 48.8741 429.162 48.9559 428.788 49.1194C428.414 49.2829 428.09 49.5048 427.816 49.7851C427.541 50.0596 427.322 50.3837 427.159 50.7575C427.001 51.1312 426.922 51.5283 426.922 51.9488C426.922 52.3693 427.001 52.7664 427.159 53.1402C427.322 53.5139 427.541 53.841 427.816 54.1213C428.09 54.3958 428.414 54.6148 428.788 54.7783C429.162 54.9418 429.565 55.0236 429.997 55.0236C430.423 55.0236 430.823 54.9418 431.197 54.7783C431.571 54.6148 431.895 54.3928 432.17 54.1125C432.45 53.8322 432.669 53.5081 432.827 53.1402C432.99 52.7664 433.072 52.3693 433.072 51.9488C433.072 51.5283 432.99 51.1342 432.827 50.7662C432.669 50.3925 432.45 50.0654 432.17 49.7851C431.895 49.5048 431.571 49.2829 431.197 49.1194C430.823 48.9559 430.423 48.8741 429.997 48.8741ZM445.398 51.9488C445.398 53.3154 444.919 54.4717 443.961 55.4177C442.992 56.3755 441.835 56.8544 440.492 56.8544C439.137 56.8544 437.981 56.3755 437.023 55.4177C436.065 54.46 435.587 53.3037 435.587 51.9488C435.587 50.594 436.065 49.4377 437.023 48.4799C437.981 47.5222 439.137 47.0433 440.492 47.0433C441.835 47.0433 442.992 47.5222 443.961 48.4799C444.44 48.9588 444.796 49.4873 445.03 50.0654C445.269 50.6436 445.392 51.2714 445.398 51.9488ZM440.492 48.8741C440.06 48.8741 439.657 48.9559 439.283 49.1194C438.91 49.2829 438.585 49.5048 438.311 49.7851C438.036 50.0596 437.817 50.3837 437.654 50.7575C437.496 51.1312 437.417 51.5283 437.417 51.9488C437.417 52.3693 437.496 52.7664 437.654 53.1402C437.817 53.5139 438.036 53.841 438.311 54.1213C438.585 54.3958 438.91 54.6148 439.283 54.7783C439.657 54.9418 440.06 55.0236 440.492 55.0236C440.918 55.0236 441.318 54.9418 441.692 54.7783C442.066 54.6148 442.39 54.3928 442.665 54.1125C442.945 53.8322 443.164 53.5081 443.322 53.1402C443.485 52.7664 443.567 52.3693 443.567 51.9488C443.567 51.5283 443.485 51.1342 443.322 50.7662C443.164 50.3925 442.945 50.0654 442.665 49.7851C442.39 49.5048 442.066 49.2829 441.692 49.1194C441.318 48.9559 440.918 48.8741 440.492 48.8741ZM454.062 51.9488C454.062 51.5283 453.98 51.1342 453.817 50.7662C453.659 50.3925 453.44 50.0654 453.16 49.7851C452.885 49.5048 452.561 49.2829 452.187 49.1194C451.814 48.9559 451.414 48.8741 450.987 48.8741C450.555 48.8741 450.152 48.9559 449.778 49.1194C449.405 49.2829 449.08 49.5048 448.806 49.7851C448.532 50.0596 448.313 50.3837 448.149 50.7575C447.991 51.1312 447.912 51.5283 447.912 51.9488C447.912 52.3693 447.991 52.7664 448.149 53.1402C448.313 53.5139 448.532 53.841 448.806 54.1213C449.08 54.3958 449.405 54.6148 449.778 54.7783C450.152 54.9418 450.555 55.0236 450.987 55.0236C451.414 55.0236 451.814 54.9418 452.187 54.7783C452.561 54.6148 452.885 54.3928 453.16 54.1125C453.44 53.8322 453.659 53.5081 453.817 53.1402C453.98 52.7664 454.062 52.3693 454.062 51.9488ZM450.987 47.0433C452.149 47.0433 453.174 47.4024 454.062 48.1207V43.7496C454.062 43.4868 454.147 43.2707 454.316 43.1013C454.491 42.9261 454.71 42.8385 454.973 42.8385C455.23 42.8385 455.446 42.9261 455.621 43.1013C455.802 43.2707 455.893 43.4868 455.893 43.7496V51.9488C455.893 53.3154 455.414 54.4717 454.456 55.4177C453.487 56.3755 452.33 56.8544 450.987 56.8544C449.632 56.8544 448.476 56.3755 447.518 55.4177C446.561 54.46 446.082 53.3037 446.082 51.9488C446.082 50.594 446.561 49.4377 447.518 48.4799C448.476 47.5222 449.632 47.0433 450.987 47.0433ZM459.056 45.3001C459.056 45.5979 458.951 45.8519 458.74 46.0622C458.53 46.2724 458.276 46.3775 457.978 46.3775C457.68 46.3775 457.426 46.2724 457.216 46.0622C457.006 45.8519 456.901 45.5979 456.901 45.3001C456.901 45.0022 457.006 44.7482 457.216 44.5379C457.426 44.3277 457.68 44.2226 457.978 44.2226C458.276 44.2226 458.53 44.3277 458.74 44.5379C458.951 44.7482 459.056 45.0022 459.056 45.3001ZM457.067 55.9346V47.9631C457.067 47.7061 457.155 47.49 457.33 47.3148C457.511 47.1338 457.727 47.0433 457.978 47.0433C458.229 47.0433 458.443 47.1338 458.618 47.3148C458.799 47.49 458.892 47.7061 458.898 47.9631V55.9346C458.892 56.1915 458.799 56.4105 458.618 56.5916C458.443 56.7668 458.229 56.8544 457.978 56.8544C457.727 56.8544 457.511 56.7668 457.33 56.5916C457.155 56.4105 457.067 56.1915 457.067 55.9346ZM461.886 47.9455C462.663 47.344 463.577 47.0433 464.628 47.0433C465.241 47.0433 465.822 47.163 466.371 47.4024C466.926 47.6419 467.413 47.9689 467.834 48.3835C468.254 48.7923 468.587 49.2771 468.833 49.8377C469.078 50.3925 469.2 50.9852 469.2 51.6159V55.9346C469.2 56.1915 469.11 56.4105 468.929 56.5916C468.754 56.7668 468.541 56.8544 468.289 56.8544C468.032 56.8544 467.813 56.7668 467.632 56.5916C467.457 56.4105 467.37 56.1915 467.37 55.9346V51.6159C467.37 51.2422 467.297 50.8889 467.151 50.556C467.005 50.2231 466.806 49.934 466.555 49.6888C466.31 49.4377 466.021 49.2391 465.688 49.0931C465.355 48.9471 465.002 48.8741 464.628 48.8741C464.248 48.8741 463.892 48.9471 463.559 49.0931C463.232 49.2333 462.943 49.4289 462.692 49.68C462.441 49.9311 462.242 50.2231 462.096 50.556C461.956 50.8889 461.886 51.2422 461.886 51.6159V55.9346C461.886 56.1915 461.795 56.4105 461.614 56.5916C461.439 56.7668 461.226 56.8544 460.975 56.8544C460.718 56.8544 460.499 56.7668 460.318 56.5916C460.143 56.4105 460.055 56.1915 460.055 55.9346V47.9631C460.055 47.712 460.143 47.4959 460.318 47.3148C460.499 47.1338 460.718 47.0433 460.975 47.0433C461.226 47.0433 461.439 47.1338 461.614 47.3148C461.795 47.4959 461.886 47.7061 461.886 47.9455ZM474.764 48.8741C474.332 48.8741 473.929 48.9559 473.555 49.1194C473.181 49.2829 472.857 49.5048 472.582 49.7851C472.308 50.0596 472.089 50.3837 471.925 50.7575C471.768 51.1312 471.689 51.5283 471.689 51.9488C471.689 52.3693 471.768 52.7664 471.925 53.1402C472.089 53.5139 472.308 53.841 472.582 54.1213C472.857 54.3958 473.181 54.6148 473.555 54.7783C473.929 54.9418 474.332 55.0236 474.764 55.0236C475.19 55.0236 475.59 54.9418 475.964 54.7783C476.338 54.6148 476.662 54.3928 476.936 54.1125C477.216 53.8322 477.435 53.5081 477.593 53.1402C477.757 52.7664 477.838 52.3693 477.838 51.9488C477.838 51.5283 477.757 51.1342 477.593 50.7662C477.435 50.3925 477.216 50.0654 476.936 49.7851C476.662 49.5048 476.338 49.2829 475.964 49.1194C475.59 48.9559 475.19 48.8741 474.764 48.8741ZM477.838 55.7769C476.962 56.4952 475.938 56.8544 474.764 56.8544C473.409 56.8544 472.253 56.3755 471.295 55.4177C470.337 54.46 469.858 53.3037 469.858 51.9488C469.858 50.594 470.337 49.4377 471.295 48.4799C472.253 47.5222 473.409 47.0433 474.764 47.0433C476.107 47.0433 477.263 47.5222 478.233 48.4799C479.19 49.4377 479.669 50.594 479.669 51.9488V56.8193C479.669 57.2398 479.605 57.6369 479.477 58.0107C479.348 58.3844 479.17 58.7261 478.942 59.0356C478.714 59.3509 478.446 59.6342 478.136 59.8853C477.827 60.1364 477.491 60.3467 477.129 60.516C476.773 60.6912 476.399 60.8255 476.008 60.919C475.616 61.0124 475.225 61.0591 474.834 61.0591C474.367 61.0591 473.908 60.9978 473.458 60.8752C473.009 60.7584 472.582 60.5832 472.18 60.3496C471.777 60.116 471.406 59.8269 471.067 59.4823C470.734 59.1378 470.451 58.7523 470.217 58.326C470.124 58.1917 470.077 58.0282 470.077 57.8355C470.077 57.5727 470.165 57.3537 470.34 57.1785C470.515 57.0091 470.734 56.9244 470.997 56.9244C471.172 56.9244 471.315 56.9653 471.426 57.0471C471.543 57.1288 471.701 57.3099 471.899 57.5902C472.098 57.8705 472.273 58.0837 472.425 58.2297C473.091 58.8954 473.894 59.2283 474.834 59.2283C475.78 59.2283 476.58 58.9013 477.234 58.2472C477.637 57.7566 477.838 57.2807 477.838 56.8193V55.7769Z" fill="#002B51"/>
<ellipse cx="465.55" cy="46.621" rx="1.64402" ry="1.66526" fill="#FF715C"/>
<path d="M386.728 48.4332C386.518 48.103 386.614 47.6623 386.942 47.4488L387.36 47.1766C387.688 46.9632 388.123 47.0579 388.333 47.3881L389.329 48.9577C389.539 49.2879 389.443 49.7286 389.115 49.9421L388.697 50.2143C388.369 50.4277 387.934 50.333 387.724 50.0028L386.728 48.4332Z" fill="#002B51"/>
<path d="M380.593 52.5144C381.288 53.3588 383.037 52.8419 383.017 51.549" stroke="#002B51" stroke-width="0.94163" stroke-linecap="round"/>
<path d="M262.592 135.763L262.794 139.457" stroke="#FFC43D" stroke-width="1.04787" stroke-linecap="round"/>
<path d="M271.505 136.584L269.899 140.173" stroke="#74CADD" stroke-width="1.04787" stroke-linecap="round"/>
<path d="M277.583 143.15L273.801 145.001" stroke="#FFC43D" stroke-width="1.04787" stroke-linecap="round"/>
<path d="M212.876 235.283H72.7756C72.7756 241.317 76.5579 242.721 78.449 242.669H207.045C212.592 242.543 213.244 237.693 212.876 235.283Z" fill="#002B51"/>
<path d="M78.4479 160.208V234.436C78.4479 236.944 80.4808 238.977 82.9886 238.977H202.342C204.85 238.977 206.883 236.944 206.883 234.436V160.208C206.883 157.7 204.85 155.667 202.342 155.667H82.9886C80.4808 155.667 78.4479 157.7 78.4479 160.208Z" fill="#002B51"/>
<path d="M203.236 162.233H81.6892V235.283H203.236V162.233Z" fill="white"/>
<path d="M130.266 238.156L128.687 235.694H142.26H155.833L154.413 238.156H130.266Z" fill="#74CADD"/>
<ellipse cx="228.095" cy="204.341" rx="40.6884" ry="41.2141" fill="#FF715C"/>
<path d="M219.712 190.03C219.712 189.127 220.445 188.394 221.348 188.394V188.394C222.251 188.394 222.984 189.127 222.984 190.03V194.214C222.984 195.117 222.251 195.85 221.348 195.85V195.85C220.445 195.85 219.712 195.117 219.712 194.214V190.03Z" fill="#002B51"/>
<path d="M201.311 190.24C201.311 189.449 201.951 188.808 202.742 188.808V188.808C203.532 188.808 204.173 189.449 204.173 190.24V194.419C204.173 195.209 203.532 195.85 202.742 195.85V195.85C201.951 195.85 201.311 195.209 201.311 194.419V190.24Z" fill="#002B51"/>
<path d="M210.102 216.789C209.216 216.236 207.117 215.298 205.809 215.96" stroke="#002B51" stroke-width="1.39716"/>
<path d="M220.289 203.927C220.289 206.951 217.172 209.648 212.989 209.648C208.807 209.648 205.69 206.951 205.69 203.927C205.69 200.902 208.807 198.205 212.989 198.205C217.172 198.205 220.289 200.902 220.289 203.927Z" stroke="#002B51" stroke-width="1.39716"/>
<path d="M219.208 206.457C215.193 199.674 208.009 202.757 205.685 205.429C204.839 199.879 210.192 198.989 211.601 198.852C218.271 197.897 221.11 202.757 219.208 206.457Z" fill="#002B51"/>
<path d="M199.59 186.446C200.979 184.53 204.174 182.997 206.882 186.446" stroke="#002B51" stroke-width="1.39716" stroke-linecap="round"/>
<path d="M217.822 182.56C219.759 181.438 224.255 181.612 226.33 184.805" stroke="#002B51" stroke-width="1.39716" stroke-linecap="round"/>
<path d="M260.363 276.733L248.631 239.797L221.873 244.204L227.431 271.696C224.302 271.36 222.422 274.914 221.873 276.733H260.363Z" fill="#FF715C"/>
<path d="M234.433 242.67L240.511 271.337C239.008 271.821 237.57 273.414 237.57 276.322" stroke="#002B51" stroke-width="1.39716"/>
<path d="M280.796 213.531C294.111 199.435 273.218 194.252 261.107 193.423L258.062 207.519L267.196 208.97L254.409 219.957C249.05 225.098 252.176 230.252 254.409 232.187C260.579 237.825 265.505 233.293 267.196 230.321C268.617 226.383 265.843 223.964 263.137 223.066C270.119 222.569 277.819 216.502 280.796 213.531Z" fill="#FF715C"/>
<path d="M246.993 204.504L269.277 208.462L252.26 218.047C250.197 220.13 248.974 228.003 254.421 232.837C261.23 238.878 273.404 230.128 263.912 224.087" stroke="#002B51" stroke-width="1.39716"/>
<path d="M195.312 229.785C175.763 222.662 179.305 204.108 187.584 202.452L201.39 227.822C201.657 227.59 201.702 227.538 201.444 227.922L201.39 227.822C201.08 228.09 200.474 228.601 199.698 228.957C197.894 229.785 197.267 230.2 195.312 229.785Z" fill="#FF715C"/>
<path d="M195.336 229.039C197.969 229.664 205.373 226.769 207.112 225.944C210.161 224.954 210.255 219.48 209.921 216.867C212.489 215.711 210.991 214.047 209.921 213.359C205.106 208.903 197.883 213.841 194.874 216.867C192.935 216.523 189.056 214.143 189.056 207.377" stroke="#002B51" stroke-width="1.39716"/>
<rect width="8.39255" height="11.9606" rx="3.84218" transform="matrix(0.969412 0.24544 -0.23958 0.970877 258.509 156.144)" fill="#74CADD"/>
<ellipse rx="9.15551" ry="9.25981" transform="matrix(0.969412 0.24544 -0.23958 0.970877 263.963 151.555)" fill="#FFC43D"/>
<path d="M259.711 158.438C261.19 154.567 262.114 144.719 258.185 146.311C252.042 148.8 266.643 154.59 266.643 149.511C266.643 145.202 262.186 145.936 262.187 149.12C262.187 152.304 269.88 154.645 271.498 152.866C273.116 151.086 270.897 147.664 269.279 149.12C265.835 152.217 264.811 156.612 264.333 159.608" stroke="#002B51" stroke-width="0.698578" stroke-linecap="round"/>
<path d="M258.879 161.014C259.246 161.429 260.686 162.397 263.507 162.957" stroke="#002B51" stroke-width="0.698578" stroke-linecap="round"/>
<path d="M258.232 163.636C258.562 164.202 259.932 165.455 262.771 165.942" stroke="#002B51" stroke-width="0.698578" stroke-linecap="round"/>
<rect x="102.221" y="172.278" width="58.7619" height="41.6354" rx="2.09573" fill="#74CADD" stroke="#74CADD" stroke-width="1.74645"/>
<rect x="100.484" y="169.639" width="58.7619" height="41.6354" rx="2.09573" fill="white" stroke="#002B51" stroke-width="1.74645"/>
<path d="M155.338 172.278L151.575 175.503M151.575 172.278L155.338 175.503" stroke="#002B51" stroke-width="0.698578" stroke-linecap="round"/>
<rect x="106.563" y="176.969" width="33.8677" height="13.4875" rx="6.74377" fill="#FFC43D"/>
<rect x="106.563" y="192.216" width="33.8677" height="2.34566" rx="1.17283" fill="#74CADD"/>
<rect x="106.563" y="196.321" width="33.8677" height="2.34566" rx="1.17283" fill="#74CADD"/>
<rect x="121.371" y="180.609" width="58.3667" height="43.4618" rx="6.2872" fill="#002B51"/>
<rect x="119.327" y="178.543" width="58.3667" height="43.4618" rx="6.2872" fill="#74CADD"/>
<path d="M130.684 208.902C133.883 201.981 141.371 190.868 145.74 201.784C151.202 215.428 155.482 203.415 156.663 201.784C157.844 200.152 164.044 179.982 172.014 202.673" stroke="white" stroke-width="1.04787" stroke-linecap="round"/>
<path d="M130.684 211.139C133.799 208.179 141.157 203.371 145.666 207.827C151.302 213.397 155.307 208.128 156.642 206.472C157.977 204.817 159.164 204.064 162.427 204.666C166.084 205.341 170.14 194.73 170.437 192.924" stroke="#002B51" stroke-width="1.04787" stroke-linecap="round"/>
<ellipse cx="164.443" cy="191.965" rx="1.5774" ry="1.59778" fill="#FF715C"/>
<path d="M126.267 207.304L128.453 208.583V211.139L126.267 212.417L124.082 211.139V208.583L126.267 207.304Z" fill="#002B51"/>
<path d="M126.216 198.633L128.74 201.189L126.216 203.746L123.693 201.189L126.216 198.633Z" fill="white"/>
<ellipse cx="126.206" cy="192.951" rx="2.12736" ry="2.15484" fill="#FF715C"/>
<line y1="-0.349289" x2="48.3512" y2="-0.349289" transform="matrix(1 0.000194469 -0.00018954 1 124.853 215.481)" stroke="#F3F3F3" stroke-width="0.698578"/>
<defs>
<filter id="filter0_d_246_726" x="0.305252" y="0" width="607.389" height="427.389" filterUnits="userSpaceOnUse" color-interpolation-filters="sRGB">
<feFlood flood-opacity="0" result="BackgroundImageFix"/>
<feColorMatrix in="SourceAlpha" type="matrix" values="0 0 0 0 0 0 0 0 0 0 0 0 0 0 0 0 0 0 127 0" result="hardAlpha"/>
<feOffset dy="3.69475"/>
<feGaussianBlur stdDeviation="1.84737"/>
<feComposite in2="hardAlpha" operator="out"/>
<feColorMatrix type="matrix" values="0 0 0 0 0 0 0 0 0 0 0 0 0 0 0 0 0 0 0.25 0"/>
<feBlend mode="normal" in2="BackgroundImageFix" result="effect1_dropShadow_246_726"/>
<feBlend mode="normal" in="SourceGraphic" in2="effect1_dropShadow_246_726" result="shape"/>
</filter>
<filter id="filter1_d_246_726" x="12.0909" y="10.0906" width="584.889" height="403.514" filterUnits="userSpaceOnUse" color-interpolation-filters="sRGB">
<feFlood flood-opacity="0" result="BackgroundImageFix"/>
<feColorMatrix in="SourceAlpha" type="matrix" values="0 0 0 0 0 0 0 0 0 0 0 0 0 0 0 0 0 0 127 0" result="hardAlpha"/>
<feOffset dy="1.84737"/>
<feGaussianBlur stdDeviation="1.84737"/>
<feComposite in2="hardAlpha" operator="out"/>
<feColorMatrix type="matrix" values="0 0 0 0 0 0 0 0 0 0 0 0 0 0 0 0 0 0 0.25 0"/>
<feBlend mode="normal" in2="BackgroundImageFix" result="effect1_dropShadow_246_726"/>
<feBlend mode="normal" in="SourceGraphic" in2="effect1_dropShadow_246_726" result="shape"/>
</filter>
<linearGradient id="paint0_linear_246_726" x1="304" y1="0" x2="317.838" y2="464.376" gradientUnits="userSpaceOnUse">
<stop stop-color="#FFC0B7"/>
<stop offset="1" stop-color="#609FD7"/>
</linearGradient>
</defs>
</svg>
