<svg width="398" height="285" viewBox="0 0 398 285" fill="none" xmlns="http://www.w3.org/2000/svg">
<path d="M175.375 0.544434H379.222C389.05 0.544434 397.018 7.62012 397.018 16.3484V247.661C397.018 256.389 389.05 263.465 379.222 263.465H175.375C165.547 263.465 157.579 256.389 157.579 247.661V16.3484C157.579 7.62012 165.547 0.544434 175.375 0.544434Z" fill="#002B51"/>
<ellipse cx="92.0919" cy="181.869" rx="92.0919" ry="81.5962" fill="#FFC43D"/>
<path d="M354.664 20.4902H150.818C140.989 20.4902 133.021 27.5172 133.021 36.1853V265.903C133.021 274.571 140.989 281.598 150.818 281.598H354.664C364.493 281.598 372.46 274.571 372.46 265.903V36.1853C372.46 27.5172 364.493 20.4902 354.664 20.4902Z" fill="#74CADD"/>
<path d="M311.066 263.466C332.54 263.466 349.949 248.041 349.949 229.014C349.949 209.987 332.54 194.562 311.066 194.562C289.591 194.562 272.183 209.987 272.183 229.014C272.183 248.041 289.591 263.466 311.066 263.466Z" fill="#FF715C"/>
<path d="M163.719 254.399H251.718" stroke="#002B51" stroke-width="6.61142" stroke-linecap="round"/>
<path d="M259.904 112.966H345.856" stroke="#002B51" stroke-width="6.61142" stroke-linecap="round"/>
<path d="M259.904 141.978H345.856" stroke="#002B51" stroke-width="6.61142" stroke-linecap="round"/>
<path d="M259.904 172.803H345.856" stroke="#002B51" stroke-width="6.61142" stroke-linecap="round"/>
<path d="M165.765 229.014H251.718" stroke="#002B51" stroke-width="6.61142" stroke-linecap="round"/>
<path d="M259.904 83.9539H345.856" stroke="#002B51" stroke-width="6.61142" stroke-linecap="round"/>
<path d="M163.719 203.628H251.718" stroke="#002B51" stroke-width="6.61142" stroke-linecap="round"/>
<path d="M259.904 54.9421H345.856" stroke="#002B51" stroke-width="6.61142" stroke-linecap="round"/>
<path d="M241.485 54.9421H163.719V174.617H241.485V54.9421Z" fill="white"/>
<path d="M114 123.001C114 135.18 126.537 139.419 132.806 140.016V109.568C135.492 107.478 142.657 102.583 149.821 99.7173C158.776 96.1352 161.463 92.5531 161.463 86.2845C161.463 81.2696 155.492 79.4188 152.507 79.1203C165.94 72.8517 166.836 71.9562 165.94 63.8965C165.224 57.4487 156.686 57.0308 152.507 57.6278C153.701 57.3293 156.089 55.4786 156.089 50.4637C156.089 45.4488 150.119 43.5982 147.134 43.2997C126.358 40.4341 116.388 58.8221 114 68.3743V123.001Z" fill="#FFC43D"/>
<path d="M152.508 57.6277C145.045 58.5232 129.224 62.1053 125.642 69.2694" stroke="#002B51" stroke-width="6.13946" stroke-linecap="round"/>
<path d="M150.716 79.1204C144.448 80.0159 130.478 84.1353 124.746 93.4487" stroke="#002B51" stroke-width="6.13946" stroke-linecap="round"/>
<path d="M152.173 156.095C142.074 154.666 125.723 169.786 118.81 177.525L92.661 215.921C93.2622 224.85 81.5958 246.991 80.1531 256.278C78.3497 267.886 92.6612 284.677 113.4 284.677C124.314 284.677 135.943 281.105 140.451 278.426V219.493C141.353 219.195 145.861 216.635 156.682 208.778C170.207 198.955 171.587 199.482 169.306 192.705C167.502 187.347 159.687 187.943 154.878 189.133C160.289 187.347 166.601 187.347 169.306 179.311C171.47 172.882 160.589 169.489 154.878 168.596C160.649 168.596 162.693 165.024 162.994 163.238C163.595 161.452 162.272 157.523 152.173 156.095Z" fill="#FFC43D"/>
<path d="M130.883 163C123.046 167.106 98.149 180.42 97.4256 193.793C96.7022 207.166 93.5071 241.595 92 257.138" stroke="#002B51" stroke-width="6.13946" stroke-linecap="round"/>
<path d="M153.511 172C147.508 172.525 137.074 176.639 131 182.232" stroke="#002B51" stroke-width="6.13946" stroke-linecap="round"/>
<path d="M155.372 189C151.279 189.63 142.274 192.967 139 201.279" stroke="#002B51" stroke-width="6.13946" stroke-linecap="round"/>
<path d="M58 179.776C65.4627 182.164 81.6417 184.253 86.6566 173.507" stroke="#002B51" stroke-width="6.13946" stroke-linecap="round"/>
<path d="M80.3879 135L91.1342 144.851" stroke="#002B51" stroke-width="6.13946" stroke-linecap="round"/>
<path d="M58 146.642L68.7462 156.492" stroke="#002B51" stroke-width="6.13946" stroke-linecap="round"/>
</svg>
