<svg width="149" height="29" viewBox="0 0 149 29" fill="none" xmlns="http://www.w3.org/2000/svg">
<path d="M12.967 2.85409C13.2466 1.9714 14.4957 1.9714 14.7753 2.85409L16.7757 9.16846C16.9005 9.56263 17.2664 9.83048 17.6798 9.83048H24.2032C25.1162 9.83048 25.502 10.9939 24.77 11.5395L19.4514 15.5027C19.1274 15.7441 18.992 16.1644 19.114 16.5496L21.1357 22.9313C21.4139 23.8093 20.4034 24.5286 19.6648 23.9782L14.4379 20.0833C14.1016 19.8327 13.6407 19.8327 13.3044 20.0833L8.07747 23.9782C7.3389 24.5286 6.32841 23.8093 6.60658 22.9313L8.62827 16.5496C8.75031 16.1644 8.61485 15.7441 8.29082 15.5027L2.9723 11.5395C2.24023 10.9939 2.62605 9.83048 3.53902 9.83048H10.0624C10.4759 9.83048 10.8417 9.56263 10.9666 9.16846L12.967 2.85409Z" fill="#FFC43D"/>
<path d="M43.3248 2.77617C43.6087 1.90235 44.8449 1.90235 45.1288 2.77617L47.208 9.17511C47.335 9.5659 47.6991 9.83048 48.11 9.83048H54.8383C55.757 9.83048 56.1391 11.0062 55.3957 11.5462L49.9525 15.501C49.6201 15.7425 49.481 16.1706 49.6079 16.5614L51.6871 22.9604C51.971 23.8342 50.9709 24.5608 50.2276 24.0208L44.7843 20.066C44.4519 19.8245 44.0017 19.8245 43.6693 20.066L38.2261 24.0208C37.4827 24.5608 36.4826 23.8342 36.7665 22.9604L38.8457 16.5614C38.9726 16.1706 38.8335 15.7425 38.5011 15.501L33.0579 11.5463C32.3145 11.0062 32.6966 9.83048 33.6153 9.83048H40.3436C40.7545 9.83048 41.1187 9.5659 41.2456 9.17511L43.3248 2.77617Z" fill="#FFC43D"/>
<path d="M73.3248 2.77617C73.6087 1.90235 74.8449 1.90235 75.1288 2.77617L77.208 9.17511C77.335 9.5659 77.6991 9.83048 78.11 9.83048H84.8383C85.757 9.83048 86.1391 11.0062 85.3957 11.5462L79.9525 15.501C79.6201 15.7425 79.481 16.1706 79.6079 16.5614L81.6871 22.9604C81.971 23.8342 80.9709 24.5608 80.2276 24.0208L74.7843 20.066C74.4519 19.8245 74.0017 19.8245 73.6693 20.066L68.2261 24.0208C67.4827 24.5608 66.4826 23.8342 66.7665 22.9604L68.8457 16.5614C68.9726 16.1706 68.8335 15.7425 68.5011 15.501L63.0579 11.5463C62.3145 11.0062 62.6966 9.83048 63.6153 9.83048H70.3436C70.7545 9.83048 71.1187 9.5659 71.2456 9.17511L73.3248 2.77617Z" fill="#FFC43D"/>
<path d="M102.967 2.85409C103.247 1.9714 104.496 1.9714 104.775 2.85409L106.776 9.16846C106.901 9.56263 107.266 9.83048 107.68 9.83048H114.203C115.116 9.83048 115.502 10.9939 114.77 11.5395L109.451 15.5027C109.127 15.7441 108.992 16.1644 109.114 16.5496L111.136 22.9313C111.414 23.8093 110.403 24.5286 109.665 23.9782L104.438 20.0833C104.102 19.8327 103.641 19.8327 103.304 20.0833L98.0775 23.9782C97.3389 24.5286 96.3284 23.8093 96.6066 22.9313L98.6283 16.5496C98.7503 16.1644 98.6149 15.7441 98.2908 15.5027L92.9723 11.5395C92.2402 10.9939 92.6261 9.83048 93.539 9.83048H100.062C100.476 9.83048 100.842 9.56263 100.967 9.16846L102.967 2.85409Z" fill="#FFC43D"/>
<path d="M133.325 2.77617C133.609 1.90235 134.845 1.90235 135.129 2.77617L137.208 9.17511C137.335 9.5659 137.699 9.83048 138.11 9.83048H144.838C145.757 9.83048 146.139 11.0062 145.396 11.5462L139.952 15.501C139.62 15.7425 139.481 16.1706 139.608 16.5614L141.687 22.9604C141.971 23.8342 140.971 24.5608 140.228 24.0208L134.784 20.066C134.452 19.8245 134.002 19.8245 133.669 20.066L128.226 24.0208C127.483 24.5608 126.483 23.8342 126.767 22.9604L128.846 16.5614C128.973 16.1706 128.834 15.7425 128.501 15.501L123.058 11.5463C122.315 11.0062 122.697 9.83048 123.615 9.83048H130.344C130.754 9.83048 131.119 9.5659 131.246 9.17511L133.325 2.77617Z" fill="#B8B8B8"/>
</svg>
