<svg width="149" height="29" viewBox="0 0 149 29" fill="none" xmlns="http://www.w3.org/2000/svg">
<path d="M12.9669 2.85391C13.2465 1.97122 14.4956 1.97122 14.7752 2.85391L16.7756 9.16828C16.9004 9.56245 17.2663 9.8303 17.6797 9.8303H24.2031C25.1161 9.8303 25.5019 10.9937 24.7699 11.5393L19.4513 15.5025C19.1273 15.7439 18.9919 16.1642 19.1139 16.5494L21.1356 22.9311C21.4138 23.8091 20.4033 24.5284 19.6647 23.978L14.4378 20.0831C14.1015 19.8325 13.6406 19.8325 13.3043 20.0831L8.07737 23.978C7.3388 24.5284 6.32831 23.8091 6.60648 22.9311L8.62817 16.5494C8.75021 16.1642 8.61475 15.7439 8.29072 15.5025L2.9722 11.5393C2.24013 10.9937 2.62595 9.8303 3.53892 9.8303H10.0623C10.4758 9.8303 10.8416 9.56245 10.9665 9.16828L12.9669 2.85391Z" fill="#FFC43D"/>
<path d="M43.3248 2.77597C43.6087 1.90215 44.8449 1.90215 45.1288 2.77597L47.208 9.17491C47.335 9.5657 47.6991 9.83028 48.11 9.83028H54.8383C55.757 9.83028 56.1391 11.006 55.3957 11.546L49.9525 15.5008C49.6201 15.7423 49.481 16.1704 49.6079 16.5612L51.6871 22.9602C51.971 23.834 50.9709 24.5606 50.2276 24.0206L44.7843 20.0658C44.4519 19.8243 44.0017 19.8243 43.6693 20.0658L38.2261 24.0206C37.4827 24.5606 36.4826 23.834 36.7665 22.9602L38.8457 16.5612C38.9726 16.1704 38.8335 15.7423 38.5011 15.5008L33.0579 11.5461C32.3145 11.006 32.6966 9.83028 33.6153 9.83028H40.3436C40.7545 9.83028 41.1187 9.5657 41.2456 9.17491L43.3248 2.77597Z" fill="#FFC43D"/>
<path d="M73.3248 2.77597C73.6087 1.90215 74.8449 1.90215 75.1288 2.77597L77.208 9.17491C77.335 9.5657 77.6991 9.83028 78.11 9.83028H84.8383C85.757 9.83028 86.1391 11.006 85.3957 11.546L79.9525 15.5008C79.6201 15.7423 79.481 16.1704 79.6079 16.5612L81.6871 22.9602C81.971 23.834 80.9709 24.5606 80.2276 24.0206L74.7843 20.0658C74.4519 19.8243 74.0017 19.8243 73.6693 20.0658L68.2261 24.0206C67.4827 24.5606 66.4826 23.834 66.7665 22.9602L68.8457 16.5612C68.9726 16.1704 68.8335 15.7423 68.5011 15.5008L63.0579 11.5461C62.3145 11.006 62.6966 9.83028 63.6153 9.83028H70.3436C70.7545 9.83028 71.1187 9.5657 71.2456 9.17491L73.3248 2.77597Z" fill="#FFC43D"/>
<path d="M102.967 2.85391C103.247 1.97122 104.496 1.97122 104.775 2.85391L106.776 9.16828C106.901 9.56245 107.266 9.8303 107.68 9.8303H114.203C115.116 9.8303 115.502 10.9937 114.77 11.5393L109.451 15.5025C109.127 15.7439 108.992 16.1642 109.114 16.5494L111.136 22.9311C111.414 23.8091 110.403 24.5284 109.665 23.978L104.438 20.0831C104.102 19.8325 103.641 19.8325 103.304 20.0831L98.0774 23.978C97.3388 24.5284 96.3283 23.8091 96.6065 22.9311L98.6282 16.5494C98.7502 16.1642 98.6148 15.7439 98.2907 15.5025L92.9722 11.5393C92.2401 10.9937 92.626 9.8303 93.5389 9.8303H100.062C100.476 9.8303 100.842 9.56245 100.967 9.16828L102.967 2.85391Z" fill="#FFC43D"/>
<path d="M133.325 2.77597C133.609 1.90215 134.845 1.90215 135.129 2.77597L137.208 9.17491C137.335 9.5657 137.699 9.83028 138.11 9.83028H144.838C145.757 9.83028 146.139 11.006 145.396 11.546L139.952 15.5008C139.62 15.7423 139.481 16.1704 139.608 16.5612L141.687 22.9602C141.971 23.834 140.971 24.5606 140.228 24.0206L134.784 20.0658C134.452 19.8243 134.002 19.8243 133.669 20.0658L128.226 24.0206C127.483 24.5606 126.483 23.834 126.767 22.9602L128.846 16.5612C128.973 16.1704 128.834 15.7423 128.501 15.5008L123.058 11.5461C122.315 11.006 122.697 9.83028 123.615 9.83028H130.344C130.754 9.83028 131.119 9.5657 131.246 9.17491L133.325 2.77597Z" fill="#FFC43D"/>
</svg>
