<svg width="114" height="58" viewBox="0 0 114 58" fill="none" xmlns="http://www.w3.org/2000/svg">
<path d="M6.80114 6.36364C6.74148 5.85985 6.49953 5.46875 6.07528 5.19034C5.65104 4.91193 5.13068 4.77273 4.5142 4.77273C4.06345 4.77273 3.66903 4.84564 3.33097 4.99148C2.99621 5.13731 2.73438 5.33783 2.54545 5.59304C2.35985 5.84825 2.26705 6.13826 2.26705 6.46307C2.26705 6.73485 2.33168 6.96851 2.46094 7.16406C2.59351 7.3563 2.76255 7.51705 2.96804 7.64631C3.17353 7.77225 3.38897 7.87666 3.61435 7.95952C3.83973 8.03906 4.04688 8.10369 4.2358 8.15341L5.26989 8.43182C5.53504 8.50142 5.83002 8.59754 6.15483 8.72017C6.48295 8.8428 6.79616 9.01018 7.09446 9.2223C7.39607 9.43111 7.64465 9.69957 7.8402 10.0277C8.03575 10.3558 8.13352 10.7585 8.13352 11.2358C8.13352 11.786 7.98935 12.2831 7.70099 12.7273C7.41596 13.1714 6.99834 13.5244 6.44815 13.7862C5.90128 14.0481 5.23674 14.179 4.45455 14.179C3.72538 14.179 3.09399 14.0613 2.56037 13.826C2.03007 13.5907 1.61245 13.2625 1.30753 12.8416C1.00592 12.4207 0.835227 11.9318 0.795455 11.375H2.06818C2.10133 11.7595 2.23059 12.0777 2.45597 12.3295C2.68466 12.5781 2.97301 12.7637 3.32102 12.8864C3.67235 13.0057 4.05019 13.0653 4.45455 13.0653C4.92519 13.0653 5.34777 12.9891 5.7223 12.8366C6.09683 12.6809 6.39347 12.4654 6.61222 12.1903C6.83097 11.9119 6.94034 11.5871 6.94034 11.2159C6.94034 10.8778 6.84588 10.6027 6.65696 10.3906C6.46804 10.1785 6.21946 10.0062 5.91122 9.87358C5.60298 9.741 5.26989 9.625 4.91193 9.52557L3.65909 9.16761C2.86364 8.93892 2.2339 8.61245 1.76989 8.18821C1.30587 7.76397 1.07386 7.20881 1.07386 6.52273C1.07386 5.95265 1.22798 5.45549 1.53622 5.03125C1.84777 4.60369 2.26539 4.27225 2.78906 4.03693C3.31605 3.7983 3.90436 3.67898 4.55398 3.67898C5.21023 3.67898 5.79356 3.79664 6.30398 4.03196C6.81439 4.26397 7.21875 4.58215 7.51705 4.98651C7.81866 5.39086 7.97775 5.8499 7.99432 6.36364H6.80114ZM19.4039 7H18.1709C18.098 6.64536 17.9704 6.33381 17.7881 6.06534C17.6091 5.79688 17.3904 5.5715 17.1319 5.3892C16.8766 5.2036 16.5933 5.06439 16.2817 4.97159C15.9702 4.87879 15.6453 4.83239 15.3073 4.83239C14.6908 4.83239 14.1323 4.98816 13.6319 5.29972C13.1347 5.61127 12.7386 6.07031 12.4436 6.67685C12.152 7.28338 12.0061 8.02746 12.0061 8.90909C12.0061 9.79072 12.152 10.5348 12.4436 11.1413C12.7386 11.7479 13.1347 12.2069 13.6319 12.5185C14.1323 12.83 14.6908 12.9858 15.3073 12.9858C15.6453 12.9858 15.9702 12.9394 16.2817 12.8466C16.5933 12.7538 16.8766 12.6162 17.1319 12.4339C17.3904 12.2483 17.6091 12.0213 17.7881 11.7528C17.9704 11.4811 18.098 11.1695 18.1709 10.8182H19.4039C19.3111 11.3385 19.142 11.8042 18.8968 12.2152C18.6515 12.6262 18.3466 12.9759 17.982 13.2642C17.6174 13.5492 17.2081 13.7663 16.754 13.9155C16.3033 14.0646 15.821 14.1392 15.3073 14.1392C14.4389 14.1392 13.6667 13.9271 12.9905 13.5028C12.3144 13.0786 11.7824 12.4754 11.3946 11.6932C11.0069 10.911 10.813 9.98295 10.813 8.90909C10.813 7.83523 11.0069 6.9072 11.3946 6.125C11.7824 5.3428 12.3144 4.73958 12.9905 4.31534C13.6667 3.8911 14.4389 3.67898 15.3073 3.67898C15.821 3.67898 16.3033 3.75355 16.754 3.9027C17.2081 4.05185 17.6174 4.2706 17.982 4.55895C18.3466 4.84399 18.6515 5.192 18.8968 5.60298C19.142 6.01065 19.3111 6.47633 19.4039 7ZM22.4462 14V3.81818H25.8866C26.682 3.81818 27.335 3.95407 27.8454 4.22585C28.3558 4.49432 28.7336 4.86387 28.9789 5.33452C29.2242 5.80516 29.3468 6.34044 29.3468 6.94034C29.3468 7.54025 29.2242 8.07221 28.9789 8.53622C28.7336 9.00024 28.3575 9.36482 27.8504 9.62997C27.3433 9.89181 26.6953 10.0227 25.9065 10.0227H23.1224V8.90909H25.8667C26.4103 8.90909 26.8478 8.82955 27.1792 8.67045C27.5139 8.51136 27.7559 8.28598 27.905 7.99432C28.0575 7.69934 28.1337 7.34801 28.1337 6.94034C28.1337 6.53267 28.0575 6.17637 27.905 5.87145C27.7526 5.56652 27.509 5.3312 27.1742 5.16548C26.8395 4.99645 26.397 4.91193 25.8468 4.91193H23.6792V14H22.4462ZM27.2389 9.42614L29.7445 14H28.3127L25.8468 9.42614H27.2389ZM41.0422 8.90909C41.0422 9.98295 40.8483 10.911 40.4605 11.6932C40.0728 12.4754 39.5408 13.0786 38.8647 13.5028C38.1885 13.9271 37.4163 14.1392 36.5479 14.1392C35.6795 14.1392 34.9073 13.9271 34.2311 13.5028C33.555 13.0786 33.023 12.4754 32.6353 11.6932C32.2475 10.911 32.0536 9.98295 32.0536 8.90909C32.0536 7.83523 32.2475 6.9072 32.6353 6.125C33.023 5.3428 33.555 4.73958 34.2311 4.31534C34.9073 3.8911 35.6795 3.67898 36.5479 3.67898C37.4163 3.67898 38.1885 3.8911 38.8647 4.31534C39.5408 4.73958 40.0728 5.3428 40.4605 6.125C40.8483 6.9072 41.0422 7.83523 41.0422 8.90909ZM39.849 8.90909C39.849 8.02746 39.7016 7.28338 39.4066 6.67685C39.1149 6.07031 38.7188 5.61127 38.2184 5.29972C37.7212 4.98816 37.1644 4.83239 36.5479 4.83239C35.9314 4.83239 35.373 4.98816 34.8725 5.29972C34.3753 5.61127 33.9792 6.07031 33.6843 6.67685C33.3926 7.28338 33.2468 8.02746 33.2468 8.90909C33.2468 9.79072 33.3926 10.5348 33.6843 11.1413C33.9792 11.7479 34.3753 12.2069 34.8725 12.5185C35.373 12.83 35.9314 12.9858 36.5479 12.9858C37.1644 12.9858 37.7212 12.83 38.2184 12.5185C38.7188 12.2069 39.1149 11.7479 39.4066 11.1413C39.7016 10.5348 39.849 9.79072 39.849 8.90909ZM44.1654 14V3.81818H45.3983V12.9062H50.1313V14H44.1654ZM53.0904 14V3.81818H54.3233V12.9062H59.0563V14H53.0904ZM70.1449 14H67.0029V3.81818H70.2841C71.2718 3.81818 72.117 4.02202 72.8196 4.42969C73.5223 4.83404 74.0609 5.41572 74.4354 6.17472C74.8099 6.9304 74.9972 7.83523 74.9972 8.8892C74.9972 9.94981 74.8083 10.8629 74.4304 11.6286C74.0526 12.3909 73.5024 12.9775 72.7799 13.3885C72.0573 13.7962 71.179 14 70.1449 14ZM68.2358 12.9062H70.0654C70.9072 12.9062 71.6049 12.7438 72.1584 12.419C72.7119 12.0942 73.1246 11.6319 73.3963 11.032C73.6681 10.4321 73.804 9.7178 73.804 8.8892C73.804 8.06723 73.6698 7.35961 73.4013 6.76633C73.1328 6.16974 72.7318 5.71236 72.1982 5.39418C71.6646 5.07268 71 4.91193 70.2046 4.91193H68.2358V12.9062ZM86.7063 8.90909C86.7063 9.98295 86.5124 10.911 86.1246 11.6932C85.7368 12.4754 85.2049 13.0786 84.5287 13.5028C83.8526 13.9271 83.0803 14.1392 82.212 14.1392C81.3436 14.1392 80.5713 13.9271 79.8952 13.5028C79.2191 13.0786 78.6871 12.4754 78.2993 11.6932C77.9115 10.911 77.7177 9.98295 77.7177 8.90909C77.7177 7.83523 77.9115 6.9072 78.2993 6.125C78.6871 5.3428 79.2191 4.73958 79.8952 4.31534C80.5713 3.8911 81.3436 3.67898 82.212 3.67898C83.0803 3.67898 83.8526 3.8911 84.5287 4.31534C85.2049 4.73958 85.7368 5.3428 86.1246 6.125C86.5124 6.9072 86.7063 7.83523 86.7063 8.90909ZM85.5131 8.90909C85.5131 8.02746 85.3656 7.28338 85.0706 6.67685C84.779 6.07031 84.3829 5.61127 83.8824 5.29972C83.3853 4.98816 82.8284 4.83239 82.212 4.83239C81.5955 4.83239 81.037 4.98816 80.5365 5.29972C80.0394 5.61127 79.6433 6.07031 79.3483 6.67685C79.0567 7.28338 78.9108 8.02746 78.9108 8.90909C78.9108 9.79072 79.0567 10.5348 79.3483 11.1413C79.6433 11.7479 80.0394 12.2069 80.5365 12.5185C81.037 12.83 81.5955 12.9858 82.212 12.9858C82.8284 12.9858 83.3853 12.83 83.8824 12.5185C84.3829 12.2069 84.779 11.7479 85.0706 11.1413C85.3656 10.5348 85.5131 9.79072 85.5131 8.90909ZM91.6789 14L88.8948 3.81818H90.1476L92.2755 12.1108H92.3749L94.5425 3.81818H95.9345L98.1022 12.1108H98.2016L100.329 3.81818H101.582L98.7982 14H97.5255L95.2783 5.88636H95.1988L92.9516 14H91.6789ZM112.242 3.81818V14H111.049L105.501 6.00568H105.401V14H104.169V3.81818H105.362L110.93 11.8324H111.029V3.81818H112.242Z" fill="#002B51"/>
<path d="M40.0081 28C39.5595 28 57.9527 45 57.504 45C57.1451 45 69.0185 33.6667 75 28" stroke="#FF715C" stroke-width="2" stroke-linecap="round"/>
<path d="M40.0081 40C39.5595 40 57.9527 57 57.504 57C57.1451 57 69.0185 45.6667 75 40" stroke="#FF715C" stroke-width="2" stroke-linecap="round"/>
</svg>
