<svg width="22" height="22" viewBox="0 0 22 22" fill="none" xmlns="http://www.w3.org/2000/svg">
<path d="M8.8929 3.25802C10.6483 3.00236 11.3126 2.92023 11.9202 3.08657C12.0293 3.11642 12.1367 3.15207 12.2421 3.19334C12.8285 3.42326 13.3119 3.88618 14.5663 5.14058L15.8879 6.46221C17.0555 7.6298 17.8841 8.46005 18.4439 9.17189C18.9933 9.8706 19.2212 10.3798 19.267 10.889C19.2842 11.0794 19.2842 11.2708 19.267 11.4612L20 11.5272L19.267 11.4612C19.2212 11.9704 18.9933 12.4796 18.4439 13.1783C17.8841 13.8901 17.0555 14.7204 15.8879 15.8879C14.7204 17.0555 13.8901 17.8841 13.1783 18.4439C12.4796 18.9933 11.9705 19.2212 11.4612 19.267L11.5272 20L11.4612 19.267C11.2708 19.2842 11.0793 19.2842 10.8889 19.267C10.3797 19.2212 9.87062 18.9933 9.17189 18.4439C8.46004 17.8841 7.62979 17.0555 6.46221 15.8879L5.14058 14.5663C3.88619 13.3119 3.42326 12.8285 3.19335 12.2421C3.15208 12.1368 3.11643 12.0293 3.08656 11.9202C2.92023 11.3126 3.00236 10.6483 3.25802 8.8929C3.43973 7.64521 3.56887 6.76485 3.74063 6.08564C3.9085 5.42186 4.10184 5.01801 4.37328 4.70354C4.47514 4.58553 4.58553 4.47515 4.70353 4.37329C5.018 4.10184 5.42185 3.9085 6.08563 3.74064C6.76483 3.56887 7.6452 3.43973 8.8929 3.25802Z" fill="#FFA2A2"/>
<path d="M10.7083 10.2917C11.4984 9.50159 11.4984 8.22058 10.7083 7.43048C9.91821 6.64038 8.63721 6.64038 7.84711 7.43048C7.05701 8.22058 7.05701 9.50159 7.84711 10.2917C8.63721 11.0818 9.91821 11.0818 10.7083 10.2917Z" fill="white"/>
</svg>
