<svg width="24" height="24" viewBox="0 0 24 24" fill="none" xmlns="http://www.w3.org/2000/svg">
<path fill-rule="evenodd" clip-rule="evenodd" d="M8.70117 0.401274C11.2868 0.0247098 12.2652 -0.096259 13.1601 0.148743C13.3208 0.192722 13.479 0.245229 13.6342 0.306017C14.498 0.644658 15.21 1.32651 17.0576 3.17411L19.0042 5.12076C20.7239 6.8405 21.9443 8.06338 22.7688 9.11185C23.578 10.141 23.9138 10.8909 23.9813 11.641C24.0066 11.9214 24.0066 12.2034 23.9813 12.4838C23.9138 13.2339 23.578 13.9838 22.7688 15.0129C21.9443 16.0614 20.7239 17.2842 19.0042 19.004C17.2845 20.7237 16.0616 21.9441 15.0131 22.7686C13.9841 23.5778 13.2341 23.9135 12.484 23.981C12.2037 24.0063 11.9215 24.0063 11.6412 23.981C10.8911 23.9135 10.1413 23.5778 9.1121 22.7686C8.06362 21.9441 6.84073 20.7237 5.121 19.004L3.17435 17.0573C1.32675 15.2097 0.644905 14.4978 0.306265 13.6339C0.245477 13.4788 0.19297 13.3206 0.148976 13.1599C-0.0960109 12.265 0.0249581 11.2865 0.401522 8.70093C0.669171 6.8632 0.859382 5.56651 1.11236 4.56611C1.35962 3.58841 1.64439 2.99358 2.0442 2.5304C2.19423 2.35658 2.35682 2.194 2.53063 2.04397C2.99381 1.64415 3.58864 1.35937 4.56633 1.11213C5.56673 0.859136 6.86342 0.668924 8.70117 0.401274ZM11.3752 10.7612C12.5389 9.59748 12.5389 7.71068 11.3752 6.54693C10.2114 5.38319 8.32464 5.38319 7.16089 6.54693C5.99715 7.71068 5.99715 9.59748 7.16089 10.7612C8.32464 11.925 10.2114 11.925 11.3752 10.7612Z" fill="#FF715C"/>
</svg>
