<svg width="484" height="376" viewBox="0 0 484 376" fill="none" xmlns="http://www.w3.org/2000/svg">
<circle cx="268.565" cy="158.97" r="108.565" fill="#FF715C"/>
<path d="M306.471 357.236L319.151 257.627V252.414C319.151 251.923 318.778 251.512 318.288 251.466L217.458 241.922C216.885 241.867 216.395 242.33 216.416 242.905L220.612 357.375C220.625 357.727 220.434 358.062 220.131 358.241C206.115 366.532 206.614 372.889 208.818 375.317C208.978 375.493 209.211 375.579 209.449 375.579H328.461C329.016 375.579 329.457 375.104 329.296 374.573C327.497 368.608 314.311 361.461 307.035 358.233C306.647 358.061 306.417 357.657 306.471 357.236Z" fill="#FF715C"/>
<path d="M181.813 265.011L183.113 220.892C183.124 220.524 183.346 220.195 183.683 220.048L245.694 192.899C246.304 192.632 246.991 193.035 247.009 193.701C247.601 215.299 237.984 270.786 232.994 296.341C231.468 315.988 226.98 319.931 224.654 319.467C224.452 319.427 224.243 319.409 224.043 319.456C219.693 320.471 216.082 317.95 213.938 315.549C213.345 314.886 212.021 315.145 211.688 315.97C209.978 320.208 206.292 321.353 204.406 321.353C200.388 321.353 197.026 317.952 195.263 315.433C194.854 314.848 193.959 314.814 193.534 315.386C191.574 318.017 187.586 322.455 183.131 321.353C178.876 320.3 178.255 315.648 178.477 313.454L181.63 287.861C181.712 287.193 181.089 286.654 180.435 286.81C171.716 288.889 168.897 287.604 168.533 286.571C168.509 286.504 168.489 286.434 168.46 286.37C166.394 281.689 167.624 278.783 168.504 277.912L181.513 265.677C181.697 265.504 181.805 265.264 181.813 265.011Z" fill="#FF715C"/>
<path d="M241.996 209.754C238.23 237.779 228.605 312.728 226.942 316.818C226.895 316.935 226.828 316.98 226.722 317.048C223.913 318.856 218.24 320.865 216.802 315.112" stroke="#002B51" stroke-width="3.81134" stroke-linecap="round"/>
<path d="M183.255 289.686C184 287.977 185.957 286.666 187.229 286.038C187.502 285.903 187.708 285.658 187.787 285.364C189.71 278.23 196.573 274.896 205.106 273.212C213.824 271.49 214.405 279.524 205.106 278.376C195.806 277.228 189.994 284.688 194.643 283.541C199.293 282.393 213.824 284.688 221.38 281.245C227.363 278.519 237.257 278.566 241.591 278.938C241.681 278.946 241.768 278.941 241.857 278.924C243.783 278.56 246.387 278.415 246.955 280.097C247.512 281.748 245.042 283.047 243.642 283.488C243.526 283.525 243.419 283.578 243.322 283.651C238.065 287.578 228.894 288.705 224.286 288.705C214.405 288.705 210.453 291 201.618 293.296C193.075 295.515 186.742 295.052 184.406 294.5C184.257 294.465 184.101 294.461 183.952 294.493C180.15 295.293 178.876 294.688 178.432 293.981C178.387 293.909 178.359 293.826 178.346 293.741C178.064 291.814 180.383 290.727 182.242 290.481C182.691 290.421 183.074 290.101 183.255 289.686Z" fill="#002B51"/>
<path d="M268.107 255.562L266.275 372.83" stroke="#002B51" stroke-width="3.81134" stroke-linecap="round"/>
<path d="M247.035 121.668C249.124 116.562 255.39 109.136 263.745 120.275" stroke="#002B51" stroke-width="4.76417" stroke-linecap="round"/>
<path d="M300.096 121.668C302.184 116.562 308.451 109.136 316.805 120.275" stroke="#002B51" stroke-width="4.76417" stroke-linecap="round"/>
<path d="M271.55 147.429C276.192 150.214 282.537 153.822 293.83 147.429" stroke="#002B51" stroke-width="4.76417" stroke-linecap="round"/>
<path d="M236.911 98.2032C240.098 92.9889 249.252 84.559 260.376 92.5543" stroke="#002B51" stroke-width="4.76417" stroke-linecap="round"/>
<path d="M298.179 92.6954C302.525 89.6537 312.78 86.0906 319.037 96.1716" stroke="#002B51" stroke-width="4.76417" stroke-linecap="round"/>
<path d="M408.566 99.3321C409.529 86.4136 400.998 37.9494 396.464 14.608C395.744 10.8598 399.982 9.57563 402.19 9.40204L459.885 0.56602C459.945 0.556826 460.002 0.542363 460.059 0.522649C462.532 -0.325818 468.025 -0.744286 470.907 4.19629C474.551 10.4433 482.881 77.5987 483.922 86.9692C484.755 94.4656 478.716 96.3398 475.593 96.3398L409.618 100.431C409.011 100.469 408.521 99.9384 408.566 99.3321Z" fill="#E4D6BC"/>
<path d="M425.965 17.7315L445.226 15.6492" stroke="#002B51" stroke-width="2.8585" stroke-linecap="round"/>
<path d="M411.389 34.9106L462.406 27.1018" stroke="#002B51" stroke-width="2.8585" stroke-linecap="round"/>
<path d="M412.43 42.7197L464.488 35.9521" stroke="#002B51" stroke-width="2.8585" stroke-linecap="round"/>
<path d="M413.991 50.0077L465.009 42.7195" stroke="#002B51" stroke-width="2.8585" stroke-linecap="round"/>
<path d="M416.594 57.8163L468.132 50.0076" stroke="#002B51" stroke-width="2.8585" stroke-linecap="round"/>
<path d="M416.594 65.1044L443.665 60.9397" stroke="#002B51" stroke-width="2.8585" stroke-linecap="round"/>
<path d="M446.788 83.8458L469.694 80.2017" stroke="#002B51" stroke-width="2.8585" stroke-linecap="round"/>
<path d="M406.762 77.0748C406.369 80.2187 403.782 92.5722 402.325 99.3496C402.198 99.9434 402.651 100.501 403.258 100.501H419.415C419.913 100.501 420.327 100.118 420.365 99.6213L421.852 80.2907C421.857 80.2292 421.856 80.1659 421.848 80.1047C420.997 73.2025 416.433 71.0632 414.151 70.8366C414.083 70.8299 414.016 70.817 413.95 70.7987C409.847 69.6571 407.451 74.4928 406.762 77.0748Z" fill="#FF715C"/>
<path d="M369.801 180.239V131.648C369.801 131.122 370.227 130.695 370.754 130.695H391.499C391.909 130.695 392.273 130.433 392.403 130.044L402.39 100.083C402.515 99.7082 402.859 99.4493 403.254 99.4326L450.517 97.4426C451.224 97.4129 451.715 98.1362 451.428 98.7823L426.544 154.642C421.134 169.365 416.573 178.054 407.429 181.143C407.333 181.176 407.231 181.192 407.13 181.192H370.754C370.227 181.192 369.801 180.765 369.801 180.239Z" fill="#FF715C"/>
<path d="M421.859 100.821C426.371 102.73 435.499 108.422 435.915 115.918" stroke="#002B51" stroke-width="3.81134" stroke-linecap="round"/>
<path d="M447.99 67.0015C450.423 64.5681 453.928 65.9876 455.377 67.0015C456.246 65.2634 459.039 62.2218 462.764 63.9599C469.282 67.0017 463.198 76.9957 459.287 79.1683C447.315 78.2148 444.948 70.0432 447.99 67.0015Z" fill="#FF715C"/>
<path d="M357.976 361.718H437.635C439.559 361.718 441.118 363.277 441.118 365.2V372.165C441.118 374.088 439.559 375.647 437.635 375.647H357.976C356.053 375.647 354.494 374.088 354.494 372.165V365.2C354.494 363.277 356.053 361.718 357.976 361.718ZM353.624 306H433.282C435.206 306 436.765 307.559 436.765 309.482V316.447C436.765 318.37 435.206 319.929 433.282 319.929H353.624C351.7 319.929 350.141 318.37 350.141 316.447V309.482C350.141 307.559 351.7 306 353.624 306ZM344.482 333.859H424.141C426.064 333.859 427.624 335.418 427.624 337.341V344.306C427.624 346.229 426.064 347.788 424.141 347.788H344.482C342.559 347.788 341 346.229 341 344.306V337.341C341 335.418 342.559 333.859 344.482 333.859Z" fill="#74CADD"/>
<path d="M365.812 347.788H445.471C447.394 347.788 448.953 349.347 448.953 351.271V358.235C448.953 360.159 447.394 361.718 445.471 361.718H365.812C363.888 361.718 362.329 360.159 362.329 358.235V351.271C362.329 349.347 363.888 347.788 365.812 347.788ZM368.423 319.929H448.082C450.006 319.929 451.565 321.489 451.565 323.412V330.377C451.565 332.3 450.006 333.859 448.082 333.859H368.423C366.5 333.859 364.941 332.3 364.941 330.377V323.412C364.941 321.489 366.5 319.929 368.423 319.929Z" fill="#002B51"/>
<path d="M357.759 311.224H436.765V315.141H357.759C356.677 315.141 355.8 314.264 355.8 313.182C355.8 312.101 356.677 311.224 357.759 311.224ZM364.941 325.153H442.423V329.071H364.941V325.153ZM350.141 339.082H427.623V343H350.141V339.082ZM362.329 353.012H439.812V356.93H362.329V353.012ZM363.635 366.941H441.118V370.859H363.635V366.941Z" fill="#E4E7EF"/>
<path d="M260 44L260 50.5" stroke="#002B51" stroke-width="2" stroke-linecap="round"/>
<circle cx="268" cy="27" r="22" fill="#FFC43D"/>
<circle cx="263" cy="19" r="2" fill="#002B51"/>
<ellipse cx="251" cy="25.5" rx="6" ry="2.5" fill="#002B51"/>
<line x1="277" y1="44" x2="277" y2="53" stroke="#002B51" stroke-width="2" stroke-linecap="round"/>
<path d="M297.5 35.5C296.7 33.1 289.5 26.1667 286 23C283.5 27.6667 278.9 37.1 280.5 37.5C282.5 38 298.5 38.5 297.5 35.5Z" fill="#FFC43D"/>
<path d="M274 32.5C274.333 34.6667 279 38.4 287 38" stroke="#002B51" stroke-width="2" stroke-linecap="round"/>
<path d="M25.9033 279.899C15.0966 286.039 31.0288 315.716 40.7048 330.335C41.0481 330.854 41.6837 331.073 42.279 330.894L53.4674 327.524C54.1462 327.32 54.5739 326.648 54.4634 325.946C50.4123 300.212 39.4673 272.191 25.9033 279.899Z" fill="#032068"/>
<path d="M59.1291 200.24C26.2974 207.821 35.5018 287.099 44.4771 327.205C44.6568 328.008 45.4712 328.459 46.2571 328.223L72.7191 320.252C73.2187 320.102 73.5934 319.707 73.6998 319.194C82.6976 275.837 92.1547 192.614 59.1291 200.24Z" fill="#002B51"/>
<path fill-rule="evenodd" clip-rule="evenodd" d="M45.8561 326.854L72.3128 318.886C76.8004 297.255 81.3874 265.744 80.7524 240.638C80.4339 228.049 78.8041 217.263 75.3273 210.143C73.5984 206.603 71.463 204.073 68.9065 202.628C66.3785 201.199 63.2858 200.744 59.444 201.631C51.8661 203.381 46.5661 209.275 43.047 218.161C39.5231 227.06 37.8848 238.74 37.5462 251.56C36.8699 277.165 41.3853 306.866 45.8561 326.854ZM40.407 217.113C44.1153 207.749 49.9764 200.891 58.814 198.85C63.2284 197.831 67.0645 198.309 70.3053 200.141C73.5177 201.956 75.9913 205.016 77.8793 208.882C81.6365 216.576 83.2722 227.877 83.593 240.559C84.2362 265.988 79.5989 297.755 75.0903 319.481C74.8727 320.529 74.1024 321.323 73.1238 321.618L46.6624 329.588C45.1278 330.05 43.4601 329.169 43.0912 327.52C38.5893 307.404 34.0205 277.433 34.7056 251.492C35.0479 238.531 36.7035 226.465 40.407 217.113Z" fill="#032068"/>
<path d="M90.2067 245.806C70.6036 248.808 67.1588 296.492 67.8164 321.373C67.8411 322.305 68.7412 322.94 69.6313 322.672L83.9631 318.355C84.3747 318.231 84.704 317.939 84.866 317.54C95.1504 292.173 110.138 242.753 90.2067 245.806Z" fill="#032068"/>
<path fill-rule="evenodd" clip-rule="evenodd" d="M61.4561 232.884L61.7335 211.576L58.8912 211.546L58.3231 255.169L47.3939 244.653L45.4241 246.715L58.2722 259.078L57.7132 302.005L48.1383 293.991L46.3147 296.185L57.6653 305.685L57.4212 324.432L60.2635 324.462L60.7618 286.201L72.1102 275.039L70.1234 273.003L60.8144 282.159L61.4017 237.062L70.7848 227.225L68.7342 225.254L61.4561 232.884Z" fill="white"/>
<path d="M21.4416 318.816C20.8737 316.151 22.8939 313.638 25.604 313.638H90.5547C93.2052 313.638 95.2113 316.048 94.7453 318.671L85.192 372.472C84.8295 374.513 83.0637 376 81.0014 376H37.068C35.0607 376 33.3262 374.59 32.9056 372.616L21.4416 318.816Z" fill="#FFC43D"/>
</svg>
