<svg width="324" height="376" viewBox="0 0 324 376" fill="none" xmlns="http://www.w3.org/2000/svg">
<circle cx="108.565" cy="158.97" r="108.565" fill="#FF715C"/>
<path d="M146.471 357.236L159.151 257.627V252.414C159.151 251.923 158.778 251.512 158.288 251.466L57.4582 241.922C56.8851 241.867 56.3951 242.33 56.4162 242.905L60.6124 357.375C60.6253 357.727 60.4342 358.062 60.1311 358.241C46.1146 366.532 46.6138 372.889 48.818 375.317C48.9783 375.493 49.211 375.579 49.4494 375.579H168.461C169.016 375.579 169.457 375.104 169.296 374.573C167.497 368.608 154.311 361.461 147.035 358.233C146.647 358.061 146.417 357.657 146.471 357.236Z" fill="#FF715C"/>
<path d="M21.8126 265.011L23.1131 220.892C23.1239 220.524 23.346 220.195 23.6834 220.048L85.6938 192.899C86.304 192.632 86.9909 193.035 87.0091 193.701C87.6013 215.299 77.9835 270.786 72.9944 296.341C71.4678 315.988 66.9799 319.931 64.6535 319.467C64.4522 319.427 64.2427 319.409 64.0428 319.456C59.693 320.471 56.0822 317.95 53.9375 315.549C53.3452 314.886 52.0211 315.145 51.6883 315.97C49.9775 320.208 46.2924 321.353 44.4059 321.353C40.3881 321.353 37.026 317.952 35.2631 315.433C34.8544 314.848 33.9595 314.814 33.5337 315.386C31.5743 318.017 27.5858 322.455 23.1308 321.353C18.8758 320.3 18.2553 315.648 18.4769 313.454L21.6295 287.861C21.7118 287.193 21.0892 286.654 20.4347 286.81C11.7159 288.889 8.89716 287.604 8.53252 286.571C8.50896 286.504 8.4887 286.434 8.46012 286.37C6.3938 281.689 7.62376 278.783 8.50405 277.912L21.513 265.677C21.6974 265.504 21.8052 265.264 21.8126 265.011Z" fill="#FF715C"/>
<path d="M81.9964 209.754C78.2296 237.779 68.6047 312.728 66.9423 316.818C66.8949 316.935 66.8277 316.98 66.7219 317.048C63.9129 318.856 58.2404 320.865 56.802 315.112" stroke="#002B51" stroke-width="3.81134" stroke-linecap="round"/>
<path d="M23.2551 289.686C23.9997 287.977 25.9567 286.666 27.229 286.038C27.502 285.903 27.708 285.658 27.7872 285.364C29.7105 278.23 36.573 274.896 45.1057 273.212C53.8242 271.49 54.4054 279.524 45.1057 278.376C35.8059 277.228 29.9936 284.688 34.6434 283.541C39.2933 282.393 53.8242 284.688 61.3802 281.245C67.3634 278.519 77.2566 278.566 81.5911 278.938C81.6813 278.946 81.7681 278.941 81.857 278.924C83.7834 278.56 86.3866 278.415 86.9546 280.097C87.5118 281.748 85.0418 283.047 83.6418 283.488C83.5264 283.525 83.4188 283.578 83.3218 283.651C78.0654 287.578 68.8935 288.705 64.2864 288.705C54.4054 288.705 50.453 291 41.6183 293.296C33.0749 295.515 26.7419 295.052 24.4062 294.5C24.2575 294.465 24.1011 294.461 23.9516 294.493C20.1502 295.293 18.876 294.688 18.4322 293.981C18.3867 293.909 18.3589 293.826 18.3465 293.741C18.0642 291.814 20.3833 290.727 22.242 290.481C22.6914 290.421 23.074 290.101 23.2551 289.686Z" fill="#002B51"/>
<path d="M108.107 255.562L106.275 372.83" stroke="#002B51" stroke-width="3.81134" stroke-linecap="round"/>
<path d="M87.0352 121.668C89.1239 116.562 95.39 109.136 103.745 120.275" stroke="#002B51" stroke-width="4.76417" stroke-linecap="round"/>
<path d="M140.096 121.668C142.184 116.562 148.451 109.136 156.805 120.275" stroke="#002B51" stroke-width="4.76417" stroke-linecap="round"/>
<path d="M111.55 147.429C116.192 150.214 122.537 153.822 133.83 147.429" stroke="#002B51" stroke-width="4.76417" stroke-linecap="round"/>
<path d="M76.9111 98.2032C80.0977 92.9889 89.2517 84.559 100.376 92.5543" stroke="#002B51" stroke-width="4.76417" stroke-linecap="round"/>
<path d="M138.179 92.6954C142.525 89.6537 152.78 86.0906 159.037 96.1716" stroke="#002B51" stroke-width="4.76417" stroke-linecap="round"/>
<path d="M248.566 99.3321C249.529 86.4136 240.998 37.9494 236.464 14.608C235.744 10.8598 239.982 9.57563 242.19 9.40204L299.885 0.56602C299.945 0.556826 300.002 0.542363 300.059 0.522649C302.532 -0.325818 308.025 -0.744286 310.907 4.19629C314.551 10.4433 322.881 77.5987 323.922 86.9692C324.755 94.4656 318.716 96.3398 315.593 96.3398L249.618 100.431C249.011 100.469 248.521 99.9384 248.566 99.3321Z" fill="#E4D6BC"/>
<path d="M265.965 17.7315L285.226 15.6492" stroke="#002B51" stroke-width="2.8585" stroke-linecap="round"/>
<path d="M251.389 34.9106L302.406 27.1018" stroke="#002B51" stroke-width="2.8585" stroke-linecap="round"/>
<path d="M252.43 42.7197L304.488 35.9521" stroke="#002B51" stroke-width="2.8585" stroke-linecap="round"/>
<path d="M253.991 50.0077L305.009 42.7195" stroke="#002B51" stroke-width="2.8585" stroke-linecap="round"/>
<path d="M256.594 57.8163L308.132 50.0076" stroke="#002B51" stroke-width="2.8585" stroke-linecap="round"/>
<path d="M256.594 65.1044L283.665 60.9397" stroke="#002B51" stroke-width="2.8585" stroke-linecap="round"/>
<path d="M286.788 83.8458L309.694 80.2017" stroke="#002B51" stroke-width="2.8585" stroke-linecap="round"/>
<path d="M246.762 77.0748C246.369 80.2187 243.782 92.5722 242.325 99.3496C242.198 99.9434 242.651 100.501 243.258 100.501H259.415C259.913 100.501 260.327 100.118 260.365 99.6213L261.852 80.2907C261.857 80.2292 261.856 80.1659 261.848 80.1047C260.997 73.2025 256.433 71.0632 254.151 70.8366C254.083 70.8299 254.016 70.817 253.95 70.7987C249.847 69.6571 247.451 74.4928 246.762 77.0748Z" fill="#FF715C"/>
<path d="M209.801 180.239V131.648C209.801 131.122 210.227 130.695 210.754 130.695H231.499C231.909 130.695 232.273 130.433 232.403 130.044L242.39 100.083C242.515 99.7082 242.859 99.4493 243.254 99.4326L290.517 97.4426C291.224 97.4129 291.715 98.1362 291.428 98.7823L266.544 154.642C261.134 169.365 256.573 178.054 247.429 181.143C247.333 181.176 247.231 181.192 247.13 181.192H210.754C210.227 181.192 209.801 180.765 209.801 180.239Z" fill="#FF715C"/>
<path d="M261.859 100.821C266.371 102.73 275.499 108.422 275.915 115.918" stroke="#002B51" stroke-width="3.81134" stroke-linecap="round"/>
<path d="M287.99 67.0015C290.423 64.5681 293.928 65.9876 295.377 67.0015C296.246 65.2634 299.039 62.2218 302.764 63.9599C309.282 67.0017 303.198 76.9957 299.287 79.1683C287.315 78.2148 284.948 70.0432 287.99 67.0015Z" fill="#FF715C"/>
</svg>
