<svg width="50" height="50" viewBox="0 0 50 50" fill="none" xmlns="http://www.w3.org/2000/svg">
<path d="M39.0456 13.5949C39.6519 13.5949 42.5461 12.2383 43.9174 11.5599C43.9174 13.3593 41.68 15.1658 40.5613 15.8442C41.3407 15.9299 43.8452 15.1658 45 14.7731C44.7402 15.4586 42.3656 17.6293 41.2108 18.6289C41.4707 24.8839 38.8651 30.0892 37.5299 31.91C27.6564 46.0479 13.0627 42.2992 7 38.6576C13.4957 38.829 17.2127 36.3727 18.2593 35.1232C13.4091 34.8661 11.1861 31.3745 10.6809 29.6608C11.9801 30.0892 13.6762 29.8393 14.3618 29.6608C8.64558 27.6044 7.93827 23.7343 8.29915 22.0563C9.16524 22.4847 10.7531 22.806 11.4388 22.9131C6.76184 18.8003 8.04655 14.3447 9.27352 12.631C15.0764 19.2287 22.5898 20.5925 25.6211 20.4497C24.6684 15.1373 28.3276 12.3097 30.2764 11.5599C34.9533 9.93194 38.0712 12.2383 39.0456 13.5949Z" fill="white"/>
</svg>
