<svg width="185" height="155" viewBox="0 0 185 155" fill="none" xmlns="http://www.w3.org/2000/svg">
<path d="M184.314 145.406H0C0 153.243 4.97586 155.066 7.46379 154.998H176.643C183.941 154.835 184.798 148.535 184.314 145.406Z" fill="#002B51"/>
<path d="M7.4624 48.9292V143.274C7.4624 147.101 10.5647 150.203 14.3917 150.203H169.5C173.327 150.203 176.429 147.101 176.429 143.274V48.9292C176.429 45.1023 173.327 42 169.5 42H14.3916C10.5647 42 7.4624 45.1023 7.4624 48.9292Z" fill="#002B51"/>
<path d="M171.632 50.5283H11.7266V145.406H171.632V50.5283Z" fill="white"/>
<path d="M75.6329 149.137L73.5566 145.939H91.4128H109.269L107.4 149.137H75.6329Z" fill="#74CADD"/>
<path d="M17.4832 60.7264V60.0237L20.2778 56.1025H17.4777V55.1263H21.7653V55.8291L18.968 59.7502H21.7708V60.7264H17.4832ZM24.5551 60.8085C24.1304 60.8085 23.7631 60.7182 23.4532 60.5378C23.1451 60.3555 22.9072 60.1021 22.7395 59.7776C22.5718 59.4513 22.4879 59.073 22.4879 58.6428C22.4879 58.2089 22.5718 57.8298 22.7395 57.5053C22.9072 57.179 23.1451 56.9256 23.4532 56.7451C23.7631 56.5628 24.1304 56.4717 24.5551 56.4717C24.9799 56.4717 25.3463 56.5628 25.6544 56.7451C25.9643 56.9256 26.2031 57.179 26.3708 57.5053C26.5385 57.8298 26.6224 58.2089 26.6224 58.6428C26.6224 59.073 26.5385 59.4513 26.3708 59.7776C26.2031 60.1021 25.9643 60.3555 25.6544 60.5378C25.3463 60.7182 24.9799 60.8085 24.5551 60.8085ZM24.5606 59.9061C24.7538 59.9061 24.9152 59.8514 25.0446 59.742C25.174 59.6308 25.2716 59.4795 25.3372 59.2881C25.4046 59.0967 25.4384 58.8789 25.4384 58.6346C25.4384 58.3903 25.4046 58.1725 25.3372 57.9811C25.2716 57.7897 25.174 57.6384 25.0446 57.5272C24.9152 57.416 24.7538 57.3604 24.5606 57.3604C24.3656 57.3604 24.2015 57.416 24.0684 57.5272C23.9372 57.6384 23.8378 57.7897 23.7704 57.9811C23.7047 58.1725 23.6719 58.3903 23.6719 58.6346C23.6719 58.8789 23.7047 59.0967 23.7704 59.2881C23.8378 59.4795 23.9372 59.6308 24.0684 59.742C24.2015 59.8514 24.3656 59.9061 24.5606 59.9061ZM29.5646 60.8495C29.0943 60.8477 28.6896 60.7319 28.3505 60.5022C28.0133 60.2725 27.7535 59.9398 27.5712 59.5041C27.3907 59.0685 27.3014 58.5444 27.3032 57.9318C27.3032 57.3212 27.3935 56.8007 27.574 56.3705C27.7563 55.9403 28.016 55.613 28.3533 55.3888C28.6923 55.1628 29.0961 55.0498 29.5646 55.0498C30.0331 55.0498 30.436 55.1628 30.7732 55.3888C31.1123 55.6149 31.373 55.943 31.5553 56.3732C31.7376 56.8016 31.8278 57.3212 31.826 57.9318C31.826 58.5462 31.7349 59.0712 31.5526 59.5069C31.3721 59.9426 31.1132 60.2753 30.776 60.505C30.4387 60.7346 30.0349 60.8495 29.5646 60.8495ZM29.5646 59.8678C29.8855 59.8678 30.1416 59.7065 30.333 59.3838C30.5244 59.0612 30.6192 58.5772 30.6174 57.9318C30.6174 57.5071 30.5736 57.1534 30.4861 56.8709C30.4004 56.5883 30.2783 56.376 30.1197 56.2338C29.9629 56.0916 29.7779 56.0205 29.5646 56.0205C29.2456 56.0205 28.9904 56.18 28.799 56.499C28.6076 56.818 28.511 57.2956 28.5091 57.9318C28.5091 58.3621 28.552 58.7212 28.6377 59.0092C28.7252 59.2954 28.8482 59.5105 29.0068 59.6545C29.1654 59.7967 29.3513 59.8678 29.5646 59.8678ZM34.5789 60.8085C34.1541 60.8085 33.7868 60.7182 33.4769 60.5378C33.1688 60.3555 32.9309 60.1021 32.7632 59.7776C32.5955 59.4513 32.5117 59.073 32.5117 58.6428C32.5117 58.2089 32.5955 57.8298 32.7632 57.5053C32.9309 57.179 33.1688 56.9256 33.4769 56.7451C33.7868 56.5628 34.1541 56.4717 34.5789 56.4717C35.0036 56.4717 35.3701 56.5628 35.6781 56.7451C35.988 56.9256 36.2268 57.179 36.3946 57.5053C36.5623 57.8298 36.6461 58.2089 36.6461 58.6428C36.6461 59.073 36.5623 59.4513 36.3946 59.7776C36.2268 60.1021 35.988 60.3555 35.6781 60.5378C35.3701 60.7182 35.0036 60.8085 34.5789 60.8085ZM34.5844 59.9061C34.7776 59.9061 34.9389 59.8514 35.0684 59.742C35.1978 59.6308 35.2953 59.4795 35.3609 59.2881C35.4284 59.0967 35.4621 58.8789 35.4621 58.6346C35.4621 58.3903 35.4284 58.1725 35.3609 57.9811C35.2953 57.7897 35.1978 57.6384 35.0684 57.5272C34.9389 57.416 34.7776 57.3604 34.5844 57.3604C34.3893 57.3604 34.2252 57.416 34.0922 57.5272C33.9609 57.6384 33.8616 57.7897 33.7941 57.9811C33.7285 58.1725 33.6957 58.3903 33.6957 58.6346C33.6957 58.8789 33.7285 59.0967 33.7941 59.2881C33.8616 59.4795 33.9609 59.6308 34.0922 59.742C34.2252 59.8514 34.3893 59.9061 34.5844 59.9061ZM37.4036 60.7264V56.5264H38.5137V57.2674H38.563C38.6505 57.0213 38.7963 56.8271 39.0005 56.6849C39.2046 56.5428 39.4489 56.4717 39.7333 56.4717C40.0213 56.4717 40.2665 56.5437 40.4689 56.6877C40.6712 56.8299 40.8061 57.0231 40.8736 57.2674H40.9173C41.003 57.0268 41.1579 56.8344 41.3822 56.6904C41.6082 56.5446 41.8753 56.4717 42.1834 56.4717C42.5753 56.4717 42.8934 56.5965 43.1377 56.8463C43.3838 57.0942 43.5068 57.446 43.5068 57.9018V60.7264H42.3447V58.1315C42.3447 57.8981 42.2827 57.7231 42.1587 57.6065C42.0348 57.4898 41.8798 57.4314 41.6939 57.4314C41.4824 57.4314 41.3174 57.4989 41.199 57.6338C41.0805 57.7669 41.0212 57.9428 41.0212 58.1615V60.7264H39.8919V58.1069C39.8919 57.9009 39.8326 57.7368 39.7142 57.6147C39.5975 57.4925 39.4434 57.4314 39.252 57.4314C39.1226 57.4314 39.0059 57.4643 38.902 57.5299C38.7999 57.5937 38.7188 57.6839 38.6587 57.8006C38.5985 57.9154 38.5684 58.0503 38.5684 58.2053V60.7264H37.4036Z" fill="#161616"/>
<circle cx="86.8206" cy="96.8395" r="38.8489" fill="#FFC43D"/>
<path fill-rule="evenodd" clip-rule="evenodd" d="M90.7054 120.149L88.8066 112.713L91.3091 112.045L93.2953 119.501L92.6478 122.091L90.7054 120.149Z" fill="#FF715C"/>
<rect x="86.8203" y="81.3" width="3.88489" height="9.06474" rx="1.13544" fill="#002B51"/>
<rect x="107.54" y="80.0049" width="3.88489" height="9.06474" rx="1.13544" fill="#002B51"/>
<path d="M81.6406 77.2333C83.5831 74.2117 87.468 72.701 92.0003 73.9959" stroke="#002B51" stroke-width="2.27088" stroke-linecap="round"/>
<path d="M104.302 73.5303C104.81 72.3951 110.969 72.0337 113.367 75.4728" stroke="#002B51" stroke-width="2.27088" stroke-linecap="round"/>
<path d="M109.96 98.1345C109.96 101.947 106.062 105.416 100.736 105.416C95.4096 105.416 91.5114 101.947 91.5114 98.1345C91.5114 97.1704 91.7484 96.456 92.1264 95.905C92.5095 95.3465 93.0897 94.8805 93.8908 94.5063C95.5306 93.7403 97.9117 93.4426 100.736 93.4426C103.56 93.4426 105.941 93.7403 107.581 94.5063C108.382 94.8805 108.962 95.3465 109.345 95.905C109.723 96.456 109.96 97.1704 109.96 98.1345Z" stroke="#002B51" stroke-width="2.27088"/>
<path d="M110.13 100.077C102.878 96.4508 95.4539 99.4292 92.6481 101.372C90.5762 96.1918 95.2052 93.602 99.7704 93.602C107.022 92.048 109.698 97.271 110.13 100.077Z" fill="#002B51"/>
<rect width="28.4892" height="41.4388" rx="3.40632" transform="matrix(1 0 -0.293206 0.956049 119.69 89.0697)" fill="#FF715C"/>
<path d="M147.036 103.962C146.507 102.903 144.23 102.667 143.151 102.667H141.856H140.561C137.972 102.667 137.324 103.314 136.858 104.482C136.677 105.904 138.476 106.546 139.914 107.199C134.734 107.199 135.597 110.005 136.677 111.084C133.051 112.12 134.734 114.106 136.029 114.969C132.403 116.005 134.087 117.991 135.382 118.854C138.49 119.89 141.425 118.422 142.504 117.559C145.094 116.005 145.741 109.789 145.741 107.199C147.813 106.163 147.468 104.825 147.036 103.962Z" fill="#FFC43D"/>
<path d="M140.562 107.199C141.641 107.415 143.022 107.717 145.094 107.199" stroke="#002B51" stroke-width="1.13544" stroke-linecap="round"/>
<path d="M137.324 111.084C138.403 111.3 141.08 111.602 143.152 111.084" stroke="#002B51" stroke-width="1.13544" stroke-linecap="round"/>
<path d="M136.677 114.969C137.756 115.185 139.785 115.487 141.857 114.969" stroke="#002B51" stroke-width="1.13544" stroke-linecap="round"/>
<path d="M75.813 144.753V132.451L102.36 131.803L103.007 144.753H75.813Z" fill="#FFC43D"/>
<path d="M88.7632 134.393V145.401" stroke="#002B51" stroke-width="2.27088"/>
<path d="M86.1733 99.4296L87.4683 104.609" stroke="#FF715C" stroke-width="2.27088"/>
<path d="M59.626 102.019C62.8634 107.199 70.1152 116.393 78.4029 109.142C86.6907 101.89 91.7842 106.12 93.295 109.142C93.5108 110.005 93.4245 112.249 91.3526 111.732C90.4893 111.084 88.3742 109.142 86.8202 109.142" stroke="#002B51" stroke-width="1.70316" stroke-linecap="round"/>
<path d="M89.4102 111.732C89.6261 114.321 88.1153 119.631 80.3455 120.149C75.1657 122.955 63.511 125.976 55.7412 118.206" stroke="#002B51" stroke-width="1.70316" stroke-linecap="round"/>
<rect width="50.8" height="33.1611" rx="9.17222" transform="matrix(-1 0 0 1 168.8 0)" fill="#74CADD"/>
<line x1="1.41111" y1="-1.41111" x2="36.6889" y2="-1.41111" transform="matrix(-1 0 0 1 162.45 11.9945)" stroke="#002B51" stroke-width="2.82222" stroke-linecap="round"/>
<line x1="143.4" y1="18.3445" x2="125.761" y2="18.3445" stroke="#002B51" stroke-width="2.82222" stroke-linecap="round"/>
<path d="M131.053 42.3333V32.8083H140.578L131.053 42.3333Z" fill="#74CADD"/>
</svg>
