<svg width="200" height="48" viewBox="0 0 200 48" fill="none" xmlns="http://www.w3.org/2000/svg">
<circle cx="18.2692" cy="25.0002" r="17.7885" stroke="white" stroke-width="0.961538"/>
<path d="M47.1155 18.2692C47.1155 28.359 38.7208 36.5385 28.3655 36.5385C18.0101 36.5385 9.61548 28.359 9.61548 18.2692C9.61548 8.17941 18.0101 0 28.3655 0C38.7208 0 47.1155 8.17941 47.1155 18.2692Z" fill="white"/>
<path d="M57.1966 37.0317V12.2683C57.1966 12.0067 57.2441 11.7628 57.3393 11.5368C57.4345 11.299 57.5653 11.0968 57.7318 10.9303C57.9102 10.7518 58.1124 10.6151 58.3384 10.5199C58.5644 10.4248 58.8142 10.3772 59.0877 10.3772C59.8252 10.3772 60.3842 10.7162 60.7648 11.3941L71.4694 32.7855L82.174 11.3941C82.6022 10.7162 83.1612 10.3772 83.8511 10.3772C84.1128 10.3772 84.3566 10.4248 84.5826 10.5199C84.8205 10.6151 85.0227 10.7518 85.1892 10.9303C85.3676 11.0968 85.5044 11.299 85.5995 11.5368C85.6947 11.7628 85.7422 12.0067 85.7422 12.2683V37.0317C85.7422 37.555 85.5579 38.0011 85.1892 38.3698C84.8205 38.7385 84.3744 38.9229 83.8511 38.9229C83.3278 38.9229 82.8817 38.7385 82.513 38.3698C82.1443 38.0011 81.9599 37.555 81.9599 37.0317V20.2968L73.1108 37.9773C72.7421 38.6077 72.1949 38.9229 71.4694 38.9229C70.6844 38.9229 70.1075 38.5422 69.7388 37.781L60.9789 20.2968V37.0317C60.9789 37.555 60.7945 38.0011 60.4258 38.3698C60.0571 38.7385 59.6111 38.9229 59.0877 38.9229C58.5644 38.9229 58.1184 38.7385 57.7496 38.3698C57.3809 38.0011 57.1966 37.555 57.1966 37.0317ZM107.117 28.9319C107.117 31.7151 106.142 34.0701 104.191 35.9969C102.217 37.9475 99.8619 38.9229 97.1263 38.9229C94.3668 38.9229 92.0118 37.9475 90.0612 35.9969C88.1106 34.0463 87.1353 31.6913 87.1353 28.9319C87.1353 26.1725 88.1106 23.8174 90.0612 21.8668C92.0118 19.9162 94.3668 18.9409 97.1263 18.9409C99.8619 18.9409 102.217 19.9162 104.191 21.8668C105.167 22.8421 105.892 23.9185 106.368 25.096C106.856 26.2736 107.105 27.5522 107.117 28.9319ZM97.1263 22.6697C96.2461 22.6697 95.4254 22.8362 94.6642 23.1692C93.903 23.5022 93.2429 23.9542 92.6838 24.5251C92.1248 25.0841 91.6788 25.7443 91.3458 26.5055C91.0246 27.2667 90.864 28.0755 90.864 28.9319C90.864 29.7882 91.0246 30.597 91.3458 31.3582C91.6788 32.1195 92.1248 32.7855 92.6838 33.3564C93.2429 33.9155 93.903 34.3615 94.6642 34.6945C95.4254 35.0276 96.2461 35.1941 97.1263 35.1941C97.9945 35.1941 98.8093 35.0276 99.5705 34.6945C100.332 34.3615 100.992 33.9095 101.551 33.3386C102.122 32.7677 102.568 32.1076 102.889 31.3582C103.222 30.597 103.388 29.7882 103.388 28.9319C103.388 28.0755 103.222 27.2726 102.889 26.5233C102.568 25.7621 102.122 25.096 101.551 24.5251C100.992 23.9542 100.332 23.5022 99.5705 23.1692C98.8093 22.8362 97.9945 22.6697 97.1263 22.6697ZM128.492 28.9319C128.492 31.7151 127.517 34.0701 125.566 35.9969C123.592 37.9475 121.237 38.9229 118.501 38.9229C115.742 38.9229 113.387 37.9475 111.436 35.9969C109.486 34.0463 108.51 31.6913 108.51 28.9319C108.51 26.1725 109.486 23.8174 111.436 21.8668C113.387 19.9162 115.742 18.9409 118.501 18.9409C121.237 18.9409 123.592 19.9162 125.566 21.8668C126.542 22.8421 127.267 23.9185 127.743 25.096C128.231 26.2736 128.48 27.5522 128.492 28.9319ZM118.501 22.6697C117.621 22.6697 116.8 22.8362 116.039 23.1692C115.278 23.5022 114.618 23.9542 114.059 24.5251C113.5 25.0841 113.054 25.7443 112.721 26.5055C112.4 27.2667 112.239 28.0755 112.239 28.9319C112.239 29.7882 112.4 30.597 112.721 31.3582C113.054 32.1195 113.5 32.7855 114.059 33.3564C114.618 33.9155 115.278 34.3615 116.039 34.6945C116.8 35.0276 117.621 35.1941 118.501 35.1941C119.37 35.1941 120.184 35.0276 120.945 34.6945C121.707 34.3615 122.367 33.9095 122.926 33.3386C123.497 32.7677 123.943 32.1076 124.264 31.3582C124.597 30.597 124.763 29.7882 124.763 28.9319C124.763 28.0755 124.597 27.2726 124.264 26.5233C123.943 25.7621 123.497 25.096 122.926 24.5251C122.367 23.9542 121.707 23.5022 120.945 23.1692C120.184 22.8362 119.37 22.6697 118.501 22.6697ZM146.138 28.9319C146.138 28.0755 145.972 27.2726 145.639 26.5233C145.318 25.7621 144.872 25.096 144.301 24.5251C143.742 23.9542 143.082 23.5022 142.32 23.1692C141.559 22.8362 140.745 22.6697 139.876 22.6697C138.996 22.6697 138.175 22.8362 137.414 23.1692C136.653 23.5022 135.993 23.9542 135.434 24.5251C134.875 25.0841 134.429 25.7443 134.096 26.5055C133.775 27.2667 133.614 28.0755 133.614 28.9319C133.614 29.7882 133.775 30.597 134.096 31.3582C134.429 32.1195 134.875 32.7855 135.434 33.3564C135.993 33.9155 136.653 34.3615 137.414 34.6945C138.175 35.0276 138.996 35.1941 139.876 35.1941C140.745 35.1941 141.559 35.0276 142.32 34.6945C143.082 34.3615 143.742 33.9095 144.301 33.3386C144.872 32.7677 145.318 32.1076 145.639 31.3582C145.972 30.597 146.138 29.7882 146.138 28.9319ZM139.876 18.9409C142.243 18.9409 144.331 19.6724 146.138 21.1353V12.2326C146.138 11.6974 146.311 11.2573 146.656 10.9124C147.013 10.5556 147.459 10.3772 147.994 10.3772C148.517 10.3772 148.957 10.5556 149.314 10.9124C149.683 11.2573 149.867 11.6974 149.867 12.2326V28.9319C149.867 31.7151 148.892 34.0701 146.941 35.9969C144.967 37.9475 142.612 38.9229 139.876 38.9229C137.117 38.9229 134.762 37.9475 132.811 35.9969C130.861 34.0463 129.885 31.6913 129.885 28.9319C129.885 26.1725 130.861 23.8174 132.811 21.8668C134.762 19.9162 137.117 18.9409 139.876 18.9409ZM156.309 15.3905C156.309 15.9971 156.095 16.5145 155.667 16.9427C155.239 17.3709 154.721 17.585 154.115 17.585C153.508 17.585 152.991 17.3709 152.563 16.9427C152.134 16.5145 151.92 15.9971 151.92 15.3905C151.92 14.7839 152.134 14.2665 152.563 13.8383C152.991 13.4102 153.508 13.1961 154.115 13.1961C154.721 13.1961 155.239 13.4102 155.667 13.8383C156.095 14.2665 156.309 14.7839 156.309 15.3905ZM152.259 37.0495V20.8142C152.259 20.2909 152.438 19.8508 152.795 19.494C153.163 19.1252 153.603 18.9409 154.115 18.9409C154.626 18.9409 155.06 19.1252 155.417 19.494C155.786 19.8508 155.976 20.2909 155.988 20.8142V37.0495C155.976 37.5729 155.786 38.0189 155.417 38.3876C155.06 38.7444 154.626 38.9229 154.115 38.9229C153.603 38.9229 153.163 38.7444 152.795 38.3876C152.438 38.0189 152.259 37.5729 152.259 37.0495ZM162.073 20.7785C163.655 19.5534 165.517 18.9409 167.658 18.9409C168.906 18.9409 170.09 19.1847 171.208 19.6724C172.338 20.16 173.331 20.8261 174.187 21.6706C175.044 22.5031 175.722 23.4903 176.221 24.6322C176.721 25.7621 176.971 26.9694 176.971 28.2539V37.0495C176.971 37.5729 176.786 38.0189 176.418 38.3876C176.061 38.7444 175.627 38.9229 175.115 38.9229C174.592 38.9229 174.146 38.7444 173.777 38.3876C173.42 38.0189 173.242 37.5729 173.242 37.0495V28.2539C173.242 27.4927 173.093 26.7731 172.796 26.0951C172.498 25.4172 172.094 24.8284 171.583 24.3289C171.083 23.8174 170.494 23.413 169.816 23.1157C169.138 22.8183 168.419 22.6697 167.658 22.6697C166.884 22.6697 166.159 22.8183 165.481 23.1157C164.815 23.4011 164.226 23.7996 163.715 24.311C163.203 24.8225 162.799 25.4172 162.502 26.0951C162.216 26.7731 162.073 27.4927 162.073 28.2539V37.0495C162.073 37.5729 161.889 38.0189 161.52 38.3876C161.163 38.7444 160.729 38.9229 160.218 38.9229C159.695 38.9229 159.249 38.7444 158.88 38.3876C158.523 38.0189 158.345 37.5729 158.345 37.0495V20.8142C158.345 20.3027 158.523 19.8627 158.88 19.494C159.249 19.1252 159.695 18.9409 160.218 18.9409C160.729 18.9409 161.163 19.1252 161.52 19.494C161.889 19.8627 162.073 20.2909 162.073 20.7785ZM188.301 22.6697C187.421 22.6697 186.6 22.8362 185.839 23.1692C185.078 23.5022 184.418 23.9542 183.859 24.5251C183.3 25.0841 182.854 25.7443 182.521 26.5055C182.199 27.2667 182.039 28.0755 182.039 28.9319C182.039 29.7882 182.199 30.597 182.521 31.3582C182.854 32.1195 183.3 32.7855 183.859 33.3564C184.418 33.9155 185.078 34.3615 185.839 34.6945C186.6 35.0276 187.421 35.1941 188.301 35.1941C189.169 35.1941 189.984 35.0276 190.745 34.6945C191.507 34.3615 192.167 33.9095 192.726 33.3386C193.297 32.7677 193.743 32.1076 194.064 31.3582C194.397 30.597 194.563 29.7882 194.563 28.9319C194.563 28.0755 194.397 27.2726 194.064 26.5233C193.743 25.7621 193.297 25.096 192.726 24.5251C192.167 23.9542 191.507 23.5022 190.745 23.1692C189.984 22.8362 189.169 22.6697 188.301 22.6697ZM194.563 36.7284C192.779 38.1914 190.692 38.9229 188.301 38.9229C185.542 38.9229 183.187 37.9475 181.236 35.9969C179.285 34.0463 178.31 31.6913 178.31 28.9319C178.31 26.1725 179.285 23.8174 181.236 21.8668C183.187 19.9162 185.542 18.9409 188.301 18.9409C191.037 18.9409 193.392 19.9162 195.366 21.8668C197.317 23.8174 198.292 26.1725 198.292 28.9319V38.8515C198.292 39.7079 198.161 40.5167 197.9 41.2779C197.638 42.0391 197.275 42.7349 196.811 43.3653C196.347 44.0075 195.8 44.5844 195.17 45.0959C194.54 45.6073 193.856 46.0355 193.118 46.3804C192.393 46.7372 191.631 47.0108 190.835 47.2011C190.038 47.3914 189.241 47.4866 188.444 47.4866C187.492 47.4866 186.559 47.3617 185.643 47.1119C184.727 46.874 183.859 46.5172 183.038 46.0414C182.217 45.5657 181.462 44.9769 180.772 44.2752C180.094 43.5734 179.517 42.7884 179.042 41.9201C178.851 41.6466 178.756 41.3136 178.756 40.921C178.756 40.3858 178.935 39.9398 179.291 39.583C179.648 39.238 180.094 39.0656 180.629 39.0656C180.986 39.0656 181.278 39.1488 181.504 39.3154C181.742 39.4819 182.063 39.8506 182.467 40.4215C182.872 40.9924 183.228 41.4265 183.538 41.7239C184.893 43.0798 186.529 43.7578 188.444 43.7578C190.371 43.7578 192 43.0917 193.332 41.7596C194.153 40.7605 194.563 39.7911 194.563 38.8515V36.7284Z" fill="white"/>
<circle cx="153.846" cy="15.3846" r="2.88462" fill="white"/>
<path d="M12.7539 32.8115C16.748 34.5188 20.7061 32.4107 21.4078 28.603" stroke="#002B51" stroke-width="1.92308" stroke-linecap="round"/>
<path d="M12.5312 31.2345C12.1912 30.8266 11.5849 30.7715 11.1769 31.1114C10.769 31.4514 10.7138 32.0577 11.0538 32.4657L12.5312 31.2345ZM17.9405 34.1762L18.8243 33.7974L18.0667 32.0298L17.1829 32.4086L17.9405 34.1762ZM11.0538 32.4657C12.4778 34.1744 14.2192 34.6145 15.5785 34.6145C16.2482 34.6145 16.8256 34.5092 17.2362 34.4043C17.4426 34.3517 17.61 34.2983 17.7297 34.2564C17.7896 34.2355 17.8378 34.2174 17.8732 34.2035C17.891 34.1966 17.9055 34.1907 17.9168 34.1861C17.9224 34.1838 17.9272 34.1818 17.9311 34.1802C17.9331 34.1793 17.9349 34.1786 17.9364 34.1779C17.9372 34.1776 17.938 34.1773 17.9386 34.177C17.939 34.1768 17.9394 34.1767 17.9396 34.1766C17.94 34.1764 17.9405 34.1762 17.5617 33.2924C17.1829 32.4086 17.1834 32.4084 17.1838 32.4083C17.1839 32.4082 17.1843 32.408 17.1845 32.4079C17.185 32.4078 17.1854 32.4076 17.1857 32.4074C17.1865 32.4071 17.187 32.4069 17.1874 32.4067C17.1881 32.4064 17.188 32.4065 17.1872 32.4068C17.1856 32.4075 17.1809 32.4094 17.1734 32.4123C17.1584 32.4182 17.132 32.4282 17.0952 32.4411C17.0214 32.4668 16.9071 32.5036 16.7604 32.541C16.4648 32.6165 16.0507 32.6914 15.5785 32.6914C14.6543 32.6914 13.511 32.4104 12.5312 31.2345L11.0538 32.4657Z" fill="white"/>
<path d="M5.76929 27.5664C6.72221 28.7078 9.11583 28.0091 9.08971 26.2614" stroke="white" stroke-width="1.92308" stroke-linecap="round"/>
<path d="M16.2983 20.3315C15.8675 19.6615 16.0615 18.7691 16.7315 18.3383L17.1211 18.0879C17.7911 17.6571 18.6835 17.8511 19.1143 18.5212L20.634 20.8851C21.0648 21.5552 20.8708 22.4475 20.2008 22.8783L19.8112 23.1287C19.1412 23.5595 18.2488 23.3655 17.818 22.6955L16.2983 20.3315Z" fill="#002B51"/>
</svg>
